<?xml version="1.0" encoding="UTF-8"?>
<svg width="1200pt" height="1200pt" version="1.1" viewBox="0 0 1200 1200" xmlns="http://www.w3.org/2000/svg">
 <g fill="#000">
  <path d="m569.46 651.91c-5.0234 2.0312-8.2266 7-8.0078 12.41 1.6602-1.8203 4.1406-2.6523 6.5625-2.2031 3.082-0.91406 6.418-0.066407 8.6914 2.2031 8.2109 9.1797 14.883 19.629 19.754 30.938 0.69531 1.2812 1.0703 2.707 1.0977 4.1641 1.418-5.1953 1.6484-10.641 0.67187-15.938-2.2578-7.7344-6.0234-14.945-11.07-21.227-3.8711-4.6562-10.594-13.105-17.699-10.348z"/>
  <path d="m565.06 203.13c0.074218-0.082031 0.11719-0.19141 0.12109-0.30078 0.66016-1.9727 1.9453-3.6719 3.668-4.8359 2.8125-3.3125 4.4023-7.4961 4.4883-11.84 0.089843-4.3438-1.3242-8.5898-4-12.012-7.332-6.8438-13.82 1.7734-13.387 9.375h-0.003907c1.5156 7.5938 3.6797 15.039 6.4805 22.258 0.9375-0.82031 1.8203-1.7031 2.6328-2.6445z"/>
  <path d="m461.25 572.95c-0.46484-0.60156-0.85547-1.2617-1.1641-1.9609-0.21484-0.16406-0.41797-0.34766-0.60938-0.54297-0.48828 1.707-1.0391 3.4766-1.4609 5.2578v0.003907c-5.1055 18.016-6.582 36.867-4.3516 55.461 11.574-11.902 22.023-24.848 31.211-38.672-9.0078-5.0117-17.016-11.637-23.625-19.547z"/>
  <path d="m536.56 269.85c11.07 6.4883 21.957 13.273 32.531 20.551v-0.003906c-1.5586-9.8242-2.2109-19.773-1.9492-29.719 0.60938-8.1367 2.1367-12.965 3.4766-12.965 1.3398 0 2.5117 5.0703 3.7969 12.844 1.3398 7.5 3.4219 18.227 5.1367 30.395 0.054688 0.30859 0.054688 0.55469 0.12109 0.85156h0.003906c7.2031-19.441 15.578-38.434 25.066-56.867-1.0078-0.53125-1.8086-1.3945-2.2578-2.4453-2.2578-5.625-4.9492-11.137-7.6406-16.574v-0.003907c-5.1133 1.3555-10.469 1.5234-15.656 0.48828-9.4648 18.219-24.48 32.953-42.871 42.074 0.12109 4.0977 0.17578 8.1953 0.24219 11.375z"/>
  <path d="m660.84 581.02c0.30078-0.24219 0.66406-0.42969 1.0312-0.67578v0.003906c-0.86719-9.7148-0.14453-19.508 2.1445-28.988-33.336 3.5547-66.965 12.723-99.562 8.8125 16.609 18.34 35.027 34.957 54.977 49.594 13.816-9.543 28.066-18.402 41.41-28.746z"/>
  <path d="m638.26 652.5c-0.48828-5.5117-10.152-8.9336-14.738-8.8125-6.7227 0.24219-12.723 8.1367-18.523 11.992 4.5586 6.4922 8.1797 13.594 10.762 21.094 8.9922-3.6484 23.121-16.98 22.5-24.273z"/>
  <path d="m531.79 491.86c1.0859-0.13281 2.1875-0.046875 3.2422 0.24219 14.637-36.227 31.613-71.469 50.82-105.5 25.133-47.336 38.438-94.426 52.352-145.43-4.6875-1.0977-9.3008-2.4453-13.883-3.9766-24.523 45.074-39.375 93.695-54.375 142.62-6.9766 22.996-13.762 46.172-22.754 68.559v0.003906c-6.3828 14.02-11.535 28.57-15.402 43.48z"/>
  <path d="m501.15 280.68c17.363 31.68 31.191 65.195 50.699 95.711 0.12109-0.48828 0.30078-0.9375 0.42188-1.4609 2.2695-7.5 4.5273-14.859 6.8516-22.266l-0.73047-0.73047c-19.145-23.914-30.461-53.148-50.211-76.445-2.3906 1.6445-4.7422 3.3516-7.0312 5.1914z"/>
  <path d="m553.19 577.12c-12.777-11.805-24.648-27.742-39.441-36.883-21.562-13.332-37.914-1.3516-38.344 21.039 14.438 17.129 37.801 25.199 56.391 37.059 15.957 10.109 31.109 21.438 45.32 33.879 0.60937 0.55078 1.1445 1.1797 1.582 1.875 2.543 0.71875 4.9922 1.7461 7.2852 3.0586 5.5625-5.7188 11.516-11.043 17.812-15.938-17.727-13.684-34.625-28.406-50.605-44.09z"/>
  <path d="m723.82 528c17.117-10.031 23.973-30.207 38.438-43.238-3.6328-5.0508-8.4414-9.1406-14.004-11.926-7.1094-0.95313-14.332-0.55859-21.293 1.1641-19.32 31.434-52.406 66.289-46.969 105.74 0.066406 0.1875 0.1875 0.30859 0.25391 0.48828v-0.003907c5.8281 11.938 10.355 24.465 13.5 37.371 2.8945-1.4062 5.4102-3.4844 7.3398-6.0586 0.53125-2.7305 2.1133-5.1445 4.4062-6.7188 4.2734-3.0547 9.7227-6.8516 8.8047-12.188-0.9375-5.5117 1.0391-6.8516 5.082-8.9922 2.9336-1.5273 3.9766-0.24219 5.2578-4.3516 0.42969-3.1094 0.42969-6.2617 0-9.375-1.0312-10.445-3.082-20.766-6.1211-30.812-0.98828-3.375 0.17188-7.0078 2.9336-9.1797 0.68359-0.76172 1.4844-1.4102 2.3711-1.9219z"/>
  <path d="m672.57 608.97c-1.2852-3.6094-2.8125-7.2109-4.3398-10.82-13.031 9.5352-26.785 18.16-39.938 27.516 1.3711 0.19531 2.7227 0.51172 4.043 0.9375 4.7773 1.4258 9.2852 3.6445 13.328 6.5625 8.7109-8.3516 17.918-16.18 26.906-24.195z"/>
  <path d="m786.21 627.19c9.6016 6.7891 19.199 13.398 28.258 20.43 14.617 11.25 29.062 22.688 43.969 33.75h-0.003906c3-6.7852 5.6367-13.727 7.8945-20.797-4.6875-3.75-9.3008-7.5-13.883-11.195-17.617-14.43-36.027-28.191-54.188-42.254v0.003906c-3.1367 7.1797-7.1836 13.922-12.047 20.062z"/>
  <path d="m994.39 744.32c-5.082-2.2578-10.152-4.5859-15.113-7.0977-1.6367 4.5586-4.0586 8.8008-7.1523 12.535 10.707 3.918 20.738 4.7148 22.266-5.4375z"/>
  <path d="m897.94 708.84c16.086 10.152 32.719 19.875 49.539 28.867 3.4297 1.875 9.4219 5.2578 15.938 8.3828 0.12109-0.1875 0.12109-0.36719 0.30078-0.55469h-0.003906c3.3828-3.5781 5.8945-7.8867 7.3438-12.594-34.324-19.07-66.832-41.242-97.117-66.234-2.3242 6.8438-5.0156 13.633-7.9492 20.242 10.426 7.5859 21 15.047 31.949 21.891z"/>
  <path d="m771.16 501.03c-10.707 10.031-17.492 24.102-28.012 34.688 13.27 13.305 27.234 25.902 41.828 37.734-1.4102-24.641-6.0586-48.988-13.816-72.422z"/>
  <path d="m603.34 373.03c-21.094 40.48-43.969 79.93-59.867 122.74 0.21875 0.11328 0.44531 0.21875 0.67578 0.30859l1.5273-0.48828c13.859-5.6211 25.875-15.008 34.688-27.094 15.703-20.188 28.871-42.227 39.207-65.625 4.2188-8.9922 7.0859-16.453 9.375-21.562 2.1484-5.2031 3.6758-8.1367 4.6875-7.8945 1.0117 0.24219 1.2852 3.4297 0.79688 9.1797-1.0078 8.1016-2.793 16.09-5.3242 23.852-8.0391 25.863-20.789 50.02-37.613 71.25-6.7812 8.5898-14.895 16.047-24.027 22.078 9.375 1.4062 17.98 1.9609 24.703 3.1797v-0.003906c3.7227 0.57031 7.4023 1.4102 11.004 2.5117-2.9492-4.8242-3.3008-10.801-0.9375-15.938 4.9102-11.992 14.734-21.301 26.973-25.562 9.2891-2.3242 20.852 5.4453 28.191 10.086 10.312 6.5625 20.117 14.008 30.824 19.883 1.0039 0.54687 1.8945 1.2695 2.6328 2.1406 4.3984-6.8516 8.9922-13.641 13.387-20.363h0.003907c0.074218-0.32031 0.17578-0.63672 0.30859-0.9375 0.74609-2.8203 1.6445-5.5938 2.6914-8.3164 1.4805-5.1953 2.5859-10.488 3.2969-15.844 0.12109-2.5703 0.42969-5.2031 0.48828-7.8281-0.24219-2.5039-0.42188-5.0156-0.54297-7.6406s-1.3516-5.9336-1.9609-8.9922l-0.55469-2.3242-0.17969-0.9375h0.003907c-0.097657-0.19531-0.17969-0.39844-0.24219-0.60938l-1.5391-4.4062c-4.3867-11.699-9.7695-22.883-14.137-33.496-4.1602-9.4805-7.3555-19.359-9.5352-29.484-1.5117-7.0117-1.8828-14.219-1.1055-21.348 0.79688-4.8828 1.875-7.5 2.8789-7.5 1.0039 0 1.7734 2.7461 2.7578 7.5h-0.003906c1.3789 6.3242 3.1562 12.555 5.3164 18.656 3.4648 9.1094 7.4062 18.031 11.805 26.73 4.8945 10.031 10.707 21.16 15.535 33.938-0.67578-14.25-0.9375-31.734-2.4453-50.27h-0.003906c-0.9375-10.789-2.5312-21.516-4.7695-32.109-1.9531-8.5625-4.5469-16.965-7.7656-25.137-5.5703-13.941-10.707-22.199-8.9336-23.605 1.2266-1.0977 9.4883 5.0156 18.102 19.078h0.003907c4.9102 8.2305 8.7539 17.051 11.438 26.25 3.207 11.184 5.3164 22.656 6.2969 34.246 1.3711 20.605 1.0234 41.285-1.0391 61.828-0.070312 0.40625-0.10938 0.81641-0.12109 1.2305l0.74219-0.9375h-0.003906c5.6602-5.9492 12.121-11.074 19.203-15.227 4.5273-2.4219 8.2617-6.0938 10.762-10.582 1.3242-3.3711 2.0312-6.9531 2.082-10.578-0.066406-2.9453 0.36719-4.8359 1.3398-5.1367 0.97656-0.30078 2.3242 0.9375 4.0977 3.75 2.3711 4.5234 3.1875 9.7031 2.3242 14.738-1.8672 7.4609-6.3594 13.996-12.656 18.414-5.9453 4.2773-11.473 9.1094-16.512 14.426-5.0625 5.6641-9.6484 11.742-13.703 18.168 9.6602-1.0547 19.422 0.59766 28.199 4.7734 6.8203 1.5 13.07 4.9336 17.992 9.8867 4.9219 4.957 8.3125 11.227 9.7656 18.059 0.24609 1.082 0.30859 2.1992 0.1875 3.3008 6.3867 14.543 10.906 29.832 13.453 45.508 1.4805-7.0508 3.5859-13.953 6.3008-20.625 17.25-41.766 22.266-71.129 1.875-112.65-18.281-37.125-45.32-68.805-66.723-104.06-16.754-27.582-31.004-43.051-63.844-47.945-9.4883-1.4062-18.844-2.7578-28.012-4.5273-11.953 44.82-22.164 88.367-43.82 129.9z"/>
  <path d="m778.68 621.82c4.9961-6.207 9.1016-13.082 12.188-20.43-17.07-13.332-33.824-26.961-49.48-41.711l-0.003907 0.003907c1.5469 8.957 0.57422 18.168-2.8125 26.605 11.773 13.531 25.254 25.477 40.109 35.531z"/>
  <path d="m533.93 279.76c11.07 16.941 20.129 35.164 31.93 51.684 1.9492-6.0547 3.9766-12.113 6.0469-18.102-0.36719-3.3086-0.73047-6.7891-1.1641-10.586-11.738-8.3164-23.785-16.086-36.141-23.438l0.003906 0.003906c-0.20312 0.17969-0.42969 0.32813-0.67578 0.4375z"/>
  <path d="m331.31 1094.8c-132.35 67.82 42.32 45.32 72.289 18.648v-0.003906c-18.836-2.4727-37.461-6.3555-55.715-11.613-5.8203-1.5781-11.395-3.9453-16.574-7.0312z"/>
  <path d="m645.42 527.39c-13.461 0.12109-26.973 0.24219-40.426-0.73047-22.496-0.74609-44.727-5.0625-65.867-12.789-0.44922 4.4922-0.53125 9.0156-0.24609 13.52 0.16797 2.0352-0.42187 4.0586-1.6484 5.6914 41.25 21.836 89.062 2.9922 132.65-0.61719h0.60938c2.1484-4.9492 4.5391-9.8398 7.1641-14.672l-0.003906-0.003907c-10.105 5.0469-21.012 8.2969-32.23 9.6016z"/>
  <path d="m387.19 830.91c61.648-46.969 126.29-89.477 189.47-134.18v0.003907c-2.1562-4.6406-4.6992-9.0898-7.5938-13.305-42.992 50.09-107.4 79.199-159.87 117.85-63.477 46.727-126.17 97.18-194.06 137.61 31.312-1.4062 60.609-24.711 84.824-42.695 29.109-21.613 58.332-43.262 87.234-65.285z"/>
  <path d="m949.55 1015c-20.242-30.938-44.062-58.836-63.234-90.695-20.152-33.547-38.484-68.152-54.918-103.67-26.973-58.34-52.414-116.14-81.77-172.77-0.12109 3.7969-0.30859 7.6484-0.67578 11.438h0.003907c-3.3867 29.508-9.4883 58.641-18.227 87.031-3.1797 10.828-5.8125 19.453-7.8281 25.379-2.0156 5.9258-3.3672 9.375-4.3398 9.1797-0.97656-0.19531-1.4062-3.75-1.2266-10.086l-0.003906-0.003906c0.67187-8.9648 1.8203-17.887 3.4336-26.73 3.543-22.32 10.574-52.66 13.754-85.988 1.0625-10.793 1.1875-21.656 0.375-32.473-0.25391-2.4453-0.61719-4.7734-0.9375-7.0312-1.875-3.4297-3.8516-6.918-5.8125-10.312-2.875 3.7812-6.2695 7.1367-10.09 9.9648-0.17578 0.92578-0.55078 1.8008-1.0977 2.5703-5.9297 8.3672-14.648 14.348-24.59 16.875-2.8867 0.83594-6 0.089843-8.1914-1.9609-3.293-0.74219-5.9297-3.1953-6.9102-6.4219-7.1523 6.2422-14.316 12.543-21.16 19.211 0.12109 0.66406 0.30078 1.2852 0.36719 1.9492 1.5273 17.859-20.062 40.125-38.438 44.711v-0.003907c-0.21094 1.7422-0.57812 3.4648-1.0977 5.1406-1.8281 5.9961-5.4219 11.301-10.312 15.223-0.67578 49.688-12.898 96.883-23.297 144.82 5.2578-8.3438 11.254-16.203 17.914-23.484 2.168-2.0664 5.1641-3.0234 8.1289-2.5859-0.9375-4.3398-1.8281-8.8047-2.5039-13.453-2.25-16.949-2.6406-34.098-1.1602-51.133 1.2188-12.898 3-20.852 5.0156-20.852 2.0156 0 3.75 7.9492 5.1953 20.727 1.5938 12.789 2.5703 30.336 5.2578 49.172 2.6914 17.617 6.5625 33.57 9.4219 45.75v0.003906c10.91 27.805 17.242 57.195 18.75 87.027 4.6875 50.445 12.965 100.78 14.195 151.43 15.16 6.7227 40.312 22.688 50.023 12.844 7.1523-7.2852 14.25-18.898 23.914-23.242v0.003907c6.7656-3.3789 14.434-4.5156 21.891-3.2461-3.7461-4.6484-7.1875-9.5273-10.312-14.613-9.043-15.113-16.543-31.09-22.387-47.703-10.207-29.684-18.379-60.027-24.461-90.824-2.3828-11.68-4.2852-21.094-5.625-27.637s-2.0156-10.312-1.0391-10.648c0.97656-0.33594 3.3008 2.5703 6.3555 8.8125 3.9141 8.7148 7.3047 17.66 10.152 26.781 7.5859 22.809 16.023 54.742 28.199 88.555 12.18 33.816 27.273 62.812 44.336 77.43 3.6641 3.2969 7.6836 6.168 11.992 8.5625 18.75 4.6875 42.93-3.8516 63.047-11.98v-0.3125c-1.7617-10.168-4.1523-20.219-7.1562-30.094-3.3008-10.883-7.3984-22.445-11.926-34.547-5.4375-14.559-10.762-28.5-15-41.586h0.003907c-3.793-11.625-6.7578-23.5-8.8711-35.543-1.4062-8.1953-1.9805-16.512-1.7148-24.824 0.42969-5.8125 1.1641-8.9922 2.1484-9.0547 2.2031-0.17969 3.9102 12.602 9.5352 31.621 2.9336 9.6016 6.7305 20.914 11.504 33.395 4.7734 12.477 10.398 26.176 15.938 40.914l-0.003906-0.003907c4.4922 11.773 8.3516 23.777 11.559 35.965 2.4062 9.332 4.0625 18.84 4.9531 28.434 0.74219 0.12109 1.4062 0.1875 2.082 0.30859 2.4453-0.9375 4.7734-1.9609 6.9766-2.7578 28.254-10.695 98.207-29.652 69.895-72.953zm-271.74-322.98c1.0078-3.7344 2.3398-7.375 3.9766-10.883 1.3398-3.0547 2.5703-5.7461 3.6641-7.8828 2.2031-4.2852 3.8516-6.5625 4.8281-6.2422s1.1055 3.0547 0.55469 7.8945c-0.24219 2.3828-0.73047 5.2578-1.2852 8.625v-0.003906c-0.8125 3.6953-1.4414 7.4258-1.875 11.184-3.0664 21.262-4.3555 42.742-3.8555 64.219 2.082 50.512 13.125 91.059 8.7461 92.289-1.7734 0.60938-6.5625-8.9922-11.926-25.379h0.003906c-6.5352-21.578-10.312-43.895-11.25-66.422-0.73828-22.77 2.1016-45.512 8.418-67.398zm33.207 318.82c1.6055 8.8633 2.7266 17.809 3.3633 26.793 0.24219 4.2188 0.42188 8.3164 0.66406 12.188-0.17969 3.9766-0.36328 7.7695-0.54297 11.383h0.003906c-0.25391 6.4844-1.0938 12.934-2.5156 19.266-0.55469 2.8125-0.9375 5.4375-1.5859 7.7617-0.79688 2.3242-1.5391 4.4609-2.2031 6.3672-2.7578 7.5742-4.6875 11.492-5.6914 11.184-1.0039-0.30859-0.79688-4.7617 0.1875-12.469 0.30078-1.875 0.60938-3.9766 0.9375-6.3008 0.13281-2.3242 0.25391-4.8945 0.375-7.5859l0.003906 0.003907c0.51172-6.125 0.60938-12.277 0.30078-18.414-0.12109-3.4219-0.24219-6.9766-0.36719-10.695-0.48828-3.6758-0.9375-7.5-1.4609-11.504-0.67578-8.0078-2.9453-16.387-4.4727-25.312-4.2188-17.605-10.031-36.816-16.941-56.934-6.9102-20.117-13.82-39.375-19.508-57.055-2.7461-8.9922-5.5039-17.438-7.5-25.508-1.0312-4.0977-2.0703-7.9492-3.0547-11.738-0.73047-3.7969-1.4609-7.5-2.2031-10.949-5.4375-28.379-3.75-45.75-2.1367-45.992 2.3242-0.30078 4.4062 17.371 12.113 43.613 0.9375 3.3008 1.9609 6.7891 2.9922 10.398 1.2266 3.6016 2.4453 7.332 3.75 11.25 2.4453 7.707 5.5703 15.938 8.625 24.582 6.3008 17.316 13.574 36.328 20.625 56.699l-0.003906-0.007813c6.6914 19.281 12.105 38.984 16.207 58.977zm88.312 43.305c-0.30859 4.7734-0.60938 8.8672-0.9375 12.188-0.73047 6.7305-1.5859 10.461-2.5703 10.461s-2.0156-3.6758-3.0547-10.312c-0.48828-3.3008-0.9375-7.3984-1.4609-12.102-0.52344-4.707-0.79688-10.219-1.9609-15.938-3.1797-23.184-9.3008-55.227-17.184-90.637-8.0703-35.41-14.859-67.883-17.98-91.801-2.9336-23.906-3-38.898-1.1641-39.074 2.082-0.24219 5.7461 14.129 11.195 37.18 5.6797 23.117 13.883 54.918 22.078 90.57h-0.003907c7.2266 30.648 11.668 61.883 13.266 93.328 0.25781 5.3789 0.16797 10.77-0.26172 16.137z"/>
  <path d="m328.31 838.87c20.793-15.535 41.41-31.191 62.082-46.414 12.965-9.543 26.719-18.535 40.727-27.461-1.2188 0.55469-2.3828 1.2188-3.6094 1.707l-0.003907-0.003907c-11.922 5.3516-25.391 6.1328-37.855 2.2031-8.1641-2.9727-15.227-8.3711-20.238-15.469-3-4.8281-4.0391-7.8281-3.3008-8.4375 0.74219-0.60938 3.4219 1.2852 7.5859 4.7617l-0.003907 0.003906c5.5273 4.4531 11.953 7.6523 18.836 9.375 2.1641 0.44531 4.3555 0.73047 6.5625 0.85156 2.457-0.007813 4.9102-0.19531 7.3398-0.55469 5.5-0.88672 10.836-2.5781 15.844-5.0156 12.043-5.9609 23.164-13.617 33.027-22.742 18.504-17.113 35.336-35.949 50.27-56.25 11.805-15.469 17.672-25.867 19.508-25.258 4.6875 1.4062-13.883 50.09-60.242 92.289-1.9609 1.7148-4.0312 3.3672-6.1133 5.082 31.949-18.824 61.57-41.344 88.25-67.098v-0.054688c-3.6289-6.9336-4.6992-14.918-3.0195-22.559 1.6797-7.6406 5.9961-14.445 12.195-19.219-11.484-9.4688-23.578-18.172-36.207-26.051 2.1445 3.3789 3.9492 6.9648 5.3828 10.703 3 7.8828 2.4453 12.965 1.2852 13.125-1.4727 0.30859-3.3008-3.75-7.707-9.7227v0.003906c-3.4297-4.5195-7.1055-8.8477-11.008-12.969-2.1953 11.074-5.9453 21.777-11.137 31.801-9.668 19.883-23.227 37.625-39.871 52.172-5.2148 4.5078-11.121 8.1406-17.492 10.762-4.4609 1.4062-7.1523 1.4062-7.5742 0.60937-0.49609-0.9375 1.5859-2.8125 5.1289-5.6797h-0.003906c4.5352-4.1211 8.8242-8.5039 12.844-13.125 13.414-15.59 24.836-32.789 34.004-51.195 4.8398-9.2539 8.5977-19.035 11.203-29.148-12.516 16.895-26.852 32.359-42.75 46.117-21.215 18.75-41.09 40.117-63.289 57.555v-0.003906c-25.348 20.32-45.969 45.91-60.434 75-8.4375 15.234-11.859 21.898-3.6641 39.375 1.6602 3.4648 2.8203 7.1445 3.4492 10.934z"/>
  <path d="m554.23 917.58c0.12109-0.9375 0.30859-1.9609 0.42969-2.9336-1.2852 1.2188-2.5117 2.3828-3.8516 3.4883-2.082 1.3398-4.1641 2.625-6.2422 3.9766v-0.003906c-4.4766 2.3203-9.3164 3.8711-14.309 4.5859-9.4805 1.0703-19.082-0.125-28.012-3.4883-7.7578-2.8008-15.215-6.3828-22.246-10.695-11.715-7.1406-22.434-15.801-31.875-25.754-6.4805-6.6406-11.945-14.203-16.211-22.445-1.1992-2.2188-2.043-4.6133-2.5-7.0977-0.375-1.707-0.30859-2.6914 0.12109-2.9336 0.42969-0.24219 1.2852 0.36719 2.4453 1.6484 1.1641 1.2852 2.6914 3.3086 4.6875 5.4453v0.003906c5.7188 6.4414 11.895 12.457 18.488 18 9.7539 8.1953 20.273 15.438 31.406 21.629 6.4414 3.4922 13.172 6.418 20.117 8.7461 6.8281 2.4648 14.125 3.3633 21.348 2.625 14.184-1.4609 23.852-13.941 30.461-26.055 0.66406-1.2188 1.2188-2.4375 1.875-3.6641 11.016-54.863 26.672-108.55 27.836-164.95h-0.003907c-1.7109-0.89453-3.2891-2.0273-4.6875-3.3633-74.164 52.527-148.84 103.85-221.56 158.71-8.6797 6.5625-18.102 14.25-28.012 22.32v0.003906c0.085938 0.66797 0.10547 1.3438 0.066406 2.0156-2.7578 41.25 5.625 81.402 6.4219 122.5 0.24219 14.492 3.3672 33.516-0.60938 47.578-4.8359 16.941 13.633 17.371 26.25 19.754 0.9375 0.1875 2.0156 0.42969 2.9336 0.60938l0.375-1.3398v-0.003906c1.543-8.7383 1.5195-17.684-0.066406-26.418-1.3516-10.52-1.5938-21.656-1.9609-32.812-0.67578-33.094-0.60938-62.57-2.6914-83.727-0.60938-5.2031-1.0977-9.9648-1.4609-14.195-0.36719-4.2266-1.0391-7.8828-1.2852-10.941-0.67578-6.0547-0.55469-9.543 0.36719-9.7891 0.91797-0.24219 2.7461 2.7578 5.0703 8.4375l0.003906 0.003907c1.4844 3.3945 2.7383 6.8906 3.75 10.461 1.1641 4.2188 2.3906 9.1133 3.6758 14.551h-0.003906c4.8555 28.012 7.2109 56.402 7.0312 84.832 0.36719 11.25 0.42187 21.891 1.3398 31.875h0.003907c1.0508 8.5703 0.84766 17.246-0.60938 25.754 11.492 4.5859 21.348 8.5586 29.109 11.805 1.9609 0.42188 3.9766 0.78906 5.9336 1.2188 1.2109 0.003907 2.4141 0.23047 3.543 0.67578 22.5 4.3398 45.262 8.1953 68.016 10.453-0.86328-1.0977-1.7148-2.1953-2.5117-3.3008-2.1562-2.918-4.043-6.0273-5.625-9.293l-0.60938-1.1055-0.30859-0.55469-0.12109-0.30078-0.36719-0.73047-0.066406-0.1875-0.9375-2.4453-1.875-4.9492c-1.3516-3.2422-2.2031-6.5625-3.2422-9.8516-3.5273-12.52-6.0352-25.301-7.5-38.223-2.6914-24.375-3.3672-46.051-4.9492-64.086l-0.003906-0.003906c-0.99609-14.184-2.832-28.293-5.5-42.262-1.875-9.9102-3.3086-15.535-2.2031-15.938 0.85156-0.1875 3.9102 4.5195 7.5859 14.305l-0.003906 0.003906c4.9414 13.824 8.3984 28.137 10.312 42.691 2.8672 18.227 4.6406 39.992 8.0078 63.477v0.003907c1.7031 12.145 4.3203 24.145 7.8281 35.895 0.9375 3 1.7734 6.0547 3.0547 8.9922l1.7812 4.4609 0.85156 2.2031 0.30859 0.48828 0.60938 1.1641h0.003906c1.3477 2.8828 3.0078 5.6094 4.9492 8.1367l2.5117 3.2422 3.1133 2.8125c5.8438 4.4844 12.945 7.0273 20.305 7.2773 1.7148 0 3.4219 0 5.1367-0.054687-3.4219-19.266-6.6641-37.613-9.0469-54.43l0.003906-0.003907c-2.457-17.062-3.8711-34.262-4.2305-51.496-0.24609-11.43 0.37891-22.859 1.875-34.191 1.1641-7.8828 2.2031-12.188 3.1133-12.188s1.4727 4.4609 1.875 12.355c0.17969 7.8828 0.9375 19.32 2.2578 33.516 1.4727 14.129 3.75 31.07 7.2734 50.023 3.1211 17.008 7.0391 35.84 11.016 55.895h0.003906c13.805-0.71875 27.516-2.6836 40.969-5.8672-20.215-60.777-40.031-121.82-30.555-186.58zm-81.891-83.539c16.445 1.5469 33.031-0.074218 48.863-4.7734 15.16-5.8828 28.484-15.699 38.598-28.434l9.8438-12.188c2.5039-2.9336 4.2852-4.3984 5.1367-3.9102s0.79688 2.7578-0.1875 6.4766c-1.4609 5.3672-3.5938 10.527-6.3555 15.359-4.125 7.3477-9.3438 14.031-15.48 19.809-7.6758 7.332-16.816 12.965-26.82 16.527-9.8984 3.3438-20.316 4.8945-30.758 4.5859-8.2578-0.22656-16.461-1.375-24.461-3.4219-13.52-3.6094-21.047-7.8281-20.551-9.6641 0.58203-2.0195 9.0273-1.2891 22.172-0.36719zm-51.188 202.25c-4.2852-0.12109-7.3984-28.5-11.07-63.602-3.9766-35.41-3.543-64.461 0.36719-64.828 3.9102-0.36719 10.031 28.004 14.008 63.355 3.793 35.719 0.42578 65.195-3.3047 65.074z"/>
  <path d="m960.87 1069.5c-12.934 11.359-28.156 19.809-44.645 24.766 11.859 22.82 27.516 48.805 53.203 50.82v-0.054687c0.14062-1.3047 0.097656-2.6211-0.12109-3.918-0.8125-3.9688-2.0391-7.8438-3.6641-11.559-1.5273-3.75-3.0547-7.332-4.1641-10.453-2.2578-6.1797-3.0547-10.707-1.4062-11.746 1.6484-1.0391 5.4453 1.3516 10.152 6.4219 2.7266 3.0508 5.1641 6.3477 7.2773 9.8516 3.0078 4.6016 5.0664 9.7617 6.0547 15.168 0.32422 1.6289 0.42969 3.2969 0.30859 4.9531 1.9492-0.48828 3.8516-0.9375 5.8672-1.6484 22.633-8.0742-11.742-51.988-28.863-72.602z"/>
  <path d="m607.07 55.07c5.6953-0.47266 11.402 0.76172 16.395 3.543 9.7031 5.25 17.43 13.516 22.012 23.551 0.76563 1.6992 1.3945 3.457 1.875 5.2578 0.32031 1.4297 0.52734 2.8789 0.62109 4.3398-0.12109 2.5039-0.61719 3.75-1.3516 3.75-1.5273 0.066406-2.8125-4.0977-7.5-9.7227-5.5234-7.3477-12.496-13.484-20.484-18.035-3.2773-1.8438-6.9492-2.875-10.707-3-2.4727 0.16406-4.8477 1.0352-6.8438 2.5117 2.9336-1.875 10.883 15.414 11.305 17.551h0.003906c2.7188-1.1875 5.7109-1.6094 8.6523-1.2227 2.9453 0.39062 5.7266 1.5742 8.043 3.4258 1.3125 1.0234 2.4883 2.2148 3.4883 3.543 2.0039 2.5703 3.5859 5.4375 4.6875 8.5039 3.4844 9.7305 4.8594 20.09 4.0312 30.395-0.55469 7.6406-2.082 12.289-3.4883 12.289s-2.5039-4.6875-3.75-11.926c-1.875-9.6641-2.3242-24.094-8.7461-32.043-6.7305-8.3164-16.023-4.0391-10.086 6.1797 10.934 20.168 14.77 43.434 10.883 66.047 0.12109 0.12109 0.30078 0.1875 0.42188 0.30859 6.1211 4.5195 11.926 9.0469 18.168 12.844-2.6328-30 11.492-61.648 8.2578-92.289-2.4453-23.242-26.914-54.918-55.172-43.359h0.003906c-2.3008 3.125-4.8633 6.0508-7.6602 8.7383 2.2461 1.0781 4.3945 2.3477 6.4219 3.7969 2.918-2.6914 6.5859-4.4258 10.52-4.9766z"/>
  <path d="m630.86 508.68c11.758-1.3789 23.367-3.8164 34.688-7.2852-7.5859-5.0703-15-10.398-22.93-14.793-8.1953-4.5273-11.926-5.5039-18.348 2.5039-2.2031 2.6914-7.0312 6.2422-3.543 9.7227 3.0547 3 6.1133 5.8789 9.168 8.8125v-0.003906c0.35156 0.32031 0.67187 0.66797 0.96484 1.043z"/>
  <path d="m581.93 65.035c-2.2031 2.3242-4.2734 4.5273-6.0547 6.4219 10.223 3.9922 19.57 9.9336 27.523 17.492 2.1367-10.031-12.355-18.898-21.469-23.914z"/>
  <path d="m481.27 202.27c-1.3906 3.3594-0.95703 7.1953 1.1562 10.156 0.96875 0.73437 2.1484 1.1406 3.3633 1.1602 2.3242 0.30078 4.9609 0.17969 5.9336 1.6484 1.5273 2.3828-2.0156 6.9102-1.2852 9.6641 1.2852 4.6875 6.2344 3.3672 8.9258 6.4219 2.4453 2.6914 0.9375 5.6797 1.5391 8.8672 4.1523 22.566 41.465-6.3672 48.617-13.398v0.007812c-3.4805-0.67188-6.9219-1.5312-10.312-2.5703-2.082-0.39453-3.4844-2.3633-3.1758-4.4609-0.097656-0.36328-0.16016-0.73438-0.1875-1.1055 1.0391-17.305-4.6875-26.664-15.102-39.938h-0.003906c-3.7539-5.2383-6.5078-11.125-8.125-17.363-1.4688-6.9805-3.9219-13.711-7.2852-19.996-8.4375-12.301-11.926-6.4883-21.094-7.707-2.9805-0.26562-5.875-1.1406-8.5039-2.5703-3.043 7.8828-3.9062 16.438-2.5 24.77 1.4102 8.3281 5.0391 16.125 10.508 22.566 4.8086 5.625-0.88281 17.613-2.4688 23.848z"/>
  <path d="m520.11 154.51c7.2734 24.16 25.445 35.961 24.957 61.949 3.6016 1.2266 8.1289 2.3906 8.8594-1.6484 0.35547-3.6758-0.16797-7.3828-1.5273-10.816-2.5508-5.9648-4.3984-12.203-5.5039-18.594-0.96094-5 0.070313-10.176 2.8711-14.426 2.8047-4.25 7.1562-7.2383 12.129-8.3242 4.7266-0.28125 9.3828 1.2539 13.016 4.2891 3.6367 3.0352 5.9766 7.3398 6.5508 12.039 1.0703 6.1992 0.39062 12.57-1.9609 18.406 5.2461 2.1602 11.223 1.5664 15.938-1.5859 1.7891-1.1641 3.957-1.6055 6.0586-1.2266 7.2422-21.684 8.3438-44.945 3.1758-67.211-0.60156 4.25-1.625 8.4297-3.0547 12.477-4.6875 13.125-11.25 19.199-12.188 18.402-1.2852-0.85156 2.6914-7.9492 5.1953-20.363l-0.003906 0.003906c1.543-7.0273 1.9102-14.258 1.0977-21.402-0.43359-3.9648-1.5703-7.8164-3.3555-11.383-0.79297-1.6992-1.8203-3.2773-3.0547-4.6875-0.98438-0.9375-1.9609-1.875-3-2.6914 0.31641 5.3867-0.34766 10.789-1.9609 15.938-2.0078 7.0664-5.6523 13.562-10.641 18.957-3.2461 3.668-7.3125 6.5156-11.867 8.3164-3.2344 1.1055-5.0078 0.98438-5.3164 0.42969-0.30859-0.55469 1.2852-1.7734 3.6094-3.75 3.1602-2.7031 5.9375-5.8281 8.25-9.2891 3.4336-5.1445 5.8633-10.895 7.1602-16.941 1.7422-7.1094 1.3555-14.574-1.1055-21.469-0.10938-0.003906-0.21875-0.046875-0.30078-0.12109 0.53516 3.2109 0.61719 6.4844 0.24609 9.7227-0.64844 3.9961-1.8438 7.8867-3.5547 11.559-2.8828 5.8203-6.7305 11.113-11.371 15.656-7.8281 7.5859-13.941 10.312-14.738 9.3008-0.9375-1.1641 3.4219-5.9336 9.168-14.008 3.3125-4.5703 6.0664-9.5156 8.2031-14.738 1.8906-4.6289 2.5859-9.6562 2.0156-14.625-8.6758 5.8828-17.762 11.137-27.188 15.723-9.0469 3.75-15 5.0703-15.535 3.9102-0.53516-1.1641 4.2852-4.8281 12.301-10.211 6.3008-4.5273 14.793-10.762 24.582-17.672-0.39844-0.12891-0.80469-0.23047-1.2188-0.30859-11.609-3.0938-23.848-2.9492-35.383 0.41406-11.535 3.3594-21.934 9.8164-30.062 18.664-4.8203 5.8047-8.9102 12.172-12.188 18.965 7.8828 5.5586 20.184-0.86328 28.012 7.2188 6.2305 7.2148 10.59 15.855 12.684 25.152z"/>
  <path d="m443.84 493.57c1.9609 15.648 5.2031 31.125 8.0156 46.66 12.535-22.566 29.598-31.133 48.863-28.312-7.707-8.1367-14.062-15.234-19.199-20.793-8.3828-8.625-13.125-14.062-12.188-15.234s7.1641 2.2695 17.316 9.4766c6.5625 4.8945 14.371 11.746 23.363 19.508-0.49609-2.1367-1.0391-4.2734-1.6602-6.4219-1.2188-4.3398-2.2578-8.8047-3.543-13.266-1.2852-4.4609-2.8125-8.6914-4.2852-13.125v0.003906c-1.1914-3.9805-2.6836-7.8633-4.4648-11.617-0.79688-1.875-1.5859-3.8516-2.4453-5.7461l-1.1641-2.8125-0.30078-0.66406-0.12109-0.36719-0.066406-0.12109-0.55469-1.1055c-3.543-6.8516-7.7617-13.332-11.184-20.727l0.003906-0.003906c-3.3164-7.0938-5.1094-14.805-5.2617-22.633-0.375-6.6641-0.55469-12.777-0.9375-18.168-0.58203-8.5156-1.8945-16.965-3.918-25.254-1.707-5.9922-2.5703-9.6016-1.5859-10.031 0.98437-0.42969 3.3008 2.2695 6.6641 7.707l0.003906-0.003906c4.3828 8.207 7.3984 17.074 8.9258 26.25 1.1055 5.7461 1.875 11.926 2.7578 18.402l-0.003906 0.003907c0.50391 6.2773 2.3125 12.387 5.3164 17.922 3.1211 5.9336 7.5859 12.477 11.625 19.875l0.79688 1.3516 0.85156 1.875 1.2188 2.8125c0.86328 1.875 1.6484 3.7969 2.5117 5.6914h0.003906c1.875 3.8945 3.4688 7.9219 4.7695 12.047 1.0391 3.4219 2.1367 6.7305 3.1797 10.098 2.3828-7.9609 5.3828-15.938 8.6797-24.16 8.6914-21.562 15.938-43.668 22.809-65.934-0.92187-0.29687-1.7188-0.89844-2.2578-1.707-20.625-31.258-34.801-65.934-52.715-98.711-3 2.2617-6.168 4.2852-9.4805 6.0586-18.535 9.2891-40.977 11.25-46.238 36.074-6.3008 30.16-8.9922 60.938-13.125 91.379-3.2422 24.094 2.6914 36.207 12.898 57.301l0.003906-0.003906c2.957 5.0898 5.0273 10.645 6.1211 16.426z"/>
 </g>
</svg>
