<?xml version="1.0" encoding="UTF-8"?>
<svg width="1200pt" height="1200pt" version="1.1" viewBox="0 0 1200 1200" xmlns="http://www.w3.org/2000/svg">
 <g fill="#000">
  <path d="m457.79 547.5c-0.81641 3.375-1.5391 6.6953-2.1484 10.07l-0.9375 5.3047 4.5391-2.9141c2.0898-1.332 4.2266-2.5781 6.4141-3.8164l2.2695-1.293-8.9062-12.281z"/>
  <path d="m476.98 504.94-0.48828 0.66406c-1.6953 2.3164-3.3477 4.7891-4.8828 7.2578l-0.35547 0.57031v0.67578c0 2.8125-0.054687 5.6797-0.10156 8.6797l-0.066406 3.75 3.4023-1.5352c6.1289-2.8242 12.59-4.8672 19.227-6.0742l1.9219-0.36719v-1.9688c-0.050781-4.1797 0.24219-8.3555 0.87109-12.488l0.47656-3.1211-3.1211 0.44922h0.003907c-5.4219 0.78906-10.785 1.9062-16.07 3.3477z"/>
  <path d="m454.06 568.12c-0.69531 5.9336-1.0859 11.184-1.2266 16.051l-0.12109 4.293 3.6758-2.2109c3.1484-1.875 6.1953-3.8984 9.2539-5.8984l-1.125-2.0703 1.2852 1.9609 1.0703-0.69531v-1.2852c-0.054688-5.2305 0-10.453 0.14062-15.676l0.085937-4.4141-3.75 2.4102c-3.3672 2.1836-6.0469 4.0859-8.4375 5.9727l-0.75781 0.60156z"/>
  <path d="m488.69 823.12 1.5078-0.41406 0.19531-1.5469c0.24219-1.9492 0.50781-3.8984 0.80469-5.8516l0.48828-3.2148-3.207 0.54297c-3.8711 0.67578-7.7422 1.2852-11.617 1.875-4.6875 0.74219-9.3203 1.4727-13.977 2.3047l-0.87109 0.14844-1.3789 1.7344c-0.85156 1.1055-1.7266 2.2305-2.7266 3.3008-1.0039 1.0703-2.1172 2.3164-3.2812 3.5547l-7.4336 7.9961 17.586-4.3594c8-1.9453 15.977-3.8945 23.91-6.0703z"/>
  <path d="m497.81 756.7c0.28125-3.1602 0.55469-6.2812 0.78906-9.4492l1.6484-22.586-6.1875 21.77c-1.0508 3.6641-2.1562 7.3672-3.3086 10.988l-0.89062 4.125 4.293-1.3203c0.70312-0.21484 1.4258-0.44922 2.1289-0.70312l1.3867-0.51562z"/>
  <path d="m489.45 764.54-1.1992 0.30859-0.42188 1.1797v0.003906c-2.7695 8.0664-5.9883 15.973-9.6367 23.68l-2.8125 5.7383 5.4102-1.875c3.9453-1.3516 8.0547-2.6055 12.188-3.8047l1.4922-0.42969 0.17969-1.5469c0.86328-7.3789 1.668-14.699 2.4297-22.031l0.35547-3.5078-3.3672 1.0234c-1.543 0.47656-3.0781 0.87109-4.6172 1.2617z"/>
  <path d="m470.11 553.59 3.4961-1.707c7.3555-3.5391 14.984-6.4805 22.809-8.793l1.9766-0.58984-0.33594-2.0352c-0.79688-4.8672-1.668-10.633-2.0898-16.445l-0.19531-2.6523-2.6055 0.52344v0.003907c-7.3789 1.375-14.496 3.9062-21.086 7.5l-1.1445 0.64844z"/>
  <path d="m494.13 791.93-3.4766 1.1055h-0.003906c-5.6445 1.7266-11.195 3.7422-16.629 6.0391l-0.74219 0.32031-0.38281 0.72266c-1.6953 3.1211-3.5352 6.207-5.418 9.1875l-2.7461 4.3203 11.109-1.6328c4.8008-0.69531 9.6289-1.3867 14.398-2.2031l1.7148-0.30078z"/>
  <path d="m461.02 800.45 1.125-2.1758v0.003907c12.215-24.812 21.68-50.887 28.219-77.758l3.8516-13.621-5.5312 4.0977h0.003906c-3.8203 2.7461-8.0703 4.8398-12.574 6.2031l-1.6484 0.51563v1.7266c-0.86719 12.887-5.1484 25.312-12.402 36-6.8828 11.879-12.562 24.047-18.055 35.812l-1.0312 2.2031 2.2305 0.9375c4.0234 1.7148 8.4375 3.3828 13.941 5.2578z"/>
  <path d="m488.72 686.57c-0.33984-0.89844-0.42578-1.8711-0.25391-2.8125v-2.8125l-19.988-1.5547-0.32031 2.1836 0.003906-0.003907c-0.0625 0.54297-0.20703 1.0703-0.43359 1.5664-2.9531 7.5117-2.8828 15.875 0.19922 23.336l0.76953 1.8281 1.9297-0.44922c15.262-3.6094 18.32-11.523 18.207-17.539 0-0.41406 0-0.83594 0.074219-1.7539v-0.003906c-0.023438-0.28125-0.023438-0.56641 0-0.85156l0.074219-0.60938z"/>
  <path d="m516.02 566.52c-2.7695 0.25781-5.5234 0.65234-8.25 1.1875l-2.5117 0.48828 0.70313 2.457c0.17969 0.63672 0.30859 1.3203 0.46094 2.0625 1.0586 5.0078 2.1758 10.012 3.2812 15l0.48828 2.1758 2.1953-0.375c4.7539-0.81641 9.8047-1.4336 15-1.875l2.5977-0.19531-0.47656-2.5586c-1.0586-5.6914-2.1172-11.383-3.0742-17.07l-0.34766-2.1094-10.07 0.82422z"/>
  <path d="m490.57 660.18 1.2109-12.602-2.1758-0.34766c-4.0586-0.66406-8.2305-1.3203-12.402-1.8281l-2.2305-0.28125-0.36719 2.2305c-0.29688 4.9102 0.85156 9.8008 3.3008 14.062l2.0898 4.8203 2.3711-1.6797c2.168-1.5273 4.4961-2.8164 6.9375-3.8516z"/>
  <path d="m518.01 813.07 1.3398-0.57031 0.1875-4.2266-0.27344-3.4492-3.375 1.3125c-0.44141 0.16797-0.85156 0.33594-1.332 0.47656v-0.003906c-6.0469 1.9102-12.195 3.4766-18.422 4.6875l-1.6602 0.32812-0.19531 1.6875c-0.20703 1.6953-0.40234 3.3359-0.65625 5.0352l-0.50781 3.5156 5.7461-1.5469h0.003906c6.5-2.0859 12.891-4.5039 19.145-7.2461z"/>
  <path d="m469.78 564.23c-0.09375 3.1016-0.09375 6.207-0.09375 9.3203v4.1172l3.543-2.1094c1.5742-0.9375 3.1875-1.875 4.8203-2.7109l2.4453-1.2656-1.6406-2.2109c-1.6211-2.1758-3.2422-4.3594-4.8672-6.4766l-3.9922-5.2227z"/>
  <path d="m471.11 649.02-2.9062 2.0352v-0.003906c-5.6211 3.3438-10.34 8.0117-13.746 13.594l-1.6484 3.1602 25.312 1.875-1.0859-3.3203c-0.68359-2.1094-1.5469-4.1328-2.4102-6.1211-1.1719-2.4922-2.0977-5.0898-2.7656-7.7617z"/>
  <path d="m523.21 542.81-0.19531-2.5234-2.5039 0.38281c-6.5625 1.0117-12.367 2.1641-17.68 3.5234l-2.1094 0.53516 0.38281 2.1484c0.9375 5.3359 2.082 10.66 3.1953 15.824l0.46094 2.1094 2.1367-0.28125c4.9961-0.65625 10.266-1.0781 16.133-1.293l2.5977-0.09375-0.36719-2.5781c-1.0312-7.168-1.6602-12.645-2.0508-17.754z"/>
  <path d="m502.88 568.68-2.4766 0.69531v-0.003906c-3.7344 1.0664-7.4062 2.3438-10.996 3.8242l-2.8125 1.1641 1.875 2.4297c3.582 4.6875 7.1055 9.375 10.633 14.109l0.9375 1.2461 2.7578-0.70312c0.76953-0.19531 1.5391-0.40234 2.2969-0.5625l2.3359-0.48828-0.52344-2.3242c-1.2578-5.5703-2.457-11.184-3.5156-16.875z"/>
  <path d="m498.2 518.09 2.7383-0.34766c6.6328-0.80078 13.309-1.1797 19.988-1.1406h2.1289l0.20703-2.1172c0.375-3.8828 0.9375-8.0234 1.7422-12.328l0.49609-2.8125h-2.8125c-5.7734 0.085938-13.387 0.28906-21.047 1.0781l-0.82422 0.074219-1.5273 1.6328 0.20703 0.86328v-0.003907c-0.68359 4.0625-1.0781 8.1719-1.1719 12.289z"/>
  <path d="m499.94 539.38 0.38281 2.5703 2.5117-0.64844c5.3242-1.3672 11.195-2.5391 17.945-3.5898l2.0703-0.32031-0.09375-2.1016c-0.17969-3.8828-0.16797-8.1367 0-13.387l0.085938-2.4297h-2.4297c-6.6914-0.039062-13.383 0.35547-20.023 1.1836l-2.1289 0.27344 0.085937 2.1367c0.21875 5.4609 0.75 10.91 1.5938 16.312z"/>
  <path d="m474.9 554.28-2.5781 1.2383 1.7148 2.2891c2.8125 3.6836 5.5586 7.3672 8.4375 11.062l1.5469 1.1055 1.5742-0.53516h0.003906c4.6914-1.6719 9.5156-2.9531 14.418-3.8359l2.2109-0.42187-0.33594-2.2227c-0.12109-0.88281-0.28906-1.7539-0.46875-2.625-0.17969-0.87109-0.32031-1.6328-0.44141-2.4766-0.46875-3.1016-0.9375-6.168-1.5-9.2617l-0.5625-3.3359-2.5391 0.75781v0.003906c-7.3633 2.1875-14.547 4.9492-21.48 8.2578z"/>
  <path d="m618.5 380.16-1.1992 1.0234c-1.9883 1.6953-3.75 3.1602-5.1016 4.0859l-7.4336 5.2578 2.7109 1.875c1.668 1.1797 3.2812 2.4297 4.875 3.6641l2.5391 2.0352 1.5273 1.5273 14.062-11.992-2.4844-1.7422v0.003906c-2.5938-1.8633-5.3125-3.5547-8.1367-5.0547z"/>
  <path d="m679.24 360.94-5.9336 4.8555 0.84375 1.6875c0.09375 0.19531 0.19531 0.38281 0.16016 0.1875 6.4219 21.234 15.676 34.125 27.938 38.605l1.875 1.2383 1.332-1.7812c0.40234-0.53516 0.80469-1.0312 1.2578-1.5273l1.7422-1.875-2.0547-1.5547c-12.742-8.5938-22.039-21.41-26.25-36.188z"/>
  <path d="m716.57 389.12-4.0703 9.668 7.7812-7.0234c1.6641-1.4883 3.2305-3.0859 4.6875-4.7812 6.3008-7.5 12.133-15.543 17.812-23.297l5.1836-7.0977-1.5859-1.4141h0.003906c-5.6641-5.7734-10.004-12.707-12.723-20.324-1.5742-3.5547-3.1953-7.2188-5.1562-10.754l-1.5742-2.8125-4.8672 5.3438c-3.7422 4.4023-7.8516 8.4805-12.281 12.188-4.9414 3.7969-10.059 7.4453-15.168 11.082-3.9102 2.8125-7.8086 5.5586-11.645 8.4375l-0.9375 0.70312v1.1797l-0.085938 0.21484 0.17969 0.42969v0.003906c2.5039 11.598 8.5273 22.141 17.25 30.188l9.375 8.9609-5.8125-12.02c-0.62109-1.4805-1.0625-3.0312-1.3125-4.6211-0.51172-3.5234-0.10156-7.1172 1.1914-10.434 1.1523-2.9609 2.7344-5.7344 4.6875-8.2422 2.2617-2.9062 4.6719-5.6953 7.2188-8.3594 1.0508-1.1328 2.0352-2.2031 2.9141-3.207 1.4805-1.668 2.8086-3.2773 3.9844-4.8281-0.80078 1.9531-1.7656 3.8359-2.8867 5.625-1.2266 1.9688-2.6914 4.0117-4.2109 6.1406-1.5195 2.1289-2.9922 4.1914-4.4531 6.4609v-0.003906c-3.4922 4.6602-5.1602 10.438-4.6875 16.238 0.42188 2.3438 1.1719 4.6172 2.2344 6.75l2.4922 5.9336 2.4297-3.6641c2.5586-3.8711 4.5859-7.5742 6.207-10.547l0.52344-0.9375 0.46094-0.86328-0.20703 0.9375c-0.80078 2.9766-1.7852 5.8984-2.9531 8.7461z"/>
  <path d="m689.65 462.62 0.75781-0.79688c4.2188-4.4727 8.3047-9.2266 12.496-14.539l1.0117-1.2852-0.86328-1.3984 0.003906 0.003906c-3.2656-4.8203-5.1016-10.461-5.293-16.277-0.19531-5.8164 1.2617-11.57 4.1953-16.594l1.125-2.3047-2.3984-0.9375c-15.18-5.7656-23.84-23.711-28.426-37.742l-1.1055-3.3828-2.6641 2.3516c-15.441 13.594-29.242 25.312-42.188 35.766l-0.88281 0.71094v1.1328h0.003906c-0.17578 9.375 1.5977 18.688 5.2109 27.34l2.2773 4.9688 2.0234-5.0703 0.003906-0.003906c0.26953-0.625 0.58203-1.2266 0.9375-1.8086 1.1016-1.582 2.4688-2.9648 4.0391-4.0781l0.63672-0.50781c1.2578-1.0352 2.4258-2.1758 3.4883-3.4102l1.8281-1.9688c2.0664-2.082 3.9492-4.3438 5.625-6.75 0.63672-0.9375 1.2852-1.7344 1.875-2.5703 1.2656-1.5742 2.4258-3.2305 3.4688-4.957l3.0547-4.5469 1.5391-2.2969c-0.88281 2.1641-2.0078 4.6875-3.4414 7.6406-0.89844 1.9453-1.9336 3.8242-3.1016 5.625-0.51562 0.84375-1.0391 1.7148-1.5938 2.6719-1.7305 2.8906-3.7227 5.6172-5.9531 8.1445l-0.9375 1.1445c-1.0547 1.3516-2.2305 2.6055-3.5078 3.75-1.5547 1.1367-2.9023 2.5312-3.9844 4.125-1.5977 3.2188-1.0039 7.0938 1.4844 9.6836 2.625 3.2617 5.9375 5.9023 9.7031 7.7344l2.1641 1.0703 1.0039-2.1953c1.6016-3.3398 3.4805-6.5391 5.625-9.5625 0.69531-1.0312 1.3672-2.0156 1.9688-2.9727 1.293-2.0234 2.5234-4.1445 3.7031-6.168 1.3125-2.2422 2.5508-4.3789 3.75-6.1016l1.5273-2.1094-1.0977 2.2891c-0.50781 1.1523-1.0039 2.3516-1.5273 3.6172-1.1797 2.8125-2.5039 6.0273-4.3594 9.6758-0.67578 1.2852-1.3867 2.5781-2.1094 3.8711-1.8516 3.1445-3.4492 6.4336-4.7812 9.832l-0.78906 2.2031 2.2031 0.79688c10.051 3.5117 20.551 5.5625 31.184 6.0859z"/>
  <path d="m651.05 370.25 1.5547-1.2734c4.5742-3.75 9.1484-7.4336 13.82-11.055l3.8516-2.9922-4.6875-1.1445v0.003906c-7.7969-0.75-15.582 1.582-21.684 6.4961l-2.9531 1.875 2.8125 2.0352c2.0234 1.4531 3.9648 3.0156 5.8125 4.6875z"/>
  <path d="m599.46 394.43-1.1797 0.89062c-2.2891 1.7344-4.5859 3.5156-6.7695 5.3047l-2.0547 1.668 1.875 1.875c1.4414 1.4258 2.9727 2.7617 4.5859 3.9961 0.81641 0.59375 1.3828 1.4727 1.5938 2.4648l0.64844 3.918 3.1133-2.4648c2.8984-2.2773 5.7383-4.5664 8.5859-6.957l1.7891-2.1562-2.2305-1.7812c-2.6836-2.2969-5.5898-4.3242-8.6719-6.0469z"/>
  <path d="m649.22 558.45c-3.3789 2.3633-7.3555 3.7266-11.477 3.9297l-4.0117 0.17969 2.1289 3.4023c2.418 3.8203 6.7383 6.0117 11.25 5.707 1.3438-0.003907 2.6875-0.12109 4.0117-0.34766l1.9961-0.32812-0.30859-15z"/>
  <path d="m473.44 619.41 0.52344 2.6992 2.5859-0.9375 0.003906 0.003907c10.191-3.5117 20.734-5.9062 31.441-7.1445l3.8711-0.53516-2.2969-3.168c-2.9062-3.9922-5.8984-7.9883-8.8594-11.953l-2.4453-3.2812-1.5938 0.50781v-0.003907c-8.4961 2.6367-16.559 6.5156-23.926 11.504l-1.1992 0.81641 0.19531 1.4336c0.44141 3.3555 1.0039 6.6836 1.6992 10.059z"/>
  <path d="m635.62 366.05-1.2656 0.9375c-2.9531 2.2969-5.8594 4.6406-8.5586 6.9297l-2.4766 2.1094 2.8125 1.6797c2.3984 1.4727 4.8281 3.0938 7.3984 4.9961l1.4922 1.0859 11.465-9.7227-2.0703-1.7891h-0.003906c-2.3047-2-4.7773-3.7969-7.3867-5.375z"/>
  <path d="m680.12 471.91 6.8906-6.4883-5.1289-0.52344h0.003906c-15.934-1.0273-31.262-6.4727-44.27-15.723-9.9297-9.3125-15.328-22.473-14.793-36.074l-0.26172-4.5742-6.8516 5.5781v1.125c0.16797 14.859 1.2852 31.547 12.449 41.438l-0.003906-0.003907c10.742 7.7852 23.559 12.195 36.816 12.668 4.8945 0.67578 9.5078 1.3125 13.93 2.3047z"/>
  <path d="m517.94 723.21 1.6328-0.55469-0.63672-24.094-3.4609 2.1016c-2.6133 1.6602-5.457 2.9258-8.4375 3.75l-1.3203 0.33594-2.4648 9.0938c-0.10547 4.0234-0.25781 8.0391-0.44922 12.047l-0.20703 4.0859 3.6289-1.875-0.003906 0.003906c3.7773-1.9258 7.6953-3.5625 11.719-4.8945z"/>
  <path d="m543.54 658.8c-1.1445-1.7266-2.2773-3.4297-3.4219-5.2227l-2.1562-3.1875-1.9219 1.1914c-13.109 7.8359-25.258 17.176-36.195 27.832l-0.60156 0.60156-0.61719 5.1367 0.1875 0.55469c0.082032 0.24219 0.18359 0.47656 0.30859 0.70312 0.41797 3.0703 2.5703 5.625 5.5234 6.5625 0.53516 0.13281 1.0859 0.19531 1.6406 0.19531 6.0742 0 13.406-7.5 20.43-15.234 1.0312-1.1445 1.875-2.0703 2.4453-2.6328 4.5312-4.3281 9.5234-8.1484 14.887-11.391l2.0703-1.2656z"/>
  <path d="m519.9 795.2c0.074218-2.8125 0.16016-5.625 0.1875-8.4375v-3.4297l-3.207 1.2109c-6.1133 2.3164-12.43 4.2852-18.375 6.1133l-1.4727 0.44922-0.15625 1.5273c-0.44141 3.7969-0.9375 7.6016-1.4062 11.438l-0.61719 4.9219 3.2539-0.73047c3.75-0.84375 7.1172-1.7148 10.246-2.6719 3.4492-1.1133 6.8164-2.457 10.086-4.0234l1.3047-0.61719z"/>
  <path d="m538.84 716.82 1.9688-0.62891-0.375-2.0234c-1.5-8.2422-3.4023-16.586-5.625-24.777l-1.0508-3.8438-2.8125 2.8125h0.003906c-2.6211 2.5742-5.375 5.0117-8.2422 7.3047l-0.9375 0.73047 0.72266 25.312 8.4375-2.5039c2.7461-0.81641 5.4102-1.5859 7.9102-2.3828z"/>
  <path d="m520.24 778.99c0.054688-7.8359 0.054688-15.664 0-23.438l-0.054687-3.8438-3.3828 1.8008h-0.003906c-4.8867 2.625-9.9102 4.9844-15.055 7.0586l-1.332 0.52344-0.14062 1.4336c-0.65625 7.0312-1.4531 14.016-2.2578 21.047l-0.5625 4.9766 3.3711-1.0469c6.1016-1.8047 12.105-3.918 17.992-6.3359l1.4141-0.60156z"/>
  <path d="m502.34 735.2c-0.35547 6.3281-0.86328 12.617-1.3672 18.863l-0.30859 3.8906 3.582-1.5547c5.457-2.3633 10.68-5.1094 14.617-7.2461l1.2578-0.68359v-1.4258c-0.10156-5.8047-0.19531-11.617-0.35547-17.477l-0.085937-3.3086-3.0938 1.1797h-0.003907c-4.5117 1.5977-8.8828 3.5625-13.07 5.8789l-1.0781 0.62891z"/>
  <path d="m677.51 474.09-5.2422-0.85156c-2.7461-0.44922-5.625-0.84375-8.4922-1.2383-7.8125-0.8125-15.539-2.3438-23.07-4.5742l-0.9375-0.67578-1.0117 0.9375c-1.2578 0.066406-2.5078-0.19531-3.6289-0.76953-2.1328-1.0352-4.1289-2.332-5.9453-3.8516l-2.8125-2.2031-0.88281 3.4883v0.14062c-0.30859 0.63672-0.60938 1.3047-0.9375 1.9766h0.003907c-0.60938 1.4805-1.3516 2.9023-2.2227 4.2461-3.1992 5.1094-6.8047 9.957-10.781 14.484-0.9375 1.0781-1.7539 2.082-2.5117 3.0195-0.75781 0.9375-1.5859 1.875-2.3047 2.6445l-0.41406 0.51562-0.046874 0.066407v-0.19531c0.34766-0.9375 0.82422-2.0625 1.5078-3.6562v-0.003906c2.0078-4.1484 4.3281-8.1367 6.9375-11.934 1.4141-2.2109 2.8789-4.4805 4.2188-6.7227 0.70312-1.0703 1.3281-2.1875 1.875-3.3477 0.34766-0.72266 0.68359-1.4258 1.2266-2.3516 0.54297-0.92969 0.81641-1.9961 1.1719-2.9727 0.24219-0.68359 0.49609-1.3594 0.76953-2.0156l0.52344-1.2578-0.83594-1.0781h0.003906c-7.1758-10.262-10.914-22.539-10.668-35.062l-0.20703-4.4805-6.3281 4.8555c-4.1719 3.207-8.3438 6.4141-12.602 9.582l-1.2109 1.1172h0.003906c-0.71875 1.1211-1.918 1.8438-3.2461 1.957-11.309 1.5273-22.414 4.3047-33.109 8.2891l0.21484 2.3516-0.46094-2.2969-1.3867 0.28125-0.40234 1.3516c-2.5938 8.4922-2.0547 17.633 1.5078 25.762l0.5625 1.3203 1.4453 0.09375v0.003906c1.0312 0.035157 2.0664 0.003907 3.0938-0.10547 1.3516-0.13281 2.7266-0.38281 4.1172-0.64844l1.0703-0.19531c1.875-0.36719 3.5703-0.74219 5.0078-1.1523l1.0039-0.26172h-0.007813c1.1758-0.26172 2.3242-0.63281 3.4336-1.1055 5.125-2.0625 9.8008-5.0977 13.77-8.9375 1.3594-1.3047 2.5508-2.4297 3.582-3.3945-0.82422 1.1719-1.8008 2.5039-2.9453 4.0234h0.003906c-3.5273 4.6289-8.1055 8.3477-13.352 10.855-1.5039 0.73437-3.0742 1.3203-4.6875 1.7539-1.6875 0.58203-3.3281 1.0586-4.9883 1.4531l-3.2812 0.75-3.5898 0.76953 3.5898 4.7617c2.4336 3.3633 5.1211 6.5312 8.043 9.4805 2.3398 2.6406 5.5195 4.3906 9 4.957 0.57422 0.070312 1.1562 0.03125 1.7188-0.11328l0.46094 0.046874 0.44922-0.14062c0.55469-0.16797 1.0977-0.36719 1.6328-0.55469l0.63672-0.22656-0.003906 0.003906c1.3594-0.37109 2.6719-0.89844 3.9102-1.5742l0.84375-0.42188c2.6992-1.4375 5.2344-3.1602 7.5664-5.1367 2.2891-1.9297 4.3203-3.7969 6.1133-5.457-1.6211 2.2383-3.3594 4.3945-5.2031 6.4492-2.1328 2.375-4.5703 4.457-7.25 6.1875l-0.5625 0.33594v0.003906c-1.3711 0.87891-2.8281 1.625-4.3477 2.2188-0.49609 0.22656-1.0117 0.42188-1.5391 0.63672l-0.9375 0.38281c-0.375 0.066406-0.75 0.14844-1.1523 0.25391l-4.4531 1.0977 3.5078 2.9727c2.4023 2.0508 4.9883 3.875 7.7227 5.4492 8.0469 4.0859 17.012 6.0273 26.027 5.625l6.6289 0.28906-0.09375-2.5508c-0.19531-5.6914-0.39453-11.438-0.55469-17.07 0.03125-0.71484 0.13281-1.4219 0.30078-2.1172 0.10938-1.1836 0.69141-2.2695 1.6094-3.0195 4.5508-5.4609 11.289-8.6211 18.395-8.625 4.7227 1.3047 8.5664 4.7305 10.406 9.2695l1.1328 2.1016 2.082-1.1719c6.2109-3.457 12.137-7.4023 17.719-11.805z"/>
  <path d="m585.05 406.15-1.6211 1.5664c-4.8164 4.5859-9.1602 9.6406-12.965 15.094l-3.3555 4.8828 5.793-1.2656c4.3516-0.9375 8.7109-1.7539 13.125-2.4922l0.9375-0.16797 0.5625-0.80469v-0.003906c0.33594-0.48828 0.73828-0.92578 1.1992-1.3008 1.3672-0.9375 2.7109-2.0156 4.0703-3.0742l3.9766-3.3672-3.3477-1.668h-0.003906c-2.3633-1.8125-4.6211-3.7617-6.7578-5.832z"/>
  <path d="m558.32 627.66 1.6133-0.63672-1.2734-15.543-2.3047 0.14844c-6.0195 0.39453-11.398 0.85156-16.461 1.4258l-2.4453 0.27344 0.39453 2.4297c0.9375 6.0938 1.6875 11.633 2.1484 16.941l0.30859 3.5078 3.1133-1.6406-0.011718-0.007812c4.8438-2.5664 9.8242-4.8672 14.918-6.8984z"/>
  <path d="m522.86 742.91v4.0234l3.4766-2.0078c5.2305-3.0078 10.453-5.9805 15.777-8.793l1.4258-0.75781-0.19531-1.6016c-0.50781-4.0117-1.0703-8.0156-1.6797-11.973l-0.41406-2.7266-2.625 0.85156c-4.8555 1.5664-9.6562 3.1875-14.523 4.8555l-1.6328 0.5625 0.046875 1.7266c0.19141 5.2734 0.30469 10.559 0.34375 15.84z"/>
  <path d="m526.61 777.33c7.4609-3.9883 13.859-9.7031 18.664-16.668l0.42969-0.65625v-0.77734c-0.30859-5.7852-0.76953-11.578-1.3203-17.363l-0.33594-3.5156-3.1133 1.6797c-4.6406 2.5117-9.2266 5.1289-13.781 7.7344l-4.0703 2.3164v1.3789c0.074218 5.9609 0.066406 11.906 0.054687 17.812v9.9922z"/>
  <path d="m467.11 588.23-0.16797-3.75-3.2891 1.7734c-3.0547 1.6484-6.207 3.3086-9.4609 4.9141l-1.3398 0.65625v1.4922-0.003906c0.15625 6.9492 0.71875 13.883 1.6875 20.766l0.66406 4.6875 3.3281-3.3945c2.7891-2.8242 5.7734-5.4453 8.9336-7.8477l1.0586-0.80469-0.14844-1.3203c-0.5625-5.2344-0.99219-10.859-1.2656-17.168z"/>
  <path d="m587.54 342.24v1.1914c-0.11328 4.6328-0.074218 8.5234 0.11328 12.242l0.1875 3.9102 3.3672-2.0234c12.965-7.8281 25.875-15.703 39.273-23.867l1.5273-0.9375-0.50781-1.7148c-0.77734-2.6797-1.6953-5.3633-2.6797-7.9961l-0.69531-1.8125-1.875 0.32031c-13.578 0.57422-26.352 6.5898-35.438 16.695l-0.33594 0.62891c-0.35937 1.0781-1.0469 2.0156-1.9609 2.6914z"/>
  <path d="m743.71 885c0.41016 0.003906 0.81641-0.039062 1.2188-0.13281 2.1562-0.51563 3.8398-2.2109 4.3398-4.375 0.73828-2.043 0.5-4.3086-0.64844-6.1523-2.1094-3.3477-7.293-5.5312-15.852-6.6758l-1.9219-0.26172-0.61719 1.875h-0.003907c-0.30469 0.98047-0.8125 1.8906-1.4883 2.6641l-1.4258 1.5859 1.4531 1.5664c4.293 4.6367 10.219 9.9062 14.945 9.9062z"/>
  <path d="m672.68 863.88 0.12109 3.1797 3-1.0508c10.469-3.4453 21.48-4.9297 32.484-4.3789l1.1445 0.57031 1.1797-1.0117h0.003907c2.2461-2.1445 5.2461-3.3203 8.3516-3.2734 0.92188 0.066407 1.8359 0.22266 2.7266 0.46875l1.875 0.51563 0.85156-1.7539 0.003906 0.003907c3.668-4.7734 9.4961-7.3672 15.496-6.9023l3.1797-0.13281-1.0703-3c-7.6797-21.562-22.258-30.844-41.035-26.156-26.211 6.6016-28.895 26.41-28.312 42.922z"/>
  <path d="m675.68 740.95-1.0508 2.5039c-2.1758 5.2109-4.2461 10.473-6.3281 15.797l-1.7891 4.5742 4.6875-1.4922c12.062-3.918 24.488-6.625 37.086-8.0781l10.125-1.1445-9.6016-3.3945h0.003906c-9.082-3.4648-18.594-5.6758-28.277-6.5625-0.89453-0.050781-1.7656-0.31641-2.5391-0.77734z"/>
  <path d="m726.56 821.74 18.957 10.707-16.246-14.504c-6.4883-6.0859-15.172-9.2695-24.059-8.8242-10.023 0.85937-19.289 5.6914-25.734 13.418l3.1797 3.4141v-0.003907c6.5547-4.8711 14.355-7.7969 22.5-8.4375 7.3945-0.72266 14.84 0.75 21.402 4.2305z"/>
  <path d="m729.38 863.65 0.58203 0.85156 1.0234 0.14844-0.003907 0.003906c5.1094 0.58203 10.098 1.9375 14.797 4.0234l3.3203 1.3125v-3.75h-0.003906c0.082031-3.6055-0.16406-7.207-0.73047-10.766l-1.1641-1.8281-2.6797-0.44141h-0.33594c-2.5508-0.22656-15.449-0.99219-17.578 5.625l-0.48828 1.5391 1.2578 1.0039h-0.003906c0.77734 0.65625 1.457 1.4258 2.0078 2.2773z"/>
  <path d="m534.57 398.32c-5.5781 3.4219-11.336 6.9648-17.148 10.125l-5.4766 2.9805 6.0859 1.3672 0.003906 0.003906c1.1133 0.23438 2.0977 0.87891 2.7539 1.8086l0.74219 1.0117h1.2461c2.7461-0.10156 5.4922-0.36719 8.2422-0.72266l0.86328-0.30078c10.539-6.0742 20.98-12.77 31.086-19.238 7.293-4.6875 14.531-9.3086 21.742-13.688 24.227-14.637 48.43-29.355 72.617-44.156 6.5625-4.0312 13.332-7.9688 20.07-11.914 14.27-8.3633 29.062-17.008 42.684-26.617l2.5039-1.8008v0.003906c5.8086-5.0703 12.828-8.5508 20.383-10.098l1.4531-0.14062 0.51562-1.3594c0.9375-2.5391 1.9766-5.1094 2.9922-7.668l4.8477-12.508-5.7461 3.3359c-23.043 13.359-46.023 27.844-68.242 41.852-14.391 9.0742-29.27 18.461-43.988 27.414-30.309 18.488-60 36.562-89.578 53.914-3.543 2.0273-7.0977 4.2031-10.652 6.3945z"/>
  <path d="m500.62 405.13v0.066407-0.003907c0.26172 0.47656 0.44141 0.99219 0.52344 1.5312l0.5625 2.8125 2.6719-1.1523v-0.003907c11.223-5.2305 22.043-11.281 32.375-18.102 4.293-2.6797 8.5391-5.3359 12.75-7.8203 10.445-6.207 20.859-12.457 31.246-18.75l1.4258-0.86328-0.33594-1.6328-0.003906 0.003906c-1.3008-7.2109-2.043-14.512-2.2227-21.836l-0.054688-1.1992-1.0117-0.65625c-16.82-10.895-51.148-26.25-73.211-14.746l-1.5938 0.83594 0.39453 1.7617c0.23828 1.1758 0.035156 2.4023-0.57031 3.4414-4.3594 9.2031-5.9219 19.484-4.4922 29.566 0.16016 3.3203 0.32812 6.6758 0.26172 10.07-0.13672 3.3789-0.44922 6.75-0.9375 10.098-2.1641 8.8633-1.3828 18.191 2.2227 26.578zm31.922-65.223c-0.19531 1.0625-0.46875 2.1094-0.81641 3.1289-0.75781 2.4102-2.0234 5.3633-3.3672 8.4922-0.88281 2.0703-1.8008 4.2109-2.6328 6.3359v0.003906c-0.24609 0.60938-0.44922 1.2383-0.60938 1.875l-0.34766 1.5664 3.375 1.875c1.875 0.87109 3.6836 1.7148 5.2227 2.5234 1.1914 0.63672 2.082 1.1797 2.7383 1.6211-1.0508-0.03125-2.0977-0.11719-3.1406-0.25391-2.4062-0.3125-4.7891-0.79688-7.125-1.4531l-0.64844-0.22656c-0.54687-0.17188-1.0859-0.37891-1.6094-0.61719l-0.44922-0.16016h-0.003907c-0.32812-0.17578-0.64453-0.38281-0.9375-0.61719l-0.46875-0.46875-0.51562-1.5195c-0.089844-0.36328-0.11719-0.74219-0.074219-1.1172v-0.52344c0.039062-0.47266 0.12891-0.94141 0.26172-1.3984 0.17187-0.79687 0.40234-1.5781 0.6875-2.3438 2.0938-5.1172 4.9141-9.9102 8.3711-14.23 0.89844-1.1055 1.5938-1.9102 2.1172-2.4922z"/>
  <path d="m430.78 484.52 1.6211 0.53516c2.0898 0.67578 4.1328 1.4609 6.1406 2.3359l1.4727 0.64844 1.1328-1.1445v-0.003906c8.7344-8.3398 18.281-15.777 28.5-22.211 9.0664-6.3555 17.703-13.301 25.859-20.793l8.6523-7.5664h-5.7383l-0.9375-0.47656-1.1523 0.80469c-12.332 8.3125-25.203 15.797-38.523 22.406-6.8633 3.5898-13.961 7.3125-20.832 11.25l-1.125 0.9375v1.3594c-0.33984 2.9688-1.6602 5.7422-3.75 7.875h-1.2578z"/>
  <path d="m709.16 737.98 2.9805 0.85156v-9.0742l-2.6914-1.4922v0.003906c-6.4805-4.168-13.695-7.0508-21.262-8.4961l-1.4727-0.17969-0.79688 1.2461c-0.62891 0.99219-1.2461 1.9766-1.875 2.9805-1.0859 1.875-2.0625 3.8047-3.0391 5.7578l-1.5391 3.0742 3.4297 0.30859 0.003906 0.003906c8.8906 0.85156 17.684 2.5273 26.262 5.0156z"/>
  <path d="m750.25 772.63c-4.9883-7.6953-12.684-13.23-21.562-15.516-0.44922-0.1875-0.9375-0.36719-1.3867-0.54297l-1.668-0.64844h-0.51953c-7.9648 0.3125-15.906 1.1484-23.766 2.5039l0.44141 4.6875c8.6172-0.11328 17.191 1.1953 25.379 3.8789l0.58984 0.1875 0.60938-0.13281v0.003907c1.3711-0.37109 2.8242 0.14453 3.6562 1.293l0.39453 0.51562 0.60938 0.24219c4.8203 1.957 9.5156 4.2109 14.062 6.7422l7.1523 3.9453z"/>
  <path d="m809.06 1101.4-0.82422 3.8711 3.7969-1.1328c0.9375-0.28125 1.875-0.51562 2.8125-0.70312l3.3555-0.66406-1.8281-2.8867c-0.66406-1.0508-1.293-2.1484-1.9609-3.3359l-2.8125-4.8672-1.5273 5.3828c-0.36328 1.4609-0.67578 2.875-1.0117 4.3359z"/>
  <path d="m805.45 1107.1 0.13281-1.0703h-0.003906c0.71484-6.0898 2.293-12.047 4.6875-17.691l0.28906-0.70313-0.16797-0.74219v0.003906c-0.58203-2.7891-1.0195-5.6055-1.3125-8.4375 0.44922-9.5352-4.0703-18.621-11.941-24.02-0.58203-0.32812-1.0938-0.76562-1.5117-1.2852l-0.9375-1.0703-1.3789 0.30078h0.003907c-10.543 2.5-20.941 5.5664-31.156 9.1797-5.8516 1.9492-11.699 3.8984-17.617 5.625l-6.4883 1.9219 6.2812 2.5039h0.003906c13.324 6.1406 25.777 14.02 37.031 23.438 4.8125 3.5938 9.2109 7.707 13.125 12.262l0.40234 0.49609 0.60156 0.21484c1.3906 0.51562 2.7461 1.1133 4.0586 1.8008l1.4258 0.74219 1.2109-1.0703h-0.003906c0.74609-0.67969 1.5391-1.3047 2.375-1.875z"/>
  <path d="m721.88 874.88c-4.3242 0.30078-8.6094-1.0078-12.027-3.6719l-2.4844-2.0078-1.1719 2.9727c-0.61328 1.5-1.1016 3.0508-1.4648 4.6289-1.3008 4.2227-1 8.7773 0.85547 12.789 1.1406 1.75 2.957 2.9453 5.0156 3.3008 1.0508 0.19531 2.1172 0.29297 3.1875 0.28906 4.5273 0 9.6953-1.6797 10.613-6.1875 0.55078-3.3281 0.55078-6.7227 0-10.051l-0.27344-2.2578z"/>
  <path d="m804.85 254.46c4.9023-2.7461 9.6289-5.8789 14.203-8.9062 4.5742-3.0273 9.1211-6.0469 13.848-8.6992l1.5273-1.1992-0.49609-1.7734c-0.33203-1.2734-0.73828-2.5273-1.2188-3.75l-0.9375-2.3711-2.2695 1.1992c-9.5234 5.0156-18.656 9.375-27.938 13.34l-1.668 0.71094 2.0352 13.125z"/>
  <path d="m775.88 292.95c3.2422-0.20312 6.4727-0.57422 9.6758-1.1133 5.0859-1.0234 10.297-1.2812 15.461-0.76953 5.9531 0.53906 11.652 2.6797 16.488 6.1953l3.6172 2.8125 0.16016-4.5742h0.003906c0.12109-2.9062-0.15625-5.8203-0.81641-8.6523l-0.35547-0.77734c-2.8633-4.7812-7.4531-8.2812-12.82-9.7812-5.3672-1.4961-11.102-0.87891-16.027 1.7266-4.1133 1.3008-8.0703 3.0547-11.793 5.2305-0.074218 0-7.1641 4.8672-6.2344 7.9414l0.79687 1.875z"/>
  <path d="m772.29 309.7c0.88281 1.293 3.0859 3.2539 7.9141 1.875l1.4531-0.42187c2.2227-0.65625 4.4336-1.3125 6.6641-1.8008 4.6289-0.91016 9.3672-1.1406 14.062-0.67578 4.5 0.23828 8.7695 2.0547 12.055 5.1367l3.0273 3.0938 0.98437-4.2734c0.30078-1.3125 0.60156-2.6055 0.85156-3.8633l0.32031-1.5938-1.3984-0.85156h0.003906c-0.40625-0.25391-0.75-0.59766-1.0039-1.0039-6.7891-9.8516-22.789-9.207-27.516-8.7734v-0.003907c-2.1758 0.24219-4.3281 0.64453-6.4414 1.2109-2.4844 0.71875-5.0547 1.1055-7.6406 1.1523l-1.2266-0.046875-0.74219 0.9375c-2.457 2.6992-3.0039 6.6367-1.3672 9.9023z"/>
  <path d="m726.43 868.88 0.63672-1.0508-0.9375-1.0391-0.32812-0.65625-0.64844-0.34766h0.003906c-0.19531-0.10547-0.33984-0.28516-0.40234-0.49609-0.19922-0.48047-0.35156-0.98047-0.44922-1.4922l-0.21484-0.87109-0.75781-0.50781h-0.003906c-2.3594-1.7969-5.5117-2.1562-8.2109-0.9375-1.7188 0.95313-3.2578 2.1875-4.5586 3.6562l-1.4062 1.5273 1.3398 1.5859c2.7227 2.4922 6.3281 3.8008 10.016 3.6289 0.45313 0.027344 0.91016 0.027344 1.3672 0 1.9961 0.050781 3.8125-1.1484 4.5547-3z"/>
  <path d="m793.55 1139c0.38281 0 0.77734 0 1.1641-0.054688v-0.003906c3.3086-0.29688 6.2891-2.125 8.0547-4.9414l0.57031-0.84375-0.22656-0.99219c-1.2812-7.418-4.1016-14.484-8.2773-20.746l-0.42188-0.57031-0.66406-0.23438v-0.003907c-10.613-4.25-22.672-2.6602-31.82 4.1914l-1.9609 1.6406 1.8086 1.8086c9.7812 9.7422 22.023 20.75 31.773 20.75z"/>
  <path d="m800.37 379.49c-0.9375-13.266-1.875-26.98-2.3984-40.586l-0.054687-1.3516-1.1992-0.62891-0.003906 0.003907c-2.1641-1.1992-4.5156-2.0156-6.957-2.4219l-2.4766-0.34766-0.1875 2.4844c-1.875 23.277-1.9688 47.812-2.1094 71.512-0.28906 52.086-0.58984 105.94-18.301 154.03l0.003906 0.003906c-13.5 32.707-32.074 63.082-55.039 90-3.4023 4.2852-6.9922 8.6172-10.648 13.023-16.625 20.031-33.789 40.723-40.887 65.098l-1.0703 3.582c-2.2656 6.5156-3.6992 13.289-4.2656 20.164l-0.40234 12.188 4.8945-11.176c10.602-26.473 25.473-51.035 44.016-72.703 24.375-27.676 49.633-56.25 66.402-91.266 20.48-40.848 31.855-85.652 33.336-131.32 0.50781-26.789-0.37891-53.59-2.6523-80.285z"/>
  <path d="m771.51 1014.7 1.0508 1.2188h-0.003906c3.2773 3.7617 7.6562 6.3867 12.516 7.5l2.5391 0.50781 0.26172-2.5781h0.003906c0.64453-8.2422-1.2812-16.484-5.5117-23.59l-0.60938-1.1328-1.2734-0.09375h-0.003907c-2.9766-0.18359-5.957 0.34766-8.6875 1.5469l-3.0391 1.3594 2.2578 2.4297c2.9102 3.0977 3.4258 7.7461 1.2656 11.406z"/>
  <path d="m520.17 635.75c-1.9609-5.9922-3.8711-11.973-5.625-17.953l-0.55469-1.875-1.9609 0.23438h0.003906c-12.145 1.1016-24.098 3.7578-35.559 7.9141l-1.875 0.74219 0.44922 1.9609c0.52344 2.2773 1.0859 4.5 1.7539 6.7227l0.44141 1.4453 1.5 0.19531c3.75 0.48828 7.4336 1.0703 11.492 1.7148l2.3984 0.375 0.39453-3.75v-0.003906c0.18359-1.5625 0.98828-2.9883 2.2305-3.9531 1.2461-0.96094 2.8281-1.3828 4.3867-1.1641 1.1641-0.007812 2.2695 0.50781 3.0195 1.3984 0.74609 0.89062 1.0586 2.0664 0.85547 3.2109l-0.34766 3.7969 2.3984 0.17969c4 0.35156 7.9727 0.98047 11.887 1.875l3.9922 0.84375z"/>
  <path d="m553.12 541.57-0.074219-2.1484-2.1484-0.11328c-2.8867-0.14844-5.7656-0.34766-8.6055-0.64844h-0.16797l-0.25391 0.003907c-5.2891 0.23438-9.7305 0.55469-13.977 1.0234l-2.2422 0.24219 0.16016 2.25c0.41406 5.625 1.1055 11.805 2.1367 18.797l0.30078 2.0078h2.0156c1.0977 0 2.1484 0 3.1484-0.054687 3.1211 0 6.2344-0.074219 9.3203-0.12109 3.0859-0.046875 5.9922-0.10156 8.9531-0.13281h2.4766l-0.16016-2.4766c-0.36719-6.207-0.71484-12.441-0.88281-18.629z"/>
  <path d="m448.27 542.06-5.1836 4.0586c-2.0742 1.7812-4.4844 3.1289-7.0898 3.957l-2.457 0.60156 2.3516 7.1523c1.0508 3.207 2.1094 6.4023 3.1211 9.6094l3.2734 10.312 1.2852-10.781h0.003906c0.76563-6.2305 1.8477-12.418 3.2422-18.535z"/>
  <path d="m554.38 564.38h-2.2031c-6.75 0.10156-13.781 0.38281-20.914 0.86328l-2.5781 0.17969 0.42188 2.5508c0.9375 5.7734 2.0234 11.539 3.1406 17.27l0.38281 1.9883 2.0234-0.09375c5.5391-0.27344 11.578-0.35547 19.051-0.30078h2.5977l-0.24219-2.5859c-0.5625-5.8867-1.0586-11.773-1.5078-17.719z"/>
  <path d="m555.94 608.89 2.4102-0.14844-0.44141-4.7734c-0.38281-4.1797-0.76953-8.3828-1.1992-12.59l-0.20703-2.0703h-2.082c-7.3047-0.10156-13.211-0.066407-18.602 0.14844l-2.7109 0.12109 1.2852 6.8438c0.75781 3.9844 1.5078 7.9766 2.1836 11.973l0.36719 2.1562 2.1758-0.21484c5.5703-0.58984 11.195-1.0898 16.82-1.4453z"/>
  <path d="m530.46 589.73-2.082 0.14062c-5.2891 0.375-10.219 0.9375-15.094 1.7422l-2.5117 0.41406 0.60938 2.4648c1.3672 5.5234 2.8125 11.043 4.3594 16.52l0.53516 1.875 18.039-2.0625-0.42969-2.457c-0.95703-5.5703-1.9648-11.117-3.0273-16.648z"/>
  <path d="m533.72 638.87h1.2383l1.1172-0.10156 1.4453-1.4453-0.074219-1.0703c-0.46094-6.1406-1.2188-12.617-2.3906-20.41l-0.33594-2.2305-17.383 1.875 2.3438 3.2734c4.5391 6.2891 8.9609 12.684 13.34 19.078z"/>
  <path d="m469.74 582.92v1.4453c0.16797 6.0742 0.50781 11.57 1.0234 16.762l0.375 3.75 3.1875-1.9688c6.0312-3.6836 12.473-6.6523 19.191-8.8516l3.0938-1.0234-1.9492-2.6055c-3.2891-4.3867-6.5625-8.7383-9.9102-13.125l-1.1641-1.5273-1.7266 0.84375c-3.6094 1.7539-7.1719 3.6562-10.734 5.5586l0.9375 2.1484-1.1055-2.0625z"/>
  <path d="m638.72 572.53-3.5234-1.875 0.28125 12.008 0.9375 0.68359v0.003906c1.8633 1.2773 4.0859 1.9375 6.3438 1.875 2.625-0.125 5.2188-0.59375 7.7188-1.3984l2.7461-0.75-0.054687-9.2148-2.6172 0.30078c-4.0195 0.625-8.1328 0.058594-11.832-1.6328z"/>
  <path d="m468.9 609.76-3.1875 2.7266v0.003906c-3.293 2.832-6.3516 5.9258-9.1484 9.2539l-0.72266 0.85156 0.21484 1.1055c0.13281 0.66406 0.28125 1.3594 0.44141 2.043 0.16016 0.68359 0.28906 1.3047 0.41406 1.9297l0.64844 3.4023 2.9141-1.875v0.003906c2.957-1.8906 6.0156-3.6172 9.1602-5.1758l1.6133-0.79688-0.34766-1.7617c-0.50781-2.4844-0.9375-5.0234-1.3516-7.5742z"/>
  <path d="m504.44 647.4-2.2578-0.11328-1.4922 16.875 4.3398-3.75c3.1016-2.6445 6.2891-5.2422 9.5352-7.6797l4.1172-3.1016-5.043-1.0703-0.003906 0.003906c-3.0312-0.625-6.1055-1.0117-9.1953-1.1641z"/>
  <path d="m589.26 606.84c0.55469-4.5195 1.0039-8.9805 1.4141-13.5l0.22656-2.418-7.2734-0.38281c-7.125-0.375-14.336-0.75781-21.562-1.0117l-2.6719-0.09375 1.875 19.199 2.2227-0.085937-0.003906-0.003907c7.7695-0.30859 15.551-0.19141 23.305 0.34766l2.2227 0.16016z"/>
  <path d="m559.13 586.99 2.0898 0.054688c6.3359 0.16797 12.648 0.42969 18.898 0.70312l10.961 0.44141 0.14844-2.2773c0.35547-5.418 0.60156-10.836 0.80469-16.258l0.074219-2.0234-1.9883-0.36719h0.007812c-10.008-1.7656-20.141-2.707-30.301-2.8125l-2.5781-0.074219 0.1875 2.5703c0.30859 4.0586 0.66406 8.1094 1.0117 12.188z"/>
  <path d="m557.08 562.62h2.1953-0.003906c10.145-0.11719 20.285 0.53125 30.328 1.9414l2.6172 0.40234 0.074219-2.6523c0.14844-5.3711 0.25391-10.789 0.30078-16.164l0.054688-2.3984-1.7891-0.44141c-2.3438-0.5625-4.6875-1.0703-7.2656-1.6016-8.3164-1.0703-16.641-1.5273-25.164-1.9414l-2.5703-0.12109 0.11328 2.5586c0.25391 6.0859 0.55469 12.188 0.9375 18.234z"/>
  <path d="m641.46 676.88 2.1758 1.1172c3.1797 1.6484 6.3203 3.3359 9.2422 5.0156l4.1641 4.1641-0.30859-6.0742c-0.21484-4.4141-0.52344-8.8203-0.83594-13.219v-0.003906c-0.93359-10.527-1.2617-21.102-0.98438-31.668l0.12109-2.457h-2.457l-0.62891 0.074219c-2.5586 0.28516-5.1328 0.39453-7.7031 0.32812h-2.3828v27.676c0.53516 3.3555 0.88281 6.75 1.2383 10.312 0.12891 0.89844-0.03125 1.8164-0.46094 2.6172z"/>
  <path d="m588.17 614.44 0.46875-2.5586-2.5977-0.19531v-0.003906c-7.3477-0.53906-14.719-0.69141-22.086-0.45703l-2.4648 0.066406 1.2383 14.652 2.8125-0.85156v-0.003906c6.5156-2.0156 13.258-3.2188 20.07-3.5781l2.9062-0.16016-0.76953-2.8125c-0.054688-0.25781-0.054688-0.52344 0-0.77734 0.10156-0.58984 0.1875-1.1797 0.26172-1.7617 0.078126-0.58203 0.066407-0.99609 0.16016-1.5586z"/>
  <path d="m672.37 609.65c1.4062-4.9336 0.5-10.234-2.457-14.422-2.4922-3.0586-6.3359-4.6836-10.266-4.3398h-2.457l0.074219 2.418c0.80469 5.5-0.68359 11.09-4.1133 15.461-2.4844 2.0664-5.7617 2.918-8.9375 2.3164-7.2188-0.77734-11.383-5.2891-13.93-15.066l-0.68359-2.6445-2.5117 1.0859v0.003907c-3.8906 1.7578-6.4375 5.582-6.5625 9.8516-0.24219 2.8086 0.26172 5.6328 1.4688 8.1836 1.207 2.5508 3.0664 4.7344 5.3906 6.3281 5.3828 3.3633 11.617 5.1094 17.965 5.0352 1.6094-0.003906 3.2188-0.10547 4.8164-0.30078 5.9258-0.70312 19.82-3.4688 22.203-13.91z"/>
  <path d="m433.27 652.2c0.51953 4.1211 0.69531 8.2734 0.52734 12.422v2.3047l2.2969 0.09375c3.6641 0.14844 7.332 0.30078 11.043 0.55469l3.6953 0.24219-1.3594-3.4414v0.003906c-2.5508-6.043-6.9648-11.113-12.602-14.465l-4.3672-2.9062z"/>
  <path d="m435.36 645.34 4.3398 3.4219c4.2148 3.2188 7.8203 7.1641 10.652 11.645l1.7617 2.8672 2.082-2.6445v0.003906c3.5-4.0703 7.4414-7.7383 11.746-10.941l6.1953-5.0234-5.8516-0.46094h0.003906c-8.4844-0.75781-17.02-0.61719-25.473 0.42188z"/>
  <path d="m424.85 666.72c1.2266 0 2.5039 0 3.75 0.10156l2.3633 0.09375 0.074218-2.3633c0.38281-5.1016 0.011719-10.23-1.0977-15.223l-0.64844-2.3906-5.2227 1.7734-0.41406 0.9375 0.003906-0.003906c-2.0039 4.8555-2.375 10.227-1.0586 15.312l0.46094 1.7344z"/>
  <path d="m406.02 820.78 0.30078 1.2266c2.3984 9.8516 5.5234 14.785 9.8164 15.496l-0.003906 0.003906c0.34375 0.054688 0.69141 0.082032 1.043 0.082032 3.3945 0 6.8438-2.8125 10.5-8.4375l6.9648-9.0195c2.957-3.8633 6.2109-7.4961 9.7305-10.855l2.7383-2.9141-3.1406-1.2578c-3.8359-1.5273-7.3203-3.0664-10.641-4.6875-1.0195-0.55078-1.7695-1.4922-2.082-2.6055l-1.332-3.8906-2.6719 3.1328c-7.4062 8.7109-14.062 16.152-20.305 22.762z"/>
  <path d="m622.88 525-0.10156-2.1016-3.3477-0.1875c-14.125 0.74609-28.121-3.0039-39.984-10.703-11.074-7.9609-20.734-17.723-28.574-28.875-3.2109-4.5742-5.6953-9.6211-7.3594-14.953l-1.9414-6.375-2.4844 6.1797v-0.003906c-5.3477 14.809-7.9375 30.469-7.6406 46.211 0 1.2188-0.16016 2.6445-0.30859 4.1328-1.2148 4.9609-0.5 10.199 2.0039 14.652 1.5 1.7734 3.6328 2.8867 5.9453 3.0938l0.78906 0.51563 0.84375-0.046876h-0.003906c2.418-0.039062 4.8359 0.058594 7.2383 0.29297 2.0703 0.16016 4.1445 0.32812 6.3281 0.32812 10.574-0.14453 21.137 0.80078 31.52 2.8125 12.164 1.0938 23.945 4.8008 34.547 10.863l3.75 2.3711-0.49609-12.27c-0.22656-5.3359-0.44922-10.633-0.72266-15.938z"/>
  <path d="m747.96 1001.4c1.8086-0.32031 3.6094-0.63672 5.3828-0.9375l0.5625-0.1875h-0.003906c3.3008-1.707 7.0547-2.332 10.727-1.7812l0.99219 0.1875 0.81641-0.60156v0.003906c2.957-2.1289 6.3867-3.5039 9.9961-4.0117l4.6875-0.14063-3.2539-3.75c-0.10547-0.21484-0.19922-0.43359-0.27344-0.65625l-0.28125-0.58203c-0.57031-0.82422-0.87109-1.8086-0.85156-2.8125-0.80469-35.562-7.6992-70.727-20.383-103.96l-4.5391-12.742v13.125l0.003906 0.003906c-0.77344 2.5195-2.7305 4.5039-5.2422 5.3125-5.6016 0.21484-11.023-2.0234-14.84-6.1289l-3.75-3.1406-0.046875 4.9219c-0.054687 5.3164-1.4336 8.4375-4.4453 10.133-2.5938 1.5898-5.5664 2.4688-8.6094 2.543-3.043 0.074218-6.0547-0.65625-8.7227-2.1211-2.082-1.8008-3.625-4.1445-4.4531-6.7695-0.82813-2.625-0.91016-5.4297-0.23438-8.0977l0.83594-5.4922-4.5078 3.2344-0.003907-0.003906c-2.4375 1.6602-4.75 3.5-6.9102 5.5039l-2.5391 2.418c-7.5 7.1328-14.551 13.875-22.5 20.102l-1.1445 0.89062 0.28906 1.4258c3.8438 18.812 10.941 36.809 20.98 53.176 4.6875 7.5742 10.031 14.691 15.242 21.562h0.003906c6.5625 8.25 12.516 16.969 17.812 26.09l1.668 3.0664 2.2227-1.5469c7.7539-4.5156 16.383-7.3242 25.312-8.2344zm-21.637-85.48c0.73047 1.1797 1.6133 2.6914 2.6719 4.6133 4.6055 8.4531 8.7227 17.16 12.336 26.082 3.6641 8.957 6.3711 18.277 8.082 27.805 0.28125 2.1094 0.44922 3.8438 0.54297 5.2578-0.53516-1.3203-1.1719-2.9805-1.9414-5.1016l-2.1953-5.7852c-2.25-5.9336-4.9609-13.125-8.0625-20.793-3.4023-8.4375-7.6211-19.152-10.023-26.906-0.61328-2.0586-1.082-3.7656-1.4102-5.1719z"/>
  <path d="m364.08 943.6c2.4766 1.4805 5.0078 3.0078 7.6797 4.5273v0.003906c1.918 1.1406 4.1055 1.7539 6.3359 1.7695 6.9258-0.91016 13.117-4.7852 16.961-10.621l2.2891-2.7188-3.4023-1.0312c-1.5859-0.47656-3.168-0.9375-4.7617-1.3984h-0.003907c-6.0195-1.4688-11.852-3.6133-17.391-6.3906-4.0508-2.2227-7.9883-4.6875-11.926-7.0859-1.9297-1.1992-3.8633-2.3906-5.8125-3.5625l-1.875-1.1172-1.2578 1.7617c-2.8125 3.9648-5.5508 7.9766-8.1367 12l-1.5859 2.457 2.7383 1.0117c7.0312 2.8164 13.777 6.3008 20.148 10.395z"/>
  <path d="m373.43 925.31c5.3906 2.5078 11 4.5234 16.754 6.0195 2.4102 0.69531 4.8281 1.3984 7.2383 2.1836l1.668 0.55469 0.99219-1.4531c2.4453-3.5703 4.6875-7.1914 6.5625-10.367l1.6016-2.6914-3.0469-0.77734 0.003906-0.003906c-6.4531-1.957-12.605-4.793-18.281-8.4375-6.6406-4.332-13.973-7.5039-21.676-9.375l-1.3867-0.26172-0.88281 1.1055c-2.5859 3.2422-5.0703 6.4961-7.5 9.7422l-1.5273 2.043 6.0273 3.7969c4.3438 2.8711 8.8359 5.5156 13.453 7.9219z"/>
  <path d="m386.75 481.79 0.28906 2.3906 2.3906-0.35547h0.003907c2.0039-0.28906 4.0469-0.24219 6.0352 0.14062l4.5469 0.82422-2.0234-4.1641v0.003906c-1.8125-3.1836-1.9922-7.0391-0.48828-10.379 0.94531-2.0977 3.0547-3.418 5.3516-3.3555l3.1406-0.10156-0.99219-2.9805v-0.003906c-0.33594-0.94922-0.53516-1.9375-0.58984-2.9414l-0.17969-4.1914-3.4766 2.3516c-6.9648 4.2734-12.293 10.758-15.141 18.414l-0.36719 1.1055 0.65625 0.9375c0.46484 0.6875 0.75391 1.4805 0.84375 2.3047z"/>
  <path d="m354.92 950.24c1.7656 1.3828 3.4336 2.8828 4.9961 4.4883 5.7578 5.5703 12.898 12.488 20.211 12.488h0.22656c3.0625-0.082031 5.9492-1.4219 7.9883-3.7031 9.9414-10.988 19.051-22.699 27.254-35.035l6.1133-8.6797c14.43-21.191 30.059-41.539 46.816-60.938l6.2617-6.957-12.188 4.332-0.9375 0.60156c-2.4453 2.5703-4.8828 5.0898-7.3203 7.5938v-0.003906c-12.062 11.582-22.832 24.438-32.117 38.344-1.6328 2.6055-3.2539 5.25-4.8945 7.9141-6.4844 11.164-13.773 21.84-21.816 31.941-13.18 15.555-22.258 10.152-35.98 1.9492-5.6992-3.6406-11.75-6.707-18.055-9.1484l-1.8086-0.64844-0.9375 1.6484c-0.47656 0.78906-0.9375 1.5859-1.3672 2.3711l-1.2188 2.2969 2.4102 0.9375-0.003907 0.003906c5.7578 2.0859 11.25 4.8359 16.367 8.2031z"/>
  <path d="m386.62 907.16c6.2695 4.0547 13.121 7.1367 20.312 9.1406 0.11719 0.035156 0.22656 0.089843 0.32031 0.16797l2.0156 1.4258 1.3125-2.082c2.2891-3.6016 4.5078-7.3516 6.75-11.129 1.2734-2.1562 2.5703-4.3203 3.8711-6.4766l1.6133-2.6523-3.0078-0.81641c-12.664-2.6328-24.609-7.9766-35.008-15.668l-1.7891-1.5391-1.5273 1.8008c-4.4531 5.2578-8.8984 10.574-13.258 15.938l-2.2422 2.8125 3.4297 0.9375h0.003906c6.0508 1.9805 11.832 4.7148 17.203 8.1406z"/>
  <path d="m424.79 993.75-5.5586 2.2031 0.16797 5.6992c0.60156 8.3242 0.17578 16.691-1.2734 24.91l-0.82422 3.75 3.75-0.9375c2.0352-0.52344 3.9766-1.0977 5.8672-1.7734l1.0977-0.40234 0.33594-1.1172v0.003907c3.1367-10.223 2.2188-21.254-2.5586-30.816z"/>
  <path d="m410.99 472.71-0.50781-0.375c-4.4453-2.4453-7.0039-3.1484-8.8203-2.3828v0.003907c-0.93359 0.39453-1.625 1.2031-1.875 2.1836-1.875 7.2656 3.7031 14.398 15.695 20.109l3.5234 1.6797-0.17969-3.9102c-0.21484-2.9492 0.042969-5.9102 0.76953-8.7773l0.48828-1.668-1.4727-0.9375c-2.7383-1.7109-5.2891-3.6953-7.6211-5.9258z"/>
  <path d="m509.65 970.31c-0.12109-3.2812-0.25391-6.5625-0.46875-9.8164l-0.21484-3.0938-2.9141 1.0508c-7.3594 2.6523-14.773 5.1289-22.199 7.6133-14.41 4.8086-29.305 9.7891-43.547 16.012l-0.71094 0.48828h-0.003906c-3.168 3.2109-6.6758 6.0664-10.461 8.5195l-1.875 1.2266 1.1719 1.9492v0.003906c4.2227 8.4141 5.6523 17.961 4.0781 27.242l-0.65625 4.3398 3.9648-1.875v0.003906c11.363-5.7148 22.105-12.594 32.043-20.531 12.906-9.4609 26.555-17.863 40.809-25.137l1.332-0.68359-0.074219-1.5078c-0.13281-1.9414-0.19922-3.9297-0.27344-5.8047z"/>
  <path d="m392.73 1031.9-2.1289 4.1992 4.6406-0.83594c7.6016-1.3867 14.156-2.9258 17.398-3.75l1.2383-0.30078 0.41406-1.2109v0.003907c1.7852-5.5508 2.6328-11.363 2.5039-17.191v-2.9922l-2.9141 0.69531c-9.9297 3.5508-17.707 11.418-21.152 21.383z"/>
  <path d="m414.76 1007.5 1.9961-0.35547-0.375-9.9922-3.1211 1.2852c-16.527 6.8164-37.086 15.301-42.992 35.887l-0.81641 2.8125 2.9453 0.14844c0.9375 0.054687 1.875 0.074218 2.9258 0.074218 3.5078-0.019531 7.0156-0.25 10.5-0.69141l1.2188-0.14062 0.57031-1.0859c0.77734-1.4805 1.5273-2.9727 2.2891-4.4727 2.3594-5.2266 5.3398-10.152 8.8672-14.672 4.0898-4.7695 9.7734-7.8945 15.992-8.7969z"/>
  <path d="m433.25 451.47-1.875 0.14062-0.23438 1.875c-0.53516 3.9961 0.21875 8.0586 2.1562 11.598l1.5273 3.0469 2.1562-1.2109c6.2734-3.5156 12.664-6.8164 19.059-10.125h0.003906c14.434-6.9922 28.277-15.145 41.398-24.375l0.55469-0.58984c0.3125-0.49219 0.76562-0.88281 1.3008-1.1172l1.7539-0.67578v-0.46875c0.79688-0.63672 1.5859-1.293 2.3516-1.9297l5.2031-4.293-6.1133-0.25391c-2.4297-0.09375-4.8555-0.1875-7.2852-0.42969l-0.9375-0.32812-0.9375 0.49609h0.003906c-18.785 10.926-38.383 20.379-58.621 28.285-0.46875 0.19141-0.96094 0.3125-1.4648 0.35547z"/>
  <path d="m505.93 955.39 2.8125-0.50781-0.30078-2.1953 0.003906 0.003906c-0.87891-7.8633-3.5391-15.418-7.7812-22.098l-1.125-1.7266-1.875 0.9375c-7.9414 3.8242-15.695 7.6328-23.23 12.133l-0.99219 0.61719-0.003906 0.003907c-6.7852 6.6094-12.949 13.828-18.422 21.562-1.5547 2.0625-3.1211 4.125-4.6875 6.168l-5.1562 6.6289 7.8477-3.0078c9.8906-3.75 20.148-7.2266 30.055-10.555 7.7344-2.6758 15.449-5.2266 22.855-7.9648z"/>
  <path d="m487.59 395.84 0.046875-3.4688c0.046875-3.2734 0.33594-6.5625 0.63672-9.8984 0.51172-4.6406 0.73438-9.3047 0.67578-13.969l-0.76953-23.719-4.1641 13.125c-0.78906 2.4648-1.5469 4.9414-2.3047 7.4062-2.2578 7.3516-4.6016 14.953-7.4141 21.777l-0.78906 1.875 1.8086 1.0117c2.9297 1.6875 5.9609 3.1953 9.0781 4.5117z"/>
  <path d="m429.73 538.41 2.5859-1.3203h0.003906c4.8867-2.3906 9.5195-5.2695 13.828-8.5898l1.7148-1.3867-1.2734-1.7891c-4.4453-6.2812-9.1133-13.125-14.289-20.98l-1.5742-2.3984-2.0352 2.0352v-0.003906c-0.46484 0.48828-1.0117 0.89453-1.6133 1.1992l1.0039 2.1172-1.6328-1.875-1.4609 0.58984v1.5781c0.070313 9.4766 1.418 18.898 4.0117 28.012z"/>
  <path d="m430.81 436.46 0.86328 0.27344 0.82422-0.38281c1.5547-0.72266 3.1016-1.5 4.6875-2.3359l1.3047-0.69531-0.074219-1.4727v0.003906c-0.023437-0.81641 0.11719-1.625 0.41016-2.3828l0.14844-0.84375h0.003906c-0.007812-1.3242 0.51172-2.5977 1.4414-3.543 11.023-13.156 19.598-28.188 25.312-44.371 1.1523-2.7188 2.2969-5.4453 3.4766-8.1641 0.22656-0.50781 0.42969-1.0312 0.63672-1.5664l0.81641-2.043-0.53516-0.9375 0.003906-0.003906c-1.5703-2.8906-3.457-5.6016-5.625-8.082l-2.2422-2.5781-1.5938 3.0078v0.003906c-12.695 23.566-24.035 47.844-33.965 72.703l-1.3516 3.4023 3.6562-0.20703c0.60938-0.046875 1.2227 0.027344 1.8008 0.21484z"/>
  <path d="m650.23 547.5c-4.3047 0.015625-8.582-0.70703-12.645-2.1367l-3.4023-1.0312 0.17969 3.7031c0.14062 3.0742 0.28125 6.1133 0.38281 9.1484l0.066406 2.3359 2.3438-0.066406h-0.003906c5.8125-0.21094 11.246-2.9492 14.871-7.5l0.52344-0.64844v-0.82422c0-0.17969 0-0.38281-0.046875-0.65625v-2.2695z"/>
  <path d="m462.96 344.6 2.1289 1.4062 1.2188-2.25c3.832-7.0508 7.7109-14.07 11.645-21.055l1.0508-1.875-1.7617-1.2109h-0.003906c-4.543-3.2773-9.8359-5.3711-15.391-6.0938l-1.3398-0.14844-0.80469 1.0781c-1.5859 2.1172-3.3008 4.1992-5.0234 6.2891h-0.003906c-3.6367 4.1445-6.875 8.6172-9.6875 13.359l-1.4727 2.6719 2.9609 0.73047h0.003906c5.8594 1.4023 11.434 3.8047 16.48 7.0977z"/>
  <path d="m467.36 347.93 1.3789 1.2461c0.77734 0.70312 1.5 1.4336 2.2227 2.1758l3.1602 3.1797 4.1914-9.8438-0.003906-0.003906c1.6562-5.7109 3.8555-11.25 6.5625-16.547l0.79688-1.5273-4.1797-4.0859-1.5 2.6797c-3.9375 7.0117-7.8438 14.047-11.719 21.102z"/>
  <path d="m412.6 470.04c2.5703 1.4297 4.9961 3.0977 7.25 4.9883l2.5117 2.1289 1.1914-3.0742v-0.003906c0.67578-2.0391 0.39844-4.2695-0.75-6.082-2.3359-4.5664-3.1562-9.7539-2.3438-14.812l0.5625-3.9922-3.75 1.4805c-2.4648 0.9375-4.9414 2.0078-7.4141 3.1875l-0.76953 0.375-0.35547 0.77734h-0.003906c-2.1602 5.0508-0.83594 10.922 3.2812 14.559z"/>
  <path d="m731.63 1024.8c0.24609-0.09375 0.50391-0.16016 0.76172-0.20703l1.5273-0.1875 0.42969-1.4805c1.7031-4.9961 4.4414-9.5742 8.0352-13.438l4.6875-5.3047-6.918 1.4609c-7 1.1211-13.543 4.2031-18.863 8.8906l-0.73047 0.70313v1.0117c0.054688 3.1211 0.16016 6.2344 0.35547 9.375l0.19531 2.9727 2.8125-0.88281h0.003907c2.6445-0.75391 5.2227-1.7305 7.7031-2.9141z"/>
  <path d="m749.64 1006.1c-2.8164 2.3555-5.3047 5.0742-7.4062 8.082-3.6016 4.25-5.4414 9.7188-5.1367 15.281 0.53906 1.8516 1.8867 3.3594 3.6641 4.1055 1.707 0.8125 3.5664 1.2578 5.457 1.3125 1.5859 0.019531 3.1406-0.4375 4.4609-1.3125 3.75-2.5117 5.5234-8.2695 5.2891-17.117l0.10156-1.4609-0.42969-0.60938v-0.003907c-1.3945-1.9023-2.1484-4.1992-2.1484-6.5625v-4.9492z"/>
  <path d="m760.55 1001.1c-0.41016 0.007813-0.82031 0.070313-1.2188 0.1875l-0.9375 0.27344-0.47656 0.9375v-0.003906c-1.6484 2.9844-1.8867 6.5469-0.65625 9.7227 0.99609 2.0859 2.957 3.5508 5.2422 3.9102 0.30859 0.058594 0.62109 0.085938 0.9375 0.085938 3.1172-0.32813 5.8164-2.3203 7.0469-5.2031 1.3594-2.4414 0.80469-5.4961-1.3203-7.3047-2.4102-1.9844-5.5117-2.9219-8.6172-2.6055z"/>
  <path d="m729.03 1060.3 1.875-0.44141c9.9766-2.2969 19.789-5.5703 29.277-8.7266 9.8438-3.4688 19.855-6.4336 30-8.8789l1.875-0.41406v-1.875c-0.10547-4.0039-0.80859-7.9727-2.0781-11.773l-0.50781-1.5938h-1.6797c-6.5195-0.42578-12.609-3.4023-16.949-8.2891l-1.2734-1.3594-1.6133 0.9375c-1.918 1.0898-4.168 1.4453-6.3281 1.0039l-2.7109-0.5625-0.11328 2.7578c-0.32031 8.2773-2.3633 13.199-6.2344 15h0.003906c-2.6289 1.3359-5.6016 1.832-8.5234 1.4219-2.918-0.40625-5.6406-1.7031-7.8008-3.7109-1.0898-1.1484-1.8672-2.5586-2.2578-4.0977l-0.71094-2.5703-2.4453 1.0312-0.003906 0.003906c-2.4414 1.0273-4.9492 1.9062-7.5 2.625l-1.9297 0.55469 0.24219 1.9883v-0.003906c0.91406 8.6953 3.125 17.207 6.5625 25.246z"/>
  <path d="m520.94 963.62c-0.47656-13.727-1.0781-30.816-13.051-37.5l-1.0117-0.5625-4.6875 1.9883 1.5078 2.3438c6.5508 12.266 9.582 26.105 8.7656 39.984l0.24219 6.3672 3.2539-1.6211c1.2852-0.64844 2.625-1.293 3.918-1.875l1.4609-0.68359-0.10156-1.6016c-0.13672-2.1211-0.21484-4.418-0.29688-6.8398z"/>
  <path d="m670.59 867.92-0.65625-1.9297c-0.054688-0.16016-0.074219-0.23438-0.09375-0.28906v-0.003907c-0.58984-6.6172-0.36328-13.281 0.67578-19.844l3-14.633-7.3398 13.012c-2.2109 3.9297-4.4062 7.7422-6.8711 11.398-1.2188 1.8203-2.5117 3.4219-3.75 4.9766h-0.003906c-3.6445 3.8711-6.2031 8.6367-7.4219 13.809v1.2734l0.63672 0.82422c0.76953 1.0117 1.5469 2.0234 2.3711 2.9805l1.7344 2.0352 1.7812-1.9883v0.003907c4.043-4.3711 8.8555-7.957 14.203-10.574z"/>
  <path d="m789.7 1105.7-5.3359-4.4453c-3.5156-2.9336-8.1953-6.75-13.238-10.312l-0.76953-0.53516 0.003906 0.003906c-10.773-8.6016-23.086-15.07-36.281-19.062h-2.4922l-0.42188 2.4297h-0.003907c-1.6406 7.8359-2.3438 15.84-2.0977 23.84l0.14062 1.6484 1.6016 0.41406c1.5547 0.41406 3.1875 0.75 4.8281 1.0859v0.003907c4.0391 0.50781 7.9297 1.8633 11.41 3.9727 3.2266 2.5039 6.3047 5.1914 9.2266 8.043l1.5742 1.5078 1.6133-1.4727v0.003906c6.4922-5.4414 14.855-8.1289 23.305-7.5z"/>
  <path d="m877.68 205.57c-15.375 0.86328-30.613 3.375-45.453 7.5l-4.1523 0.99219 3.0664 2.9727c6.7539 7.0938 10.984 16.219 12.027 25.961l0.49609 3.3086 2.9453-1.5938c14.602-8.1055 26.246-20.645 33.254-35.805l1.5664-3.4023z"/>
  <path d="m818.06 1138.4c6.2617-0.53125 12.316-2.5117 17.68-5.7852l1.6875-0.9375-0.54297-1.875c-0.86328-2.7344-2.1758-5.3047-3.8789-7.6094-2.1953-3.0547-4.5-6.0273-6.8242-9-1.7344-2.2227-3.4688-4.4531-5.1562-6.7227l-0.85156-1.1445-1.4141 0.22656h-0.003907c-3.3203 0.44531-6.5547 1.3633-9.6094 2.7266l-1.2188 0.58203-0.10156 1.3516c-0.39453 5.0352-0.38281 10.023-0.38281 15.309v6.5625l-0.074218 1.6328 0.70312 0.69531-0.003907-0.003907c2.6445 2.6367 6.2539 4.0781 9.9922 3.9922z"/>
  <path d="m807.03 1137.4-1.7812-1.4922-1.5078 1.7617c-7.5 8.793-18.898 2.7461-25.012-1.6406-7.6211-5.4688-14.781-11.551-21.414-18.188-5.9844-6.5391-13.723-11.227-22.293-13.5l-6.9648-2.0156 4.4727 5.7188h-0.003906c1.168 1.5234 2.7695 2.6523 4.5938 3.2344 0.49219 0.1875 0.95703 0.42969 1.3906 0.72266l0.63672 0.28125c0.68359 0.20703 1.3203 0.54297 1.875 0.99219 4.625 3.8633 8.9688 8.0508 12.992 12.535 8.1172 10.637 19.449 18.371 32.316 22.043 5.8828 0.99609 11.844 1.4766 17.812 1.4336 11.559 0 24.777-1.7422 30.441-7.9609l7.1992-7.9219-9.8516 4.1914c-11.148 4.7422-19.07 4.6875-24.902-0.19531z"/>
  <path d="m681.87 886.57c2.1836-2.0703 4.3789-4.1523 6.6172-6.2266h0.003907c1.8945-1.6445 3.8789-3.1758 5.9531-4.5938 3.2344-2.1953 6.2969-4.6445 9.1484-7.3203l4.0703-4.125-5.7852 0.13281c-11.539 0.25391-32.812 2.8125-45.375 17.352l-1.4258 1.6602 1.5469 1.5391v-0.003906c0.26562 0.27734 0.54688 0.53906 0.84375 0.77734l0.9375 0.44922v0.003907c0.36328 0.16016 0.64844 0.46094 0.78906 0.83203l0.44141 0.60938h-0.003907c0.1875 0.19531 0.38281 0.375 0.59375 0.54297 0.69922 0.65625 1.2305 1.4727 1.5352 2.3828 0.41797 0.71094 0.67188 1.5117 0.73047 2.3359 0.20703 1.875 0.51562 3.75 0.82422 5.625l0.66406 4.0234 3.1055-2.5625c5.1562-4.3047 10.051-8.9453 14.785-13.434z"/>
  <path d="m579.88 888.6-0.85156-2.25-2.2227 0.9375h-0.003906c-7.1094 2.9727-13.984 6.4844-20.559 10.508l-1.6016 0.9375 0.58203 1.7812c3.5898 8.0312 4.5117 17 2.625 25.594l-1.7266 5.3711 5.0156-2.5586c8.1328-3.9531 16.941-6.3164 25.961-6.9648l2.7109-0.26172-0.65625-2.6328-0.003906-0.003906c-2.4648-10.332-5.5625-20.504-9.2695-30.457z"/>
  <path d="m590.93 926.46-0.44922-2.0078-2.043 0.17969c-13.172 0.38672-25.84 5.1523-36 13.539l-1.1523 1.0039 0.44922 1.4609c0.61328 2.1484 0.92969 4.375 0.9375 6.6094l0.11328 5.6992 3.9297-4.125h-0.003906c8.8945-8.9688 20.426-14.859 32.906-16.809l2.625-0.38281-0.68359-2.5703c-0.24219-0.84375-0.42969-1.6953-0.62891-2.5977z"/>
  <path d="m601.55 970.02c-0.74219-2.3906-1.4609-4.6875-2.0625-6.957-2.2305-8.5234-4.1719-17.242-6.0547-25.66l-0.63672-2.8672-2.1094 0.25391-0.003906-0.003907c-15.277 1.9453-28.91 10.559-37.227 23.523l-1.2578 2.2031 2.2969 1.0781c8.7812 5.2773 14.945 14 16.988 24.039l0.79688 2.457 2.3633-1.0391v-0.003906c8.6094-3.6445 18.047-4.8945 27.309-3.6094l3.375 0.46875-0.77734-3.3203c-0.79688-3.5625-1.9297-7.1133-3-10.562z"/>
  <path d="m549.38 959.4 0.32812-3.75c0.66406-6.8711 1.5742-16.266-3.5898-18.555-5.8398-2.625-14.184 1.5742-21.562 5.7109l-2.8125 0.84375 0.35547 2.1289c0.88281 6.0156 1.4102 12.074 1.5742 18.152l0.34766 6.7578 3.1484-1.4727c5.832-2.7109 11.605-5.3242 17.664-7.875l0.85156-0.50781v0.003907c0.58594-0.49609 1.2812-0.84375 2.0273-1.0156z"/>
  <path d="m541.77 906.72-2.3828 1.5273c-0.88281 0.5625-1.7617 1.0977-2.6641 1.6484l-1.125 0.69531c-7.5938 4.6133-15.402 8.5039-22.051 11.691l-3.1602 1.5195 2.6055 2.3438h0.003906c3.5859 3.3555 6.1797 7.6328 7.5 12.363l0.83594 2.7266 2.5117-1.3516c3.8242-2.0625 15.43-8.2891 22.059-6.1016l3.3203 1.1055-0.23437-3.4883v0.003906c-0.84375-7.6328-2.9297-15.074-6.1797-22.031z"/>
  <path d="m608.71 947.05c-0.71094-4.0703-1.3789-8.1289-2.0352-12.188-2.0586-17.434-6.4219-34.516-12.965-50.805l-0.77734-1.7344-1.875 0.40234c-2.3906 0.51562-4.6875 1.1992-6.9844 1.875l-2.3438 0.76953 0.88281 2.3047h-0.003906c5.1484 14.465 9.2227 29.285 12.188 44.344 2.2109 9.9297 4.5 20.195 7.5 30.254 0.57031 1.9883 1.2461 4.0859 1.9414 6.2734 3.9102 9.1719 5.4219 19.191 4.3867 29.109-4.9492 20.477-34.949 31.977-54.711 32.418-0.39453 0.097656-0.79687-0.11719-0.9375-0.49609l-0.65625-1.4609 1.0039-0.63672-0.003907-0.003906c0.23047-0.16016 0.49219-0.26172 0.76953-0.28906 14.207-1.207 27.863-6.0508 39.656-14.062 2.9727-1.8711 5.5781-4.2734 7.6797-7.0898l2.2305-3.0195-3.6562-0.63672c-11.34-1.9883-23.016-0.39453-33.402 4.5664l-0.73047 0.51562c-2.5156 2.5938-5.1836 5.0312-7.9883 7.3047-3.0781 2.5039-5.6289 5.5938-7.5 9.0938l-2.8984-6.3555 0.82422 10.434-1.9297 3.9922 2.1367-1.3594v0.1875c0.097656 1.8359 1.0078 3.5352 2.4844 4.6328 1.6797 1.1172 3.6758 1.6641 5.6914 1.5547 1.8789-0.03125 3.75-0.26953 5.5781-0.71094 19.031-4.4062 37.156-12.066 53.578-22.652l0.75781-0.51563 0.20703-0.9375c2.8008-15.504 1.5078-31.469-3.75-46.32-1.5547-5.9922-3.1953-12.234-4.3477-18.758z"/>
  <path d="m552.19 900.28-2.5234 1.5273c-1.2734 0.76953-2.5586 1.5859-3.8359 2.3984l-1.6406 1.0508 0.73047 1.8008h0.003906c2.4648 5.6719 4.4492 11.539 5.9336 17.543l1.9883 8.9727 2.5586-8.8203v-0.003906c1.4922-7.2852 0.69531-14.852-2.2773-21.664z"/>
  <path d="m656.01 841.19 2.3047-4.3516c4.9141-11.652 12.645-21.898 22.5-29.82 6.7812-4.9375 14.82-7.8555 23.188-8.4141 8.3672-0.5625 16.723 1.2617 24.102 5.2539l4.293 2.4648-0.81641-4.875c-1.293-7.8555-3.4336-15.547-6.3945-22.941l-0.41406-1.0391-1.0195-0.28125c-18.73-6.0312-39.125-4.0391-56.336 5.5039-11.418 6.375-21.793 14.465-30.758 23.988-4.6875 4.5078-9.5156 9.1875-14.953 13.613-19.82 16.172-41.793 5.1641-62.586-9.1484l-2.8867-1.9883-0.73047 3.4297h-0.003906c-1.2266 6.8125-4.2266 13.18-8.6914 18.469-3.9062 2.9102-8.6641 4.4492-13.535 4.3906l-0.81641 0.085938v-0.003906c-7.0195 0.81641-13.965 2.1719-20.773 4.0508l-10.312 2.9727 11.117 1.6953c1.1055 0.16797 2.25 0.34766 3.3203 0.54297 10.191 2.4453 19.992 6.3047 29.109 11.477 2.0352 1.1172 3.6484 2.0547 4.9297 2.8125-1.4609-0.38281-3.2734-0.9375-5.5039-1.6328-2.2305-0.69531-4.8477-1.5664-7.5742-2.4922-7.1016-2.5586-14.348-4.6953-21.703-6.3945-5.3945-1.1328-10.91-1.5898-16.414-1.3594-1.2383 0.054687-2.4297 0.16797-3.5547 0.32812l-0.73047 0.10156-0.53516 0.49609v0.003906c-22.047 21.871-41.789 45.945-58.922 71.848-9.918 13.949-20.184 28.387-31.172 41.879-10.379 12.758-19.414 19.773-32.445 15.309-5.1641-2.3906-9.7539-5.8594-13.465-10.172-1.4531-1.4453-2.8672-2.8125-4.2383-4.0781-4.0977-3.6094-8.707-6.5938-13.676-8.8594l-1.4141-0.68359-1.1719 1.0586h-0.003907c-9.9961 7.8516-15.633 20.016-15.156 32.719 1.0508 15.676 12.582 32.117 31.648 45.133l0.83594 0.5625 0.9375-0.20703c0.71094-0.15234 1.4453-0.17578 2.1641-0.066407l2.043 0.28906 0.54297-1.9961v0.003907c4.1719-13.539 13.73-24.766 26.43-31.043l6.3359-3.75-7.3203-0.63672c-4.3516-0.38281-8.4375-0.88281-12.188-1.3398l-3.4492-0.42188c-4.3789-0.54297-8.5391-0.9375-12.262-1.2109 4.1172-0.25 8.25-0.29297 12.375-0.12109 2.3242 0.054688 4.7617 0.16797 7.3047 0.30078h-0.003906c7.4688 0.55078 14.965 0.51562 22.426-0.10547 0.57422-0.015624 1.1406-0.11328 1.6875-0.28906l2.3633-1.0586c14.508-5.2852 27.301-14.426 37.004-26.438 1.5391-1.9766 3.0469-3.957 4.5547-5.9336 2.1562-2.8125 4.3047-5.625 6.5625-8.4375l4.9219-6.1602-7.5 2.4766c-6.4492 2.1367-12.188 4.0234-16.875 5.5586 7.5547-3.75 18.242-8.0703 27.898-11.906l1.6406-1.3867c1.2109-1.2578 2.4297-2.5234 3.75-3.6836v-0.003906c0.34375-0.30859 0.72266-0.57422 1.125-0.79688l0.54297-0.40234h0.003906c0.33984-0.36328 0.72656-0.67578 1.1523-0.9375 9.7773-5.8516 20.23-10.801 30.336-15.602 13.266-5.8945 26.066-12.789 38.289-20.625 7.8672-5.2969 14.062-9.1016 20.043-12.348l14.512-7.8477-29.062 6.2539v0.003906c-5.1484 0.97266-10.246 2.2266-15.262 3.75l-2.2773 0.66406c-8.9727 2.7852-18.082 5.1172-27.293 6.9844-3.8672 0.72656-7.7891 1.1406-11.727 1.2383 3.8672-0.63672 7.6914-1.5 11.457-2.5781 6.3086-1.7148 13.305-4.0977 21.414-6.8711l6.1602-2.0898-0.003906-0.003907c5.4766-1.9102 11.062-3.4766 16.734-4.6875l17.98-4.0781c2.0898-0.44141 4.1797-0.9375 6.2422-1.3672l3.5703-0.78906c3.3672-0.60156 6.6836-1.1523 10.031-1.6875h0.003906c2.2188-0.42188 4.4609-0.69141 6.7148-0.80469l5.8867-0.38281-4.5469-3.75c-6.9414-5.7305-12.406-13.043-15.938-21.32 6.2812 10.867 15.68 19.598 26.98 25.059l4.0391 1.8203c5.7266 1.418 11.613 2.0859 17.516 1.9883l5.7578-0.11328-4.1914-3.9375h-0.003906c-0.76172-0.73047-1.4688-1.5195-2.1172-2.3555-3.4766-4.2695-6.0156-9.2227-7.4609-14.539-0.52344-1.8281-0.92578-3.6875-1.2109-5.5703 0.61719 1.5742 1.3594 3.3203 2.2422 5.1953 2.1445 4.7539 5.0547 9.125 8.6133 12.938 2.6602 2.8594 5.8398 5.1836 9.375 6.8438l0.70312 0.32812 3.4219-0.77734-0.066406-1.875c-0.70313-12.344 1.3047-24.695 5.8906-36.18 0.99219-2.1914 2.1133-4.3242 3.3633-6.3828-0.64844 1.9688-1.3789 4.2461-2.1094 6.8164-1.8945 7.3789-3.0039 14.941-3.3086 22.555l-0.38281 8.1836 4.6875-6.7422c1.3594-1.9609 2.8125-3.8633 4.3125-5.7734 2.9375-3.6055 5.5703-7.4492 7.875-11.492z"/>
  <path d="m574.69 990.15-1.3398 0.63672v1.4844c0.015625 0.3125 0.015625 0.625 0 0.9375v0.28906c-0.007812 0.48438-0.078125 0.96094-0.20703 1.4258-0.28125 0.9375-0.61719 1.875-0.98438 2.8125l-1.7617 4.3867 4.5664-1.2656c8.9453-2.5352 18.375-2.8828 27.484-1.0195l2.2109 0.46875 0.55469-2.1836v-0.003906c0.75391-3.125 0.98047-6.3516 0.66797-9.5508l-0.46094-2.1094h-2.1562c-9.6758-1.7812-19.668-0.49219-28.574 3.6914z"/>
  <path d="m742.9 309.14-3.4297 1.9297c-3.3086 1.918-6.3867 4.2148-9.168 6.8359l-1.3867 1.293 0.9375 1.6211h-0.003907c2.082 3.6992 3.8984 7.5469 5.4297 11.504 2.5195 7.6445 6.7617 14.609 12.402 20.355l1.875 1.6602 1.5195-2.0078c0.9375-1.2734 1.9414-2.5508 2.9062-3.8711l1.2188-1.5859-1.4062-1.4141c-7.4688-9.0781-11.324-20.594-10.828-32.336z"/>
  <path d="m548.96 421.62c-8.043 2.2383-16.289 3.6836-24.617 4.3125l-0.89062 0.24219c-1.2852 0.64844-2.5781 1.2852-3.8711 1.875l-1.0859 0.50781-0.22656 1.1914c-0.40234 2.0742-0.55078 4.1914-0.44922 6.3008-0.007812 1.1953-0.45312 2.3438-1.25 3.2344-0.25 0.39844-0.57031 0.75391-0.9375 1.0508-4.3984 3.6016-8.6055 7.4336-12.684 11.129-1.8203 1.6406-3.6289 3.2891-5.457 4.9219l-1.3672 1.2109 1.5859 2.7266c0.11328 0.16016 0.23437 0.33594 0.33594 0.50781l0.70312 1.0781v-0.003906c0.41797 0.4375 0.86719 0.84375 1.3398 1.2188 0.5 0.4375 0.875 1 1.0898 1.6328l0.9375 2.8125 2.4922-1.6133c9.8828-6.2461 20.16-11.844 30.77-16.754 1.2188-0.62109 2.6328-0.73828 3.9375-0.32812l2.4922 0.73047 0.46875-2.5508c1.6406-7.832 4.7852-15.273 9.2617-21.906l3.3359-5.1758z"/>
  <path d="m571.77 288.57c-10.98-7.1367-24.441-9.3633-37.137-6.1406l-7.7422 3.0859 8.2227 1.4062c7.9453 1.5859 15.586 4.4336 22.629 8.4375 1.7891 0.9375 3.582 1.8203 5.3516 2.7188h0.003906c8.2812 3.5742 15.938 8.457 22.668 14.465l4.875 4.875-0.9375-6.8359v0.003907c-2.3945-9.6484-8.9727-17.719-17.934-22.016z"/>
  <path d="m769.24 296-0.68359-1.1992-1.7734-2.2969h-0.60156c-2.3398-0.80078-4.6289-1.7422-6.8594-2.8125l-2.6055-1.1992-0.65625 2.8125c-1.9766 8.4375-7.3672 36.824 6.6367 47.812l1.5664 1.2266 1.9688-1.875 0.14062-0.41406-0.003906 0.003907c0.42969-0.84375 0.89844-1.6641 1.4062-2.457l0.42187-1.125-0.14844-0.9375c0.26172-5.4844 0.30859-15.844 0.30859-15.844l0.26172-1.9414-0.71094-0.79688c-1.7031-2.7031-2.5586-5.8555-2.4492-9.0469s1.1758-6.2812 3.0586-8.8594z"/>
  <path d="m705.66 443.79 2.3438-3.168c9.5078-12.883 18.207-26.898 26.625-40.453 9.375-15.133 19.105-30.77 30-44.898l1.9492-2.5312-3.0078-1.0977v0.003907c-1.4766-0.53125-2.9023-1.1953-4.2578-1.9883l-1.8008-1.0586-1.2578 1.6797c-3.1797 4.2266-6.3008 8.8984-9.3281 13.414h0.003906c-6.4219 10.777-14.398 20.551-23.672 29.004-20.223 16.285-26.512 31.828-19.227 47.523z"/>
  <path d="m432.3 540.33-1.5938 1.3984 0.57031 1.875 2.3984-0.17969-2.25 0.64844 0.71094 1.2852 0.003906-0.003907c0.37109 1.043 1.2656 1.8047 2.3516 2 0.16016 0.011719 0.32031 0.011719 0.48047 0 2.8984 0 8.0234-4.1914 15.254-12.469l14.84-16.977-18.008 13.566-0.003906-0.003906c-4.6602 3.3594-9.5977 6.3242-14.754 8.8594z"/>
  <path d="m389.28 486.93-2.8125 0.54297 1.1055 2.6641v-0.003907c2.0352 3.1758 4.9336 5.6992 8.3555 7.2852 3.4219 1.582 7.2227 2.1562 10.957 1.6523 1.1523 0 2.3047-0.046874 3.4219-0.14062l7.0312-0.5625-7.5-4.6875c-5.7109-4.8438-13.086-7.2656-20.559-6.75z"/>
  <path d="m479.93 500.95 7.1172-1.3398v-0.003907c13.184-2.2578 26.543-3.3086 39.918-3.1406l2.5859 0.054687 0.25391-2.0625v0.003906c1.082-10.348 3.6602-20.48 7.6523-30.086l2.5391-5.9336-5.7461 2.8672c-18.34 8.457-35.043 20.082-49.34 34.344z"/>
  <path d="m782.95 265.31c-2.1953-0.9375-4.4062-1.875-6.5625-2.6445l-1.1914-0.40234-1.0039 0.77734c-1.4062 0.96875-3.1758 1.2422-4.8086 0.75l-1.6016-0.42969-0.9375 1.3672h-0.003906c-3.2461 5.0117-5.832 10.422-7.6953 16.098l-0.69531 2.0156 1.9414 0.88281c1.8008 0.82422 3.6094 1.5938 5.4648 2.3242l1.875 0.74219 1.0234-1.7266c0.46094-0.875 1.0469-1.6797 1.7422-2.3828 5.4141-4.793 11.816-8.3359 18.75-10.379l6.7109-2.2031-6.6953-2.25c-2.0938-0.66406-4.1953-1.6016-6.3125-2.5391z"/>
  <path d="m433.69 501.27c5.1367 7.7617 9.9102 14.727 14.578 21.309l1.9414 2.3633 1.9414-2.4297c0.20703-0.27344 0.44141-0.5625 0.63672-0.85156l0.53516-0.81641-0.1875-0.9375c-1.3438-6.9453-4.1914-13.508-8.3359-19.238l-0.9375-1.2656-1.5273 0.38281c-1.4688 0.28516-2.9844-0.16797-4.0508-1.2188l-8.3438-2.9453z"/>
  <path d="m422.07 507.19-2.8125 0.73047c-4.7773 1.1914-9.707 1.6445-14.625 1.3516l-2.7578-0.16797 0.28906 2.7461c2.6445 25.379 14.691 59.793 34.902 75.383l5.082 3.918-1.3594-6.2734 0.003907 0.003906c-2.2422-9.5547-4.9844-18.988-8.2109-28.258-5.7695-14.891-9.2734-30.562-10.398-46.488z"/>
  <path d="m641.79 491.57c-2.8984-1.1562-6.1992-0.57812-8.5312 1.5l-1.0117 0.71094v1.2383c0 2.1367 0.11328 4.2656 0.1875 6.4023l0.14062 3.8516 0.38281 0.5625c5.832 8.5781 10.594 12.582 15 12.582h2.5586l-0.22656-2.5508c-0.87891-10.469-2.6016-21.551-8.5-24.297z"/>
  <path d="m650.49 521.41h-2.0078 0.003906c-4.5391-0.51172-8.6758-2.8359-11.477-6.4414l-4.1992-4.4062 0.1875 6.1406c0.074219 2.2109 0.1875 4.4141 0.30078 6.5625l0.23438 4.9297 1.5273 0.50781c0.20703 0.074219 0.49609 0.16797 0.51562 0.10156 1.7695 0.96094 3.7422 1.4805 5.7578 1.5117 3.3945-0.10547 6.6094-1.5703 8.9141-4.0703l0.71094-0.69531v-0.99219c0.007812-0.41016-0.023438-0.82031-0.082032-1.2266z"/>
  <path d="m598.51 545.46-2.9727-0.87109-0.054687 3.1016c-0.10156 5.2773-0.19531 10.566-0.35547 15.938v1.9414l1.875 0.40234c8.457 1.793 16.648 4.6641 24.375 8.543l3.5156 1.7734-0.26172-8.8789c-0.085937-3.2539-0.17969-6.5625-0.30859-9.8242l-0.085937-1.9766-1.9688-0.24219v-0.003906c-0.125-0.015626-0.24219-0.050782-0.35547-0.10547-7.4219-4.1055-15.27-7.3906-23.402-9.7969z"/>
  <path d="m651.56 533.32-0.23438-3.5898-3.1875 1.668c-3.3281 1.8008-7.2344 2.2109-10.867 1.1445l-2.7266-0.80469-0.27344 2.8125c-0.32813 2.3711 0.39844 4.7695 1.9883 6.5625 3.6484 2.8828 8.3008 4.1953 12.918 3.6445h3.0625l-0.12109-2.4453c-0.13672-2.9922-0.33203-5.9648-0.55859-8.9922z"/>
  <path d="m632.26 593.9c1.6133 7.875 4.5195 12.348 8.8867 13.68l0.003907-0.003906c1.418 0.46094 2.9023 0.70703 4.3945 0.73047 2 0.070312 3.9531-0.59766 5.4961-1.875 3.3555-2.8594 4.3867-8.625 3.1484-17.625l-1.6953-2.4844-1.2852 0.32031c-4.2031 1.543-8.7578 1.8438-13.125 0.86328l-1.9883-0.68359-0.9375 1.875c-0.30469 0.66406-0.77734 1.2383-1.3672 1.668l-0.58203 0.41406-0.24219 0.67578-0.003906-0.003906c-0.10938 0.25781-0.24219 0.50781-0.39063 0.74219l-0.50781 0.78906z"/>
  <path d="m613.67 591.56h-3.5078c-4.6875-0.046875-9.4414-0.19531-14.258-0.40234l-2.2578-0.085937-0.16797 2.25c-0.35547 4.5547-0.85156 9.1211-1.4062 13.621l-0.28125 2.3438 2.3438 0.27344c4.1641 0.48828 8.6992 1.2656 13.848 2.3828l3.3086 0.71094-0.49609-3.3477h-0.003907c-0.83203-4.8711-0.3125-9.8789 1.5117-14.473z"/>
  <path d="m631.41 672.1v-10.266c-0.70312-4.3555-2.1836-8.5508-4.3672-12.383l-0.89062-1.5-1.6875 0.42188c-3.543 0.88281-7.4141 1.4609-11.164 2.0234s-7.7266 1.1641-11.305 2.0625l-15.602 4.1055 8.5586 2.2969-0.003907 0.003907c11.336 3.1055 22.426 7.0469 33.18 11.793z"/>
  <path d="m616.95 588.05c1.875-1.6445 4.0664-2.8906 6.4414-3.6562l1.6016-0.53516v-6.4766l-2.6523 0.34766c-0.3125 0.070313-0.64453 0.039063-0.9375-0.09375-7.4648-3.9023-15.398-6.8398-23.605-8.7461l-2.8125-0.67578-0.09375 2.8867c-0.14062 4.875-0.44922 9.7969-0.75 14.812l-0.14844 2.4102 2.4102 0.074219c4.7891 0.14844 9.8438 0.28906 14.934 0.28906h4.1523 0.88281z"/>
  <path d="m611.76 623 4.1797 0.066406-2.2305-4.2109c-0.32031-0.58984-0.58203-1.2266-0.85156-1.875l-0.46094-1.0586-1.1172-0.28906c-5.793-1.4805-11.676-2.5781-17.613-3.2812l-2.2109-0.26172-0.375 2.1953c-0.25391 1.4805-0.46094 2.9727-0.66406 4.4609l-0.36719 2.625 2.6523 0.046874h-0.003907c6.3789 0.16797 12.742 0.69922 19.062 1.582z"/>
  <path d="m616.52 789.54 1.4258-1.1914c6.1914-5.0781 12.984-9.3828 20.219-12.816l3.582-1.7617-3.2734-2.2695c-2.2422-1.5547-4.4453-3.1797-6.6367-4.8008-1.9961-1.4805-4.0039-2.9531-6.0273-4.3789l-1.0703-0.75-1.1992 0.51562v0.003907c-7.3711 3.2695-14.328 7.4102-20.719 12.336l-2.3047 1.7344 3.1016 2.7109c3.6758 3.2266 7.5 6.5625 11.418 9.543z"/>
  <path d="m576.09 695.04-6.5625-1.9414 5.9453 8.2305c0.71094 1.0039 1.4141 1.9961 2.1367 2.9805l1.0312 1.4141 1.6484-0.58203c2.3633-0.84375 4.7734-1.5742 7.1445-2.2227l7.8281-2.1289-7.7539-2.3828c-3.8359-1.1445-7.6211-2.2617-11.418-3.3672z"/>
  <path d="m562.33 719.02 0.65625 1.4727c2.9141 6.5625 5.5391 11.898 8.2578 16.875l1.4922 2.7266 2.2109-2.1953v0.003907c4.1406-3.9492 8.832-7.2773 13.922-9.8828l2.5781-1.3672-3.0195-3.5352c-0.71094-0.80469-1.4336-1.6211-2.1172-2.5508-1.5938-2.0547-3.1406-4.1523-4.6875-6.2539l-3.4688-4.6875-1.6602 0.64844c-4.7969 1.6406-9.2227 4.2227-13.012 7.5938z"/>
  <path d="m596.88 773.1 1.4453 1.2188 1.4922-1.1641h-0.003906c5.6211-4.418 11.648-8.293 18-11.57l4.0508-2.0625-4.0312-2.1094c-1.2188-0.63672-2.4922-1.2188-3.75-1.7539l-0.9375-0.40234-0.9375 0.46094c-5.8867 2.8438-11.586 6.0586-17.062 9.6289-0.36719 0.24219-0.70312 0.41406-1.5391 0.85156l-3.0938 1.6875 4.0234 3.207c0.69141 0.66406 1.5195 1.3125 2.3438 2.0078z"/>
  <path d="m558.01 708.87 3.0391 7.1328 2.418-2.0547v0.003906c3.0078-2.4648 6.3398-4.5039 9.9023-6.0664l2.5859-1.1719-1.6484-2.3164c-2.8125-3.8828-5.4844-7.8008-8.1367-11.719l-0.48828-0.70313-1.7148-0.48828c-3.5898-1.0312-7.1914-2.0547-10.789-3.0391l-4.9219-1.3398 2.1953 4.6133c2.6758 5.6094 5.1523 11.477 7.5586 17.148z"/>
  <path d="m580.81 708.75 1.9297 2.5391c3.3008 4.3672 6.6484 8.7383 10.152 12.957l1.1055 1.3203 1.5938-0.65625 0.003906 0.003906c12.133-4.7891 24.984-7.5117 38.016-8.0547l14.391-0.67578-13.867-3.918c-10.883-3.0742-21.711-6.3008-32.551-9.5703l-0.63672-0.19531-0.64844 0.16797c-4.5664 1.2188-10.574 2.8867-16.492 5.0078z"/>
  <path d="m579.85 751.15c1.6602 2.1953 4.3047 3.4219 7.0508 3.2734 7.2148-1.0703 14.078-3.8125 20.043-8.0078l2.8125-1.6406-2.4375-2.1289c-4.5-3.9297-8.7891-8.1016-12.844-12.496l-1.1797-1.2852-1.5664 0.76953c-6.1094 2.8438-11.637 6.8008-16.293 11.672l-1.2109 1.3125 0.9375 1.5195c1.4844 2.3633 3.0195 4.7344 4.6875 7.0117z"/>
  <path d="m658.59 708.03 0.86328-1.6328c0.41406-0.79688 0.87109-1.5742 1.332-2.3633l0.55469-0.9375-0.22656-0.9375c-0.74219-3.0391-4.4609-5.1016-8.7578-7.5l-2.2422-1.2461v0.003906c-8.5586-4.8711-17.477-9.082-26.672-12.602l-2.1016-0.82422c-15.844-6.9414-32.418-12.074-49.414-15.301-0.74219-0.10156-1.4531-0.36719-2.082-0.77734l-1.0586-0.72266-1.1797 0.48828c-3.793 1.582-7.5 3.3516-11.109 5.3047l-2.2031 1.1992 1.3516 2.1094c1.4141 2.2422 2.8984 4.4336 4.3672 6.6172l0.48828 0.71094 0.82422 0.23437c13.059 3.6562 26.25 7.6484 39.047 11.523 18.402 5.5703 37.445 11.324 56.43 16.191z"/>
  <path d="m647.96 732.71 0.42969-1.293c0.74219-2.2227 1.5391-4.4062 2.25-6.2812l0.33594-0.9375h0.003907c0.082031-0.26953 0.1875-0.52734 0.32031-0.77734l1.4805-3.0078-3.3359-0.35547v-0.003906c-17.074-1.5195-34.277 0.67969-50.422 6.4414l-3.1875 1.1797 2.2422 2.5508c4.1992 4.8008 7.7617 8.5586 11.156 11.773v0.003906c0.29688 0.29688 0.60938 0.57812 0.9375 0.84375l1.2578 0.9375 1.3398-0.71094v-0.003907c0.71484-0.40234 1.457-0.75781 2.2227-1.0586 10.258-3.8867 20.832-6.8906 31.602-8.9805z"/>
  <path d="m592.5 816.79c2.5898 0.84766 5.293 1.293 8.0156 1.3281 8.7539-0.86719 16.598-5.7852 21.195-13.281 1.6875-1.9961 3.3945-4.0117 5.2227-5.832 6.875-6.8125 14.457-12.871 22.621-18.066l11.992-7.707-13.828 3.4609c-0.33984 0.078125-0.69922 0.035156-1.0117-0.12109l-0.38281 0.87109-0.40234 0.26172 0.24219-1.5078-1.0391-0.61719-1.1055 0.48828-0.003906-0.003906c-11.559 4.9141-22.082 11.977-31.012 20.812l-1.4141 1.3984h-0.003906c-2.2578 2.5898-4.9883 4.7266-8.0508 6.2891-13.227 4.4453-30.844-5.0156-42.414-16.398l-3.9922-3.918v7.6211 3.9102 1.2383l1.0117 0.73047c10.391 8.0977 21.984 14.52 34.359 19.043z"/>
  <path d="m422.81 892.6 1.6406 0.44141 0.9375-1.4141c2.5156-3.9219 5.3086-7.6562 8.3633-11.176l3.4023-3.4297-3.168-1.3516c-3-1.2852-6.0391-2.4844-9.0547-3.6758h-0.003906c-8.6133-3.0391-16.871-7.0156-24.617-11.859l-1.7617-1.1914-1.3594 1.6406c-2.5039 3.0391-5.0234 6.0469-7.5664 9.0664l-4.7539 5.625 1.7422 1.5078 0.003907 0.003906c10.773 7.8359 23.125 13.23 36.195 15.812z"/>
  <path d="m555.87 766.13 0.34766 6.207 3.8359-4.8828c2.3906-3.0781 5.3203-5.6914 8.6523-7.7148l2.1641-1.3047-1.4609-2.0625c-4.418-6.793-8.1836-13.988-11.25-21.488l-5.8867-13.5 1.4062 14.672c0.87109 9.2539 1.5938 19.07 2.1914 30.074z"/>
  <path d="m546.48 783.29c0-4.2109-0.10156-8.4375-0.25391-12.629l-0.19531-5.4453-3.8164 3.8906c-5.1641 5.1055-11.195 9.25-17.812 12.246l-1.3203 0.61719v1.4609c0 2.5781-0.10156 5.1484-0.1875 7.7148l-0.22656 8.3164 3.6562-2.1758c3.1602-1.875 6.2539-3.8828 9.375-5.8984 3.1211-2.0156 6.3203-4.0859 9.6484-6.0664l1.1641-0.68359z"/>
  <path d="m551.4 659.87c0.61719-0.33594 1.2461-0.67578 1.875-0.99219 12.176-6.0859 24.922-10.953 38.055-14.531 1.5-0.36719 4.293-0.75 7.5-1.1914 7.293-0.79297 14.504-2.1953 21.562-4.1992l9.4961-3.1328-11.25-1.6133c-20.953-2.9922-40.754-5.8203-62.758 6.0469-4.5234 2.3945-8.9961 4.8945-13.414 7.5l-2.1094 1.2383 8.1484 12.441z"/>
  <path d="m546.38 798.66c0.054688-2.082 0.054688-4.1719 0.054688-6.2617v-4.3789l-3.6484 2.4297c-1.6328 1.0859-3.2422 2.2031-4.8672 3.3086h0.003907c-4.5391 3.2461-9.2617 6.2305-14.145 8.9336l-1.1797 0.61719-0.36719 7.9609 3.4609-1.4727c6.3555-2.7266 12.602-5.3633 19.07-7.6211l1.5938-1.0586z"/>
  <path d="m573.54 793.87 1.5391 0.98437 1.332-1.2383c5.625-5.2578 11.492-10.695 17.523-15.723l2.2227-1.875-2.2773-1.7891h-0.003906c-3.1367-2.5156-6.4492-4.8008-9.9102-6.8438l-0.58203-0.24219v-0.003906c-1.6211-0.41797-3.1953-1.0156-4.6875-1.7812-1.7383-0.89453-3.3203-2.0625-4.6875-3.457l-1.1797-1.1445-1.4805 0.72266c-6.2305 3.625-11.133 9.1484-13.988 15.766l-0.65625 1.3398 0.9375 1.1523v0.003906c4.5352 5.5039 9.8984 10.27 15.898 14.129z"/>
  <path d="m426.82 869.79c3.6562 1.4141 7.3125 2.8125 10.867 4.3789l1.4805 0.64844 1.125-1.1523c3.2617-3.3086 6.5625-6.5625 9.9297-9.7227l5.625-5.2578-7.5742 1.2383-0.003906-0.003906c-6.2188 1.5742-12.785 1.0117-18.648-1.5938-1.5547-0.90234-2.5391-2.543-2.6055-4.3398 0.10547-1.6133 0.32422-3.2109 0.65625-4.793l1.1641-5.5039-4.6875 3.0469v0.003907c-4.0078 2.8281-8.8203 4.2891-13.727 4.1602-1.1758-0.050782-2.3477-0.17578-3.5039-0.375l-1.3594-0.21484-5.1367 6.4961 2.0898 1.4062c7.6406 4.7617 15.797 8.6445 24.309 11.578z"/>
  <path d="m480.76 838.12c9.168-3.207 18.656-6.5625 28.125-8.8203 3.0273-0.74219 6-1.3047 8.8398-1.875 12.094-2.3164 23.512-4.4922 27.281-18.395l1.2109-4.4336-4.2656 1.6484c-5.4766 2.0703-10.883 4.4336-16.117 6.7305h0.003907c-8.5156 3.9531-17.285 7.3281-26.25 10.105-10.191 2.8789-20.625 5.4648-30.75 7.9609-7.8945 1.9609-15.797 3.9102-23.664 6.0078l-0.80469 0.22656-0.49609 0.67578c-0.79688 1.1172-1.5391 2.1836-2.1758 3.2422l-1.0703 1.707 1.5195 1.2852c0.68359 0.58203 1.3125 1.1055 2.3828 2.043l0.9375 1.3125 1.5547-0.40234c2.1602-0.49219 4.3516-0.83594 6.5625-1.0312 1.8945-0.17188 3.7773-0.48438 5.625-0.9375 7.2656-2.0547 14.531-4.5938 21.551-7.0508z"/>
  <path d="m611.09 794.73 3.4141-3.1016-2.1484-1.7148c-3.375-2.7109-6.6758-5.5781-9.9648-8.4375l-4.0859-3.5547-1.5273 1.293c-4.8945 4.0977-9.9844 8.6641-16.5 14.82l-2.5508 2.3984 3.1953 1.4336v0.003907c4.5039 2.1445 9.4102 3.3164 14.398 3.4336 5.8828 0.11719 11.551-2.2188 15.641-6.4492l-1.4258-1.3984z"/>
  <path d="m808.93 316.08c-5.3828-3.8984-15.797-1.5859-24.992 0.46094-2.9062 0.64844-5.5781 1.2461-7.6875 1.5273l-2.0352 0.26172v9.7969l3.3555-1.6016c9.5273-3.5352 20.188-2.0664 28.398 3.918l1.1992 0.72266 1.2109-0.70312c1.7656-1.0547 3.2969-2.457 4.5-4.125l0.99219-1.3867-1.0039-1.3789c-0.37109-0.4375-0.60547-0.97656-0.67188-1.5469-0.14844-2.3711-1.3477-4.5469-3.2656-5.9453z"/>
  <path d="m638.44 745.73c-4.4805 1.2148-8.8984 2.6523-13.238 4.3125l-4.2461 1.6133 7.9141 5.2305 1.0781-0.35547v-0.003906c2.8984-0.92969 5.8555-1.6836 8.8477-2.25l1.8281-0.35547 0.066406-1.875c0.03125-1.1289 0.22656-2.2461 0.58203-3.3164l1.4453-4.1797z"/>
  <path d="m485.24 322.86c1.0898 0.59766 2.375 0.73438 3.5703 0.38281 1.1953-0.35156 2.1992-1.1641 2.793-2.2578 0.61719-1.125 1.1992-2.2578 1.8203-3.3828l4.0391-2.5977c20.992-13.473 53.887-4.5078 77.699 8.3633l14.062 7.5859-11.25-11.25v-0.003907c-13.188-12.531-29.945-20.656-47.953-23.25h-0.42188c-9.8789 0.027344-19.613 2.3711-28.422 6.8359 13.273-25.023 25.875-50.625 37.5-76.352 9.375-20.805 18.977-40.199 28.246-58.961v0.003906c17.047-32.469 31.723-66.129 43.91-100.71l1.4531 3.7031c2.457 7.3477 6.918 13.863 12.883 18.812 5.9648 4.9453 13.191 8.125 20.867 9.1797 7.6016 1.1797 15.281 1.7422 22.707 2.2773 5.8594 0.42188 11.711 0.84375 17.551 1.5742 17.73 2.6289 33.699 12.184 44.391 26.57 22.695 26.926 35.945 65.398 41.711 121.09l0.30859 2.9609 2.8125 0.98438c1.5391 0.53516 3.0078 1.1719 4.5195 1.8203 2.4375 1.0977 4.9414 2.0352 7.5 2.8125l7.0508 2.0625-2.5312-16.875c-7.4727-50.453-17.684-119.54-67.371-145-13.973-6.2773-28.891-10.176-44.148-11.531-11.352-1.2305-22.543-3.6289-33.402-7.1641-9.9297-3.4961-19.238-8.5625-27.57-15l-6.5625-5.1094c0.28906-0.9375 0.62891-1.9219 0.9375-2.8867 0.62109-2.4492-0.8125-4.9531-3.2422-5.6562-2.4258-0.70312-4.9766 0.64453-5.7578 3.0508-12.266 37.57-27.789 74-46.387 108.87-9.3008 18.824-18.918 38.297-28.387 59.25-14.289 31.633-30 63.066-46.707 93.422-1.2734 2.2539-0.47656 5.1133 1.7812 6.3828z"/>
 </g>
</svg>
