<?xml version="1.0" encoding="UTF-8"?>
<svg width="1200pt" height="1200pt" version="1.1" viewBox="0 0 1200 1200" xmlns="http://www.w3.org/2000/svg">
 <g fill="#000">
  <path d="m768.65 114.8h-111.74c-8.3594 121.79-5.9375 244.46 7.2773 365.74l5.8945 54.113 0.91016 8.3438-0.91016 8.3438-5.5859 51.27h104.15l-4.3711-40.129c-14.762-135.45-14.762-272.11 0-407.55z"/>
  <path d="m768.65 630.13h-106.98c-13.605 140.58-12.777 282.82 2.5195 423.2l7.043 64.613h97.418l-4.3711-40.129c-14.762-135.45-14.762-272.11 0-407.55z"/>
  <path d="m645.55 558.29h-86.055c-2.3828 72.484 0.25391 145.16 8.1016 217.18l5.1484 47.258-5.1484 47.258c-8.332 76.438-10.758 153.61-7.5625 230.5h85.516l-4.8594-44.602c-16.406-150.55-16.406-302.44 0-452.99z"/>
  <path d="m859.8 520.86c-63.094 37.051-66.285 88.43-66.285 88.43 46.227-24.391 66.285-88.43 66.285-88.43z"/>
  <path d="m787.89 633.5c28.598 102.61 99.703 126.27 99.703 126.27-17.078-74.145-99.703-126.27-99.703-126.27z"/>
  <path d="m793.52 623.53c95.383 38.277 223.49 0.91406 223.49 0.91406-136.29-48.449-223.49-0.91406-223.49-0.91406z"/>
  <path d="m340.2 922.71c63.094-37.051 66.285-88.43 66.285-88.43-46.227 24.391-66.285 88.43-66.285 88.43z"/>
  <path d="m312.41 683.79c17.078 74.148 99.703 126.27 99.703 126.27-28.598-102.61-99.703-126.27-99.703-126.27z"/>
  <path d="m183 819.12c136.29 48.449 223.49 0.91406 223.49 0.91406-95.383-38.273-223.49-0.91406-223.49-0.91406z"/>
  <path d="m547.81 406.61h-80.734c-6.9375 9.4102-18.027 21.137-34.73 31.637 13.648 124.02 12.418 249.27-3.7695 373.06h119.24l-3.6289-33.289c-12.246-112.38-12.246-225.75 0-338.12z"/>
  <path d="m379.21 450.34c71.32-16.336 89.836-64.371 89.836-64.371-51.426 9.3477-89.836 64.371-89.836 64.371z"/>
  <path d="m424.64 214.15c-6.0391 75.848 57.059 150.43 57.059 150.43 3.6211-106.46-57.059-150.43-57.059-150.43z"/>
  <path d="m473.34 372.4c-79.434-65.219-212.84-68.16-212.84-68.16 115.37 87.23 212.84 68.16 212.84 68.16z"/>
  <path d="m640.69 30.113 0.011719-0.11328h-149.62c12.781 117.3 15.621 235.41 8.4922 353.07h74.5l-6.4727 59.391c-3.0898 28.332-5.3555 56.766-6.8594 85.25h84.812l-4.8594-44.602c-16.406-150.55-16.406-302.44 0-452.99z"/>
  <path d="m428.57 834.14c14.574 111.43 17.016 224.03 7.4141 335.86h104.81c-8.6484-100.7-7.5703-202.03 3.3867-302.56l3.6289-33.289h-119.24z"/>
 </g>
</svg>
