<?xml version="1.0" encoding="UTF-8"?>
<svg width="1200pt" height="1200pt" version="1.1" viewBox="0 0 1200 1200" xmlns="http://www.w3.org/2000/svg">
 <g fill="#fff">
  <path d="m621.02 606.56c1.1836 3.3164 2.0234 6.7422 2.5117 10.227 3.3516-1.4102 6.5977-3.0703 9.7031-4.9688-4.0703-1.7617-8.1484-3.543-12.215-5.2578z"/>
  <path d="m618.75 649.17c7.8477 2.4453 15.992 4.5195 24.516 6.5156-15.555-15-40.152-23.109-62.523-28.445 12.289 7.9492 24.977 15.27 38.008 21.93z"/>
  <path d="m598.12 601.31c-1.4805 2.2227-3.0391 4.3789-4.5938 6.375 5.1055 1.4062 10.219 2.9688 15.336 4.6875-1.8984-5.7852-5.2969-10.961-9.8516-15 0.20703 1.3789-0.11328 2.7812-0.89062 3.9375z"/>
  <path d="m761.84 662.29c6.7109 4.9219 12.633 10.84 17.559 17.547 6.4102 5.1094 12.246 10.898 17.41 17.262 0.44141 0.22656 0.88281 0.44922 1.4062 0.67578 1.7734-1.7812 3.6289-3.4141 5.3984-5.1953h0.085938c5.9258-27.555-12.824-41.926-37.191-48.891-1.0391 2.0078-2.0078 3.9297-3.1875 5.8516 0.48438 1.6641 0.5625 3.418 0.22656 5.1172-0.43359 2.5703-1.0039 5.1211-1.707 7.6328z"/>
  <path d="m683.83 671.1c5.5938-2.7578 9.9727-7.4805 12.301-13.266 3.0586-9.2539 3.9727-19.078 2.6719-28.734-1.1367-0.28125-2.2344-0.70703-3.2656-1.2656-0.58984 0.22656-1.332 0.52344-1.1914 0.375l-1.7734 1.1055h0.003906c-3.7461 14.215-9.0938 27.957-15.938 40.969-0.38281 0.61719-0.80078 1.2148-1.2578 1.7812 1.1797 0.28906 2.2891 0.58984 3.4766 0.88281l0.003906-0.003907c1.7188-0.42969 3.3828-1.0508 4.9688-1.8438z"/>
  <path d="m661.88 693.03c-1.0781-0.76172-2.1172-1.5781-3.1133-2.4453-18.742-6.25-36.93-14.055-54.375-23.336-22.57-7.4727-43.359-19.516-61.078-35.371-2.2227-2.0703-5.1172 15.777-5.2578 17.109-2.2227 14.598-0.60156 18.074 11.625 27.488 24.676 17.91 52.848 30.426 82.676 36.738l2.2227-0.28906c2.6875-0.19922 5.3828-0.25 8.0742-0.14844 2.3711 0.21484 4.7422 0.36719 6.9648 0.74219v-0.003906c8.3789 1.4414 16.609 3.6406 24.59 6.5625 1.4062 0.51562 2.7461 0.9375 4.0781 1.4805 31.332 5.1094 68.746 10.152 98.297 0.375-22.668-2.082-42.891-11.484-66.516-17.484-12.008-3.0391-23.559-5.1172-34.527-8.3711-4.7656 0.51953-9.5664-0.55078-13.66-3.0469z"/>
  <path d="m351.96 327.89c1.0391 30.938-17.699 103.93 11.926 120.82 5.5977 3.1094 10.797 6.8906 15.484 11.25l0.28906-1.4062 0.30078-1.1914 0.66406-1.707 0.003906-0.035156 0.074219-0.14844 0.074219-0.22656 0.22656-0.44141c0.73438-1.5859 1.6523-3.082 2.7383-4.4531 0.81641-1.0312 1.6328-1.9961 2.5234-2.9609h-0.003907c0.62109-0.64453 1.2891-1.2344 2-1.7734 2.5977-2.2969 4.7422-3.75 6.6641-5.2578 2.3203-1.3828 4.2383-3.3516 5.5586-5.7109 0.074219-1.9961-0.81641-3.9922-4.5195-9.7031-2.2773-3.5273-3.7266-7.5273-4.2266-11.699-0.14062-2.7461-0.36719-5.4844-0.58984-8.1562-0.22656-2.6719-0.36719-5.3984-0.51562-8.0703 0.074219-2.8125 0.074219-5.5508 0.14844-8.2969-0.042969-5.2461 0.22656-10.492 0.81641-15.703 1.582-16.887 4.0547-33.676 7.4062-50.297 5.4102-27.488 7.8477-43.266 10.004-43.266 1.9961 0 3.2539 16.594 1.1055 44.672-0.89062 13.996-2.6641 30.816-2.9609 49.688-0.22656 4.8203-0.074219 9.4766 0.14844 14.297 0.074219 2.3711 0.14844 4.8203 0.22656 7.2578 0.28906 2.5977 0.66406 5.2578 0.9375 7.9297 0.27344 2.6719 0.66406 5.4102 1.0391 8.1484v-0.003906c0.33594 1.4062 0.97656 2.7227 1.875 3.8555 1.8906 2.5703 3.5977 5.2656 5.1172 8.0703 2.125 4.1367 3.1172 8.7617 2.8906 13.406l-0.074218 0.44922-0.074219 0.22656h-0.003906c-0.51562 2.1406-1.1836 4.2422-1.9961 6.2891-0.93359 1.7617-2 3.4453-3.1875 5.043-2.1367 2.4805-4.4961 4.7617-7.0391 6.8164-2.1484 1.7734-4.293 3.3281-5.625 4.5859-0.31641 0.27734-0.61719 0.57422-0.89062 0.89062 0 0.074219-0.074219 0.074219-0.14844 0.074219-0.074219-0.58984-0.74219 0.9375-1.2578 2.0703l-0.074219 0.22656-0.30078 1.6328c-0.26953 0.96484-0.44141 1.957-0.51563 2.9609 0 0.81641-0.14844 1.7812-0.074218 2.5234h-0.003906c0.13672 0.65625 0.23828 1.3242 0.30078 1.9961 0.32031 0.53516 0.57031 1.1094 0.74219 1.707 0.49219 0.62891 0.9375 1.2969 1.332 1.9961 1.4609 1.6992 3.0273 3.3086 4.6875 4.8164 0.9375 0.94141 1.9258 1.8281 2.9609 2.6641l3.3281 2.8867 5.8594 4.8203c1.9961 1.2578 3.9922 2.7383 6.0742 3.9297v-0.003907c2.0273 1.0469 4.1289 1.9375 6.293 2.6641 9.7617 2.5859 20.059 2.3281 29.68-0.74219 7.8672-1.9219 15.828-3.4297 23.852-4.5156 3.3438-0.37891 6.707-0.57812 10.078-0.59375-0.9375-3.2617-2.2969-6.6641-3.3359-9.9297-2.5117-7.5-6.5625-16.961-8.3711-24.59l-1.4805-5.9258-0.74219-2.9609-0.21484-0.74219-0.22656-0.9375-0.074219-0.375-0.22656-1.5547c-0.58984-4.0703-1.1797-8.0703-1.7734-12.074-1.4062-7.9219-1.9297-15.703-2.5977-23.336v0.003907c-2.0391-26.445-2.3359-53-0.89062-79.484 2.4453-44.598 7.2656-71.195 9.7031-71.195 2.8125 0.14844 2.8125 27.188 4.1523 71.25 0.74219 22.07 1.9219 48.441 5.4102 77.559 0.9375 7.2578 1.6953 14.738 3.2539 22.219 0.67578 3.75 1.2656 7.5 1.9297 11.336l0.074219 1.4805 0.22656 0.074219 0.36719 0.74219 0.9375 2.9609 1.6328 5.8594-0.003906 0.003906c1.0703 3.8086 2.3789 7.543 3.9219 11.184 1.4141 3.75 2.8984 7.5547 4.3789 11.41 1.4805 4.2188 3.2539 8.0703 4.5195 12.664s2.4375 9.1875 3.6289 13.848l3.8516 14.156-5.4102-0.66406c-5.4844 26.371 6.2266 55.312 22.82 78.227l0.36719-1.4062c1.7812-7.3398 3.9297-15.562 6.4492-24.602 1.332-4.4453 2.6641-9.1797 3.9922-14.062 1.3398-5.0352 2.6719-10.219 4.0781-15.629s2.8867-10.969 4.3672-16.668l1.1914-4.293 0.28906-1.0391 0.14844-0.81641 0.375-1.9961v-0.003906c0.67578-2.5781 1.1484-5.2031 1.4062-7.8555 0.60547-5.1445 0.35547-10.352-0.73828-15.414-1.3398-5.3984-3.1875-11.109-5.4102-17.699-0.9375-2.8125-1.875-5.5586-2.5977-8.2227l-1.2578-4.0039-0.58984-1.9961c-0.22656-0.85156-0.40234-1.7188-0.52344-2.5938-1.1055-5.9258-2.2969-11.773-3.0391-17.559-0.21484-5.7734-0.44141-11.398-0.58984-16.875 0-5.5586 0.81641-10.82 1.1914-16.078v-0.003906c0.38281-5.0586 1.1992-10.078 2.4375-15 1.1172-4.7422 1.7812-9.4766 3.2617-13.855 2.4023-8.168 5.4258-16.141 9.0391-23.848 1.6328-3.4766 3.2617-6.8164 4.8203-10.004 1.5547-3.1875 3.7031-5.8516 5.4102-8.5117h-0.003906c2.6758-4.543 5.8828-8.7461 9.5547-12.527 5.9258-6 9.7031-8.9609 10.883-8.0703 1.1797 0.89062-0.36719 5.4102-4.2188 12.965-2.2773 4.3789-4.2578 8.9102-5.9258 13.555-1.0391 2.5859-2.3711 5.1836-3.4141 8.2969-1.0391 3.1133-2.0703 6.2891-3.1133 9.7773l0.003906 0.003907c-2.3945 7.4141-4.3711 14.957-5.9258 22.594-0.9375 3.9922-1.2578 8.3711-1.9219 12.816v-0.003906c-0.84766 4.4727-1.3203 9.0078-1.4062 13.559-0.074219 4.6875-0.58984 9.375-0.375 14.223 0.21484 4.8477 0.66406 9.7031 0.9375 14.672 0.9375 4.8086 1.875 9.7031 2.8125 14.664v-0.003906c0.13281 0.51172 0.23438 1.0312 0.30078 1.5586l0.58984 1.875 1.2578 4.0781c0.81641 2.6719 1.707 5.3359 2.5977 7.9297 2.3008 6.5078 4.2539 13.133 5.8477 19.848 1.4531 7.3711 1.6523 14.938 0.58984 22.379-0.50391 3.3945-1.2188 6.7578-2.1445 10.066l-0.58984 2.3711-0.36719 1.4062-0.30078 1.1172-1.4062 4.2188c-1.7812 5.625-3.6289 11.043-5.3359 16.379-1.707 5.3359-3.4883 10.367-5.1094 15.254-0.66406 1.707-1.3398 3.2617-1.9297 4.9688 1.2461-0.71875 2.5352-1.3633 3.8555-1.9336 24.227-77.184 89.711-125.12 133.71-190.01h-0.11328c-1.9961-17.926-6.1484-35.484-9.2617-53.184-10.516-0.44531-20.828-3.043-30.301-7.6328-2.1875-1.0664-3.9219-2.8828-4.8828-5.1172-0.54688-0.87109-1.0156-1.7891-1.4062-2.7383-4.5117-12.207-5.8633-25.355-3.9297-38.223-4.293-8.5234-8.8125-16.969-12.188-25.555-0.089844-0.058594-0.19531-0.085937-0.30078-0.074218-30.289-10.969-60.59-19.117-89.852-33.039-21.262-10.078-44.062-12.074-61.191-29.117h0.003906c-5.4297-5.293-11.473-9.9219-18-13.781 0.36719 0.44922 0.80469 0.89062 1.1055 1.3398 8.2734 10.383 15.363 21.656 21.141 33.609 9.8516 20.223 10.742 34.227 9.375 34.379-1.6328 0.36719-5.1836-12.188-16.52-30.523v-0.003906c-6.4922-10.809-13.93-21.02-22.227-30.516-4.8594-5.6211-10.105-10.898-15.703-15.785-0.9375-0.81641-1.9297-1.6211-2.8867-2.3633 0.81641 2.1484 1.5547 4.3672 2.2227 6.5625h-0.003907c5.6797 19.055 8.7461 38.789 9.1133 58.668 0.49609 15.988-0.27344 31.992-2.2969 47.859-3.4141 27.113-8.4375 43.18-10.004 42.891-1.875-0.30078 0.074219-16.969 1.1797-43.566h0.003906c0.67969-15.551 0.55859-31.129-0.36719-46.668-0.99219-18.781-4.1992-37.379-9.5508-55.406-2.5547-8.1602-5.7812-16.094-9.6484-23.719l-3.8516-7.9219h-0.085938c-16.668-16.52-31.191-26.008-45.488 1.332-10.121 18.719-17.223 38.922-21.035 59.859-7.6875 45.375-4.875 89.297-3.3945 134.93zm184.46-28.52c3.9922-25.191 10.961-44.598 14.223-44.008 3.4766 0.66406 1.9961 21.336-1.9297 46.078-4.1445 25.18-12.516 44.746-15.629 43.707-3.4805-1.0391-0.74219-21.035 3.3359-45.777z"/>
  <path d="m852.88 81.496c-2.0703-0.36719-4.2188-0.66406-6.2891-1.0312h-0.003906c0.058594 8.3203-1.3984 16.578-4.3008 24.375 6.125-6.3203 9.8672-14.57 10.594-23.344z"/>
  <path d="m873.33 86.016c-1.9961-0.58984-3.9922-0.9375-6-1.4062 0.54297 7.3047 0.42188 14.645-0.36719 21.93-0.81641 5.7109-3.4883 11.336-4.0781 17.043 26.523-7.4805 45.113-27.855 10.445-37.566z"/>
  <path d="m729.02 696.8c18.883 8.0273 39.191 12.172 59.707 12.188 0.074219-0.14844 0.074219-0.22656 0.14844-0.375-0.51562-0.74219-0.9375-1.5547-1.4805-2.2969h0.003907c-6.1406-4.8945-11.617-10.566-16.297-16.875-5.1836-4.2266-10.594-8.2969-15.562-12.375-6.0195 9.7031-15.5 16.754-26.52 19.734z"/>
  <path d="m792.8 218.25c-11.109 6.6641-16.227 19.191-23.184 29.785 0.21484 0.14062 0.44141 0.14062 0.58984 0.28906 15.188 11.785 27.555 1.2656 32.598-14.148 2.5898-7.7773 3.5547-24.176-10.004-15.926z"/>
  <path d="m660.87 234.84c9.375 1.0391 11.625 0.89062 10.883-10.445-0.36719-4.8203-1.0312-7.9961 0.22656-8.8867 1.1172-0.74219 4.293 1.2578 7.1172 6.6641v0.003907c1.7617 3.3164 2.75 6.9883 2.8867 10.742 0.074219 2.6758-0.45703 5.332-1.5547 7.7734-1.3516 3.0586-3.7031 5.5664-6.668 7.1133-0.14844 0.074218-0.52344 0.22656-0.52344 0.22656-1.2734 0.52344-2.6211 0.83984-3.9961 0.9375 1.4805 2.7461 2.9609 5.4844 4.293 8.1562h0.003906c1.4844 2.8164 1.6719 6.1445 0.51563 9.1133 0.035156 0.63672 0.035156 1.2812 0 1.9219-1.0547 8.168-0.26953 16.469 2.2969 24.297 26.82 11.484 75.789-2.8125 89.711-27.93l-0.003906 0.003906c0.49219-0.82031 1.0664-1.5898 1.707-2.2969-2.2461-1.2266-4.3984-2.6172-6.4414-4.1523-3.9023 3.6641-8.7109 6.2188-13.93 7.4062-2.5547 0.52344-5.1875-0.41797-6.8242-2.4453-1.6367-2.0273-2.0078-4.8008-0.95703-7.1836 5.3359-32.371 1.5547-64.227-21.852-88.895h-0.003907c-2.5742-2.5938-2.5742-6.7812 0-9.375 21.789-18.816 27.93-39.121 58.453-45.711 14.777-2.4062 29.934-0.10937 43.332 6.5625-31.332-21.852-80.148-13.031-118.89-9.0391-15.555 11.934-36.074 33.047-35.41 52.305h0.003907c1.4922 10.977 0.88672 22.141-1.7812 32.895-1.0312 2.9609-2.2227 6.4414-3.4766 9.918h-0.003906c-1.8945 5.6445-4.3008 11.102-7.1914 16.305-1.4062 2.2969-4.293 4.3672-5.1094 6.8164-2.8125 7.8633 8.8242 6.7305 13.191 7.1992z"/>
  <path d="m830.29 98.98c2.125-6.4961 3.125-13.312 2.9609-20.145-7.9961-0.9375-16.07-1.4805-24.148-1.875-30-1.4062-60.938 1.6328-90.938-0.58984-0.9375 3.1133-2.0078 6.2266-3.2617 9.375 40.121-4.0234 83.605-7.1367 115.39 13.234z"/>
  <path d="m781.62 281.44c-16.656 20.074-40.449 32.902-66.375 35.785 2.1484 11.852 4.5195 23.559 6.5156 35.41 28.895-17.559 64.004-32.223 80.082-61.93v-0.003906c-3.5898-3.0117-6.7773-6.4805-9.4766-10.312-3.5312 0.75781-7.1367 1.1094-10.746 1.0508z"/>
  <path d="m803.02 138.47c-11.25-0.89062-18.664-0.74219-19.039-2.5234-0.28906-1.6328 6.5625-4.8828 18.898-6.2891 2.8789-0.32031 5.7695-0.44922 8.6641-0.375-12.68-5.7812-27.039-6.7305-40.367-2.6641-18.375 6.4414-26.898 22.734-38.973 35.699 22.078 24.227 25.633 53.785 22.227 84.523 9.9297-9.0391 14.738-25.406 24.148-34.367 8.9609-8.5234 29.699-15.336 36.965-0.52344 6.6641 13.566 0 30.375-8.2227 41.785h0.003906c-1.0938 1.5039-2.3086 2.918-3.6289 4.2266 1.3867 0.84766 2.4922 2.082 3.1797 3.5547 0.86328 1.8047 1.8281 3.5625 2.8867 5.2578 0.74219 1.2461 1.6406 2.3867 2.6719 3.4062 0.74219 0.81641 1.4062 1.5547 1.9961 2.1484 11.336-24.074 26.523-46.961 32.297-72.074l-1.1055-1.5547v-0.003907c-4.4062-6.3594-10.273-11.566-17.109-15.188-5.9492-2.582-12.285-4.1641-18.75-4.6875-11.184-0.9375-19.105-0.36719-19.258-2.1484 0-1.4805 6.3672-4.8086 19.258-6.2266 7.8008-0.69922 15.66 0.28906 23.043 2.8984 3.9141 1.5742 7.5938 3.6719 10.941 6.2344-2.0156-5.207-5.7188-9.5859-10.52-12.441-6.4258-3.8867-13.371-6.8555-20.625-8.8125-12.891-3.75-21.414-5.7852-21.188-7.5547 0.22656-1.7734 8.8125-2.7461 23.035-1.1172 8.6445 0.96875 17.031 3.5312 24.742 7.5586 1.7344 0.98828 3.3945 2.1055 4.9688 3.3359-0.92969-2.8945-2.3594-5.6055-4.2305-8.0078-4.6953-5.3359-10.91-9.1094-17.812-10.809-6.2422-1.7148-12.637-2.8086-19.098-3.2617z"/>
  <path d="m711.39 676.29c9.9023-0.28125 19.133-5.0859 25.039-13.043-5.3359-3.1133-10.895-6-16.379-8.9609-1.2266 7.8828-4.1836 15.398-8.6602 22.004z"/>
  <path d="m851.25 675.98c-8.2227 0.5625-16.484 0.33984-24.664-0.66406 0.44922 3.0625 0.59766 6.168 0.44922 9.2617 19.332 10.312 38.297 21.188 56.598 33.039v-0.003906c-0.45312-3.1641-0.52734-6.3711-0.22656-9.5508-12.973-8.168-23.961-19.129-32.156-32.082z"/>
  <path d="m926.89 858.15c-12.367 8.7383-26.812 17.184-40.594 14.148-20.617-4.6758-39.031-16.219-52.227-32.738-8.0703-10.895-10.594-24.301-19.996-34.379-4.2891-4.1406-7.207-9.4922-8.375-15.336-0.875-2.8984-0.44141-6.0352 1.1836-8.5859 0.64844-1.5781 1.6641-2.9766 2.9609-4.0781 7.75-7.1797 15.941-13.859 24.535-20-11.559-10.367-22.82-21.113-34.688-31.191v0.003907c-20.598 11.48-44.133 16.609-67.641 14.746-0.28906 0.81641-3.6289 1.4805-9.2539 2.0703l-0.60156 2.9609c-6.957 36.664-12.441 67.191-15.992 88.969-2.9609 21.703-5.1836 34.52-7.4062 34.594-2.0078 0-3.75-12.965-4.1523-35.484v0.003906c0.90625-27.621 3.3789-55.164 7.4062-82.5-7.7812-2.2305-15.262-4.8945-22.668-7.5547-1.875-0.074219-3.75-0.074219-5.5508-0.14844v-0.003907c-2.625 14.281-6.707 28.254-12.188 41.699-9.8984 24.691-23.82 47.574-41.195 67.715-3.5508 3.6992-6.7344 7.0312-9.5547 9.9922-2.9609 2.6719-5.6992 4.7422-7.9297 6.5625-4.4453 3.4023-7.1797 4.9609-7.8477 4.3672-0.66406-0.58984 1.0391-3.4023 4.4453-7.8555 1.7812-2.1484 3.9297-4.8086 6.4414-7.9219 2.2305-3.1875 4.7422-6.7422 7.6328-10.742 14.602-20.801 26.805-43.191 36.375-66.738 5.6055-13.664 10.043-27.777 13.266-42.188-5.4531-1.7539-11.023-3.1172-16.672-4.0781-12.188-2.2227-17.859-1.875-24.75 9.5547 0 0.074219-1.4805 2.4453-1.4805 2.4453l-1.6953 2.6719c-4.4141 6.5195-9.4766 12.578-15.113 18.074-10.25 9.8945-21.41 18.797-33.336 26.586-21.93 14.898-41.859 26.672-56.598 38.672-11.891 8.9414-22.227 19.781-30.59 32.082-2.3789 3.4375-4.5703 6.9961-6.5625 10.668-1.6328 2.5117-2.8125 3.7031-3.4766 3.4023s-0.89062-1.875-0.58984-4.8945l-0.003906 0.003906c0.40234-4.3594 1.4727-8.6328 3.1797-12.668 6.2578-15.25 15.871-28.898 28.125-39.926 17.441-15.598 35.879-30.047 55.188-43.258 10.59-7.6719 20.57-16.148 29.852-25.359 4.582-4.7031 8.7031-9.8398 12.301-15.336l1.2578-1.875 1.4062-2.3711c0.89062-1.4805 2.2227-3.4766 3.4141-5.3359h-0.003906c1.5742-2.1523 3.3594-4.1367 5.3359-5.9258 0.082031-0.09375 0.18359-0.16797 0.29687-0.22266-32.648-8.5078-62.629-25.09-87.188-48.227-2.2227 1.1172-4.5938 2.1484-6.9648 3.1133-2.5117 2.7227-6.168 4.0938-9.8516 3.7031-20.887 7.4062-42.301 14.148-41.559 42.523 0.375 13.707-0.74219 22.961-11.551 31.633-7.7812 6.2266-15.188 3.9297-23.711 14.062-9.4609 11.777-17.117 24.902-22.715 38.934-8.9961 23.004-20.734 44.84-34.961 65.035-9.0391 12.188-20.898 26.25-19.93 42.75 1.4297 8.5664 1.3086 17.324-0.36719 25.848-7.4141 20.371-23.043 34.453-30.449 55.117-12.742 35.195-29.484 77.27-33.488 116.97v-0.003906c8.5547-11.191 16.383-22.918 23.438-35.109 3.3359-5.4102 6.8164-10.969 10.312-16.594 3.9922-5.7109 7.5547-11.484 12.188-17.336 4.668-5.9492 9.7695-11.547 15.266-16.742 2.6719-2.3711 5.3359-4.8203 8.0078-7.2578l0.74219-0.66406 0.14063-0.074219 0.375-0.30078 0.74219-0.51562 1.4062-0.9375h-0.007813c0.91016-0.61719 1.8477-1.1875 2.8125-1.707 1.7812-1.1797 3.5625-1.9961 5.3359-2.9609 6.5625-3.4023 12.816-6.2266 18.75-9.1133 17.559-8.5117 22.379-12 13.039-30.148-1.832-3.3828-3.2734-6.9609-4.293-10.672l-0.30078-1.1055-0.21484-1.2656-0.074219-0.66406-0.14844-2.5859-0.22656-5.1094v-0.003907c0.17188-6.3555 1.1914-12.66 3.0391-18.75 3.3555-9.9258 7.6211-19.523 12.738-28.668 7.0352-11.859 12.137-24.758 15.113-38.223 0.66406-4.5195 1.2578-8.4375 1.4805-11.25 0.22656-2.8125 0.81641-4.2188 1.5547-4.293 0.74219-0.074219 1.6328 1.1797 2.6719 3.75h0.003906c1.4883 3.9062 2.3594 8.0156 2.5859 12.188 0.070312 15.234-3.2695 30.289-9.7773 44.062-3.7578 8.7266-6.875 17.711-9.3281 26.887-1.0625 4.6094-1.5391 9.3359-1.418 14.062l0.375 3.5547 0.14844 1.7812 0.074219 0.21484 0.28906 1.0391 0.003907 0.003907c0.72656 2.0312 1.6484 3.9922 2.75 5.8477 3.9805 6.0352 6.9336 12.688 8.7344 19.688 1.0117 5.0977 0.49609 10.383-1.4805 15.188l-1.332 2.6641c-0.69922 1.3359-1.5469 2.5938-2.5195 3.75-0.77734 1.0391-1.6406 2.0078-2.5898 2.8945-0.81641 0.74219-1.6328 1.6211-2.4453 2.2227-5.9102 4.5938-12.293 8.543-19.039 11.777-6.0742 2.9609-12.188 5.9258-18.375 8.9609-1.4805 0.81641-3.0391 1.6328-4.293 2.3711h-0.003906c-0.64453 0.36328-1.2695 0.76172-1.875 1.1914l-0.74219 0.51562-0.44922 0.28906c-2.6641 2.3711-5.2578 4.6875-7.7812 6.9648l0.003907 0.003906c-4.7891 4.3555-9.2227 9.0859-13.258 14.145-4.0039 4.8203-7.7812 10.379-11.559 15.414-3.75 5.4102-7.2578 10.742-10.734 15.852-9.7422 15.523-21.281 29.844-34.379 42.668 1.332 0.44922 2.6719 0.81641 4.0039 1.1914v-0.003906c29.113 1.6406 58.301 1.6172 87.41-0.074219l17.926-6.0742c14.062-4.7422 28.668-10.961 43.125-17.484 30.137-13.195 58.566-29.988 84.676-50.008 5.7344-4.625 11.066-9.7266 15.938-15.25 4.3711-4.7695 7.7852-10.328 10.07-16.379 1.875-4.832 1.8242-10.203-0.14063-15-2.5312-5.0703-6.1484-9.5195-10.594-13.031l-7.9141-6.8164 6.8906-6.6641c10.676-9.7227 22.992-17.477 36.375-22.895 11.926-5.1836 22.82-9.6289 31.922-14.746 2.2227-1.2578 4.3047-2.5117 6.4492-3.75 2.1836-1.4922 4.2812-3.0977 6.293-4.8125l3.1133-2.4453 0.74219-0.58984 0.375-0.30078 1.1055-1.1797c1.6328-1.7812 3.1875-3.4883 4.8203-5.1836l-0.003907-0.003906c2.8438-3.3711 5.5039-6.8945 7.9688-10.555 2.1836-3.4102 4.168-6.9492 5.9336-10.594 5.1289-10.906 8.3594-22.602 9.5547-34.594 0.74219-8.6719 1.0391-13.492 2.0703-13.555 0.89062 0 2.5234 4.4453 3.5547 13.332v-0.003906c1.1523 13.246-0.65625 26.578-5.2891 39.039-1.5938 4.2461-3.4727 8.3828-5.625 12.375-2.3984 4.3789-5.0938 8.5859-8.0703 12.59-1.6328 2.0703-3.3359 4.1523-5.043 6.2266l-1.2578 1.6328-0.66406 0.58984-0.14844 0.22656-0.36719 0.28906-0.74219 0.66406-2.8984 2.6719c-2.0703 1.6953-3.75 3.6289-6.2148 5.3359-2.4648 1.707-5.043 3.4766-7.6328 5.2578-10.598 6.3359-21.527 12.098-32.746 17.258-8.2656 3.9219-16.117 8.6641-23.438 14.148 3.5938 3.6562 6.5508 7.8867 8.7461 12.516 4.0664 9.0352 4.5938 19.266 1.4844 28.668-2.9062 8.5234-7.4375 16.398-13.344 23.195-5.4766 6.5938-11.555 12.668-18.148 18.148-27.203 21.645-57.109 39.648-88.969 53.559-0.58984 0.28906-1.1055 0.51563-1.6953 0.74219 14.887-0.66406 29.699-1.1914 44.523-1.3398 26.438-0.14062 52.809 0.14844 79.117 0.67578 0.14062 0 0.21484-0.074219 0.28906-0.074219 4.2266-1.0391 8.3711-2.0078 12.449-2.9609 1.9961-0.52344 4.0703-0.9375 6.0742-1.4805l2.3711-0.52344 2.8867-1.2578v-0.003906c3.3828-1.293 6.6328-2.9062 9.7031-4.8203 5.7578-3.9922 10.922-8.7812 15.336-14.223 7.5898-10.109 13.629-21.297 17.926-33.188 3.3438-9.1914 6.1602-18.566 8.4375-28.078 3.75-15.703 5.1836-24.664 6.6641-24.664 1.2578 0.074219 2.2969 9.1875 0.89062 25.93h0.003907c-0.98438 10.215-2.832 20.324-5.5234 30.227-3.5391 13.621-9.3359 26.551-17.156 38.25-4.7695 6.7461-10.512 12.75-17.043 17.812 34.152 0.9375 68.305 2.2227 102.45 3.5625 3.9297 0.21484 7.7812 0.28906 11.711 0.44141l-0.66406-0.44141h-0.003906c-4.4961-3.4258-8.5859-7.3555-12.188-11.711-3.6289-4.2188-6.2266-8.5977-9.375-12.891-2.8867-4.3672-4.9609-9.0391-7.4062-13.48-2.2227-4.5938-3.75-9.375-5.625-13.855-5.7109-17.344-8.8086-35.441-9.1875-53.699-0.48047-15.469 0.26172-30.953 2.2227-46.305 2.707-21.906 6.8633-43.609 12.441-64.969 3.8516-15 6.6641-23.184 8.1562-22.961 1.4922 0.22656 1.4062 8.8867 0 24.375-1.2656 15.488-4.3047 37.633-5.625 64.82-0.83203 14.68-0.70703 29.398 0.375 44.062 1.1055 16.383 4.4688 32.535 9.9922 48 1.7812 3.8516 3.1875 7.9297 5.1836 11.785 2.2227 3.6289 4.0039 7.6328 6.5625 11.184 2.6641 3.4023 5.0352 7.332 7.8477 10.445 1.3828 1.7188 2.9219 3.3086 4.5938 4.7422 1.4609 1.4062 3.0273 2.6953 4.6875 3.8555 15.809 10.359 33.867 16.789 52.668 18.75 0.81641 0.14844 1.6328 0.21484 2.4453 0.28906 5.1836 0.14844 10.367 0.30078 15.555 0.375-6-31.039-14.062-60.449-21.402-87.562-4.3047-15.777-8.3711-30.816-11.633-45-3.7031-14.062-6.0742-27.562-8.2969-39.789-1.9453-10.98-3.3008-22.059-4.0703-33.188-0.375-4.8828-0.9375-9.375-0.9375-13.633 0.14844-4.2188 0.30078-8.0703 0.36719-11.477 0.60156-13.855 1.5547-21.262 2.8984-21.262 1.3398 0 3.0391 7.5 4.8828 20.812 0.375 3.2617 0.81641 6.9648 1.332 11.043 0.51563 4.0781 1.707 8.3633 2.5977 13.125 2.0703 9.375 3.4766 20.082 6.9648 31.707 3.0391 11.785 6.1484 24.602 10.52 38.297 3.9922 13.781 8.6641 28.527 13.555 44.156v0.003906c9.8594 30.637 18.117 61.766 24.738 93.262 35.852 0.52344 71.754 0.69922 107.71 0.52344 7.8555-0.074219 15.703 0.14062 23.711 0.44141-2.6562-3.8477-5.0352-7.8828-7.1172-12.074-5.5625-11.293-10.41-22.922-14.523-34.816-1.875-5.4844-3.7031-10.883-5.5508-16.293l-2.5977-8.0078-2.4453-8.2969c-3.1797-10.734-5.9258-21.262-9.1016-31.18v-0.003907c-5.3945-18.793-14.051-36.496-25.566-52.301-1.4805-1.875-2.9609-3.9297-4.3672-5.8516l-2.2227-2.9609-0.74219-1.0391-1.1797-1.4062c-3.1133-3.8516-6.1484-7.5547-8.9609-11.336-5.7852-7.5-11.195-14.812-16.453-21.852-10.445-14.148-20.07-27.188-29.184-38.746s-17.699-21.703-25.633-30.227c-6.8086-7.2266-14.008-14.074-21.562-20.516-12.188-10.379-20.625-15.188-19.688-16.594 0.58984-1.1172 9.6289 0.80469 24.59 9.918v0.003906c8.8164 5.4961 17.145 11.746 24.891 18.672 10.16 9.1484 19.809 18.848 28.895 29.062 10.145 11.25 20.625 24 31.633 37.633 5.4844 6.7422 11.184 13.781 17.109 20.961 2.9609 3.5625 6 7.1172 9.0391 10.668l1.1172 1.4062 1.4805 1.7812 2.2227 2.8125 4.5938 5.7852h-0.003907c6.5469 8.4961 12.344 17.543 17.332 27.039 2.5234 4.8828 4.6875 10.004 6.8906 15.113 1.875 5.1094 4.0703 10.367 5.625 15.629 3.4141 10.445 6.375 21.039 9.5625 31.555l2.2969 7.707 2.5859 7.9297c1.875 5.2578 3.6289 10.52 5.4102 15.852v0.003907c3.8164 11.012 8.2695 21.797 13.332 32.297 2.0625 4.5234 4.6797 8.7773 7.7812 12.664l0.81641 0.81641 0.22656 0.14844c0.92969 0.68359 1.9531 1.2344 3.0352 1.6328 0.83984 0.36328 1.7031 0.65625 2.5898 0.87891 1.1055 0.41406 2.25 0.72656 3.4102 0.9375 10.434 1.9805 21.016 3.0977 31.633 3.3398 7.8477 0.44141 15.629 0.74219 23.625 1.6953 0.73438-9.3477 0.3125-18.75-1.2578-27.992-1.9023-11.711-4.8047-23.238-8.6719-34.453-6.4609-18.797-14.293-37.094-23.438-54.742-15.188-29.859-26.156-46.305-24.227-47.711 1.4805-1.1797 15.777 12.965 34.293 41.926h0.003906c11.219 17.387 20.773 35.793 28.527 54.977 4.832 11.93 8.5508 24.277 11.109 36.891 2.4414 11.309 3.2852 22.902 2.5117 34.445 12.648-0.44141 25.25-1.7773 37.707-4.0039-28.07-43.93-29.41-99.852-59.062-144.16-34.781-51.75-81.938-92.129-127.24-134.05z"/>
  <path d="m817.77 709.85c-0.22656 0.21484-0.52344 0.44141-0.74219 0.66406-0.125 0.26172-0.27344 0.51172-0.44922 0.74219 13.492 11.551 26.25 24 39.637 35.625 10.004-1.875 21.262 0.60156 31.18-0.28906v-0.003906c-21.004-14.566-42.898-27.805-65.559-39.637-1.082 1.3008-2.4844 2.3008-4.0664 2.8984z"/>
  <path d="m902.89 844.29c23.438-6.8906 49.688-26.371 56.156-43.922-17.938-10.664-34.656-23.262-49.855-37.566-11.336 6.9648-23.117 5.2578-36.301 4.6875-17.258-0.74219-30.75 10.668-43.125 21.703 1.9648 2.7891 4.1172 5.4375 6.4414 7.9336 0.375-0.30078 0.74219-0.58984 1.1914-0.89062 1.3477-0.95312 2.7578-1.8203 4.2188-2.5898 5.7852-3.2617 11.043-6.1484 15.488-8.1562 8.9609-3.9297 15-5.625 15.777-4.1445 0.77734 1.4805-3.4883 5.8516-11.25 11.699-3.8516 2.9609-8.2227 6.4492-13.34 10.004v0.003907c-1.3633 0.88281-2.6719 1.8477-3.9219 2.8867-0.33594 0.35156-0.64844 0.72266-0.9375 1.1133 0.058593 0.17969 0.13281 0.35547 0.22656 0.51562 0.44141 1.1172 0.88281 3.4141 1.4062 3.4141 1.1211-0.12891 2.2344-0.32812 3.3281-0.60156 2.1406-0.61719 4.2461-1.3555 6.3008-2.2188 4.957-3.2031 10.246-5.8594 15.777-7.9219 2.7383-1.043 5.1797-1.9336 7.332-2.6719 2.5312-1.2227 5.2305-2.0664 8.0039-2.5156 0.9375-0.22656 1.6953-0.22656 1.875 0.21484 0.44922 0.60156 0 2.3711-2.5234 4.7422l0.003906 0.003906c-0.84375 0.89062-1.7617 1.707-2.7383 2.4453-1.6328 1.6328-3.6289 3.4023-6.0742 5.4102-4.5586 3.75-9.4688 7.0508-14.664 9.8555-0.81641 0.44141-1.6328 0.81641-2.4453 1.1797-1.8945 1.4727-3.332 3.4492-4.1523 5.6992 0.011718 0.34766-0.015626 0.69922-0.078126 1.043 0.22656 0.375 0.14844 0.74219 0.30078 1.1797 0.31641 0.47266 0.58984 0.96875 0.81641 1.4922l0.30078 0.36719 1.0312 1.1797c0.89062 1.1914 0.89062 0.44922 1.1172 0.74219 0 0.14844 0.51562 0.22656 0.9375 0.375l-0.003907-0.003906c0.5 0.17188 1.0352 0.22266 1.5586 0.15234 0.62891 0.09375 1.2695 0.042969 1.875-0.15234 3.0586-0.60156 6.0078-1.6758 8.7383-3.1875 5.3555-2.9805 10.551-6.2461 15.562-9.7773 4.4492-3.5117 9.3867-6.3555 14.66-8.4375 1.4062-1.4062 2.4453-1.9961 3.1133-1.6953 0.66406 0.30078 0.74219 2.1484 0.14844 4.9609v-0.003906c-1.3203 4.2266-3.6914 8.0469-6.8906 11.109-4.4883 4.1406-9.4609 7.7227-14.812 10.668l-1.875 1.1914-2.1484 1.332c-1.1797 0.89062-2.3711 1.7812-3.3359 2.5859-0.51562 0.44922-0.58984 0.81641-1.0312 1.1914-0.125 0.15625-0.22656 0.32812-0.29687 0.51562 0.097656 0.13672 0.17187 0.28906 0.22266 0.44922 0.23828 0.30078 0.46094 0.61328 0.66797 0.9375l0.074219 0.074219 0.51562 0.52344 0.9375 0.88281v0.003907c0.15234 0.16797 0.32812 0.31641 0.51562 0.44922h0.14844c0.14844 0 0.22656 0 0.30078 0.074219s0.51562 0.21484 0.81641 0.28906c2.1289 0.28125 4.2891-0.078126 6.2148-1.0312 4.7578-2.4688 9.3359-5.2656 13.707-8.3711 3.2734-2.4219 6.832-4.4336 10.594-6 2.8125-1.1172 4.8203-0.9375 5.0352-0.22656 0.44922 1.5547-3.2539 5.4102-9.918 12.891-0.46094 0.66016-1.1289 1.25-1.7188 1.9141zm-57.711-33.629c-0.066406-0.074218-0.066406-0.14844-0.14062-0.30078 0.14062 0.074219 0.28906 0.14844 0.21484 0.375z"/>
  <path d="m637.61 624.72c9.8789 5.1953 18.766 12.09 26.25 20.371 2.2227-5.625 4.2188-11.336 6-17.184-7.4062-3.3281-14.746-6.5625-22.152-9.7773-3.2461 2.375-6.6172 4.5742-10.098 6.5898z"/>
  <path d="m570.2 602.2c2.8867 0.58984 5.8516 1.2656 8.8867 1.9297h0.003907c2.7891-2.9219 5.2969-6.0977 7.5-9.4844 0.33203-0.42969 0.70703-0.82422 1.1133-1.1836-7.875-1.6289-14.691-0.22266-17.504 8.7383z"/>
  <path d="m1133.6 678.88c0.66406-52.969-37.707-85.789-66.891-126.09-29.633-40.895-50.523-83.043-93.336-112.5-27.414-18.816-62.305-33.488-83.785-59.336-12.523-15-14.746-34.969-29.484-48.824-12.188-11.484-23.785-23.438-36.449-34.445l-0.003906 0.003906c-0.28125 0.13281-0.58203 0.23047-0.89062 0.28906-20.297 38.746-61.93 54.523-97.039 78.383-6.1484 4.1445-11.785 17.109-16.445 23.258-6.3008 8.1484-12.891 16.07-19.633 23.926-13.93 16.367-28.527 32.148-42.301 48.602h0.003906c-24.625 31.496-46.086 65.344-64.078 101.04 4.3672-7.8555 46.594 10.594 51.777 12.816 16.293 7.1055 31.875 15.703 47.859 23.438 7.1484-4.0312 15.52-5.3203 23.551-3.6289 1.2852 0.29297 2.4961 0.84375 3.5625 1.625 4.625-0.019531 8.5352 3.418 9.1133 8.0039 0.88672 4.5547 1.5273 9.1523 1.9219 13.773 6.8906 4.3047 14.148 8.0078 21.336 11.934 2.9844-4.1016 5.4023-8.5898 7.1797-13.34 1.7578-5.8398 7.7969-9.2656 13.707-7.7734 3.4141 0.74219 6.7422 1.6211 10.078 2.5859v0.003906c-1.8945-2.125-3.6758-4.3516-5.332-6.668-4.1445-6.8008-7.3633-14.125-9.5625-21.777-1.1055-3.3359-2.1484-6.5625-3.2539-9.8516-1.4609-4.2344-1.9922-8.7344-1.5586-13.191 0.074218-1.2578-0.074219-0.66406 0.14844-0.51562-0.22656 0 0.74219 0.22656-0.9375-1.332l-1.2578-1.1914-0.22656-0.14062-0.66406-0.375h0.003906c-0.85156-0.66016-1.8008-1.1836-2.8125-1.5547-9.7422-3.1641-20.012-4.3711-30.223-3.5547-16.809 1.2812-33.695 1.0352-50.457-0.73828-4.7812-0.75-9.4102-2.2773-13.699-4.5195-2.6719-1.707-3.9297-2.9609-3.75-3.6289 0.17969-0.66406 2.0078-0.81641 5.1953-0.375 4.2656 0.32812 8.543 0.40234 12.816 0.22656 11.336-0.30078 27.555-3.3359 48.891-6 12.578-2.0156 25.449-1.2578 37.707 2.2188 1.9414 0.64844 3.8047 1.5156 5.5469 2.5898l1.4141 0.75 0.66406 0.44141 0.28906 0.14844c0.14844 0.074219 1.1172 0.9375 1.1172 0.9375l1.875 1.6953h0.003907c1.9961 1.7812 3.6758 3.8867 4.9688 6.2266 1.3672 2.7852 2.0547 5.8594 1.9961 8.9609-0.31641 2.2344 0.007813 4.5117 0.9375 6.5625 1.1797 3.1875 2.3711 6.375 3.6289 9.5625 1.8164 5.9922 4.4609 11.703 7.8555 16.961 1.8125 2.4766 3.8438 4.7852 6.0781 6.8906 1.1055 1.1172 2.4375 2.2969 3.75 3.4141l4.3672 3.9297c5.5508 5.0352 11.184 10.809 16.594 15.555v-0.003906c4.9062 4.6992 10.5 8.6211 16.594 11.625l1.9961 0.9375 1.875 0.375c1.4414 0.44531 2.9375 0.69531 4.4453 0.73828l1.4805 0.14844 0.66406-0.074219c0.51562-0.074218 0.89062 0 1.4805-0.074218h0.003906c1.3984-0.19141 2.7852-0.48828 4.1406-0.89063 6.5742-2.1562 12.891-5.0391 18.828-8.5938 7.2383-4.1641 15.016-7.3164 23.109-9.375 2.1953-0.47266 4.4219-0.78516 6.6641-0.9375 1.1172-0.074218 2.2969-0.22656 3.4023-0.22656l2.6719-0.074219c4.3984-0.070312 8.7852 0.45312 13.043 1.5547 7.0664 2.3711 13.848 5.5117 20.219 9.375 2.5742 1.3867 5.2188 2.6367 7.9219 3.75l1.9297 0.81641 0.28906 0.074219 1.1914 0.30078 4.5195 1.1055h0.003906c5.3672 1.3945 10.844 2.332 16.367 2.8125 5.2578 0.60156 10.742 0.74219 15.852 1.0391l0.003906 0.003906c16.93-0.34375 33.84 1.3477 50.371 5.0312 2.6641 0.51563 5.2539 1.3594 7.707 2.5234 1.8438 0.76562 3.6523 1.6289 5.4062 2.5859 2.8867 1.4922 4.1445 2.5977 3.9297 3.3359-0.21484 0.74219-2.0703 0.89062-5.1836 0.74219-1.5547-0.074218-3.4141-0.22656-5.625-0.51562-2.5-0.38672-5.0273-0.5625-7.5586-0.52344-16.344-0.39062-32.695 0.23438-48.965 1.875-5.4102 0.14844-10.883 0.44141-17.109 0.30078-6.3672-0.12891-12.711-0.79688-18.965-2.0078-1.5547-0.28906-3.1133-0.58984-4.6875-0.81641l-1.1055-0.21484-0.60156-0.14844-0.28906-0.074219c-0.14844 0-1.1914-0.30078-1.1914-0.30078l-2.5117-0.88281c-3.3828-1.1211-6.6953-2.4336-9.9297-3.9258-5.3281-2.9492-10.938-5.3594-16.742-7.1914-5.4648-0.89062-11.047-0.71094-16.445 0.52344-1.0391 0.28906-2.1484 0.66406-3.2617 1.0312-4.5938 3.0391-10.367 6.5625-16.594 10.82 7.0195 7.8906 15.184 14.684 24.227 20.145 14.031 8.2031 28.973 14.742 44.52 19.484 35.258 11.25 69.375 17.195 93.75 22.742 24.516 5.3359 39.703 10.078 39.188 12.965s-16.078 3.4023-41.344 1.875c-33.32-1.8945-66.293-7.7617-98.223-17.473-10.758-3.3945-21.219-7.6836-31.266-12.816-7.0391 43.555 96.301 94.078 128.53 111.85 17.184 9.4883 39.188 23.438 59.559 22.594 32.148-1.2578 19.117-39.262 18.516-55.312-1.3008-37.367 20.891-70.93 21.332-108.04zm-378.25-187.63c-11.41 0.9375-27.113 1.0391-44.062 1.6328-14.289 0.35938-28.504 2.1211-42.449 5.2578-10.312 2.3711-17.258 5.2578-18.148 3.5547-0.66406-1.332 4.0781-6.7422 15.262-11.926 6.3281-2.8867 12.965-5.0469 19.781-6.4414 8.2617-1.5781 16.633-2.543 25.039-2.8867 14.969-0.48828 29.949 0.17969 44.812 1.9961 11.25 1.332 18.227 2.6641 18.301 4.4453s-7.1328 3.4297-18.535 4.3672zm88.426-31.5c-5.7695-1.3164-11.605-2.332-17.484-3.0391-3.0391-0.30078-6.0664-0.51563-9.0391-0.74219l-10.145-0.89062c-11.184-1.1797-22.227-2.0703-32.887-3.5547-10.742-1.6328-21.113-3.1875-31.117-4.7422l-15.938-2.3711 8.5859-12.891 0.003907 0.003907c9.9297-14.477 21.191-27.992 33.637-40.371 10.961-11.184 21.113-20.297 29.633-27.703 17.109-14.746 27.777-22.594 29.484-21.039 1.707 1.5547-6.1484 12.59-20.625 29.773-7.2578 8.5977-16.227 18.664-25.855 30.301-6.5625 8.0703-13.707 16.875-20.445 26.371l14.523 1.7812c10.668 1.332 21.703 2.0703 32.898 3.2539l19.848 1.7812c6.7422 1.0391 13.406 2.1484 19.781 3.75l-0.003906 0.003906c12.184 3.0742 24.039 7.3164 35.41 12.664 18.73 8.9961 36.547 19.789 53.195 32.223 27.992 20.973 43.707 35.344 42.188 37.707-1.6328 2.5977-20.82-7.6953-50.457-25.105-16.973-10.117-34.59-19.102-52.746-26.898-10.504-4.3359-21.359-7.7695-32.445-10.266zm238.46 183.65c-1.6953 1.1797-10.312-9.0391-26.887-22.152v-0.003906c-9.7891-7.6211-20.031-14.645-30.664-21.035-12.086-7.1172-25.707-14.445-40.379-21.703-29.41-14.371-56.672-26.672-75.789-37.191-19.258-10.52-29.926-18.75-29.109-20.148 0.89063-1.6328 13.191 3.918 32.961 12.188 19.773 8.2695 47.559 19.332 77.492 33.93h0.003906c14.09 6.9609 27.766 14.727 40.961 23.258 10.852 7.0664 21.02 15.125 30.375 24.078 15.945 15.516 22.246 27.965 21.055 28.781z"/>
  <path d="m109.87 151.36c-25.039 21.703-54.816 47.812-36 79.688 36.664-47.035 75.703-92.156 126.56-123.86-2.332-3.9297-4.1875-8.125-5.5234-12.496-30.602 15.27-59.168 34.309-85.039 56.672z"/>
  <path d="m220.31 96.984c2.6797-1.5156 5.0039-3.5859 6.8164-6.0742-3.4453-3.4766-7.7305-6.0039-12.441-7.332 0.9375 4.8086 2.8516 9.3711 5.625 13.406z"/>
  <path d="m359.3 121.06c-20.746-9.7773-45.414-15.938-63.938-29.711-14.586-10.883-27.852-25.258-45.477-30.891v0.003907c-1.0625 0.30859-2.1602 0.46094-3.2656 0.44922-9.2227-1.3945-18.637-0.83594-27.637 1.6289 12.504 1.6797 23.527 9.0469 29.859 19.961 0.98047 1.7383 1.4648 3.7148 1.4062 5.7109 1.0703 3.0312 0.77344 6.3789-0.81641 9.1758-4.3711 8.2773-11.062 15.102-19.254 19.633 3.0391 10.312 27.852 8.2969 35.699 6.6758 0.66406-0.11328 1.332-0.1875 2.0078-0.22656 3.0273-1.2305 6.4883-0.72266 9.0352 1.332 20.371 14.445 45.262 19.688 66.965 31.633v-0.003906c4.2773-12.145 9.4297-23.969 15.414-35.371z"/>
 </g>
</svg>
