<?xml version="1.0" encoding="UTF-8"?>
<svg width="1200pt" height="1200pt" version="1.1" viewBox="0 0 1200 1200" xmlns="http://www.w3.org/2000/svg">
 <g fill="#000">
  <path d="m150 1012.5h900l-37.5-75h-825z"/>
  <path d="m93.75 1050-37.5 75h1087.5l-37.5-75z"/>
  <path d="m243.75 562.5h112.5v131.25h-112.5z"/>
  <path d="m393.75 900h412.5v-525h-187.5v57.543c36.215 4.5977 69.516 22.227 93.676 49.598 24.156 27.371 37.512 62.602 37.574 99.109v56.25c0 53.59-28.59 103.11-75 129.9-46.41 26.797-103.59 26.797-150 0-46.41-26.793-75-76.312-75-129.9v-56.25c0.0625-36.508 13.418-71.738 37.574-99.109 24.16-27.371 57.461-45 93.676-49.598v-57.543h-187.5z"/>
  <path d="m843.75 375h112.5v150h-112.5z"/>
  <path d="m843.75 750h112.5v150h-112.5z"/>
  <path d="m243.75 731.25h112.5v168.75h-112.5z"/>
  <path d="m843.75 562.5h112.5v150h-112.5z"/>
  <path d="m243.75 375h112.5v150h-112.5z"/>
  <path d="m487.5 581.25h225v56.25h-225z"/>
  <path d="m600 750c23.246-0.023438 45.914-7.2461 64.887-20.676 18.973-13.43 33.32-32.406 41.07-54.324h-211.88c7.7461 21.91 22.086 40.883 41.055 54.312 18.965 13.43 41.625 20.656 64.863 20.688z"/>
  <path d="m600 468.75c-23.246 0.023438-45.914 7.2461-64.887 20.676-18.973 13.43-33.32 32.406-41.07 54.324h211.88c-7.7461-21.91-22.086-40.883-41.055-54.312-18.965-13.43-41.625-20.656-64.863-20.688z"/>
  <path d="m956.25 243.75-56.25-168.75h-600l-56.25 168.75c-58.125 37.5-206.25 37.5-206.25 37.5 0 20.719 60.73 56.25 135.77 56.25h853.46c75 0 135.77-35.531 135.77-56.25 0 0-148.12 0-206.25-37.5zm-588.52 56.25h-39.02l53.566-187.5h39.02zm125.4 0h-37.969l26.719-187.5h37.895zm125.62 0h-37.5v-187.5h37.5zm88.125 0-26.719-187.5h37.969l26.793 187.5zm141 0-66.883-187.5h39.805l66.957 187.5z"/>
 </g>
</svg>
