<?xml version="1.0" encoding="UTF-8"?>
<svg width="1200pt" height="1200pt" version="1.1" viewBox="0 0 1200 1200" xmlns="http://www.w3.org/2000/svg">
 <g fill="#fff">
  <path d="m538.27 203.2 3.0664 0.78906c24.879 6.1484 50.387 9.3906 76.012 9.6641h2.3828l-0.054687-9.375-1.6406-0.51562c-5.1641-1.6211-9.8438-2.9336-14.289-4.0039-1.543-0.29688-2.9258-1.1523-3.8711-2.4102l-0.86328-0.73047c-0.32422-0.15234-0.66016-0.28125-1.0039-0.38281l-0.66406-0.12109c-14.242-0.47656-28.621-2.1562-42.535-3.75l-9.6562-1.1172-0.75 1.3789c-1.4531 2.6641-2.9062 5.3047-4.4805 7.8945z"/>
  <path d="m375.39 852.26 2.0156-0.054688 0.47656-1.875c2.082-3.8164 4.1055-7.6406 6.1211-11.457l4.5664-8.5859-3.0742-0.62891c-7.293-1.4922-14.914-2.6797-22.641-3.5547l-1.668-0.1875-0.71094 1.5273c-3.0859 6.5625-6.0664 13.293-9.0391 19.969l-3.3477 7.5 4.5195-0.9375c7.4688-1.6836 15.145-2.2617 22.781-1.7148z"/>
  <path d="m391.66 785.32-1.7891 2.7109c-1.3398 2.0234-2.6992 4.0781-3.9297 6.1953-1.1328 2.2734-3.5312 3.6367-6.0664 3.4414h-0.38281l-0.38281 0.10156h-0.003906c-0.50781 0.14453-1.0352 0.20703-1.5664 0.17969l-1.4336-0.11328-0.74219 1.2266c-3.6836 6.0391-7.2188 12.488-10.52 19.164l-1.4531 2.9141 3.2266 0.44141c7.9023 1.0859 15.523 2.3906 22.66 3.8711l1.7266 0.36719 0.82422-1.5547c5.5703-10.48 11.062-21.039 16.566-31.586l1.3203-2.5391-2.7578-0.79688c-4.0977-1.1719-8.3047-2.2305-12.461-3.2891z"/>
  <path d="m425.62 743.12c-10.66 12.02-20.203 22.961-28.969 35.008l-2.0234 2.8125 3.3281 0.87109c4.1445 1.0781 8.2891 2.1641 12.43 3.3086l1.8203 0.50781 0.88281-1.668c7.6406-14.551 14.008-26.41 20.043-37.352l1.5273-2.8125-8.1484-1.6953z"/>
  <path d="m457.9 851.91 2.1484 1.3789 1.1914-2.2695c6.3828-12.188 11.551-21.461 16.734-30.113l1.2734-2.1172-2.1836-1.1523c-5.3242-2.8125-10.461-5.3906-15.066-7.6328-0.54297-0.27344-1.1328-0.52344-1.7344-0.77734l-3.1133-1.4141-5.8203 9.6914c-4.2188 7.0117-8.4375 14.062-12.695 20.992l-1.3672 2.2227 2.3516 1.1172v-0.003906c6.3047 2.9648 12.41 6.332 18.281 10.078z"/>
  <path d="m440.97 881.95 3.2812 2.2031 1.2109-2.3359c3.832-7.4258 7.625-14.891 11.383-22.398l0.9375-1.875-1.7617-1.1445-0.003907 0.003907c-6.25-4.0273-12.773-7.6055-19.527-10.707l-1.875-0.86328-1.0977 1.7422c-4.0234 6.3555-8.3711 12.789-12.957 19.105l-1.4805 2.0547 2.1562 1.3203c6.582 4.0352 12.965 8.3359 19.734 12.895z"/>
  <path d="m413 864.38 1.8008 0.9375 1.2109-1.6484c4.2109-5.7656 8.3359-11.758 12.59-18.32l1.5547-2.3828-2.6523-1.0859c-10.453-4.1836-21.211-7.5742-32.176-10.133l-1.7617-0.42188-0.84375 1.6016c-2.9922 5.625-6.0391 11.25-9.3203 17.289l-1.5078 2.8125 3.0859 0.64844v-0.003906c9.8086 2.1875 19.25 5.793 28.02 10.707z"/>
  <path d="m430.91 838.12 1.875 0.76953 1.0391-1.707c3.6641-5.9375 7.2891-11.891 10.875-17.859l8.1758-13.461-2.4648-1.0703c-11.125-4.8281-22.504-9.0352-34.09-12.609l-1.875-0.57031-0.9375 1.7266c-5.3633 10.312-10.789 20.625-16.227 30.938l-1.3984 2.6445 2.9062 0.72266v-0.003907c10.949 2.6992 21.684 6.2031 32.121 10.48z"/>
  <path d="m587.32 190.77 3.6484 0.25391-1.293-3.4219v-0.003907c-0.6875-1.9961-1.0664-4.0859-1.125-6.1953l-0.13281-2.6172-16.547 2.6641c-4.0586 0.64844-8.1289 1.2852-12.188 1.9766l-16.305 2.8125 16.434 1.875c8.9453 0.95703 18.207 2 27.508 2.6562z"/>
  <path d="m715.11 604.89 3.8633-0.86328-2.6172-2.9727c-3.2734-3.75-6.7422-7.3398-10.191-10.949l-4.4609-4.6875-1.2656 3.6289c-0.75 2.1641-1.4609 4.3398-2.1758 6.5078-1.1992 3.6836-2.3984 7.3516-3.7969 10.914l-1.7344 4.4258 4.5547-1.3125c5.6562-1.6172 11.695-3.3242 17.824-4.6914z"/>
  <path d="m702.88 565.31 1.875-0.84375c5.1914-2.3555 10.074-5.332 14.547-8.8672l1.9609-1.5742-1.7148-1.875c-1.7344-1.875-3.4688-3.75-5.2695-5.625l-0.82422-0.84375-1.1641 0.14844c-5.293 0.375-10.434 1.9375-15.047 4.5664l-1.5 1.0508 0.65625 1.707v-0.003906c1.4258 3.6562 3.2344 7.1484 5.4023 10.418z"/>
  <path d="m759.09 458.71 0.33594-0.9375c2.6133-7.4492 4.5508-15.113 5.7969-22.906l0.75781-4.5547-4.125 2.082c-21.562 10.883-49.145 7.4258-63.648 4.3984l-2.625-0.54297-0.19531 2.6641c-0.42969 5.6719-0.70312 11.586-0.83594 18.086v1.5195l1.3672 0.65625 0.003906-0.007812c9.6094 4.2031 20.012 6.2852 30.496 6.1055 10.891 0.10156 21.691-1.9844 31.762-6.1328z"/>
  <path d="m481.46 815.25 1.2109-1.875c6.1875-9.7773 12.98-19.152 20.344-28.078l0.63672-0.75781-0.11328-0.98437c-0.1875-1.7617-0.30859-3.5234-0.42969-5.2891l-0.085937-1.0508-0.83594-0.63672c-4.8477-3.75-9.8047-7.1641-14.758-10.227l-1.8203-1.125-1.2852 1.6953c-7.2734 9.5625-14.605 20.418-23.07 34.191l-1.3203 2.1484 2.2305 1.1641c3.4297 1.7734 6.7891 3.6094 10.117 5.4922 2.3711 1.4062 4.8086 2.8125 7.2383 4.2266z"/>
  <path d="m767.97 348.75-2.4844 0.11328c-12.445 0.84375-24.828 2.4102-37.09 4.6875-10.258 1.6875-20.867 3.4297-31.367 4.2578l-2.5859 0.19531 0.69531 3.6094c0.074219 0.32812 0.16016 0.65625 0.21484 1.0234v0.054687h-0.003907c0.86719 4.5039 1.4961 9.0508 1.875 13.621l0.17969 2.1094 8.9258 0.16016c4.4062 0.09375 8.8516 0.1875 13.293 0.1875 16.035 0.77734 32.047-1.9297 46.93-7.9414l1.3867-0.62891v-1.5273c-0.070312-5.8555-0.070312-11.652 0-17.391z"/>
  <path d="m795.64 576.96c-11.691-1.6016-23.598-2.2969-33.703-2.7578l-5.0234-0.23438 3.0547 3.9922c2.7266 3.5703 5.3984 7.1719 8.0703 10.781l3.918 5.2773 1.4531-0.28906h0.003906c0.55859-0.125 1.1328-0.19922 1.707-0.21484h0.066406-0.003906c6.8711-0.125 13.738 0.25391 20.551 1.1367l3 0.35547-0.39453-2.9922c-0.55859-4.1953-0.78906-8.4297-0.68359-12.664l0.066406-2.1016z"/>
  <path d="m768.07 400.04c0.066406-7.1055 0.066406-14.164-0.066406-21.207l-0.054688-3.3555-3.1328 1.2109c-19.332 6-39.633 8.2617-59.812 6.6758l-7.1914-0.09375 0.066406 2.4375c0.13281 4.5 0.1875 8.9258 0.066406 13.352l-0.066406 2.1016 2.082 0.28906v-0.003907c7.9531 1.0586 15.969 1.5508 23.988 1.4727 5.832 0 11.633-0.1875 17.352-0.35547 7.7539-0.24219 15.777-0.48828 23.711-0.27344l3.0391 0.074219z"/>
  <path d="m766.31 319.32h-1.9414c-20.691 0.11328-59.211 0.32813-75.133 18.965l-0.9375 1.0977 0.55469 1.332c1.4531 3.4375 2.707 6.957 3.75 10.539l0.51562 1.8203 1.875-0.12109c11.523-0.74219 23.035-2.625 34.18-4.4453h0.003907c12.133-2.2305 24.391-3.7578 36.703-4.5664l2.2031-0.09375v-2.2031c0.25391-6.8438-0.23438-13.691-1.4531-20.43z"/>
  <path d="m740.62 407.39c-13.508 0.6875-27.043 0.35156-40.5-1.0039l-2.4922-0.32031-0.14062 2.5234c-0.38281 6.8711-0.9375 13.754-1.4727 20.625l-0.16016 2.0352 1.9961 0.44922c9.5 2.1133 19.199 3.2148 28.934 3.293 13.832 0.65234 27.523-3.0469 39.148-10.578l0.85156-0.62891 0.09375-1.0586c0.38281-4.3789 0.70313-8.6992 0.9375-13.125l0.10156-2.3828-2.3828-0.066406c-8.3594-0.19141-16.766 0.023437-24.914 0.23828z"/>
  <path d="m395.77 702.94 2.3242 1.1055c8.8008 4.3398 16.551 10.543 22.707 18.18l2.2109 2.3242 1.6406-1.9414c4.8086-5.6719 9.375-11.324 13.445-16.781l1.5-1.9961-2.082-1.3672c-4.7812-3.1602-9.7578-6.1016-14.559-8.9531-4.5664-2.7109-9.1328-5.418-13.574-8.3164l-1.9883-1.293-1.2734 2.0156c-3.0742 4.875-6.0898 9.8164-9.0469 14.82z"/>
  <path d="m620.4 313.49-1.0586-0.09375c-1.7344-0.16797-3.4883-0.35547-5.2422-0.54297-3.6094-0.38281-7.2461-0.77734-10.875-0.99219h-3.75l1.1055 3.1211 0.003906-0.003906c1.4961 4.2656 2.7734 8.6055 3.8242 13.004l0.44922 1.875 1.875-0.054687c5.5703-0.16797 11.484-0.62891 19.172-1.4805l3.543-0.39453-1.7734-3.0938h0.003906c-2.0352-3.5938-4.2578-7.0781-6.6562-10.438z"/>
  <path d="m632.37 334.05-0.72266-1.5664-1.707 0.21484c-8.082 1.0234-14.867 1.6211-21.336 1.875l-2.6797 0.12109 0.47656 2.6328v0.003906c0.93359 5.2734 1.582 10.594 1.9414 15.938l0.14844 2.1641h2.1758c6.2344 0 12.469 0.25391 18.703 0.46094l10.633 0.35547-0.77734-3.0195c-1.7188-6.582-4.0117-13-6.8555-19.18z"/>
  <path d="m608.02 401.71c7.9883 1.0234 16.172 1.875 24.375 2.5039l1.4609 0.11328 0.74219-1.2734v-0.003907c2.1914-3.7852 3.8984-7.8281 5.082-12.039l0.85156-2.9805h-32.934l-0.26172 2.043c-0.38281 2.9766-0.82422 5.9453-1.332 8.9141l-0.41406 2.4102z"/>
  <path d="m608.44 379.93h33.32l0.12109-2.2109c0.25-4.918 0.011719-9.8477-0.72266-14.719l-0.28906-1.9609-1.9766-0.046874c-3.6094-0.066407-7.2188-0.16797-10.828-0.26172-5.625-0.14844-11.25-0.30078-16.875-0.375h-2.4102v2.4102c0.074218 5.2773 0 10.098-0.24219 14.738z"/>
  <path d="m472.41 471.95 0.085938 1.1719 0.98438 0.63672c36.395 23.438 83.652 30.262 126.34 30.262v0.003906c30.703-0.19531 61.32-3.2578 91.453-9.1523l1.6602-0.32813 0.21484-1.6797c0.71094-5.457 1.2852-10.922 1.8008-16.379l0.16797-1.7539-1.6406-0.64844v0.007813c-3.4102-1.3242-6.6875-2.9805-9.7773-4.9414-0.44922-0.29297-0.875-0.625-1.2656-0.99609l-0.75781-0.76953-1.0781 0.09375c-6.3203 0.51562-12.516 1.2656-18.676 1.9961v0.003906c-15.738 2.5625-31.738 3.1172-47.617 1.6484-7.3594-0.9375-14.711-1.9688-22.07-3-14.016-1.9688-28.508-4.0039-42.883-5.3164l-4.3047-0.39453c-23.672-2.1484-50.504-4.5859-70.453-18.121l-3.8906-2.418 0.24219 4.6875c0.45703 8.5234 0.89844 16.961 1.4688 25.387z"/>
  <path d="m471.21 435.32c21.008 18.918 52.574 21.102 80.418 23.023 6.2891 0.44141 12.422 0.86328 18.242 1.4609 7.8086 0.80469 15.863 2.2695 23.645 3.6836v0.003907c12.176 2.5977 24.559 4.0977 37.004 4.4805 1.875 0 3.8359-0.046875 5.7461-0.16797 8.6797-0.51563 17.336-1.6953 25.715-2.8125 5.2969-0.72266 10.602-1.4531 15.938-2.0156l2.1016-0.22656v-2.1094c0-4.4258 0.25391-8.8516 0.50781-13.285l0.054687-0.9375-0.60938-0.71094c-0.75-0.88281-1.5078-1.8203-2.1836-2.6641l-0.61719-1.2188-1.3594-0.074219h-0.003906c-36.68-0.95703-73.211-5.0352-109.2-12.188-5.6797-1.2656-11.512-2.3359-17.383-3.4023h0.003906c-17.402-2.1289-34.301-7.2656-49.941-15.188l-1.1523-0.67578-1.1797 0.64844h-0.003906c-0.26953 0.17188-0.56641 0.29297-0.87891 0.36328l-1.0859 0.10156-0.61719 0.9375-0.003907 0.003906c-5.6523 8.0781-13.477 14.391-22.566 18.203l-1.4258 0.60937v1.5469c0 0.25391 0 0.50781 0.066406 0.9375v1.0391z"/>
  <path d="m652.73 310.62-1.2109-1.4062-1.6406 0.85156v0.003906c-5.8789 2.8906-12.379 4.293-18.93 4.0859h-4.2656l2.2891 3.6016c1.6328 2.5703 3.1406 5.3359 4.6406 8.1094l0.76953 1.4062 6.7578-0.88281c6.1602-0.80469 12.32-1.6133 18.555-2.2578l4.5742-0.47656-3.0742-3.4141c-2.8711-3.1875-5.6719-6.375-8.4648-9.6211z"/>
  <path d="m492.41 406.12 0.066407-0.13281h-0.003907c0.12109-0.27734 0.3125-0.52344 0.55469-0.70312l0.64844-0.73047c0.13672-0.30078 0.33203-0.57031 0.57031-0.79688l0.58203-0.44141 0.23438-0.69531c0.81641-2.457 1.6953-4.9141 2.6328-7.293l0.9375-2.3438-2.3984-0.75c-4.4609-1.4062-8.8594-2.8125-13.246-4.2734l-2.3164-0.76953-0.67578 2.3359c-2.1016 6.25-5.3945 12.039-9.6953 17.043l-0.51563 0.65625 0.066407 5.5586c0 3.1953 0.054687 6.3672 0.14062 9.543l0.10156 3.75 3.3281-1.7539h0.003907c7.9766-4.0742 14.578-10.406 18.984-18.203z"/>
  <path d="m503.35 394.3-0.79687 1.9609c-0.9375 2.3984-1.8086 4.7344-2.6641 7.1328l-0.62891 1.8008 1.6328 0.98438c20.297 12.301 49.273 16.473 72.543 19.82l5.2109 0.75781c36.133 5.2695 68.438 8.5977 99.008 10.18h0.007812c0.20703 0.035156 0.40625 0.097656 0.59766 0.1875l2.9609 1.2852 1.707-17.934h-2.5977l0.003907-0.003907c-59.258 0.11328-118.21-8.5117-174.95-25.594z"/>
  <path d="m488.9 350.79c-25.949-3.4414-51.352-10.16-75.609-19.988l-2.9258-1.125-0.25391 3.1328c-0.25391 3.168-0.44922 6.3477-0.51562 9.4609v1.5547l1.4141 0.63672c25.734 11.559 52.059 21.754 78.863 30.543l0.64844 0.12109 3.6289-0.20703c8.2266-0.9375 16.371-2.4805 24.375-4.6094 9.543-2.6172 18.637-5.5117 26.672-8.0703 6.375-2.0352 12.188-3.8828 17.27-5.2969l-0.003906-0.003906c4.082-1.2227 8.2383-2.1836 12.441-2.8789-3.4219 1.875-8.1289 4.0781-11.457 5.625-13.953 6.6992-28.449 12.203-43.328 16.453l-15.273 3.6094 8.6445 2.4648v0.003907c27.898 8.0117 56.32 14.074 85.059 18.148l2.25 0.32031 0.38281-2.2422c5.5625-28.668 3.2969-58.305-6.5625-85.789l-0.53516-1.3867-1.4805-0.10156c-7.5938-0.5625-15.16-1.2578-22.727-1.9414-12.871-1.1797-26.184-2.3984-39.375-2.9258l-8.4375-0.32812 7.0391 4.6328 0.003907-0.003906c7.0391 4.5586 13.645 9.7539 19.734 15.516 2.2461 2.1094 4.332 4.3828 6.2461 6.7969-4.2852-2.0352-11.961-6.7773-19.445-11.398-5.043-3.1133-10.641-6.5625-16.555-10.086l-5.4453-3.2422 1.0391 5.2031v-0.003906c3.0664 10.707 1.0391 22.23-5.5039 31.246-5.3242 5.2852-12.918 7.5938-20.277 6.1602z"/>
  <path d="m444.88 638.35-1.707-1.2266-1.4062 1.5469c-3.4023 3.75-6.9453 7.9023-11.137 13.078l-1.5547 1.875 1.9961 1.4531c8.3359 6.0273 17.973 13.125 26.945 20.898l1.8203 1.5742 1.5273-1.875c3.8164-4.6875 7.7539-9.2891 11.758-13.809l1.6328-1.8281-1.875-1.5391c-5.9531-4.8477-12.336-9.2812-18.523-13.566-3.1953-2.1367-6.3672-4.332-9.4766-6.582z"/>
  <path d="m464.93 381.77c-12.047-4.2578-24.133-8.9258-36.945-14.27l-5.8984-2.457 2.9062 5.6914c6.293 12.465 15.648 23.125 27.188 30.984l2.5586 1.7148 0.9375-2.9258c0.60156-1.8359 2-3.3047 3.8086-3.9922l0.61719-0.23438 0.40234-0.54297c2.5078-3.0742 4.4141-6.5859 5.625-10.359l0.82422-2.8984z"/>
  <path d="m668.62 329.5-0.75781-1.125-1.3594 0.09375c-8.8672 0.63672-17.812 1.7891-26.363 2.8984l-0.11328 2.3828-0.30859-2.3242-3.0742 0.40234 1.2266 2.8125v-0.003906c2.7773 6.4102 4.9727 13.055 6.5625 19.855l0.41406 1.8086h3.9062c9.2344 0.078124 18.461-0.48828 27.617-1.6875l2.6328-0.36719-0.68359-2.5703 0.003906 0.003906c-1.9883-7.8789-5.2695-15.371-9.7031-22.18z"/>
  <path d="m482.08 630.36 2.625-2.3711-4.0781-1.875c-0.60938-0.25781-1.2031-0.54688-1.7812-0.86328l-1.6875-0.9375-1.7344 2.0352c-5.832 3.7734-10.965 8.5312-15.168 14.062l-1.5547 1.9961 7.9688 5.3359 1.3125-1.875h-0.003906c4.1094-5.6758 8.8398-10.879 14.102-15.508z"/>
  <path d="m425.86 689.54c4.9141 2.9258 9.9922 5.9531 14.812 9.1484l1.875 1.2383 1.3203-1.7891c3.75-5.0898 7.5-10.191 11.391-15.086l1.3867-1.7539-1.6875-1.4727c-8.8867-7.7539-18.234-14.691-27.008-21.027l-1.875-1.3398-1.3789 1.8203c-4.6211 6.0195-9.0938 12.254-13.32 18.516l-1.3203 1.9766 1.9883 1.293c4.543 2.957 9.1758 5.7227 13.816 8.4766z"/>
  <path d="m683.59 388.03h-38.062l-0.42969 1.7891c-0.95703 4.0508-2.3555 7.9844-4.1719 11.73l-1.5469 3.1406 3.4961 0.22656c11.363 0.75 22.727 1.1172 33.852 1.1172h7.1055l0.074219-2.25c0.12109-4.5078 0.066406-8.9141-0.19531-13.5z"/>
  <path d="m466.38 617.34-1.5391-1.2383-1.4805 1.3125c-5.2969 4.6875-10.312 9.4883-14.953 14.242l-1.8086 1.9961 2.1953 1.5938c1.3984 1.0117 2.8125 2.0352 4.1992 2.9805l1.8203 1.2383 1.3516-1.7422-0.003906-0.003906c4.0078-5.2188 8.7422-9.8359 14.062-13.715l2.7266-1.9688-2.8125-1.875c-1.2461-0.86328-2.5391-1.8477-3.7578-2.8203z"/>
  <path d="m680.48 361.27-0.39453-2.2227-2.2422 0.32031c-9.7422 1.2812-19.562 1.8672-29.391 1.7617h-2.6445l0.32031 2.625c0.57812 4.5586 0.78906 9.1523 0.62891 13.742l-0.10156 2.4375h36.215l-0.25391-2.5703c-0.60156-6.2578-1.2852-11.367-2.1367-16.094z"/>
  <path d="m416.91 786.98 2.7188 0.83594c11.625 3.4688 23.023 7.6602 34.125 12.551l1.875 0.83594 1.0781-1.7539c8.1289-13.258 15.723-24.59 23.211-34.688l1.5859-2.1367-2.3164-1.3125c-11.941-6.7539-24.641-12.059-37.836-15.809l-1.7812-0.49609-0.9375 1.6133c-7.0312 12.637-13.93 25.602-20.41 37.809z"/>
  <path d="m829.35 1002.9-4.1172-0.76953 2.6914 7.1445 0.66406 0.41406c6.9727 3.2578 14.66 4.6953 22.34 4.1719 15.938-0.29297 31.773-2.5312 47.168-6.668l1.332-0.38281 0.30078-1.3594c0.51562-2.3906 1.0312-4.8359 1.4805-7.2188l0.60156-3.1875-3.207 0.42188c-7.2266 0.9375-14.43 2.4453-21.375 3.8828h-0.003907c-15.566 4.3242-31.84 5.5352-47.875 3.5508z"/>
  <path d="m546.42 594.57-6.6367 0.28906 5.3438 3.9453v0.003906c4.2617 3.3398 7.6758 7.6328 9.9727 12.535l1.9492 3.8047 2.1641-3.6836h0.003906c2.6914-4.5195 5.0117-9.25 6.9375-14.145l1.2578-3.2617-7.9297 0.16797c-4.3516 0.082032-8.7109 0.14844-13.062 0.34375z"/>
  <path d="m471.82 272.69 2.0156 0.71094 0.88281-1.9414h-0.003906c0.55469-1.2188 1.4922-2.2266 2.6719-2.8672 2.0078-1.0312 3.9375-2.1289 5.8789-3.2266l1.0234-0.58203 0.14844-1.1641c0.32422-2.5508 0.66797-5.0938 1.0312-7.6328 0.68359-5.0078 1.3789-9.9922 1.875-15l0.24219-2.5781h-2.5977l0.003906 0.003906c-11.117 0.39063-22.184 1.7227-33.074 3.9844-6.8633 1.2383-13.961 2.5039-20.961 3.2539l-2.0898 0.22656v2.1016l-0.003906-0.003907c0 3.5664-0.1875 7.1328-0.5625 10.68l-0.22656 2.1289 2.0898 0.42188h0.003906c14.125 2.8867 28.039 6.7227 41.652 11.484z"/>
  <path d="m541.14 628.71 0.09375 2.3633c0.42969 10.199 0.83594 21.168 0.9375 32.316v2.3359h2.3359c1.3125 0 2.6328 0 3.957-0.074219l1.875-0.085938 0.33594-1.8086v-0.003907c1.4258-9.2734 1.832-18.676 1.207-28.039l-0.19531-7.4141z"/>
  <path d="m600 637.32c-0.98438-0.59375-1.8906-1.3008-2.7109-2.1094l-3.5703-3.3359-0.38281 4.8359c-0.85156 8.9688-0.93359 17.992-0.25391 26.973l0.17969 2.1016h2.6992c1.4453 0 2.8672-0.10156 4.2852-0.20703h-0.003906c1.4805-0.13672 2.9688-0.19531 4.4531-0.17969l2.1758 0.046874 0.20703-2.1758c0.41406-4.4805 0.64844-9.9648 0.64844-15.43 0-3.0859-0.066406-5.9258-0.12109-8.3633l-0.066407-2.2891h-2.2773l-0.003907 0.003906c-0.61719-0.003906-1.2188 0.21875-1.6875 0.62891-1.207 0.26172-2.4727 0.089844-3.5703-0.48047z"/>
  <path d="m537.51 603.48c-0.46094 2.7461-1.1133 5.4531-1.9609 8.1016l-1.0781 3.2266 16.961-0.68359-2.0703-3.3945h-0.003906c-2.0352-3.5508-4.875-6.5703-8.2852-8.8242l-2.9453-1.9023z"/>
  <path d="m590.37 627.74h-3.4961c-3.6562 0-7.3125 0-10.902 0.066406l-2.6328 0.046875 0.35547 2.6172v-0.003906c0.88672 8.4805 1.0898 17.023 0.60938 25.539-0.074219 2.4375-0.14063 4.8945-0.1875 7.332v2.3906h2.3828c3.1133 0 6.168 0 9.2812 0.066406h2.6172l-0.23438-2.5977-0.003906-0.003907c-0.69141-10.762-0.37891-21.562 0.9375-32.266z"/>
  <path d="m571.55 597.01-0.9375 2.3633c-1.4922 3.7227-3.2031 7.3477-5.125 10.867l-1.9492 3.582 4.0703-0.11328c6.6367-0.1875 12.695-0.32031 17.672-0.38281l4.2109-0.046875-2.2695-3.5547h-0.003906c-3.3398-5-7.9648-9.0078-13.387-11.598z"/>
  <path d="m583.12 593.3-6.3359 0.51562 5.1562 3.75c4.3828 3.0898 8.0195 7.125 10.641 11.805l3.8438 6.9766 0.55469-7.9414c0.30859-4.3984 0.46094-8.9609 0.46094-13.969v-2.6719l-2.6523 0.34766c-3.8672 0.48437-7.7227 0.87109-11.668 1.1875z"/>
  <path d="m608.9 623.48c0.65234-0.011719 1.3086-0.058594 1.957-0.14844l1.7344-0.21484 0.28125-1.7266c2.5156-11.336 2.0781-23.129-1.2734-34.246l-0.41406-1.0977-2.1953-0.60156-0.30859-10.266-4.5078 11.07v0.003906c-0.30469 0.8125-0.73828 1.5742-1.2852 2.25l-0.55469 0.65625v0.86328c0 8.2031-0.24219 15.086-0.75781 21.664l-0.12109 1.5938 1.4453 0.70312c2.5234 1.3711 3.9727 4.1328 3.6641 6.9922l-0.16797 2.5039z"/>
  <path d="m913.3 854.26-3.4492 1.5078-0.003907 0.003906c-16.434 7.543-33.691 13.148-51.422 16.707-8.0352 1.4258-16.34 2.1094-24.375 2.8125-10.156 0.59766-20.262 1.9023-30.242 3.8984l-1.875 0.99219v3.1797l1.1172 0.68359c8.2266 4.4844 17.539 6.5977 26.895 6.1055 6.8047 0 13.762-0.65625 20.352-1.2734 4.9219-0.46094 9.5703-0.9375 13.734-1.0234l2.9258-0.066406c17.539-0.39453 37.414-0.84375 45.18-16.172l0.25391-0.9375c0.25391-4.1719 0.50781-8.4375 0.70312-12.637z"/>
  <path d="m865.73 1037.1h0.89062c1.8008-0.015625 3.5977-0.15625 5.3828-0.42188l1.5-0.20703 0.42969-1.4609c1.0391-3.918 1.7891-7.9062 2.25-11.934l0.81641-5.625-3.0938 0.42969c-13.184 2.293-26.68 2.0742-39.777-0.64453l-4.4258-1.1719 1.6328 4.2734c5.6523 14.805 27.746 16.547 34.395 16.762z"/>
  <path d="m883.88 1016.2-1.5 0.30859-0.32812 1.4922c-0.68359 3.1328-1.1523 6.2891-1.6133 9.4688l-1.1523 7.5859 4.0703-2.0625v-0.003907c3.8594-2.0391 7.5781-4.3359 11.137-6.8711l0.75-0.51562 3.0078-12.957-3.75 1.0391c-3.2539 0.84766-6.8438 1.7188-10.621 2.5156z"/>
  <path d="m555.27 665.62h13.941v-2.3047c0.046875-2.5781 0.14062-5.1641 0.23438-7.7617l-0.003907-0.003906c0.5625-8.5586 0.32813-17.152-0.70312-25.668l-0.30859-2.0352-11.934 0.30078 0.16797 7.9688c0.50781 8.9375 0.17578 17.902-0.99219 26.777z"/>
  <path d="m885.25 856.2-0.085937 3.3203 3.1602-1.0391v-0.003907c8.0898-2.6094 16.039-5.6445 23.812-9.0938l1.3516-0.60937v-1.4922 0.003906c0.62891-14.938-0.83984-29.891-4.3594-44.418l-1.0039-3.75-2.8594 2.6445v-0.003907c-13.891 14.613-21.133 34.312-20.016 54.441z"/>
  <path d="m755.45 300.36c-2.1562-1.875-4.4531-3.6172-6.7695-5.3828l-1.2188-0.9375-1.1719-0.5625-1.0977 0.27344h0.003906c-23.809 2.1406-46.559 10.824-65.738 25.09l-1.875 1.293 1.2383 1.875c2.3633 3.6562 4.1992 6.75 5.7734 9.7305l1.4258 2.6914 2.2422-2.0625c16.5-15.242 47.758-17.578 73.125-17.914l3.6836-0.046875-1.6016-3.3203h-0.003906c-1.9062-4.0898-4.6328-7.7383-8.0156-10.727z"/>
  <path d="m839.45 1086.6h6.1719c12.84-0.46094 25.691 0.67188 38.258 3.3672 7.4336 1.9062 14.527 4.9609 21.02 9.0547l7.6016 4.6875-5.1484-9.2812h0.003906c-0.44531-0.70312-0.85156-1.4336-1.2109-2.1836-6.5977-14.32-10.508-29.727-11.539-45.461l-0.27344-3.5234-3.1406 1.6211c-8.4062 4.4805-17.836 6.6797-27.355 6.3828l-2.0156-0.054687-0.36719 1.9766c-2.3203 11.457-8.457 21.785-17.41 29.297z"/>
  <path d="m900.24 781.24-2.2305 2.625c-3.0664 3.6172-6.1016 7.2578-9.1484 10.895-6.375 7.6211-12.957 15.496-19.633 23.008l-2.8125 3.1406 4.1641 0.72266v-0.003906c3.8711 0.45703 7.4023 2.4297 9.8242 5.4844l2.8125 3.75 1.3398-4.5078c3.3125-12.277 10.492-23.16 20.477-31.031l1.3672-1.0586-0.62891-1.6211v-0.003906c-1.1172-2.8711-2.418-5.6719-3.8906-8.3789z"/>
  <path d="m626.18 635.02h-2.7383l-0.58203 0.375c-0.69922 0.47656-1.4766 0.83203-2.2969 1.043-1.9727 0.42969-3.9688 0.74219-5.9805 0.9375l-2.082 0.25391v4.9414-0.003907c0.19141 7.0078 0.011718 14.016-0.53516 21l-0.23438 2.5234 15 0.33594 0.17969-2.1953v0.003906c0.78906-9.0547 0.65625-18.164-0.39453-27.188z"/>
  <path d="m879.86 994.13 2.9062-0.60937c6.7578-1.4258 12.422-2.5117 18.094-3.2344l1.7266-0.21484 0.28906-1.7266v0.003906c4.6562-28.578 7.2695-57.453 7.8281-86.402 0.13281-5.0234 0.38281-10.312 0.76953-15.816l0.33594-4.8828-4.0117 2.8125c-8.3516 5.0742-17.898 7.8438-27.668 8.0234l-2.3828 0.17969 0.22656 2.3828c2.6367 32.113 3.293 64.363 1.9688 96.562z"/>
  <path d="m522.02 670.82h-2.1562l-1.7266 24.375h2.5312c12.965-0.11328 26.09-0.83594 38.785-1.5273v-0.003907c28.531-2.625 57.266-2.0156 85.66 1.8203l3.1133 0.54297-0.38281-3.1406c-0.49609-4.0391-0.9375-8.1094-1.3789-12.188l-0.73047-6.6484v-2.1367l-2.2578-0.074218c-35.281-1.2188-73.832-1.5273-121.46-1.0195z"/>
  <path d="m346.88 1115.7 2.0547 1.6016c2.9492 2.2812 6.1289 4.2539 9.4844 5.8789l1.668 0.82422 1.1797-1.4531h0.003906c4.543-5.832 10.188-10.715 16.613-14.371l1.9609-1.0703-0.9375-2.0078c-1.5273-3.1875-3.1328-6.3281-4.6875-9.4609l-1.875-3.6016-2.2773 2.1367c-1.3398 1.2656-2.6992 2.4922-4.0781 3.75l-2.3516 2.1289c-1.293 1.1914-2.7383 2.4648-4.2578 3.8047-3.3672 2.9727-7.1797 6.3477-10.68 9.9648z"/>
  <path d="m421.17 1026.6-0.53516-5.4453c-1.4141-14.43-2.8672-29.336-3.0938-44.062v-2.25l-2.2578-0.054688v-0.003906c-18.73-0.34375-36.902-6.4258-52.07-17.418l-6.7695-5.1094 3.1875 7.8555c3.957 9.75 8.5586 19.566 13.012 29.062 5.7852 12.328 11.766 25.07 16.285 37.648l0.42187 1.1523 1.1914 0.32031c7.9258 2.0039 16.078 2.9844 24.254 2.918 1.5664 0 3.1484 0 4.7422-0.09375l3.8047-0.14844-1.875-3.3281 0.003906-0.003907c-0.17578-0.32031-0.27734-0.67578-0.30078-1.0391z"/>
  <path d="m364.6 1125.9 3.75 1.0117v0.003907c6.0312 1.5703 12.238 2.3398 18.469 2.2969 12.258-0.25391 24.41-2.3281 36.059-6.1602l3.6641-1.125-2.6719-2.7461c-2.4961-2.5156-5.2852-4.7188-8.3047-6.5625-9.1836-4.707-19.871-5.5273-29.664-2.2695-7.125 2.7266-13.512 7.0938-18.645 12.738z"/>
  <path d="m458.28 1028.7-3.75 1.1523c-19.207 6.2656-39.648 7.7773-59.566 4.4062l-3.8242-0.74219 1.1445 3.75c0.75 2.4375 1.3672 4.9414 1.9297 7.4336l0.375 1.6797 1.7148 0.14063c5.8789 0.48828 11.41 0.73047 16.641 0.73047v0.003906c14.484 0.43359 28.895-2.2109 42.281-7.7656l1.1328-0.50781z"/>
  <path d="m399.89 1051.6-5.3984-0.36719 3.4219 4.1914c4.5273 4.3555 10.754 6.4648 16.996 5.7656 12.141-0.67578 24.164-2.7539 35.832-6.1953l1.7148-0.44141 1.5859-0.89062 0.23438-1.5391c0.16016-1.0977 0.32812-2.2305 0.54297-3.3672l0.76953-4.0117-3.8516 1.3672-0.003906 0.003906c-16.723 5.3633-34.371 7.2305-51.844 5.4844z"/>
  <path d="m385.2 255.3 0.65625 0.74219h0.9375c8.1836 0.375 16.453 1.0859 24.555 2.1016l2.4766 0.30859 0.14844-2.4922c0.19531-3.1797 0.32812-6.2891 0.32812-9.4766v-2.2695l-2.2695-0.074219v-0.007813c-11.68-0.14062-23.145-3.1406-33.395-8.7461l-3.5352-2.0898v4.1055c0 1.4062-0.066406 2.7461-0.16797 4.0391v0.003906c-0.097656 0.77344-0.27344 1.5312-0.53516 2.2656l-0.58984 1.6484 1.4258 1.0391v0.003906c3.6406 2.5898 6.9805 5.5742 9.9648 8.8984z"/>
  <path d="m358.3 929.69c2.7383 3.1211 5.6758 6.0664 8.793 8.8125 10.684 8.4141 24.023 12.738 37.613 12.188 3.1992-0.003906 6.3984-0.17578 9.5781-0.51562l2.1016-0.22656v-25.379l-0.52344-1.9688-1.7891-0.44141c-24.883-6.0742-53.082-12.957-65.898-33.898l-4.4531-7.2734 0.10156 8.5312c0.03125 5.1797 0.94922 10.316 2.7188 15.188 0.21875 0.60547 0.36719 1.2344 0.44922 1.875 0.11328 0.62891 0.23438 1.3789 0.28125 1.9414 0.046875 3.4453 0.28906 6.8906 0.72266 10.312l0.11328 0.9375 0.75781 0.60156v-0.003906c3.3867 2.8516 6.543 5.9688 9.4336 9.3203z"/>
  <path d="m411.05 325.01 1.7539 0.69531c10.66 4.2188 20.184 7.5 29.062 10.164l3.0391 0.9375-0.003906-0.003906c14.113 4.7969 28.754 7.8516 43.605 9.1055h1.1445c6.0977 0.30469 11.961-2.3906 15.703-7.2188 5.5703-10.074 6.3359-22.117 2.0781-32.812l-0.24219-0.91016-0.81641-0.44141c-5.1602-2.8828-10.48-5.4648-15.938-7.7344-1.5547-0.8125-3.1641-1.5195-4.8164-2.1094h3.75l-11.504-4.5195c-14.664-5.7656-29.766-10.355-45.16-13.723l-1.2461-0.27344-0.9375 0.9375c-0.21875 0.20312-0.39062 0.44922-0.50781 0.72266-9.9023 13.324-16.305 28.926-18.617 45.367z"/>
  <path d="m362.81 303.86 5.6914 2.6055c11.445 5.2422 23.277 10.66 35.164 15.582l2.6797 1.1172 0.52344-2.8125 0.003906-0.003907c2.543-15.137 8.3672-29.535 17.062-42.188l2.1094-3-3.6094-0.65625c-13.328-2.4258-26.824-3.8242-40.367-4.1875-1.1914 0.011719-2.3633-0.28125-3.4062-0.85547l-2.5781-1.4141-1.875 6.7227c-2.1641 9.3477-5.543 18.379-10.039 26.859z"/>
  <path d="m505.37 830.04 1.3789-1.707c1.0703-1.3203 2.1484-2.5859 3.2148-3.8516l0.78906-0.9375-0.30078-1.1719c-2.2031-8.5117-3.9531-17.133-5.25-25.828l-0.81641-5.5117-3.375 4.4336c-4.6875 6.1797-9.3008 12.75-14.062 20.082l-1.3398 2.0703 2.1367 1.2383c6.2891 3.6172 11.316 6.7773 15.805 9.918z"/>
  <path d="m520.13 596.91-1.9414 0.32031v1.9688c-0.054687 4.6875-0.12109 9.4766 0.19531 14.25l0.16797 2.3164 10.125-0.58984 0.62891-1.1445 0.003906-0.003906c2.3555-4.9727 3.7656-10.344 4.1641-15.832l0.39453-2.8984-2.9258 0.25391c-3.6289 0.32031-7.1562 0.75781-10.812 1.3594z"/>
  <path d="m559.31 698.44c-12.883 0.75781-26.195 1.5391-39.262 1.6406h-2.1836l-0.14063 2.1758c-0.50781 8.2031-0.9375 16.352-1.2188 24.555l-0.074218 2.4375 16.68-0.16797c38.055-0.36719 77.398-0.75 116.08-2.3438l2.5234-0.10156-3.0273-26.184h-2.7383l-0.007813-0.003907c-28.688-4.2148-57.781-4.8867-86.633-2.0078z"/>
  <path d="m664.13 619.03-2.6641-3.0664h0.003906c-8.3711-9.7695-18.633-17.742-30.168-23.438l-3.8711-1.875 0.54297 4.2578c0.89063 7.793 0.80859 15.664-0.24609 23.438l0.49609 1.9492 1.4727 0.74219 0.77734 0.22656v-0.003906c3.1133 0.37109 6.2422 0.55078 9.375 0.54297 6.8203-0.046876 13.617-0.75 20.297-2.0977z"/>
  <path d="m524.06 629.8-2.0898 0.16016-0.066406 2.1016c-0.33594 10.949-0.9375 22.004-1.5273 31.367l-0.16016 2.5312 17.062-0.20703v-2.3242c-0.066406-10.93-0.46875-21.852-0.89062-32.035l-0.14062-2.3359-2.3828 0.14062c-3.2422 0.14062-6.5508 0.33594-9.8047 0.60156z"/>
  <path d="m438.52 896.73c-27.336-19.273-53.156-37.5-89.617-26.879l-2.1289 0.62891 0.49609 2.1562c7.0312 30.32 39.477 38.035 65.551 44.223l7.1055 1.6953h0.32031l0.003906 0.003907c1.3711-0.14063 2.7344 0.3125 3.75 1.2461l1.2266 1.3047 1.5859-0.85156v-0.003906c9.7578-3.6484 20.375-4.3359 30.523-1.9766 2.4102 0.28906 4.8008 0.5625 7.1328 0.78906l10.855 1.0039-9.4883-5.3828c-9.4727-5.3633-18.539-11.758-27.316-17.957z"/>
  <path d="m669.23 617.7 1.4531-0.35547c3.4219-0.83594 6.8516-1.8086 10.312-2.8125l2.2227-0.66406-0.64844-2.2305v-0.003907c-4.4453-10.984-11.23-20.871-19.887-28.969l-1.6328-1.7734-1.1523 0.11328c-8.3164 0.75781-16.445 1.875-24.852 3.2812l-7.1055 1.2188 6.4688 3.1953v0.003906c13.172 6.75 24.734 16.25 33.91 27.863z"/>
  <path d="m513.75 616.26-0.14062-2.3516c-0.25391-4.2266-0.32031-8.4375-0.32031-12.758v-3.1016l-8.5859 2.3438-0.17969 1.5859v-0.007812c-0.44531 4.3555-0.10156 8.7539 1.0234 12.984l0.50781 1.9688 2.0234-0.22656c1.1055-0.12109 2.2109-0.24219 3.3203-0.30859z"/>
  <path d="m631.88 666.63 2.457 0.066406c2.5977 0.054688 5.2695 0.12109 7.9219 0.24219l2.7383 0.13281-0.28906-2.7188c-0.9375-8.8125-1.7891-17.559-2.6172-26.363l-0.21484-2.2422-2.2422 0.12109c-1.2461 0.054687-2.5859-0.054688-3.75 0.054687h-0.55469l-1.0859 0.5625v0.003906c-0.28125 0.16797-0.57422 0.30469-0.88281 0.41016l-1.9297 0.50781 0.20703 1.9883c0.77344 8.2422 0.85547 16.531 0.24219 24.785z"/>
  <path d="m724.43 764.36 1.3047 1.875 1.875-1.2266c8.793-5.6797 17.23-12.039 25.398-18.188 5.9609-4.5 12.133-9.1484 18.375-13.48l-0.003907-0.003906c10.008-6.6367 20.43-12.629 31.203-17.934 5.1289-2.6719 10.266-5.3359 15.328-8.1484l2.6328-1.4727-2.082-2.1953c-4.5273-4.7734-8.9922-10.004-13.648-15.992l-1.1328-1.4531-1.6875 0.75781-0.003906 0.003906c-19.434 8.7539-37.508 20.258-53.66 34.164-10.227 9.4141-21.559 17.551-33.75 24.223l-2.3633 1.1992 1.4727 2.1953c3.5703 5.2305 7.0977 10.48 10.742 15.676z"/>
  <path d="m366.04 366.07h0.38281l2.2031-0.68359 2.8789-0.9375h0.10156c5.043-1.7422 11.445-4.1172 21.422-7.9492l5.0352-1.9414-4.8477-2.3516c-1.1641-0.57031-2.3359-1.1172-3.5078-1.6602s-2.1953-1.0117-3.2734-1.5469l-0.64844-0.19531c-2.4297-0.39453-4.8555-0.72266-7.3867-0.9375-7.8086-0.71094-15.535-0.75-23.008-0.78906-3.3945 0-6.7305 0-10.012-0.11328h0.003906c-9.2188 0.03125-18.41-1.0078-27.391-3.0938-2.7188-0.59766-5.375-1.4297-7.9414-2.4961l-2.6797-1.0781c-1.875-0.9375-3.4961-1.707-4.8281-2.4453 0.60156 0.16016 1.2266 0.30859 1.875 0.46875 1.2109 0.28906 2.5117 0.60938 4.1992 1.0859 0.9375 0.16016 1.9961 0.35547 3.0547 0.5625 2.2852 0.49609 4.5977 0.84766 6.9297 1.0508 8.9023 0.91016 17.863 1.1289 26.801 0.65625l6.3359-0.1875c2.9062-0.09375 5.9141-0.1875 8.9922-0.26172l9.2891-0.22656-8.2891-4.2109c-17.211-8.7266-33.945-17.812-49.754-26.961l-0.9375-0.40234h0.003907c-0.86719-0.15625-1.6719-0.55078-2.3242-1.1445l-0.82422-0.76953-1.1172 0.16797v0.003907c-0.85938 0.13672-1.7383 0.03125-2.5391-0.30078-7.7344-2.5586-15.926-3.4414-24.027-2.5977h-1.0117l-0.66406 0.76953c-10.434 11.832-26.445 35.625-20.305 49.688 2.9336 6.7578 10.312 10.312 21.883 10.66 9.4297 0.1875 18.891-0.50781 28.023-1.2109 6.2422-0.48828 12.703-0.9375 19.078-1.1641 4.1914-0.11328 10.48 0.40234 17.738 1.0117 6.4961 0.66797 13.855 1.2852 21.086 1.5312z"/>
  <path d="m357.19 1127.9-2.3047-1.1719c-3.2305-1.6406-6.3008-3.5742-9.1719-5.7852l-1.875-1.4727-1.4062 1.9688c-2.3867 3.2305-4.1211 6.8906-5.1094 10.781l-0.40234 1.6875 1.4922 0.88281c3.0664 1.8438 6.2578 3.4727 9.5508 4.875l2.0234 0.85156 0.98438-1.9688h0.003906c1.4609-2.8984 3.082-5.7148 4.8555-8.4375z"/>
  <path d="m257.34 226.12c1.3281 0.76562 2.7188 1.4141 4.1641 1.9297l2.3164 0.70312h-0.003907c3.9297 1.1211 7.7852 2.4766 11.551 4.0508l0.9375-2.1367-0.65625 2.2891c1.1328 0.52344 2.2578 1.0586 3.4883 1.5742 12.844 4.5469 24.871 11.133 35.625 19.5l2.0352 1.6406 1.4141-2.2031c1.1172-1.7422 2.2969-3.4297 3.5547-5.1094l1.4453-1.9609-2.0078-1.3672c-2.1289-1.4609-4.2188-2.9609-6.3008-4.4727-7.293-5.8828-15.492-10.539-24.281-13.789-9.9023-3.6094-20.227-5.918-30.723-6.875l-1.0391-0.085938v0.003906c-2.1172-0.30859-4.2734-0.19922-6.3477 0.31641l1.3398 4.4805v0.003907c1.2266 0.33594 2.4023 0.84375 3.4883 1.5078z"/>
  <path d="m308.12 268.95 2.1953 0.87109 2.4922-6.8242-1.875-0.9375c-10.766-7.4258-22.211-13.805-34.188-19.059-2.7188-1.0391-5.4375-1.9492-8.0703-2.8125-0.21484-0.066406-21.273-5.3438-23.832 0.28906-1.4922 3.2734 2.8125 5.9727 4.9141 7.2656h-0.003906c11.457 6.4375 23.766 11.227 36.562 14.223 7.2383 2.0625 14.727 4.1836 21.805 6.9844z"/>
  <path d="m262.76 277.76c-0.44141 1.1641-0.09375 2.4805 0.86328 3.2734 2 1.7734 4.2461 3.25 6.6641 4.3867l0.99219 0.25391h0.003906c10.012 0.10156 19.926 1.9922 29.277 5.5781 0.9375 0.1875 1.9492 0.42969 2.9258 0.67578l2.7383 0.68359 0.17969-2.8125h-0.003906c0.18359-3.0625 0.55859-6.1094 1.1172-9.1211l0.32812-1.875-1.7266-0.73047v-0.003907c-7.7148-2.9609-15.895-4.5469-24.16-4.6875-0.12109 0.039063-17.512 0.125-19.199 4.3789z"/>
  <path d="m440.36 1119.6-3.2148 2.1172-0.27344 0.66406v0.003907c-0.19922 0.46094-0.49609 0.86719-0.87109 1.1992l-1.125 1.0039 0.87109 2.6797v0.003907c0.21484 0.56641 0.39844 1.1445 0.55469 1.7344l0.66406 2.8125 2.6328-1.2656c8.2422-3.9609 16.18-8.5234 23.75-13.652l0.98438-0.66406 0.375-9.8906-3.3477 1.3203c-7.3984 3.2383-14.434 7.2383-21 11.934z"/>
  <path d="m429.98 1127.9-0.9375-1.7422-1.875 0.60938c-20.336 7.9141-42.656 9.168-63.75 3.582l-1.6875-0.55469-0.99219 1.4609v0.003907c-1.7812 2.6484-3.4219 5.3867-4.9219 8.2031l-1.3984 2.6172 2.8672 0.75v-0.003906c7.2852 1.8984 14.781 2.8438 22.305 2.8125 17.461-0.40625 34.688-4.1367 50.758-10.988l2.1953-0.89062-0.9375-2.1836c-0.48047-1.3203-1.0156-2.5312-1.625-3.6758z"/>
  <path d="m456.23 1068.4-2.6992 0.61719c-5.2109 1.1797-11.109 2.5234-17.129 3.582l-4.8086 0.83594 3.6562 3.2266-0.003906-0.003907c7.0781 5.0352 11.742 12.777 12.883 21.387-0.070312 2.3242-0.44531 4.6328-1.1172 6.8633l-1.6406 5.5391 5.0352-2.8125c4.0898-2.3555 8.3906-4.332 12.844-5.8984l1.5859-0.54297v-1.6797 0.003907c0.87109-10.582-1.8398-21.148-7.6992-30z"/>
  <path d="m442.59 1094.6c-3.5156-7.8555-9.2148-14.539-16.418-19.254l-1.0859-1.1523-1.0977 0.11328v-0.003906c-9.5508 1.4766-19.324 0.33984-28.285-3.2891l-1.6328-0.78906-1.1719 1.3789h0.003907c-4.832 5.6133-10.012 10.91-15.516 15.863l-1.3125 1.1914 6.3281 12.656 1.6406-0.20703c12.852-1.5898 25.844 1.543 36.562 8.8125 3.5234 1.8633 6.6953 4.3281 9.375 7.2852l1.6875 1.875 1.7617-1.875c5.8203-6.0469 12.094-14.121 9.1602-22.605z"/>
  <path d="m412.34 195.77 0.11328 0.65625c0.94922 3.2148 2.3828 6.2656 4.2578 9.0469 1.1406 2.2109 3.3398 3.6797 5.8203 3.8906 0.45703-0.003906 0.91016-0.066406 1.3516-0.1875 5.5391-1.5273 7.9961-12.273 8.2227-15.816 0.19531-3.168 0.13281-6.2891 0.074219-9.5156l-0.19531-0.89062h-0.003906c-2-5.1641-5.0391-9.8633-8.9258-13.809-3.8047-2.5938-8.5-3.5352-13.012-2.6055l-2.4922 0.25391 1.0586 6.1484c2.2227 7.418 3.4766 15.09 3.7305 22.828z"/>
  <path d="m419.24 213.75c-2.1484-0.60938-4.0938-1.7891-5.625-3.4141l-2.3164-2.3164-1.4453 2.9336v0.003906c-1.6562 4.1641-5.8477 6.75-10.312 6.3633-1.5508-0.027343-3.0781-0.38281-4.4805-1.0469l-2.5234-1.2188-1.0703 3.9297 0.003906-0.003906c-0.15625 0.73438-0.36719 1.4531-0.62891 2.1562l-1.8086 3.0938 2.4297 1.0312h-0.003906c7.375 3.082 15.305 4.6133 23.297 4.5l1.5273 0.10156 0.61719-0.46094 0.003906 0.003906c0.6875-0.50781 1.4727-0.87109 2.3047-1.0586l0.9375-0.48828c0.53516-0.44141 1.125-0.81641 1.7539-1.1055 6.3828-2.0234 12.094-5.7383 16.527-10.754l1.0234-1.5-1.1992-1.3672c-0.24219-0.26953-0.41406-0.58984-0.50781-0.9375l-2.1016-8.6797-2.9062 5.082 0.003907-0.003906c-2.4961 4.9453-8.3438 7.1758-13.5 5.1562z"/>
  <path d="m455.48 196.88c1.2578 3.0742 2.5117 6.1328 3.582 9.207l0.46094 1.3398 1.3984 0.21484h-0.003907c1.1211 0.1875 2.2539 0.28906 3.3906 0.30859 0.49609 0.011719 0.98828-0.035156 1.4727-0.14062 0.24219 0 0.53516-0.10156 1.125-0.23438l2.6445-0.375-0.71094-2.5703c-0.66406-2.3906-1.293-4.8008-1.9297-7.1914-1.2656-4.8086-2.5312-9.6094-4.1914-14.852l-0.003906 0.003907c-1.4219-5.1602-3.3672-10.164-5.8008-14.934-0.32422-0.59766-0.69531-1.1719-1.1172-1.707l-2.5859-3.4219-1.4805 4.0234c-0.40625 1.1367-0.87109 2.25-1.3984 3.3359l-1.7344 3.1133 0.054688 0.68359c1.0703 8.0391 3.3711 15.863 6.8281 23.195z"/>
  <path d="m424.6 974.51-2.1953 0.16797v2.2031c0.24219 16.086 1.875 32.23 3.4297 47.859l0.22656 2.25 2.1172 0.26172v0.046875l-2.2422 0.28906-0.50781 3.0742 3.0859-0.35547 0.007813 0.003906c10.012-1.1523 19.867-3.3984 29.391-6.6953l1.293-0.44922 1.1445-6.2812c3.4492-18.75 7.0117-38.176 9.7891-57.336l0.9375-6.6562-4.8828 4.6211h-0.003906c-11.508 10.262-26.188 16.258-41.59 16.996z"/>
  <path d="m371.46 191.25c-0.36719 2.4805-0.46094 4.9961-0.28125 7.5l0.13281 0.64844c2.2031 6.7852 6.75 12.566 12.824 16.312l2.9062 1.7422 0.60938-3.3359c0.26172-1.4727 0.46875-3.0078 0.60938-4.4805l0.046875-0.61719-0.24219-0.55469v-0.003906c-3.1562-9.1445-4.582-18.793-4.2109-28.461v-4.4062l-3.6367 2.4922c-3.2812 2.1758-6.168 4.8867-8.5508 8.0156l-0.70312 0.9375 0.34766 1.125c0.26172 1.0078 0.3125 2.0586 0.14844 3.0859z"/>
  <path d="m352.85 249.38c-2.2578-1.1523-4.5078-2.3047-6.6758-3.5234l-1.3984-0.77734-1.2266 1.0117c-15.133 12.457-23.605 31.25-22.922 50.84l0.09375 1.2383 1.0703 0.61719c6.7891 3.9102 13.648 7.7539 20.504 11.465l0.57031 0.30859h0.64844-0.003907c5.3281-0.32031 10.25-2.957 13.473-7.207l-1.7539-1.5547 2.2422 0.9375v-0.003907c1.2812-1.625 2.3867-3.3828 3.3008-5.2383 3.6953-7.8516 6.6367-16.035 8.7852-24.441 0.71094-2.4648 1.4141-4.9219 2.1562-7.3125 0.12891-0.33594 0.30469-0.65234 0.52344-0.9375l1.1328-1.6133-1.3984-1.3984 0.003906 0.003906c-5.6992-5.0977-12.148-9.2852-19.125-12.414z"/>
  <path d="m347.58 226.14 0.99219 1.4062 1.6406-0.53516c3.8281-1.2461 7.5859-2.7031 11.25-4.3672l2.3633-1.0508-1.2852-2.25c-2.3711-4.1914-4.0039-8.7578-4.8359-13.5l-0.51562-2.5039-2.457 0.64844c-5.8516 1.5469-12.262 3.0273-19.613 4.5078l-5.1562 1.0391 4.2266 3.1406h0.003906c5.1641 3.7344 9.6836 8.2812 13.387 13.465z"/>
  <path d="m285.38 216.05 1.9297 0.61719v0.003906c11.324 4.0547 22.027 9.6719 31.801 16.688 2.7461 1.7891 5.5391 3.6094 8.4375 5.4297l1.5273 0.9375 1.3203-1.2383c1.0586-1.0039 2.2031-2.0156 3.3359-3.0195l1.6602-1.4805-1.3867-1.7344h0.003906c-7.4297-9.2344-17.906-15.512-29.551-17.711-0.89062-0.17969-2.1758-0.49609-3.75-0.89062-3.3203-0.81641-7.8672-1.9492-12.402-2.6992l-3.168-0.14844 0.54297 3.2344z"/>
  <path d="m393.3 207.39v0.83594l0.50781 0.66406h-0.003906c1.2695 1.7734 3.1758 2.9844 5.3164 3.3828 0.34375 0.058594 0.69141 0.085937 1.043 0.085937 1.3828 0.007813 2.7227-0.50391 3.75-1.4336 2.4922-2.2227 3.5078-6.7891 3.1328-14.793l-0.003906-0.003907c-1.2266-5.75-2.1211-11.562-2.6797-17.418l-0.46094-3.75c-0.46094-1.8008-0.87109-3.2891-1.1992-4.2383v-2.9141l-3 0.88281c-3.2461 0.91797-6.4141 2.1016-9.4688 3.5312l-1.5938 0.79688 1.0781 5.4297c2.3008 9.4766 3.5039 19.188 3.582 28.941z"/>
  <path d="m472.43 933.07 0.99219-0.88281 0.72266-7.8008-2.8125 0.28125c-6.043 0.46875-12.113 0.52734-18.168 0.17188-5.8945-0.32813-11.805-0.30078-17.699 0.082031-4.4062 0.09375-8.4453 2.4883-10.641 6.3086l-0.30078 0.53516v12.301l-2.3633 0.09375 0.12109 5.3359 3.5156-0.82422 1.4453-0.23438v-0.003906c15.945-2.0195 31.316-7.2461 45.188-15.363z"/>
  <path d="m826.79 871.82c10.148-0.33594 20.238-1.6914 30.113-4.043 7.1719-1.9766 14.398-4.0312 21.562-6.1406l2.5391-0.75-1.0391-2.4297v0.003907c-0.10938-0.22266-0.19922-0.45703-0.26953-0.69531-0.26172-2.8125-0.25391-5.625-0.25391-8.6914 0.21094-4.9258-0.16797-9.8633-1.1367-14.699-2.3242-9.2734-11.531-8.5781-15.938-8.2227l-0.9375 0.074218-0.62891 0.65625h0.003907c-11.762 12.988-25.242 24.301-40.07 33.629-0.83984 0.52344-1.7773 0.86328-2.7578 1.0039l-0.87109 0.32812c-2.0586 1.3242-4.7227 1.2344-6.6836-0.23438-3.4961-2.2891-6.9375-4.5859-10.367-6.9375l-2.5117-1.7148-1.0234 2.8672c-1.3516 2.6445-1.9453 5.6094-1.7148 8.5664 0.23047 2.9609 1.2773 5.7969 3.0273 8.1953l0.61719 0.44141c0.62109 0.29688 1.207 0.65234 1.7539 1.0703l0.86328 0.69531 1.0781-0.22656c8.1406-1.4922 16.375-2.4102 24.645-2.7461z"/>
  <path d="m823.27 996.41 1.1172 0.32031v-0.003906c6.293 1.8047 12.816 2.6953 19.367 2.6445 9.8945-0.25 19.738-1.5273 29.371-3.8047l1.8086-0.38281 0.054687-1.875 0.003906-0.003906c1.3984-32.867 0.77344-65.793-1.875-98.586l-0.21484-2.25-2.2578 0.13281c-4.1055 0.25391-8.4922 0.65625-13.031 1.0781l-0.003906-0.003906c-10.926 1.3164-21.938 1.7461-32.934 1.2852l-7.3672-0.51562 6.4609 5.2695c4.6875 3.7969 8.6523 7.0703 12.289 9.6562 2.9727 2.1172 5.625 3.75 7.8086 5.082-3.0625-0.8125-6.0391-1.918-8.8867-3.3086-5.3164-2.625-10.418-5.6562-15.266-9.0664-2.6172-1.7344-5.3359-3.5352-8.1484-5.2891l-6.6172-4.1172 3.2422 7.0781c0.27344 0.58984 0.48828 1.1797 0.78906 1.9961v0.003906c6.207 16.656 13.652 32.828 22.266 48.375 2.4375 4.293 5.2383 8.3711 8.375 12.188-4.1328-2.8906-7.7773-6.4219-10.793-10.465-9.2422-12.445-16.805-26.051-22.5-40.469l-4.9219-11.57 0.42188 12.562c0.28125 15.559 2.5703 31.012 6.8086 45.984 2.7461 9.0391 6.3672 17.812 9.8633 26.305 1.4609 3.5547 2.9258 7.1055 4.332 10.68z"/>
  <path d="m814.77 847.1 1.2852-0.80469-0.003906-0.003907c4.0234-2.5312 7.9102-5.2695 11.645-8.2031l2.5312-1.9883-8.9336-5.9531c-7.3047-4.8281-14.859-9.8359-21.891-15.133l-1.7812-1.3398-1.4258 1.7148c-2.6055 3.1211-5.043 6.3281-7.5 9.8047l-1.2383 1.7812 1.6797 1.3672v0.007812c7.8164 6.3789 15.949 12.355 24.375 17.906z"/>
  <path d="m793.88 810.64-1.7539-1.5195c-6.25-5.3477-11.809-11.453-16.547-18.176l-1.3203-1.875-1.875 1.2734c-3.6914 2.4961-7.5742 4.6914-11.617 6.5625l-2.9258 1.3203 2.1562 2.3828c6.8789 7.5859 14.172 14.785 21.844 21.562l1.9609 1.7344 1.5078-2.1367c1.875-2.625 4.3398-6.0664 7.0977-9.2891z"/>
  <path d="m837.56 1047.1 0.32031-1.7617-1.6211-0.76953h-0.003907c-3.5-1.6289-6.7578-3.7266-9.6914-6.2344l-2.2305-1.9492-1.3789 2.6328c-3.1445 6.0352-4.6445 12.789-4.3594 19.586l0.27344 1.0039c2.1758 4.0859 4.4062 8.2969 6.6367 12.582l2.2227 4.2383 1.9883-4.3516-0.003906-0.003906c3.6523-7.9609 6.2891-16.352 7.8477-24.973z"/>
  <path d="m872.71 1106.2c6.3008 0.32031 12.527 1.5078 18.504 3.5234 0.9375 0.33594 2.2695 0.98437 3.9453 1.7812h0.003906c7.0352 3.7617 14.633 6.3594 22.5 7.6992l7.6406 0.54297-8.0898-6.3555h-0.003906c-9.8125-9.1641-21.812-15.648-34.855-18.836-12.656-2.1367-25.48-3.1523-38.316-3.0352h-7.707l6.5625 4.3672h0.003907c8.4102 6.8438 18.969 10.496 29.812 10.312z"/>
  <path d="m946.55 1135.2c-3.9805-5.2734-8.6133-10.027-13.789-14.137l-1.5664-1.3398-1.5273 1.3867c-6.1953 5.625-19.117 2.0234-28.855-1.9609v0.003907c-10.789-4.4023-22.102-7.3984-33.656-8.918-6.2773-0.66016-12.434-2.1914-18.293-4.5469l-6.918-3.1133 3.957 6.4766c3.0859 5.043 6.2617 9.8242 9.4414 14.211 9.5078 13.125 28.969 20.551 54.113 20.551h2.9609l1.5078-0.32812c0.84375-0.16797 1.6875-0.34766 2.457-0.5625v0.003906c6.4258-1.7773 13.105-2.4492 19.754-1.9961h0.36719l0.35547-0.085937c2.9336-0.64844 5.6719-1.4258 8.3359-2.2109l2.8867-0.84375z"/>
  <path d="m741.02 800.62-0.52344-0.65625-0.81641-0.16797c-2.6992-0.5625-5.3047-1.5117-7.7344-2.8125-1.1445-0.58594-2.1016-1.4844-2.7578-2.5898-11.422-14.406-22.043-29.43-31.82-45-9-13.762-18.289-27.984-28.668-41.109l-5.1289-6.4883 0.9375 8.2109c0.9375 7.5938 1.7266 15.242 2.4922 22.836l0.13281 1.2852 1.1523 0.58203 0.003906 0.003906c2.4922 1.3086 4.8398 2.8789 7 4.6875 3.1484 2.6953 6.0703 5.6367 8.7383 8.8047 4.332 5.1133 8.2148 10.598 11.598 16.387 1.6211 2.7266 2.8789 5.1289 3.8438 7.1523l-0.14844-0.1875c-1.4336-1.7812-3.0859-3.8438-4.9883-6.1406-4.1094-5.0625-8.4648-9.9141-13.059-14.539-2.7578-2.7734-5.6953-5.3594-8.7969-7.7461l-4.5938-2.3828 1.6406 17.25 0.51562 2.4766c0.51563 2.5234 1.0508 5.0625 1.6797 7.6406 2.5156 11.895 7.1875 23.227 13.781 33.441 5.8125 8.043 13.855 14.207 23.129 17.738 5.8945 1.9961 11.941 3.5078 18.082 4.5195-2.4492 0.12109-4.9102 0.097657-7.3594-0.078124-3.1992-0.066407-6.3789-0.49219-9.4844-1.2656l-2.2305-0.44141-0.003907 0.003906c-10.367-2.8125-19.566-8.8672-26.25-17.281-2.4688-3.1797-4.6055-6.6016-6.3828-10.219l-3.8906-7.6484-0.53516 8.5703c-0.5 8.9805-2.0352 17.879-4.5742 26.512l-0.42969 1.4531 1.1523 0.99219c19.785 18.125 45.492 28.426 72.316 28.98 14.352-0.085938 28.531-3.125 41.656-8.9258l3.5547-1.5391-3.0078-2.4375h-0.003907c-14.75-11.863-28.23-25.223-40.219-39.871z"/>
  <path d="m856.54 1052.9 0.48828-2.4375-3.4023-0.46875c-0.51562-0.066406-1.0391-0.12109-1.5547-0.23437-2.3711-0.55469-4.7422-1.1172-6.9844-1.8008l-2.4844-0.76953-0.49609 2.5508-0.003907 0.003906c-2.207 10.727-5.9414 21.082-11.094 30.75l-1.7891 3.4297h2.8984l0.82422 0.82422 1.6133-1.125c11.043-6.9922 18.926-18.012 21.984-30.723z"/>
  <path d="m514.98 583.12 1.2383-0.19531c12.738-1.7305 25.582-2.5859 38.438-2.5625 12.223-0.015626 24.43-0.76172 36.562-2.2305l1.0508-0.14062 0.58203-0.9375c1.3398-2.2734 3.2891-4.1328 5.625-5.3711 4.3359-2.0898 9.3555-2.2422 13.809-0.42188 0.94141 0.35547 1.8242 0.85547 2.6055 1.4922l1.1445 0.9375 1.3125-0.58984v-0.003907c0.5625-0.28516 1.1602-0.48828 1.7812-0.59766 20.801-4.4297 41.988-6.793 63.254-7.0508h3.75l-1.6328-3.3555c-1.25-2.5664-2.2695-5.2422-3.0469-7.9883l-0.62891-2.2227-2.2422 0.60156h0.003906c-38.543 10.762-78.703 14.523-118.57 11.109-29.41-2.3516-57.684-5.7461-80.352-21.195l-3.75-2.5859 0.12109 4.5859c0.066406 2.2891 0.13281 4.6328 0.13281 7.0234l-0.003906-0.007812c0.082031 1.6875-0.48828 3.3359-1.5938 4.6133l-1.5547 1.7734 1.7891 1.5391v-0.003906c9.3125 7.3398 19.562 13.402 30.477 18.027 2.3047 1.0977 4.6016 2.1953 6.8359 3.3008 0.76953 0.39453 1.4648 0.92188 2.0547 1.5586z"/>
  <path d="m508.12 838.12-1.875-1.5859-1.5 1.9414c-7.8203 10.051-15.289 20.578-22.555 30.816l-1.0977 1.5469 1.2734 1.3984c3.5547 3.7891 6.793 7.8633 9.6758 12.188l1.9609 2.9805 1.9609-2.9805h-0.003906c7.6133-11.375 14.594-23.164 20.906-35.309l0.71094-1.4062-1.0312-1.1914h0.003907c-2.5898-3.0117-5.4102-5.8203-8.4297-8.3984z"/>
  <path d="m415 955.02c-13.379 1.875-27.016 0.16406-39.516-4.9609-6.332-3.832-12.023-8.625-16.875-14.211-1.2461-1.2852-2.5039-2.5859-3.75-3.8633l-5.8594-5.8594 1.875 8.0625c0.32812 1.3672 0.72266 2.7461 1.1172 4.125l0.32031 0.67578h-0.003906c15.871 20.238 40.375 31.781 66.086 31.133h2.3242c20.043 0.65625 39.016-9.0312 50.238-25.648l4.3398-7.1445-7.4258 3.8516h0.003906c-16.484 8.207-34.484 12.918-52.875 13.84z"/>
  <path d="m673.65 691.38 1.7734-1.9297c20.887-22.688 50.625-38.176 76.875-50.324l3.543-1.625-3.0664-2.3633c-5.8867-4.5469-11.785-8.9062-17.617-13.199l-1.0781-0.79688-1.2266 0.53516c-25.406 11.762-49.648 25.887-72.41 42.188l-1.1992 0.81641 1.5547 12.836 0.57031 0.5625c3.6641 3.6641 7.2188 7.5 10.566 11.324z"/>
  <path d="m480.21 190.05 0.63672 2.6641 2.5312-1.0312c47.418-19.312 102.27-26.578 155.32-33.602 13.52-1.7891 26.832-3.5547 39.758-5.4922 56.336-8.4375 113.81-15.73 169.4-22.82 14.742-1.875 29.496-3.7656 44.258-5.6719l10.043-1.2852-9.5898-3.2539c-20.738-7.0312-56.25-2.4648-77.531 0.24219-4.7617 0.60938-8.8672 1.1328-12.02 1.4336-33.367 3.1875-66.977 8.4375-99.477 13.434-10.719 1.668-21.441 3.3086-32.164 4.9219-12.02 1.8008-24.422 3.1875-36.414 4.5273v0.003906c-25.152 2.1523-50.094 6.2539-74.609 12.273-4.0781 1.1172-8.1289 2.25-12.188 3.3945-22.527 7.0586-45.66 12.035-69.102 14.867l-2.8789 0.25391 0.83594 2.8125c1.2461 4.1523 2.2773 8.5039 3.1875 12.328z"/>
  <path d="m480.3 877.1-1.9492-2.2695-1.7344 2.4375c-4.0781 5.7383-8.1641 11.352-12.309 16.969l-1.5195 2.0547 2.1758 1.332c2.7188 1.6797 5.5039 3.2344 8.3516 4.7891l1.7891 0.9375 1.2188-1.6484v-0.003907c1.8867-2.3086 4.9453-3.3047 7.8281-2.5469l1.5391 0.33594 5.2109-7.5-0.77734-1.293c-2.8867-4.8008-6.1758-9.3477-9.8242-13.594z"/>
  <path d="m675.82 647.81 1.7266-1.7344-1.3203-1.875h-0.003906c-1.3867-3.9219-3.0469-7.7383-4.9688-11.43l-0.84375-1.6484-1.8008 0.42969c-3.3945 0.81641-6.8047 1.5742-10.312 2.2031l-2.043 0.34766 0.1875 2.1367c0.39453 4.2852 0.83594 8.5781 1.2852 12.863l1.0312 10.023 4.4531-2.9727c4.1719-2.8047 8.3633-5.5977 12.609-8.3438z"/>
  <path d="m655.89 763.2-3.1211 1.5547v0.003906c-0.36328 0.20313-0.77344 0.3125-1.1914 0.31641-16.117 0.23438-32.457-0.09375-48.281-0.42188-28.102-1.0586-56.242-0.63672-84.301 1.2656l-2.2578 0.19531 0.12109 2.2695c0.35547 6.5625 1.0117 13.555 1.9961 21.262l0.25391 1.9883 15.055 0.375c21.703 0.5625 43.809 1.1172 66.02 1.1172 18.168 0 36.395-0.375 54.508-1.4453l2.1562-0.12109v-2.1562c0.14844-7.5859-0.089843-15.172-0.71484-22.734z"/>
  <path d="m516.47 761.25 2.457-0.21484c27.859-1.9141 55.801-2.3477 83.707-1.293 16.039 0.32812 32.625 0.65625 48.965 0.40234h0.003906c0.25 0.023438 0.5 0.078125 0.73828 0.16797l3.3281 0.9375-0.34766-3.4492c-0.42969-4.2734-0.9375-8.5039-1.4336-12.656-0.39453-3.2539-0.77734-6.4492-1.125-9.582 0-0.38281-0.09375-0.77734-0.14844-1.1523l-0.34766-2.8984-2.1836 0.085937c-38.906 1.5938-78.516 1.9766-116.82 2.3516l-16.969 0.16797v2.2773c-0.14062 8.3516-0.10156 15.664 0.13281 22.359z"/>
  <path d="m532.27 796.88-12.375-0.33594 0.47656 2.8125h0.003906c1.5234 9.1211 3.6133 18.137 6.2617 27l0.34766 1.1328 1.1172 0.40234h-0.003907c16.062 5.4102 32.93 8.043 49.875 7.7812 23.547-0.49609 46.969-3.5742 69.844-9.1758l1.4453-0.32813 0.32812-1.4453c0.26172-1.0742 0.73828-2.0859 1.3984-2.9727l0.30859-0.58203c2.5391-7.1016 4.2031-14.488 4.9492-21.992l0.28125-2.7461-2.7578 0.16797c-40.508 2.4297-81.684 1.3125-121.5 0.28125z"/>
  <path d="m502.34 666.4 3.6641-4.1992v-0.81641c0.13281-2.5977 0.25391-5.1367 0.44922-7.7422l0.47656-6.5156-4.5078 4.6875c-17.23 18.047-32.035 36.723-47.719 56.504l-8.0898 10.191c-1.5742 1.9883-3.2266 3.957-4.8672 5.9062l-4.2109 5.0352 3.6367 0.9375 0.007813-0.003906c20.344 5.3633 39.633 14.137 57.047 25.949l3.7031 2.4375-0.066407-4.4336c-0.13281-7.9141-0.066406-15.938 0.1875-23.859l0.20703-6.4883-4.3047 4.8672c-1.9492 2.2422-4.1758 4.2344-6.6172 5.9258 2.707-3.5195 5.0742-7.2852 7.0664-11.25 1.8867-3.8125 3.3633-7.8125 4.4062-11.934 0.375-7.293 0.86328-14.625 1.332-21.957l0.49609-8.625-1.1328-7.0234-3.2422 3.6484c-8.4375 9.4609-15.938 17.812-21.637 24.195-2.2031 2.5859-4.8477 5.6992-7.0312 8.082h-0.003906c1.4531-3.1875 3.082-6.293 4.875-9.3008 7.6992-12.078 16.352-23.52 25.875-34.219z"/>
  <path d="m354.7 828.36 0.85156-3.1328-3.3945-0.22266c-2.625-0.1875-5.2031-0.36719-7.7266-0.47656l-1.6602-0.085938-0.61719 1.5469c-4.4727 7.8594-5.2656 17.285-2.1719 25.781l2.2422 4.0312 1.9297-4.1797c1.8203-3.918 3.582-7.8477 5.3438-11.773 1.7617-3.9297 3.4375-7.6719 5.2031-11.488z"/>
  <path d="m477.75 867.34 1.5469-2.1953c6.207-8.8398 13.648-19.285 21.723-29.691l1.4805-1.875-1.9492-1.4258v0.003906c-4.8789-3.5312-9.9414-6.8047-15.168-9.7969l-1.9883-1.1445-1.1914 1.9688c-5.3242 8.8672-10.633 18.461-17.195 31.125l-0.9375 1.7617 1.5938 1.1914c3.5039 2.5938 6.875 5.3594 10.098 8.2891z"/>
  <path d="m459.96 891.98c4.6875-6.2812 9.2148-12.617 13.762-18.957l1.1914-1.6484-1.4727-1.3711c-2.9727-2.8086-6.1016-5.4492-9.375-7.9023l-2.2227-1.6875-1.2852 2.4766c-2.1289 4.1172-4.2109 8.25-6.3008 12.367-1.668 3.3008-3.3281 6.6094-5.0156 9.8828l-0.9375 1.875 10.312 6.7773z"/>
  <path d="m359.06 794.15c-3.75 6.3008-8.4375 14.137-12.562 22.34l-1.5859 3.2148 3.582 0.16797c2.6719 0.12109 5.3516 0.36719 8.2031 0.62891l1.6328 0.14844 0.69531-1.4805c3.8438-8.0352 7.3047-14.598 10.895-20.625l1.3398-2.25-2.3906-1.0859h-0.003906c-2.0234-0.90625-4-1.9141-5.9219-3.0195l-1.9961-1.1641z"/>
  <path d="m491.08 630.59-1.3203-0.52344-1.0781 0.9375h-0.003906c-6.3164 5.2188-11.965 11.203-16.809 17.812l-1.2734 1.875 1.7812 1.3516c1.3203 1.0039 2.6445 2.082 3.9648 3.1484l1.7266 1.3984 1.4922-1.6406c5.3906-5.9258 11.195-11.961 17.738-18.441l2.5977-2.5703-5.625-2.1016c-1.0469-0.42188-2.0859-0.82422-3.1914-1.2461z"/>
  <path d="m724.21 277.78c-4.9414-3.2812-9.8711-6.5625-14.652-9.918l-1.3203-0.9375-1.332 0.89062c-4.875 3.2734-9.8242 6.4141-14.773 9.5547l-0.003906-0.003906c-10.02 6.1133-19.719 12.73-29.062 19.828l-1.875 1.4531 1.4727 1.875c3.8242 4.7734 7.3867 9.375 10.754 13.867l1.3594 1.875 1.875-1.3125h-0.003906c17.273-12.602 37.156-21.156 58.184-25.031l5.8672-0.89062-4.8945-3.3555c-3.7969-2.6992-7.6953-5.2969-11.594-7.8945z"/>
  <path d="m474.91 513.84 0.074219 1.3984 1.2578 0.60156c24.77 11.758 53.879 11.906 82.031 12.055 8.5234 0 16.586 0.085937 24.516 0.42969 10.219 0.46875 20.852 0.9375 31.688 0.9375 25.184 0.87891 50.277-3.5352 73.648-12.969l2.1758-0.66406 0.16797-1.4805c0.44141-3.8164 0.89062-7.5664 1.3984-11.324l0.44141-3.2266-3.1953 0.60156c-41.117 7.7344-144.18 21.402-212.46-18.57l-3.7969-2.2227 0.34766 5.4766c0.60547 9.6914 1.1758 19.355 1.7109 28.957z"/>
  <path d="m473.38 576.32-2.3516-1.5859-1.1055 2.6055h-0.003906c-1.3789 3.0781-2.4531 6.2852-3.207 9.5742-0.69531 4.2344-0.015625 8.5859 1.9336 12.41l0.26172 0.60156 0.53516 0.375c0.55469 0.36719 1.0742 0.79297 1.5469 1.2656 4.3984 4.8984 9.7656 8.832 15.758 11.559l3.8047 1.875-0.42969-4.2188c-0.57812-5.457-0.21094-10.973 1.0859-16.305 0.3125-1.3242 0.99219-2.5312 1.9609-3.4844l2.4375-2.2891-2.9922-1.5078c-6.625-3.2344-13.047-6.8672-19.234-10.875z"/>
  <path d="m583.12 141.33 1.6328-0.32031 0.23438-1.6602v0.003906c0.89062-5.7422 3.0195-11.223 6.2344-16.062l7.6016-11.898-11.035 8.8047c-7.1445 5.8047-13.453 12.566-18.75 20.094l-3.75 5.1641 6.168-1.5273c3.957-0.95703 7.8281-1.8398 11.664-2.5977z"/>
  <path d="m704.39 161.79-0.36719-2.2773-8.4375 1.2109c-4.5938 0.63672-9.1797 1.293-13.727 1.9961-1.4922 0.22656-2.9727 0.48828-4.4609 0.74219-1.4922 0.25391-2.9062 0.50781-4.3516 0.73047l-2.8125 0.42969 0.9375 2.6797h0.003906c0.20312 0.57422 0.35156 1.1641 0.44922 1.7656 0.44922 4.1172 1.4062 12.676 7.8008 14.465 2.7188 0.69141 5.5195 1.0273 8.3242 1.0039 4.5547-0.066406 9.0898-0.67578 13.5-1.8203l0.9375-0.23438c1.543-0.27734 3.0391-0.76953 4.4453-1.4609l1.2188-0.66406v-1.3906c-0.015624-0.62891-0.085937-1.2578-0.20703-1.875-1.4727-5.7461-2.5117-10.613-3.2539-15.301z"/>
  <path d="m635.88 170.7c-9.3008 1.7617-18.918 3.582-30.461 5.3164l-1.875 0.44922-0.12109 1.875c0 0.1875-0.066406 0.46875-0.11328 0.77734-0.15234 0.74609-0.24609 1.5-0.26953 2.2617v2.2578l2.2578 0.085937c3.375 0.066406 6.75-0.10547 10.098-0.52734 7.5664-1.082 15.285-0.066406 22.312 2.9375 3.6367 1.4961 6.8164 3.9219 9.2227 7.0312l1.4141 1.9766 1.875-1.4922h0.003906c0.96875-0.71484 1.8594-1.5312 2.6523-2.4375 3.7305-5.7852 5.2734-12.715 4.3516-19.535l0.16797-4.8945-2.7383 0.46094c-6.5156 1.1328-12.617 2.2852-18.777 3.457z"/>
  <path d="m666.91 196.01c-0.89453 1.6797-1.9727 3.25-3.2148 4.6875-7.8516 7.3555-17.508 12.504-27.984 14.926l-1.6211 0.53516v4.1055h-0.003906c1.4609 16.797-0.86719 33.707-6.8125 49.48l-0.9375 2.0156 1.9609 1.0586h-0.003906c6.1484 3.7969 13.125 6.0508 20.336 6.5625 6.1875 0.019532 12.051-2.7734 15.938-7.5938 5.7656-7.0625 10.184-15.129 13.031-23.793 1.1719-2.9023 2.5469-5.7227 4.1133-8.4375 2.7344-3.6484 4.3828-7.9961 4.75-12.543 0.36719-4.543-0.55469-9.1016-2.668-13.145-1.9922-4.1094-3.0078-8.6211-2.9727-13.191v-1.9297l-1.9609-0.32812h0.003906c-3.043-0.42969-5.9531-1.5234-8.5234-3.207l-2.1562-1.4609z"/>
  <path d="m475.67 532.24v1.0508l0.80469 0.68359c28.688 24.375 72.449 25.152 107.62 25.801h5.9609 0.003906c30.645-0.007813 61.133-4.3398 90.562-12.875l0.9375-0.25391 0.48828-0.82422c1.3672-2.3828 3.1875-4.4766 5.3516-6.168l0.83594-0.65625 0.066407-1.0508c0.25391-4.3789 0.50781-8.7578 0.9375-13.125l0.39453-3.8242-3.582 1.4062c-33.348 13.125-69.141 12.562-103 10.836-8.8516-0.44922-17.98-0.53516-26.812-0.61719-26.25-0.22656-53.438-0.46094-77.605-10.398l-3.3945-1.0703 0.17969 3.6836c0.074219 2.4805 0.19531 4.918 0.25 7.4023z"/>
  <path d="m535.57 207.52-0.9375 1.4336c-2.2227 3.4414-4.5195 6.8828-6.8164 10.312l-1.7344 2.5977 2.9805 0.9375h0.003906c28.598 7.7109 58.215 10.961 87.805 9.6367l0.33594-2.1484 0.28906 2.2969 2.8125 0.5625v-2.8125c0-3.1602-0.13281-6.3281-0.25391-9.4883l-0.09375-2.2109h-2.2031 0.003906c-27.18-0.23047-54.227-3.7891-80.539-10.594z"/>
  <path d="m523.3 226.08-0.98438 1.5273c-1.875 2.9141-3.6953 5.8984-5.3828 8.8789l-1.1328 2.0156 1.9961 1.1641c20.539 9.9492 43.305 14.418 66.082 12.965 6.1211 0 12.188-0.14062 18.094-0.27344 5.0352-0.10156 9.9375-0.21484 14.664-0.23438h1.9297l0.36719-1.875c0.63672-3.5039 1.0312-7.0469 1.1797-10.602l-0.085938-3.0469-3.0742 0.76953c-33.234-0.066407-63.094-0.9375-91.875-10.68z"/>
  <path d="m393.3 707.15-1.0508 1.875c-3.207 5.7734-6.3516 11.609-9.4297 17.504l-0.82422 1.6016 1.332 1.2109c6.1328 5.625 12.367 10.977 18.508 15.938l1.7539 1.4141 1.4922-1.6953c4.4062-5.043 8.8789-10.152 13.34-15.207l1.4922-1.668-1.6016-1.5547-0.007812-0.003906c-0.15234-0.16406-0.33594-0.29688-0.53516-0.39453-5.9961-7.707-13.699-13.918-22.5-18.148z"/>
  <path d="m497.67 272.3-1.0508 1.4922c-0.54297 0.78125-1.2656 1.4258-2.1094 1.875-0.65625 0.32812-1.2578 0.65625-1.875 0.98438l-4.1719 2.3242 4.3867 1.875c8.1953 3.5078 15.543 6.918 22.5 10.414l1.0586 0.25391c15.375 0 30.938 1.4531 45.938 2.8125 10.039 0.9375 20.41 1.875 30.703 2.4375 3.8242 0.20703 8.2578 0.84375 12.957 1.5273v0.003907c6.7695 1.1406 13.605 1.8047 20.469 1.9844 4.7734 0.10938 9.5312-0.60937 14.062-2.1172l7.8203-2.8125-8.1484-1.668c-7.2188-1.9297-14.102-4.9453-20.41-8.9453l-0.9375-0.51562-1.0117 0.35547c-0.74609 0.30078-1.5195 0.51562-2.3086 0.64844-39.145 5.9297-79.156 1.6875-116.18-12.328z"/>
  <path d="m401.49 340.16 3.1797 1.4609 0.14844-3.4883c0.12109-2.8125 0.375-5.7188 0.68359-8.5312l0.19531-1.7734-1.6367-0.64453c-14.316-5.7656-28.434-12.133-42.844-18.684l-1.5078-0.68359-1.1523 1.1914-0.003906-0.003907c-1.3086 1.375-2.7852 2.582-4.3945 3.5938l-3.4883 2.1484 3.6172 1.9219c16.605 8.8008 32.047 16.488 47.203 23.492z"/>
  <path d="m513.47 242.86-1.125 2.2305c-2.0547 4.1875-3.7812 8.5234-5.1758 12.977l-0.71094 2.1758 2.1562 0.75781c23.141 8.0938 47.5 12.152 72.02 12 9.1211-0.015625 18.234-0.5 27.309-1.4531l1.2109 0.17969 0.68359-1.1055v-0.003906c2.6484-3.0859 4.7539-6.6016 6.2227-10.395l1.2734-3.2344h-3.4766c-3.7031 0-7.5 0.10156-11.371 0.1875-29.184 0.55469-62.242 1.1992-86.859-13.125z"/>
  <path d="m379.69 732.58-1.3867 2.7188c-5.4297 10.613-10.883 21.871-16.66 34.398l-0.47656 1.0234 0.50781 1.0117 0.63672 0.71094h-0.003906c3.1484 4.125 7.3164 7.3555 12.094 9.375l1.875 0.79688 1.0781-1.6875c6.5234-10.051 13.727-19.641 21.562-28.699l1.5547-1.8281-1.875-1.5078c-5.3711-4.3398-10.949-9.1328-16.586-14.23z"/>
  <path d="m859.43 807.34 1.4258-1.6211c4.7539-5.3828 9.375-10.902 13.922-16.414l1.3203-1.6016-1.4062-1.5117c-7.1094-7.2305-14.59-14.09-22.406-20.551l-1.5469-1.3125-1.5273 1.3398c-3.543 3.1328-7.0234 6.3281-10.461 9.4883-2.3906 2.1953-4.7617 4.3789-7.125 6.5078l-1.9961 1.8008 2.0547 1.7344c7.5859 6.3828 16.602 13.848 26.062 20.859z"/>
  <path d="m795.38 805.55 1.6953 1.4727 1.5469-1.6328v0.003907c6.7773-7.0547 13.93-13.738 21.422-20.027l2.0898-1.7891-2.1016-1.7812c-4.9414-4.1797-9.9375-8.2422-15.32-12.617l-1.3672-1.1172-1.4453 1.0117c-8.3711 5.8398-14.785 10.461-20.625 14.926l-3.1445 2.0703 1.3594 1.9766v0.003907c4.5312 6.4844 9.8711 12.367 15.891 17.5z"/>
  <path d="m823.92 826.12c2.9141 1.875 5.8203 3.8242 8.6797 5.7578l1.5 1.0039 1.3516-1.1914v-0.003906c6.6992-5.9258 13.055-12.227 19.039-18.871l1.7539-1.875-2.082-1.5547c-9.6367-7.1523-18.957-14.852-26.805-21.449l-1.5273-1.2852-1.5078 1.3047c-6.7891 5.8672-14.625 12.75-21.703 20.23l-1.8086 1.875 2.1016 1.5742c6.7969 5.1367 14.023 9.8906 21.008 14.484z"/>
  <path d="m832.41 748.48-1.5547 1.0312c-6.9648 4.6211-13.922 9.2539-20.766 13.941l-2.5859 1.7617 2.4297 1.9766c4.8477 3.957 9.6289 7.9023 14.344 11.914l1.5195 1.293 6.6953-5.6992c3.4766-2.9609 6.9102-6.0469 10.312-9.0859l4.5938-4.1172-2.043-1.7422c-4.4141-3.75-8.0234-6.9922-11.344-10.145z"/>
  <path d="m624.82 111.26-1.5469 3.8047v0.003906c-2.293 5.6094-4.1055 11.406-5.418 17.324l-0.73047 3.3086 22.809-3.2734-2.0547-3.0742c-3.3086-4.9492-6.8516-9.9375-10.566-14.82z"/>
  <path d="m854.41 761.06 2.1367 1.8203c7.2812 6.0078 14.242 12.395 20.852 19.133l1.8086 1.875 4.8086-5.7188c2.6992-3.207 5.3828-6.4141 8.1016-9.543l1.2266-1.4141-1.125-1.5078c-4.3672-5.8984-9.1875-12.039-14.316-18.254l-1.2109-1.4531-1.6875 0.87109 0.003906-0.003906c-6.5547 3.4844-12.73 7.6406-18.422 12.406z"/>
  <path d="m668.51 75c2.4844 16.352 5.0547 33.254 7.1445 49.93l0.30078 2.3828 3.1484-0.46875c1.875-0.28125 3.75-0.55469 5.625-0.77734l2.3711-0.28125-0.32812-2.3633c-0.80469-5.8672-1.7266-11.719-2.6445-17.559h0.003906c-3.2656-17.461-4.9805-35.18-5.1289-52.941l0.046875-2.3438h-2.3438c-3.0547-0.074219-6.1797-0.066406-9.2266 0.054687l-2.5977 0.12109 0.375 2.5703c1.0586 7.2266 2.1406 14.449 3.2539 21.676z"/>
  <path d="m589.59 139.93 3.6094-0.64844c2.4766-0.42969 5.0078-0.81641 7.5664-1.1992 2.6992-0.42188 5.4102-0.80469 8.082-1.1797l3.2734-0.46094 0.30078-1.6797-0.003906 0.003906c1.5234-8.4922 4.0859-16.762 7.6328-24.629l1.7266-3.8906-6.6562 0.9375-0.86328 0.32031h-0.003907c-11.125 6.4531-19.551 16.707-23.727 28.875z"/>
  <path d="m622.59 91.555c9.9141 11.848 19.148 24.242 27.664 37.125l1.2109 2.0547 1.4336-0.17969c2.2969-0.28906 4.5391-0.62891 6.8242-0.9375l4.8555-0.73047-2.5391-3.1797c-6.7109-8.4375-12.75-17.586-18.59-26.465-7.2031-11.539-15.219-22.555-23.98-32.961l-0.66406-0.75h-1.0117c-3.5625-0.12109-7.2656-0.25391-10.961-0.13281l-4.4453 0.16016 2.6445 3.582c5.6523 7.6211 11.707 15.141 17.559 22.414z"/>
  <path d="m865.59 733.31-5.1641-5.793-1.6328 2.8125c-0.58203 0.98047-1.3906 1.8047-2.3633 2.3984l-19.688 12.836 2.2109 2.043c3.4766 3.2148 7.0234 6.3086 10.633 9.375l1.5195 1.2734 1.5-1.2852v0.003906c5.7227-4.9492 11.875-9.3789 18.383-13.238l2.4297-1.4141-1.8203-2.1367c-1.9492-2.375-3.9844-4.6172-6.0078-6.875z"/>
  <path d="m728.09 564.12 0.77734-1.3984-1.4336-1.7422c-0.48047-0.61328-0.98828-1.1992-1.5273-1.7617l-1.4727-1.4727-1.6406 1.293c-4.4414 3.5078-9.2461 6.5234-14.332 9l-2.6719 1.3047 1.875 2.2969c1.5664 1.875 3.1875 3.75 4.8828 5.5312l1.5 1.6016 1.6953-1.3867c4.918-3.6016 9.1055-8.1055 12.348-13.266z"/>
  <path d="m737.62 605.34 0.24219 0.71094 7.6953 5.5391c11.148 8.0078 22.68 16.273 33.289 25.219l13.492 11.352-10.051-14.484c-14.84-21.383-30.758-43.996-47.926-64.586l-1.9688-2.3633-1.7617 2.5312 0.003906 0.003906c-3.2383 4.2852-7.0469 8.1016-11.328 11.344l-1.9883 1.6406 2.4023 2.4023c6.1875 5.8281 11.879 12.164 17.016 18.938 0.37109 0.54297 0.66797 1.1328 0.88281 1.7539z"/>
  <path d="m680.37 641.42 0.99219 2.7461 2.4648-1.5547h0.003906c10.918-6.9766 22.184-13.402 33.75-19.246l15.367-7.6328-16.875 3.2344c-10.039 1.9297-19.895 4.7891-29.418 7.5547-2.9375 0.85547-5.8672 1.6953-8.793 2.5234l-2.7109 0.75781 1.2383 2.5312-0.003906 0.003907c1.4961 2.9492 2.8242 5.9844 3.9844 9.082z"/>
  <path d="m678.1 693.82-1.332 1.4609 1.2109 1.5547c4.8945 6.2734 8.5586 11.164 11.887 15.883l1.3867 1.9688 1.9297-1.4336h0.003906c26.164-20.402 54.195-38.293 83.719-53.438l3.0742-1.4805-2.4922-2.3359c-5.2422-4.9219-10.734-9.6953-16.305-14.176l-1.125-0.9375-1.3125 0.60156c-29.371 13.398-59.438 29.008-80.645 52.332z"/>
  <path d="m739.5 784.38 0.85156 0.64844v-0.003906c1.9492 0.875 4.0625 1.3164 6.1992 1.2969 12.582 0 27.637-13.668 38.109-23.176 3.0391-2.7578 5.625-5.1367 7.6797-6.7109l-0.003906-0.003906c11.598-8.582 23.695-16.465 36.227-23.613 3.457-2.0547 6.8945-4.125 10.312-6.207l2.8125-1.7266-2.5312-2.0703c-4.9219-3.9922-9.4492-8.0078-13.836-12.254l-1.2656-1.2266-1.5273 0.86328c-5.4766 3.1133-11.195 6.0391-16.734 8.8594h-0.003907c-11.234 5.3711-22.02 11.641-32.25 18.75-4.4336 3.2422-8.8125 6.5625-13.191 9.8516-9.5547 7.2188-19.426 14.672-29.633 21.242l-2.1016 1.3516 1.4727 2.0156c3.1055 4.2188 6.1875 8.1836 9.4141 12.113z"/>
  <path d="m705.77 736.45 3.8359 5.8516 1.875-0.88281h-0.003907c12.73-6.7656 24.512-15.188 35.035-25.039 4.0586-3.4883 8.1094-6.957 12.262-10.266 12.039-9.2422 25.203-16.914 39.18-22.828l2.1289-1.875-1.707-2.3359c-4.1758-5.6133-8.7266-10.938-13.621-15.938l-1.1641-1.1992-1.5195 0.70312c-30.551 15.242-59.453 33.586-86.25 54.75l-1.8086 1.3398 1.2656 1.875c3.5352 5.2109 7.0117 10.52 10.492 15.844z"/>
  <path d="m672.13 580.2-4.9219 0.20703 3.2617 3.6836c5.9688 6.3555 10.984 13.543 14.887 21.34l2.2695 5.0078 2.043-5.1016c1.4805-3.6562 2.7109-7.4453 3.8984-11.102 1.1914-3.6562 2.3516-7.2266 3.75-10.754l1.2188-3.0273-3.2539-0.1875h0.003906c-7.7148-0.41406-15.441-0.4375-23.156-0.066406z"/>
  <path d="m804.07 595.81 1.4727 0.32812c3.375 0.86328 6.832 1.3633 10.312 1.4922h1.1641l2.3906-0.14062-0.40234-4.9297c-0.50781-3.168-0.9375-6.3281-1.332-9.4961l-0.17969-1.5547-1.5195-0.42187c-3.6484-1.0117-7.2461-1.875-10.688-2.4844l-2.7188-0.48828v2.8125-0.003906c-0.074218 4.5312 0.34766 9.0547 1.2656 13.492z"/>
 </g>
</svg>
