<?xml version="1.0" encoding="UTF-8"?>
<svg width="1200pt" height="1200pt" version="1.1" viewBox="0 0 1200 1200" xmlns="http://www.w3.org/2000/svg">
 <g fill="#000">
  <path d="m281.25 402.46c-0.09375 0.35937-0.21484 0.70703-0.36719 1.0469l-0.49609 1.1641 1.1992 0.40234c4.3633 1.4609 8.6055 3.25 12.695 5.3555l0.42969 0.12109c1.0664 0.097657 2.0938 0.45703 2.9922 1.0391 7.1289 4.5898 14.75 8.3672 22.727 11.25l0.9375-2.1562c-4.5117-2.582-8.2266-6.3594-10.738-10.91-2.5117-4.5508-3.7227-9.7031-3.5039-14.898v-1.5469l-1.4727 0.46094c-6.3008 2.0078-13.027 2.2969-19.48 0.83203l-0.9375-0.12109-0.42969 0.77734-0.89063 1.0508-0.30078 0.41406c-0.38281 0.56641-0.73047 1.1602-1.043 1.7695l-0.46875 1.0703 1.1328 0.26172h-1.2266c-0.28125 0.89844-0.49609 1.7266-0.75781 2.6172z"/>
  <path d="m341.68 380.02c-1.6836 0.53906-3.5156 0.33594-5.043-0.5625l-0.20703-0.10156c-3.4844-1.5898-7.5195-1.4062-10.844 0.49609-3.1875 2.5586-4.9492 6.4922-4.7461 10.574-0.48828 10.801 3.3945 17.812 10.602 19.191h0.003906c0.74609 0.15625 1.4609 0.43359 2.1172 0.82422l0.33594 0.13281c2.4336 0.44141 4.3789 2.2812 4.9531 4.6875 0.80469 4.4609 1.293 9.0469 1.6953 13.34l0.074219 0.79688 6.8906 1.9297c15.719 3.6562 30.906 9.3008 45.199 16.801l0.65625 0.38281 0.61719-0.46094v0.003906c0.54297-0.38672 1.125-0.71484 1.7344-0.98438 3.9609-2.25 6.9609-5.8711 8.4375-10.184l0.22656-0.46875c2.207-4.9609 4.9961-9.6445 8.3047-13.949 1.1875-1.3242 2.9141-2.0312 4.6875-1.9219h0.19531l0.1875-0.066407c0.66016-0.20703 1.3398-0.33203 2.0273-0.375 0.70312 0.027344 1.3867-0.25 1.875-0.75781 0.54297-0.67578 0.41406-1.4453 0.22656-2.6172-0.074219-0.44922-0.16797-1.0117-0.25391-1.707v0.003907c-0.69141-4.0234-1.8086-7.9609-3.3281-11.75-0.73047-2.1016-1.5742-4.1719-2.4102-6.2617-1.7344-3.9844-3.1328-8.1094-4.1836-12.328-0.32813-1.3477-0.22266-2.7656 0.30078-4.0508l0.085937-0.51562c2.125-6.4766 2.8945-13.32 2.2578-20.109l-0.066407-1.2266-1.2188 0.13281c-15.73 2.2188-31.117 6.4258-45.797 12.516-8.2852 3.0469-16.922 6.2148-25.594 8.5859z"/>
  <path d="m268.47 373.75c0.58984-0.29297 1.2227-0.48828 1.875-0.58203l1.5273-0.24219-0.62891-1.4141v-0.003906c-0.87891-2.0781-1.5078-4.25-1.875-6.4766l-0.12109-0.68359c-0.39453-4.0117-1.5469-7.9141-3.3945-11.496-0.76953-1.1953-1.668-2.3008-2.6797-3.3008l-0.44141-0.42188c-0.47656-0.34766-0.89062-0.70312-1.2852-1.0508v0.003907c-0.4375-0.4375-0.90625-0.84375-1.4062-1.2109-0.63672-0.42188-1.0859-0.74219-1.3984-0.99219 0.375 0 0.88281 0 1.5547 0.11328l0.003906-0.003906c3.2305 0.65625 6.1758 2.293 8.4375 4.6875 3.0312 3.8125 5.1055 8.293 6.0469 13.07 0.42578 1.4883 0.96484 2.9453 1.6133 4.3516l2.2305 4.9297v-5.418c-0.023438-0.14453-0.023438-0.28906 0-0.43359 2.1211-13.066 8.7852-24.965 18.824-33.598 3.4883-3.2109 7.6523-5.5898 12.188-6.9648-0.60156 0.68359-1.5391 1.6133-2.457 2.5312-1.7812 1.7617-4.2188 4.1914-6.8438 7.293-4.2188 5.0625-7.75 10.66-10.5 16.648l-2.2422 4.9688 4.0781-3.6016c1.3203-1.1641 2.6328-2.2695 3.9453-3.2734l0.003906 0.003906c7.1719-5.3672 15.008-9.7812 23.316-13.125 6.4766-2.8672 13.422-4.5312 20.492-4.9141l-1.2578 0.46094h0.003906c-6.0586 2.2188-11.945 4.8633-17.625 7.9219-7.543 4.0117-14.672 8.75-21.293 14.148-3.832 3.082-7.2461 6.6484-10.16 10.609-2.1094 2.7383-3.4961 5.9648-4.0312 9.375v1.4531l1.0117 0.13281c0.52344 0.074219 1.0703 0.14062 1.6016 0.19531l1.875 0.23438c5.2539 0.85547 10.555 1.3633 15.875 1.5117h0.53516l0.32812-0.054687-0.003907-0.003907c1.0195-0.32422 2.0938-0.41797 3.1523-0.28125l0.85156 0.11328 0.36719-0.78906v0.003907c1.5312-4.25 4.375-7.9023 8.1211-10.43 3.7422-2.5273 8.1953-3.8008 12.711-3.6328h0.49609l0.75-0.70313c2.8945-2.9219 6.0312-5.5938 9.375-7.9883 5.4141-3.8711 11.738-6.2734 18.355-6.9766 1.3516-0.13672 2.7109-0.19141 4.0703-0.16016l-1.7891 0.61719-2.0234 0.70312-0.003906 0.003906c-5.9102 1.9102-11.383 4.9609-16.117 8.9805-1.9297 1.6523-3.7578 3.4258-5.4648 5.3047l-1.0977 1.2109 1.5078 0.68359h0.003907c0.25391 0.12109 0.53125 0.17969 0.8125 0.17969h0.32812c8.1094-2.3516 16.145-5.2031 23.926-7.9766v-0.003906c15.059-6.0117 30.758-10.277 46.793-12.711l1.0977-0.11328-0.054688-1.1172c-2.5391-43.453-46.426-66.375-87.273-66.375h-2.2695c-36.242 0.75781-73.125 19.996-73.801 61.266v0.003906c0.03125 1.4727-0.45703 2.9141-1.3789 4.0664l-0.30078 0.34766v0.46094c0.24609 3.0703-1.7188 5.8867-4.6875 6.7188-2.7969 0.61719-5.0273 2.7227-5.8008 5.4766-0.26172 5.0586 1.3828 10.035 4.6094 13.938 3.2266 3.9062 7.8008 6.4609 12.82 7.1562s10.117-0.51562 14.285-3.3945z"/>
  <path d="m329.4 503.26c11.109 0.39453 22.207-0.91797 32.918-3.8906 10.945-3.1211 21.723-6.8086 32.285-11.051l6.8828-2.5977c5.7656-2.2227 11.465-4.1992 16.941-5.8672l3.75-1.125-3.75-1.1172c-8.668-2.5938-16.738-6.8789-23.738-12.609l-0.46875-0.23438c-0.875-0.19531-1.7031-0.55078-2.4453-1.0508-15.895-9.6875-33.273-16.691-51.441-20.727-17.043-3.8672-33.414-10.242-48.582-18.918l-1.125-0.74219-1.875 4.7891c-8.8672 18.793-14.328 39.012-16.125 59.711 1.0391 4.6875 1.875 9.2266 2.6055 13.875 0.35547 2.6797 0.60156 5.1836 0.74219 7.6328l0.074219 0.33594c1.3867 3.8438 3.1836 7.5312 5.3633 10.988 11.664 18.402 41.156 59.914 63.039 48.113h-0.003907c1.5664-0.89844 3.4297-1.1133 5.1562-0.59375l0.26172 0.074218h0.26172l0.003906 0.003906c1.1406-0.15234 2.3047-0.019531 3.3828 0.38281l0.51562 0.17969 0.47656-0.28906c4.5859-2.8125 9.8906-5.9062 15.617-9.2812 3.957-2.3242 8.1094-4.7812 12.383-7.3203l0.003906-0.003907c14.629-9.4492 29.836-17.965 45.535-25.5-12.688 12.09-26.82 22.574-42.074 31.207-7.1797 4.2734-14.785 8.3633-22.621 12.188l-3.0078 1.4531 3.2617 0.74219c4.4727 0.98438 9.0469 1.4609 13.629 1.4258 10.742-0.39062 21.418-1.8398 31.875-4.332 3.75-0.76953 7.5-1.5391 11.117-2.1758l0.46875-0.085938 0.28125-0.38281h0.003906c4.1953-5.4375 8.9023-10.461 14.062-15 6.168-5.2969 11.609-11.391 16.18-18.121 5.2031-9.582 8.6055-20.035 10.031-30.844 1.1523-6.7578 2.8125-13.414 4.9688-19.922l0.58203-1.5938h-1.707l-4.0781 0.11328-3.582 0.09375h-0.82422l-0.26172 0.77734c-2.0742 5.5859-5.2148 10.711-9.2539 15.094-3.8242 4.3008-8.207 8.0742-13.031 11.211-3.1367 2.0977-6.4805 3.8594-9.9844 5.2617l1.5391-1.2266c1.875-1.5 4.2734-3.3828 7.0859-5.8125v-0.003906c4.1719-3.582 7.957-7.5898 11.297-11.961 2.6367-3.5078 4.8086-7.3438 6.4609-11.41l0.63672-1.6211h-1.7422c-3.8633 0.046875-7.2109 0-10.227-0.27344h-0.32422c-11.949 2.5703-23.656 6.1562-34.996 10.719l-1.5273 0.57031c-12.539 5.0977-25.414 9.3281-38.531 12.656-11.34 2.8047-23.094 3.5117-34.688 2.082l-1.7422-0.30859c-3.8672-0.55078-7.6719-1.4688-11.363-2.75l-1.1172-0.38281c-2.8086-0.85938-5.5195-2-8.0977-3.4023-1.875-0.98438-3.1953-1.7539-4.1641-2.3516l1.875 0.52344c8.1328 2.4062 16.492 3.9766 24.945 4.6758zm54.836 22.051c-3.7734 2.5195-7.8359 4.5703-12.102 6.1133-11.574 4.6719-23.832 7.4336-36.293 8.1641-6.9844 0.28906-13.98-0.40234-20.773-2.0508-5.5391-1.375-10.828-3.6055-15.676-6.6094-4.0039-2.2695-7.4883-5.3555-10.227-9.0586 1.0391 0.39453 2.625 1.1523 4.0703 1.875 2.1758 1.0391 4.8672 2.3359 7.9883 3.6016h-0.003906c4.8711 1.9883 9.9453 3.4492 15.133 4.3516 6.3633 1.0625 12.816 1.4648 19.266 1.1992 11.105-0.71875 22.137-2.3359 32.98-4.8398l2.3359-0.48828-0.003906 0.003906c4.3789-1.0508 8.8242-1.8047 13.305-2.2617z"/>
  <path d="m497.62 553.05 1.3789 0.48828c4.2578 1.5078 8.4922 3.4609 12.602 5.3438h-0.003907c8.207 4.3516 17.113 7.2266 26.316 8.4922h0.22656c0.19922 0.046875 0.40234 0.070312 0.60938 0.066406h0.10156c0.53516-0.066406 1.0742-0.097656 1.6133-0.09375 28.977-1.4453 57.562-7.3086 84.77-17.391 22.016-7.7109 44.738-13.23 67.836-16.473h0.32812l0.26172-0.19531c1.5625-1.1602 3.6328-1.3711 5.3906-0.54687 5.4961 2.2773 10.852 4.8867 16.031 7.8125 3.2812 1.7617 6.6758 3.582 10.133 5.2305 10.82 5.1953 17.652 1.4062 25.18-6.3477l0.22656-0.22656 0.074219-0.30859h0.003906c0.30859-1.2969 1.0039-2.4727 1.9961-3.3633 6.8672-6.2305 10.988-14.922 11.477-24.18l0.10156-0.85156-0.76953-0.36719c-5.6289-3.0078-10.367-7.4531-13.723-12.883l-0.40234-0.50781h-0.61719l-0.003906 0.003906c-15.387 0.32031-30.734 1.6797-45.938 4.0664-6.5625 0.88281-13.258 1.7891-19.988 2.5234-10.312 1.0977-20.926 1.7891-31.164 2.457-7.707 0.50781-15.676 1.0312-23.504 1.7266l0.003906-0.003906c-35.949 4.0547-72.297 2.8633-107.91-3.5312l-1.0859-0.20703-0.27344 1.0703v-0.003907c-4.4531 16.59-11.352 32.418-20.477 46.969z"/>
  <path d="m769.12 484.62c3.5156 6.2148 6.5625 11.25 9.5703 15.703 2.875 4.4766 6.1016 8.7188 9.6484 12.684l0.72266 0.75781 0.83594-0.62891-0.003906 0.003906c0.39844-0.30469 0.81641-0.58203 1.2578-0.82422l0.77734-0.42969-0.20703-0.87109c-0.81641-3.4297-2.082-7.6211-2.4375-8.7188l-0.14844-0.30078v-0.003906c-4.1484-5.8164-7.293-12.289-9.3125-19.141l-0.12109-0.42187-0.35547-0.23438c-0.90625-0.60156-1.6836-1.3711-2.2891-2.2695-1.4375-2.6016-3.8633-4.5117-6.7305-5.2969h-0.41406 0.003906c-0.11719 0.007813-0.23437 0.007813-0.34766 0 0.4375 0.085938 0.78125 0.42578 0.87109 0.86328l-1.1172 0.22656-0.57031-0.96875-0.16797 0.11328c-0.16406 0.097657-0.32422 0.20312-0.48047 0.31641l-0.28906 0.13281c-0.41016 0.42188-0.71484 0.92969-0.89062 1.4922-0.19141 0.44531-0.41406 0.87891-0.66406 1.293l-0.35547 0.5625 0.30078 0.58984c0.96094 1.8008 1.9922 3.75 2.9141 5.3711z"/>
  <path d="m146.34 445.73c1.0156 0.33594 1.9453 0.90234 2.707 1.6562l0.79688 0.79688 0.82422-0.76953c22.18-20.625 66.695-54 115.83-46.098l1.2383 0.12109 0.12109-1.2383v0.003907c0.039063-0.5 0.11719-0.99219 0.23438-1.4805 0.79687-3.2773 2.1406-6.3945 3.9766-9.2266l0.50781-0.79688-1.1719-1.1172-0.46094 0.003906-0.40234 0.074219c-6.8438 3.3867-14.672 4.207-22.066 2.3164-7.3984-1.8945-13.871-6.375-18.246-12.629v-0.28125l-0.77734-0.71094-0.54297 0.074219c-23.035 2.9805-42.676 18.91-60 32.973l-0.99219 0.79687h-0.003906c-11.07 8.4609-22.844 15.957-35.195 22.406l-3.5898 2.0078 2.3164 1.875v-0.003906c4.3281 4.0078 9.3867 7.1445 14.898 9.2461z"/>
  <path d="m698.9 547.5-0.54297 0.36719h-0.003907c-0.46094 0.30469-0.94141 0.57422-1.4414 0.8125-17.324 8.1992-33.973 17.762-49.781 28.594l-3.8516 2.4844 0.75 1.0117-0.003906 0.003907c2.8906 3.8086 5.5664 7.7734 8.0156 11.875l0.60156 1.0234 1.0117-0.60938c2.3984-1.4453 4.7539-2.9531 7.0117-4.4141 3.1797-2.043 6.1797-3.9844 8.8594-5.418l4.4805-2.4453 0.003906-0.003906c13.57-6.8125 26.414-14.977 38.344-24.375l1.3047-1.0977-3.2891-1.8203c-3.5156-1.9492-7.1523-3.9648-10.867-5.6914z"/>
  <path d="m631.71 587.02-0.9375 0.5625c-3.3828 2.1172-6.8906 4.2188-10.414 6.2422l-1.2734 0.74219 1.0117 1.0781c3.0859 3.4375 7.5078 5.375 12.129 5.3164 2.1836-0.011719 4.3555-0.32812 6.4492-0.9375l1.4805-0.42188-0.79688-1.3047c-2.0078-3.3203-4.3047-6.7031-7.0234-10.379z"/>
  <path d="m448.9 555.32c-5.6328 5.1914-10.812 10.859-15.477 16.938l-0.75 1.0391 1.0977 0.65625v0.003906c3.7734 2.3555 8.1289 3.625 12.578 3.6641 3.8281-0.050782 7.6016-0.92969 11.055-2.5781 25.312-11.598 46.305-59.738 49.996-81.215l0.11328-0.61719-0.46875-0.42969v-0.003906c-6.875-6.2734-15.59-10.16-24.852-11.082l-0.9375-0.12109-0.46875 1.2852c-0.070312 0.24609-0.16797 0.48828-0.29297 0.71094-3.4727 8.0664-5.7539 16.594-6.7773 25.312-0.85938 11.113-4.5039 21.832-10.594 31.164-4.375 5.4219-9.125 10.523-14.223 15.273z"/>
  <path d="m209.93 737.81c-7.3477-2.8867-14.379-6.5195-20.988-10.836l-0.36719-0.25391-0.46094 0.054688c-7.8047 1.0703-15.695 1.4453-23.566 1.1172-3.0391-0.16016-6.0742-0.42188-9.1133-0.68359l-1.3398-0.13281 0.066406 1.3516c1.3047 28.398 39.422 45.262 70.051 58.809 5.4648 2.418 10.621 4.6875 15.18 6.8828l1.4531 0.71094 0.21484-1.6016c0.17969-1.3203 0.36719-2.6641 0.55469-3.9922 1.9414-13.641 4.1445-29.109-8.0078-38.652l-0.003906-0.003907c-7.3047-5.2617-15.262-9.5508-23.672-12.77z"/>
  <path d="m122.01 923.91c-1.3867-1.1172-2.8125-2.2422-4.1055-3.3477l-0.9375-0.76953-0.75 0.9375h-0.003906c-4.3672 6.2344-8.1367 12.871-11.25 19.82-3.5078 7.5586-7.5391 14.859-12.074 21.852l-1.3867 1.9883 2.418-0.14844c5.5469-0.45703 10.879-2.3281 15.496-5.4297 4.3125-3.1523 9.2773-5.293 14.531-6.2539 6.6172-0.58203 13.277-0.33594 19.828 0.73437 7.5273 1.3242 15.215 1.4336 22.773 0.31641l3.4883-0.71094-3.2344-1.4922c-16-7.3008-31.043-16.535-44.793-27.496z"/>
  <path d="m105.86 911.62 0.76953-0.86328-0.85156-0.77734h-0.003906c-7.9062-7.2031-15.125-15.129-21.562-23.672l-0.77734-1.0312-0.9375 0.86328c-12.188 10.922-32.484 29.203-30.113 49.031 1.4062 6.6445 4.2031 12.914 8.2031 18.402l0.20703 0.28906 0.67578 0.24219v0.003906c0.25781 0.082031 0.51172 0.17969 0.75781 0.30078 3.8984 2.0234 8.0898 4.1328 12.348 5.9336l0.54297 0.22656 0.50781-0.30078c1.1641-0.68359 2.1953-1.5742 3.0352-2.625 5.2734-6.9414 9.6836-14.496 13.125-22.5 3.5664-8.4609 8.3047-16.379 14.074-23.523z"/>
  <path d="m679.22 890.91-1.1055-0.63672c-15.746-9.3047-30.84-19.668-45.18-31.02l-1.0703-0.82422-0.66406 1.1719v-0.003907c-0.59766 1.0859-1.2539 2.1406-1.957 3.1602-3.5547 4.7773-7.9922 8.8242-13.07 11.926-9.0781 5.4141-19.023 9.2227-29.398 11.25-16.562 3.3008-33.43 4.8359-50.316 4.5742-11.117 0-21.844-0.54297-32.812-1.5469-2.9531-0.27344-5.3242-0.51562-7.1055-0.75781 1.6328-0.16797 3.918-0.36719 7.125-0.54297 3.0547-0.19531 6.6836-0.35547 10.848-0.55469 6.3203-0.28906 13.48-0.60938 21.777-1.1641 16.426-0.79687 32.742-3.1055 48.75-6.8906 9.418-2.2227 18.414-5.9648 26.633-11.078 5.4688-3.4766 9.9023-8.3555 12.844-14.129l0.42188-0.86328-0.77734-0.58203c-1.5391-1.1641-3.0742-2.3906-4.5664-3.6172l-0.32812-0.26172h-0.42188c-7.9258 0.066406-15.84 0.60937-23.699 1.6211-5.8789 0.70312-11.719 1.6016-17.898 2.5508-6.7891 1.0508-13.801 2.1172-21.055 2.9609-55.441 4.9922-111.3 2.5117-166.08-7.3789l-5.418-1.0234c-3.3008-0.60938-6.4961-1.2109-9.5156-1.875l-2.9922-0.69141c-3.543-0.9375-6.9375-1.7539-10.125-2.5391l-5.3516-1.3984-6.1016-1.6016c-2.2773-0.60938-4.3398-1.3203-6.3359-2.0156-1.0508-0.35547-2.0547-0.70312-3.0078-1.0039-6.5625-2.3047-10.574-3.8359-12.965-4.8477 2.7188 0.46094 6.5625 1.2461 10.715 2.1016 11.746 2.3984 29.504 6.0273 52.098 9.0859 18.965 2.8125 43.125 4.8555 73.828 6.2266l-0.007812-0.003906c30.203 0.96875 60.434 0.19531 90.543-2.3164 5.5781-0.71094 11.195-1.5273 16.82-2.3633 10.801-1.5859 21.977-3.2266 32.867-4.0039l3.0391-0.21484-2.3984-1.875c-10.574-8.2578-21.871-16.969-33.43-24.789-4.1445-2.8125-8.5781-5.9062-13.258-9.207-25.312-17.812-56.645-40.023-86.512-39.375h-0.88281l-0.22656 0.86328v0.003906c-1.7109 7-3.9023 13.875-6.5625 20.578-2.2812 5.7148-5.4805 11.023-9.4688 15.711-2.543 3.0898-5.7109 5.6094-9.2891 7.3984-0.71875 0.34766-1.4531 0.66406-2.2031 0.9375 0.44531-0.65625 0.92969-1.2812 1.4531-1.875 2.5117-2.7539 4.7266-5.7656 6.6094-8.9844 2.7891-4.9141 4.9922-10.141 6.5625-15.57 1.2383-4.2578 2.4375-9.2266 3.8711-16.105l0.38281-1.875-1.875 0.46875c-0.36719 0.09375-0.74219 0.16797-1.1172 0.25391h0.003906c-0.74219 0.13672-1.4766 0.32422-2.1953 0.5625-0.61328 0.17969-1.2383 0.30859-1.875 0.38281-1.0625 0.3125-2.1992 0.27734-3.2422-0.10156l-0.40234-0.14062-0.39453 0.14844c-2.2969 0.94141-4.5312 2.0312-6.6836 3.2617-2.207 1.375-4.25 2.9922-6.0938 4.8203l-6.6758 6.6641c-1.0586 1.0234-2.2305 2.1289-3.6641 3.3203h-0.003907c-0.77344 0.67969-1.5898 1.3047-2.4453 1.875-0.42188 0.28125-0.83594 0.58203-1.2266 0.87109l-8.3711 4.4531-7.9883 3.3008c-9.2617 3.3359-18.777 5.918-28.453 7.7148-8.2148 1.793-16.629 2.4648-25.023 2.0078 5.6641-2.2656 11.457-4.2031 17.344-5.8047l6.3008-1.9492c7.5-2.4648 16.875-5.5234 26.652-9.7578 1.1172-0.53516 2.2578-1.0586 3.4141-1.6016 1.1523-0.54297 2.5781-1.1992 3.9375-1.875l2.2695-1.2852 4.6211-2.6055c0.34766-0.27344 0.73047-0.55469 1.125-0.82422v-0.003906c0.80859-0.53906 1.5703-1.1484 2.2773-1.8203 0.81641-0.75781 1.7891-1.6797 2.8672-2.8125 0.76953-0.76953 1.5391-1.5664 2.3438-2.3906 1.3398-1.3789 2.7461-2.8125 4.293-4.293 2.4844-2.4766 5.2852-4.6133 8.3281-6.3555l0.77734-0.40234c0.26953-0.13281 0.52344-0.26172 0.75781-0.39453l1.4141-0.77734-1.1797-1.1055c-1.4258-1.332-2.8125-2.7109-4.293-4.0977-9.9375-9.5-20.164-19.398-33.824-19.398h-1.1797c-6.2344 0.24219-12.309 0.9375-18.188 1.6875h-0.003906c-7.1016 1.0391-14.27 1.6016-21.449 1.6875l-0.85156 0.24219c-4.4297 1.6602-8.582 3.9883-12.309 6.9023-0.69922 0.5-1.3516 1.0625-1.9531 1.6758-0.39453 0.38281-0.78906 0.75781-1.2852 1.1914l-2.6055 2.8125c-1.5859 1.668-3.1328 3.4883-4.6875 5.2969l-0.9375 1.0703c-2.1836 2.5859-4.293 5.2109-6.3945 7.8281h0.003907c-4.7539 6.2461-9.9766 12.117-15.629 17.559-7.0938 6.5859-15.844 11.125-25.312 13.125-6.1445 1.2734-12.449 1.6094-18.695 0.99219-1.7109-0.15234-3.4023-0.46875-5.0508-0.9375 1.1914-0.42187 3.4492-0.9375 5.625-1.4062 5.5859-1.1445 11.102-2.6133 16.516-4.4062 7.9883-2.7578 15.211-7.3594 21.086-13.434 4.2305-4.5273 8.2031-9.2852 11.898-14.258 2.8125-3.5898 5.625-7.3047 8.7852-11.023l0.81641-0.9375c1.7266-2.0156 3.3555-3.918 5.1367-5.7461l0.89062-0.9375c0.65625-0.71094 1.293-1.4141 2.2891-2.3438 0.42188-0.35547 0.79688-0.69531 1.1641-1.0391l-0.003907-0.003906c0.64844-0.62891 1.3438-1.2148 2.0703-1.7539 0.69531-0.53906 1.418-1.043 2.1641-1.5078l0.9375-0.58203-0.52344-1.0039c-10.379-18.805-46.086-5.25-69.723 3.75-5.6758 2.3398-11.484 4.3398-17.398 5.9922-3.7734 0.78125-7.6133 1.2188-11.465 1.3008l-2.0898 0.066406 1.1328 1.7539c0.69531 1.0547 1.3203 2.1523 1.875 3.2891 4.3789 10.969 5.3594 23 2.8125 34.527-0.70312 5.2461-1.1328 10.527-1.2852 15.816-0.042969 1.9258-1.1172 3.6758-2.8125 4.5859-1.5898 0.92969-3.5586 0.92969-5.1484 0-6.8984-4.0234-15.938-8.1562-25.539-12.516-33.273-15.18-74.672-34.051-73.66-68.156v-1.0703l-1.0586-0.13281c-12.262-1.5-24.637-3.5703-36.617-5.625-12.777-2.1367-25.996-4.3516-39.113-5.8789l-1.2734-0.14062v1.2734c-0.19531 7.0312-0.87109 14.211-1.5273 21.16v0.003906c-1.5117 11.895-1.9023 23.91-1.1719 35.879 1.7148 18.766 4.9492 37.367 9.6641 55.613 10.406 39.758 32.148 68.852 70.492 94.305 53.438 35.391 118.21 43.461 180.86 51.262l12.188 1.5195v-0.003906c38.953 5.293 78.195 8.1641 117.5 8.5898 90.59 0 175.08-20.117 224.93-91.875zm-554.23-134.44c0.57031 0.79688 1.1992 1.7422 1.9883 2.9453l0.36719 0.58203c0.27344 0.44141 0.5625 0.9375 0.98438 1.5078l1.5391 1.7266h-0.003907c6.457 7.6758 14.195 14.176 22.875 19.207 9.168 5.625 20.137 11.25 32.812 17.812l7.2383 3.75c15.395 7.8828 32.391 15.797 50.531 23.504 36.164 15.129 73.25 27.965 111.03 38.438 9.7969 2.8125 18.535 5.3906 22.191 6.9375-2.8945-0.0625-5.7812-0.27734-8.6562-0.63672-10.277-1.0977-20.484-2.793-30.57-5.0703-33.477-7.207-66.191-17.602-97.688-31.043-17.363-7.3594-34.34-15.598-50.867-24.684-13.562-7.2852-26.711-15.324-39.375-24.074-8.8359-5.9492-16.184-13.848-21.488-23.082l-0.054687-0.11328c-0.30859-0.49609-0.58984-1.0039-0.87109-1.5l-0.375-0.63672c-0.1875-0.53516-0.35547-1.0859-0.51562-1.6016l-0.30078-0.9375c-0.35547-1.1055-0.66406-2.0703-0.86328-2.9258v-0.1875zm50.559 103.31-0.64844-0.75781-0.085938-0.11328c0.79688 0.57031 1.707 1.2188 2.6172 1.875 13.766 10.312 28.766 18.863 44.656 25.453 19.648 8.1445 39.887 14.805 60.531 19.922 21.664 5.4922 47.477 10.922 76.734 16.145l4.2852 0.74219c5.3984 0.9375 10.77 1.8555 16.105 2.7578 5.0625 0.68359 10.098 1.3594 15.055 2.0078l4.5742 0.60938c4.125 0.65625 8.2578 0.9375 12.262 1.2578 2.3047 0.16797 4.6016 0.33594 6.9102 0.58203 6.3555 0.54297 12.328 0.9375 18.367 1.0117 6.0391 0.074219 11.793 0.27344 17.504 0.375 4.7812-0.27344 9.4297-0.49609 13.941-0.73047l2.457-0.12109v-0.007813c6.9609-0.22266 13.898-0.90625 20.766-2.0547 2.9531-0.42188 5.832-0.84375 8.6719-1.1641 0.69531-0.10156 1.3672-0.1875 2.043-0.27344v0.003906c1.543-0.15625 3.0781-0.39844 4.5938-0.72266 2.0898-0.47656 4.1328-0.9375 6.0859-1.4453 3.6094-0.76953 7.0391-1.5547 10.312-2.2969l0.9375-0.21484v0.003906c4.7695-0.92187 9.4688-2.1758 14.062-3.75 1.3594-0.42969 2.6523-0.84375 3.8906-1.2188 5.8047-1.7734 9.375-2.7383 11.523-3.2344-1.9414 1.0859-5.2109 2.7383-10.742 5.2891l-2.2422 1.0234-0.003906-0.003907c-4.8789 2.4062-9.957 4.3906-15.176 5.9336-2.2578 0.68359-4.5938 1.4062-7.0391 2.1641l-4.2578 1.3125-4.7734 1.4531-1.3672 0.42188c-1.3516 0.36719-2.7578 0.63672-4.1914 0.9375-0.79688 0.14844-1.6133 0.30078-2.3906 0.46875-2.4375 0.42969-4.9492 0.9375-7.5 1.4336v0.003907c-7.3906 1.6484-14.891 2.7578-22.445 3.3164-1.7891 0.14844-3.6094 0.32812-5.4453 0.50781-3.75 0.35547-7.5 0.73047-11.383 0.9375-2.9492 0-5.9375 0.019532-8.9609 0.054688l-9.0078 0.046875c-6.2578 0.10938-12.516-0.10547-18.75-0.63672-2.1953-0.17969-4.4141-0.30859-6.6484-0.44141-4.2266-0.24219-8.5977-0.48828-12.965-1.1641-5.2188-0.625-10.504-1.2812-15.852-1.9688l-4.3594-0.54297c-5.1094-0.76953-10.246-1.6602-15.449-2.5586l-4.9766-0.86328c-29.465-5.2891-54.758-10.922-77.336-17.211h-0.003906c-20.902-5.7266-41.25-13.32-60.797-22.688-13.27-6.3359-25.594-14.484-36.617-24.215-2.7344-2.3008-5.2383-4.8633-7.4727-7.6523z"/>
  <path d="m66.355 700.62 0.83594 0.09375c11.859 1.4805 23.98 3.75 35.711 5.9336h-0.003906c20.516 4.4961 41.402 7.0938 62.391 7.7656 2.9531 0 5.9062-0.074218 8.8594-0.24219v-0.003906c15.867-1.3555 31.59-4.0156 47.016-7.957 7.5742-1.707 15.414-3.4961 23.176-4.9141l6.3945-1.1719-6.3945-1.1328c-10.688-1.875-21.805-2.8789-32.57-3.8164h0.003907c-13.422-0.87891-26.77-2.6602-39.949-5.3359-4.1992-0.9375-8.4375-1.9492-12.637-2.9453-28.969-6.8828-58.93-13.969-88.734-7.1797l-0.47656 0.11328-0.25391 0.41406c-3.7539 5.7773-5.0273 12.82-3.5352 19.547z"/>
  <path d="m778.49 938.65c-2.4844-1.0859-4.3047-1.875-5.25-2.3047-9.8984-4.4922-20.109-8.8672-30-13.125-17.297-7.4141-35.184-15.086-52.133-23.719l-0.9375-0.46875-0.58203 0.84375h-0.003906c-8.4844 12.199-18.309 23.414-29.285 33.43l-1.2188 1.1172 1.4531 0.78906c4.4531 2.3711 9.1602 4.332 13.715 6.2266v-0.003906c4.9492 1.9609 9.7852 4.1836 14.492 6.6641 1.2148 0.65234 2.1953 1.6602 2.8125 2.8906l0.23437 0.30859c1.2617 1.207 2.0195 2.8477 2.1094 4.5938 0.19531 3.75 0.13672 7.5078-0.17578 11.25-1.4062 6.2578-0.27734 12.824 3.1406 18.254 4.2305 3.6445 9.7539 5.4258 15.316 4.9492h3.8164c9.4297 0 18.883-0.65625 28.059-1.3047 2.4648-0.16797 4.9414-0.34766 7.4336-0.50781 12.414-0.83594 24.648-0.65625 36.469-0.48828l0.003907 0.003906c23.055 1.4609 46.195-0.57812 68.641-6.0391l1.5469-0.44141-0.9375-1.332c-6.0547-9.1016-47.84-28.094-78.719-41.586z"/>
  <path d="m1145.8 215.52c-52.961 39.047-105.82 79.949-156.93 119.51-63.469 49.117-129.1 99.91-195.48 147.57l-0.72266 0.52344 0.30859 0.83594h0.003906c1.1484 3.082 2.5977 6.043 4.3281 8.8398l0.66406 1.0586 1.0234-0.73047c16.273-11.746 33.496-22.762 50.156-33.422 18.648-11.926 37.93-24.262 56.055-37.715 16.969-12.582 33.945-25.727 50.352-38.438 16.031-12.414 32.605-25.258 49.164-37.547 15.094-11.164 30.938-21.816 46.211-32.09 13.012-8.7578 26.465-17.812 39.375-27.188 26.023-18.75 50.98-40.152 57.289-70.07l0.63672-3.0195z"/>
  <path d="m283.47 726.95c4.0039-1.3789 8.0625-2.8125 12.188-4.0977l5.5039-1.7344-5.7383-0.54297c-8.6016-0.50391-16.875-3.4766-23.832-8.5586l-0.32031-0.24219h-0.33594c-0.25 0-0.5 0.039063-0.74219 0.11328-16.176 1.168-32.203 3.8711-47.867 8.0703-3.6094 0.85156-7.2188 1.707-10.828 2.5117l-2.6328 0.58984 2.2305 1.5195c9.8906 7.1641 21.77 11.062 33.984 11.156 13.195-0.76953 26.172-3.7383 38.391-8.7852z"/>
  <path d="m77.082 664.57c28.547-3.957 57.273 2.625 85.031 9l5.0625 1.1641v-0.003907c14.547 3.0156 29.258 5.1523 44.062 6.3945 21.934 1.2773 43.594 5.5273 64.387 12.629l0.84375 0.32812 0.52344-0.72266c3.9336-5.4375 5.75-12.125 5.1094-18.805-0.042968-0.83203 0.054688-1.6641 0.28125-2.4648v-0.3125c-0.027343-2.3477 1.1523-4.5508 3.125-5.8281 21.684-14.512 30.816-37.754 39.648-60.227 0.9375-2.4375 1.875-4.8828 2.8867-7.3125l2.625-6.5625-6.8711 8.0078c-1.5391 1.7891-3.0742 3.5898-4.6875 5.4297l-0.003906-0.003906c-9.0195 10.512-18.863 20.285-29.438 29.23-8.6797 7.3281-18.223 13.566-28.414 18.582-6.8438 3.3594-14.09 5.8242-21.562 7.332-2.1016 0.30859-3.6289 0.47656-4.7422 0.57031 1.0312-0.44141 2.4844-1.0117 4.5195-1.7539l2.0352-0.87109h-0.003906c6.1797-2.5078 12.168-5.4766 17.906-8.875 9.4336-5.6016 18.285-12.129 26.418-19.492 10.02-9.1016 19.453-18.832 28.238-29.129 4.875-5.5234 9.5352-10.875 14.062-16.125l1.3672-1.5742-2.0547-0.34766-0.42969-0.09375-0.46875-0.12109c-7.1406-1.043-14.387-1.1758-21.562-0.39453-5.3633 0.47656-10.492 1.1172-15 1.6797-3.2539 0.40234-6.3086 0.77734-9.1797 1.0703l0.003906-0.003906c-6.1016 0.81641-12.273 0.99609-18.414 0.53516 1.3398-0.30078 3.0469-0.62891 4.8086-0.9375 3.5078-0.67578 7.875-1.5195 13.125-2.7266 1.543-0.32031 3.1562-0.66406 4.8359-1.0312 5.625-1.2188 12.039-2.6055 19.258-3.6641 1.2109-0.1875 2.5117-0.32031 3.8047-0.46094l4.8008-0.52344-2.5312-1.7812 0.003907-0.003906c-13.715-10.539-25.578-23.281-35.109-37.715-0.30859-0.47656-0.58984-0.9375-0.86328-1.3789l-1.9492-2.6445-0.80469 2.2578-0.003906 0.003906c-1.7461 3.2695-4.0234 6.2266-6.7383 8.7461-2.4375 2.3711-4.8203 4.3594-6.9102 6.1016v0.003907c-2.0352 1.6172-3.9688 3.3594-5.793 5.2109-2.582 2.6016-4.6875 5.6289-6.2266 8.9531l-0.44141 0.9375c-0.21484 0.46875-0.44922 0.9375-0.66406 1.3867-0.11719-0.82031-0.14844-1.6484-0.09375-2.4727 0.30469-4.1055 1.7773-8.0352 4.2461-11.328 2.1641-2.9883 4.5938-5.7773 7.2656-8.3242 1.4453-1.5 2.9141-3 4.3125-4.5664 2.1211-2.3047 3.8984-4.9023 5.2773-7.7148 0.11328-0.375 0.33594-0.9375 0.58203-1.4727 0.47656-0.99219 0.84375-2.0312 1.0977-3.1016 0.20703-0.5625 0.375-1.1406 0.50391-1.7266l0.24219-0.9375-0.19531-0.39453c-16.445-33.891-6.0664-66.113 9.1953-104.72l0.46094-1.1641-1.1797-0.39453c-49.031-15.938-107.81 18.75-136.26 61.633v0.003906c-9.7461 16.066-16.488 33.773-19.902 52.254-2.2578 9.1875-4.5859 18.684-7.9141 28.191-1.7539 4.9688-3.5898 9.8906-5.418 14.793-8.4414 19.547-13.793 40.289-15.852 61.484-0.003906 0.5-0.082031 1-0.22656 1.4805l-0.085937 0.28125 0.054687 0.28906h0.003907c0.76953 2.8711-0.46484 5.9023-3.0195 7.4258-3.6602 1.2734-6.8281 3.6719-9.043 6.8555-2.2188 3.1836-3.3711 6.9844-3.293 10.863l0.074219 1.2734zm139.08-191.93c4.8086-2.9688 10.137-4.9961 15.703-5.9844-0.87109 0.62891-2.1172 1.4453-3.3477 2.2422-2.625 1.707-6.2148 4.0508-10.152 7.0977-11.617 9.2812-22.312 19.664-31.934 31.004-5.625 6.4414-11.035 12.805-15.77 18.422-4.9609 5.8672-9.6367 11.418-13.633 15.852h0.003906c-3.5742 4.2852-7.5508 8.2148-11.879 11.738 2.5586-4.9414 5.4648-9.6914 8.6914-14.223 8.4023-12.652 17.602-24.754 27.543-36.234 9.8711-11.812 21.617-21.922 34.773-29.914zm-67.828 152.31c7.0469-3.4023 13.828-7.3281 20.285-11.746 1.8828-1.3203 3.6406-2.8047 5.2617-4.4336 1.1445-1.1055 2.6797-3.3477 2.4648-4.4922l-0.16797-0.68359-0.32031-0.14062c-0.9375-0.99609-2.0859-1.7734-3.3633-2.2695-2.4219-1.0117-4.9336-1.7891-7.5-2.3242l-4.8203-1.1914 2.9141-3.8906c1.0703-1.457 2.1406-2.9297 3.2148-4.4141 2.3984-3.3203 4.8672-6.7422 7.5-10.07h0.003907c14.164-18.898 30.746-35.859 49.32-50.445 6.8711-5.3398 14.523-9.5898 22.688-12.602-0.9375 0.72266-2.1289 1.5859-3.3477 2.457-5.8125 4.1328-11.398 8.5742-16.734 13.305-16.992 15.723-32.559 32.922-46.52 51.395-2.1367 2.5977-4.1172 5.2305-6.0273 7.7891l-1.9883 2.625 2.3711 0.9375h0.003906c0.56641 0.19531 1.1211 0.42188 1.668 0.67578 1.5508 0.69531 2.9766 1.6445 4.2188 2.8125 3.2852 2.6992 3.9492 7.4727 1.5273 10.969-0.80078 1.332-1.7812 2.5469-2.9141 3.6094-1.9609 1.8477-4.1016 3.4961-6.3867 4.9219-7.4922 4.4961-15.402 8.2617-23.613 11.25-6.2422 2.3867-12.656 4.2852-19.191 5.6797 2.4375-1.3672 6.5625-3.3945 11.148-5.625 2.043-0.99219 4.2617-2.082 6.6562-3.2617zm13.781 28.125c0.86328-0.085937 1.7539-0.12109 2.6328-0.16797 1.5742-0.015625 3.1445-0.17969 4.6875-0.48828 0.9375-0.1875 1.875-0.34766 2.8125-0.50781v0.003906c1.4297-0.19922 2.8477-0.48047 4.2461-0.84375 2.0352-0.60156 4.1055-1.2266 6.1797-1.875l1.7422-0.52344v-0.003907c9.3164-3.5977 18.27-8.0742 26.738-13.367 5.3359-3.168 10.312-6.3555 14.758-9.1797 2.2891-1.457 4.4766-2.832 6.5625-4.125 5.7383-3.8281 11.773-7.1992 18.047-10.078-3.0547 3.1406-11.035 9.582-15.711 13.359-6.0664 4.8086-12.73 9.9766-20.445 15.121l-0.003906 0.003907c-8.7578 6.0039-18.199 10.941-28.125 14.719-1.5195 0.44141-3.0469 0.89062-4.5664 1.3516l-3.2266 0.9375 0.003906-0.003906c-1.8828 0.46484-3.7891 0.82031-5.7109 1.0703l-2.6797 0.41406v-0.003907c-1.7188 0.29297-3.4609 0.42188-5.2031 0.38672-0.9375 0-1.7891 0-2.6797 0.074219h-0.003906c-2.0547 0.089844-4.1133 0.035156-6.1602-0.16016l-1.3398-0.10156c-8.5117-0.69922-16.941-2.1758-25.18-4.418-5.043-1.293-15.695-4.0391-19.922-5.7266 6.9102 0.027344 13.809 0.61719 20.625 1.7617l3.3281 0.42969v0.003906c7.0938 1.0586 14.242 1.7031 21.41 1.9297 2.3906 0.19141 4.793 0.20312 7.1836 0.039062z"/>
 </g>
</svg>
