<?xml version="1.0" encoding="UTF-8"?>
<svg width="1200pt" height="1200pt" version="1.1" viewBox="0 0 1200 1200" xmlns="http://www.w3.org/2000/svg">
 <g fill="#000">
  <path d="m412.98 410.5 1.7539 0.74219c1.1523 0.48828 2.2891 0.99219 3.4219 1.5 2.625 1.1719 5.2422 2.3359 7.9609 3.2812l1.5859 0.60156-0.003907-0.003906c3.1367 1.4141 6.5 2.2656 9.9297 2.5117 1.1875 0.019531 2.3672-0.1875 3.4766-0.60938 1.1289-0.40234 1.8984-1.4531 1.9414-2.6523 0.17969-3.9453-9.1484-9.9453-9.2148-9.9766-5.2617-2.918-11.156-4.5078-17.176-4.6289l-1.875 0.046875z"/>
  <path d="m557.95 433.24c2.5781-2.2305 5.3164-4.1914 8.5508-6.4961l2.7109-1.9414-2.7383-1.875h-0.003906c-3.4336-2.3633-6.4688-5.2578-8.9883-8.5781l-3.8516-5.1094-0.35547 6.3828h-0.003906c-0.45703 5.4688-0.17188 10.977 0.84375 16.371l0.83594 3.8711z"/>
  <path d="m429.13 461.25c10.047-1.0703 19.766-4.1992 28.547-9.1953 4.1875-2.1172 8.5117-3.9531 12.945-5.4961 16.93-5.1641 36.133-11.023 39.742-31.031l0.75-4.1172-3.8984 1.5195h-0.003906c-9.7891 4.0078-19.992 6.9062-30.422 8.6562l-0.73047 0.11328-0.54297 0.51562v-0.003906c-14.332 12.355-30.5 22.41-47.918 29.805l-11.363 5.625 4.6211 2.0156h0.003906c2.6133 1.1016 5.4297 1.6445 8.2695 1.5938z"/>
  <path d="m415.67 384.66 0.16797 2.457c0.125 1.7773 0.125 3.5625 0 5.3438l-0.16016 2.3906 2.3984 0.10156h0.003906c8.6836 0.79297 17.012 3.8359 24.16 8.832l2.3711 1.7422 1.1719-2.6992c0.83203-1.7148 1.1914-3.6211 1.0391-5.5195-0.42969-3.5352-4.0117-6.5625-10.594-8.9141v-0.003906c-5.7383-2.3945-11.883-3.668-18.102-3.75z"/>
  <path d="m411.72 420.77c-0.42969 4.8047 0.36328 9.6445 2.3047 14.062l0.75781 1.6328 1.7734-0.30859c1.5469-0.28125 6.7227-1.4531 8.2109-5.1289l0.003907-0.003906c0.73047-1.9062 0.37109-4.0586-0.9375-5.625-2.3594-2.8164-5.3281-5.0586-8.6836-6.5625l-3.2266-1.6797z"/>
  <path d="m441.56 873.04c-4.1055-1.1914-8.4375-2.3359-12.797-3.5078-17.055-3.5625-33.453-9.75-48.609-18.336l-1.9297-1.2734-1.293 1.875c-8.2891 12.188-5.8789 19.098-2.4375 22.707l-0.003906-0.003906c0.5 0.57812 0.9375 1.207 1.3047 1.875l0.58203 0.66406c1.6641 1.3164 2.5898 3.3555 2.4844 5.4766v6.6641l1.5938 0.53516c6.7188 2.2227 13.762 3.332 20.84 3.2812 19.172-1.2617 37.969-5.9219 55.508-13.762l14.766-5.5781-15.75 1.0508c-4.8125 0.29297-9.6406-0.27344-14.258-1.668z"/>
  <path d="m643.83 454.03-1.0586-9.957-3.4688 9.375c-1.332 3.7969-3.0547 7.4453-5.1367 10.887-1.082 1.7734-2.3164 3.4531-3.6875 5.0156l-2.3906 2.7188 3.4609 1.0703v-0.003906c3.6641 1.1953 7.4297 2.0508 11.25 2.5508l2.8125 0.32031-0.16016-2.8125c-0.36328-6.0312-0.91016-12.5-1.6211-19.164z"/>
  <path d="m467.04 411.44 1.1992-1.4805c0.83203-2.4609 1.9219-4.8281 3.2422-7.0625l0.32031-0.61719v-2.1094l-0.48828-0.63672c-7.4453-8.5469-16.328-15.723-26.25-21.207-1.8086-1.1445-3.6094-2.2773-5.3906-3.4297l-0.9375-0.58203-1.0312 0.30078c-1.4609 0.44922-2.9414 0.82031-4.4414 1.1133l-9.7695 1.8008 9.543 2.7578c4.1289 1.1523 8.0664 2.9062 11.691 5.2031 8.9727 5.625 10.266 13.125 4.332 24.75l-0.44141 0.87109 0.30859 0.9375c0.94922 3.0273 0.44141 6.3242-1.3789 8.9258l-2.5234 4.125-5.418 0.53516v-0.003907c-1.8242 0.14453-3.6602 0.027344-5.4531-0.33594l-2.7461-0.47656v2.8125c0 0.32031 0 0.62891 0.046875 0.9375 0.046875 0.30859 0 0.41406 0 0.42969l-1.2852 6.7109 4.2383-2.1758c2.1641-1.1055 4.332-2.2891 6.5078-3.4688l1.6016-0.87109-0.36719 0.58984 3.8633-2.4922 5.0352-2.7461-0.9375 0.09375 0.66406-0.44141c5.832-3.6992 11.281-7.9766 16.266-12.758z"/>
  <path d="m615.57 481.88-2.8125-1.0508c-2.7695-0.96484-4.6562-3.543-4.7344-6.4766l-0.054688-0.9375-0.71094-0.64844c-0.64844-0.58984-1.3047-1.1719-1.875-1.7617l-0.70312-0.70312h-0.99609c-7.375 0.24609-14.758-0.066406-22.086-0.9375l-2.5586-0.34766-0.10156 2.5781c-0.49609 12.629 0.24219 25.258 9 32.117l-0.003906 0.003907c4.8672 3.9922 10.965 6.1875 17.262 6.2148 1.7383-0.003906 3.4727-0.16406 5.1836-0.48047 10.414-2.2852 19.391-8.8359 24.75-18.055l1.6133-2.7109-3.0547-0.76953-0.003906 0.003906c-6.1445-1.6719-12.191-3.6875-18.113-6.0391z"/>
  <path d="m386.8 795.7h0.9375c4.3867 0.17969 8.7656 0.46875 13.125 0.75 5.8672 0.38281 11.738 0.76953 17.633 0.9375 0.77734 0 1.9883 0.10156 3.4688 0.20703 3.8438 0.26172 7.7812 0.47656 11.477 0.47656 9.1406 0 16.828-1.332 18.133-6.5625h-0.003906c2.168-8.5938 3.7656-17.316 4.7812-26.121l0.82422-7.7148c1.3125-12.375 2.6641-25.172 4.9883-37.613l0.44922-2.3516-2.3711-0.38281c-3.582-0.58984-7.3125-1.3867-12.094-2.6055l-2.4766-0.61719-0.42188 2.5117c-0.77734 4.6875-1.6016 9.375-2.4297 14.117-2.2969 13.199-4.6875 26.852-6.1875 40.426l0.003906-0.003906c0.039063 1.793-1.3203 3.3047-3.1016 3.4531-7.7734-0.20312-15.555 0.042969-23.297 0.73828-12.539 1.5781-25.25 1.125-37.641-1.3477l-2.9336-0.76953-0.066407 7.4062c0.054688 14.371 6.1484 14.605 17.203 15.066z"/>
  <path d="m614.76 413.1c-0.64844 0.16797-1.2734 0.36719-1.875 0.5625-0.9375 0.27344-1.8203 0.55469-3.168 0.88281l-0.003906-0.003906c-0.59375 0.27734-1.2266 0.47266-1.875 0.58203h-0.054688c-5.1719 0.84766-10.461 0.58984-15.523-0.75l-1.4453-0.375-0.9375 1.1523c-0.33984 0.42969-0.79688 0.75781-1.3125 0.9375-2.293 1.168-4.2539 2.8945-5.7109 5.0156-0.66016 0.87109-1.3906 1.6914-2.1836 2.4492-2.418 2.1172-4.9492 4.1055-7.5 6.0078l-0.62891 0.44922c-4.5898 3.1211-8.918 6.6133-12.945 10.434l-1.4609 1.4609 1.2656 1.6406c8.9336 11.523 23.805 13.125 37.828 13.125 2.8125 0 5.6797-0.066406 8.4375-0.13281h1.3047l0.66406-1.125v0.003907c7.2695-12.094 10.801-26.066 10.152-40.16l-0.14062-2.9062z"/>
  <path d="m541.03 402.63 0.09375-3.5078-3.2734 1.2656c-5.625 2.1562-11.691 4.6875-19.086 7.8359l-1.3672 0.58984-0.046876 1.4922c-0.03125 6.8203-1.9844 13.496-5.6328 19.258-3.6445 5.7656-8.8438 10.383-14.992 13.332l-2.9258 1.125 3.9766 4.293 1.3594-0.50781c13.734-5.1484 27.43-9.9453 40.312-14.43l1.7617-0.61719-0.20703-1.875c-0.60938-7.1719-0.67969-14.379-0.21484-21.562 0.14844-2.2031 0.14844-4.4414 0.24219-6.6914z"/>
  <path d="m444.8 600.86c0.30078-11.719 0.60937-23.832 1.3516-35.625l0.9375-15.281-5.4766 14.297c-6.3906 15.895-10.457 32.629-12.074 49.688-0.69922 11.328-0.69922 22.691 0 34.02 0.57031 9.9922 0.64062 20.004 0.20703 30-1.9414 31.434-19.5 32.867-47.812 32.484h-1.7266l-0.53516 1.6406c-1.7266 5.3242-3.3086 11.25-4.8555 18.039l-0.62891 2.8125 2.8594 0.074219h0.003907c6.9375 0.41016 13.402 3.6562 17.875 8.9727 6.1289 6.6641 9.3359 15.5 8.918 24.543l-1.0859 3.3359 8.3516-0.68359c6.1484-0.51563 11.961-1.0117 17.605-1.0586h2.043l0.26172-2.0234c1.6016-12.59 3.75-25.312 5.8984-37.641 0.9375-5.625 1.875-11.176 2.8125-16.762l0.13281-0.83594-0.42188-0.72266c-0.64844-1-1.0039-2.1562-1.0312-3.3477 0.011719-20.059 1.0938-40.102 3.2344-60.047 1.3398-15.016 2.7266-30.523 3.1562-45.879z"/>
  <path d="m575.35 575.21c0.12109-6.7695 0.25391-13.527 0.48828-20.258l-0.42188-2.3984h-2.418c-36.723-8.8164-75.203-6.9023-110.87 5.5117l-1.4727 0.49609-0.12109 1.5469c-0.64844 8.6914-1.0234 17.418-1.293 24.805l-0.11328 3.0664 2.9805-0.69531v0.003906c36.113-8.9414 73.723-10.039 110.3-3.2266l2.7578 0.5625z"/>
  <path d="m422.22 514.21c-6.8594 11.273-12.328 23.336-16.285 35.922l-1.0312 3.0547h3.2266v0.003906c6.4023 0.3125 12.758 1.3203 18.945 3l3.375 0.78906 0.73047-1.875c5.1172-13.219 11.25-26.391 16.473-37.5l1.7422-3.6953-4.0703 0.35547h0.003906c-6.8906 0.6875-13.844 0.32812-20.625-1.0703l-1.6133-0.38281z"/>
  <path d="m567.23 400.89-0.58203-0.32031c-0.94141-0.37891-1.7812-0.98047-2.4453-1.7539l-6.0859-5.0703-0.25391 4.5469c0.90234 9.2695 6.6719 17.355 15.141 21.227l1.5859 0.9375 1.2656-1.3047c1.8008-1.875 3.6758-3.6758 5.5391-5.3633l2.4766-2.2422-2.9531-1.5664v0.003906c-4.8047-2.6523-9.3828-5.6953-13.688-9.0938z"/>
  <path d="m374.61 739.49-1.6406 0.28125-0.26172 1.6484c-1.2578 7.7617-2.1094 15.586-2.5508 23.438l-0.10156 1.7812 1.6953 0.57031c6.8633 2.1523 14.027 3.1797 21.215 3.0391h2.3906l2.5859-0.62891-0.42188-2.6523h0.003906c0.19531-8.6875-3.2266-17.07-9.4492-23.137-3.543-3.5078-8.543-5.1211-13.465-4.3398z"/>
  <path d="m402.59 560.45c-1.125 3.6055-2.2383 7.2227-3.3359 10.848-1.7734 5.8047-3.5547 11.617-5.4453 17.41l-0.86328 2.6641 2.8125 0.38281c5.8555 0.98828 11.629 2.4375 17.258 4.332l5.5586 1.6797 0.48828-2.4492c2.1523-10.098 4.9375-20.047 8.3438-29.793l0.85156-2.457-3.75-0.87109c-5.3984-1.4922-10.957-2.3477-16.555-2.5508-0.68359 0.019531-1.3594-0.14453-1.9609-0.47656l-2.5312-1.4922z"/>
  <path d="m547.88 451.45c-0.76953-1.2383-1.4141-2.418-2.0625-3.6562l-0.9375-1.8008-1.875 0.66406c-6.6641 2.3242-13.48 4.6211-20.383 6.9453-4.8203 1.625-9.6641 3.2656-14.539 4.9219l-9.5078 3.2539 13.621 1.7617c16.07 2.0703 32.672 4.2109 48.75 7.7891l2.3164 0.51562 0.48828-2.3164c0.16797-0.75781 0.38281-1.5078 0.63672-2.4375l0.54297-1.875-1.8008-0.84375 0.003906 0.003906c-6.2461-2.7109-11.555-7.2109-15.254-12.926z"/>
  <path d="m632.46 521.76c-6.2227 1.7109-12.543 3.0508-18.926 4.0117-7.0625 1.0312-14.039 2.5508-20.891 4.5469l-1.4453 0.46094-0.1875 1.5c-0.48828 4.2266-0.9375 8.4375-1.2266 12.656l-0.20703 2.7578 2.7578-0.25391c4.6875-0.42969 9.2812-0.9375 13.922-1.3594 11.117-1.1172 22.613-2.2695 33.945-2.8789l1.9961-0.10156 0.20703-1.9883 0.003906-0.003906c0.039063-0.32031 0.11719-0.63672 0.23438-0.9375l0.47656-1.2578-0.84375-1.0391c-3.3633-4.1836-5.7109-9.0938-6.8516-14.344l-0.53516-2.4648z"/>
  <path d="m574.36 609.18c0.30859-5.4375 0.49609-10.875 0.61719-16.367l-0.1875-2.3516h-2.3984v-0.003907c-37.082-7.0586-75.27-5.7773-111.8 3.75l-1.7148 0.42188-0.066406 1.7734c-0.1875 5.0352-0.36719 10.059-0.60938 15.121l-0.046875 0.75781c-0.23438 3.6758-0.46875 7.4062-0.75 11.137l-0.21484 2.8125 2.8125-0.32031v0.003906c29.781-2.7695 59.711-3.625 89.605-2.5703 7.2266 0.09375 14.477 0.19531 21.723 0.24219h2.25l0.10156-2.25c0.16797-3.8242 0.40234-7.6602 0.63672-11.539z"/>
  <path d="m423.59 499.01 5.418 0.9375c8.0234 1.25 16.203 1.0859 24.172-0.48828l0.77734-0.28125c0.35547-0.19531 0.71094-0.40234 1.0039-0.53516v0.003907c23.305-7.8555 48.238-9.6016 72.41-5.0742 11.305 1.5312 22.379 4.457 32.965 8.7109l4.1719 1.6484-1.0312-4.3672c-0.96875-4.0586-1.5273-8.207-1.6602-12.375l-0.066406-2.2773h-2.2773c-0.27734-0.007812-0.55078-0.03125-0.82422-0.066406-16.039-3.6953-32.551-5.832-48.516-7.9023-11.25-1.4453-22.82-2.9453-34.07-4.9609-0.44531-0.070313-0.88281-0.1875-1.3047-0.34766l-0.9375-0.39453-0.9375 0.38281v0.003906c-13.18 5.3906-25.898 11.844-38.031 19.301-1.7812 1.125-3.4609 2.3516-5.1367 3.582z"/>
  <path d="m530.77 665.86c1.875 0.10156 5.1094 0.58203 8.832 1.1328 6.6602 1.1641 13.391 1.875 20.145 2.1211 3.2305 0.27734 6.4688-0.41797 9.3008-1.9961 1.1562-0.83203 2.082-1.9375 2.6992-3.2188 2.4961-7.6641 3.1094-15.82 1.793-23.773-0.21484-3.1211-0.41406-5.8125-0.33594-7.6953l0.085937-2.4102h-2.418c-7.6211-0.054687-15.262-0.16797-22.895-0.28906l-0.003906-0.003907c-29.816-1.1406-59.68-0.23828-89.371 2.7031l-1.875 0.23437-0.9375 10.258c-0.75 8.3438-1.5 16.68-2.1484 24.984l2.3359 0.17969 2.3359 0.1875-0.003906-0.003907c-0.007813 0.21484-0.085938 0.41797-0.21484 0.58984 3.7305-3.7422 44.617-4.125 72.676-3z"/>
  <path d="m650.23 257.27c-0.78125 1.9141-0.57812 4.0938 0.54297 5.832 0.58203 1.0508 1.2188 2.1016 1.9961 3.3828l0.80469 1.3203 1.5273-0.21484c6.8711-0.9375 13.949-2.5234 20.785-4.0117h0.003906c9.7227-2.3906 19.609-4.0469 29.578-4.9492l13.125-0.81641-12.602-3.75c-1.6016-0.47656-3.1953-0.9375-4.8008-1.4805h0.003906c-10.941-4.6602-23.039-5.8789-34.688-3.4961-0.48828 0.14062-1.1445 0.30078-1.875 0.48828-6.2812 1.543-12.582 3.4297-14.402 7.6953z"/>
  <path d="m662.93 497.49-3.3555-0.77734 0.51562 3.4141c1.4727 9.8906 4.4258 15.254 9.0078 16.379 0.63672 0.14844 1.2891 0.22266 1.9414 0.22266 1.7148-0.011719 3.3867-0.53125 4.8086-1.4883 3.7148-2.9141 6.2148-7.0977 7.0234-11.75 0.31641-1.6133 0.53516-3.2422 0.65625-4.8828l0.30859-3.8711-3.5703 1.5273c-5.5078 2.207-11.57 2.6367-17.336 1.2266z"/>
  <path d="m612.71 459.21 1.3516 1.2734c2.2188 2.0977 4.543 4.0781 6.9648 5.9336l1.5391 1.1719 1.4453-1.3047-0.003907 0.003906c5.8984-6.9336 9.9219-15.266 11.684-24.199 2.2656-11.086 2.2344-22.523-0.09375-33.598l-0.62891-2.6719-2.5391 1.0391c-2.3516 0.9375-4.6875 1.875-7.0312 2.7266l-1.5547 0.5625v1.6484l0.16797 0.9375-0.003907 0.003906c1.2617 15.668-2.3594 31.344-10.367 44.867z"/>
  <path d="m681.05 481.27c-6.2812-0.089844-12.461-1.6094-18.066-4.4453l-3.6367-1.9961 0.16797 4.1445c0.12109 3.0391 0.17969 6.0547 0.12109 9.1406v1.7266l1.6328 0.54297c3.0234 1.0078 6.1875 1.5352 9.375 1.5664 2.6992 0.082032 5.3789-0.5 7.8008-1.6992 2.3867-1.2383 4.1328-3.4375 4.8008-6.0469l0.72266-2.8125z"/>
  <path d="m680.27 411.73-0.73047-3.9297-3.0742 2.5508h-0.003906c-5.3672 4.9336-12.672 7.1758-19.883 6.1055l-3.1016-0.68359 0.26172 3.168c0.24219 3.0391 0.5625 6.0859 0.9375 9.1328l0.14844 1.2109 1.0781 0.57031v-0.003907c3.9883 1.9531 8.3867 2.9141 12.824 2.8125 4.207 0.015626 8.3867-0.67578 12.367-2.043l1.7266-0.62891-0.1875-1.8203c-0.54687-5.3594-1.3438-10.863-2.3633-16.441z"/>
  <path d="m684.8 472.73c0-5.7383-0.12109-11.484-0.30859-17.23l-0.16797-4.9141-3.75 3.2148c-5.3125 4.543-11.637 7.7422-18.441 9.3281l-3.4219 0.82422 2.082 2.8125c2.5273 3.1914 5.8672 5.6445 9.668 7.0977 3.8047 1.457 7.9258 1.8672 11.941 1.1797h2.3633z"/>
  <path d="m639.96 325.86c0 5.625 0 11.25 0.12109 16.828l0.09375 3.5078 3.75-1.6875c2.6992-1.2109 5.3906-2.4102 8.1484-3.6094l1.3672-0.58203 0.09375-1.4258c1.3438-16.078-0.1875-32.27-4.5273-47.812l-0.89062-2.8125-2.5312 1.4727c-1.7422 1.0234-3.4883 1.9766-5.2773 2.8867l-1.4453 0.72266 0.16797 1.6016c0.83203 10.281 1.1445 20.598 0.92969 30.91z"/>
  <path d="m680.62 437.4c-7.0781 2.0586-14.57 2.2188-21.73 0.46875l-3.3477-0.85156 0.44141 3.4219c0.61719 4.7812 1.1641 9.6094 1.6484 14.445l0.27344 2.6797 2.6172-0.63672-0.003906 0.003907c8.7383-1.8672 16.457-6.9336 21.648-14.203 0.15625-0.19531 0.34375-0.36328 0.55469-0.5l1.293-1.0391-0.36719-1.5391v-3.1602z"/>
  <path d="m696.43 321.29-15.637 0.40234c-3.6562 0.10156-7.332 0.22656-11.016 0.14062l-2.5508-0.066406 0.16016 2.5391c0.11328 2.0234 0.11328 4.0391 0.054687 6.0664l-0.10156 3.7031z"/>
  <path d="m679.49 297.19c-4.1523 0.69531-8.3047 1.3789-12.461 2.0234l-2.3633 0.36719 0.41406 2.3516c0.72266 4.1719 1.2383 7.9141 1.5664 11.438l0.19531 2.0703 2.0703 0.054688c4.4805 0.13281 8.9727 0 13.473-0.046876v0.003907c8.1367-0.37891 16.289-0.085938 24.375 0.88281l0.66406 0.10156 0.62891-0.28125c12.188-5.3984 24.375-10.688 36.629-15.938l2.0547-0.9375-0.78906-2.0898c-0.39453-1.0391-0.84375-2.0156-1.3047-2.9922l-0.54297-1.1719-1.293-0.16016v0.003907c-21.203-1.6172-42.531-0.16016-63.316 4.3203z"/>
  <path d="m390.71 597.31-0.58203 1.6953c-0.52344 1.5273-1.125 3.0664-1.7734 4.5469v0.085938c-1.5742 4.0312-3.3281 8.1172-5.1016 12.262l-3.1602 7.4141 3.2617 0.24219 0.007812 0.003906c9.1211 0.84375 18.195 2.1523 27.188 3.918l4.2578 0.75781 0.13281-2.6523c0.1875-3.5547 0.41406-7.3594 0.9375-11.148 0.30859-2.5039 0.71094-4.8672 1.125-7.2852l0.54297-3.2266-5.4375-1.7812-0.003906 0.007813c-6.2734-2.3906-12.824-3.9648-19.5-4.6875z"/>
  <path d="m642.23 551.66-0.25391-2.1953-2.2031 0.12109c-11.324 0.60156-22.734 1.7422-33.75 2.8125-4.9219 0.49609-9.8516 0.99219-14.773 1.4453l-2.0156 0.1875-0.11328 2.0234c-0.30859 5.8594-0.48828 11.793-0.61719 17.719l-0.054687 2.9336 2.8789-0.58984h-0.003906c17.562-4.0117 35.41-6.668 53.383-7.9492l3.9648-0.1875-2.082-3.3828c-2.3906-3.9414-3.8789-8.3594-4.3594-12.938z"/>
  <path d="m600.8 169.54-1.4258 1.5391 1.3672 1.5859 0.003907-0.003906c4.3398 4.0312 9.5391 7.0273 15.203 8.7656l4.0312 1.5938c5.3828 2 10.633 4.3438 15.715 7.0117l1.0312 0.57031 1.0781-0.49609c12.758-5.8125 19.246-10.621 20.43-15.16h-0.003907c0.48047-1.7617 0.10547-3.6445-1.0117-5.0898-5.4453-6.5117-11.984-12.031-19.32-16.301-2.5977-1.7148-5.1758-3.4219-7.6133-5.2109l-1.1914-0.88281-1.3125 0.70312c-10.121 5.5664-19.242 12.793-26.98 21.375z"/>
  <path d="m674.27 270c-4.9961 1.1719-9.918 2.3242-14.691 3.2148l-2.8125 0.52344 1.0586 2.6523v0.003906c1.9375 4.8984 3.5898 9.9102 4.9492 15l0.54297 2.0234 2.082-0.32031c3.957-0.625 7.9062-1.25 11.852-1.875v0.003906c19.027-3.8359 38.418-5.6016 57.824-5.2695l5.2305 0.27344-3.2812-4.0859v-0.003906c-4.7891-5.7266-10.008-11.074-15.617-16.004l-0.49609-0.44141-0.63672-0.13281v0.003906c-15.477-1.7109-31.141-0.20312-46.004 4.4336z"/>
  <path d="m734.75 494.38-3.1133 0.50781v-0.003906c-4.4414 0.6875-8.9414 0.92188-13.434 0.70312l-3.0742-0.11328 0.70312 3c1.7031 7.1094 1.125 14.574-1.6484 21.34-7.9766 16.57-24.023 27.777-42.328 29.559-4.1562 0.41797-8.3477 0.16406-12.422-0.75l-3.75-0.85156 0.9375 3.7031c1.1055 4.2227 3.4062 8.0391 6.625 10.992s7.2188 4.9141 11.523 5.6562c2.8516 0.66406 5.7734 0.99219 8.6992 0.98438 11.363 0.13672 22.258-4.5234 30-12.844 15.477-18.066 18.102-37.762 20.898-58.762z"/>
  <path d="m739.75 478.99 0.55469-0.23438h-0.003906c1.9062-1.0391 3.6562-2.3359 5.2031-3.8555 8.1719-8.1016 13.539-18.605 15.316-29.973 1.7812-11.371-0.12109-23.012-5.4258-33.223l-0.47656-0.9375-1.0508-0.27344c-8.6445-2.2422-17.512-3.75-26.09-5.2695l-7.7734-1.3516 4.9688 5.1562v0.003906c4 4.2695 7.6328 8.8672 10.859 13.742 3.3203 5.0625 5.4922 8.6172 6.9102 11.102-2.1641-2.043-5.1016-5.0625-8.9531-9.4297l-1.875-2.0234-0.003907-0.003906c-4.1719-4.75-8.7383-9.1406-13.648-13.125-4.4453-3.7969-9.8242-6.3398-15.582-7.3672l-5.0703-0.66406 2.8125 4.2852v-0.003906c7.6484 10.855 14.242 22.418 19.688 34.527 1.6328 3.8633 2.8906 7.8711 3.75 11.973l-0.14062-0.27344c-1.5195-2.8867-3.4297-6.5625-5.8594-10.574-3.7969-6.5625-9.0469-14.008-15.121-22.68l-9.375-13.398 1.5078 9.9375v0.003906c2.7305 20.535 3.9805 41.238 3.75 61.949v1.5391l2.3711 0.9375c0.39453 0.14844 0.79688 0.28906 1.7344 0.68359 6.4336 1.543 13.012 2.3945 19.621 2.5312 5.625 0.12891 11.207-0.94922 16.379-3.1602 0.30469-0.24609 0.65234-0.43359 1.0234-0.55078z"/>
  <path d="m760.84 349.39-3.2148 1.4141c-11.445 5.0547-23.195 9.7422-33.301 13.742l-8.0234 3.168 8.5312 1.3203v0.007812c8.1484 1.5391 16.129 3.8633 23.832 6.9375 2.8867 1.0391 5.7656 2.0898 8.6797 3.0547l2.8125 0.9375 0.28906-2.9141h0.003906c0.67188-8.0312 0.84375-16.098 0.51563-24.152z"/>
  <path d="m686.93 584.25-0.28125-1.9961h-2.0156c-9.8359 0.097656-19.508-2.4961-27.977-7.5l-0.55469-0.34766h-0.64844 0.003906c-21.746 0.35156-43.383 3.1602-64.5 8.3711l-2.6328 0.9375v1.875c-0.12109 9.8047-0.24219 19.949-0.66406 29.691l-0.12109 2.8125 2.8125-0.35547h-0.003906c32.84-4.4727 66.09-5.0703 99.066-1.7812l3.1953 0.32812-0.66406-3.1406c-1.9414-8.918-3.543-18.34-5.0156-28.895z"/>
  <path d="m674.53 388.62-0.86328-2.625-2.4453 1.2734c-3.3945 1.7734-6.7891 3.5703-10.191 5.3906l-9.2891 4.9219 0.55469 1.875-0.003906 0.003907c0.14062 0.50391 0.21094 1.0273 0.20703 1.5547 0.054688 1.9414 0.1875 3.9297 0.30859 5.8594l0.09375 1.3516 1.875 0.9375c1.5703 1.2344 3.5156 1.8945 5.5117 1.875 0.66016 0 1.3164-0.0625 1.9609-0.17969 5.7969-1.4531 10.895-4.9023 14.398-9.7422l1.1797-1.1641-0.33594-1.293c-0.89844-3.4961-1.9023-6.7852-2.9609-10.039z"/>
  <path d="m688.96 380.49 5.9531 2.418v0.003906c12.766 4.6445 25.996 7.9141 39.457 9.75 6.4414 1.1055 13.125 2.2578 19.5 3.75l2.0352 0.46875 0.69531-1.9688c0.76953-2.1562 1.3984-4.3125 1.9688-6.5625l0.53516-2.0703-2.0156-0.72266c-2.6719-0.9375-5.3164-1.9961-7.9609-3.0391-6.8945-3.0117-14.102-5.25-21.488-6.668-10.914-1.7422-22.086-0.82422-32.57 2.6719z"/>
  <path d="m651.96 529.18c3.4961 4.6211 9.0742 7.1836 14.859 6.8281 0.87109 0 1.7891-0.046874 2.7578-0.13281h-0.003907c11.094-1.043 21.297-6.5039 28.312-15.16 4.0898-5.3359 5.8242-12.105 4.8125-18.75-0.61719-3.8242-2.8945-7.1797-6.2188-9.168l-6.168-1.3672-0.054688 2.8125c0.10156 5.7734-0.95703 11.516-3.1133 16.875-1.4375 3.5234-3.8984 6.5352-7.0664 8.6484s-6.8906 3.2305-10.699 3.2109c-6.75-0.72266-11.559-6.3477-14.27-16.715l-1.7422-6.6484-2.6797 6.3281h-0.003906c-3.5625 7.457-3.082 16.219 1.2773 23.238z"/>
  <path d="m674.34 757.91c12.551-0.67578 25.137-0.57031 37.676 0.31641l5.0703 0.23438-0.40234-2.6797v-1.875h-0.24219c-3.2695-20.168-7.6055-40.145-12.992-59.852l-0.60156-2.2969-2.2891 0.63672c-10.805 2.3242-21.895 3.0273-32.906 2.082-5.6992-0.1875-11.598-0.39453-17.184-0.13281v0.003906c-19.23 1.6562-38.59 0.90625-57.637-2.2344l-3.3008-0.44922 0.55469 3.375c0.35547 2.2227 0.72266 4.4531 1.1992 6.7227 0.48828 1.9531 0.066406 4.0234-1.1523 5.625l-0.40234 0.51562-0.074218 0.65625h-0.003906c-0.17578 2.5742-1.8281 4.8164-4.2344 5.7461l-1.4141 0.49609-0.13281 1.4922c-0.375 4.1797-0.9375 8.3516-1.5195 12.523-1.375 8.2344-2.0234 16.574-1.9336 24.922-0.23437 4.7539 1.7227 9.3555 5.3086 12.484 2.7695 1.9219 6.1016 2.8711 9.4688 2.7031 5.3945-0.28125 10.742-1.1758 15.938-2.6641 2.3984-0.58984 4.7617-1.1641 6.9453-1.5742 4.4062-0.79688 8.9258-1.5938 13.453-2.2695l-0.17969-2.3828h2.1172l-0.1875-0.89062h0.003906c-3.6914-8.1875-3.5352-17.594 0.42188-25.656 2.8984-4.9922 8.0664-8.2422 13.82-8.6914 5.3945-0.83984 10.875 0.81641 14.906 4.5 6.6289 7.0781 10.066 16.566 9.5156 26.25l-0.054687 2.5234z"/>
  <path d="m695.2 626.48-1.4453-4.8281-2.2305 0.63672c-0.18359 0.074219-0.38281 0.11328-0.58203 0.11328-33.852-3.5352-68.004-2.9336-101.71 1.7891l-1.9297 0.26172-0.09375 1.9414c-0.47656 9.7305-0.67578 18.422-0.61719 26.57v3.6484l3.3086-1.5273c35.258-16.32 77.812-14.297 106.81-11.352l3.3203 0.33594-0.80469-3.2422c-1.3633-5.5195-2.8906-10.598-4.0234-14.348z"/>
  <path d="m588.17 662.36-1.332 0.68359 0.054687 1.4805c0.12109 3.4883 0.30859 6.9766 0.61719 10.398l0.14844 1.6133 1.5547 0.42969h0.007812c16.172 4.1055 32.828 5.9961 49.508 5.625 13.414 0 26.879-0.78906 39.59-1.5273l10.746-0.62891c3.7109-0.019531 7.2305-1.668 9.6172-4.5078 4.1602-7.1094 5.2305-15.605 2.9727-23.523l-0.30859-1.7812-1.8008-0.1875c-33.984-3.5625-77.371-5.5039-111.38 11.926z"/>
  <path d="m639.66 758.79 0.32031 2.3047 2.3164-0.30859c6.9102-0.9375 13.988-1.6406 21.027-2.1953l2.082-0.16797 0.074219-2.082c0.77344-7.9336-1.6797-15.848-6.8047-21.953-2.9688-2.7344-7.0312-3.9414-11.008-3.2734-3.6914 0.28125-7.0156 2.3359-8.9141 5.5117-2.7461 6.9141-2.4453 14.664 0.83203 21.34l2.1562-0.9375z"/>
  <path d="m792.74 1010.5 4.0117 0.46094-2.4102-5.625c-0.82422-1.875-1.6406-3.8164-2.457-5.832-0.19141-0.39062-0.34766-0.80469-0.45703-1.2266l-0.32813-1.6484-1.668-0.21484-0.003906-0.003906c-9.293 0.070312-18.484 1.9844-27.035 5.625-1.7422 0.60938-3.207 1.1172-4.2852 1.4336-3.2734 1.0312-6.5625 2.0703-10.004 2.9141l-3.5625 0.89062 2.3047 2.8125c0.16797 0.21484 0.28906 0.44141 0.71094 1.0508l0.003906 0.003906c0.54297 0.58203 0.96484 1.2656 1.2383 2.0156l0.74219 2.082 2.1172-0.60938v-0.003906c13.301-4 27.25-5.3984 41.082-4.125z"/>
  <path d="m381.96 914.58-2.9453-0.70312 0.054687 3.0195h0.003906c0.14844 22.156 1.5312 44.285 4.1328 66.289l0.22656 1.7812 1.7812 0.24219v0.003907c3.7266 0.53125 7.4844 0.87109 11.25 1.0117 5.6914-0.11328 12.328-0.28906 19.012-0.88281 9.25-1.293 18.297-3.7617 26.926-7.3398 1.9922-1.2852 3.832-2.8047 5.4727-4.5195l0.65625-0.65625v-0.9375c0-0.87109 0.10156-1.7266 0.17969-2.5859 0.074219-0.86328 0.16016-1.9414 0.19531-3.0273 0.007812-0.94141 0.19531-1.8711 0.55469-2.7383l0.30078-0.70312-0.1875-0.75c-0.42187-1.6328-0.26953-3.3594 0.42969-4.8945 6.3984-15.531 10.258-31.992 11.43-48.75l0.30078-3.3477-8.0898 2.1758c-23.711 6.3281-48.191 12.938-71.684 7.3125z"/>
  <path d="m446.63 1058.3-0.14844-1.1914-1.0703-0.57031c-5.082-2.7109-10.004-5.9805-14.758-9.1484h0.003906c-6.168-4.3398-12.668-8.1875-19.434-11.516-6.3438-2.5586-13.082-3.9883-19.914-4.2266l-7.8008-0.71094 4.9766 4.6875c2.0703 1.9492 4.1445 3.9141 6.2266 5.8984v-0.003906c13.184 13.941 28.504 25.695 45.387 34.82l0.89063 0.44922 0.9375-0.32031c1.1719-0.39453 2.3906-0.74219 3.582-1.0781l2.5977-0.75781-0.09375-1.875c-0.23828-4.4258-0.67969-9.0195-1.3828-14.457z"/>
  <path d="m446.34 991.64 1.2734-8.9453-3.9453 1.875c-4.4297 2.0586-9.1055 3.5352-13.914 4.3984-12.598 3.332-25.684 4.4297-38.664 3.2539l-6.5625 0.60156 1.2852 8.4375 1.332 0.46094v-0.003906c6.6602 2.1445 13.629 3.1914 20.625 3.1016 13.84 0.80078 27.461-3.7188 38.082-12.625z"/>
  <path d="m381.94 896.95-3-0.86328v3.1211c0 2.043 0 4.0977 0.066406 6.2148l0.046875 1.7148 1.6602 0.46875v0.003906c6.7617 1.8672 13.75 2.7891 20.766 2.7383 16.996-0.82031 33.809-3.8828 50.004-9.1055 3.0195-0.82422 6.0078-1.6406 8.9805-2.418l1.6797-0.44141 0.20703-4.8828c0.09375-2.082 0.1875-4.1445 0.23438-6.2344l0.066407-3.4609-3.2734 1.1914c-22.949 8.6719-51.562 19.426-77.438 11.953z"/>
  <path d="m527.32 720.63c-1.1055 16.629-6.5234 32.688-15.723 46.582l-2.2578 3.75 4.3789-0.21484c7.0703-0.32812 14.129-1.332 20.953-2.2891 3.3281-0.47656 6.6641-0.9375 10.023-1.3516l1.9766-0.23438 0.085937-1.9883-0.003906 0.003907c0.78516-12.746 2.2461-25.441 4.3789-38.035 0.41406-2.6523 0.79688-5.1836 1.1328-7.5l0.42188-2.9141-25.312 2.1367z"/>
  <path d="m513.49 722.11 0.1875-2.625-2.6328 0.11328h-0.003907c-10.891 0.57031-21.809 0.53125-32.699-0.12109l-2.1016-0.14062-0.35547 2.0703c-1.3945 9.0703-2.3359 18.203-2.8125 27.367 0.11719 18.336-3.6836 36.488-11.145 53.238-7.7812 13.82-37.5 10.668-55.258 8.7734-4.3672-0.46094-8.1953-0.86328-11.109-0.99219l-4.1797-0.14062c-3.1875-0.10156-6.4492-0.21484-9.6289-0.46875l-2.4102 0.36719-0.14844 2.3828c-0.58203 9.4688-1.3672 22.445 7.8086 27.254v-0.003906c7.0234 3.6836 14.344 6.7617 21.891 9.1992 0.76953 0.24219 1.5078 0.49609 2.2695 0.75781l3.6641 1.2188 1.0117-1.0391c2.3398-2.3164 4.9336-4.3594 7.7344-6.0859 2.2773-1.5195 4.5195-2.8125 6.6289-4.0781l2.2109-1.3047h0.003906c4.9609-2.6289 9.6797-5.6914 14.109-9.1484 2.2617-1.8633 4.2305-4.0586 5.8281-6.5156-0.79687 2.9375-2.2461 5.6641-4.2344 7.9688-3.9219 4.3906-8.4102 8.2422-13.344 11.457-1.3203 0.9375-2.7109 1.9414-4.1328 2.9258-2.3711 1.6602-4.8008 3.3477-7.0117 5.1289l-3.2734 2.6328 3.957 1.4062c4.0508 1.4258 8.082 2.7266 12.047 3.9102l0.38281 0.11328h0.39453v-0.003907c3.0859-0.125 6.082-1.0586 8.6914-2.707 5.3086-3.5664 9.7852-8.2344 13.125-13.688 2.1836-3.2344 3.9844-6.1484 5.4648-8.5508l0.84375-1.3672c-0.95703 3.8477-2.2812 7.5977-3.957 11.191-2.2188 4.9531-5.2852 9.4805-9.0625 13.379l-5.3711 5.2305 7.3984-1.2383c25.734-4.3398 33.562-50.477 38.23-78.039 0.58984-3.4883 1.1172-6.5625 1.6211-9.1797l0.074218-0.44922-0.074218-0.42969-0.003906 0.003906c-0.28516-1.5273 0.078124-3.1055 1.0039-4.3516 9.9531-13.297 16.281-28.945 18.367-45.422z"/>
  <path d="m651.96 792.52c14.707-1.5547 29.488-2.3086 44.277-2.2578 6.4492 1.4453 13.184-0.63672 17.691-5.4688 4.5117-4.832 6.125-11.691 4.2383-18.027l-0.21484-2.8125-2.6914 0.67578c-0.25391 0.066406-0.51172 0.10938-0.76953 0.12109-27.652-2.0977-55.461-0.80859-82.801 3.8359-3.8047 0.65625-7.6328 1.4336-11.484 2.2109-11.371 2.8633-23.078 4.1602-34.801 3.8555-3.1523-0.09375-6.1016-1.5742-8.0508-4.0508-7.3398-9.2734-3.6641-32.316-1.2266-47.559l1.2734-8.2773-10.875 0.66406-0.5625 3.8242c-3.1953 21.777-9.8633 67.098 3.3672 81.367h-0.003906c2.6211 2.9258 6.3828 4.5703 10.312 4.5078h1.1992c12.336-1.1836 24.562-3.3242 36.562-6.4023 11.359-2.875 22.906-4.9492 34.559-6.207z"/>
  <path d="m353.2 449.58c6.2148-6.8047 12.824-13.234 19.789-19.266l1.0117-0.88281-0.25391-1.3203c-0.42188-2.1484-0.77734-4.3594-1.0234-6.6289l-0.32812-3.1016-2.8867 1.1797c-2.9531 1.2109-5.8125 2.6523-8.6523 4.0977-2.6719 1.3594-5.3438 2.7109-8.082 3.8438l-1.0977 0.44922-0.28906 1.1641h0.003906c-1.5664 6.2031-2.332 12.586-2.2773 18.984l0.12109 5.9062z"/>
  <path d="m370.77 412.3 1.5469-0.52344 0.054688-1.6211v-0.003906c0.1875-5.1367 0.69141-10.262 1.5078-15.336l0.9375-6-5.625 4.5195c-1.875 1.5391-3.75 3.0273-5.4375 4.4258l-0.66406 0.55469-0.14062 0.86328v-0.003906c-0.14844 0.92969-0.46484 1.8242-0.9375 2.6406-2.4258 4.25-4.5352 8.6719-6.3086 13.23l-2.3359 5.9062 7.8008-4.1445c3.0664-1.7734 6.2773-3.2812 9.6016-4.5078z"/>
  <path d="m395.99 1026.3c6.4805 0.039062 12.875 1.4727 18.75 4.2109 5.625 3 11.102 6.5625 16.406 9.957 3.2617 2.1016 6.5625 4.2109 9.8633 6.2148l4.3398 2.625-0.81641-5.0078c-1.3984-7.7422-2.25-15.574-2.5508-23.438 0.007813-0.69531 0.078125-1.3867 0.20703-2.0703l0.054688-0.28906v-0.30078c-0.046875-0.57813-0.046875-1.1602 0-1.7344v-0.085937c0.32031-2.25 0.69531-4.5078 1.0781-6.7695l1.3125-8.1016-4.1641 2.2109 0.003906 0.003906c-15.441 7.4766-32.969 9.4609-49.688 5.625l-3.4688-0.79688 0.62891 3.4961c0.44141 2.4375 0.87109 4.8086 1.4453 7.5l0.24219 1.2852h-0.003907c0.36328 0.89453 0.55469 1.8477 0.55469 2.8125v2.1367z"/>
  <path d="m350.41 554.48 1.7266 1.0508 1.293-1.5391c3.9648-4.6875 7.875-9.375 11.805-14.164 19.305-23.438 39.262-47.633 65.961-62.652l2.0898-1.1797-1.2383-2.0625v-0.003907c-0.41406-0.69141-0.52734-1.5234-0.30859-2.2969l0.9375-3.1797-3.3203 0.16016c-5.0195 0.27734-9.9766-1.2188-14.004-4.2266l-2.2109-1.6133-1.2461 2.4375h-0.003906c-4.2656 11.043-12.48 20.109-23.055 25.434-5.2891 1.9531-10.918 2.8438-16.555 2.6172h-1.1914l-0.72266 0.9375c-0.32422 0.40625-0.6875 0.78516-1.0859 1.125-13.848 12.113-26.789 25.223-38.727 39.223l-1.1914 1.3594 1.0039 1.4922c5.3633 7.0781 12.203 12.906 20.043 17.082z"/>
  <path d="m390.35 1046.1c-3.6367-3.4609-7.2656-6.9102-10.93-10.258l-1.3047-1.1992-1.5195 0.9375c-8.793 5.4844-18.195 11.492-27.328 18.309-1.0312 0.76953-2.2227 1.6133-3.5156 2.5391-10.398 7.4453-26.117 18.676-27.488 30.871l-0.1875 1.6875 1.5391 0.70312v0.003906c11.098 4.9336 23.141 7.3828 35.285 7.1797 24.832-1.4492 49.289-6.7422 72.5-15.691l4.875-1.6016-4.4062-2.6328v-0.003907c-13.598-8.8789-26.18-19.223-37.52-30.844z"/>
  <path d="m881.77 266.46c-0.32812-0.91406-0.71484-1.8008-1.1641-2.6641l-0.9375-1.7734-11.035 3.9375 0.9375 2.2695h0.003906c0.54297 1.375 1.1719 2.7148 1.875 4.0156l1.1641 2.1172 2.082-1.2266c1.6602-0.9375 3.2344-1.9883 4.8281-3.0195l2.9336-1.875z"/>
  <path d="m825.84 1099.2-2.625-2.6719c-0.10938-0.10938-0.19922-0.23047-0.27344-0.36328l-1.1719-1.1992h-0.16016v-0.003907c-0.92578-0.79297-1.6328-1.8086-2.0508-2.9531l-0.375-1.0312-1.0234-0.36719c-3.1016-1.1172-6.4023-2.4648-9.8164-3.8438-12.977-5.2695-27.656-11.25-39.195-8.4375l-2.3516 0.58203 0.65625 2.3359h-0.003907c0.38672 1.3555 0.30469 2.7969-0.23437 4.0977l-0.16016 0.85156h0.003907c-0.03125 7 0.70703 13.977 2.2031 20.812l0.48828 2.1641 2.1953-0.375-0.003906 0.003906c12.59-1.082 25.035 3.332 34.133 12.102l3.6641 3.2812 0.24219-4.9141 0.003907 0.003906c0.089843-2.2148 0.40234-4.4141 0.9375-6.5625 1.3086-5.8398 5.6211-10.543 11.324-12.348z"/>
  <path d="m686.25 860.97-3.5078-2.3359c-1.5859-1.0898-3.1133-2.2656-4.5742-3.5234l-0.054688-0.046875c-3.6992-3.3203-7.0469-7.0117-9.9961-11.016-1.7773-2.3047-3.3477-4.7656-4.6875-7.3516 1.875 1.4336 4.2656 3.4961 6.6953 5.5781l1.2578 1.0586c2.8984 2.4453 6.1797 5.2305 9.8828 7.9609h-0.003906c2.0391 1.5703 4.2383 2.918 6.5625 4.0234 0.21094 0.11328 0.42578 0.21484 0.64844 0.30859v0.36719h1.1797l0.39453 0.17969 3.4688-0.24219v-1.1055l0.5625-0.32812c1.875-1.0703 3.75-2.2773 5.4375-3.4688l4.0234-2.9609v-1.7344c-0.21094-0.96094-0.5-1.9023-0.875-2.8125-0.72656-1.832-1.5898-3.6133-2.5781-5.3242-1.3125-2.3438-2.6445-4.4727-3.8633-6.4219l-1.4805-2.3984c-1.0391-1.6797-1.7734-2.9805-2.2969-4.0039 0.9375 0.69531 2.0898 1.6484 3.5703 2.9609h0.003906c2.6055 2.3594 5.0234 4.918 7.2266 7.6523 1.3438 1.6797 2.543 3.4727 3.5898 5.3516l0.375 0.83594c0.41406 0.83594 0.76953 1.6992 1.0625 2.5859l0.9375 3.0547 2.6328-1.8008c0.5625-0.39453 1.1641-0.76953 1.7539-1.1445 0.82422-0.53516 1.6484-1.0586 2.4297-1.6133l-0.003906 0.003907c6.1445-5.082 13.098-9.0977 20.57-11.879l2.3438-0.71094-0.80469-2.3047c-3.2852-10.219-7.8359-19.98-13.547-29.062l-1.3398-2.0078-1.9688 1.3984c-10.078 7.1914-25.312 6.8047-40.012 6.4492h-0.003906c-6.3594-0.28125-12.734-0.21484-19.086 0.19531-15.934 1.6562-31.75 4.2578-47.371 7.793l-3.5234 0.72266 5.3633 7.5469-0.003906-0.003906c8.1016 12.625 17.879 24.086 29.062 34.078 4.1367 3.2266 8.5234 6.1094 13.125 8.625 2.418 1.4062 4.8477 2.8125 7.1719 4.3203l0.98438 0.64844 1.1055-0.41406c4.8281-1.8008 9.543-3.75 14.418-5.9727z"/>
  <path d="m863.9 269.87-0.87109-2.0078-2.0625 0.73047c-62.465 22.258-123.75 49.48-183.09 75.816-23.793 10.566-48.402 21.488-72.789 31.961l-0.60938 0.054687-0.63672 0.49609c-5.7734 4.4727-11.625 8.7656-17.504 13.125l-5.8984 4.332 2.8125 1.875 0.003906 0.003906c5.0039 3.6367 10.973 5.7188 17.156 5.9883 1.2031 0.003906 2.4023-0.09375 3.5898-0.28906 0.39062-0.16016 0.79688-0.29297 1.207-0.39453 16.512-4.6016 32.32-11.43 46.988-20.297 9.5742-5.4531 19.449-10.363 29.578-14.699 7.0781-2.8125 14.156-5.5508 21.215-8.2773 24.633-9 48.734-19.387 72.188-31.117l0.57031-0.41406 0.003906 0.003906c0.40234-0.39453 0.84375-0.75391 1.3125-1.0703 17.523-11.227 35.789-21.25 54.676-30 11.156-5.4766 22.688-11.148 33.75-17.289l1.875-1.0586-1.7891-3.7969c-0.56641-1.2383-1.1484-2.457-1.6797-3.6758z"/>
  <path d="m351.92 460.86-0.84375 1.0312 0.46094 1.2461c0.074219 0.21484 0.12109 0.42969 0.17969 0.63672l-0.003906 0.003907c0.10547 0.49219 0.25391 0.97266 0.45312 1.4336 1.0664 2.7109 2.6914 5.168 4.7695 7.207l0.87109 0.86328 1.1992-0.21484c6.4414-1.1523 11.102-7.9961 14.184-12.535h0.003906c3.0273-4.2773 5.7031-8.793 8.0039-13.5l0.60156-1.293-0.87109-1.125c-1.3867-1.793-2.6094-3.7109-3.6484-5.7266l-1.3984-2.7188-2.2578 2.0625c-7.7852 6.9961-15.039 14.559-21.703 22.629z"/>
  <path d="m811.7 1139.8c-3.0938-7.3398-8.2617-13.621-14.871-18.066-6.6133-4.4492-14.379-6.8672-22.348-6.9648l-3.0469 0.34766 1.1328 2.8125h0.003906c2.6094 7.9258 7.5625 14.871 14.207 19.926 6.6406 5.0508 14.656 7.9688 22.992 8.3672l2.8125 0.16797-0.30078-2.8125c-0.16016-1.0742-0.28906-2.2305-0.58203-3.7773z"/>
  <path d="m834.85 1105.6-0.86328-0.066407 0.003907 0.003907c-4.7969-0.80078-9.7031 0.46484-13.512 3.4844-3.0859 3.4102-4.5664 7.9766-4.0586 12.547 0.24219 5.7305 0.80469 11.441 1.6875 17.109l0.14844 0.58203v-0.003906c0.21094 0.67578 0.375 1.3672 0.48828 2.0625 0.11719 0.46484 0.11719 0.95312 0 1.418l-0.066406 3.75 2.5117-0.17969c12.582-0.9375 20.551-4.9609 23.691-12.113 3.7969-8.8125 0.65625-18.234-9.375-28.004z"/>
  <path d="m748.24 862.7 1.5273-1.0781-0.70312-1.7266c-2.6992-6.6484-4.9414-13.359-7.3867-20.82l-0.69531-2.1094-2.1484 0.58203h0.003907c-9.4453 3.3242-18.23 8.2812-25.961 14.645-4.2891 3.2422-8.7656 6.2188-13.414 8.9141-7.5938 4.1875-15.402 7.9688-23.391 11.336l-3 1.2461 2.1484 2.457h-0.003906c1.6836 1.832 3.1211 3.8789 4.2773 6.0859l0.34766 0.67578 0.66406 0.35547c4.2031 2.1406 8.8672 3.2188 13.582 3.1406 13.84-0.046876 31.719-7.8867 54.152-23.703z"/>
  <path d="m705.94 910.07c22.367-4.9883 45.496-10.133 63.664-24.461l1.4453-1.1328-1.0312-2.25c-1.6953-3.75-3.4023-7.5-5.2305-11.25l-1.875-2.6445-2.3359 2.3906c-29.391 21.422-54.789 31.473-73.461 29.062l-2.9062-0.375 0.27344 2.9141c0.27344 2.8867 0.64844 6.3203 1.332 9.9297l0.46094 2.457 2.418-0.61719c5.6406-1.4453 11.406-2.7305 17.246-4.0234z"/>
  <path d="m806.64 1079.9c3.75 1.4453 7.4258 2.8125 10.996 4.0703l3.5078 0.69531-0.82422-6-1.3203-0.46875h-0.003906c-0.59766-0.22656-1.0781-0.67969-1.3398-1.2578-7.4062-14.68-36.871-18.75-54.91-11.633l-2.2578 0.89063 3.1133 7.1641 2.0078-0.61719c12.324-3.875 26.941 1.7383 41.031 7.1562z"/>
  <path d="m377.51 629.64-0.61719 1.5195c-3.3867 8.1172-6.2344 16.453-8.5234 24.945l-0.79688 3.0938 3.1953-0.16797c8.9258-0.46094 18.027-0.30078 26.82-0.14844 5.0625 0.09375 10.172 0.19531 15.18 0.16016h2.4453l-0.11328-2.4375c-0.27344-6.0742-0.55469-13.238-0.55469-20.305v-2.6055l-2.5977 0.28125 0.007812-0.003907c-0.33984 0.046876-0.68359 0.046876-1.0234 0l-3.2734-0.58984 0.003906-0.003907c-9.3945-1.8984-18.906-3.1328-28.473-3.6914z"/>
  <path d="m789.51 990 2.2695 0.17969 0.24219-2.2578v-0.003906c2.4883-32.52-3.457-65.137-17.262-94.688l-1.1523-2.7578-2.4102 1.7734c-3.5898 2.6602-7.3867 5.0195-11.359 7.0586l-2.3633 1.2188 0.75781 1.1055v0.003906c-4.0352 3.0703-8.6836 5.2422-13.629 6.3633-3.5703 1.0977-7.7422 2.0547-12.188 3.0742-1.918 0.4375-3.8945 0.89844-5.9258 1.3867v0.003907c-5.4414 1.1641-10.711 3.0195-15.684 5.5117l-2.7383 1.5195 2.2227 2.1953v-0.003906c7.9961 8.2852 14.691 17.734 19.863 28.023 2.0547 3.8867 3.6172 6.9922 4.6875 9.3086-2.4023-2.5078-4.6758-5.1406-6.8047-7.8828-1.3594-1.6875-2.8125-3.5234-4.293-5.4766-6.3359-8.8008-13.676-16.836-21.863-23.945l-4.1172-3.3945-10.117 2.5312 0.64844 2.3164c9.2461 29.918 26.164 56.887 49.078 78.227l0.81641 0.78906 1.125-0.14844v-0.003906c7.0703-1.2773 14.012-3.1836 20.746-5.6914 9.3594-3.8555 19.332-6.0039 29.449-6.3359z"/>
  <path d="m812.7 1063 5.1367 3.1211-1.668-5.7734c-4.332-13.98-9.5859-27.656-15.73-40.941l-0.46875-1.0703-1.1445-0.27344v0.003906c-15.77-2.8242-31.992-1.6641-47.203 3.3633l-1.875 0.55469 0.17969 1.875c1.1016 11.648 3.5977 23.125 7.4336 34.18l0.79688 2.2969 2.2695-0.88281v0.003906c17.145-6.2344 36.125-4.9492 52.273 3.543z"/>
  <path d="m512.61 212.15c-0.074219-2.4492-1.418-4.6836-3.543-5.8984-1.9609-0.71875-4.1523-0.34375-5.7656 0.98438-2.9609 1.9297-2.8125 7.0703-2.3633 12.629l0.074218 0.9375c-0.003906 8.3398 4.2344 16.113 11.25 20.625 9.0391 5.2656 18.961 8.8398 29.281 10.555 2.168 0.35938 4.3633 0.54297 6.5625 0.55469 5.9297 0.23438 11.738-1.75 16.293-5.5586 12.02-10.52 11.457-33.027 10.996-51.121l-0.13281-5.457-5.2422 0.49609h0.003906c-3.5234 0.24219-7.0273 0.70703-10.492 1.3867-0.82031 0.19141-1.6641 0.24219-2.5039 0.14844h-0.375l-0.375 0.066406c-4.9766 1.0312-11.316 3.0664-18.656 5.4375-5.9531 1.9219-12.703 4.0977-19.426 5.9141l-3.9453 1.0781 2.9141 2.8125 0.003906 0.003907c0.16797 0.16406 0.31641 0.35156 0.4375 0.55078 0.23828 0.41016 0.44922 0.83594 0.62891 1.2773l0.35547 1.7422c0 0.58203 0.074218 1.0703 0.074218 1.5273 0 1.2852-0.066406 2.5234-0.12109 3.8047v1.1641c-0.10937 2.0117-0.078124 4.0312 0.09375 6.0391v3.2344l12.57-4.1328h0.046875l0.36719 0.33594 1.5938-1.1172c1.0859-0.58203 2.0078-1.4219 2.6914-2.4453l0.50781-0.82422c0.49609-0.69922 0.72266-1.5508 0.63672-2.4023l0.41406-0.63672c0.71875 1.0859 0.99219 2.4023 0.76562 3.6836-0.26172 1.7227-1.0195 3.3281-2.1836 4.6211l-0.48828 0.53516c-0.26953 0.31641-0.58594 0.59375-0.9375 0.81641-0.20703 0.14062-0.41406 0.28906-0.75 0.48828l-0.60156 0.33594c-0.65625 0.375-1.3398 0.77734-2.1172 1.1641-1.6602 0.9375-3.375 1.7891-5.4766 2.6797-0.64844 0.32031-1.3672 0.58984-2.1016 0.86328l-3.0078 0.9375h0.003906c-0.94531 0.089844-1.8945 0.019531-2.8125-0.21484-1.5742-0.66406-2.875-1.8438-3.6836-3.3477-0.67969-1.3633-1.1055-2.8438-1.2578-4.3594-0.058594-0.9375-0.058594-1.875 0-2.8125 0.19531-3.0352 0.125-6.082-0.20703-9.1016zm24.094 3.3203c-0.066407-0.14062-0.14062-0.28125-0.22656-0.42969l0.003906-0.003906c0.16797 0.089844 0.32422 0.19922 0.46875 0.32812z"/>
  <path d="m581.96 247.45 7.1328-8.9336 0.003906-0.003907c9.582-13.289 15.191-29.027 16.18-45.383l0.14844-1.6133-1.4453-0.70312h0.003906c-3.793-1.7773-7.3516-4.0273-10.586-6.6914l-1.875-0.9375-3.3359 2.6523 0.46875 1.5195c0.17969 0.64453 0.28906 1.3086 0.32812 1.9766 0.79688 15.816-0.53906 31.668-3.9766 47.129z"/>
  <path d="m616.67 196.25-5.0352-2.0898-0.375 3.0664c-1.4453 13.715-5.7578 26.973-12.656 38.914l-5.4453 8.9727 8.7461-5.8047c12.699-8.8633 20.645-23.051 21.562-38.512l0.10156-1.6328-1.5-0.66406c-1.8359-0.78516-3.6172-1.5195-5.3984-2.25z"/>
  <path d="m619.55 238.54c0.69531-0.5625 1.4609-1.1914 2.4297-1.875 2.6328-1.9922 5.6875-3.3516 8.9258-3.9766 2.8438-0.42969 5.7188-0.625 8.5977-0.58203h2.9336l-0.65625-2.8125c-1.2734-7.8711-4.2969-15.355-8.8516-21.898l-3.1602-3.75-0.9375 4.8203v-0.003906c-1.9805 10.355-6.7656 19.969-13.836 27.789l-15.102 16.621 18.207-13.125c0.45703-0.40234 0.93359-0.78516 1.4492-1.207z"/>
  <path d="m631.54 347.42c-0.79687-17.344 0.42969-34.621-1.2266-51.898h-0.003906c-5.3203-0.98828-10.152-3.7383-13.715-7.8086-1.3633-1.8594-2.3438-3.9688-2.8867-6.207-1.2266-5.3516-6.5625-6.0273-11.062-5.9062-0.13281 0.011719-0.26172 0.054688-0.375 0.12109-9.2812 12.367-17.523 10.211-32.035 13.961-5.6172 2.0859-11.605 2.9844-17.586 2.6406-10.023-1.4141-14.934-11.68-25.387-14.203-15.066 19.555-29.699 36.562-33.141 63.703-2.5859 20.477-5.3516 40.641-6.0938 61.238 18.695-5.2227 36.094-15.309 54.543-21.395 2.3359-12.547 11.156-22.91 23.168-27.227 12.012-4.3125 25.41-1.9336 35.199 6.2578 10.199-4.3594 20.398-8.7812 30.602-13.277zm-21.945-45.629h-0.003906c1.5156-2.6211 4.8477-3.5508 7.5-2.0898l2.0898 1.1055c1.2969 0.71875 2.25 1.9258 2.6484 3.3555 0.39453 1.4297 0.19922 2.9531-0.54688 4.2383-0.74219 1.2812-1.9727 2.207-3.4062 2.5742-1.4375 0.36719-2.957 0.13672-4.2266-0.63281-0.72266-0.25781-1.4219-0.58203-2.0898-0.96484-2.5977-1.582-3.4688-4.9414-1.9688-7.5859zm-83.383 4.1797-3.0859 0.003906c-3.0547 0-5.5312-2.4766-5.5312-5.5312 0-3.0547 2.4766-5.5312 5.5312-5.5312h3.0742c3.0547-0.003906 5.5352 2.4727 5.5352 5.5273 0.003906 3.0547-2.4688 5.5312-5.5234 5.5352zm29.82 0.86328v0.003907c-1.2109-0.26172-2.4492-0.36328-3.6836-0.3125-3.0547 0-5.5312-2.4766-5.5312-5.5312 0-3.0547 2.4766-5.5312 5.5312-5.5312 2.2305-0.050782 4.4609 0.17578 6.6367 0.67578 2.8867 0.87109 4.5508 3.8867 3.75 6.793-0.80469 2.9062-3.7773 4.6406-6.7031 3.9062zm33.207 0.1875-0.48828 0.003907c-2.9688-0.125-5.3125-2.5664-5.3125-5.5391 0-2.9688 2.3438-5.4141 5.3125-5.5352h0.49609c2.9688 0.125 5.3125 2.5703 5.3086 5.543-0.003907 2.9688-2.3477 5.4102-5.3164 5.5312z"/>
  <path d="m578.18 525.76-1.5195-0.75781c-40.695-19.492-75.461-25.012-106.27-16.875l-1.2852 0.33594-0.35547 1.3047c-3.5273 12.543-5.918 25.379-7.1445 38.352l-0.36719 3.543 3.4023-1.0703 0.003906 0.003906c35.191-11.367 72.82-12.906 108.82-4.4531l2.7383 0.71094 0.1875-2.8125c0.34766-5.1953 0.88281-10.781 1.5859-16.594z"/>
  <path d="m387.84 442.67c0.33984 0.19531 0.63281 0.46875 0.85156 0.79688l1.3672 1.4336c0.76172 0.48828 1.1367 1.3984 0.9375 2.2812-0.47266 1.3789-1.6562 2.3906-3.0938 2.6406l-1.1523 0.22656-0.50781 1.0586h0.003907c-2.5312 5.2188-5.5781 10.168-9.0938 14.777-2.4766 3.4102-5.3047 6.5547-8.4375 9.375l-3.6758 3.0742 4.6875 1.0117c1.7148 0.38672 3.4688 0.57812 5.2305 0.58203 6.1328 0.097657 11.988-2.5703 15.938-7.2656 4.7266-6.1016 8.7148-12.738 11.887-19.773l2.8125-5.625-0.80469-1.1523c-7.5-10.66-5.8203-22.668-4.0859-35.383 0.65625-4.7812 1.332-9.7422 1.5469-14.758 0.33594-7.5-1.1719-12.273-4.6406-14.445-3.3203-2.0898-7.875-1.5078-13.941 1.7617l-0.9375 0.47656-0.25391 0.99219c-2.457 9.4961-9.375 41.691 4.8359 57.441z"/>
  <path d="m366.05 667.5c-1.5078 9.0859-1.418 18.367 0.26562 27.422l0.36719 1.875h1.875c3.543 0 7.0977 0.21484 10.648 0.40234 3.8164 0.21484 7.7148 0.42969 11.633 0.42969 1.4609 0 2.9258 0 4.3867-0.10156 6.2773 0.48438 12.492-1.5508 17.27-5.6523 4.2578-4.6875 3.9102-11.352 3.4688-19.809l-0.41406-6.6758h-2.2109c-5.3438 0.066406-10.707-0.066406-16.078-0.17969-9.5078-0.17969-19.34-0.375-29.062 0.30078l-1.875 0.13281z"/>
  <path d="m589.31 370.84-3.2734-1.7539v0.003907c-4.3008-1.6836-9.0586-1.7891-13.43-0.30859-4.375 1.4844-8.082 4.4648-10.477 8.418l-1.875 2.5391 2.9805 1.0586h0.003907c0.67187 0.25 1.3047 0.59766 1.875 1.0312l4.5391 3.75 7.3672-5.5312c3.1133-2.3516 6.2148-4.6875 9.375-6.9922z"/>
  <path d="m604.33 254.93c-2.0938 3.0039-2.7422 6.7812-1.7734 10.312l0.375 1.7617 1.7891 0.09375h0.003906c3.1289 0.10547 6.2266 0.66406 9.1953 1.6602l2.8125 0.98438 0.25391-3.0078c0.13281-1.5391 0.19531-3.0742 0.19531-5.1953 0.44141-2.9531-0.26953-5.9609-1.9766-8.4102-1.1211-0.98047-2.6133-1.4297-4.0898-1.2266-2.5586 0.12891-4.9766 1.207-6.7852 3.0273z"/>
  <path d="m542.81 703.64c10.387-0.9375 21.133-1.875 31.727-2.418l2.6445-0.13281-0.44141-2.6055c-0.46094-2.6641-0.68359-5.082-0.88281-7.2578-0.69531-7.6484-1.2461-13.695-10.996-17.129v0.003906c-8.6758-2.2695-17.641-3.2148-26.598-2.8125-3.0859 0-6.0273 0-8.6719-0.16797v-0.003906c-25.148-1.5859-50.398 0.50391-74.945 6.207l-1.6953 0.41406-0.09375 1.7344c-0.39453 7.2188-0.61719 13.809-0.68359 20.156v1.875l1.875 0.42188c13.879 3.1328 28.078 4.6328 42.309 4.4727 15.562 0.027343 31.145-1.3984 46.453-2.7578z"/>
  <path d="m486.56 229.75 2.5508-0.84375-0.46875-2.0547c-1.2188-5.4727-1.6016-11.098-1.125-16.688l0.17969-2.1641-2.1562-0.32812h-0.003907c-1.8516-0.26172-3.6758-0.67969-5.4531-1.2578l-2.3984-0.79688-0.60938 2.457h-0.003906c-1.7188 6.7812-2.9727 13.672-3.75 20.625l-0.28125 2.6445h2.6523c3.6836 0.027344 7.3477-0.51172 10.867-1.5938z"/>
  <path d="m538.93 272.55c1.6953 1.125 3.3086 2.3633 4.8398 3.7031 3.7891 3.9844 8.8008 6.5898 14.238 7.3945 1.0547 0 2.0977-0.15625 3.1055-0.46875 3.6797-1.0547 7.4453-1.8008 11.25-2.2305 8.7617-0.03125 17.09-3.8164 22.875-10.395l0.44141-1.0234c0.070312-0.38672 0.22656-0.75 0.45703-1.0703l0.60156-0.85156-0.23438-1.0117c-0.85547-3.332-0.85547-6.8242 0-10.152l0.75-2.5859-2.6719-0.375c-3.0547-0.44141-6.1133-0.80469-9.1797-1.0586l-0.89062-0.074219-0.71094 0.54297v-0.003906c-4.0586 3.0664-8.5469 5.5234-13.312 7.293l-0.50781 0.26172c-7.7812 4.9336-17.07 6.9297-26.191 5.625-2.8125-0.24219-5.4102-0.60937-8.0078-1.0312l-1.1797-0.1875-0.84375 0.84375c-0.31641 0.33594-0.60547 0.69141-0.86328 1.0703l-2.1758 2.7383 3.3672 0.9375c1.6992 0.48438 3.332 1.1914 4.8438 2.1094z"/>
  <path d="m481.95 163.12c15.684-1.0117 31.055-4.8203 45.395-11.25 3.0195-1.1328 6-2.2578 8.9453-3.3203l3.0391-1.0859c19.547-7.0234 41.699-15 54.617-32.305l0.9375-1.2188-0.74219-1.332c-6.1445-12.004-14.043-23.02-23.438-32.691-15.168-14.578-37.855-32.934-59.625-24.16l-1.3125 0.48828-0.14844 1.3867c-2.2422 13.406-7.2969 26.188-14.832 37.5-3.3945 5.9727-6.9102 12.188-9.9375 18.898v0.003906c-6.543 14.621-10.324 30.324-11.156 46.32l-0.066406 2.1836 2.1758 0.22656c2.043 0.22656 4.0938 0.34375 6.1484 0.35547zm13.574-29.23c1.7188-10.633 5.4453-20.84 10.98-30.074 5.1836-9.0117 9.75-18.359 13.668-27.984 0.78906-2.1758 1.4336-4.1445 1.9961-5.8516l0.68359-2.082c0.33203 2.8359 0.30859 5.7031-0.074218 8.5312-1.9336 10.59-5.7422 20.75-11.25 30-5.2188 8.9453-9.6875 18.309-13.359 27.996-0.89062 2.4297-1.5664 4.6875-2.1367 6.6094l-0.41406 1.3789v-0.003907c-0.39453-2.8398-0.42578-5.7188-0.09375-8.5664z"/>
  <path d="m481.73 310.79 2.3047 1.875 1.3047-2.6914v0.003906c6.5312-12.402 14.453-24.016 23.617-34.625 2.9609-3.75 5.9453-7.4531 8.8516-11.25l11.062-14.57-14.383 11.316v0.003906c-0.69531 0.53516-1.4844 0.94141-2.3281 1.1875-19.984 5.7695-38.094 16.711-52.5 31.719l-2.5234 2.5234 3.3281 1.3125 0.003906-0.003906c7.7461 3.2344 14.926 7.6914 21.262 13.199z"/>
  <path d="m409.8 373.19 1.5938 1.6211 1.4727-0.66406c3.7656-1.4727 7.707-2.4453 11.727-2.8984 3.4922-0.46875 6.9414-1.2266 10.312-2.2578 0.58203-0.19531 0.9375-0.35547 1.2656-0.47656h4.7734l-3.4609-3.8984v-0.003907c-1.1641-1.2891-2.5547-2.3516-4.1055-3.1328-2.7461-1.4062-5.6758-2.4297-8.6992-3.0352-7.3633-0.94531-14.723 1.7812-19.688 7.3008l-2.1836 2.043 2.5039 1.6328h-0.003906c1.6445 1.0664 3.1523 2.332 4.4922 3.7695z"/>
  <path d="m425.2 352.12c5.375 0.87891 10.504 2.8906 15.047 5.8984l3.543 2.6719 0.20703-4.4453c0.19531-3.3281 0.62891-6.6367 1.3047-9.8984 0.77734-3.3203 1.3867-5.5117 1.875-6.9375 0.48047 2.3477 0.75781 4.7344 0.83203 7.1328 0.09375 1.3047 0.16016 2.7383 0.21484 4.2461 0.042969 4.2227 0.50781 8.4336 1.3906 12.562l2.1758 8.625 2.3516-8.5859c0.97266-3.418 2.1367-6.7773 3.4766-10.07 0.65234-1.668 1.3984-3.2969 2.2305-4.8828 0.085938 1.8047 0.054688 3.6172-0.09375 5.418-0.1875 2.2695-0.52344 4.8281-0.89062 7.5742-0.57031 4.4336-1.2266 9.4492-1.4609 14.645l-0.11328 2.7109 1.0703 0.73047c3.457 2.3672 6.7695 4.9375 9.918 7.707l3.75 3.3086 0.16016-4.9961c0.1875-19.301 2.4336-38.523 6.6914-57.348l0.34766-1.3594-1.0391-0.9375c-7.7734-8.0312-17.449-13.973-28.125-17.27-0.36719-0.097656-0.72266-0.22266-1.0703-0.375l-1.6406-0.69531-1.1172 1.3984h0.003907c-5.7812 7.3672-11.105 15.082-15.938 23.102-3.5742 5.7227-7.7227 11.062-12.387 15.938l-4.0391 4.3125 5.8984-0.36719h-0.003906c1.8125-0.16797 3.6367-0.10547 5.4297 0.1875z"/>
  <path d="m541.45 153.32-8.4375 3.1406c-17.695 8.2383-36.949 12.59-56.469 12.758l-2.8125-0.1875 0.32813 2.8125c0.54297 5.3359 1.9922 10.543 4.2852 15.395l0.52344 0.69531 0.003907-0.003906c0.59375 0.53906 1.0938 1.1719 1.4805 1.875 1.7891 3.3477 5.832 4.7422 11.531 4.7422v0.003906c16.078-1.7031 31.863-5.4844 46.969-11.25 6.168-1.9961 11.504-3.75 13.977-4.1992 0.80078-0.125 1.6172-0.125 2.418 0h0.38281l0.375-0.085937h0.003906c2.6602-0.48828 5.3438-0.82812 8.043-1.0117 7.125 0.23828 14.09-2.1445 19.574-6.6953l0.65625-0.64844v-0.9375 0.003906c0.023437-1.6211 0.62891-3.1797 1.707-4.3906 6.9492-8.3594 14.883-15.848 23.625-22.312l1.875-1.3398-1.3125-1.875c-3.957-5.7109-7.4062-11.719-10.312-16.875l-1.6211-2.9062-2.1953 2.5039c-13.555 15.637-34.426 23.344-54.598 30.789z"/>
  <path d="m636.15 287.6 0.44141-0.19531v-0.003906c2.6172-1.0547 5.0859-2.4414 7.3516-4.125l1.1914-1.668-0.75781-1.668h-0.003906c-0.30469-0.70312-0.64453-1.3945-1.0195-2.0625l-1.7266-2.9336c-4.6875-7.9297-9.6016-16.125-4.9766-23.945 1.875-3.2109 4.3008-6.0664 7.1719-8.4375l4.6016-3.918-6.0391-0.21484c-7.6914-0.49609-15.273 2.0508-21.109 7.0859l1.5469 1.7148-2.0898-1.3203-1.9805 1.4258 1.5391 1.875c3.3164 6.6133 4.3086 14.156 2.8125 21.402l-0.14844 2.0352h-0.003906c-0.070313 0.71484-0.375 1.3906-0.86328 1.9219l-0.63672 1.0586 0.23438 1.0781c0.9375 4.3672 2.1367 9.8164 13.246 10.773z"/>
 </g>
</svg>
