<?xml version="1.0" encoding="UTF-8"?>
<svg width="1200pt" height="1200pt" version="1.1" viewBox="0 0 1200 1200" xmlns="http://www.w3.org/2000/svg">
 <g fill="#000">
  <path d="m401.4 625.57c5.1758-0.44141 10.668-0.83594 17.277-1.2266l1.3125-0.085938-0.23438-1.2852h0.003906c-0.80859-4.0117-2.1055-7.9102-3.8555-11.605l-0.33594-0.77734-0.85156 0.09375c-5.0703 0.52344-9.9102 1.2383-14.418 2.1289l-1.125 0.22656 0.20703 1.1328-0.003906-0.003907c0.60156 3.3633 0.85547 6.7773 0.75781 10.191v1.3203z"/>
  <path d="m496.04 671.35 3.543-0.074218-2.8984-2.0547 0.003906 0.003906c-1.4688-1.0391-2.8086-2.2461-3.9922-3.6016l-0.33594-0.38281h-0.51562c-6.8906-0.20703-13.875-0.10156-20.625 0-3.168 0.042968-6.3359 0.078124-9.4961 0.10156h-0.003906c-0.71094-0.003906-1.3867-0.29688-1.875-0.81641-0.44922-0.42578-0.69922-1.0195-0.69531-1.6406 0.42187-5.6641 1.4609-11.266 3.1055-16.707 0.76953-2.9141 1.5664-5.9531 2.1641-8.9922l0.27344-1.3984h-1.4258c-1.0586 0-2.0703 0-3.1328-0.054687l-0.75781-0.10938-0.32812 0.71094c-0.88281 1.875-1.707 3.8516-2.5391 5.8125-2.4531 7.2734-6.4766 13.922-11.785 19.465-5.9727 5.3906-14.43 5.2891-25.867-0.28906l-1.2852-0.61719-0.36719 1.3672c-0.24219 0.9375-0.49609 1.9492-0.69531 2.8984l-0.25391 1.1445 1.1523 0.24219 0.007812-0.003906c19.539 3.8516 39.43 5.6016 59.344 5.2227 6.3633 0.007813 12.812-0.10156 19.281-0.22656z"/>
  <path d="m423.44 597.59-0.085937-1.1797c-0.80078-12.699-0.86328-25.434-0.1875-38.137v-0.52344l-0.36719-0.36719h0.003907c-0.26563-0.29297-0.43359-0.66016-0.48047-1.0508l-0.41406-0.72266-0.55469-0.17969h0.003906c-10.141-4.3242-21.609-4.3242-31.754 0l-1.0703 0.32812 0.28125 1.0781h0.003906c3.8945 14.055 5.2266 28.695 3.9375 43.219l-0.16016 1.6016 1.5742-0.33594c9.2383-1.9727 18.617-3.2266 28.051-3.75z"/>
  <path d="m482.24 604.69c-3.3672 3.2031-7.332 5.707-11.672 7.3672l-1.9883 0.70312 1.6484 1.3125c1.4727 1.1719 3.0078 2.3242 4.5195 3.4688l2.2969 1.7344 1.3047-1.1445v0.003906c3.3477-2.6484 6.2734-5.7891 8.6719-9.3203l0.47656-0.87109-4.5-3.9922z"/>
  <path d="m436.68 681.92-1.3594-0.16016c-6.4961-0.75-12.891-1.7539-19.031-2.9727l-1.1719-0.23438-0.20703 1.1719v0.003906c-2.4883 11.473-6.1211 22.664-10.848 33.41-4.5742 10.48-8.1797 21.355-10.762 32.496-0.17969 0.85156-0.39453 1.8086-0.61719 2.8125h-0.003906c-0.96484 4.0352-1.7148 8.1172-2.25 12.234l-0.11328 1.0312 1.0234 0.24219c9.6484 1.9102 19.477 2.7422 29.309 2.4844h5.9922l-0.26172-1.3672h-0.003906c-0.44141-2.375-0.75391-4.7734-0.9375-7.1836l-0.074219-0.86328-0.84375-0.1875c-0.26562-0.050782-0.53516-0.085938-0.80859-0.10156-1.5625-0.32422-3.0586-0.91016-4.4219-1.7344-1.5078-1.0117-2.8867-2.2031-4.1094-3.543l-0.73047-0.81641-0.86328 0.67578c-1.3281 1.0664-2.7812 1.9727-4.3281 2.6914-1.7305 0.90625-3.7305 1.1562-5.625 0.69141-0.97266-0.33594-1.8242-0.94141-2.457-1.7539-0.45703-0.63672-0.77344-1.3594-0.9375-2.125-0.34766-1.7969-0.15625-3.6562 0.55078-5.3438 0.375-0.81641 0.64844-1.0391 0.60156-1.0781 1.0586 0.054687 1.332 0.67578 1.6797 2.5586 0.22656 1.1914 0.46094 2.5312 1.6875 2.9922 1.2266 0.46094 2.3438-0.09375 4.332-1.6875l-0.003906-0.003907c1.8867-1.6328 3.6133-3.4414 5.1562-5.3984 0.65625-0.76953 1.2734-1.5195 1.875-2.2109l1.7148 4.2109 0.003907-0.003906c1.0234 2.1914 2.5 4.1445 4.3281 5.7305 0.33203 0.28125 0.68359 0.54297 1.0508 0.77734l1.875 1.2266v-2.2227c-0.066406-7.2734 0.41797-14.539 1.4531-21.738l0.09375-0.67578-0.53516-0.41406c-0.16016-0.13281-0.28906-0.25391-0.50781-0.44922l-0.61719-0.79688c-0.28125-0.375-0.57031-0.74219-0.86328-1.0859l-0.81641-0.9375-0.9375 0.87109h0.003906c-1.0625 1.082-2.2969 1.9844-3.6484 2.6719-0.875 0.43359-1.8359 0.67969-2.8125 0.72266-1.082 0-2.1406-0.32812-3.0352-0.9375-1.1562-0.94141-1.9141-2.2773-2.1289-3.75-0.39453-3.75 0.49609-5.3047 0.9375-5.7188 0.40625 0.625 0.76172 1.2773 1.0664 1.957 0.40234 0.87891 0.85156 1.7305 1.3516 2.5508 0.10547 0.21094 0.23438 0.41016 0.38281 0.58984l2.1641 3.4609 0.003906-3.8438c1.5195-1.4531 2.8281-3.1133 3.8789-4.9297l3.5078-5.7578 3.6484 8.9336 0.72266-3.9375c0.63672-3.4492 1.4336-7.1523 2.4922-11.672l0.57031-2.4375-2.25 1.1328v0.003907c-0.9375 0.47656-1.9609 0.76953-3.0078 0.85937-1.5469 0.13672-3.0898-0.30469-4.332-1.2344-1.6445-1.3633-2.625-3.3633-2.6914-5.4961-0.11328-2.7188 0.61719-3.8828 1.0234-4.0039 0.39453 0.12109 1.2656 1.3789 1.7891 2.1484l0.62891 0.89062c0.67578 0.98438 1.9766 2.6328 3.207 2.1758l0.77734-0.375v-0.20703c0.19531-0.10156 0.38281-0.21875 0.5625-0.34766 1.5039-1 2.8984-2.1641 4.1523-3.4688l3.0664-3.0547 0.085937-0.30078c0.42188-1.5391 0.84375-3 1.2578-4.4141z"/>
  <path d="m436.08 346.41 1.8008-0.63672c1.5273-0.54297 3.1797-1.0312 5.1836-1.5391l0.88281-0.21484v-0.9375c0-3.1797 0.25391-6.5078 0.63672-10.492l0.16797-1.7734-1.6797 0.53516v0.003906c-0.44531 0.16406-0.93359 0.1875-1.3945 0.066406-0.76953-0.24609-1.5508-0.44141-2.3438-0.58984l-1.2266-0.23438z"/>
  <path d="m492.64 611.98-1.1719-0.87109-0.68359 1.0039c-2.5078 3.3867-5.3906 6.4766-8.5977 9.2148l-1.0391 0.9375 1.125 0.84375c2.6953 2.0195 5.3281 4.0703 7.9023 6.1484l1.0586 0.86328 0.70312-1.1797c2.293-3.4219 3.9336-7.2344 4.8398-11.25 0.11328-0.65625 0.16016-1.3203 0.21484-2.0078l0.046875-1.2578h-0.9375c-1.1641-0.75781-2.3086-1.6094-3.4609-2.4453z"/>
  <path d="m399.65 781.17c5.7852 1.5234 11.734 2.3477 17.719 2.457 4.8398 0.15625 9.6523-0.80469 14.062-2.8125l1.1055-0.5625-0.62891-1.0703c-1.6016-2.8047-2.8789-5.7852-3.8164-8.8789l-0.25391-0.82422h-0.86328 0.003906c-11.816 0.46484-23.648-0.29688-35.309-2.2773l-1.5391-0.32031 0.13281 1.5664c-0.22266 5.9102 3.6719 11.191 9.3867 12.723z"/>
  <path d="m440.62 609.71h-0.9375c-5.9258-0.16016-11.738 0-17.316 0.34766l-1.6406 0.11328 0.63672 1.5078c1.6055 3.5898 2.7344 7.3711 3.3594 11.25l0.14844 1.0391 1.875-0.066406c4.6875-0.17969 9.375-0.36719 14.062-0.51562h0.9375l0.17969-0.9375v0.003906c0.47656-3.9805 0.12109-8.0156-1.043-11.852z"/>
  <path d="m374.82 870.62-0.60156 2.6523c-0.84375 3.7031-1.4531 7.0586-1.875 10.246l-0.085938 0.60938 0.46094 0.41406h0.003906c9.4414 7.3398 21.07 11.301 33.027 11.25 0.9375 0 1.875 0 2.8125-0.09375 16.07-1.0977 17.711-12.395 18-23.879l0.14062-5.4453-2.3633 4.9023c-1.9688 4.0781-5.0078 7.543-8.7891 10.035-3.7812 2.4922-8.1641 3.9102-12.688 4.1133-0.70312 0.046875-1.4062 0.074219-2.1016 0.074219-9.6953 0.050781-18.805-4.6523-24.375-12.59z"/>
  <path d="m429.38 393.86c-1.5 2.0742-2.418 4.5078-2.6641 7.0586-0.24609 2.5469 0.19141 5.1133 1.2656 7.4336l1.1055 2.3516 1.0312-2.3828 0.003907 0.003906c3.0742-6.9297 7.4883-13.184 12.984-18.402l1.5-1.4453-2.0156-0.53516c-5.2305-1.1914-10.621 1.2188-13.211 5.918z"/>
  <path d="m427.66 849.66c0.9375-10.539 2.4453-21.309 3.8828-31.727 1.0703-7.707 2.1641-15.684 3.0273-23.492l0.21484-1.875-1.7734 0.65625c-14.434 5.2734-30.441 4.0781-43.93-3.2812l-1.875-1.1797 0.074219 2.2031c0.17578 13.125-0.95312 26.234-3.3672 39.141l-0.34766 2.0352 1.875-0.75 0.003906-0.003907c7.375-2.6992 15.527-2.332 22.629 1.0234 7.8516 3.3438 14.062 9.6602 17.27 17.57l1.8086 4.6875z"/>
  <path d="m467.23 590.89-1.0586-0.74219-0.63672 1.125v0.003907c-2.082 3.5859-5.0469 6.5781-8.6172 8.6875l-1.2109 0.74219 0.9375 1.0508c1.9883 2.1758 4.1992 4.3789 6.5625 6.5625l0.53516 0.47656 1.0586-0.375h0.003907c5.0742-0.85156 9.7578-3.2695 13.395-6.9102l1.0039-0.87109-1.0039-0.88281v0.003906c-3.4961-3.1523-7.1562-6.1094-10.969-8.8711z"/>
  <path d="m399.29 880.85c0.65625 0 1.3203 0 2.0078-0.066406 4.7695-0.03125 9.3867-1.6953 13.078-4.7148 3.6914-3.0234 6.2344-7.2188 7.2109-11.887 0.51953-5.3242-0.51172-10.68-2.9727-15.43-2.457-4.7461-6.2383-8.6836-10.887-11.328-3.7383-2.418-8.1367-3.625-12.586-3.457-4.4531 0.16797-8.7461 1.7031-12.293 4.3945l-0.35547 0.27344-1.4141 7.8555c-0.47656 2.5859-1.5469 6.4688-2.8125 10.961l-1.2656 4.6875 0.15625 0.36328c0.023438 0.078125 0.0625 0.15234 0.11328 0.21484 0.99219 5.1094 3.7344 9.7148 7.7539 13.023 4.0156 3.3086 9.0625 5.1133 14.266 5.1094zm-6.2891-35.625c0.46875 0 0.9375-0.074218 1.4336-0.074218 0.82422 0.007812 1.6445 0.066406 2.457 0.17578h0.68359c6.2852-0.48438 11.895 3.9219 12.91 10.145 0.85156 3.3828 0.52344 6.957-0.93359 10.129-1.4531 3.1719-3.9453 5.7539-7.0625 7.3164-3.707 0.9375-7.6367 0.035157-10.566-2.418-3.8633-2.9336-10.211-8.8398-9.375-15.281 0.57812-5.4453 4.9883-9.6836 10.453-10.039z"/>
  <path d="m398.56 868.12c0.36328 0.089844 0.73438 0.13281 1.1055 0.13281 1.3984-0.042968 2.707-0.69141 3.5938-1.7734 2.0352-2.7305 2.9102-6.1523 2.4375-9.5234l-0.054687-0.48828-0.41406-0.30078c-0.26953-0.1875-0.51172-0.41016-0.72266-0.65625-1.8828-2.6875-4.7266-4.5508-7.9414-5.2031h-0.39453c-2.2422 0.42578-4.4219 1.1445-6.4766 2.1367-0.22266 0.039062-0.4375 0.097656-0.64844 0.17969l-0.36719 0.14844-0.19531 0.32812c-1.2461 2.6094-0.83984 5.7031 1.0312 7.9023 2.0898 3.3594 5.293 5.8789 9.0469 7.1172z"/>
  <path d="m486.33 642.28-0.46094-0.42188c-1.875-1.668-4.0117-3.6016-6.2266-5.3828l-0.30859-0.24219-9.6445-0.35547-0.16797 1.0234c-0.5625 3.3672-1.4727 6.7695-2.3516 10.039h-0.003907c-1.1445 3.9258-2.0312 7.9219-2.6523 11.961l-0.17969 1.3398 5.4102-0.085938c5.7852-0.074219 11.598-0.17969 17.289-0.13281h1.7812l-0.69531-1.6406v0.003907c-2.0039-4.9062-2.6484-10.262-1.875-15.504z"/>
  <path d="m481.64 784.69c7.4062 0 15.273-0.38672 23.605-1.1641 5.3047-0.51563 8.6055-4.5078 9.7969-11.852l0.27344-1.6133-1.6133 0.26172v0.003907c-23.016 4.5977-46.629 5.4102-69.91 2.4023l-2.5859-0.42969 1.4062 2.2109c2.5977 4.3594 7.0039 7.3359 12.02 8.125 8.9297 1.4336 17.965 2.1211 27.008 2.0547z"/>
  <path d="m371.7 892.37c0.11328 9.375 3.3672 14.68 9.6562 15.742 8.2539 1.4766 16.617 2.2617 25.004 2.3516 11.945 0.94922 23.832-2.4648 33.449-9.6172 7.3125-7.043 10.895-17.109 9.6758-27.188-1.2188-26.25-1.2266-52.5-1.125-79.312v-0.77734l-0.71094-0.30078c-2.0234-0.87109-3.9609-1.9336-5.7773-3.1797l-1.6602-1.1172-0.16797 1.9766c-0.46094 5.2695-0.78906 10.527-1.1328 15.797-0.44141 7.0234-0.9375 14.27-1.6602 21.395v0.003906c-0.58984 4.4727-1.4297 8.9141-2.5117 13.293-1.4609 5.6641-2.4023 11.445-2.8125 17.277-0.085937 2.418-0.066406 4.9609-0.066406 7.5859 1.1875 9.8398-0.82031 19.805-5.7266 28.414-10.312 13.566-39.301 5.1484-52.594-3.3672l-1.875-1.1719z"/>
  <path d="m373.29 750.84c0.83984 1.668 2.418 2.8477 4.2539 3.1875l1.1719 0.24219 0.21484-1.1914c0.9375-5.1289 2.1484-10.07 3.1484-14.062l0.50781-2.0078 0.003907 0.003906c2.5039-8.9336 5.6758-17.664 9.4844-26.121 5.4141-11.359 9.2305-23.41 11.344-35.812 0.058594-0.46484 0.16016-0.92188 0.3125-1.3672l0.12109-0.33594-0.074218-0.33594v-0.003906c-0.039063-0.14062-0.0625-0.28516-0.066407-0.42969v-1.1719h-1.1719c-0.41406 0-0.82812-0.039063-1.2383-0.11328l-0.88281-0.1875-0.40234 0.79688c-6.8398 12.871-12.949 26.121-18.289 39.684-0.21484 0.57031-0.5625 1.4141-0.99219 2.4766-5.4219 13.469-11.168 29.781-7.4453 36.75z"/>
  <path d="m368.66 682.05-0.085937 1.125 2.625 0.30078c1.875 0.19531 4.2461 0.44922 5.8203 0.75 0.51562 0.097657 1.0078 0.29688 1.4453 0.58984l1.1055 0.64844 0.55469-1.1641c3.2266-6.7695 6.8164-14.062 11.008-22.285h-0.003907c0.050782-0.10156 0.10938-0.19531 0.17188-0.28906 0.12109-0.16016 0.22266-0.33594 0.30859-0.51562 0.59766-1.1758 1.5938-2.0977 2.8125-2.5977l0.46875-0.1875 0.17969-0.47656-0.003907-0.003907c1.0898-2.8398 2.5977-5.4961 4.4844-7.8828 0.60156-0.75 1.2383-1.5 1.875-2.25 2.4336-2.5 4.3438-5.4609 5.625-8.7109l0.054687-0.16797-0.44141-1.2656-0.10156-0.28125-1.1836 0.11328c-3 0.22656-5.625 0.46875-8.5117 0.73047-3.6367 0.33594-7.6133 0.70312-13.125 1.0859l-1.0977 0.074219v1.1016c-0.67969 7.2891-2.9844 14.336-6.7383 20.625-3.6875 6.4688-6.1445 13.566-7.2461 20.934z"/>
  <path d="m620.97 522.58 3.6289 1.875-2.082-3.5156c-3.7031-6.2734-7.5547-13.078-12.188-21.402l-2.8125-5.1484 0.63672 5.8516c0.023438 9.1875 4.8945 17.684 12.816 22.34z"/>
  <path d="m556.29 594.07h0.42188l0.34766-0.23438c4.8125-3.457 10.352-5.7734 16.191-6.7773l0.46094-0.066406 0.30078-0.375h-0.003906c5.6406-7.0586 11.762-13.719 18.32-19.93l3.1953-3.1875c9.8711-10.387 18.957-21.488 27.188-33.215l0.9375-1.2656-1.4922-0.53516h0.003906c-4.5508-1.5781-8.5664-4.4102-11.578-8.168l-1.4805-1.875-0.57031 2.3047-0.003906 0.003906c-0.67188 3.1562-2.5703 5.918-5.2773 7.6758-8.2695 5.3047-24.898 2.8125-36.617-0.86328-10.621-3.3945-15.355-6.7422-15.309-17.598 0.09375-21.141 0.58203-42.703 1.0508-63.562l0.066406-2.9805-1.6016 0.57031-0.007812 0.003906c-2.0938 0.75-4.2734 1.2383-6.4844 1.4609-22.254 1.625-44.594 1.625-66.844 0-12.055-0.58984-24.516-1.1797-36.469-1.2383h-1.0586l-0.11328 1.0508c-0.03125 0.28906-0.10156 0.57422-0.20703 0.84375l-0.11328 0.27344v0.30078c0.60938 6.5625 0.9375 13.125 1.0703 20.195v0.46094l0.30859 0.32812v-0.003906c2.5898 2.8477 6.1914 4.5625 10.031 4.7812 2.2383 0.10547 4.4531-0.49609 6.3281-1.7266 2.0117-1.4648 3.625-3.418 4.6875-5.6719l1.7148-3.3281 2.5781 2.6172c1 1.0391 1.9375 2.1328 2.8125 3.2812 0.49609 0.61719 0.9375 1.2188 1.4258 1.7539 1.0703 1.7109 2.957 2.7461 4.9766 2.7266 3.1797-0.30859 5.3242-4.2852 7.0586-7.5 0.34766-0.65625 0.68359-1.2656 0.99219-1.8086l2.1641-3.6562 2.6719 3.4297h0.003906c2.6484 3.2109 6.5156 5.1719 10.668 5.4102 3.5 0.48047 6.9023-1.3906 8.375-4.6016l1.875-3.9766 2.3828 3.2422-0.003906 0.003907c2.4258 3.4609 5.8516 6.0977 9.8164 7.5625 3.0938 1.2031 6.5234 1.2031 9.6172 0 1.9492-0.89063 3.7188-2.1289 5.2227-3.6562-0.89062 2.1562-2.3906 4-4.3203 5.3086-3.3906 2.1406-7.5195 2.7852-11.402 1.7812-3.4609-0.77344-6.6797-2.3828-9.375-4.6875l-0.88281-0.75-0.75781 0.88281v-0.003906c-0.73047 0.91016-1.6055 1.6953-2.5859 2.3281-2.4141 1.5195-5.2383 2.2578-8.0898 2.1172-4-0.12891-7.875-1.4336-11.137-3.75l-1.0391-0.51562-0.67578 0.9375c-0.085938 0.12109-0.21484 0.28906-0.1875 0.30859-4.2109 6.4688-8.2227 10.227-14.109 7.5h-0.003907c-2.3398-1.1797-4.3281-2.9531-5.7656-5.1445-0.23438-0.34766-0.42969-0.61719-0.60938-0.9375l-0.80469-1.2266-1.0234 1.0508v-0.003906c-1.0977 1.1875-2.3594 2.2148-3.75 3.0469-2.7734 1.5742-5.9922 2.1719-9.1484 1.707-2.9453-0.39844-5.7148-1.6211-7.9961-3.5273l-1.875-1.5664v2.4648c-0.13281 16.695-1.4805 33.648-2.8125 50.043v0.003906c-2.0508 20.871-2.9336 41.844-2.6445 62.812l0.14844 4.6875 2.0703-4.1719h0.003906c2.6289-5.0781 5.9531-9.7656 9.8789-13.922 1-1.0234 2.3281-1.6523 3.75-1.7734 1.2422-0.45313 2.5898-0.51172 3.8633-0.16797 11.887 4 22.656 10.742 31.445 19.688 2.7188 2.3516 5.4297 4.6875 8.2109 6.9453l0.75 0.60938 0.74219-0.63672c0.96875-0.85156 2.1758-1.3906 3.457-1.5352 18.73-2.9609 37.734-3.7578 56.645-2.3828zm-104.53-90h0.24219c2.6172 0 5.2109-2.9062 7.5-5.4648 0.75-0.83594 1.4258-1.5938 1.9883-2.1016l1.4453-1.2852 1.6484 1.5742c4.2109 3.8633 7.7344 5.5117 10.406 4.9023 3.75-0.36719 7.7266-4.8828 10.426-8.5977l1.9961-2.6523 2.8125 2.8125v0.003906c0.11328 0.097656 0.21875 0.20312 0.3125 0.32031 0.23047 0.29687 0.50781 0.55859 0.82422 0.76562 2.5781 2.1406 5.8828 3.2031 9.2227 2.9648 2.8164-0.089844 5.2891-1.8828 6.2539-4.5273l2.043-4.9766 2.6992 4.1797h0.003907c3.2148 5.2969 8.293 9.2031 14.238 10.949 1.8867 0.55469 3.9141 0.32422 5.625-0.63672 1.7852-1.043 3.2617-2.5469 4.2656-4.3516 0.20703-0.32031 0.39453-0.60938 0.67578-1.0234l0.16797-0.32813v0.27344l-0.10156 0.52344c-0.34766 2.5898-1.6289 4.9648-3.6094 6.668-1.6523 1.3164-3.668 2.0977-5.7773 2.2305-2.3984 0.085937-4.7891-0.33984-7.0117-1.2461-3.4141-1.3984-6.5195-3.4609-9.1289-6.0664l-0.88281-0.87109-0.82422 0.9375c-0.35938 0.41797-0.75781 0.80078-1.1836 1.1523-1.9453 1.5586-4.2969 2.5352-6.7773 2.8125-4.3555 0.4375-8.7227-0.69531-12.316-3.1953l-0.84375-0.57031-0.68359 0.75-0.003907-0.003906c-1.0078 1.1367-2.082 2.2148-3.2148 3.2266-2.3711 2.1719-5.3516 3.5664-8.5391 4.0039-3.0664 0.23047-6.1211-0.54687-8.6992-2.2148-1.2617-0.83594-2.4492-1.7773-3.5547-2.8125l-0.76953-0.70312-0.79688 0.67578c-0.72266 0.60938-1.5195 1.2383-2.3438 1.8203-0.82422 0.58203-1.6133 1.1172-2.5391 1.668l-1.6797 0.68359c-0.60547 0.21094-1.2344 0.34766-1.875 0.41406-0.28125 0.054688-0.57031 0.054688-0.85156 0-0.14453-0.015624-0.28906-0.015624-0.43359 0h-0.71094l-1.3047-0.50781-0.83594-0.33594h0.003906c-0.41406-0.28906-0.80859-0.60156-1.1836-0.9375-1.1406-1.0273-2.0234-2.3125-2.5664-3.75-0.65234-1.7344-0.89453-3.5977-0.70312-5.4375 0.98438 2.707 2.9531 8.0625 6.9453 8.25zm0.51562 33.047c2.918 1.7812 6.4531 2.2305 9.7227 1.2383 3.0078-0.67578 5.8203-3.6953 8.4375-8.9609l1.7266-3.543 2.4844 3.5547v-0.003906c2.0898 3.3711 5.6602 5.5469 9.6172 5.8516h0.42188c4.0977-0.32422 7.6836-2.8867 9.3203-6.6562l1.875-3.3672 2.8125 2.6797c0.9375 0.86328 1.875 1.7148 2.8125 2.457 3.2812 2.6523 6.2344 3.6562 8.1836 2.9258 2.8086-1.3086 5.1562-3.4453 6.7227-6.1211l2.2031-3.3555 2.2422 3.0547h-0.003906c1.9141 2.9766 4.8906 5.1055 8.3242 5.9531 1.2578 0.1875 2.5195-0.30859 3.3125-1.3047 0.96875-1.1914 1.6914-2.5664 2.125-4.0391l1.2852-3.3086 1.875 2.2695c1.2188 1.4531 2.2578 2.8672 3.1875 4.1445 0.92969 1.2734 1.707 2.3242 2.4922 3.2344l0.003907-0.003907c1.1953 1.7461 3.2344 2.7109 5.3438 2.5312 1.0312-0.1875 2.0391-0.47266 3.0156-0.85156-0.8125 0.79688-1.7656 1.4297-2.8125 1.875-1.1055 0.47266-2.332 0.58203-3.5039 0.32031-1.3906-0.39453-2.6758-1.0977-3.75-2.0625-0.9375-0.82422-1.875-1.707-2.7578-2.6055l-1.6133-1.4531-0.75781 1.3398c-0.21094 0.40234-0.45703 0.78906-0.73047 1.1523-1.5508 2.1445-4.0039 3.4492-6.6484 3.543-2.5859-0.10156-5.0938-0.92578-7.2383-2.3828-0.71094-0.45703-1.3828-0.97656-2.0039-1.5547l-0.9375-0.79688-0.75781 0.9375h-0.003906c-1.7656 2.3047-4.168 4.0469-6.9062 5.0156-2.5 0.74609-5.1758 0.64453-7.6133-0.28125-2.0742-0.79297-4-1.9258-5.6992-3.3477l-0.88281-0.69531-0.73047 0.83594c-1.0195 1.168-2.1914 2.1914-3.4883 3.0391-2.6367 1.7852-5.793 2.6445-8.9727 2.4453-3.9805-0.34375-7.707-2.1172-10.48-4.9961l-0.9375-0.9375-0.81641 1.0391c-0.62891 0.86719-1.3398 1.6758-2.1172 2.4102-1.9492 1.9922-4.5234 3.2578-7.293 3.582-4.1172 0.67578-8.3086-0.60156-11.344-3.4609-1.7109-1.7969-2.6836-4.1719-2.7188-6.6562 0.81641 2.0898 2.1914 3.918 3.9727 5.2812zm14.398 29.41h0.003907c-1.7891-1.5977-3.0039-3.7383-3.4531-6.0938 1.1445 1.8867 2.7031 3.4883 4.5586 4.6875 3.1328 1.625 6.8086 1.8164 10.098 0.53516 4.3477-1.4492 8.1797-4.1406 11.016-7.7461l2.3047-2.9062 1.6406 3.5625c2.2891 5.0781 6.7812 8.8242 12.188 10.164 2.6953 0.57422 5.5078 0.11328 7.875-1.293 2.4219-1.75 4.2578-4.1953 5.2578-7.0117l1.6484-4.1328 3.4219 3.2734c0.83594 0.78906 1.6016 1.5547 2.3359 2.2773v-0.003906c1.207 1.25 2.4805 2.4297 3.8164 3.5352 2.8125 2.2305 4.8828 3.0938 6.8359 2.7188 2.2891-0.44922 3.5156-2.5859 4.9414-5.082 0.57031-1.0039 1.1992-2.1094 1.9688-3.1953l2.1562-3.1328 2.043 3.0664 1.2734 1.9492c0.82422 1.4844 1.8633 2.8438 3.0742 4.0312 0.70703 0.55859 1.5547 0.90625 2.4492 1.0039l1.3398 0.16016 1.8086-0.11328c1.8867-0.15625 3.6953-0.83203 5.2227-1.9492 1.3008-0.98438 2.2266-2.3789 2.625-3.957l0.9375-3.4883 1.4922 2.6797c1.4766 3.4219 5.1719 5.3125 8.8125 4.5117 0.30078-0.17969 0.60156-0.33594 0.9375-0.49609-0.24219 0.30078-0.51563 0.60937-0.74219 0.87109-1.5273 1.0312-3.4336 1.332-5.2031 0.81641-1.0586-0.33203-2.0664-0.80078-3-1.3984l-1.0781-0.68359-0.58984 1.1328c-0.46875 0.95312-1.1055 1.8125-1.875 2.543-1.9609 1.8242-4.4062 3.0469-7.043 3.5156l-1.875 0.23438c-0.51172 0.035156-1.0312 0.035156-1.5469 0-0.26953 0.015624-0.54297 0.015624-0.8125 0-1.6484-0.11719-3.2344-0.66016-4.6055-1.5781-0.71875-0.54687-1.3984-1.1484-2.0352-1.7969l-1.1914-1.2109-0.9375 2.043h0.003907c-0.13672 0.32031-0.28516 0.63281-0.45313 0.9375l-0.27344 0.36719h0.003906c-0.4375 0.72266-1.0078 1.3594-1.6797 1.875-0.50781 0.375-1.0703 0.74219-1.5742 1.0391-0.13281 0.078125-0.27344 0.13672-0.42188 0.17969-0.17188 0.054688-0.34375 0.125-0.50781 0.20703l-0.75 0.26172-0.42188 0.13281-1.2852 0.20703c-0.33594 0-0.68359 0.054688-1.0234 0.10156h0.003906c-0.56641 0.085938-1.1367 0.10156-1.707 0.046876-3.3438-0.38281-6.4922-1.7773-9.0195-4.0039-1.0117-0.82031-1.9805-1.6992-2.8945-2.625l-0.99219-0.98438-0.80469 1.1445h-0.003906c-1.332 1.957-3.043 3.6328-5.0352 4.9219-3.6445 2.1602-7.9922 2.7969-12.102 1.7695-5.5039-1.4023-10.242-4.8984-13.211-9.7383l-0.69531-1.0859-1.0234 0.79688 0.003906-0.003906c-3.0156 2.3867-6.5469 4.043-10.312 4.8398-4.1406 1.0273-8.5234 0.12109-11.914-2.4688z"/>
  <path d="m515.51 764.01c0-2.2422-0.14062-4.4922-0.28906-6.5625l-0.046875-0.57031-0.47656-0.32031c-0.65625-0.42969-1.2734-0.86328-1.875-1.332l-1.0312-0.78906-0.67578 1.1172c-0.42188 0.73438-0.88281 1.4453-1.3789 2.1289-1.543 2.0859-3.6836 3.6562-6.1406 4.5-2.9727 0.75-6.1289 0.19922-8.6719-1.5117-0.77344-0.56641-1.5-1.1914-2.1758-1.875l-1.1445-1.0703-0.79688 0.70312c-0.32031 0.27344-0.60156 0.55469-0.89062 0.84375v0.003907c-0.57812 0.58203-1.2031 1.1172-1.875 1.5938l-0.72266 0.48828c-0.5625 0.36719-1.1172 0.75-1.6133 1.0312-1.0039 0.375-1.9883 0.75-2.8125 1.0039l0.003907-0.003906c-2.0586 0.375-4.1797 0.17969-6.1328-0.57031-0.82422-0.23047-1.5898-0.62109-2.2578-1.1523l-2.2109-1.5195h-0.003906c-0.10938-0.10156-0.21094-0.21094-0.30078-0.32812l-0.73047-0.9375-0.9375 0.76953c-0.9375 0.76562-1.9453 1.4414-3.0078 2.0156-2.1797 1.0742-4.5742 1.6328-7.0039 1.6289-3.8633-0.10547-7.5078-1.8008-10.078-4.6875-1.5469-1.707-2.6055-3.8047-3.0547-6.0664v-0.47656l0.375 0.51562 0.54297 0.61719c1.1211 1.375 2.4219 2.5938 3.8633 3.6289 2.3867 1.7617 5.3438 2.5664 8.2969 2.2617 3.6055-0.53125 6.8047-2.6016 8.7656-5.6719l1.7148-2.3633 2.5508 2.3633 1.5 1.3594 1.2461 1.0977 1.293 0.81641v-0.003906c0.49609 0.375 1.0742 0.625 1.6875 0.73047 1.8984 0.69922 4.0273 0.21484 5.4375-1.2344 0.58203-0.37891 1.1133-0.82422 1.5859-1.332 0.28125-0.28906 0.58203-0.58984 1.0234-0.98438 0.61719-0.73047 1.2383-1.4336 1.875-2.1289l3.0078-3.4883 2.0898 3.168c1.0938 1.7383 2.4688 3.2812 4.0664 4.5664 1.1875 0.94922 2.6953 1.4102 4.2109 1.2852 2.6797-0.47656 5.4922-3.75 7.2266-6.6289l1.3867-2.2891 3.957 4.1445-0.16797-3.0664c-0.13281-2.1562-0.21484-4.3047-0.30859-6.4414l-0.16016-3.9453-0.48828-0.32812c-0.91406-0.625-1.7539-1.3555-2.5-2.1719-0.28125-0.32812-0.50781-0.64844-0.74219-0.9375l-0.85156-1.2188-0.9375 1.1328c-1.5781 1.9688-3.8828 3.2188-6.3945 3.4688-2.5859-0.003906-5.0703-1.0117-6.9297-2.8125l-0.32031-0.32031h0.003907c-0.097657-0.12891-0.19922-0.25391-0.3125-0.375l-0.86328-0.88281-0.84375 0.9375 0.003906 0.003906c-1.1211 1.3086-2.4531 2.4219-3.9375 3.2891-1.9102 1.1602-4.2188 1.4727-6.3672 0.86328-1.7422-0.57031-3.2891-1.6094-4.4805-3l-0.85156-0.9375-0.88281 0.9375c-0.80859 0.86328-1.7031 1.6328-2.6719 2.3047-2.4336 1.7891-5.4297 2.6328-8.4375 2.3828-4.4766-0.28125-8.7031-2.1406-11.934-5.25-1.8906-2.1797-2.7734-5.0508-2.4375-7.9141 0-0.21484 0.09375-0.42188 0.14063-0.60156v0.003906c0.61719 2.625 2.0742 4.9805 4.1523 6.7031 3.1445 1.8945 6.7734 2.8281 10.441 2.6797 1.9141-0.066406 3.7461-0.79297 5.1875-2.0508 1.7344-1.6641 3.2773-3.5156 4.6016-5.5234l2.5039-3.6289 2.1172 3.9102c0.83594 1.5391 2.9922 4.4141 4.2461 4.4141 0.66016 0.13672 1.3477-0.023438 1.875-0.4375 0.97266-0.62109 1.8398-1.3906 2.5703-2.2812 0.92969-1.0664 1.7773-2.1992 2.5391-3.3906l2.5781-3.75 2.5234 3.957c2.1484 3.375 3.6641 5.1953 5.5391 5.1953 1.9414 0 3.3828-2.0703 5.0625-4.7617l2.5391-4.0039 1.875 3.582 2.5781 5.625-0.074219-5.625c-0.11328-7.3047-0.14062-12.891-0.09375-18.113v-2.1484l-1.8203 1.1445 0.003906-0.003906c-0.44141 0.26172-0.85938 0.55859-1.2578 0.88281-0.71094 0.47656-1.4961 0.83984-2.3242 1.0781-0.42188 0.14844-0.84375 0.28906-1.0586 0.39453-2.9922 0.47656-6.0508-0.31641-8.4375-2.1875-0.66797-0.45703-1.2969-0.97656-1.875-1.5469l-0.9375-0.89062-0.78906 1.0234c-0.47266 0.63672-0.98437 1.2461-1.5352 1.8203-2.1602 2.125-5.0898 3.2852-8.1211 3.2148-3.4961-0.19922-6.8203-1.582-9.4297-3.918-0.59375-0.53906-1.1484-1.1211-1.6484-1.7461l-1.3125-1.5078-0.86328 1.1914c-1.6094 2.4102-3.8281 4.3516-6.4336 5.625-2.2812 0.81641-4.8047 0.60547-6.918-0.58203-1.7891-0.94922-3.1367-2.5625-3.75-4.4922-0.65234-2.3203-0.68359-4.7695-0.09375-7.1055 0.054687-0.23438 0.10156-0.42188 0.16016-0.60938 0.046875 0.16797 0.11328 0.35547 0.16797 0.57031l0.20703 0.83594c0.36328 1.8203 0.99609 3.5781 1.875 5.2109 1.3125 2.3945 4.2617 3.3516 6.7305 2.1875 3.0312-2.5312 5.3398-5.8164 6.6953-9.5273l2.5117-5.043 2.3242 5.3828c1.793 4.0938 5.5703 6.9727 9.9961 7.6211 1.4375 0.039063 2.8359-0.49219 3.8789-1.4805 1.1523-1.1914 2.0234-2.6211 2.5508-4.1914l1.8008-4.2461 2.8984 2.9922-0.003907-0.003906c2.4102 3.1289 5.9258 5.2109 9.8281 5.8242 2.5469-0.078124 4.9531-1.2031 6.6445-3.1133l0.34766-0.33594v-0.48828c0-5.7383 0-11.484-0.054687-17.27v-1.2383l-11.082 0.17969c-17.203 0.30078-34.977 0.62891-52.359-0.49609l-0.9375-0.054688-0.28125 0.88281c-5.0898 16.875-16.266 58.602-10.012 82.219l0.19531 0.69531 0.70312 0.14844v-0.003907c9.4648 1.9141 19.105 2.8594 28.762 2.8125 15.379-0.27344 30.711-1.8164 45.836-4.6133l0.9375-0.16016z"/>
  <path d="m416.3 469.69c-3.6484 8.6172-7.4336 17.523-10.988 26.352l-0.44141 1.125 2.1641 0.79688h0.003906c6.4336 1.9258 12.492 4.9219 17.926 8.8711l1.7734 1.5 0.16016-2.3164h-0.003906c1.5938-18.961 1.7578-38.016 0.48828-57l-0.40234-4.8555-1.875 4.5078c-2.8711 7.0117-5.832 14.008-8.8047 21.02z"/>
  <path d="m430.18 636.15-0.20703 0.86328h0.003906c-0.20312 0.80469-0.56641 1.5586-1.0703 2.2148-3.7109 4.832-6.8242 10.098-9.2617 15.684l-0.42969 1.0039 0.9375 0.49609h-0.003906c4.0312 2.3125 8.5391 3.6641 13.172 3.957 5.0508 0.019531 9.6914-2.7695 12.039-7.2383 2.5664-4.4219 4.832-9.0117 6.7891-13.734l1.6602-3.75h-1.8008c-6.9766 0-14.062 0.14844-20.98 0.44141z"/>
  <path d="m445.36 607.74 0.83594 3.9922v0.003906c0.78906 3.375 1.0781 6.8516 0.85938 10.312l-0.13281 1.293h4.9688 7.332l3.4297 0.046875-2.6797-2.1367h0.003906c-4.1641-3.2461-8.1055-6.7656-11.797-10.539z"/>
  <path d="m455.04 584.37-0.75781-0.27344-0.52344 0.60156h-0.003907c-1.6914 1.8672-3.1836 3.9062-4.4531 6.0859l-0.32031 0.57031 0.32812 0.57031 0.003906 0.003907c0.79297 1.3945 1.6875 2.7344 2.6719 4l0.60938 0.82422 0.9375-0.50781v0.003906c3.3945-1.6641 6.1836-4.3438 7.9883-7.668l0.48828-1.0312-1.0039-0.51562c-1.9258-1.0234-3.918-1.9141-5.9648-2.6641z"/>
  <path d="m384.18 558.84-1.3594 0.81641c-0.80859 0.4375-1.6719 0.75391-2.5703 0.9375l-0.88281 0.21484v0.9375c-0.082032 15.234-1.6016 30.426-4.5352 45.375l-1.8008 8.8516 4.0039-8.0898v-0.003907c0.73438-1.4414 2.0469-2.5078 3.6094-2.9336 1.9883-0.62891 3.9766-1.1641 6.0195-1.6953l0.75781-0.19531 0.11328-0.77734v-0.003906c1.6758-14.016 0.67188-28.219-2.9648-41.859z"/>
  <path d="m387.8 615.7-0.23438 1.1328c-0.60156 2.8125-1.2188 5.7734-1.6484 8.6641l-0.21484 1.4922 4.5391-0.44922c1.293-0.125 2.5859-0.25781 3.8828-0.39453l0.99219-0.09375 0.046875-1.0117-0.003907-0.003906c0.16797-3.2695-0.046874-6.5508-0.64453-9.7695l-0.22656-1.2383z"/>
  <path d="m402.62 502.88c-6.0352 15.023-11.047 30.441-15 46.145l-0.48828 1.9766 1.9492-0.58203h0.003906c10.363-3.6602 21.641-3.832 32.109-0.48437l1.4141 0.60156 0.20703-1.5195c0.30078-2.2422 0.71094-4.5859 1.3789-7.7617 0.54297-7.2578 1.1172-14.512 1.7148-21.77v-0.38281c-2.5039-9.6289-11.738-13.125-20.672-16.48l-2.1562-0.81641z"/>
  <path d="m753.84 644.18 1.3125 0.21484 0.12109-3.2344c0.52734-5.2617 0.078125-10.574-1.3242-15.676l-0.23437-0.65625-5.5703-0.9375-0.1875 1.1641c-0.40234 2.5312-1.0234 5.0703-1.6328 7.5h0.003907c-0.80859 2.9844-1.4375 6.0195-1.875 9.082l-0.14062 1.1641 1.1641 0.14062c2.7852 0.38672 5.5742 0.80078 8.3633 1.2383z"/>
  <path d="m641.4 384.01-0.78906-1.6602 0.003906 0.003906c-0.44531-0.94141-1.0156-1.8203-1.6992-2.6094l-0.35547-0.42188h-0.54297c-38.438 0.53516-59.672 9.9766-64.883 28.855l-0.1875 0.66406 0.47656 0.47656v0.003906c1.1172 1.125 2.2969 2.1836 3.5352 3.1719l0.71094 0.57031 0.76953-0.5625c15.938-12.188 39.637-28.285 61.164-28.492z"/>
  <path d="m587.02 455.09-0.375-0.75-0.83594 0.11328h0.003906c-2.4219 0.31641-4.8711 0.37891-7.3047 0.17969l-1.7617-0.12109 0.5625 1.668c3.5352 10.453 7.9609 20.766 19.547 22.164l2.2031 0.26172-1.0234-1.9688c-3.5781-6.8633-7.4141-14.234-11.016-21.547z"/>
  <path d="m602.24 486.07c0.042968-0.66797-0.089844-1.3359-0.38672-1.9414l-0.34766-0.65625h-0.75-1.6133c-16.566 0-22.594-13.867-27.758-29.336v-0.12109c-0.10156-0.24219-0.28125-0.39453-0.19531-0.26172l-0.23438-0.48828-1.7422-0.49609c-0.63672-0.14844-1.5078-0.33594-2.0898-0.48828l-2.0898-0.52344 0.70312 2.043h-0.003906c1.1016 3.3867 2.0156 6.8281 2.7383 10.312 0.875 4.3516 2.082 8.6328 3.6094 12.797 2.4883 6.0391 7.2383 10.863 13.238 13.445 2.6523 1.1992 5.5234 1.8398 8.4375 1.875 2.1367 0.007813 4.2539-0.39062 6.2422-1.1719l0.74219-0.28906v-1.1094c0.20312-0.26172 0.44141-0.49609 0.71094-0.69141 0.3125-0.23047 0.59375-0.5 0.83594-0.80859l0.44141-0.58984-0.34766-0.64844v0.003907c-0.11328-0.26953-0.16406-0.5625-0.14062-0.85547z"/>
  <path d="m614.57 314.26-0.25391-1.0781-1.0977 0.1875c-2.7188 0.50781-5.4688 0.82422-8.2305 0.9375l-1.3672 0.046874 2.043 10.367 0.78906 0.14844h0.64062l-0.007812 0.003906c2.0703 0.76953 4.2578 1.1602 6.4609 1.1641 0.70312 0.003906 1.4102-0.035156 2.1094-0.11328l1.2383-0.13281-0.21484-1.2266c-0.62891-3.6758-1.418-7.2734-2.1094-10.305z"/>
  <path d="m603.75 359.59h-0.60156l-0.375 0.46875c-0.28906 0.38672-0.67969 0.6875-1.125 0.875-7.3633 3.1797-13.734 8.2812-18.449 14.773l-3.3008 4.1445 4.7344-2.3711c12.258-5.6211 25.449-8.9219 38.906-9.7344l3.5703-0.32031-3.0742-1.875 0.003906 0.003906c-6.1602-3.6523-13.133-5.7031-20.289-5.9648z"/>
  <path d="m617.73 331.94-0.14062-1.1719-1.1719 0.14062c-2.6914 0.32812-5.4258 0.18359-8.0703-0.42188l-1.707-0.38281 0.28125 1.7148c0.71094 4.4258 1.1797 7.8008 1.5078 10.969l0.11328 1.0977h1.0977c2.6172-0.10156 5.2109-0.19531 7.8203-0.34766l1.1523-0.066406v-1.1523c-0.17969-3.3125-0.46094-6.7891-0.88281-10.379z"/>
  <path d="m439.79 318c-0.30078 2.1953-0.60156 4.3672-0.88281 6.5625l-0.046875 1.0703 1.0391 0.23438c0.9375 0.23437 2.0234 0.46875 2.8984 0.69531l0.003906-0.003906c0.26172 0.125 0.51172 0.27344 0.75 0.44141l1.5547 1.0234 0.25391-1.875c0.53516-3.8047 1.2461-7.5 1.8008-10.367l0.1875-0.9375-0.9375-0.36719c-1.4805-0.58984-2.9609-1.1914-4.5-1.7344l-1.2852-0.5z"/>
  <path d="m603.46 343.89-0.14844-1.3203c-0.76953-6.6953-2.0625-13.473-3.3086-20.035-0.83594-4.3672-1.6953-8.8867-2.3906-13.305-0.44141-2.6719-0.88281-5.3242-1.4258-7.9414l-0.33594-0.9375h-0.74219l-2.5586-0.9375v1.707h-0.003906c0.77344 14.035-2.0977 28.035-8.3359 40.633l-0.9375 1.6875 1.9297 0.074219c6.2617 0.21484 11.812 0.34766 16.949 0.39453z"/>
  <path d="m591.99 635.62-1.4336-4.4922c-2.7734-11.336-7.7617-22.016-14.672-31.422l-0.41406-0.48828-0.64844 0.085938 0.003906-0.003906c-3.1211 0.44922-6.1172 1.5156-8.8203 3.1328l-0.28906 0.17969-0.16016 0.30078-0.003906-0.003907c-0.46875 0.98047-1.168 1.832-2.0312 2.4844l-1.1328 0.80469 0.99219 0.9375v0.003906c7.0625 8.0938 12.027 17.801 14.453 28.266 0.63672 1.9961 1.2852 3.9844 1.9766 5.9805l0.42188 1.2266 1.1719-0.53516 0.003906 0.003907c3.4961-1.6602 6.8203-3.668 9.9102-6z"/>
  <path d="m643.71 578.44c-5.625 5.4648-11.336 11.109-17.277 16.332l-0.65625 0.57031 4.7891 10.312 1.1523-0.84375c2.5508-1.875 5.0625-3.75 7.5664-5.625 14.203-10.848 31.875-24.375 37.332-43.707l0.48828-1.7148-1.7734 0.23438c-2.5078 0.33203-5.0391 0.45703-7.5664 0.38672h-1.6211l0.47656 1.5469c0.25781 0.73047-0.011719 1.543-0.65625 1.9766-7.8359 6.375-15.168 13.555-22.254 20.531z"/>
  <path d="m582.78 654.84-0.40234 0.13281c-0.16016 0.027344-0.31641 0.070313-0.46875 0.12109l-0.38281 0.14062-0.21484 0.34766h-0.003906c-0.19141 0.33203-0.41797 0.64844-0.67188 0.9375-7.2266 7.6445-16.57 12.965-26.832 15.27l-0.67578 0.19922-0.19531 0.66406c-1.1992 3.9648-3.207 10.613 0.32031 13.352h-0.003906c2.3516 1.6836 5.1914 2.543 8.082 2.4453 3.4492 0.046875 6.8359-0.93359 9.7305-2.8125 9.4062-6.9453 14.602-18.223 13.773-29.887l-0.066406-1.4141-1.3789 0.32031v-0.003906c-0.21094 0.039062-0.41406 0.10156-0.60938 0.1875z"/>
  <path d="m456.07 398.6-0.88281 1.1523c-1.5391 2.0156-3.3359 4.4258-4.9688 6.9375l-0.30859 0.48828 0.20703 0.55469v-0.003907c2.1953 5.0938 6.582 8.918 11.926 10.398 7.4336 2.3555 15.215 3.4414 23.016 3.207 25.996-0.38281 51.676-5.793 75.617-15.938l0.42188-0.23438 0.11328-0.46875c0.55469-2.0078 1.0859-3.6836 1.6406-5.1484l1.2188-3.2148-2.9336 1.8086c-12.164 7.4961-26.141 11.523-40.426 11.645-1.6133 0-3.543 0.09375-5.7266 0.16797-16.742 0.60156-47.926 1.6602-57.965-10.246z"/>
  <path d="m568.7 421.43-1.5195-1.3047-0.39453 1.9688 0.003906 0.003906c-0.92188 6.0781-3.5391 11.777-7.5586 16.434l-0.71094 0.75 0.66406 0.79688c3.0781 3.6953 7.1016 6.4844 11.645 8.0625h0.14062c3.7695 0.71875 7.5938 1.1211 11.43 1.1992l1.9609 0.074219-0.86328-1.7617c-3.4023-6.9844-7.2578-14.898-10.914-22.801l-0.13281-0.39453-0.40234-0.48828v0.003906c-1.1562-0.78906-2.2734-1.6406-3.3477-2.543z"/>
  <path d="m523.66 611.79-1.668-0.75781v-0.003906c-2.3867-1.0977-4.9688-1.7031-7.5938-1.7695-1.5547-0.16797-3.1094 0.30859-4.3047 1.3125-0.82031 1.2188-1.1133 2.7148-0.81641 4.1523 0 0.60938 0.074218 1.293 0.066406 2.0703-0.61719 5.9766-2.6875 11.707-6.0273 16.699-4.5312 6.6836-5.1641 15.273-1.6602 22.547 2.6094 3.9492 7.125 6.2109 11.852 5.9414h1.293l1.7617-0.10156-0.76953-1.5742c-3.0625-6.8203-4.543-14.242-4.3398-21.715-0.33984-9.7031 3.6328-19.062 10.855-25.555z"/>
  <path d="m446.41 412.83-0.9375 1.9219c-1.7695 3.4844-3.1953 7.1328-4.2578 10.895v0.34766c-0.10547 3.8477 1.4023 7.5625 4.1523 10.254 7.3594 4.1328 15.992 5.375 24.219 3.4883 3.0859-0.23438 6-0.44922 8.6797-0.44922 12.535 0 23.832 0.074219 35.223 0.9375 1.875 0.14062 3.918 0.33594 6.0078 0.54297 4.7812 0.46875 9.8633 0.9375 14.812 0.9375 5.0391 0.16016 10.062-0.625 14.812-2.3047 1.2227-0.48438 2.3906-1.0938 3.4883-1.8203l0.39453-0.39453c0.30078-0.47656 0.76172-0.83203 1.3008-1.0039l0.42187-0.23438c5.1328-5.0977 8.0352-12.02 8.082-19.254l0.054687-0.53516-0.38281-0.39453c-0.76562-0.76172-1.3203-1.7109-1.6016-2.7539l-0.38281-1.4727-1.3203 0.74219c-22.258 12.555-55.922 13.211-79.258 12.637-13.668-0.32031-26.578-0.60937-32.363-10.312z"/>
  <path d="m564.87 521.82c7.5859 2.6523 15.523 4.1602 23.551 4.4727 2.7461 0.019531 5.4844-0.29688 8.1562-0.9375 9.375-2.25 7.7734-13.996 6.4883-23.438-0.19531-1.5273-0.40234-2.9922-0.54297-4.3398l-0.14063-1.3125-1.293 0.28906h-0.003906c-9.3203 1.8359-18.953-0.96094-25.844-7.5-5.8203-6.5977-9.6172-14.734-10.934-23.438-1.125-4.9844-2.6758-9.8633-4.6289-14.586l-2.2422-5.0078v5.4844 9.1484c0.054688 9.9844 0.11328 20.316-0.42188 30.395-0.085937 1.5938-0.27344 3.375-0.47656 5.2695-0.9375 9.3867-2.2969 22.117 8.332 25.5z"/>
  <path d="m476.93 376.88-4.4727 4.2383c-4.25 3.8633-8.293 7.9531-12.102 12.254l-0.78906 1.2109 0.42969 0.61719c5.9141 8.4375 34.039 9.1875 43.285 9.4219h1.5078c3.5352 0.13281 7.5 0.28125 11.672 0.28125h0.003906c14.051 0.92187 28.059-2.3672 40.227-9.4531 6.9805-5.2266 13.207-11.387 18.508-18.309 4.3477-5.6953 9.3867-10.832 15-15.289l3.0469-2.2422-3.75 0.12109c-4.0312 0.25-8.0781-0.050781-12.027-0.89062l-0.79688-0.20703-0.46094 0.68359v0.003906c-2.3672 3.6836-4.5117 7.5117-6.4219 11.457-2.6172 5.7617-5.9766 11.164-9.9922 16.059-4.4062 4.8086-8.2227 6.6953-11.832 5.8203-2.0391-0.56641-3.8555-1.7539-5.1953-3.3945l-1.1445-1.3398-0.78906 1.5664h0.003906c-1.2031 2.4766-3.0625 4.5703-5.3789 6.0586s-4.9961 2.3125-7.7461 2.3789c-10.305-0.12109-19.863-5.4023-25.453-14.062l-1.1992-1.875-0.85156 2.043h-0.003906c-1.2773 3.957-3.9414 7.3203-7.5 9.4688-3.3984 1.6133-7.4453 0.90234-10.094-1.7695-3.3281-3.3203-5.2656-7.7812-5.4219-12.48z"/>
  <path d="m608.95 295.12-0.36719-1.0508-1.0781 0.30078c-2.0742 0.60938-4.1133 1.3203-6.1133 2.1367l-0.9375 0.36719 0.19531 0.9375c0.33594 1.6602 0.63672 3.3477 0.9375 5.043l0.09375 0.58984c0.26172 1.6328 0.52344 3.3008 0.83594 4.9414l0.19531 0.9375h0.98828c2.7031-0.074219 5.3984-0.34375 8.0625-0.80469l1.2852-0.20703-0.35547-1.2656c-1.0352-3.75-2.2734-7.668-3.7422-11.926z"/>
  <path d="m542.01 282.23c-5.4219 0.74219-10.715 2.2227-15.734 4.3984-3.0234 1.2188-6.1055 2.2812-9.2422 3.1758-5.7656 1.1367-11.668 1.4375-17.523 0.89062-6.5312-0.61328-13.121-0.19922-19.527 1.2305l-1.1055 0.33594 0.32031 1.1172c1.2109 3.7188 2.6094 7.3789 4.1875 10.957 2.3477 5.3516 4.3711 10.836 6.0664 16.426l0.17969 0.63672 0.62891 0.17969c4.1836 0.69531 7.6133 3.707 8.8398 7.7695 1.3164 5.3125 4.5312 9.9609 9.0352 13.07 4.5039 3.1055 9.9883 4.4609 15.422 3.8047 1.5664 0 3.207-0.074218 4.9219-0.24219 3.7695 0.054687 7.4297-1.2734 10.285-3.7344s4.7109-5.8789 5.2148-9.6172c0.90625-3.3125 2.3008-6.4727 4.1406-9.375 2.9141-3.4414 6.9805-5.707 11.438-6.3828l0.80469-0.21484 0.054687-0.83594h0.003907c1.0273-8.9141 3.8164-17.539 8.2031-25.367l0.5625-1.0391-1.0586-0.48047c-7.8633-4.7461-16.945-7.0742-26.117-6.7031zm-25.762 43.012h-0.003906c-0.23828-0.09375-0.48047-0.17578-0.73047-0.24219l-1.2266-0.46875-0.48828-0.13281c-0.14453-0.097656-0.29297-0.18359-0.44922-0.26172l-0.75781-0.42969h-0.003906c-2.0469-1.1719-3.5664-3.0859-4.2461-5.3438-0.41406-1.9102-0.35547-3.8945 0.16797-5.7773 0.56641-1.9453 1.2734-3.8477 2.1211-5.6914 0.24219-0.58203 0.48828-1.1172 0.67578-1.6016 0.35547-0.79688 0.64844-1.5195 0.9375-2.1641 0.30859-0.80469 0.66406-1.5938 1.0664-2.3555 0.12891-0.37891 0.30078-0.73828 0.51562-1.0781 0.19531 0.27734 0.35938 0.57031 0.48828 0.88281 0.46875 1.7812 0.62109 3.6289 0.44922 5.4648-0.20703 1.3594-0.55469 2.6914-1.0391 3.9766-1.375 2.7227-1.6602 5.8633-0.80859 8.793 0.69531 1.2305 1.875 2.1133 3.2539 2.4258 3.4922 0.31641 6.9922-0.51953 9.9648-2.3789 1-1.0703 1.7422-2.3516 2.168-3.75 0.37891-1.0234 0.83203-2.0195 1.3477-2.9805 0 0 0.30859 0.19531 0.79687 1.332v-0.003906c0.30078 0.62891 0.45703 1.3125 0.45313 2.0078v0.58984c0.078124 0.91406-0.03125 1.832-0.32031 2.6992l-0.066406 0.21484v0.003906c-0.96875 3.0977-3.4375 5.4961-6.5625 6.375-0.28906 0.054688-0.57031 0.13281-0.86328 0.20703v-0.003906c-0.65234 0.17578-1.3203 0.28125-1.9961 0.3125-1.0859 0-2.2422-0.14063-3.3672-0.28125h0.003906c-0.50781-0.058594-1.0039-0.17188-1.4844-0.33984z"/>
  <path d="m576.84 293.93c-0.38281-0.24219-0.78906-0.48828-1.2188-0.73047l-2.1016-1.3047-0.60156 1.1055c-4.0703 7.6406-10.387 21.852-6.9297 31.32l0.003906 0.003906c1.2383 3.4531 3.9297 6.1953 7.3594 7.5l0.21484 0.19531h1.2852l0.30078-0.75c1.0039-2.5781 1.7109-5.2617 2.1172-7.9961 1.2383-9.1406 1.832-18.352 1.7812-27.574v-0.82422l-0.77734-0.28125c-0.5-0.17188-0.98047-0.39453-1.4336-0.66406z"/>
  <path d="m456.49 298.94-1.3047 4.7812c-3.5547 12.371-5.625 25.117-6.168 37.977l-0.046875 1.3672 1.3594-0.17969v0.003906c5.8359-0.64844 11.699-1.0078 17.57-1.0703h1.8008l-0.75781-1.6133-0.003906 0.003907c-5.2734-11.629-9.1172-23.852-11.438-36.406z"/>
  <path d="m443.73 294.21c-0.63672 3.3086-1.4609 7.6797-2.1484 12.188l-0.16016 0.99219 0.9375 0.30859c1.6406 0.51563 3.2266 1.1055 4.8281 1.7266l1.2266 0.48828 0.32812-1.2852c1.0586-4.1641 2.1953-8.2422 3.375-12.113l0.32031-1.0586-1.0508-0.375h0.003907c-2.0508-0.76172-4.1602-1.3516-6.3086-1.7617l-1.1523-0.21484z"/>
  <path d="m453.1 274.73-0.12109-1.0391h-1.0391c-0.75781 0-1.5195 0-2.2891-0.09375l-0.9375-0.054687-0.25391 0.9375c-1.2461 4.3672-2.3164 8.5781-3.207 12.516l-0.26172 1.1797 1.1914 0.22656v-0.003906c2.2617 0.42969 4.4805 1.0547 6.6289 1.875l1.0977 0.41406 0.41406-1.0977c0.085937-0.21484 0.14844-0.44141 0.21484-0.65625 0.066407-0.21484 0.10156-0.34766 0.16797-0.52344l0.10156-0.27344v-0.28906c-0.62891-4.3984-1.207-8.7578-1.707-13.117z"/>
  <path d="m474.96 296.02-0.70312-1.5742-1.4141 1.3047h-0.003906c-0.92578 0.82422-2.0781 1.3555-3.3086 1.5273l-1.1914 0.17969 0.20703 1.1914v-0.003906c1.418 8.9102 3.7227 17.656 6.8711 26.109 1.4727 3.6445 3.1602 7.1953 5.0625 10.633l0.55469 1.0039 1.0117-0.53516 0.46875-0.27344c1.1445-0.36328 2.0703-1.2109 2.543-2.3125 2.5586-5.5039-2.9727-19.293-7.4141-30.383-1.0352-2.582-1.9805-4.9336-2.6836-6.8672z"/>
  <path d="m572.61 336.8-1.1992-0.54297c-5.5312-2.2852-9.5117-7.2344-10.555-13.125l-0.22656-1.2852-1.2734 0.44141c-5.6211 1.7266-9.5898 6.7422-9.9766 12.609-0.46484 3.25-1.707 6.3359-3.6289 9-5.8516 5.6953-14.031 8.3281-22.105 7.1133l-2.2773-0.13281v0.003906c-6.9297 0.55078-13.82-1.4492-19.379-5.625-1.8086-2.2891-3.3008-4.8125-4.4336-7.5-1.2578-2.8555-2.832-5.5664-4.6875-8.0742l-1.9766-2.418-0.10156 3.1211h-0.003906c0.23438 4.1797-2.2422 8.0312-6.1406 9.5547l-1.2852 0.53516 0.75 1.1719c6.3828 10.191 19.547 27.742 35.727 30.758h0.003907c7.207 1.3594 14.645-0.52734 20.332-5.1562 1.4609-1.0977 2.9609-2.2031 4.4805-3.3203v0.003907c10.68-6.8359 19.934-15.676 27.246-26.035z"/>
  <path d="m583.45 227.51-2.5977-5.7383-1.1172 0.66406c-2.793 1.6562-5.625 3.2656-8.4922 4.8281l-0.64844 0.34766v0.73047l0.003906 0.003906c0.015626 7.8516 2.4219 15.512 6.8984 21.965 1.2188 1.1953 2.8594 1.8672 4.5664 1.875 1.0117-0.0625 2.0234 0.14453 2.9258 0.60938l0.49609 0.25391 0.50781-0.23438c1.7266-0.78906 3.4609-1.6406 5.1367-2.4844l0.38281-0.17969 0.16016-0.39453c0.25781-0.62891 0.62109-1.2109 1.0664-1.7227l0.58203-0.63672-0.42969-0.74219c-3.4688-6.2188-6.6211-12.605-9.4414-19.145z"/>
  <path d="m482.67 371.02c-1.6836 5.3867-0.83984 11.246 2.2969 15.938 0.87891 1.3555 2.3086 2.2539 3.9102 2.457 0.58594-0.003906 1.1641-0.17188 1.6602-0.48828 3.0469-2.3867 5.1953-5.7383 6.0938-9.5078 0.20703-0.69141 0.73438-1.2422 1.4141-1.4805l2.0547-0.76953-1.7812-1.2852v0.003906c-3.8086-2.7734-7.4023-5.832-10.746-9.1523l-0.9375-0.9375-0.79688 1.0859c-0.9375 1.2578-1.875 2.418-2.8867 3.6289z"/>
  <path d="m595.66 263.15-0.50781-1.0781-1.0586 0.51563c-1.1172 0.53516-2.2305 1.0586-3.3477 1.5547l-0.79688 0.33594 0.09375 0.86328c0.14062 1.2383 0.26172 2.5039 0.38281 3.75l0.32031 3.1328 0.16797 0.51562c3.5352 5.5625 6.2305 11.621 8 17.973l0.35547 1.2383 1.1914-0.46875v-0.003907c1.6953-0.66797 3.4258-1.2422 5.1836-1.7227l1.2266-0.34766-0.44141-1.1992c-2.8008-7.3984-6.1289-15.133-10.77-25.059z"/>
  <path d="m543.23 380.16 0.42188 1.0039c1.1641 2.7383 2.6719 5.625 5.0898 6.3359v0.003906c0.34766 0.10156 0.70703 0.15625 1.0703 0.15625 0.97656-0.019531 1.9258-0.34766 2.707-0.9375 3.6836-2.8945 6.7188-6.5352 8.9062-10.676 1.6602-2.7109 3.1016-5.625 4.4922-8.4375l3.207-6.4219-4.5859 4.1172v-0.003906c-6.1641 5.6016-12.996 10.418-20.344 14.344z"/>
  <path d="m510.94 382.95-5.2031-2.1094 3.918 4.0117c4.5117 4.8984 10.676 7.9531 17.309 8.5703 1.0195 0.003906 2.0352-0.12109 3.0273-0.36719 3.9453-1.1211 6.9102-4.3945 7.6289-8.4375l0.5625-2.1367-2.082 0.72266h0.003906c-2.293 0.82422-4.6367 1.5-7.0156 2.0234-6.1406 1.0625-12.461 0.26953-18.148-2.2773z"/>
  <path d="m606.32 572.97-1.1172-1.7539-4.0703 3.9766c-4.0039 3.8906-8.1289 7.9219-11.914 12.188l-0.66406 0.73047 0.60937 0.76953c3.7422 4.8477 6.9062 10.117 9.4297 15.703l0.40234 0.87109 0.9375-0.23438c5.2305-1.3047 17.465-4.3398 15.168-14.203-1.9062-6.4609-4.875-12.562-8.7812-18.047z"/>
  <path d="m398.02 1069.7h-1.0586l-0.14844 1.4141c-0.003906 0.23047-0.035156 0.45703-0.09375 0.67578l-0.51562 1.4141 1.4922 0.16016h-0.003907c5.043 0.52734 10.109 0.78125 15.18 0.75h0.9375l0.36719-1.6211c0.10547-0.56641 0.24609-1.125 0.41016-1.6758l0.47656-1.6484-1.707 0.14844c-5.1445 0.47656-10.422 0.44922-15.336 0.38281z"/>
  <path d="m391.15 1077.3-0.33594-0.066406-0.32812 0.11328c-2.5742 1.0352-5.3633 1.418-8.1211 1.1172-7.5742-1.3047-14.742-4.3398-20.953-8.8672l-1.4336-1.0039-0.39453 1.707c-0.9375 4.293-1.7539 8.8203-2.3711 13.445l-0.11328 0.80469 0.72266 0.38281c10.477 4.9883 21.984 7.418 33.582 7.0977 6.457 0.023438 12.898-0.60547 19.227-1.875l0.87109-0.17969 0.054688-0.9375h0.003906c0.16016-2.8789 0.47266-5.75 0.9375-8.5977l0.22656-1.3516h-1.3672l-0.003906 0.003906c-6.7734 0.035157-13.539-0.5625-20.203-1.793z"/>
  <path d="m585.28 890.2c12.492-0.67578 24.883-2.6367 36.977-5.8516 4.8359-1.1055 9.0195-2.0625 11.773-2.457 8.5117-1.2383 17.148-2.8125 25.5-4.3789 10.312-1.875 20.992-3.8828 31.547-5.1836l1.3672-0.16797-0.39453-1.332c-0.9375-3.1016-1.875-6.1953-2.8125-9.2344l-0.42969-1.332-1.2383 0.64844c-5.4883 2.1055-11.406 2.8516-17.25 2.1758-2.9375-0.12109-5.8828-0.089844-8.8203 0.09375-10.625 1.3711-21.008 4.2109-30.852 8.4375-12.566 5.9531-26.434 8.6328-40.312 7.7812-11.09-1.4531-15.348-10.238-19.762-21.562l-1.6133-4.1719c-9.6641-21.219-15.859-43.848-18.348-67.031l-0.046875-0.78906-0.75-0.26172c-3.1172-1.0039-5.9609-2.7031-8.3242-4.9688l-2.8125-2.8125 0.85156 3.8516v0.003906c7.1328 33.875 16.211 67.312 27.188 100.14 2.1758 6.2969 9.4141 8.3984 18.562 8.3984z"/>
  <path d="m423.14 968.75-1.2461 0.36719 0.39453 1.2461c-0.85156 12.297-3.2305 24.441-7.0898 36.148-1.6328 5.7656-3.3203 11.738-4.5938 17.551-1.8164 14.23-7.6289 27.652-16.762 38.711l-1.9414 1.9883h6.7852 5.2695 0.003907c4.3008 0.058594 8.5977-0.19922 12.859-0.78125 0.25391 0.046876 0.51563 0.03125 0.76172-0.046874l0.41406-0.13281 0.22656-0.36719-0.003906 0.003906c5.6523-9.8633 9.918-20.461 12.676-31.488 1.7812-6 3.6367-12.188 6.0195-18.215v-0.003907c5.1289-14.188 8.875-28.84 11.184-43.75l0.53516-2.8984-1.3516-0.046875c-8.0859-0.43359-16.195 0.14062-24.141 1.7148z"/>
  <path d="m406.07 1103.4-1.2188 0.14062c-9.7461 1.1719-19.602 1.0703-29.316-0.30078l-2.082-0.30078 0.84375 1.9297v0.003906c3.0312 8.7266 3.793 18.082 2.2109 27.188l-0.16797 1.5078 1.5-0.20703c10.668-0.85938 20.547-5.9648 27.422-14.164l0.21484-0.42969c0.96484-4.6484 1.1914-9.4219 0.67578-14.141z"/>
  <path d="m548.71 742.06h0.78906c14.109 0.55469 28.434 0.66406 42.281 0.76953 4.293 0 8.5977 0.035156 12.91 0.10156h0.27344-0.003906c3.7305 0.50781 7.5-0.57422 10.395-2.9805 1.7461-2.2891 2.4141-5.2227 1.8281-8.043l-0.14844-1.6484-1.5078 0.69531-0.003906-0.003906c-2.3867 1.0547-5.1094 1.0547-7.5 0-2.8711-1.3164-5.4609-3.1797-7.6211-5.4844l-1.293-1.2656-0.62891 1.6875c-0.33594 0.9375-0.75781 1.875-1.2734 2.9727-0.5 0.94141-1.1328 1.8047-1.875 2.5703-2.6094 2.5273-6.5469 3.1016-9.7695 1.4219-2.4805-1.4062-4.5977-3.3711-6.1797-5.7461l-2.1367-2.9062v3.4961c-0.52344 1.5234-1.3516 2.9219-2.4258 4.1172-0.71875 0.60156-1.4844 1.1406-2.2891 1.6133l-2.0547 0.68359c-2.6367 0.47266-5.3555-0.03125-7.6484-1.4141-1.7227-1.0898-3.25-2.4648-4.5195-4.0625-1.9844-2.4688-3.4414-5.3164-4.2852-8.3711 0.86328 0.63672 2.1953 1.875 3.582 3.0664 0.77734 0.70312 1.6484 1.4805 2.6445 2.3438l0.54297 0.47656c2.2109 1.875 5.9258 5.082 9.0859 3.6094 2.8125-1.3516 3.2734-5.5703 3.6094-8.9609 0.10156-0.9375 0.17969-1.8086 0.32031-2.4375l0.9375-4.1992 3.3828 2.6641v-0.003907c1.6484 1.3242 3.0938 2.8828 4.293 4.625 0.40234 0.54297 0.79688 1.0703 1.1797 1.5273 2.0234 2.6914 3.8438 3.8906 5.5117 3.75 2.3516-0.20703 3.6758-2.7266 5.0625-5.4102h0.003907c0.60937-1.2812 1.332-2.5039 2.1641-3.6562l1.875-2.457 3.1406 3.6836c2.2656 3.1484 5.0508 5.8867 8.2305 8.1016 1.2812 0.78516 2.8008 1.0898 4.2852 0.86328 0.30078-0.09375 0.58984-0.21484 0.86328-0.32031l0.46094-0.1875 1.1328-0.85156-0.14844-0.69531c-0.69531-3.1016-1.4922-6.1602-2.3242-9.375-0.41406-1.0859-0.79688-2.1367-1.0859-3.0859l-0.003907 0.003907c-0.20703-0.73438-0.32031-1.4922-0.32812-2.25-0.13281-0.59766-0.30078-1.1875-0.49609-1.7656-0.19141-0.76172-0.24609-1.5508-0.16016-2.332l0.10156-0.88281-0.81641-0.33594c-10.574-4.3789-20.035-8.1562-28.902-11.578l-0.62891-0.24219-0.51562 0.41406v-0.003906c-3.5703 2.8477-7.8086 4.7305-12.316 5.4648-4.7109 1.3008-9.6875 1.2578-14.375-0.125-4.6836-1.3789-8.8906-4.0469-12.137-7.6914-3.1758-5.8789-3.8945-12.773-2.0078-19.184l0.22656-1.0703-1.0508-0.30078v0.003906c-0.98438-0.28906-1.9453-0.64453-2.8789-1.0703l-0.39453-0.17969-0.41406 0.12109 0.003907 0.003906c-1.0391 0.29688-2.0977 0.51172-3.1719 0.64453l-1.1641 0.16797 0.16016 1.1719 0.003906 0.003906c3.2734 23.52 8.9453 46.645 16.93 69.008z"/>
  <path d="m655.13 552.1c-1.1914-0.14844-2.3828-0.38281-3.5703-0.61719-1.6602-0.37891-3.293-0.85938-4.8945-1.4453l-0.61719-0.20703-0.51562 0.40234v0.003906c-10.723 8.1719-20.004 18.074-27.461 29.305l-0.38281 0.60156 0.36719 0.62891c1.7266 2.9531 3.2539 5.7383 4.6875 8.5117l0.69141 1.3398 1.1328-1.0039c5.5117-4.9141 10.875-10.125 16.059-15.168 6.5625-6.375 13.305-12.957 20.391-18.93l1.875-1.5742-2.3984-0.47656c-1.8125-0.33984-3.6055-0.80078-5.3633-1.3711z"/>
  <path d="m535.14 657.58c1.8398-0.98438 4.1211-0.5625 5.4844 1.0195l0.30078 0.24219v0.003906c1.9453 1.0625 4.1367 1.6016 6.3555 1.5664 8.1875-0.92578 15.863-4.4453 21.91-10.043l0.60156-0.51562-0.26172-0.75c-1.0039-2.8125-1.875-5.8398-2.7383-8.7852h-0.003906c-1.7383-9.0508-5.875-17.473-11.98-24.383l-0.60938-0.5625-0.72266 0.36719c-0.80469 0.37891-1.6875 0.57422-2.5781 0.5625-17.926 0.26172-26.793 6.918-27.094 20.484-0.12109 5.5703-0.375 17.156 4.6875 20.625 2.0352 1.2109 4.5547 1.2734 6.6484 0.16797z"/>
  <path d="m366.03 1101.3-0.40234-0.10547c-4.5586-1.1602-8.9648-2.8516-13.125-5.043l-1.0234-0.54297-0.55469 1.0039h0.003906c-0.76562 1.3633-2.0078 2.3984-3.4883 2.9062-4.2852 1.5078-9.2734 2.8125-14.539 4.1797-2.3633 0.61719-4.7812 1.2578-7.2109 1.875l-6.4219 1.7617 6.6484 0.53516c16.469 2.7852 31.766 10.328 44.004 21.695l1.7344 1.6211 0.22656-2.3516v-0.003907c1.9102-9.4844-0.12109-19.34-5.625-27.297z"/>
  <path d="m436.31 258.75 0.9375 0.28906 0.42188-0.9375c2.2812-5.3711 4.0195-10.957 5.1836-16.676 0.85156-3.5156 1.7266-7.1523 2.8125-10.621l0.35547-1.1172-1.1055-0.36719c-15.223-4.3008-27.926-14.82-34.988-28.977l-2.6641-5.8984 0.42188 6.4609c0.054688 0.79688 0.10156 1.6484 0.16016 2.6445h0.003906c0.51563 4.8672 1.4805 9.6758 2.8867 14.363 1.2266 3.7969 2.8164 7.4688 4.7422 10.969 1.1172 2.1016 2.2305 3.9297 3.1797 5.457 0.67578 1.1172 1.4141 2.3164 1.8203 3.1328l-0.003907-0.003906c-3.0742-1.582-5.7617-3.8242-7.875-6.5625-2.8203-3.3477-5.1172-7.1016-6.8125-11.137-2.0156-5.0039-3.3086-10.27-3.8359-15.637-0.77734-8.9805 0.38281-18.023 3.4023-26.516l0.074219-0.41406v0.003906c-0.17969-12.746 1.6055-25.441 5.2969-37.641 2.6875-7.6367 6.3672-14.887 10.941-21.562 2.4922-3.9922 5.0625-8.1367 7.2188-12.395 6.1328-11.359 9.4336-24.031 9.6289-36.938l-0.11328-3.3086-1.9883 2.6328c-3.7422 5.5078-6.6523 11.539-8.6328 17.898-1.8555 5.7461-4.4023 11.246-7.5859 16.379-9.0156 12.844-17.16 26.285-24.375 40.227-14.551 28.941-15.355 55.367-2.3828 78.543h0.003906c8.7266 17.758 24.145 31.32 42.871 37.707z"/>
  <path d="m318.44 1113.8c-5.0234 2.3242-7.5 7.6484-7.332 15.805v1.0312l1.0234 0.11328c7.0586 0.77734 14.551 1.0781 18.562 1.2461 1.3398 0 2.2969 0.09375 2.7578 0.13281 2.9141 0.20703 6 0.47656 9.1953 0.76953 7.0312 0.64844 14.297 1.3125 21.664 1.3398h3.1875l-2.3438-2.0625c-12.422-10.875-35.062-23.805-46.715-18.375z"/>
  <path d="m373.97 547.68 1.2461 0.49609 0.32031-1.3125c7.3594-27.488 16.984-54.316 28.781-80.215 6.0469-14.289 12.301-29.062 17.812-44.117l0.22266-0.65625-0.47656-0.52344c-0.73047-0.81641-1.4453-1.6797-2.1172-2.5391l-0.9375-1.2188-0.9375 1.2461v-0.003906c-27.625 36.668-43.918 80.613-46.875 126.42v0.60938l0.48828 0.375h-0.003906c0.75391 0.59375 1.5859 1.0781 2.4766 1.4375z"/>
  <path d="m361.73 683.11c0.64844 0 1.2656-0.085937 1.875-0.085937h1.0781l0.09375-1.0781c1.3711-9.6445 4.3945-18.984 8.9336-27.609 1.875-4.1719 3.8633-8.4922 5.4453-12.824l0.51562-1.3984-1.4805-0.16797c-2.8984-0.71484-4.9727-3.2656-5.0781-6.25v-0.35547c-0.046876-0.69531-0.085938-1.3789-0.085938-2.082v-1.1719h-1.1719c-0.49219-0.003907-0.97656-0.082032-1.4453-0.23438l-1.1914-0.38281-0.30859 1.2109v-0.003907c-4.8594 16.688-7.75 33.883-8.6133 51.242l0.12109 1.2578z"/>
  <path d="m312.87 1109.7-4.3789 2.0352c-5.0078 2.1797-9.5078 5.3711-13.227 9.375-0.98438 0.92969-1.3477 2.3398-0.9375 3.6289 0.76953 2.2031 4.0586 3.75 10.312 4.9219l1.3984 0.25391v-1.4258c-0.43359-5.2773 0.92969-10.547 3.8594-14.953z"/>
  <path d="m406.76 1017.9c1.1445-5.5586 2.8125-11.25 4.3672-16.727h0.003906c3.2148-9.6523 5.2617-19.656 6.1016-29.793l0.066406-1.5078-1.4805 0.32812v-0.003907c-6.793 1.5156-13.762 2.0977-20.711 1.7344-5.375-0.39453-10.707-1.25-15.938-2.5586l-1.3125-0.33594-0.13281 1.3594c-1.4922 15.309-3.0391 31.145-5.4375 46.547-1.8281 10.309-4.1797 20.52-7.0391 30.59l-1.8086 6.8828 0.9375 0.40234c3.7461 1.4922 7.6406 2.5898 11.613 3.2812 2.3516 0.50781 4.5664 0.9375 6.5625 1.5664l0.9375 0.28906c1.1914 0.36719 2.5508 0.76953 3.9297 1.2656l0.66406 0.23438 0.51562-0.46875c11.633-10.574 14.934-26.785 17.812-41.102z"/>
  <path d="m375.12 1063.2c-4.0039-0.76953-7.9414-1.8672-11.766-3.2812l-1.2461-0.51562-0.9375 3.75 0.58984 0.46094v-0.003906c6.0117 5 13.191 8.3906 20.871 9.8633 1.7148 0.24219 3.4648 0.125 5.1367-0.33594l0.33594-0.09375 0.23438-0.27344c0.34375-0.40234 0.83984-0.64062 1.3711-0.65625h0.375l0.30078-0.24219h-0.003907c0.62109-0.43359 1.1172-1.0234 1.4375-1.707l1.1445-2.8867-2.3906 1.2188-0.42969-0.30078h-0.003906c-0.5625-0.43359-1.168-0.80469-1.8086-1.1055-4.2578-1.7461-8.6875-3.0469-13.211-3.8906z"/>
  <path d="m356.62 773.32c4.4219-0.089844 8.1445-3.3359 8.8398-7.707l0.32031-1.0586-1.0508-0.375c-1.2461-0.46094-2.5508-0.99219-4.1055-1.7344h-0.003906c-1.6719-1-2.7578-2.7461-2.9141-4.6875l-0.054687-1.125h-1.1172c-0.1875 0.007812-0.37891 0.027343-0.5625 0.066406-0.80078 0.10938-1.6133 0.058594-2.3906-0.14844-0.75781-0.14063-1.4805-0.44531-2.1094-0.89063-0.32812-0.1875-0.60938-0.39453-0.9375-0.62891l-1.7812-1.7539c-0.42969-0.61719-0.85156-1.2852-1.1641-1.8086-0.54688-1.2266-0.89844-2.5273-1.0391-3.8633-0.25-3.918 0.35156-7.8438 1.7734-11.504l0.27344-0.83594c1.2109-3.3008 2.5039-6.1211 3.75-8.6641 1.2461-2.5391 2.2305-4.3398 2.8125-5.3711l0.15625-0.29688c0.1875-0.30078 0.41406-0.65625 0.60938-0.9375 0.12891 0.37891 0.21484 0.77344 0.25391 1.1719 0.13672 2.1602-0.027343 4.3281-0.48828 6.4414-0.36719 2.0547-0.9375 4.3516-1.4922 6.7773l-0.54297 2.3438c-0.12109 0.55469-0.30859 1.2383-0.51562 1.9961-0.9375 3.3477-2.1562 7.9141-0.19531 10.492 0.63672 0.91406 1.6445 1.4961 2.7539 1.5938 1.1016-0.16016 2.0469-0.86719 2.5156-1.875 1.3789-3.2617 2.2617-6.7148 2.6133-10.238 0.14844-0.9375 0.26172-1.6484 0.35547-2.0547 3.1758-13.367 7.5352-26.422 13.023-39.016l0.58203-1.3398-1.4531-0.27344c-4.4922-0.86719-9.0898-1-13.621-0.40234l-0.57031 0.09375-0.28906 0.51562c-1.0703 1.9961-2.2227 4.0703-3.4141 6.2148-9.375 16.875-20.961 37.754-15.441 56.344h-0.003906c1.0859 3.7617 3.2305 7.1328 6.1758 9.7109 2.9492 2.5781 6.5742 4.2539 10.449 4.8281z"/>
  <path d="m717.44 1113.8c3.582-2.6055 4.4805-4.9414 3.0859-8.0352l-0.41406-0.9375-0.9375 0.25391c-12.27 2.7305-24.777 4.2578-37.34 4.5547l-4.6875 0.26172 0.46875 1.4453c0.81641 2.5078 1.9062 4.9219 3.25 7.1914l0.63672 1.0977 1.0508-0.74219c2.1992-1.7109 4.8086-2.8086 7.5664-3.1797 2.7578-0.37109 5.5664-0.007812 8.1367 1.0625 3.293 1.2852 5.957 3.8047 7.4258 7.0195l1.0508 2.1484 1.0508-2.1484c0.45703-0.88672 1-1.7344 1.6211-2.5195 2.3359-2.8359 5.0391-5.3477 8.0352-7.4727z"/>
  <path d="m704.06 1144c0-7.8008 0.066406-18.496-6.3828-22.012-2.668-1.5781-5.8789-1.9609-8.8438-1.0508-7.8008 2.418-13.266 13.172-16.539 19.586l-0.51562 1.0039 0.98438 0.55469 0.003906-0.003906c5.6289 3.0391 11.75 5.0586 18.082 5.9609 3.7695 0.61328 7.582 0.92969 11.402 0.9375h1.875v-1.1914c-0.066406-1.1328-0.066406-2.418-0.066406-3.7852z"/>
  <path d="m689.61 1069.9 2.4648 1.2656-0.81641-2.6445c-2.0156-6.6562-4.1055-13.285-6.1953-19.914-8.9336-25.98-15.809-52.625-20.566-79.688l-0.19531-1.2734-1.2461 0.30859h-0.003906c-10.691 3-20.973 7.3008-30.617 12.805l-1.0039 0.52344 0.50781 1.0312c2.1562 4.3125 4.4727 8.625 6.7109 12.797v0.003906c5.4531 9.5781 10.172 19.559 14.117 29.848 4.0898 12.879 7.0742 26.086 8.918 39.469l0.16797 1.0312h1.0391c9.1367-0.72656 18.309 0.79297 26.719 4.4375z"/>
  <path d="m677.96 1122.8-1.0312-1.0039c-1.2734-2.1211-2.3477-4.3555-3.2031-6.6758l-0.58203-1.5273-1.2578 1.0586c-4.9688 3.2969-8.4336 8.4258-9.6367 14.27-0.12891 2.6953 0.89453 5.3164 2.8125 7.2109 0.37891 0.41016 0.78906 0.79688 1.2188 1.1523l1.4336 1.2656 0.69531-1.332c2.3867-4.8711 5.3594-9.4336 8.8477-13.582z"/>
  <path d="m907.59 790.74c-0.47656-3.0117-1.4922-5.918-2.9922-8.5781l-0.28125-0.51562-0.58203-0.085938c-3.0195-0.42188-5.9922-0.86328-9.0195-1.4062l-1.8008-0.32031 0.46094 1.7617 0.003906 0.003906c0.70313 2.7852 1.2656 5.6016 1.6875 8.4375l0.13281 0.88281 0.89062 0.10156c3.4023 0.39453 6.7969 0.73047 10.238 1.0391l1.4805 0.11328z"/>
  <path d="m887.48 779.46-0.21484-0.64844-0.67578-0.13281v0.003906c-48.883-10.711-96.332-27.156-141.36-48.992-17.68-7.9414-35.793-15.629-51.789-22.406l-1.7422-0.73047 0.11328 1.875v-0.003906c0.28906 5.7227-0.63672 11.438-2.7188 16.773l-0.39453 1.0391 1.0234 0.44141c64.809 28.285 128.79 54.422 198.82 63.469l1.5742 0.20703-0.27344-1.5664c-0.54297-3.1641-1.332-6.2852-2.3633-9.3281z"/>
  <path d="m725.75 1112.8-1.3398 1.5859c-0.59766 0.69531-1.2695 1.3242-2.0078 1.875l-1.5859 1.1719h0.003906c-4.6094 2.5664-8.1133 6.7383-9.8555 11.719-0.5625 2.7852-0.96094 5.6016-1.1875 8.4375-0.20703 2.0352-0.42188 4.1328-0.75781 6.168l-0.14844 0.32031v0.30859 1.3984c0 0.46094 0 0.9375 0.046874 1.4453l0.066407 1.332 1.3125-0.23438-0.003907-0.003906c4.0195-0.60547 7.875-2.0352 11.324-4.1914 7.8828-5.1758 9.4766-15 4.6875-29.344z"/>
  <path d="m692.9 1079.8-1.0859-1.6406c-5.625-8.4375-17.812-8.4375-27.816-7.5l-1.2578 0.12109 0.21484 1.2383c0.63672 3.75 1.3203 7.6016 2.0156 11.391l0.23438 1.3047 1.2656-0.40234v-0.003907c7.9766-2.3203 16.18-3.7695 24.469-4.3203z"/>
  <path d="m620.62 941.16-2.3828 4.0312 4.3867-2.6797c0.71094-0.42188 1.3516-0.80469 1.9609-1.1445 10.512-4.6562 21.797-7.3164 33.281-7.8359 4.4922-0.48828 9.1406-1.0039 13.461-1.7422 3.3359-0.5625 6.75-1.0312 10.199-1.5078 4.9023-0.67578 9.9648-1.3867 14.887-2.3633l5.5312-1.1055-5.5117-1.1914 0.003906-0.003906c-3.8086-0.85156-7.5664-1.9219-11.25-3.207-2.8789-0.98437-5.625-1.9492-8.1641-2.8789-4.7891-1.707-8.9141-3.1953-12.77-4.2461-4.707-1.332-9.5391-2.1836-14.422-2.5391-0.9375 0-1.875 0-2.7578-0.066406h0.003906c0.83203-0.31641 1.6836-0.58594 2.5508-0.80469 5.0703-0.94922 10.273-0.94922 15.344 0 6.6133 1.25 13.145 2.8945 19.559 4.9219l2.2227 0.64844v-0.003907c8.2109 2.8828 16.949 3.9414 25.609 3.1133 2.1406-0.41406 4.2344-1.0195 6.2656-1.8086l0.41406-0.25391h-0.003906c1.7617-1.6562 3.0898-3.7188 3.8711-6.0078l0.28906-0.82422-0.72266-0.49609 0.003906-0.003907c-0.35156-0.26562-0.71484-0.50781-1.0977-0.73047-6.2422-3.5859-12.891-6.418-19.801-8.4375-5.7188-1.875-10.387-3.0664-13.809-3.9453-1.125-0.28906-2.2227-0.57031-3.1211-0.82422 5.9727-0.42187 11.973 0.035157 17.812 1.3477 6.5938 1.2344 13.012 3.2773 19.105 6.0859l2.1289 1.0391-0.46875-2.3242c-2.5312-8.2383-6.4805-15.973-11.672-22.855-0.9375-1.5078-1.9609-2.9922-2.8672-4.4258l-2.9531-4.6875 0.79687 5.457c0.27734 1.6211-0.19531 3.2773-1.2852 4.5078-1.332 1.4297-3.1953 2.2383-5.1484 2.2305h-0.52344c-0.30469 0.10156-0.62109 0.16016-0.9375 0.17188-27.898 2.5234-56.691 7.8203-84.523 12.945-7.3398 1.3398-14.625 2.6914-21.852 3.9648l-3.168 0.58984h-0.003906c-6.7188 1.8867-13.785 2.1523-20.625 0.76953l-1.3984-0.42969-0.13281 1.4453c-2.1016 24.77 0.58984 42.957 7.9961 54.094l0.003906-0.003906c2.1797 3.4727 6.0391 5.5234 10.133 5.3906 5.5352-0.48437 10.863-2.3086 15.535-5.3125l0.28125-0.21484c2.3438-2.4648 4.1797-4.5469 5.7734-6.5156v-0.003906c7.2383-8.457 13.363-17.809 18.227-27.824 0.50781-1.2461 1.0117-2.4102 1.4805-3.5078v0.003906c0.88281-1.8789 1.6406-3.8125 2.2695-5.7852 0.21875-0.61719 0.47266-1.2227 0.75781-1.8086 0.054687 0.47656 0.12109 1.1523 0.16016 2.0547v-0.003906c0.070312 3.4883-0.39453 6.9688-1.3867 10.312-1.7695 6.043-4.3047 11.836-7.5469 17.23z"/>
  <path d="m696.96 1070.1 1.3047-0.82422v-0.003907c6.8906-3.7617 14.648-5.6445 22.5-5.4531h1.5l-0.58984-2.1836v-0.003906c-0.84375-2.8945-1.5195-5.8359-2.0156-8.8125-2.1367-18.602-2.6992-37.621-3.2266-56.016-0.25391-8.9805-0.53516-18.273-0.98438-27.383l-0.054687-1.0703-1.0508-0.046876c-4.3867-0.24219-8.8984-0.69531-13.258-1.125-8.2383-1.0078-16.543-1.4023-24.844-1.1797-2.0234 0.15625-4.0039 0.35547-5.9336 0.60156l-1.1914 0.16016 0.17969 1.1797c4.7891 27.031 11.684 53.645 20.625 79.602 2.2109 7.0234 4.4336 14.062 6.5625 21.102z"/>
  <path d="m668.02 1097 0.26172 1.0117 1.0508-0.14062c5.8984-0.88281 12.047-1.2734 17.973-1.6602 10.18-0.25781 20.297-1.7031 30.141-4.3125 4.0156-1.2188 6.8555-4.7969 7.1367-8.9805l0.25391-1.6328-1.6133 0.30078c-7.2734 1.1641-14.602 1.9414-21.957 2.3242-11.523 0.30469-22.957 2.1094-34.012 5.3711l-0.9375 0.33594 0.21484 1.0039c0.40234 2.1289 0.96484 4.2578 1.4883 6.3789z"/>
  <path d="m699.57 962.26c4.6875 0.36719 9.5156 0.74219 14.297 0.9375l1.2852 0.054688-0.066406-1.2852c0-0.49609-0.066407-0.99219-0.10156-1.4922l-0.16016-2.1953-1.0234-0.074219c-5.8984-0.42188-11.82-1.1992-17.539-1.9492-23.438-3.0469-45.59-5.9727-65.117 14.23l0.65625 0.9375-0.9375-0.81641-0.38281 0.25391-0.13281 0.44141c-0.28125 1.0508-0.5625 2.0547-0.9375 3.0078l-0.9375 2.8125 2.6797-1.4531v0.007812c11.832-7.5039 25.109-12.434 38.973-14.465 9.8281-0.28125 19.664 0.070312 29.445 1.0469z"/>
  <path d="m659.55 950.34v-4.5l-1.3125 0.16016v-0.003906c-12.434 0.82031-24.516 4.4766-35.316 10.688l-0.76953 0.44922 0.23438 0.86328c0.78125 3.1094 1.7227 6.1758 2.8125 9.1875l0.49609 0.71094h1.4062l0.35547-0.48828 0.003907 0.003906c0.09375-0.14844 0.20312-0.28906 0.32812-0.41406 8.2852-8.5781 19.051-14.34 30.785-16.48z"/>
  <path d="m723.75 1070.2-0.17969-0.9375h-0.9375c-8.9922-0.40234-20.156-0.85156-25.527 8.3906l-0.89062 1.875 2.2227-0.16797c8.4375-0.48047 16.84-1.4609 25.164-2.9336l1.0781-0.22656-0.14063-1.0781c-0.17187-1.8203-0.44141-3.4414-0.78906-4.9219z"/>
  <path d="m711.61 936.56-1.3672 0.49609c-11.922 3.6836-24.223 5.9805-36.668 6.8555-3.3203 0.35547-6.4766 0.70313-9.375 1.0781h-2.0703v4.6875l1.2461-0.074219v-0.003907c10.32-0.25391 20.641 0.375 30.852 1.875 5.8516 0.65625 11.898 1.3398 17.812 1.7422l1.3672 0.09375-0.11328-1.3672c-0.38281-4.5273-0.87109-9.0938-1.4805-13.969z"/>
  <path d="m525.62 797.14c-0.03125-0.16016-0.050782-0.32422-0.054688-0.48828-0.30078-2.668-0.91016-5.2891-1.8203-7.8164l-0.74219-2.2031-1.3203 1.875c-2.5781 3.9844-6.8711 6.5391-11.605 6.8984l-4.5859 0.42188h0.003907c-14.422 1.9102-29.004 2.2227-43.492 0.9375l-1.3125-0.17969v3.8516c-0.10156 21.188-0.20703 43.125 0.79688 64.688l0.25391 5.418 2.0078-5.043-0.003906 0.003906c1.8555-4.8633 4.0664-9.582 6.6211-14.117 0.63672-1.0391 1.3125-1.9766 1.9688-2.9141l2.3906-3.4961c0.48828-0.64844 0.89062-1.1719 1.3203-1.6875l0.39453-0.49609c2.0156-2.3906 3.9922-4.4141 5.9062-6.375l2.9531-2.9805c3.4688-3.4961 6.4609-6.5625 8.8789-9.3008v-0.003906c2.3125-2.6406 4.3594-5.5078 6.1133-8.5508 0.36719-0.66406 0.69531-1.3047 0.9375-1.875 0.050782 0.68359 0.027344 1.375-0.066406 2.0547-0.67969 3.7148-2.1094 7.2578-4.1992 10.406-3 4.6094-6.3594 8.9727-10.051 13.047-0.67578 0.81641-1.3672 1.6211-2.0703 2.4375-1.3516 1.5664-2.7109 3.1406-3.9453 4.7734l-0.46094 0.60156c-0.32031 0.42187-0.63672 0.84375-0.9375 1.2109l-1.3711 2.0781c-0.30859 0.47656-0.64844 0.9375-0.9375 1.4531-0.67578 0.9375-1.3398 1.9609-1.875 2.9258-2.0625 3.6367-3.9375 7.6602-5.7461 11.551-0.9375 1.9766-1.875 3.9375-2.8125 5.8398-1.875 4.0117-3.8359 7.8555-5.6914 11.082l-0.14844 0.41406v-0.003906c-0.94141 7.4414-3.8164 14.508-8.3359 20.496-16.68 21.461-40.621 20.398-67.914 16.996-2.7383-0.33984-5.4531-0.85156-8.125-1.5391l-1.1523-0.30078-0.27344 1.1641c-0.41406 1.7344-0.85156 3.4492-1.293 5.1758-1.1055 4.3867-2.25 8.9258-3 13.5-0.64062 3.5938 0 7.3008 1.8164 10.473l0.70312 0.72266c0.21484 0.1875 0.42969 0.39453 0.63672 0.5625l0.24219 0.21484h0.33203c1.9023 0.16797 3.5469 1.3867 4.2656 3.1562l0.13281 0.375 0.32812 0.21484-0.003906 0.003906c2.2266 1.4531 4.5664 2.7305 6.9961 3.8125 5.3125 1.4453 10.848 1.8906 16.32 1.3125 4.457-0.625 8.8477-1.6367 13.125-3.0273l0.30078-0.13281 1.875-1.1523c0.9375-0.5625 1.875-1.1328 2.8125-1.7539l1.4727-0.9375v0.003906c9.1367-6.6484 19.008-12.223 29.418-16.613 4.0117-1.6641 8.3555-2.3594 12.684-2.0352-0.61719 0.28125-1.3984 0.60156-2.1172 0.9375-3.1289 1.2422-6.1719 2.6953-9.1055 4.3516-5.5508 3.1445-10.914 6.6094-16.066 10.375l-4.0859 2.8125h3.9727c0.13281-0.03125 0.26953-0.03125 0.40234 0 2.9453 0.19531 6.0273 0.54297 9.0078 0.88281 14.773 1.6484 30 3.3555 40.809-10.039h0.003906c7.7578-10.918 11.203-24.32 9.6641-37.625l-0.10156-3.8438-2.0547 3.2344c-1.2734 2.0078-2.4922 3.9102-3.6016 5.625h0.003906c-3.0898 4.6406-6.5898 8.9883-10.465 12.996 1.1445-2.8125 4.0039-8.3047 6.9922-13.996l0.42969-0.82422 0.003906-0.003906c3.0234-5.707 5.7539-11.57 8.1758-17.559l0.09375-0.22656v-0.23438 0.003906c-0.21484-5.4219 0.042969-10.848 0.77734-16.219l0.40234-2.8125-2.2695 1.6484c-3.7148 2.8281-7.1641 5.9883-10.312 9.4414-3.0547 3.168-5.832 6.2422-8.5039 9.2266-1.875 2.0898-3.6758 4.0781-5.3906 5.8867h0.003906c-3.1016 3.4961-6.5234 6.6992-10.219 9.5625-0.81641 0.60156-1.5 1.0391-2.0547 1.3672 0.44922-0.65625 0.9375-1.3867 1.4727-2.0703 1.332-1.7539 3-4.0391 5.0078-6.7773l3.75-5.1484c3.3477-4.6875 7.1523-9.9375 12-15.617l-0.003906-0.003906c2.6914-3.1953 5.6289-6.1797 8.7852-8.9219 2.9375-2.5391 6.207-4.6641 9.7227-6.3125l0.46875-0.20703 0.28125-0.86328v0.003906c0.03125-0.14453 0.078125-0.28125 0.14062-0.41406 3.8828-8.9141 7.0508-18.188 10.117-27.188 4.0273-12.887 9.0938-25.43 15.148-37.5l0.16797-0.32812v-0.38281c-0.046875-0.074218-0.082031-0.22656-0.11328-0.36719z"/>
  <path d="m569.48 841.35 1.0312 2.6719c5.7578 14.887 12.188 31.445 29.27 31.445v-0.003906c3.6758-0.0625 7.3242-0.69531 10.809-1.875 5.625-1.8086 11.25-4.0234 16.555-6.1602 8.0664-3.4844 16.406-6.3047 24.93-8.4375 3.1914-0.41797 6.4102-0.58594 9.6289-0.50391 8.3125 0.64844 16.668-0.51953 24.488-3.4219l0.78906-0.48828-0.28125-0.87109c-2.2422-6.8164-4.5469-13.594-6.8633-20.383-4.6875-13.621-9.4492-27.723-13.527-41.793-0.47656-1.6016-0.9375-3.1953-1.332-4.8008l-1.875-7.0703-0.9375 5.0703c0 0.20703-0.054688 0.41406-0.074219 0.62891v0.39453c-0.99219 8.9453-2.2969 17.176-3.4609 24.441-0.85156 5.3633-1.5859 10.004-2.082 14.109-0.28125 2.1172-0.51562 4.0781-0.74219 5.8516-0.36719 3.0078-0.75 6.0938-1.125 7.8945-1.1328-4.5664-1.6836-9.2578-1.6289-13.961 0.12109-10.734 0.91406-21.453 2.3711-32.09l0.75-6.7695c1.1836-10.328 1.3398-20.746 0.46875-31.105-2.5703-9.8711-5.7383-21.461-9.7422-32.605l-0.16016-0.47656-0.46094-0.19531c-4.1797-1.875-8.3359-3.6289-12.496-5.4102l-5.8984-2.5508-2.8125-1.332 1.2578 2.7656 0.074219 0.41406c0.50781 1.332 1.0781 2.8125 1.668 4.3047 5.793 14.812 15.508 39.582 5.1367 49.48-14.289 13.648-39.543 17.117-57.273 18.543l0.007812-0.003906c-6.2812 0.63281-12.609 0.65625-18.891 0.066406l-1.4141-0.16797 0.09375 1.4141h-0.003906c1.8398 18.262 6.4766 36.129 13.754 52.98zm15.898 11.773c-8.1016-15 0.9375-33.262 14.016-41.531l0.34766-0.34766c0.42969-0.65625 1.1484-1.0625 1.9336-1.0977 0.89062 0 1.875-0.074219 2.8672-0.074219 13.227 0 35.055 4.2383 38.859 20.945 2.3867 7.4219 1.6719 15.492-1.9883 22.379-4.1602 5.6602-10.445 9.3828-17.41 10.312-19.641 4.2188-32.641 0.66406-38.625-10.586z"/>
  <path d="m660.94 693.4-6.5625-2.8125-0.074219 1.6953v0.003906c-0.30078 5.4805-1.6836 10.848-4.0703 15.797l-0.49609 1.0781 1.0859 0.48828c3.5938 1.5938 7.2031 3.1797 10.828 4.7539l3.4023 1.5 0.40234-1.2383 0.003906-0.003907c1.6211-5.7031 2.3672-11.621 2.2109-17.547v-0.77734l-0.73047-0.30859z"/>
  <path d="m623.18 858.82c6.2344-1.5664 14.773-3.75 16.293-11.492 1.9492-7.9219-0.039062-16.301-5.3438-22.5-7.4531-6.4648-17.039-9.9336-26.906-9.7305h-0.57031l-0.36719 0.44141v-0.003907c-0.44531 0.57813-1.1484 0.89453-1.875 0.84375-0.76172-0.019531-1.5195 0.097657-2.2383 0.35938-0.35547 0.097656-0.71875 0.14844-1.0898 0.14844l-0.46875-0.046875-0.36719 0.28906h0.003906c-7.5625 5.957-12.367 14.734-13.312 24.312-0.24609 5.25 1.9375 10.324 5.9141 13.762 4.7461 3.8047 10.723 5.7422 16.801 5.4453 4.3477-0.050782 8.6719-0.62891 12.883-1.7148zm-27.609-16.949c-0.039063-3.1328 1.4336-6.0938 3.957-7.9492l0.23438-0.24219v-0.003906c2.25-3.1797 5.9492-5.0156 9.8438-4.8828 3.2305 0.058594 6.3945 0.94141 9.1875 2.5703 5.4922 1.8555 9.0234 7.207 8.5625 12.988-0.45703 5.7812-4.7852 10.512-10.504 11.48-4.9766 1.3672-10.301 0.51172-14.598-2.3438-3.8828-2.6523-6.3438-6.9297-6.6836-11.617z"/>
  <path d="m683.01 723.75 1.1328 0.50781 0.42969-1.1641c2.2773-5.8164 2.8906-12.148 1.7734-18.289l-0.13281-0.60156-13.516-5.7656-0.046874 1.7266c-0.003907 5.6836-0.875 11.336-2.5781 16.762l-0.34766 1.0117 5.9609 2.6172c2.4492 1.0586 4.9414 2.1172 7.3242 3.1953z"/>
  <path d="m611.77 851.3c2.7969 0.09375 5.5586-0.62891 7.9492-2.0781 1.5273-1.0039 2.4531-2.6953 2.4766-4.5195 0.33984-2.3281-0.28516-4.6953-1.7266-6.5547-1.4453-1.8594-3.582-3.0508-5.9258-3.3008-5.8633-0.70312-11.5 2.4922-13.91 7.8867-0.42969 1.9688-0.085937 5.625 7.0703 8.0156h-0.003907c1.3203 0.39062 2.6953 0.57812 4.0703 0.55078z"/>
  <path d="m641.2 613.01-0.32812 0.23438c-3.2266 2.3828-6.4688 4.6875-9.7109 7.0312-2.3672 1.707-4.7344 3.4141-7.0977 5.1289l-2.6328 1.875 3.2539 0.20703h-0.003907c19.742 1.2539 39.387 3.7188 58.828 7.3867 13.594 2.5117 27.348 4.0586 40.641 5.5391 4.6875 0.52344 9.375 1.0586 14.148 1.6328l1.1445 0.13281 0.16016-1.1328-0.003906-0.003906c0.42188-2.7266 0.98438-5.4297 1.6875-8.0977 0.76172-2.8633 1.3594-5.7656 1.7891-8.6914l0.14063-1.1328-1.1328-0.17969c-33.234-5.5859-66.809-8.9141-100.49-9.957z"/>
  <path d="m661.94 727.68 0.75781 2.457c3.1211 10.219 5.7852 20.773 8.3516 30.984 1.2266 4.8672 2.457 9.75 3.75 14.605l0.40234 1.5273 1.3398-0.82422c11.305-6.8984 5.1094-25.258 1.0039-37.406-0.58984-1.7344-1.1328-3.3477-1.5742-4.7734l-0.16016-0.51562-0.50781-0.21484c-3.6562-1.5664-7.3398-3.1797-11.016-4.8008z"/>
  <path d="m627.54 640.53-0.35547-0.49609h-0.58203c-6.0078-0.42188-11.531-0.69531-16.875-0.83594-0.76172-0.023437-1.5117-0.17969-2.2227-0.45703l-0.64844-0.25391-1.5742 1.3203c-2.9609 2.4766-5.7578 4.8203-8.7109 7.0391l-0.58984 0.42188 0.14062 0.73047 0.003906 0.003906c0.082032 0.47656 0.14062 0.96094 0.16797 1.4453l0.054687 0.64844 0.58984 0.28906c12.883 6.5625 26.945 13.199 43.004 20.371l2.5234 1.125-0.9375-2.5977c-3.5938-10.066-8.2852-19.711-13.988-28.754z"/>
  <path d="m598.39 687.45 0.9375 0.34766 0.51562-0.81641c3.8633-5.0586 6.2188-11.105 6.7969-17.445v-0.73047l-0.64844-0.30859c-1.3789-0.66406-2.7266-1.3398-4.0859-2.0156l-4.0977-2.0156-1.4453-0.69531-0.23438 1.5742h0.003906c-0.86328 6.1289-2.7656 12.07-5.625 17.559l-0.61719 1.1641 2.9258 1.1719c1.8438 0.75 3.6992 1.4883 5.5742 2.2109z"/>
  <path d="m629.3 679.41-0.35547 1.3516c-1.4453 5.3672-3.3555 10.602-5.707 15.637l-0.49609 1.0977 1.1055 0.46875c5.2383 2.2383 10.477 4.5039 15.723 6.7969l5.625 2.4375 0.48828-1.0312h-0.003906c2.707-5.2852 3.9609-11.191 3.6367-17.117l-0.054687-0.69531-0.64844-0.28125c-6.0312-2.6445-12.039-5.3359-18.027-8.0703z"/>
  <path d="m611.16 692.68c1.9766 0.82422 3.9453 1.6484 5.9453 2.4648l1.0508 0.42188 0.46094-1.0312-0.003906 0.003906c2.4062-5.2422 4.3477-10.688 5.8047-16.266l0.23438-0.9375-0.88281-0.41406c-2.0352-0.9375-4.0391-1.875-6.0469-2.8125l-6.1602-2.8867-0.23438 1.5469c-1.1641 5.6484-3.4258 11.016-6.6562 15.797l-0.70312 1.1719 1.2734 0.51562c1.9805 0.78516 3.9492 1.6211 5.918 2.4258z"/>
  <path d="m600.94 755.55c-2.5391-0.14062-4.9414-0.19531-7.0586-0.21484-15.938 0.375-31.922-0.26172-46.988-0.9375l-1.5742-0.066407 0.38281 1.5195c2.3516 9.4766 6.1797 19.453 21.508 19.445 0.99219 0 2.0234 0 3.1016-0.12109v-0.003906c15.117-0.89062 30.016-4.0078 44.223-9.2422 5.0742-1.8516 8.5977-6.4961 9.0078-11.879l0.28125-2.1836-1.9688 0.99219c-0.15234 0.082031-0.29687 0.17969-0.42969 0.28906-6.4805 2.6602-13.566 3.4922-20.484 2.4023z"/>
  <path d="m465.8 264.85 0.09375 0.58984v0.003906c0.88672 4.6172 2.1719 9.1484 3.8438 13.547l1.0234 2.9258 1.2188-0.68359v-0.003906c3.6211-2.1211 7.8008-3.1016 11.988-2.8125 14.668 0.87891 29.363-1.0859 43.285-5.7852 16.805-4.3359 34.648-1.7969 49.574 7.0625l1.875 0.99219-0.11328-2.0898c-0.21484-4.0234-0.51563-8.25-0.98438-13.715l-0.066406-0.79687-0.76953-0.22656h0.003906c-8.6562-3.8906-14.801-11.848-16.371-21.207l-0.44922-1.6406-1.3789 1.0234c-10.602 7.9141-24.852 7.9141-38.758 7.8086h-1.5547l-0.30859 0.21484c-8.7383 6.3555-28.555 1.0312-39.215-4.5391l-1.2109-0.64844-0.42969 1.3047v0.003907c-2.1484 6.8516-5.8633 13.109-10.855 18.27z"/>
  <path d="m442.22 260.26 1.4531 0.21484 1.0586 0.17969c0.52734 0.039062 1.0508 0.11328 1.5664 0.22656 2.0078 0.28125 3.8711 0.44922 5.6797 0.55469h0.62891l0.375-0.50781c0.28516-0.33984 0.59766-0.65234 0.9375-0.9375l0.32031-0.47656v-0.003907c0.33594-0.87891 0.88672-1.6602 1.6016-2.2773 6.2305-6.0352 10.391-13.887 11.879-22.434l0.30078-1.3398-1.3789-0.085937c-4.9727-0.34375-9.9062-1.0898-14.758-2.2305l-1.0117-0.22656-0.34766 0.9375c-1.4023 4.1367-2.582 8.3477-3.5312 12.609-1.043 4.8711-2.4453 9.6562-4.2031 14.316z"/>
  <path d="m650.79 533.32-1.5391 0.70312 1.1914 1.1992c1.2891 1.2812 2.7422 2.3828 4.3203 3.2812l0.34766 0.13281c4.1445 0.77734 8.3555 1.1445 12.574 1.0938 4.8945 0 9.9648-0.36719 15.195-0.74219l0.41406-0.10156c1.3906-0.63281 2.7344-1.3672 4.0195-2.1914 1.4336-0.9375 2.9258-2.0547 4.4727-3.207 3.8164-3.3086 8.2617-5.8164 13.07-7.3672 0.38281-0.066407 0.99219-0.14063 1.7617-0.23438 3.9102-0.47656 10.445-1.2734 11.926-4.8672 0.59375-2.0547-0.003906-4.2695-1.5469-5.7461l-0.9375 0.73047 0.75781-1.0117-0.48828-0.75781-0.86328 0.26172c-7.7734 2.3828-15.863 4.3203-23.68 6.1953-14.031 2.9141-27.758 7.1406-40.996 12.629z"/>
  <path d="m517.89 219.85h1.0586c0.55078-0.042968 1.1055-0.042968 1.6602 0 0.93359 0.050782 1.7617 0.61719 2.1445 1.4727 0.4375 0.89844 0.39453 1.957-0.12109 2.8125-0.375 0.56641-1.0547 0.85938-1.7227 0.74219-0.17969-0.03125-0.36719-0.03125-0.54687 0h-1.5l0.58984 2.3516h0.003907c1.668 5.2578 2.4609 10.754 2.3438 16.266l-0.16016 1.3047h1.3047c1.5195 0 3.1211 0.046875 4.7812 0.046875h-0.003907c11.047 1.1328 22.086-2.1836 30.676-9.2148l0.41406-0.42187-0.074218-0.57031v-0.003906c-0.32031-2.0859-0.48047-4.1914-0.48047-6.3008v-0.34766l-0.17969-0.28125c-2.6445-4.2266-4.9297-8.5859-7.1328-12.797v0.003906c-4.2227-9.1836-9.8984-17.629-16.809-25.004-4.5273-4.4258-9.1953-8.9922-13.434-13.82l-1.5195-1.7148-0.49609 2.2695c-2.4727 13.91-2.7891 28.121-0.9375 42.129zm23.184 11.867v0.003906c-0.054687-0.76953 0.20312-1.5312 0.71094-2.1094 1.0547-0.90625 2.6172-0.87109 3.6289 0.074219 0.30078 0.24219 0.60938 0.46875 0.9375 0.69531 0.32812 0.22656 0.50781 0.34766 0.75781 0.55469l0.003907-0.003906c0.38672 0.33984 0.60937 0.82812 0.61719 1.3398 0.050781 0.76562-0.19922 1.5156-0.70312 2.0938-1.0469 0.91406-2.6172 0.89062-3.6367-0.058594-0.30859-0.25391-0.61719-0.46875-0.9375-0.70312-0.32031-0.23438-0.48828-0.33594-0.75-0.54297-0.39062-0.33594-0.62109-0.82422-0.62891-1.3398zm-6.375-2.4766v0.003906c-0.69531 0.35938-1.5352 0.28906-2.1641-0.17578-1.082-0.70312-2.2266-1.3008-3.4219-1.7812-0.69531-0.26172-1.2539-0.78906-1.543-1.4727-0.29297-0.67969-0.29688-1.4492-0.003907-2.1289 0.25-0.83594 1-1.4258 1.875-1.4727 0.28906 0.003906 0.57813 0.0625 0.85156 0.16797 1.6641 0.60156 3.2539 1.3906 4.7344 2.3555 0.75781 0.41406 1.2148 1.2266 1.1719 2.0898-0.050781 1.0117-0.61719 1.9258-1.5 2.418z"/>
  <path d="m585.35 592.02-0.9375 1.2188-0.60156 0.73047c-0.30859 0.38281-0.61719 0.75781-0.9375 1.1523-0.43359 0.57812-0.94922 1.0898-1.5273 1.5195l-0.9375 0.70312 0.70312 0.9375c6.4453 9.5859 11.242 20.176 14.203 31.34l0.88281 2.6914 6.0195-5.2227-0.28906-0.76953c-0.64844-1.6797-1.2734-3.3555-1.875-5.0156h-0.003906c-3.1641-9.9844-7.8008-19.445-13.762-28.059z"/>
  <path d="m505.31 247.26h1.875c2.5156 0.050782 4.9219-1.0234 6.5625-2.9258 2.8125-3.6641 1.5547-9.8633 0.42969-15.328-0.16016-0.78906-0.32813-1.5547-0.46094-2.3047l-0.25391-1.293-1.2461 0.39453c-0.41406 0.13281-0.83594 0.25391-1.2461 0.36719l-1.125 0.32812 0.003906-0.003906c-0.70703 0.30078-1.5234 0.16797-2.0938-0.34766-0.71094-0.70703-1.0156-1.7266-0.8125-2.7109 0.18359-0.86328 0.83203-1.5508 1.6875-1.7812 1.0977-0.375 2.2305-0.66406 3.3477-0.9375l0.9375-0.24219-0.10156-0.99219-0.003906-0.003907c-1.8633-13.992-1.668-28.184 0.58203-42.121l1.1055-5.625-3.2344 4.6875c-8.3398 12.723-17.512 24.883-27.461 36.395l-0.50781 0.52344-0.054687 0.375c-0.40234 2.5039-0.75781 5.0234-1.125 7.5664-0.83594 5.8594-1.6953 11.906-3.0273 17.652l-0.19531 0.82422 0.73047 0.44141c7.832 4.4766 16.668 6.9062 25.688 7.0625zm-6.1211-14.062-0.83594 0.83594v-0.003906c-0.98828 0.88672-2.5 0.84375-3.4375-0.097656-0.9375-0.9375-0.98047-2.4453-0.097657-3.4375l0.84375-0.83594v0.003906c0.41016-0.45312 0.98828-0.71484 1.5938-0.73047 0.71094 0.019531 1.3828 0.31641 1.875 0.82422 0.48047 0.42969 0.76172 1.0391 0.77344 1.6836 0.011719 0.64062-0.24219 1.2617-0.70703 1.7109z"/>
  <path d="m626.49 608.75-0.38281-0.86328c-1.4805-3.2891-3-6.5625-4.5195-9.7305l-1.1914-2.4844-0.9375 2.5781c-2.5859 6.8633-11.043 9.8438-17.195 11.477l-1.2852 0.35547 0.50781 1.2266c1.3984 3.4023 2.6914 6.7969 4.2109 10.855l0.57031 1.5469 1.2734-1.0703c1.9688-1.6406 3.75-3 5.3984-4.1445 4.3125-3.0469 8.5781-6.0859 12.805-9.1875z"/>
  <path d="m631.23 541.54-0.9375-0.70312-0.68359 0.9375c-6.0781 8.7422-12.727 17.066-19.91 24.926l-0.68359 0.73047 0.60938 0.79687c1.7539 2.2773 3.0469 4.0312 4.1797 5.7266l0.9375 1.4141 0.9375-1.4062v0.003906c6.7305-9.4727 14.738-17.973 23.793-25.254l1.3398-1.1172-1.5273-0.82422c-2.8047-1.5547-5.4961-3.3008-8.0547-5.2305z"/>
  <path d="m612.76 405.66c-8.3516 4.4336-16.441 9.3516-24.223 14.727l-0.62891 0.44141 0.14844 0.75c0.17969 0.89453 0.13281 1.8203-0.14063 2.6914-0.16016 0.52734-0.39844 1.0312-0.70312 1.4922l-0.30078 0.53516 0.25391 0.55469v-0.003906c15.539 33.297 32.77 65.777 51.629 97.312l0.5625 0.9375 0.9375-0.49609c15.133-6.9492 31.012-12.141 47.324-15.469 7.1641-1.7539 14.57-3.5625 21.789-5.6797l1.1992-0.35547-0.42969-1.1719c-3.5547-9.6836-6.9844-18.461-10.508-26.867l-0.39453-0.9375-0.99219 0.26172-0.003906-0.003906c-1.3828 0.34766-2.8164 0.45703-4.2383 0.32031l-1.1797-0.11328-0.10156 1.1719c-0.058593 0.61328-0.17578 1.2188-0.34766 1.8086-0.36328 1.3438-1.1445 2.5352-2.2305 3.4023-1.1562 0.8125-2.5195 1.2695-3.9297 1.3242-2.6602-0.082031-5.293-0.58984-7.7891-1.5117l-1.2188-0.40234-0.28906 1.2461c-0.054687 0.25391-0.09375 0.46875-0.14062 0.70312s-0.066406 0.38281-0.10156 0.58984h-0.003907c-0.23047 1.1055-0.54297 2.1875-0.9375 3.2461l-0.28125 0.58984c-0.19922 0.42578-0.42578 0.83984-0.67578 1.2383-0.47656 0.71484-1.0273 1.375-1.6406 1.9766l-1.4531 1.0391-1.4805 0.375v0.003906c-0.78125 0.21484-1.5977 0.24609-2.3906 0.09375l-0.47656-0.054687-0.003906-0.003906c-1.4727-0.28906-2.9141-0.73438-4.293-1.332l-2.7266-1.2383-0.24219 1.5391h-0.003907c-0.13672 0.94922-0.33594 1.8906-0.58984 2.8125-0.51172 1.6016-1.4141 3.0469-2.625 4.2109-1.1836 1.0234-2.5938 1.7539-4.1133 2.1289-2.4297 0.60156-4.9727 0.57813-7.3906-0.066406-1.9453-0.43359-3.8359-1.0977-5.625-1.9805-2.6055-1.0664-4.7969-2.957-6.2344-5.3789-0.10156-0.23438-0.1875-0.47266-0.26172-0.71484 0.1875 0.17969 0.39453 0.33984 0.60938 0.48047 2.0234 1.543 4.3633 2.6211 6.8555 3.1484 1.6992 0.44922 3.4453 0.72656 5.2031 0.82422 1.8477 0.28125 3.7422 0.09375 5.5-0.54297 0.74609-0.14453 1.4141-0.55859 1.875-1.1602l0.35547-0.33594 0.003906-0.003906c0.42969-0.65234 0.74609-1.3711 0.9375-2.1289 0.39453-2.3047 0.39453-4.6641 0-6.9727l-0.58203-4.1992 4.0234 1.2188h-0.003907c1.5586 0.50391 3.082 1.1055 4.5664 1.7969 0.9375 0.41406 1.7734 0.80469 2.6328 1.1172h0.003907c0.90234 0.39062 1.8438 0.68359 2.8125 0.87109l0.61719 0.09375 0.72266-0.26172 1.0977-1.0703-0.24219-0.36719-0.003906 0.003906c0.33984-0.75391 0.60547-1.5391 0.78906-2.3438 0.41016-1.7109 0.68359-3.4492 0.81641-5.2031l0.33594-3.8633 3.3828 1.2383c1.1055 0.39453 2.1953 0.80469 3.2344 1.2109v-0.003907c2.2891 1.0312 4.6992 1.7656 7.1719 2.1875l0.074219 0.14844 1.5078-0.066406 0.30078-0.68359s0.054687-0.11328 0.16797-0.30078h0.003906c0.47266-1.3281 0.68359-2.7344 0.62891-4.1445l0.13281-3.8359 2.6719 1.6406-0.003906 0.003906c1.4609 0.89453 3.1133 1.4258 4.8203 1.5469l1.9961 0.21484-0.80469-1.875c-3.8047-8.7461-7.5-16.492-11.352-23.664l-0.88281-1.2852-1.1172 1.1172-0.30078 0.24219-0.88281 0.50781h0.003906c-2.2109 1.168-4.7344 1.6094-7.2109 1.2656-0.75-0.10547-1.4961-0.25391-2.2305-0.44922l-1.2656-0.32031-0.16797 1.293v0.003907c-0.023437 0.24609-0.078125 0.48828-0.16016 0.71875-0.55469 1.332-1.5469 2.4336-2.8125 3.125-1.0898 0.56641-2.2891 0.88672-3.5156 0.9375-2.1133-0.007813-4.2148-0.27344-6.2617-0.79688l-1.4531-0.28125v1.332-0.003906c-0.64844 2.0547-1.875 3.8789-3.5352 5.25-1.6289 1.2852-3.5703 2.1094-5.625 2.3906-1.7969 0.25781-3.625 0.16797-5.3906-0.26172l-1.2109-0.28906-0.21484 1.2188c-0.17188 1.0859-0.42578 2.1562-0.75 3.207-0.25 0.77734-0.61328 1.5195-1.0781 2.1914-0.39844 0.74609-0.9375 1.4062-1.5938 1.9414-0.4375 0.48047-0.95703 0.88281-1.5352 1.1797l-1.0508 0.65625-0.9375 0.28906v0.003906c-4.4023 1.0898-9.0586 0.38672-12.938-1.9609-2.4062-1.2539-4.4336-3.1328-5.8711-5.4375-0.085937-0.20703-0.14844-0.40234-0.21484-0.57031 0.25391 0.20703 0.49609 0.44141 0.74219 0.64844l0.82422 0.49609c1.7227 1.1289 3.6016 2.0039 5.5781 2.5938 3.1953 1.2773 6.7188 1.4844 10.039 0.59375l1.0508-0.09375v-0.71094l0.14062-0.13281c0.87109-0.60937 1.332-0.9375 1.4531-1.5273v-0.003907c0.10156-0.14844 0.18359-0.3125 0.24609-0.48437 0.21094-0.38281 0.35937-0.79688 0.42969-1.2305 0.40625-2.1602 0.55078-4.3633 0.42969-6.5625v-5.2695l4.1992 2.3906h0.003907c2.0195 1.207 4.3906 1.6875 6.7188 1.3594 2.0977-0.23828 3.8398-1.7188 4.4062-3.75 0.32031-1.0312 0.44531-2.1172 0.375-3.1953v-4.4336l3.8438 1.2852c2.7969 1.1445 5.7422 1.8945 8.75 2.2188h0.14844l1.2109 1.1055 0.50781-1.9883-0.003906 0.003906c0.17188-0.89844 0.19922-1.8164 0.085937-2.7188l-0.54297-5.2891 4.2266 2.5039c3.0469 2.0781 6.8164 2.8008 10.414 1.9961l1.5859-0.83594 0.88281-0.84375-0.42969-0.76953-0.003906 0.003906c-4.4883-8.1367-9.4766-15.984-14.934-23.504l-0.60938-0.85156-0.9375 0.52344c-2.7852 1.2344-5.8477 1.7227-8.8789 1.4062-2.9883-0.20312-5.9531-0.65234-8.8672-1.3398l-1.0781-0.24219-0.30078 1.0508v-0.003906c-0.10156 0.37109-0.23438 0.73047-0.39453 1.0781-0.45312 0.95312-1.0898 1.8086-1.875 2.5117-0.63281 0.60156-1.3906 1.0508-2.2227 1.3125-0.19922 0.074219-0.39453 0.16406-0.57812 0.27344-2.0312 0.49219-4.1484 0.47656-6.1719-0.046875l-1.0586-0.27344-0.98438 2.9922c-0.55859 1.0352-1.1836 2.0312-1.875 2.9805-0.28125 0.25391-0.57031 0.51562-0.84375 0.78906-0.62891 0.68359-1.3906 1.2383-2.2383 1.6211-1.0977 0.58594-2.3125 0.90625-3.5547 0.9375l-1.7617 0.12109-0.74219-0.14844c-0.27734-0.074218-0.5625-0.12891-0.85156-0.16016l-1.7539-0.49609-0.28125 1.1797c-0.14062 0.52344-0.33203 1.0352-0.57031 1.5195-0.97266 1.9766-2.5586 3.5859-4.5195 4.5859-2.9922 1.5859-6.5312 1.7695-9.668 0.49609-1.8359-0.71875-3.3594-2.0625-4.3008-3.7969l-0.066406-0.20703 0.16797 0.14844 0.77734 0.44141c1.2734 0.74609 2.6758 1.2383 4.1367 1.4453 2.4766 0.28516 4.9688-0.36328 6.9922-1.8203 2.3594-1.6406 3.3047-4.668 2.2969-7.3594l-1.4609-5.0898 5.2578 2.3242c2.1875 1.3477 4.8711 1.6211 7.2852 0.75 1.7734-1.0117 2.8125-3.2539 3.3086-7.3594l0.72266-3.9844 3.3555 1.4258c2.1211 1.0312 4.4609 1.5195 6.8164 1.4141l0.35547-0.10156 0.074219-0.09375c0.39453-0.19531 0.69922-0.52734 0.85547-0.9375 0.30469-0.55469 0.49219-1.168 0.55078-1.8008 0.054687-0.30859 0.11328-0.63672 0.19531-0.9375l0.9375-3.543 2.5234 0.84375c3.8867 1.3555 7.8555 2.4648 11.879 3.3281 1.9141 0.39844 3.875 0.53125 5.8242 0.39453l2.1367-0.21484-1.3398-1.6797c-16.352-20.211-32.703-17.418-52.203-6.9375z"/>
  <path d="m585.59 106.68c2.8789 2.4648 5.9141 4.8359 8.8516 7.125 6.0508 4.4258 11.676 9.4023 16.809 14.867 5.3477 6.6523 8.9961 14.508 10.633 22.883 0.48828 1.7539 0.98438 3.5234 1.5391 5.3711 0.47656 1.5391 0.9375 3.1406 1.3516 4.6875l-0.003907 0.003907c1.9844 7.9922 2.4648 16.285 1.4258 24.457-0.36719 1.4453-0.70312 2.8125-1.0234 4.1914l-0.375 1.5078c-0.26172 1.125-0.66406 2.2148-1.1992 3.2344-0.27344 0.5625-0.52344 1.0977-0.75781 1.6797h-0.003906c-0.98438 2.3633-2.3086 4.5742-3.9258 6.5625-0.375 0.48828-0.73047 0.9375-0.99219 1.3398h-0.003907c-2.832 3.4688-6.3633 6.3008-10.367 8.3086-0.9375 0.46094-1.6406 0.76953-2.1953 1.0039 0.38281-0.44141 0.9375-0.98438 1.6016-1.6602h0.003906c3.1406-2.9062 5.8867-6.2109 8.1758-9.8281 0.32031-0.63672 0.68359-1.2852 1.0586-1.9414v0.003906c1.1055-1.7578 1.9688-3.6562 2.5586-5.6445 0.14062-0.48828 0.32031-0.9375 0.50781-1.4453 0.42578-0.96875 0.71484-1.9961 0.85156-3.0469 0.24219-1.5547 0.53516-3.168 0.83594-4.8477 0.015626-0.27344 0.015626-0.54688 0-0.82422-0.011718-0.17969-0.011718-0.36328 0-0.54297l0.9375-7.668-3.1328 7.0391c-7.3984 14.543-18.777 26.68-32.812 34.996l-0.83594 0.5625 0.42188 0.9375c0.90625 2.0078 1.8047 4.0234 2.6914 6.0469 2.7266 6.5312 5.8594 12.883 9.375 19.023l0.34766 0.57031h0.66406c0.11328 0 0.23438 0 0.58984 0.074219l0.41406 0.066407 0.35547-0.19531c27.805-16.004 41.25-35.57 42.449-61.555v-0.9375h0.003906c1.1836-10.926 0.38281-21.969-2.3633-32.609-1.9297-5.0273-4.3828-9.8359-7.3242-14.352-2.4102-3.7773-4.5273-7.7383-6.3359-11.84-3.2656-6.0703-8.3281-10.984-14.492-14.062-2.1758-1.3867-4.2266-2.7109-6.1211-4.1523-3.3945-2.5703-7.0039-4.9023-10.492-7.1523-3.9453-2.5391-8.0156-5.1836-11.738-8.1172v-0.003906c-2.207-1.9805-4.2227-4.1641-6.0273-6.5156-4.3672-5.3164-9.375-11.324-15-11.438h-1.9766l0.9375 1.7539h-0.003907c5.6914 12.27 13.906 23.203 24.113 32.082z"/>
 </g>
</svg>
