<?xml version="1.0" encoding="UTF-8"?>
<svg width="1200pt" height="1200pt" version="1.1" viewBox="0 0 1200 1200" xmlns="http://www.w3.org/2000/svg">
 <g>
  <path d="m590.2 726.93 2.418 0.32812 0.22656-2.4375h-0.003906c0.36328-4.2383 0.98828-8.4492 1.875-12.609l0.54297-2.4844-2.5117-0.33594v-0.003906c-8.1172-1.1133-16.168-2.6797-24.109-4.6875l-2.4922-0.61719-0.39453 2.5391h-0.003906c-0.074219 0.58984-0.24219 1.168-0.49609 1.707-1.5898 3.332-2.9219 6.7773-3.9844 10.312l-0.71094 2.3516 2.3711 0.60937c8.9805 2.2969 18.086 4.0742 27.273 5.3281z"/>
  <path d="m602.01 804.68 2.5859 0.9375 0.51562-2.6992c1.6328-8.5977 2.9531-16.648 4.0391-24.602l0.28125-2.082-2.0352-0.51562c-3.2891-0.82422-6.5625-1.4922-10.133-2.0547l-2.1016-0.32812-0.53516 2.043c-1.2656 4.7539-2.5586 9.8242-3.4219 15.113-0.24219 1.6875-0.50781 3.3477-0.76953 4.9961l-0.85156 5.625 2.0703 0.50781 0.003906 0.003906c3.5 0.83594 6.957 1.8555 10.352 3.0547z"/>
  <path d="m564.86 797.26c4.6016 0.58203 9.1953 1.1641 13.754 1.875l2.3359 0.35547 1.7617-11.898c0.46875-2.9453 0.99219-5.8125 1.5195-8.6719l1.2188-6.7969-8.1016-0.73047c-6.3359-0.55469-12.898-1.1328-19.258-2.082l-2.5781-0.39453-0.11328 2.5977c-0.26172 5.8867-0.64844 12.805-1.5195 19.406-0.12109 0.88281-0.25391 1.7617-0.32031 2.6445l-0.14844 2.1953 2.1758 0.30078c3.0859 0.42188 6.1797 0.81641 9.2734 1.1992z"/>
  <path d="m587.66 761.12c1.5391-8.0547 2.7383-15.488 3.6953-22.727l0.30078-2.3242-2.3164-0.30859h-0.003906c-9.5312-1.2852-18.984-3.1055-28.312-5.4453l-2.4922-0.61719-0.38281 2.5391h-0.003906c-1.1641 8.4531-1.9023 16.961-2.2109 25.492l0.14844 2.1289 2.0703 0.33594c1.0234 0.16797 2.0352 0.33594 3.0469 0.44922 4.0508 0.46094 8.2109 0.84375 12.402 1.2383 3.8164 0.34766 7.6602 0.70312 11.492 1.125l2.1562 0.24219z"/>
  <path d="m454.69 1079.9-4.1992 4.1914c-2.4688 1.1406-4.6797 2.7695-6.5078 4.7812-2.8555 4.2852-4.6406 9.1953-5.2031 14.316l-1.0977 6.4492 4.9414-4.2852c1.0234-0.87109 1.9648-1.8359 2.8125-2.8789 1.8672-2.4766 4.4258-4.3477 7.3516-5.3789l1.5391-0.57031v-1.6328h-0.003907c0-0.26953 0.039063-0.53906 0.11328-0.79687l0.16016-0.66406-0.21484-0.64844c-0.125-0.46875-0.17188-0.95313-0.13281-1.4375 0.24219-1.875 0.36719-3.75 0.42969-5.625z"/>
  <path d="m610.88 764.73c0.9375-8.1562 1.875-16.312 2.8867-24.469l0.30859-2.5039-4.6953-0.21484c-1.6406-0.066406-3.2539-0.13281-4.8672-0.25391l-2.4453-0.1875-0.074219 2.457c-0.050781 3.9023-0.41406 7.793-1.0898 11.637-0.63672 3.3828-1.4609 6.957-2.5586 10.93l-0.67578 2.4922 2.5391 0.42969c2.6641 0.46875 5.2109 1.0508 7.8281 1.6875l2.5781 0.63672z"/>
  <path d="m532.5 537.78-0.9375-0.9375c-1.5742-1.6016-3.0469-3.3672-4.5664-5.1562-2.0195-2.4922-4.1797-4.8672-6.4688-7.1133v-5.8594l-4.1914 5.4453c-3.375 4.7891-6.293 9.8867-8.7188 15.227-1.0234 2.082-2.0078 4.0781-2.9727 5.8672-0.96484 1.7891-1.9883 3.5898-2.9922 5.3047h0.003906c-3.918 5.7773-6.4844 12.363-7.5 19.266-0.42969 3.9805-2.668 7.543-6.0664 9.6562-5.1055 3.2656-9.0703 8.0391-11.344 13.66l-0.46094 2.8125 2.8984 0.24219v0.003906c0.26953 0.011719 0.53906 0.054688 0.79688 0.12891 1.3828 0.48828 2.5703 1.4141 3.3867 2.6367l0.46094 0.57031 0.71094 0.20703c2.4883 0.55859 4.0742 3.0117 3.5625 5.5117-0.21484 0.83984-0.58594 1.6328-1.0977 2.3359-0.73828 1.2109-1.9961 2.0117-3.4062 2.168-1.4102 0.15234-2.8125-0.35547-3.793-1.3828-0.58594-0.46094-1.1133-0.99219-1.5664-1.582-0.35938-1.2227-1.2734-2.2031-2.4648-2.6445l-1.1445-0.09375-1.4609 0.73047-0.34766 0.69531c-0.078124 0.14063-0.14844 0.28906-0.20703 0.4375-0.99219 0.40234-1.9961 0.82422-3 1.2461-1.6133 0.67578-3.2148 1.3398-4.8945 1.9961-3.4688 1.4336-7.1172 2.9922-10.707 4.6875l-2.25 1.0859 1.2383 2.1758v0.003906c0.25 0.47656 0.54297 0.92578 0.87109 1.3516 0.48828 0.71094 0.9375 1.4453 1.3047 2.1562 0.78906 1.5195 1.7734 2.9297 2.9258 4.1992 4.6445 3.7695 10.34 6.0117 16.312 6.4102 0.375 0.085938 0.75781 0.13281 1.1406 0.14063l1.7812-0.53516 0.60937-1.4258v0.003906c0.35547-1.1758 1.3867-2.0156 2.6094-2.1289l0.9375-0.24219c1.2539-0.61719 2.7422-0.49609 3.8789 0.31641 6.1016 3.75 12.863 7.8203 19.914 11.906l2.9922 1.7344 0.50781-3.4141-0.003906 0.003907c5.6875-33.309 13.516-66.215 23.438-98.516z"/>
  <path d="m615.42 726.72c0.49609-4.0703 1.0859-8.082 1.6953-12.133l0.52344-3.5703h-2.7188c-2.9062 0-5.8125-0.054687-8.7266-0.23438l-1.9766-0.11328-0.44922 1.875c-1 4.3906-1.5547 8.8672-1.6523 13.367l0.21484 2.2773 2.2578 0.14062c2.8125 0.16797 5.5586 0.33594 8.4375 0.39453h2.1094z"/>
  <path d="m619.54 700.43c0.9375-5.1094 2.0547-10.211 3.2266-15.207l0.60938-2.5703-2.625-0.28906h-0.003906c-47.395-4.582-93.195-19.559-134.14-43.867l-2.3438-1.3867-1.0234 2.5312c-3.1484 7.8555-5.4453 14.352-7.2266 20.445l-0.62891 2.1367 2.1094 0.73047c10.949 3.7969 22.051 8.0352 32.812 12.188 34.809 13.312 70.801 27.074 106.07 27.113l2.8125 0.48828z"/>
  <path d="m499.78 719.24c-0.39453 6-0.78906 12-1.4336 18.008l-0.17969 1.6484 1.5078 0.71094c5.625 2.6719 11.336 5.3359 17.035 7.8359l2.8125 1.2109 0.47656-2.9922c0.9375-5.7656 1.4727-11.605 2.0078-17.25 0.26172-2.8125 0.53516-5.625 0.84375-8.4375l0.20703-1.8008-1.7148-0.64844c-5.9453-2.2422-11.852-4.5938-17.859-7.0117l-2.9922-1.1992z"/>
  <path d="m524.35 709.27 0.5625-2.7109v0.003906c0.82422-4.2656 2.0156-8.4531 3.5547-12.516l0.85156-2.2031-2.2109-0.83594c-6.5625-2.4844-13.051-5.0234-19.594-7.6211l-2.4766-0.9375-0.66406 2.5703c-1.0977 4.4062-1.9609 8.8672-2.5859 13.367l-0.26172 1.8086 1.6875 0.70312c6.1602 2.5508 12.395 5.0352 18.562 7.4141z"/>
  <path d="m512.71 782.14c0.10156-6.4102 1.1133-12.773 3.0078-18.898 0.32031-0.86328 0.5625-1.7422 0.80469-2.625 0.16016-0.58203 0.32031-1.1719 0.50781-1.7422l0.68359-2.0625-1.9961-0.83594c-5.4766-2.2969-10.895-4.6875-16.246-7.1797l-2.6641-1.2383-0.85156 4.0703c-0.13281 0.69531-0.26172 1.3789-0.44922 2.0898-1.5547 6.1602-2.8125 12.695-4.2383 21.195l-0.28906 1.8086 1.6875 0.72266c5.625 2.3711 11.25 4.6328 16.875 6.7695l3 1.1445z"/>
  <path d="m533.34 866.18 2.1953 0.36719 0.48828-2.1641c1.2461-5.625 2.3828-11.477 3.4414-17.484l0.39453-2.2109-2.1953-0.48828c-6.0391-1.332-12.273-2.8672-19.051-4.6875l-2.5781-0.69531-0.35547 2.6445c-0.81641 6.0078-1.4531 11.812-1.875 17.27l-0.14844 1.7617 1.6484 0.62891-0.003906-0.003907c5.8359 2.2656 11.879 3.9609 18.039 5.0625z"/>
  <path d="m552.78 716.4c1.2188-4.1367 2.7383-8.1836 4.5469-12.102l1.1328-2.4375-2.5781-0.78906c-5.1289-1.5664-10.434-3.3281-16.211-5.3984l-2.1953-0.78906-0.79688 2.1836 0.003907 0.003906c-1.5742 4.2617-2.8672 8.625-3.8711 13.059l-0.46094 2.0234 1.9609 0.70312c5.625 1.9961 10.695 3.6758 15.543 5.1172l2.2578 0.67578z"/>
  <path d="m548.26 755.38c0.011719-8.7031 0.59766-17.395 1.7539-26.016l0.28906-1.9883-1.9297-0.58984c-4.8203-1.4609-9.6328-3.0469-14.445-4.7539l-2.9062-1.0234-0.21484 3.0742c-0.24219 3.4766-0.35547 7.0234-0.35547 10.742l-0.003907 0.003906c-0.14453 5.0781-0.9375 10.117-2.3516 15l-0.52344 2.0547 1.9883 0.73047h-0.003906c5.1719 1.9492 10.445 3.6094 15.797 4.9766l2.8672 0.71094z"/>
  <path d="m546.56 792.19c0.60938-7.4062 1.0508-15.148 1.3047-23.008l0.066406-1.875-3-0.78906c-5.8672-1.6953-11.578-3.75-16.875-5.6797l-2.5781-0.9375-0.48047 2.6836c-0.64844 3.0859-1.0234 6.2227-1.1172 9.375-0.046874 4.7617-0.30859 9.6562-0.81641 14.945l-0.17969 1.875 1.875 0.55469c3.1602 0.9375 6.3281 1.875 9.4766 2.7383 3.1484 0.86328 6.3828 1.5078 9.6367 2.1094l2.5508 0.47656z"/>
  <path d="m541.73 833.36c1.4453-9.2617 2.7109-18.945 3.75-28.801l0.23438-2.2227-2.2031-0.33594c-6.1328-0.9375-12.684-2.0156-19.012-3.4023l-2.4922-0.55469-0.33594 2.5312c-1.1797 9.0273-2.5977 18.121-4.0117 27.188l-0.32031 2.043 1.9883 0.57031c6.4688 1.875 13.059 3.5156 19.602 4.9414l2.4297 0.53516z"/>
  <path d="m693.2 542.3c-0.027343-1.418-0.25391-2.8281-0.66406-4.1875-1.1992-3.2734-3.6953-5.9023-6.8984-7.2656-6.8828-2.9453-14.062 1.7812-19.238 5.2305-0.76953 0.51562-1.5195 1.0039-2.2109 1.4453l-2.4844 1.2578 0.77734 1.9961v-0.003906c0.375 1.0078 0.69141 2.0391 0.9375 3.0859l0.55469 2.1953 2.2031-0.46875-0.003906-0.003906c4.0117-0.86719 8.0898-1.4062 12.188-1.6094l1.9883-0.085937c2.4141-0.1875 4.8398-0.16016 7.2461 0.074219 0.72656 0.10938 1.4375 0.28516 2.1289 0.53516l3.6289 1.125z"/>
  <path d="m775.7 606.88c0-0.40234-2.1758-40.594-12.93-49.688h0.003906c-0.18359-0.14844-0.34375-0.32812-0.46875-0.52734l-0.78906-1.0859-1.3398 0.12109c-4.668 0.30469-9.3516 0.22656-14.008-0.24219l-6.4141-0.42969 1.668 3.582 0.003906-0.003906c0.25 0.53516 0.39844 1.1172 0.42969 1.707 2.3594 15.02 7.3555 29.504 14.766 42.777l1.6016 3.3672h0.003906c3.5898 7.1719 7.7148 14.066 12.336 20.625 2.3516 3.5234 4.6875 7.0586 6.9375 10.727v-0.003906c0.63281 0.95312 0.82422 2.1328 0.52734 3.2383-0.29688 1.1055-1.0547 2.0312-2.082 2.5391-0.98828 0.69141-2.2188 0.94141-3.3984 0.6875-1.1758-0.25781-2.1953-0.99219-2.8086-2.0312-2.1641-3.6016-4.3789-7.0586-6.5625-10.48-5.4766-8.1641-10.359-16.715-14.605-25.582l-4.9766-11.016 0.50781 12.074c0.69531 16.555 0.32812 45.148 0.054688 60.711v2.8672l4.8672-0.81641-0.003906 0.003906c5.3125-1.0312 10.566-2.3555 15.73-3.9766 4.6328-1.3594 9.375-2.8125 14.156-3.6562h0.066406v9.5898c-2.1172 2.8516-20.133 5.8203-54.047 8.9062l-3.9766 0.35547 2.25 3.2891c3.1211 4.5859 5.625 7.9688 8.043 10.977l0.9375 1.1641 1.4531-0.35547c9.7422-2.4453 19.855-4.1914 29.645-5.8789l3.75-0.65625c0.30859-0.054688 1.0391-0.11328 2.0234-0.19531 9.2812-0.80469 15-1.875 16.688-4.6328l0.003906 0.003906c0.61328-0.98438 0.70703-2.207 0.24219-3.2734-0.85938-2.2695-1.5117-4.6133-1.9414-7-0.19531-0.9375-0.39453-1.875-0.61719-2.8125l-2.2227-9.8633c1.0625-0.11328 2.1367-0.11328 3.1992 0l2.5508 0.26172 0.046875-3.543c0.1875-13.379 0.41406-30-7.0586-40.602l-0.003906-0.003907c-2.6523-3.1445-4.1484-7.1055-4.2383-11.219z"/>
  <path d="m704.64 654.9 3.75 6.0859c2.1172 3.5352 4.2852 7.1328 6.4961 10.734l0.80469 1.3125 2.7461-0.44141c4.0508-0.44922 8.1367-0.63672 12.188-0.83594l4.5078-0.21484v-2.2422c-0.09375-27.094-1.875-57.488-3.6289-86.879-0.49609-8.5234-1.0039-17.016-1.4609-25.414l-0.12109-2.1484-2.1484-0.074219c-7.0234-0.23438-14.062-0.65625-20.805-1.2266l-2.7266-0.23438 0.1875 2.7266 0.003906 0.003906c0.30469 7.375-0.050781 14.766-1.0703 22.078-0.54297 4.9883-1.0977 10.133-1.2461 15.367-0.14844 5.2305-0.21484 10.266-0.28906 15.383-0.11328 7.3789-0.22656 14.746-0.53516 22.133v0.51562l0.19531 0.48828c0.24609 0.48047 0.41016 1 0.48047 1.5391 0.12891 1.5547 0.39062 3.0977 0.78516 4.6094 0.37109 1.3672 0.60156 2.7695 0.6875 4.1836 0.015626 2.2227 0.54297 4.4141 1.5352 6.4023 0.70703 1.4062 0.70703 3.0664 0 4.4727z"/>
  <path d="m774.51 728.96-0.14062-2.5977-2.5703 0.41406c-3.2734 0.53516-6.4883 0.99219-9.7031 1.3516l-4.0586 0.44141 2.4297 3.2812c4.125 5.5703 8.0703 11.184 12.066 17.176l5.8789 8.8125-1.875-11.961c-0.82812-5.5156-1.7109-11.215-2.0273-16.918z"/>
  <path d="m677.32 610.31c0.38281 0.41797 0.6875 0.90625 0.89062 1.4336 2.6289 6.582 5.9531 12.863 9.918 18.742l4.1172 6.3359 0.1875-7.5c0.11328-4.2109 0.12109-8.4375 0.13281-12.637 0-7.5547 0-15.367 0.62891-22.895l0.47656-5.625-3.3672 1.1172c-4.9414 1.6133-10.098-2.0156-15.102-5.5508-1.6328-1.1523-3.207-2.2695-4.6875-3.1797l-2.2773-1.3203h-0.003906c-4.8047-2.5742-9.3477-5.6055-13.566-9.0547-0.85156-0.75-1.6875-1.5273-2.5312-2.3047v-0.003906c-2.4961-2.4961-5.2695-4.6992-8.2656-6.5625l-0.72266-0.27344v0.003906c-2.293-0.39453-4.6055-0.64453-6.9297-0.74219l-5.9062-0.32031 4.0781 4.2734c2.082 2.1758 4.1992 4.3125 6.3086 6.4414 2.8867 2.8984 5.7578 5.793 8.5039 8.7852l1.1992 1.293 1.5742-0.78906 0.003906 0.003906c0.57031-0.32031 1.2188-0.48047 1.875-0.46094 4.4023 0.30859 8.5391 2.2227 11.625 5.3828 3.4453 3.2539 4.5586 8.2773 2.8125 12.684l-0.49609 1.3398 0.9375 1.0586c0.76953 0.84375 1.5547 1.6602 2.3438 2.4766h-0.003907c2.1406 2.0312 4.0312 4.3086 5.625 6.7891v0.47656z"/>
  <path d="m678.57 562.91c-1.625-0.66406-3.1914-1.4609-4.6875-2.3828-2.457-1.9102-5.2109-3.3984-8.1562-4.4062l-1.875-0.57031-0.88281 1.7734 0.003906-0.003906c-0.48438 1.0586-1.168 2.0117-2.0078 2.8125l-2.1289 1.875 2.8125 2.1094c2.1328 1.707 4.375 3.2734 6.7148 4.6875 0.99219 0.58203 2.0352 1.1641 3.0938 1.7344 2.7969 1.4062 5.4336 3.1094 7.8633 5.082 1.8984 1.7578 4.3242 2.832 6.9023 3.0469 0.97656 0.03125 1.9258-0.30469 2.6719-0.9375 2.9258-2.5117-0.085937-7.0117-1.0703-8.4375-2.4258-2.9531-5.6328-5.1641-9.2539-6.3828z"/>
  <path d="m786.42 705.59c-0.52344-2.2578-1.0781-4.6328-1.875-7.0703l-0.61719-1.9609-2.0352 0.36719c-5.3516 0.9375-10.742 1.7891-16.125 2.6172-7.6875 1.1797-15.637 2.3984-23.383 4.0117l-3.8711 0.80469 4.1172 4.8203c2.9062 3.4023 5.832 6.8164 8.625 10.367l1.2188 1.2734 1.5938-0.58203v0.003907c0.37109-0.16797 0.76563-0.28125 1.1719-0.33594 7.3086-0.62891 14.559-1.8008 21.691-3.5156l11.805-2.5234-0.83594-2.4844c-0.5625-1.7695-1.0039-3.7305-1.4805-5.793z"/>
  <path d="m641.54 659.18c-0.33594 4.0586-0.67578 8.1094-1.1445 12.188l-0.30859 2.6797 10.914-0.28125c7.0039-0.19531 14.008-0.39453 21.008-0.42969h4.0039l-1.9883-3.4766c-6.1211-11.043-13.109-21.586-20.895-31.527-0.90625-1.0586-1.2773-2.4727-1.0039-3.8359l0.32812-1.7422-1.5859-0.78906c-1.7031-1.0469-3.2188-2.375-4.4805-3.9297l-6.2539-6.4688 0.9375 7.0039c0.22656 1.6484 0.49609 3.2617 0.75781 4.8672h0.003906c0.95703 4.4102 1.2461 8.9375 0.86328 13.434-0.50781 4.0977-0.81641 8.2031-1.1562 12.309z"/>
  <path d="m511.1 813.51c0.78516-5.3984 1.1914-10.844 1.207-16.297v-1.7539l-1.668-0.53516v0.003906c-6.1484-2.0391-12.188-4.3945-18.094-7.0586l-2.9336-1.293-0.34766 3.168c-1.0312 9.2344-1.6953 18.562-2.2578 27.254l-0.10156 1.6484 1.5195 0.65625c6.1602 2.6641 11.98 4.9297 17.812 6.918l2.625 0.9375z"/>
  <path d="m669.58 614.89-1.2383-1.875c-1.4102-2.0273-3.0391-3.8945-4.8555-5.5664l-1.2734-1.2734h-1.7539v-0.003906c-4.1016-0.59375-8.2695 0.38672-11.672 2.7461l-0.88281 0.72266c-1.1133 0.86719-2.168 1.8086-3.1602 2.8125l-1.8203 1.875 2.1016 1.5859c1.1953 0.95312 2.3242 1.9844 3.3867 3.082 1.2539 1.3086 2.6016 2.5195 4.0391 3.6211l1.0234 0.75 1.1914-0.44141h-0.003907c4.6055-1.6797 8.9844-3.9141 13.043-6.6562z"/>
  <path d="m457.29 428.7c-4.9844-9.1367-11.465-17.375-19.172-24.375l-1.0859-0.9375-1.3047 0.54297c-3.0156 1.2305-5.9414 2.6641-8.7578 4.2969l-1.875 1.1445 1.0234 1.9492 0.38281 0.5625c6.8242 8.7383 14.094 17.121 21.777 25.113l0.9375 1.0312c2.5117 2.7109 4.3867 4.9023 6.0664 7.0977 1.9805 2.3438 4.5781 4.0859 7.5 5.0234 1.3555 0.48828 2.6523 1.1172 3.8711 1.875l3.0078 2.2773 3.6641-3.6953-2.2773-2.6055c-0.49609-0.55469-0.99219-1.1172-1.5391-1.7812l0.003906 0.003906c-4.5664-5.4805-8.6562-11.344-12.223-17.523z"/>
  <path d="m640.74 178.55c-2.5352 0.35547-4.8867-1.3945-5.2773-3.9258l-0.14844-1.125-0.9375-0.58203c-2.6016-1.4609-5.293-2.7539-8.0625-3.8633l-1.4062-0.60156v0.003907c-1.8438-0.87109-4.0039-0.75391-5.7383 0.31641-2.8047 2.5625-4.4258 6.168-4.4805 9.9648l-0.066406 1.1172c-0.35547 5.0234-0.72266 10.211 5.7656 13.426l0.63672 0.32031v-0.003907c4.0977 3.043 9.4375 3.8477 14.25 2.1562 1.3672-0.8125 3.0781-0.77344 4.4062 0.09375 1.5352 0.98828 2.457 2.6875 2.4492 4.5117v0.51562l0.67578 1.4258c7.7422 19.352 15.836 36.215 36.422 46.695h-0.003907c5.8867 3.3477 12.461 5.3047 19.219 5.7188 6.7031-0.0625 13.051-3.0117 17.422-8.0898 5.1289-7.0781 8.0195-15.527 8.2969-24.262l0.1875-1.4141v-0.003906c0.17969-0.90234 0.60156-1.7422 1.2188-2.4258 0.78906-1.6797 1.6328-3.2891 2.457-4.8828l-0.003906-0.003906c2.8672-4.9062 4.9062-10.254 6.0391-15.824 0.69922-6.0469 0.71875-12.156 0.054688-18.207-0.1875-2.7578-0.38281-5.4922-0.32813-8.1953v-0.60156l-0.14062-0.57031c0.074218-3.8633 0.24219-8.1484 0.39453-12.242 0.19531-5.0625 0.375-9.8359 0.375-13.125 0.015625-0.35938 0.066406-0.71875 0.16016-1.0664l0.53516-3.2344-2.3633-0.32031c-10.016-0.82031-20.09 0.56641-29.512 4.0703-6.2578 2.0781-12.715 3.5039-19.266 4.2539-14.875 2.1953-29.07 7.7031-41.531 16.117l-2.2695 1.3867 1.6602 2.082c1.4844 1.8125 2.3477 4.0547 2.457 6.3945 0.10547 1.0078-0.21875 2.0195-0.89453 2.7773-0.67188 0.76172-1.6328 1.207-2.6523 1.2227z"/>
  <path d="m521.63 433.37c-3.0195-4.0625-6.3281-7.9023-9.8984-11.492-3.4766-3.5156-6.7031-7.2773-9.6484-11.25-3.8398-5.9609-8.4258-11.41-13.648-16.211l-1.875-1.5078-1.4922 1.875c-1.2305 1.418-2.6016 2.7109-4.0859 3.8633l-1.4805 1.1914 0.87109 1.6875c2.4453 4.7891 4.5391 10.191 6.5625 15.402 1.9102 5.2617 4.1289 10.402 6.6484 15.402 3.2773 5.6484 7.043 11 11.25 15.992 5.0547 5.7422 9.3008 12.148 12.617 19.043l0.9375 2.3047 2.2305-1.1172v0.003907c5.4453-2.5938 11.664-3.0508 17.43-1.2773l8.3828 3.3359-4.8555-6.5625c-3.75-5.0703-7.1445-10.555-10.453-15.863l-0.9375-1.5273 6.4961-5.8398c3.3281 5.3438 6.7773 10.875 10.566 16.078l3.6836 5.0625 0.54297-6.2344c0.33984-1.8359 1.7656-3.2773 3.5977-3.6367 1.9023-0.55859 3.9414 0.20703 5.0078 1.875 2.5352 4.0156 5.8867 7.457 9.832 10.098 1.332 0.9375 2.7109 1.7266 4.0781 2.5508 1.3672 0.82422 2.8125 1.707 4.1797 2.6328l2.0078 1.3867 1.3047-2.0625c4.707-8.5586 7.1523-18.176 7.1055-27.945l0.09375-1.875-1.875-0.47656c-6.3281-2.1602-13.094-2.7109-19.688-1.5938-1.5469 0.53125-3.2617 0.03125-4.2852-1.25l-0.9375-0.67578-0.73047-0.1875v0.003906c-5.4219-1.9414-10.66-4.3555-15.656-7.2188l-2.8125-1.6406-0.70312 3.1406c-0.15625 0.71094-0.47656 1.3789-0.9375 1.9492-0.75 0.24609-1.3867 0.75391-1.7891 1.4336l-1.5742 2.0898c-0.28906 0.35547-0.67969 0.61719-1.1172 0.74219l-2.8125 0.9375 1.2656 2.0352-5.4922 7.5c-2.4766-4.1367-5.1016-8.2422-7.9062-12.172z"/>
  <path d="m544.9 376.62c-1.6328 2.0898-3.0391 3.8906-1.6328 5.7109l0.9375 1.0977h0.003907c1 0.98047 1.7969 2.1523 2.3438 3.4492l2.25-0.64844-2.1172 1.2852 0.38281 1.9492 1.9883-0.066406c1.9961-0.066407 4.1719-0.14844 6.4141-0.25391 4.0781-0.17969 8.4375-0.35547 12.336-0.39453 1.7812 0 3.4688-0.10156 5.1094-0.19531h-0.003907c4.207-0.53125 8.4805-0.16797 12.535 1.0625l3.168 1.1328v-3.3672c-0.17969-15.555-0.35547-30.582-0.47656-37.5l-0.054687-3.3828-3.1406 1.2461c-3.9922 1.5859-8.0078 3.1016-12.027 4.6211l-8.6797 3.3008 2.8125 2.5703c3.4609 3.1016 6.7969 6.3281 10.145 9.6641h-0.003906c0.85938 0.79688 1.3359 1.9258 1.3086 3.0938-0.027344 1.1719-0.5625 2.2773-1.4609 3.0273-0.75781 0.90625-1.8711 1.4414-3.0547 1.4688-1.1797 0.027343-2.3164-0.44922-3.1211-1.3164-4.2734-4.2852-8.7109-8.7109-13.387-12.609l-1.4141-2.5586-3.6094 1.6602c-1.1641 0.51562-2.3164 1.0391-3.4023 1.6016h-0.003906c-0.27734 0.125-0.56641 0.22656-0.86328 0.30078l-1.875 0.51563 0.14844 1.875h0.003907c0.49609 3.5078 0.24609 7.082-0.73438 10.488-0.25391 0.40625-0.52734 0.79688-0.82422 1.1719z"/>
  <path d="m503.79 470.06 12.242 11.691-8.6055-14.578c-2.6484-4.1797-5.6445-8.1328-8.9531-11.812-3.3203-3.6211-6.2695-7.5664-8.8047-11.777-2.7461-5.0234-5.1641-10.379-7.5-15.555-2.7266-6.0195-5.5391-12.188-8.9062-18.074-1.0039-1.7617-1.8086-3.3672-2.5312-4.7734-3.8047-7.5-6.168-11.008-18.402-6.9297l-5.625 1.875 2.4922 2.6641 0.003906 0.003906c6.4453 7.3164 12.254 15.176 17.359 23.484 2.3438 3.582 4.6875 7.1641 7.1523 10.688h0.003907c8.9805 11.938 19.047 23.016 30.074 33.094z"/>
  <path d="m796.57 723.9-0.14062-2.9805-2.8125 0.84375c-2.8125 0.81641-5.625 1.6328-8.4375 2.3359l-1.8008 0.44141v1.875c0.19922 6.6055 0.92188 13.191 2.1562 19.688l0.67578 2.5703 2.5586-0.78906c2.0898-0.64844 4.1719-1.2852 6.2617-2.0352l1.7148-0.62891-0.1875-1.8203c-0.24609-3.5195-0.24609-7.0547 0-10.574 0.019531-3.0352 0.14062-6.0195 0.011718-8.9258z"/>
  <path d="m813.21 449.54-2.6055 1.7344c-0.32031 0.20312-0.61328 0.4375-0.88281 0.70312-0.8125 0.80469-1.7188 1.5039-2.6992 2.0938l-1.707 1.0312 0.75 1.875c6.4453 14.898 14.207 29.191 23.195 42.711 2.2695 3.5898 4.6875 7.1523 7.0391 10.734 3.2344 4.8477 6.5625 9.8516 9.6016 14.887l1.5273 1.5 1.8281-0.70312 3.3203-0.67578-1.7812-2.8125c-7.2383-11.324-13.449-23.27-18.562-35.699-2.457-5.7031-5.4219-11.176-8.8594-16.348-3.8281-5.5742-6.9297-11.609-9.2344-17.965z"/>
  <path d="m831.05 465.8c2.0703 2.7617 3.9492 5.6641 5.625 8.6797 1.4609 2.8125 2.6992 5.7578 3.8984 8.625 1.1992 2.8672 2.5312 6.0391 4.0781 9l2.6445 5.0703c3.6641 7.0312 7.5 14.305 11.484 21.215l1.3047 2.3047 4.1719-2.8867-2.0234-5.9531c-1.293-3.75-2.7461-7.9961-3.1211-9.4883v0.003907c-1.2422-4.3242-2.7656-8.5664-4.5586-12.691-2.3984-5.2422-4.1641-10.75-5.2695-16.406-1.5703-7.7617-4.293-15.246-8.0781-22.199-2.4023-4.6367-4.4531-9.4492-6.1328-14.391l-1.1523-3.6953-2.7383 2.7383c-1.4336 1.4258-2.9727 2.8125-4.5742 4.1172-1.1523 0.9375-2.3906 1.7891-3.6016 2.6172l-2.1641 1.4727 0.63672 1.7148v-0.003906c0.11328 0.33594 0.1875 0.6875 0.21484 1.0391 1.457 7.0625 4.6758 13.637 9.3555 19.117z"/>
  <path d="m801.16 755.16-1.2109-1.6484-1.875 0.60156c-3.1797 1.0117-6.3477 2.0352-9.582 2.8867l-1.4609 0.38281-0.25391 1.4922v-0.003906c-0.16797 1.3555-1.1758 2.4531-2.5117 2.7383l-3.0078 0.83594 1.6406 2.6641c3.4766 5.625 6.8359 11.195 10.078 16.875 2.5039 4.3672 5.1367 8.6641 8.043 13.125l7.0977 10.855-2.8125-12.656c-1.2852-5.7266-2.3047-10.867-3.1133-15.723-0.15625-2.3984-0.15625-4.8047 0-7.1992 0.71875-5.0938 0.36719-10.277-1.0312-15.227z"/>
  <path d="m502.33 1039.2-2.1758-0.49609-0.60938 2.1367c-0.41406 1.3359-0.90625 2.6484-1.4805 3.9258l-1.3789 3.4219 1.3203 1.0781c0.67578 0.56641 1.1719 1.3086 1.4375 2.1484l0.47656 1.5 1.5547 0.13281c1.4531 0.12109 2.8672 0.1875 3.9102 0.24219l2.1094 0.09375c0.57031 0 1.1523 0.054688 1.7148 0.054688 1.7852 0.23047 3.5664-0.44141 4.7539-1.7891 0.93359-1.6406 1.0195-3.6289 0.23438-5.3438-1.3867-4.2383-7.4531-6.0859-11.867-7.1055z"/>
  <path d="m738.09 843.4c0-6.5625-0.054688-13.211-0.17969-19.848v-2.5117l-2.5039 0.21484c-4.0703 0.35547-8.6641 0.70313-13.621 1.0586l-2.2109 0.16016v2.2227c0.12109 6.7031 0.35547 13.285 0.65625 19.82l0.09375 2.2969 2.3164-0.066406h-0.003907c4.2383-0.03125 8.4648-0.34375 12.656-0.9375 0.15625-0.007812 0.30859-0.007812 0.46094 0h2.3438z"/>
  <path d="m490.19 695.48 2.7383 0.78906 0.53516-2.8125c0.67578-3.5898 1.3672-7.3047 2.3828-10.875v-0.09375h-0.003906c0.0625-0.30078 0.16016-0.58984 0.28906-0.86328l0.9375-2.25-2.2773-0.87109c-6.2344-2.3711-12.535-4.7422-18.938-6.9375l-2.5117-0.86328-0.54297 2.5977c-0.9375 4.5078-1.6133 8.5508-2.043 12.336l-0.19531 1.7539 3.582 1.4805c5.4062 2.1758 10.777 4.3867 16.047 6.6094z"/>
  <path d="m760.15 811.09 4.0781-0.17969-2.7266-4.2383c-3.8047-5.8867-7.6016-11.785-11.512-17.617l-4.5195-6.7305 0.22656 8.1016c0.17969 6.375 0.23438 12.742 0.30078 19.172v2.625l2.6055-0.32031c3.8242-0.45313 7.75-0.63281 11.547-0.8125z"/>
  <path d="m746.48 835.17c0.11328 2.6445 0.46875 6.1211 0.89063 10.078l0.26172 2.4375 2.418-0.375c2.3516-0.35547 4.8359-0.76953 7.2188-1.1719l7.8203-1.2578-0.35547-2.3047h-0.003907c-1.0039-6.7344-1.6289-13.52-1.875-20.324l-0.10156-2.2773h-2.2773c-4.1016-0.003906-8.1953 0.30859-12.246 0.9375l-1.9883 0.32813v2.0156c0.011719 3.9922 0.10547 7.9102 0.23828 11.914z"/>
  <path d="m736.48 777.49-0.52344-7.8828-0.44141-0.5625c-1.8203-2.2969-3.6836-4.5859-5.625-6.6836-2.8125-3.1484-5.6992-6.6367-8.7461-10.668l-3.6758-4.8477-0.52344 6.0664v-0.003906c-0.64062 7.7148-0.76172 15.465-0.36719 23.195l0.10156 2.2578h2.2578c5.625-0.066406 10.621-0.28125 15.195-0.65625z"/>
  <path d="m688.12 696.05-3.5078-6.7305c-1.0117-1.918-2.0234-3.8555-3.0273-5.8125l-0.63672-1.2578h-1.4141c-8.5859-0.12109-17.289 0.10156-25.715 0.32812-3.5156 0.09375-7.0312 0.1875-10.555 0.25391h-1.9414l-0.32031 1.875c-0.52344 3.1484-0.9375 6.3008-1.3789 9.6016l-0.33594 2.6055 2.625 0.046875c3.8984 0.066407 7.8203 0.20703 11.738 0.32812 5.7461 0.19531 11.512 0.38281 17.242 0.38281h-0.003907c4.6211-0.046875 9.2344-0.44141 13.801-1.1797l-0.16016-2.3438 0.33594 2.3164z"/>
  <path d="m718.12 798.05c0.30859 3.9102 0.61719 7.7539 0.89062 11.805l0.14844 2.3633 2.3633-0.17969c1.1758-0.019531 2.3516 0.10547 3.4961 0.375 1.2695 0.27344 2.5586 0.42578 3.8555 0.45703 2.8242 0.03125 5.5195-1.2031 7.3398-3.3633h1.5078l-0.19531-6.4961c-0.14062-4.9609-0.30078-10.445-0.52344-15.938l-0.13281-2.3828-2.418 0.1875c-1.875 0.14844-3.75 0.44922-5.793 0.75781-2.9609 0.53125-5.9531 0.84375-8.9531 0.9375h-2.4922l0.17969 2.4922c0.26562 3.125 0.5 6.0508 0.72656 8.9844z"/>
  <path d="m679.01 894.07v-35.898h-2.3906c-3.168 0.066406-6.3828 0.066406-9.6094 0.066406h-2.4297v2.3828c0.17969 9.7422 0.35547 19.547 0.34766 29.289l-0.11328 3.0664 11.363 0.85156 0.44922-2.3164-0.17969 2.3359z"/>
  <path d="m751.96 880.31c4.4531-0.28516 8.8867-0.87109 13.266-1.7539l1.875-0.36719v-1.5469 0.003907c0.64063-3.2266 0.67188-6.543 0.082032-9.7812-0.13281-1.2461-0.24219-2.3828-0.26172-3.1953-0.054687-2.5391-0.30078-5.0352-0.53516-7.5l-0.21484-2.1094-2.8984 0.074219c-2.9609 0.38281-5.9609 0.9375-8.9609 1.4453l-5.8203 1.0039 0.21484 2.1758v-0.003907c0.67578 6.3555 0.92969 12.746 0.75781 19.137l-0.10156 2.5781z"/>
  <path d="m752.53 927.5c3.9414-0.59766 7.9297-0.82422 11.914-0.67578h0.68359l0.58984-0.36719 0.003906 0.003906c1.6562-1.0391 3.7617-1.0391 5.418 0l0.70312 0.50781 0.85156-0.066406c4.1406-0.41406 8.1328-1.7656 11.672-3.9492 2.7891-0.82422 4.8359-3.1992 5.25-6.0742l0.38281-2.0898-2.0625-0.58203h0.003906c-0.84375-0.21094-1.5977-0.6875-2.1484-1.3594l-0.86328-1.125-1.3984 0.24219h0.003906c-8.2266 1.7461-16.297 4.1602-24.133 7.2188-2.6992 0.9375-5.4297 1.9297-8.1484 2.8594l-1.875 1.1523 0.40234 2.0156v2.8125z"/>
  <path d="m822.78 1080.8 1.6875-0.38281 0.13281-1.7148v-0.003906c0.48047-3.832 1.4531-7.5898 2.8945-11.172l1.9766-4.7891-4.9023 1.6797c-4.0703 1.3984-8.1836 2.6992-12.301 3.9922l0.003906-0.003906c-9.082 2.6953-18.008 5.8906-26.738 9.5742l-1.1523 0.50781-0.20703 1.2461v-0.003906c-0.67188 4.6172-1.0117 9.2773-1.0234 13.941-0.085938 3.2148-0.16016 6.4219-0.48828 9.6289l-0.86328 8.8398 5.1094-7.2578 0.003906 0.003907c9.0078-11.727 21.605-20.184 35.867-24.086z"/>
  <path d="m876.64 942.13c-1.3281-10.977-5.1094-21.512-11.062-30.828-0.9375-1.668-1.7812-3.3203-2.6055-4.9023-0.17969-0.375-0.31641-0.77344-0.40234-1.1797l-0.60156-1.1641c-0.26172-0.38281-0.54297-0.77734-0.65625-0.9375-5.4688-8.043-10.395-16.441-14.746-25.145-2.5781-4.8477-5.1562-9.7227-7.9961-14.586-11.562-18.703-24.328-36.633-38.215-53.68l-0.57031-0.73047v-0.003907c-5.1719-7.0977-9.7305-14.625-13.621-22.5-3.3594-6.6602-7.1172-13.109-11.25-19.32-8.5508-12.289-17.812-24.148-26.832-35.625-12.418-15.301-24.051-31.219-34.855-47.699-4.5859-7.2383-9.7891-14.57-14.82-21.664l-0.003906-0.003907c-8.7539-11.734-16.668-24.074-23.68-36.926l-1.1914-2.3242-2.1836 1.4336c-3.1602 2.0781-6.5 3.8711-9.9766 5.3633l-2.8125 1.1992 1.875 2.4102c12.699 16.797 23.652 34.848 32.691 53.867 5.5 10.793 11.832 21.137 18.949 30.938 3.4492 5.0352 6.9375 10.105 10.312 15.508 3.6094 5.7852 7.6484 11.383 11.539 16.801v-0.003906c5.9492 7.8711 11.332 16.156 16.105 24.789 5.0117 8.9258 10.863 17.355 17.477 25.172 6.5898 7.7461 12.379 16.145 17.277 25.059 4.793 8.9336 10.445 17.383 16.875 25.219 6.207 7.5547 11.676 15.684 16.332 24.281 5.668 10.496 12.344 20.414 19.93 29.617 3.0742 3.9844 6.1602 7.9688 9.1133 12.086v-0.003906c9.2461 13.457 16.82 27.988 22.555 43.277l4.3594-1.7344c0.007813-2.6484 0.42578-5.2812 1.2383-7.8008 0.82812-2.6836 1.3164-5.457 1.4531-8.2578z"/>
  <path d="m882.7 566.6-2.1367-2.3164-2.0156 3.3828h-0.003907c-0.34375 0.52734-0.65625 1.0703-0.9375 1.6328-0.49219 1.0703-0.76172 2.2266-0.79687 3.4023-0.03125 0.85547-0.17969 1.6992-0.44922 2.5117-0.47656 1.4531-1.3359 2.7461-2.4844 3.75l-0.5625 0.46875-0.19531 0.71094v0.003906c-0.26953 1.0391-0.94531 1.9297-1.875 2.4648-0.625 0.35156-1.2695 0.66797-1.9336 0.9375-0.55469 0.25391-1.1172 0.50781-1.875 0.9375-0.14063 0.085937-0.9375 0.60156-1.125 0.72266l-1.0508 0.42969-0.32031 1.0859 0.003906 0.003906c-0.097656 0.32031-0.22656 0.63281-0.375 0.9375l-0.46094 1.0703 0.57031 1.0117 0.003906-0.003906c0.46484 0.78125 0.64062 1.7031 0.49609 2.5977l-0.24219 1.3867 1.1172 0.86328h-0.003906c2.2109 1.6641 4.9219 2.5234 7.6875 2.4375 3.9023-0.16406 7.7305-1.1211 11.25-2.8125 1.6328-0.70312 3.4414-1.2734 5.2695-1.875 3.5156-0.92969 6.8711-2.3789 9.957-4.3008 2.6758-1.9102 4.8906-4.3984 6.4766-7.2773l1.875-3.4688h-5.2422c-6.1875-0.21484-12.59-0.44141-16.086-5.3906-1.3906-1.8672-2.9062-3.6406-4.5352-5.3047z"/>
  <path d="m785.46 842.09-4.125-5.9922c-1.4141-2.082-2.8125-4.1641-4.1055-5.8672l-5.3555-5.2305 0.80469 6.7305c0.39453 3.2891 0.79688 6.6289 1.2461 9.9766l0.30859 2.3164 2.3281-0.27344c1.875-0.24219 3.6562-0.55469 5.4297-0.9375z"/>
  <path d="m786.25 1067.4 1.9609-0.9375h-0.003906c9.2969-4.7852 19.082-8.5547 29.188-11.25l1.9492-0.44922-0.13281-1.9961c-0.16016-2.6914-0.51562-5.3672-1.0586-8.0078-0.33594-1.3984-0.77734-2.8867-1.2266-4.4062-0.44922-1.5195-0.9375-3.0273-1.2656-4.5195l-0.44922-1.9688-2.0156 0.16797-0.003907 0.003906c-1.5703 0.10547-3.1328 0.29297-4.6875 0.5625-11.645 2.4258-22.961 6.2383-33.703 11.352l-1.3594 0.62891v1.5c0.57031 4.9023 3.1562 9.3477 7.1367 12.262 1.7266 1.5195 3.25 3.2617 4.5273 5.1758z"/>
  <path d="m776.09 876.36 2.9453-0.54297c3.6758-0.55078 7.2773-1.4922 10.754-2.8125l0.81641-0.35547 0.36328-0.76953c0.98438-2.1641 2.6914-3.918 4.8281-4.9609 0.36719-0.20703 0.76172-0.36719 1.1719-0.46875l1.0781-0.44141 1.0508-3.1328-0.71094-1.1172c-2.2773-3.582-4.5469-7.1641-6.8711-10.688l-1.0391-1.5547-1.7539 0.66406-0.003906 0.003907c-3.6328 1.293-7.4102 2.1211-11.25 2.4688l-2.2969 0.27344 0.40234 3.957c0.085937 1.4336 0.19531 2.9258 0.32031 4.4531v-0.003906c0.40625 4.0078 0.53516 8.0391 0.39453 12.066z"/>
  <path d="m677.65 847.6v-20.52h-2.5117l-0.33594-2.2695c-0.58984 0.085938-2.8125 0.14844-5.1562 0.22656-1.707 0.054688-3.4688 0.11328-4.7539 0.17969l-2.2969 0.11328 0.074219 2.3047c0.11328 3.1016 0.28125 6.2266 0.44922 9.375 0.19531 3.6562 0.40234 7.3047 0.49609 10.93l0.054687 2.2773h2.2891c11.25-0.039062 11.691-0.039062 11.691-2.6172z"/>
  <path d="m747.14 938.74 0.46094 1.875c0.46094 1.875 0.89063 3.8242 1.332 5.8125h-0.003906c1.1875 6.9023 3.3203 13.609 6.3398 19.93 0.9375 1.6875 1.875 3.3945 2.8672 5.1094 2.5312 4.1133 4.7266 8.4258 6.5625 12.891 0.9375 2.5312 2.1484 5.1172 3.3359 7.7734h0.003906c3.0703 5.8672 5.1484 12.203 6.1562 18.75l0.25391 3.0469 2.8789-1.0312c0.86328-0.30859 1.7344-0.67578 2.5977-1.0508 1.1172-0.46094 2.2422-0.9375 3.3828-1.4453l3.2734-1.3984-0.42188-1.875v0.003906c-1.6016-6.4219-3.625-12.73-6.0586-18.883-2.6055-6.4805-4.6914-13.164-6.2344-19.977-1.875-9.5898-4.6875-20.344-8.1016-31.969l-0.51562-1.7344-1.8086 0.066406h0.003906c-3.7266 0.10156-7.4219 0.73047-10.969 1.875-1.1797 0.44141-2.3711 0.9375-3.5547 1.5z"/>
  <path d="m720.38 893.07 2.9453-0.52344c14.062-2.4922 14.766-8.8867 14.766-27.027v-8.3633l-0.68359-0.68359h-0.003906c-0.20313-0.22266-0.38281-0.46484-0.54297-0.72266l-0.81641-1.2109-1.4531 0.20703c-3.8047 0.52344-7.6875 0.99219-11.738 1.4062l-2.1953 0.22656 0.085937 2.2031h0.003907c0.50781 10.496 0.44922 21.012-0.17188 31.5z"/>
  <path d="m543.75 1026c0.085938-1.3086 0.085938-2.6211 0-3.9297-0.53516-5.1562-1.3594-10.281-2.4648-15.348l-0.48828-2.4375-2.4102 0.63672v0.003906c-5.1875 1.082-10.5 1.4531-15.785 1.1055-5.8047-0.10156-11.758 0-17.605-0.28906l-0.5625 4.6406-0.003906-0.003906c3.2969 0.64062 6.5117 1.6562 9.5742 3.0312 1.875 0.83594 3.8711 1.5859 5.9258 2.3359v-0.003906c3.5508 1.1289 6.9492 2.7031 10.105 4.6875 3.4219 2.2578 6.7031 4.7266 9.8242 7.3867l3.6953 3.0938z"/>
  <path d="m505.03 856.88 0.33594-3.3008c0.53516-5.1641 1.125-10.312 1.875-15.508l0.28906-1.9609-1.875-0.60938c-5.625-1.875-11.117-3.8516-16.266-5.9727l-3.0391-1.2461-0.9375 14.887 0.003907 0.003907c-0.082031 0.4375-0.22656 0.85938-0.42969 1.2578l-0.78906 1.9688 1.875 0.98438c5.2305 2.7266 10.586 5.5234 15.992 8.082z"/>
  <path d="m657.55 519.78-0.46875-0.14844h-0.49609c-4.0391 0.35547-8.2031 0.64844-12.375 0.82422l-6.9102 0.28906 7.5547 5.2031c0.83984 0.5625 1.4688 1.3867 1.7812 2.3438l0.49609 1.6016h1.6875v0.003906c2.4258 0.015625 4.8203 0.52344 7.043 1.4883l1.6875 0.77734 1.1445-1.4531-0.003907 0.003907c0.29688-0.375 0.65625-0.69141 1.0625-0.9375l0.085938-0.054688c1.7891-1.1523 3.5898-2.25 5.4375-3.2891l4.6875-2.6445-5.1367-1.6328c-2.4023-0.72266-4.832-1.5508-7.2773-2.375z"/>
  <path d="m478.24 810.72c0.46875-7.8359 1.1055-17.148 2.2969-26.633l0.21484-1.707-15.824-7.2578-0.69531 2.6992c-2.0547 7.9766-4.0039 15.797-5.3047 23.746l-0.32812 1.9688 1.875 0.62891c0.39453 0.12109 0.76562 0.30859 1.0977 0.55469 4.0039 2.6992 8.4375 5.3633 13.199 7.9297l3.2344 1.7422z"/>
  <path d="m522.19 1043.4 0.80469 2.5391 2.418-1.125h0.003906c3.3242-1.5742 7.0508-2.1094 10.688-1.5273l5.625 0.9375-3.3359-4.6133h-0.003906c-4.3281-5.8477-10.16-10.414-16.875-13.219-1.7734-0.72266-3.5352-1.5195-5.2969-2.3242-4.1797-2.0898-8.582-3.7109-13.125-4.8281l-2.8125-0.58984v2.8789c0 2.1016 0 4.2461 0.066406 6.4492l0.046875 1.875 1.8203 0.36719c8.3047 1.668 17.219 4.582 19.977 13.18z"/>
  <path d="m469.69 699.9c-0.066406 0.9375-0.12109 1.875-0.12109 2.7656-0.12109 5.0156-0.10156 10.125-0.074218 15.234v7.9023l1.8008 0.42969-0.003907 0.003906c0.32813 0.070313 0.64453 0.18359 0.9375 0.33594 4.5859 1.9961 9.168 4.1719 13.82 6.4141l3.0469 1.4609 1.0039-11.492c0.44141-5.1758 0.88281-10.312 1.4258-15.555l0.17969-1.7344-1.6133-0.67578c-5.6797-2.3633-11.422-4.7305-17.223-7.1055l-3.0078-1.2188z"/>
  <path d="m457.35 812.6-0.054687 7.8672c0 13.172 6.1406 15.938 13.922 19.473l5.2578 2.4297 0.22656-3.4141c0.27344-4.1797 0.49609-8.25 0.72266-12.309l0.13281-2.5039-1.3789-0.69531h-0.003907c-5.2188-2.6016-10.305-5.4648-15.234-8.5781z"/>
  <path d="m679.07 814.01c0-8.3438 0-16.688-0.054687-25.031v-2.2305l-16.781-0.74219 0.10156 2.5508c0.32031 7.6797 0.57031 15.301 0.83594 22.836l0.19531 5.5039 2.3359-0.074219c3.582-0.10156 7.1172-0.27344 10.695-0.44922l0.34766-2.3633 0.11328 2.3438 2.2305-0.11328z"/>
  <path d="m482.63 770.11c0.75781-3.918 1.5859-7.9023 2.5781-11.887 0.9375-3.7969 1.7539-7.9297 2.5234-12.984l0.27344-1.7344-1.5938-0.74219c-4.5547-2.1289-9.0547-4.2109-13.555-6.2734l-3.2539-1.5-0.074219 3.582h-0.003906c-0.066406 8.7148-0.82422 17.41-2.2578 26.008l-0.32812 1.875 1.7148 0.73047c3.5898 1.5391 7.1797 3.0664 10.715 4.6875l2.6992 1.2188z"/>
  <path d="m636.44 848.15c5.5391 0.75 11.156 1.2734 16.688 1.5547l2.5117 0.13281-0.074219-3.9375c-0.11328-5.8398-0.22656-11.852-0.38281-17.867l-0.066406-2.3516-10.312 0.34766c-3.4609 0.12109-6.2344 0.21484-8.1289 0.25391l-2.3242 0.046875v2.3242c0.054688 5.7266 0.054688 11.457 0.054688 17.184v2.043z"/>
  <path d="m680.76 705.82-3.6758 0.375c-2.8672 0.33594-5.75 0.46875-8.6367 0.39453-1.8086 0-3.6758-0.054688-5.4844-0.12109l-2.4297-0.074219v2.4375c0.054688 9.9453 0.17969 19.688 0.35547 29.418v2.2695l18.074 0.24219-0.015626-28.258c0.003907-1.1055 0.20313-2.2031 0.58203-3.2422z"/>
  <path d="m558.31 514.17c-0.42188-0.77734-0.85156-1.5859-1.2461-2.3828l-0.42188-0.85156-0.9375-0.30859c-3.0234-1.0703-5.9453-2.4023-8.7383-3.9766l-1.1055-0.61719-6.8047 3.5156 1.4453 2.1641h-0.003906c2.1328 3.1914 4.0352 6.5312 5.6914 9.9961 0.32031 0.66406 0.65625 1.4727 1.0312 2.3359 2.0352 4.8008 4.8281 11.352 10.133 12.441v-0.003906c1.7109 0.34375 3.4531 0.50391 5.1953 0.47656h1.3203l4.3398-0.13281-2.4922-3.5625v0.003906c-1.6328-2.1289-2.7812-4.5898-3.3633-7.2109-0.09375-0.39062-0.11328-0.79688-0.066406-1.1992l0.074219-0.72266-0.64844-1.1797c-0.62891-1.1641-1.2461-2.2891-1.9883-3.4023h0.003906c-0.57422-0.82031-0.80859-1.8281-0.65625-2.8125l0.13281-0.76953z"/>
  <path d="m494.87 992.88-0.9375 2.6445 2.7656 0.46094v-0.003906c6.6758 0.90234 13.414 1.2695 20.148 1.0977h0.99219c1.4609 0 2.9922 0.066406 4.5547 0.14062 1.5664 0.074219 3.375 0.14844 5.1094 0.14844h0.003906c4.3594 0.21875 8.6992-0.6875 12.609-2.6328l1.0508-0.48828 0.25391-1.125c0.34766-1.5469 0.77734-3.3359 1.2578-5.3438l0.9375-3.9844h-2.9336c-3.168 0.054687-6.9102 0.25391-10.227 0.50781-2.2109 0.16797-4.1445 0.32031-5.3906 0.32031-1.5391 0-3.2891 0-5.1367-0.10156-9.2148-0.33203-21.805-0.75391-25.059 8.3594z"/>
  <path d="m679.01 749.67-17.879-0.24219 0.054688 2.4297c0.17969 7.5 0.41406 14.859 0.65625 22.199l0.066406 2.1367 17.102 0.9375z"/>
  <path d="m590.7 507.87 2.1367-1.5469-1.8008-1.9414h0.003906c-3.8984-3.5781-8.4531-6.3633-13.418-8.1914-3.8867-1.4805-7.5195-3.5508-10.781-6.1328-1.1367-1.0742-2.1289-2.2891-2.9531-3.6172-2.3242-4.0547-6.8398-6.3359-11.484-5.8047-2.6445-0.12109-5.2773-0.22656-7.9766-0.1875-8.1641 0.23438-12.289 11.805-14.062 18.684l-0.61719 1.668 1.6484 0.86328 1.1641 1.1641 2.2305-1.0391c0.67969-0.27734 1.3398-0.58984 1.9844-0.9375l0.60937-0.33594v-0.003906c1.9453-1.1211 3.9492-2.1406 6-3.0469 1.6992-0.91797 3.7695-0.79297 5.3438 0.32031l0.9375 0.44922c0.53516 0.12109 1.0508 0.31641 1.5312 0.58203 10.66 5.332 22.129 8.8594 33.945 10.434 1.9492 0.11328 3.8906-0.36719 5.5586-1.3789z"/>
  <path d="m531.82 976.06 0.42188-8.043c0.9375-18.008 1.875-36.617 3.75-54.824l0.26172-1.9414-1.875-0.52344c-2.9922-0.81641-5.9727-1.6953-8.8984-2.6328l-3.0547-0.9375v3.1562c0 21.656 0.70312 62.082 0.72266 62.258l-0.13281 3.207z"/>
  <path d="m514.43 904.91-2.4922-0.52344c-6.1602-1.3125-10.312-1.6211-13.125 0.65625l-0.003906-0.003906c-2.6016 2.957-3.7969 6.8945-3.2812 10.801v61.34l2.6992-0.42188h0.003906c4.5312-0.66406 9.1055-1.0078 13.688-1.0312l2.9141-0.12109-0.72266-2.8789c0-12.629-0.19531-23.953-0.39453-35.023-0.17969-9.6484-0.34766-19.105-0.375-29.062 0.050781-0.4375 0.15625-0.86719 0.32031-1.2773z"/>
  <path d="m794.85 1005.4 2.4766-0.89062c1.4258-0.50781 2.8516-0.96094 4.2734-1.3672l2.0352-0.57031-0.35547-2.082c-0.72266-4.1914-1.1797-8.5312-1.6328-12.73v-0.003906c-0.53906-6.5312-1.5508-13.012-3.0312-19.398-0.25391-0.9375-0.58984-2.8125-1.0117-5.0156-3.3359-17.551-6.1133-27.281-11.316-28.5-0.5-0.097657-0.97266-0.30078-1.3867-0.59766l-0.84375-0.60938-1.0117 0.20703c-1.8711 0.36719-3.7734 0.56641-5.6797 0.59766l-2.9336 0.09375 0.73047 2.8125c0.9375 3.5078 1.7266 7.0508 2.5391 10.586 1.5938 7.4492 3.5664 14.816 5.9062 22.066 0.83594 2.3984 1.6953 4.8203 2.5703 7.2578 3.1562 8.3672 5.8516 16.902 8.0703 25.566z"/>
  <path d="m473.09 390.94 1.4531 1.3984 1.6016-1.2266 0.003907-0.003906c0.6875-0.51172 1.1641-1.2578 1.3398-2.0977l0.12109-0.58984-0.1875-0.58203c-0.17578-0.60938-0.20703-1.2539-0.09375-1.875l0.09375-0.60938-0.20703-0.57031v-0.003906c-0.64844-1.6797-1.5352-3.2578-2.6328-4.6875-1.125-1.3789-2.8984-1.2383-8.1289-0.44141-0.74219 0.11328-1.3398 0.20703-1.6133 0.22656h-0.83594 0.003906c-8.2656-0.007812-16.516 0.69531-24.656 2.1016-1.5859 0.40234-3.2656-0.13281-4.3242-1.3789-1.1953-1.3203-1.6328-3.1602-1.1602-4.875 0.43359-1.2188 1.5273-2.082 2.8125-2.2305 6.6367-1.3086 13.371-2.0625 20.137-2.2617l3.6172-0.14844-1.4805-2.9727-0.066406-1.4336-2.8125-1.3125c-5.1484-2.8203-10.887-4.3984-16.754-4.6133-1.3789 0-2.9062-0.054688-4.5273-0.11328-8.0625-1.418-16.363 0.22656-23.277 4.6133-2.5703 2.5898-3.9297 6.1445-3.75 9.7891 0 1.293 0.074219 2.5586 0.16016 3.7969 0.28125 4.4609 0.48828 7.6953-3.168 10.566v-0.003906c-2.1602 1.9609-3.2461 4.8398-2.9258 7.7344 0.085938 5.043 2.3398 9.8047 6.1875 13.07l1.5273 1.0508 2.2031-2.0352c0.32812-0.33594 0.66406-0.66406 1.0039-0.9375 11.051-8.9062 45.926-31.191 60.336-17.344z"/>
  <path d="m420.28 336.15 2.2578 3.582 1.875-3.8164c0.75781-1.5742 1.5195-3.0938 2.3359-4.6875l0.46094-0.89062-0.32031-0.9375c-4.1953-9.3125-10.559-17.488-18.562-23.84-5.6641-4.8086-10.633-10.383-14.758-16.566-12.48-21.758-27.074-42.234-43.574-61.133-8.7266-9.5703-16.801-20.23-24.602-30.535h0.003907c-8.3281-11.391-17.238-22.344-26.703-32.812-8.2734-8.4648-16.012-17.441-23.172-26.867-1.875-2.5508-3.1133-4.5391-3.9922-5.9531-1.4609-2.3516-2.3516-3.75-4.1992-3.75-1.875 0-2.7188 1.4453-4.1445 3.8164-0.57031 0.9375-1.3125 2.2031-2.3047 3.7031l-1.0508 1.6016 1.3594 1.3516 0.44141 0.38281h-0.003906c6.9375 7.0977 13.266 14.77 18.91 22.93 5.7812 8.4219 12.293 16.32 19.461 23.598 15.531 15.082 29.422 31.77 41.438 49.781 17.578 25.473 35.879 49.82 55.941 74.43 2.4453 3 5.3711 6.1016 8.4375 9.375 5.3555 5.2773 10.199 11.047 14.465 17.238z"/>
  <path d="m430.59 351.79c3.0391-0.054687 6.0195-0.054687 9.0664 0l2.0898 0.046876 0.28125-2.0625c3.2383-16.312 10.855-31.434 22.031-43.746 4.0703-5.3516 8.2773-10.895 12.188-16.988 1.1758-1.8594 2.5156-3.6094 4.0039-5.2305l10.828-12.086-13.801 8.5234c-4.9766 2.9609-9.6289 6.4414-13.875 10.379-10.004 11.066-17.977 23.809-23.559 37.641-1.7148 3.582-3.9844 7.3789-6.1875 11.055-1.8008 3.0078-3.6094 6.0391-5.1836 9.0391l-1.875 3.5156z"/>
  <path d="m522.19 282.5c-0.30078 0.28125-0.61719 0.54297-0.9375 0.79688-0.45703 0.36328-0.89453 0.74609-1.3125 1.1523-2.0234 1.7344-3.9922 3.5234-5.9609 5.3164l-0.9375 0.86328 0.20703 1.2578h-0.003906c0.054687 0.26172 0.082031 0.52734 0.085937 0.79688v11.82c-0.15625 1.9219-1.6016 3.4922-3.5078 3.8047-3.1289 1.1055-6.6172 0.33594-9-1.9766l-1.6328-2.4297-2.0156 2.1289h0.003906c-14.562 14.277-25.102 32.141-30.555 51.789l-0.60156 1.7734 1.6133 0.9375v-0.003906c0.53125 0.3125 0.97656 0.74609 1.3047 1.2656l0.70312 1.0703h0.87109l0.84375 0.44141 1.1523-0.78906c1.6289-1.0078 3.6758-1.0391 5.3359-0.082031l2.1562 1.2461 2.3242-4.7422v-0.003906c1.4141-3.4375 3.375-6.6211 5.8125-9.4297 0.98828-0.92969 2.0352-1.7969 3.1328-2.5977 3.2773-1.9297 5.8203-4.8984 7.2188-8.4375 0.77734-3.3047 1.3086-6.6641 1.5938-10.051 0.45703-2.8477 3.1172-4.7969 5.9727-4.375 0.94141 0 1.8359 0.43359 2.4258 1.1719 0.58984 0.73437 0.8125 1.6992 0.60938 2.625l-0.11328 0.9375c0.28125 8.668-3.3008 17.016-9.7773 22.789-4.5742 3.9062-8.1953 8.8125-10.582 14.336-0.9375 1.7539-1.875 3.4961-2.8125 5.1953l-1.668 2.8125 3.1797 0.70312-0.003906-0.003906c1.1562 0.27734 2.3359 0.42969 3.5234 0.44922 1.5078 0.16016 3-0.41797 4.0039-1.5547l1.1523-1.4805c0.58203-0.75 1.1641-1.5195 1.6953-2.1172 0.17969-0.17969 0.42969-0.38281 0.70312-0.60938l0.003906-0.003907c1.0742-0.75781 1.9531-1.7695 2.5508-2.9414 0.44922-1.3242 1.4883-2.3633 2.8125-2.8125 1.4805-0.5 3.1016-0.33984 4.4609 0.42969l1.125 0.66406 1.1523-0.60156c1.4453-0.75 2.8672-1.5469 4.293-2.3438v0.003906c3.0117-1.8359 6.1875-3.3828 9.4883-4.6211 1.1133-0.22266 2.25-0.32031 3.3867-0.29297 3.3125 0.41797 6.6562-0.54297 9.2422-2.6602 1.1133-1.3633 1.5781-3.1445 1.2656-4.875-0.41797-2.2266-0.16016-4.5312 0.74219-6.6094 1.7461-3.5625 4.5898-6.4648 8.1172-8.2773 2.6094-1.625 4.9844-3.5938 7.0703-5.8516 9.9844-12.102 16.508-21.234 16.266-37.359-0.0625-1.1484 0.375-2.2656 1.1953-3.0664 0.82422-0.80078 1.9531-1.2109 3.0977-1.125 1.1602 0 2.2891 0.37109 3.2227 1.0586 0.92578 0.79688 1.4414 1.9688 1.3984 3.1875 1.3242 11.512-1.9961 23.074-9.2266 32.129-0.9375 1.1328-1.875 2.3047-2.8125 3.4883-3.1094 4.1914-6.6719 8.0312-10.621 11.445l-1.0234 0.76953h0.003906c-3.8828 2.1797-6.75 5.8047-7.9688 10.09l-0.76953 4.2461 3.9766-1.668c5.3828-2.25 11.137-4.2383 16.707-6.1484l-0.003906-0.003906c11.656-3.4492 22.809-8.4141 33.168-14.773 2.9453-2.043 5.7656-4.1523 8.5234-6.375l1.1992-0.9375-0.40234-1.4805c-2.2422-8.2773-4.6875-16.508-7.1641-24.703l-1.0234-3.3945c-0.85156-2.8125-1.707-6.0469-2.6172-9.4766l0.003907-0.003906c-2.625-12.848-7.3789-25.164-14.062-36.449l-1.6797-2.3242-1.9492 2.1094c-0.50781 0.5625-1.1523 0.98047-1.875 1.2188-3.3008 1.0273-6.0703 3.3047-7.7148 6.3477l-1.1055 1.6211c-1.3047 2.1641-3.5234 3.6211-6.0273 3.957-2.8242-0.17578-5.582-0.92969-8.1016-2.2148-1.7383-0.62109-3.5508-1.0273-5.3906-1.207l-1.9414-0.21484-0.55469 1.875h0.003906c-0.15234 0.69141-0.47266 1.3359-0.9375 1.875-2.9531 2.5117-5.9141 4.9766-8.8789 7.4453l-6.5625 5.4844 0.11328 2.2422 0.46875 0.46094v-0.007812c1.5859 3.3828 2.2344 7.1289 1.875 10.848 0 1.5078 0 3.0469 0.085938 4.6875 0.085937 1.6406 0.25391 3.0664 0.41406 4.5742h-0.003906c0.56641 3.7891 0.59766 7.6328 0.09375 11.43-0.91016 8.4492-5.0547 16.219-11.57 21.676-1.0039 0.62891-2.2305 0.79688-3.3672 0.45703-1.1367-0.33594-2.0742-1.1445-2.5742-2.2188-0.67188-0.95703-0.90234-2.1562-0.63281-3.293 0.26953-1.1367 1.0156-2.1016 2.0469-2.6523 5.043-2.8867 7.6797-14.586 7.6797-18.121-0.035156-2.1953-0.21094-4.3906-0.52734-6.5625-0.25391-1.8203-0.41406-3.6484-0.47656-5.4844 0-0.62891 0-1.3867 0.10156-2.2109v-0.003906c0.19922-1.9453 0.19922-3.9102 0-5.8594l-0.62891-4.4258z"/>
  <path d="m450.8 350.2-0.25391 1.875 1.8008 0.63672c1.0469 0.36719 2.0586 0.82812 3.0195 1.3789l2.6328 1.4531 0.76953-2.9062c2.6016-12.488 7.7656-24.301 15.172-34.688 3.9883-5.0312 8.5078-9.6211 13.48-13.688 4.4297-3.7148 8.5664-7.7734 12.363-12.133l0.48828-0.48828 0.14062-0.66406c0.40625-2.0977 1.9336-3.8047 3.9766-4.4336l0.9375-0.60156c2.8125-2.9258 5.6797-5.793 8.6172-8.5508l12.008-11.25-14.68 7.5c-1.3516 0.6875-2.7148 1.3672-4.0977 2.0352-6.9141 2.9023-13.262 7-18.75 12.102-22.941 24.414-35.262 44.824-37.625 62.422z"/>
  <path d="m515.1 1062.7-0.85156-0.85156-1.1914 0.20703-0.003906-0.003906c-1.2852 0.22266-2.5938 0.30859-3.8984 0.26172l-1.5742-0.046874c-5.4219 0.14844-10.832-0.59766-16.012-2.2109l-0.82422-0.32812-0.83594 0.28906c-3.6289 1.1562-7.0938 2.7695-10.312 4.8008-2.1641 1.4141-4.1719 2.9922-6.1797 4.5742-1.4727 1.1523-2.9453 2.3164-4.5078 3.4219l-0.58203 0.42188c-3.75 2.7109-4.4062 3.6094-4.3867 9.2734 0.10156 1.0039 0.23438 2.0547 0.38281 3.1211 0.45312 2.5859 0.62109 5.2148 0.49609 7.8398l-0.22656 2.3828 9.8711 0.78906c16.602 1.6016 28.125 2.2305 36.273 2.2305 13.332 0 17.297-1.707 18.945-3.6172l0.003906-0.003907c0.91016-1.0234 1.2422-2.4297 0.89062-3.75-2.125-10.949-7.5195-20.992-15.477-28.801z"/>
  <path d="m544.69 1076.4-0.42969-3.3672c-0.66016-4.1172-1.6602-8.1758-2.9922-12.129-0.36719-1.1719-0.72266-2.3359-1.0508-3.4766v-0.003907c-0.62891-2.5039-2.6172-4.4453-5.1367-5.0156-3.5781-0.62891-7.2266 0.62109-9.6641 3.3125-0.19531 0.21875-0.41406 0.41406-0.64844 0.58984l-2.1484 1.4531 1.6602 1.9961c7.7891 8.8008 13.551 19.207 16.875 30.477l0.375 1.875h2.4102l2.0078 0.22656v-2.3438l0.09375-0.50781v-0.30078c-0.20703-4.1992-0.78125-8.5664-1.3516-12.785z"/>
  <path d="m465.1 1128.8c-10.777 0.63281-21.574-0.91797-31.742-4.5547-0.83203-0.32422-1.5898-0.8125-2.2305-1.4375l-0.9375-0.5625c-1.2188-0.40234-1.875-0.9375-1.875-1.6211v-9.543l-4.2578 6c-1.6094 2.0117-2.1562 4.6758-1.4727 7.1641 1.1797 3.9297 5.5234 7.2383 13.66 10.387l15.273 0.16797c4.6211 0 9.1797-0.22656 13.941-0.66406l2.8125-0.74219-1.4141-4.6211z"/>
  <path d="m427.27 439.94c6.4062 6.7422 13.211 13.094 20.383 19.02 8.3242 6.6484 16.961 12.758 25.312 18.676l7.2109 5.1289c2.9805 2.082 9.9453 6.4883 13.82 8.9336l2.1758 1.1641 1.2109-2.1562h-0.007812c0.23047-0.44141 0.48047-0.86719 0.76172-1.2773l1.6406-2.457-2.7578-1.0391c-0.60156-0.20312-1.1602-0.51953-1.6406-0.9375-9.9961-8.4336-20.625-16.09-31.789-22.902-4.1523-2.6797-8.2422-5.3242-12.141-7.9688-4.5234-3.7266-8.5156-8.0586-11.859-12.871-1.3398-1.7266-2.6172-3.3672-3.8242-4.8086-1.6484-1.9609-3.3281-3.8828-4.9961-5.8125-3.5625-4.1055-7.2383-8.3438-10.613-12.684l-2.1562-2.7578-1.7344 3.0391c-3.8828 6.8242 0.9375 11.691 6.5625 17.305z"/>
  <path d="m486.71 1106.8c-1.5078-0.1875-3.2344-0.46094-5.0898-0.75781-9.6836-1.5547-22.949-3.6836-30 2.8125-0.55469 0.51562-2.5977 1.9766-4.8281 3.6016l-6.6484 4.8477 5.2891 1.0234v-0.003906c5.5 0.97656 11.082 1.4297 16.668 1.3594 3.9375 0 7.8555-0.14844 11.738-0.30859 3.8828-0.16016 7.8086-0.30078 11.719-0.30078 6.9609-0.64844 13.723-2.6719 19.895-5.9531l8.5117-3.8906-9.375-0.58203c-6.4492-0.36328-12.598-1.1602-17.879-1.8477z"/>
  <path d="m734.93 262.02c-0.054688 1.6016-0.11328 3.207-0.28125 4.8672l-0.27344 2.5859h1.6328c3.8555 3.4922 8.0664 6.5664 12.562 9.1758 4.8711 2.7734 9.3633 6.168 13.359 10.098 1.1445 1.2266 2.2773 2.4844 3.4297 3.75h0.003907c3.6094 4.1406 7.4648 8.0625 11.539 11.746 1.7695 1.3281 3.6523 2.5 5.625 3.4961l5.8984 3.2266-2.6172-6.1953c-10.219-24.234-24.008-48.523-48.91-45l-1.9414 0.28125z"/>
  <path d="m776.37 315.44-2.3242-2.0078c-4.2383-3.7891-8.2578-7.8164-12.047-12.055-3.1328-3.3672-6.3555-6.8438-9.8242-10.07-3.5703-3.1016-7.4688-5.8047-11.625-8.0625-1.7891-1.0508-3.5703-2.1094-5.2969-3.2344l-2.6992-1.7734-0.84375 3.1211c-0.33594 1.2461-0.71094 2.4844-1.0977 3.75l-0.86328 2.8867 1.9688 0.80469v0.003907c12.73 6.375 23.734 15.734 32.062 27.281 1.7891 2.082 3.582 4.1719 5.3984 6.2266 13.555 14.801 25.316 31.145 35.047 48.695l1.1523 2.1484 2.1016-1.2383c1.9609-1.1523 4.0391-2.1953 6.1328-3.2344l2.2695-1.1328-1.3125-2.1758-0.003906-0.003906c-2.543-3.9219-5.4414-7.6016-8.6523-10.996-4.2812-4.207-7.7578-9.1602-10.258-14.617-4.0312-9.7461-10.711-18.172-19.285-24.316z"/>
  <path d="m645.57 538.76c-0.74219 0.10938-1.4961 0.082031-2.2305-0.082031-0.90234-0.32422-1.9102-0.16406-2.6719 0.42187-0.75781 0.58984-1.1641 1.5273-1.0781 2.4844 0.003906 2.6992 0.36328 5.3867 1.0703 7.9961l0.41406 1.293 1.2266 0.41406c0.60156 0.19531 1.1914 0.39453 2.0547 0.75781l0.99219 0.30078c2.0781 0.71484 4.2539 1.1094 6.4492 1.1602h0.33594c0.26172-0.066406 0.52734-0.10937 0.79688-0.12891h2.3438v-2.3438c0-0.71094 0-1.3672-0.074219-2.1641v-0.003906c-0.44531-2.8164-1.2461-5.5664-2.3789-8.1836-0.88281-2.3789-3.9844-2.1562-7.25-1.9219z"/>
  <path d="m668.56 122.99c-1.2852 0.44922-3.6562 1.0859-6.7422 1.9219-25.789 7.0234-50.352 15.234-55.473 27.73h0.003906c-1.5156 3.6641-1.1406 7.8359 1.0039 11.176l1.6211 2.8125 2.1484-2.3984-0.003906-0.003906c3.1953-4.125 8.4258-6.1289 13.559-5.1914 1.8086 0.58203 3.75 1.2266 5.7188 1.9297l1.5078 0.54297 1.0586-1.2109v0.003907c0.27734-0.32422 0.59375-0.61719 0.9375-0.86328 15.715-9.2305 32.73-16.039 50.477-20.184l5.2773-1.5078v-0.003906c13.5-4.8242 27.789-7.0508 42.113-6.5625l3.6641 0.35547-1.2266-3.4688c-8.8867-24.945-48.656-11.023-65.645-5.0781z"/>
  <path d="m603.48 67.695c0.80469 0.52344 1.4102 1.3047 1.707 2.2148l0.24219 0.76953 0.65625 0.44922h0.003907c0.57031 0.39062 1.0781 0.86328 1.5078 1.4062 1.293 1.7812 2.6797 3.5625 4.0391 5.2969l1.2734 1.6328 1.3516-0.1875v-0.003906c1.7383-0.30078 3.5117-0.34766 5.2617-0.12891l1.1641 0.1875 0.83594-0.81641c0.38281-0.36719 0.9375-0.9375 1.6797-1.5273 6.875-6.207 14.141-13.238 13.363-18.516-0.28125-1.8281-1.5156-3.3711-3.2344-4.0508-1.2266-0.5625-2.2969-1.1328-3.2734-1.6484-4.8516-3.8242-11.859-3.1406-15.879 1.5547-2.6445 2.7852-6.3047 4.375-10.145 4.4062-1.4023-0.27344-2.7734-0.69922-4.0859-1.2656-2.418-0.9375-6.4883-2.5234-8.5859 2.0703l-1.1445 2.5391 2.6914 0.69531h-0.003906c3.7969 0.98437 7.3789 2.6523 10.574 4.9219z"/>
  <path d="m579.71 83.062c-0.30859 1.4258-0.80078 2.8047-1.4609 4.1055-0.65234 1.3672-1.2031 2.7812-1.6484 4.2305l-0.51562 1.875 1.707 0.87109h-0.003907c0.23047 0.10938 0.46484 0.20312 0.70313 0.28125 1.4648 1.0352 2.5469 2.5195 3.0859 4.2266 0.35938 1.1992 1.3633 2.0898 2.5977 2.3086 0.26953 0.046874 0.54688 0.074218 0.82422 0.074218 4.1016-0.75391 7.9336-2.5664 11.117-5.2617 0.43359-0.5 0.97656-0.89844 1.5859-1.1523l1.0508-0.44922 0.28906-1.1172c0.84766-3.0781 2.3594-5.9336 4.4336-8.3594l1.2188-1.4609-1.6953-2.1484c-1.125-1.4453-2.2891-2.9258-3.5898-4.8008l-0.26172-0.75781-0.67578-0.44141c-6.3203-3.8672-13.719-5.582-21.094-4.8867h-6.7305l5.2773 4.1797v0.003906c2.7734 1.9688 4.2305 5.3086 3.7852 8.6797z"/>
  <path d="m609.38 131.55-2.5859 6.0273 5.8203-3.0195c14.023-6.8906 28.566-12.676 43.492-17.305 3.4023-1.1523 6.8711-2.3242 10.426-3.5625h-0.003906c15.453-5.5703 31.719-8.543 48.141-8.793h6.2734l-4.7539-4.0977c-14.062-12.113-40.012-12.789-54.262-12.102-21.871 1.0117-41.512 17.031-52.547 42.852z"/>
  <path d="m610.08 104.45c0.39062 0.35547 0.82031 0.67188 1.2734 0.9375l1.875 1.5742 1.4805-1.9609 0.003907 0.003906c1.9258-2.582 4.0156-5.0391 6.25-7.3594l1.1328-1.1523-0.68359-1.4727c-0.34766-0.74219-0.62891-1.5391-0.9375-2.3242h0.003906c-0.36719-1.1133-0.80859-2.1992-1.3242-3.2539l-0.77734-1.5-2.4453 0.39453c-0.44922 0.085938-0.9375 0.16797-1.2266 0.19531 0 0-3.1211 0.11328-4.0977 1.4258h-0.003907c-1.1016 1.4766-2.0469 3.0664-2.8125 4.7422l-0.80469 1.9297 0.75781 1.1328v0.003907c0.36328 0.48828 0.66016 1.0195 0.88281 1.5859 0.066406 0.20703 0.17969 0.60938 0.30078 1.0586h-2.9062z"/>
  <path d="m854.69 1124.9c7.5977-4.8906 15.906-8.5859 24.629-10.953l6.4219-1.875-6.1875-2.5391c-7.9141-3.2422-15.891-7.1719-23.586-10.969-5.9727-2.9453-12.188-5.9805-18.281-8.6992l-1.875-0.83594-1.0586 1.7734c-0.13281 0.20703-0.30078 0.41406-0.40234 0.54297h-0.003906c-1.2188 1.2539-2.5312 2.4141-3.918 3.4766-2.8047 1.9531-5.1914 4.4453-7.0156 7.332-1.4531 3.1523-2.6094 6.4297-3.4492 9.7969l-0.47656 1.6797c-1.1641 3.8516-2.5977 7.5-4.1055 11.344-0.82422 2.0703-1.6406 4.1523-2.4297 6.2891-0.76172 2.1914-1.6641 4.3242-2.7109 6.3945l-1.5859 3.0859 3.4609 0.32031c1.2578 0.11328 2.4648 0.28125 3.6016 0.44922v-0.003906c3.0742 0.55469 6.1914 0.85156 9.3203 0.88281 7.9219 0.22266 15.48-3.3242 20.371-9.5625 2.7773-2.9922 5.8945-5.6523 9.2812-7.9297z"/>
  <path d="m785.71 1133.2-0.77734-2.0156h-0.003906c-0.79688-1.9336-1.8594-3.75-3.1484-5.3984l-1.0508-1.3789-1.6328 0.60156c-1.0703 0.39453-2.4922 0.79688-4.3125 1.3047l-2.4102 0.67578 0.83594 2.3633c2.3984 6.7969 6.3281 10.461 11.652 10.895l3.9102 0.32812-1.5664-3.6016c-0.53125-1.2344-1.0195-2.5-1.4961-3.7734z"/>
  <path d="m775.88 1036.2c4.7383-2.3086 9.6562-4.2188 14.711-5.7109 6.8438-2.1953 13.836-3.8906 20.926-5.0703 1.0312-0.16797 2.1172-0.32031 3.2344-0.47656l5.6797-0.83594-1.5469-2.9258c-0.49609-0.9375-0.9375-1.875-1.3125-2.8125s-0.75781-1.7148-1.1797-2.5586c-3.2344-6.8633-7.7617-5.2031-11.773-3.75-0.9375 0.36719-2.0547 0.75781-3.2617 1.125l-2.6992 0.80469h-0.003906c-13.148 3.0977-25.633 8.543-36.852 16.07l-0.51563 0.42188-0.21484 0.63672c-1.1172 3.3359-1.9297 7.0117 0.375 8.9609h-0.003907c0.76172 0.63672 1.7305 0.96875 2.7188 0.9375 3.2969-0.52734 6.4375-1.75 9.2266-3.582z"/>
  <path d="m764.53 1017.9 0.14844-1.0703c0.03125-0.26562 0.085937-0.53125 0.16016-0.78906l0.054687-0.16016c3.0742-10.48-6.6953-26.973-13.828-39.008-1.3398-2.2578-2.5391-4.2734-3.4492-5.9453v0.003907c-3.4883-7.2383-5.9727-14.918-7.375-22.828l-1.0781-4.7734-2.7461 1.5547c-2.1172 1.1992-4.2383 2.2891-6.4219 3.2734l-1.3867 0.61719v2.1094h-0.003906c1.668 13.676 6.1836 26.852 13.258 38.672 1.2266 2.2305 2.4648 4.6211 3.75 7.0703 3.7812 7.8164 8.2578 15.277 13.379 22.293l1.3047 1.6406z"/>
  <path d="m815.46 1098.4 5.5117-9.375-8.8867 6.2891v0.003906c-6.9688 5.3555-13.402 11.371-19.219 17.961-1.293 1.3789-2.5312 2.6914-3.7031 3.9102l-1.3203 1.3789 1.0703 1.5664-0.003907-0.003907c1.5977 2.2383 2.9297 4.6484 3.9688 7.1914 0.35547 0.89062 0.66406 1.875 0.98438 2.8125 0.65625 2.4609 1.6914 4.8008 3.0742 6.9375l2.3906-1.6211 1.7891 0.49609c0.375-0.96484 0.80859-1.9023 1.3047-2.8125 0.69922-1.3125 1.3242-2.6641 1.875-4.0508 0.81641-2.3984 1.6133-4.8359 2.418-7.2734 2.2578-6.8359 4.5938-13.902 7.2734-20.477 0.4375-1.0039 0.92969-1.9844 1.4727-2.9336z"/>
  <path d="m927.02 1137.5-0.75-0.30078-0.76953 0.22656c-3.9297 1.4609-7.3047 4.1211-9.6367 7.6016l-3.6562 4.6328 5.8398-0.86328c9.8359-1.4609 13.621-3.1016 13.969-6.0742s-3.5234-4.5938-4.9961-5.2227z"/>
  <path d="m735.39 934.27c2.1367-1.1328 4.2656-2.2578 6.4414-3.3008l1.875-0.83594-0.65625-1.9688-2.1641 0.46094 2.082-1.3047-0.36719-2.5703-2.5234 0.62891v0.003907c-6.0234 1.668-12.301 2.1914-18.516 1.5469l-1.9609-0.17969-0.61719 1.875c-2.1953 4.2656-3.9102 8.5312-1.5547 10.914h-0.003906c0.79297 0.77734 1.8672 1.1914 2.9727 1.1445 3.3281-0.5 6.5156-1.668 9.375-3.4414 1.9141-1.0117 3.7695-1.9961 5.6172-2.9727z"/>
  <path d="m912.76 1132.1c-6.332-2.8047-12.047-6.8398-16.809-11.871l-0.9375-1.0234-1.3516 0.32812 0.003906 0.003906c-16.512 4.1055-31.859 11.941-44.871 22.902l-5.4102 4.1914h6.8438l42.402-0.054687 0.003906-0.003907c7.3242-0.53125 14.172-3.8438 19.141-9.25l4.3594-3.6836z"/>
  <path d="m840.76 424.98 0.82422 1.4062h0.003907c0.28516 0.5 0.48437 1.0469 0.58984 1.6133 1.4297 6.5781 3.8477 12.898 7.1719 18.75 1.7773 3.3945 3.3711 6.8789 4.7695 10.445 1.7148 4.6875 3.1016 9.5547 4.4453 14.23 1.5195 5.2695 3.0938 10.727 5.1484 16.133 0.61719 1.6211 1.3594 3.4297 2.1641 5.3906 3.0078 6.7617 5.3945 13.781 7.125 20.973l0.72266 2.2422 2.2969-0.46875c0.39844-0.089844 0.80078-0.15625 1.207-0.19922l2.5508-0.24219-0.46094-2.5117h0.003906c-1.6445-8.1172-3.7617-16.133-6.3477-24-2.9375-8.7578-5.1953-17.727-6.7617-26.832-0.39453-2.6992-0.75-5.418-1.1055-8.1562-1.2031-14.012-4.2891-27.793-9.1758-40.977l-1.3516-3.1953-2.457 2.457c-3.75 3.75-7.1992 7.8281-10.312 11.645z"/>
  <path d="m511.03 869.48c-1.6953-0.64844-3.5156-1.3516-5.3906-2.1094l-2.1836-0.9375-0.88281 2.2031c-2.6328 6.6484-1.3203 8.5586 2.2969 11.324 1 0.75391 1.9609 1.5586 2.8789 2.4102 0.83984 0.83984 1.6211 1.7383 2.3359 2.6914 1.7773 2.7031 4.4219 4.7227 7.5 5.7266 2.7422 0.77734 5.5859 1.1562 8.4375 1.125 2.8672-0.050781 5.7344-0.27344 8.5781-0.66406 2.7969-0.38281 5.6133-0.60156 8.4375-0.65625h1.1523c4.7734 0.30078 9.5586-0.37891 14.062-1.9883 0.54297-0.36719 0.9375-0.58984 1.1641-0.72266l1.5859 0.62891 0.77734-2.3633h-0.003906c0.28125-0.76562 0.75781-1.4453 1.3789-1.9766l3.6562-3.3828-4.9414-0.65625v-0.003907c-17.277-1.7305-34.32-5.3008-50.84-10.648z"/>
  <path d="m550.47 846.71-2.4102-0.42969-0.32812 2.4297c-0.75 5.4844-1.668 10.875-2.8125 16.461l-0.52344 2.5508 2.5977 0.25391c5.8672 0.57031 11.953 1.1641 18.039 2.0547l1.9883 0.28906 0.58984-1.875c1.4609-4.7422 2.8125-9.75 4.2461-15.75l0.60156-2.5117-2.5586-0.35547c-7.1406-1.0352-13.488-2.0273-19.43-3.1172z"/>
  <path d="m719.51 914.59c0.41797 2.2891 1.9102 4.2344 4.0117 5.2344 0.97656 0.41406 2.0273 0.61719 3.0859 0.59766 5.0195-0.6875 9.8203-2.4805 14.062-5.25 1.957-1.1133 3.9844-2.1016 6.0664-2.9609 5.0234-1.7734 9.9297-3.0469 15.121-4.3984 2.2969-0.58984 4.5938-1.1914 6.8984-1.8281l3.6641-0.98438c10.867-2.8594 22.105-5.8203 23.887-21.047l0.44141-3.8438-3.6094 1.3789h0.003906c-2.3281 0.78516-4.7148 1.3867-7.1367 1.7891-1.0703 0.20703-2.0625 0.40234-2.8867 0.60156l-2.7188 0.60156c-9.5352 2.3906-19.258 3.9609-29.062 4.6875-0.52344 0.03125-1.0469-0.046874-1.5352-0.23437l-2.0898-0.68359-0.81641 2.0352v-0.003906c-0.17578 0.41406-0.39063 0.80859-0.64063 1.1836-5.3047 7.5547-14.391 8.3359-24.008 9.1484-1.4453 0.12109-2.8867 0.24219-4.3047 0.39453-15.684 1.2734-31.453 1.0312-47.09-0.72266l-13.555-1.0586 5.9062 4.7539c12.008 9.6484 30.402 8.5391 45.168 7.6797 2.4453-0.14844 4.7812-0.28125 6.9102-0.36719 1.9883 0.03125 3.7109 1.3789 4.2266 3.2969z"/>
  <path d="m547.71 913.81-2.8125-0.99219-0.30078 2.9727c-0.98047 8.7969-1.5 17.641-1.5547 26.492 0 6.5625-0.58984 12.77-1.2109 19.34-0.36719 3.8359-0.73047 7.6953-0.9375 11.617l-0.14844 2.4922h2.4922c0.46875 0.019531 0.9375-0.042969 1.3867-0.17578l1.2266-0.41406 0.30859-1.2461c9.7812-39.582 10.27-57.02 1.5508-60.086z"/>
  <path d="m583.43 851.48-2.0703-0.22656-0.46875 2.0352c-1.2656 5.5508-2.6992 10.988-4.2734 16.164l-0.75 2.4766 2.5391 0.50781-0.003906-0.003906c1.543 0.32812 3.1133 0.50781 4.6875 0.53516 5.7266 0 8.2773-3.4219 11.062-12.977 0.33594-1.125 0.62891-2.2305 0.9375-3.3477l1.0586-3.9766-3.4883-0.32031c-3.1094-0.26562-6.1758-0.53906-9.2305-0.86719z"/>
  <path d="m579.72 807.84-2.1836-0.42969c-7.5-1.5195-15.254-2.6523-22.707-3.75l-2.4297-0.35547-0.24219 2.4375c-0.49609 4.8477-0.9375 9.7227-1.4062 14.586-0.46875 4.8672-0.9375 9.957-1.4336 14.926l-0.21484 2.1484 2.1172 0.39453c6.9648 1.293 13.988 2.4375 20.867 3.3828l2.2109 0.30859 0.41406-2.1953c1.875-9.9648 3.3672-20.211 4.6875-29.25z"/>
  <path d="m655.81 858.17-2.25-0.074219c-5.3828-0.16797-11.035-0.5625-16.801-1.1719l-2.5117-0.26172-0.074219 2.5234c-0.12109 3.9844-0.23438 7.9219-0.53516 11.953v-0.003907c-0.1875 6.5742-0.81641 13.125-1.875 19.613l2.8125 0.46875v1.0703h13.359l2.4297 0.066406 0.70312-0.11328c0.67578-0.22656 1.4023-0.26953 2.0977-0.12109l2.8125 0.62891v-2.9141c0-8.3047-0.10156-18-0.22656-28.379z"/>
  <path d="m602.93 814.39-1.875-0.68359c-3.2344-1.1797-6.6367-2.2695-10.098-3.2422l-2.5703-0.72266-0.38281 2.6328c-1.2578 8.5508-2.6719 18.242-4.4141 27.648l-0.46875 2.5039 2.5312 0.25391c3.4297 0.36719 6.7578 0.65625 10.078 0.9375l2.1289 0.1875 0.38281-2.1094c0.73047-4.0117 1.3789-8.0234 2.0352-12.066 0.72266-4.4453 1.4453-8.9062 2.2773-13.406z"/>
  <path d="m559.22 604.8c8.0547 1.9727 15.59 5.6602 22.086 10.809 1.293 0.86328 2.5703 1.7266 3.8359 2.5586 3.2148 2.1172 6.5625 4.125 9.9648 6.1484v0.003906c6.0195 3.4141 11.797 7.2422 17.289 11.453 6.4102 5.4961 12.043 11.836 16.754 18.844l3.75 5.4297 0.48828-6.5625c0.32031-4.3516 0.47656-8.2305 0.47656-11.879-0.09375-3.3242-0.47656-6.6328-1.1367-9.8906-0.53125-2.6797-0.88672-5.3906-1.0586-8.1172l-0.074219-1.9609-1.9414-0.27344v0.003907c-4.1016-0.25-7.8828-2.3125-10.312-5.625-2.6094-4.25-3.4922-9.3359-2.4648-14.215l0.21484-1.0508-0.65625-0.85156c-2.8125-3.6289-5.9727-7.2109-9.0664-10.688-2.8125-3.1602-5.7266-6.4297-8.2695-9.6758-1.6953-2.1562-3.4062-4.3008-5.1367-6.4297-2.5859-3.2148-5.1836-6.4297-7.6484-9.7031-3.4141-4.6875-6.9102-9.7422-10.996-15.938l-0.63672-0.9375-1.1719-0.074218c-0.77734-0.046876-1.5469-0.19141-2.2891-0.42188l-0.375-0.12109h-0.39453v-0.003907c-1.6055 0.14063-3.2188 0.16016-4.8281 0.058594h-6.7578l5.3047 4.1914c2.9531 2.2344 5.6289 4.8125 7.9805 7.6758 0.49609 0.73828 0.66016 1.6484 0.44922 2.5117-0.25391 1.375-1.0391 2.5898-2.1836 3.3867-2.25 1.1367-5 0.34766-6.3008-1.8086-1.0859-1.3203-2.375-2.4492-3.8242-3.3477-0.70312-0.45312-1.3711-0.95312-2-1.5-2.125-2.168-4.5898-3.9688-7.3008-5.3359-2.9531-1.2617-5.7617-2.832-8.3828-4.6875l-2.6992-2.0352-4.6875 16.211 2.1094 0.73047c8.7578 3.5195 17.012 8.1797 24.543 13.867 3.75 2.5586 7.5742 5.2031 11.504 7.5664 1.0273 0.59766 1.7578 1.6055 2.0078 2.7695 0.25 1.1641 0.003907 2.3789-0.6875 3.3516-0.50781 1.0391-1.4375 1.8086-2.5586 2.1094-1.1172 0.30078-2.3086 0.10547-3.2695-0.53516-3.6758-2.1953-7.2188-4.6875-10.969-7.3398-6.9141-5.375-14.527-9.7734-22.633-13.078l-2.3711-0.84375-0.71484 2.3242c-6.8047 23.652-11.984 47.742-15.496 72.102l-0.20703 1.6133 1.4258 0.75781v0.003906c13.523 7.6758 27.953 13.629 42.957 17.719 6.2734 1.5078 13.125 2.8789 20.859 4.1719l6.7695 1.1328-6.2266-6.7422c-3.1328-3.8125-6.8672-7.082-11.062-9.6836-2.4297-1.3672-4.8945-2.9336-7.3984-4.5195h0.003907c-6.8906-5.0586-14.707-8.7188-23.008-10.77-1.2031-0.082031-2.2539-0.83594-2.7188-1.9492-0.48047-1.6914-0.074219-3.5117 1.0781-4.8398 1.0898-1.3828 2.8711-2.0234 4.5938-1.6484 5.4961 1.1094 10.723 3.2695 15.402 6.3555 2.5508 1.5859 5.2227 3.0469 7.9023 4.5 4.0117 2.0703 7.8789 4.4062 11.578 6.9922 5.8047 4.2461 11.398 9.2891 16.809 14.156 2.5859 2.3359 5.1641 4.6875 7.8359 6.9453l0.003906 0.003906c0.625 0.49609 1.0664 1.1836 1.2578 1.957l0.40234 1.5469 1.5742 0.19531c6.1797 0.76953 12.188 1.4141 18.102 2.0078l4.4531 0.46094-2.1758-3.918c-0.9375-1.6953-1.875-3.4414-2.8125-5.1953h0.003907c-3.3867-7.75-8.3398-14.715-14.551-20.457-6.3203-4.8555-12.949-9.2969-19.848-13.293-2.9727-1.8086-5.9453-3.6172-8.832-5.4766-1.3516-0.86328-2.7109-1.7891-4.0977-2.7461-6.0117-4.7422-12.973-8.1367-20.406-9.9648-1.1875-0.0625-2.2422-0.78516-2.7188-1.875-0.48828-1.6875-0.09375-3.5117 1.0469-4.8477 1.0742-1.375 2.8164-2.0547 4.5391-1.7695z"/>
  <path d="m799.06 387.86c-2.0703 1.4141-4.3125 2.5625-6.6758 3.4102l-1.2656 0.40234-0.87109 3.75c-0.12109 0.9375-0.24219 1.875-0.30078 2.7383-0.066406 0.40234-0.16797 0.79297-0.30859 1.1719l-0.1875 0.5625 0.10156 0.58203h0.003907c0.41016 1.8984 0.074218 3.8828-0.9375 5.543-0.21875 0.30469-0.5625 0.49219-0.9375 0.50391l-2.3633 0.054687-0.69531 0.79688c-0.41406 0.44922-0.85156 0.9375-1.3125 1.3789-1.9297 1.6484-3.3594 3.8047-4.125 6.2266-0.17188 4.2266 1.2422 8.3672 3.9648 11.605l0.65625 1.0312c0.60156 1.0195 1.6797 1.6562 2.8594 1.6875h0.074219c2.5391 0 4.6133-2.6992 6.8633-5.9609l0.52344-0.75781 0.003906-0.003906c2.0742-1.875 4.3672-3.4922 6.832-4.8164 1.0234-0.60938 2.043-1.2188 3-1.875 5.7578-3.6758 11.445-7.3516 17.062-11.137 0.85156-0.64453 1.9375-0.88281 2.9766-0.65625 1.043 0.23047 1.9297 0.89844 2.4336 1.8359 0.76562 1.0273 1.0742 2.3242 0.85938 3.5859-0.21484 1.2617-0.94141 2.3828-2.0039 3.0977-2.4375 1.6211-4.9961 3.168-7.5859 4.7344h0.003906c-7.3633 3.9297-14.059 8.9922-19.848 15l-1.0234 1.1719 0.69531 1.3984c0.30859 0.61719 0.48828 1.2969 0.52344 1.9883 0.17969 3.168 0.47656 6.3281 0.77734 9.4961l4.6875-0.20703c0.054688-0.68359 1.125-2.3633 5.8594-6.5078l0.9375-0.82422h0.003906c2.2734-1.957 4.7188-3.707 7.3008-5.2305 4.3164-2.4062 8.1367-5.6133 11.25-9.4492 2.2812-2.8086 4.7461-5.4609 7.3789-7.9414 2.0703-2.0547 4.1445-4.1172 6.0859-6.375 0.9375-1.1445 1.875-2.1016 2.7383-2.9531 4.1523-4.2578 6.2266-7.2852 0.10156-13.527-0.48828-0.46875-0.85938-1.043-1.0898-1.6797l0.085937-0.16016-0.42188-0.40234c-0.26562-0.5-0.55859-0.98438-0.88281-1.4531-0.16797-0.24219-0.33594-0.48828-0.48828-0.75l-1.3047-2.2422-2.1016 1.5273 0.003906 0.003906c-2.6211 1.6875-5.457 3.0156-8.4375 3.9453-2.0586 0.78516-4.0547 1.7227-5.9688 2.8125-1.2578 0.67578-2.5117 1.3516-3.75 1.875-3.0781 1.2969-6.043 2.8438-8.8594 4.6328-1.0469 0.83203-2.4727 0.99219-3.6758 0.41016-1.5547-0.87891-2.5547-2.4883-2.6523-4.2734-0.097656-1.582 0.69922-3.082 2.0625-3.8906 2.3438-1.4531 4.8086-2.707 7.3672-3.75 2.7969-1.1484 5.4922-2.5273 8.0625-4.125 1.1758-0.58203 2.3945-1.082 3.6367-1.5 4.6875-1.7422 7.2852-2.8125 7.7148-5.6992v-0.86328l-0.55469-0.65625c-1.332-1.5742-2.7266-3.0391-4.1172-4.4922l-1.1328-1.1797-1.5078 0.66406c-8.9844 4.1758-17.664 8.9844-25.969 14.391z"/>
  <path d="m855.38 541.45-3.1602 3.3555 4.5742 0.58203c0.55469 0.066407 0.9375 0 1.875 0.074219h0.003906c3.6836-0.15234 7.3711 0.12891 10.988 0.84375 4.8945 1.5781 9.2539 4.5039 12.57 8.4375 2.3398 2.4023 4.9102 4.5703 7.6797 6.4688 1.2656 0.875 2.3086 2.043 3.0352 3.4023 0.33594 0.53516 0.69531 1.0781 1.0977 1.6484l0.55469 0.78906 1.875 0.32031c0.58203 0.09375 1.0977 0.1875 1.5859 0.28906l3.75 0.85156-0.9375-3.75c-0.46094-1.8086-0.9375-3.6172-1.3867-5.5781h-0.003906c-0.75-2.7656-1.2969-5.5859-1.6328-8.4375-1.1641-8.1953-2.3633-16.668-14.617-19.473l0.003906 0.003907c-0.65234-0.14063-1.2617-0.42188-1.793-0.82813l-0.57031-0.42969h-0.71094c-4.9531 0.14844-9.7969 1.4883-14.121 3.9102-3.9805 1.8359-7.5938 4.3828-10.66 7.5195z"/>
  <path d="m671.97 282.7-3.582 1.1797 2.6328 2.6797c1.2734 1.3047 2.6172 2.5703 3.9648 3.8359 1.5859 1.4805 3.168 2.9727 4.6875 4.5273l2.418 2.5859 1.4336-3.2422c2.8867-6.5625 4.9883-11.645 6.7891-16.445l2.6797-7.1172-6.2266 4.3789 0.003907 0.003906c-4.5312 3.25-9.5195 5.8164-14.801 7.6133z"/>
  <path d="m643.31 286.2 1.4453 3.1602 2.3906-2.5312c2.0078-2.1172 4.0039-4.2383 6.0078-6.3008l1.8086-1.875-2.0352-1.6133c-6.0742-5.1992-11.566-11.047-16.375-17.438l-0.69531-0.86328-2.1562 0.046875-1.875 1.7617 0.67578 1.5391c3.5234 8.0625 7.1445 16.117 10.809 24.113z"/>
  <path d="m676.73 309.26 0.58984-1.2852-2.3164-3.0938c-4.0586-5.3047-8.2422-10.789-12.844-15.777-0.20703-0.30078-0.44922-0.57812-0.72266-0.82422l-1.6953-1.6484-1.6328 1.707c-2.7383 2.8125-5.4102 5.7656-8.1484 8.8047l-1.0391 1.1445 0.64844 1.3984c4.1172 9.0195 8.9531 19.688 13.566 30.797l2.1953 5.2578 2.1484-5.2773c2.8359-7.0938 5.9844-14.078 9.25-21.203z"/>
  <path d="m621.61 326.04-1.1055 0.9375 2.1836 8.0352c3.2969 10.57 5.5781 21.43 6.8164 32.438 0.32031 4.5547 0.47656 9.1953 0.64844 13.875 0.23438 6.75 0.48828 13.742 1.1914 20.57l0.89062 8.6055 3.5703-7.8828v-0.003906c4.1953-9.332 8.9297-18.41 14.184-27.188 4.6875-7.9258 8.3047-16.438 10.762-25.312l0.23438-0.76953-0.27344-0.74219c-4.4336-11.887-9.7695-24.617-16.801-40.07l-1.4531-3.1953-2.3984 2.5586c-4.8828 5.2344-11.391 11.984-18.449 18.145z"/>
  <path d="m663.35 450.94-2.4648 3.6641c-2.9727 4.4258-3.6641 6.3672-2.8125 7.9961l1.0117 1.4453h0.66406c1.1719 0.95312 2.5977 1.5391 4.0977 1.6992 0.67578 0.003906 1.3359-0.21484 1.875-0.62109 2.1367-1.5938 1.3125-4.8555 0-8.3242-0.1875-0.41406-0.34766-0.81641-0.49609-1.2109z"/>
  <path d="m781.35 394.41c0.17969-1.4375 0.49609-2.8555 0.9375-4.2344l0.32813-0.375-0.10156-1.6602h-0.003906c-4.3789-10.246-10.656-19.57-18.504-27.48-2.1289-2.4648-4.1641-4.8203-5.9141-7.0117-2.3711-2.9336-4.9023-6.4297-7.6016-10.152h-0.003907c-7.4062-11.867-17.008-22.219-28.285-30.496l-2.2305-1.3047-1.0859 2.3438c-3.0195 6.5625-5.9141 12.797-8.5312 18.656l-0.57031 1.3047 0.9375 1.1172c3.3945 4.2383 6.6562 8.5586 9.8906 12.863l8.9727 11.859-3.0547-11.531-0.007812-0.003906c-0.28906-1.0352-0.52734-2.0859-0.71094-3.1484-0.27734-1.7695 0.44141-3.5469 1.875-4.6211 1.3633-1.1328 3.1992-1.5039 4.8945-0.99609 1.0391 0.48047 1.7109 1.5156 1.7227 2.6641 1.0781 5.7266 2.7383 11.332 4.9531 16.723 1.0508 2.8125 2.0703 5.625 2.8672 8.2109v0.003906c1.7891 6.2773 2.9453 12.719 3.4609 19.227 0.9375 10.18 12.602 12 23.438 12 3.4297 0 6.7695-0.17969 9.6367-0.33594l1.7266-0.49609z"/>
  <path d="m625.97 446.14c-1.9336 4.3008-4.3828 8.3477-7.293 12.059-1.875 2.5234-3.6484 5.0352-5.3359 7.5l-2.457 3.6016 4.3594 0.066406v-0.003906c6.9141 0.34375 13.645 2.3555 19.613 5.8594 2.3828 1.1289 4.9883 1.707 7.6211 1.6875 2.8672-0.074219 5.7109-0.55859 8.4375-1.4336l5.418-1.5859-4.9609-2.7188c-1.6133-0.88281-6.5625-3.582-0.20703-16.238l1.3047-2.5977-2.8125-0.72266 0.003906 0.003906c-3.9961-1.0938-7.9258-2.4062-11.777-3.9375l-2.0234-0.76953c-2.3594-0.875-4.7773-1.5781-7.2383-2.1016l-1.875-0.44141z"/>
  <path d="m701.77 539.3c0.074218 0.61719 0.09375 1.2383 0.12109 1.875l0.16016 3.1016 2.0352 0.16016c17.465 1.4336 34.367 1.7266 54.375 1.7266 1.2305 0.023437 2.332-0.75391 2.7188-1.9219 1.293-3.5547-4.3125-13.5-8.082-16.668-1.5078-1.7188-3.9883-2.1953-6.0273-1.1641-4.5469 2.4336-9.5859 3.8047-14.738 4.0156-9.9922 0.44531-20.004 0.19531-29.961-0.74219l-4.1445-0.39453 1.8086 3.75c0.97656 1.957 1.5664 4.082 1.7344 6.2617z"/>
  <path d="m714.66 515.11c1.6875-0.14062 30-3.75 31.82-4.1914l0.26172-0.085938c0.99219-0.375 4.0234-1.5195 3.75-4.1641-0.27344-2.4453-2.6055-4.0039-14.633-5.7383l-0.52344-0.074219-0.50781 0.16016c-20.711 6.4609-35.625 7.0234-45.57 1.707l-0.003906 0.003906c-2.3242-1.2227-4.5742-2.5781-6.7422-4.0625l-3.2344-2.2227-0.42188 3.8984v0.003906c-0.39062 2.5234-2.5469 4.3945-5.0977 4.4336-0.85156 0.0625-1.6914-0.22266-2.332-0.78906-0.63672-0.56641-1.0234-1.3672-1.0625-2.2188-0.30078-4.5977-0.32422-9.2109-0.066406-13.809l0.11328-5.3438-0.16797-0.42188c-1.5742-4.1328-4.5273-3-9.4766-1.1172-2.4648 0.9375-4.5938 1.9688-6.5625 2.9062h-0.003907c-4.7969 3.125-10.707 4.0469-16.227 2.5234-1.5547-0.42187-4.0391-1.3789-6.957-2.4922-13.883-5.2891-23.973-8.6719-27.477-3.9766l-1.6328 2.1953 2.418 1.2734c4.5938 2.418 9.1875 4.8945 13.773 7.5 11.18 6.8672 24.102 10.371 37.219 10.094 1.1328-0.023437 2.2266 0.42188 3.0195 1.2305 0.79688 0.80469 1.2227 1.9062 1.1797 3.0352v1.0859l0.84375 0.68359v0.003906c4.2461 3.3281 9.1602 5.6914 14.41 6.9297l0.60938 0.12109c2.625 0.48828 5.2422 0.9375 8.0625 1.5664 3.8047 0.42969 7.6289 0.64063 11.457 0.625 6.6055-0.050781 13.203-0.47656 19.762-1.2734z"/>
  <path d="m696.85 342.66c0.63672-1.8086 1.3398-3.6172 2.043-5.4297l0.48828-1.2578-5.8398-7.3789c-2.6914-3.4141-5.3906-6.8438-8.1367-10.238l-2.4648-3.0664-1.5195 3.6289v0.003907c-3.1484 7.2539-5.7383 14.738-7.7422 22.387-4.3164 14.715-10.293 28.887-17.812 42.246-1.0039 1.9297-2.8125 4.6875-4.8086 7.9141-6.0273 9.4766-13.52 21.262-12.59 28.258l-0.003906-0.003906c0.0625 0.63281-0.015625 1.2734-0.23438 1.875-1.4844 3.7773-3.332 7.4023-5.5117 10.828l-2.6641 4.5273 2.8125 0.87109c6.082 2.1641 12.441 3.4531 18.883 3.8281 1.9141 0.011718 3.8242-0.21094 5.6797-0.66797l1.8086-0.46875v-1.875h0.003907c0.03125-2.1602 0.86328-4.2344 2.332-5.8203l0.50781-0.88281c0.47266-1.1758 1.2891-2.1836 2.3438-2.8867l0.68359-0.46875 0.24219-0.80469c6.1875-20.758 14.523-41.867 22.574-62.289 3.0117-7.6484 6.0312-15.242 8.9258-22.828z"/>
  <path d="m623.59 551.8 1.7266 2.2773 1.875-2.1367c0.55859-0.65625 1.3164-1.1016 2.1562-1.2773l2.2109-0.46094-0.375-2.2227v0.003906c-1.4062-5.1484-0.37109-10.656 2.8125-14.934l1.875-2.1758-2.5117-1.3984c-3-1.6875-6-3.1016-9.3203-4.6875h0.003906c-5.0664-3.1016-11.672-1.7617-15.125 3.0742l-1.5195 1.5195 4.1328 5.8203c3.9961 5.6367 7.9336 11.195 12.059 16.598z"/>
  <path d="m599.57 491.45-1.7539-0.9375-1.2266 1.5742-0.003906 0.003907c-0.26172 0.30078-0.57813 0.55469-0.9375 0.73828l-2.8672 1.7344 2.6172 2.1016c2.125 1.6289 3.9375 3.6289 5.3516 5.9062 0.23828 0.41016 0.40234 0.85547 0.48828 1.3203l0.22656 1.1914 1.0859 0.50781c9.957 4.3516 20.734 6.5078 31.602 6.3164l18.188 0.19531-17.551-4.8086c-12.324-3.8672-24.148-9.1836-35.219-15.844z"/>
  <path d="m627.19 222.4c-0.88281 1.7188-1.6172 3.5117-2.1953 5.3555l-0.23438 0.84375 0.375 0.79688c4.4336 8.0352 9.8984 15.457 16.258 22.078l2.4844 2.8125c1.1719 1.3516 2.2891 2.6641 3.3672 3.9375 4.9805 6.6875 11.258 12.305 18.457 16.516l0.83594 0.44922 0.9375-0.25391v0.003906c4.8633-1.3711 9.4219-3.6641 13.426-6.75l6.8242-5.6914-4.0234-1.2852c-28.031-8.9258-39.375-31.715-48.629-54.301l-0.58203-1.875-4.4531 0.9375-0.22656 1.5547 0.003906 0.003906c-0.19922 1.3438-0.30469 2.6992-0.32031 4.0586v1.4336c0.082031 1.3828 0.015624 2.7695-0.19531 4.1367-0.51172 1.8164-1.2188 3.5742-2.1094 5.2383z"/>
  <path d="m696.05 482.81c-0.72266-0.47656-1.4727-0.9375-2.2305-1.4141-2.9258-1.5781-5.5391-3.6797-7.6992-6.207-0.62891-0.76953-1.1641-1.5273-2.043-2.8125l-3.6562-5.1641-0.89062 9.6172c-0.16797 1.9219-0.33594 3.75-0.52344 5.625l-0.046875 0.46875 0.14062 0.44922c1.0703 4.3008 3.6602 8.0742 7.293 10.617 3.6289 2.543 8.0586 3.6875 12.469 3.2188 7.3438-0.375 14.617-1.6055 21.676-3.6719l5.625-1.3789 0.17969-1.6406h-0.003906c0.78516-10.652 0.60937-21.352-0.52344-31.969-0.23438-3.0742-0.46094-6.1328-0.64844-9.168l-0.14062-2.2422h-2.2422c-4.5273 0.074219-8.7188 0.21484-12.723 0.34766h0.003906c-8.5352 0.44531-17.086 0.44531-25.621 0l-4.3047-0.47656 0.25391 2.8867c0.11328 1.293 0.23438 2.5859 0.23438 3.9375v0.85156l0.48828 0.62891c5.2969 7.5625 11.793 14.211 19.227 19.688 1.0547 0.72266 1.7656 1.8438 1.9727 3.1016 0.20703 1.2617-0.10938 2.5508-0.875 3.5742-0.51172 0.92578-1.3984 1.582-2.4336 1.8008-1.0391 0.21875-2.1172-0.027344-2.957-0.66797z"/>
  <path d="m733.59 380.96-0.39453-0.55469c-7.7344-10.547-16.078-21.664-24.816-33.047l-2.625-3.4141-1.4453 4.0586c-3.75 10.473-7.9297 21.168-12.008 31.508-6.6172 16.789-13.461 34.164-18.602 51.562l-0.36719 1.2461 1.3672 1.5469c0.375 0.42969 0.75 0.86328 1.1445 1.2656l0.003906 0.007813c2.6875 2.5859 6.3516 3.8984 10.07 3.6094 1.3789 0 2.7656-0.09375 4.1055-0.1875 1.0391-0.066406 2.0625-0.14062 3.0742-0.16016 7.2188-0.17969 14.645-0.16797 22.098-0.13281l9.6758 0.003907 0.13281-2.2031c0.59375-6.4297 1.7383-12.797 3.4219-19.031 2.3359-8.2422 3.5977-16.75 3.75-25.312-0.023438-1.0391 0.35156-2.043 1.0469-2.8125l0.52344-0.62891v-0.80469c0.054688-1.875 0-3.8828-0.13281-5.793z"/>
  <path d="m734.91 472.38 2.8789-0.9375c0.22656-0.089844 0.46094-0.16016 0.70312-0.20703l1.8008-0.30078 0.14844-1.8086c0.51172-2.7695 1.5352-5.4141 3.0195-7.8086 1.4961-2.5312 2.6016-5.2695 3.2812-8.1289 0.375-2.082 0.65625-4.3398 0.9375-6.6836 0.23438-5.7695 1.6641-11.426 4.1992-16.613 4.1523-6.2773 6.3164-13.66 6.207-21.188v-1.875l-1.8008-0.42188c-4.3086-1.1875-8.3984-3.0625-12.113-5.5508l-3.168-2.0234-0.41406 3.75c-0.68359 6.2344-1.875 12.543-3.1133 18.637h0.003906c-2.2812 9.7305-3.5391 19.672-3.75 29.664 0.046876 5.3438 0.42188 10.762 0.78906 16.012z"/>
  <path d="m718.96 284.21c2.9258-6.7031 4.8438-13.805 5.6875-21.074l0.46875-4.0117-3.75 1.5938-1.293 0.55469c-3.6562 1.7539-7.457 3.1875-11.363 4.2812l-4.0586 1.2734-1.3789 0.25391-0.42969 1.3398v0.003906c-4.1094 12.008-8.9766 23.738-14.578 35.129l-1.0117 2.1758 0.75781 1.1055c3.8633 5.625 8.2773 10.883 12.555 15.938l2.5586 3.0547 1.4258-3.75c4.668-12.227 9.293-24.414 13.875-36.562z"/>
  <path d="m707.97 750.2h-2.4648c-4.9219-0.066406-9.9922-0.12109-15.188-0.23437l-2.3984-0.054688v27.73l2.2227 0.12109c5.3984 0.30859 10.754 0.48828 16.105 0.60156l2.5586 0.054687-0.17969-2.5508v0.003907c-0.59766-7.7148-0.69531-15.461-0.29297-23.188z"/>
  <path d="m687.92 712.5v28.434l3.4414 0.066406c5.6992 0.11328 11.25 0.22656 16.508 0.28125h1.4727l0.65625-1.3203c0.15234-0.26563 0.33203-0.50781 0.53516-0.73438l1.0703-1.3125-0.9375-1.4336c-6.5625-10.312-12.488-21.281-17.398-30.637l-0.71094-1.3594-1.5391 0.11328c-0.89062 0.054688-1.7266 0.13281-2.5508 0.25391l-3.3477 0.52344 1.6602 2.9531h-0.003906c0.75781 1.2617 1.1523 2.7031 1.1445 4.1719z"/>
  <path d="m651.68 708.36-0.10156-2.1953-5.1094-0.12109c-2.0234-0.046874-4.0586-0.10156-6.0547-0.10156h-2.1172l-0.21484 2.1094c-0.98438 9.7891-1.707 19.613-2.1953 30l-0.125 2.5781h2.5039c3.9375-0.066406 7.7344 0 12.086-0.066406h2.418l-0.074219-2.4102c-0.48047-14.875-0.83594-25.715-1.0156-29.793z"/>
  <path d="m789.98 381.29 4.5742-0.88281s0-0.1875 0.30078-0.39453l0.55469-0.41406-0.003906 0.003906c0.30859-0.19531 0.60156-0.41016 0.88281-0.64453l1.4336-1.2266-0.84375-1.6602c-8.7891-15.34-19.051-29.785-30.648-43.125-1.6016-1.9609-3.2344-4.0391-4.9023-6.1602-8.1602-12.477-19.348-22.684-32.52-29.664l-2.2422-0.9375-0.84375 2.2695c-0.39453 1.0781-0.84375 2.1484-1.293 3.168l-0.89062 1.9961 1.9297 1.0234c9.2305 6.2852 17.191 14.25 23.465 23.484l2.9609 3.75c4.6016 5.7578 9.0859 11.539 13.566 17.324 3.4414 4.4453 6.8711 8.8789 10.379 13.312 1.5039 1.8164 3.0938 3.5508 4.7734 5.2031 2.4531 2.2812 4.6133 4.8594 6.4297 7.668 1.1562 1.8789 2.1367 3.8555 2.9375 5.9062z"/>
  <path d="m856.36 576.94 0.48828 0.40234c0.21484 0.17969 0.44141 0.39453 0.73047 0.67578l1.1914 1.1797 1.5-0.75 0.62891-0.44141v0.003906c0.72656-0.51562 1.5078-0.94922 2.332-1.2852l1.8203-1.2461-1.1992-3.6953c-0.5625-1.6602-1.0156-3.3594-1.3516-5.082-0.32812-0.85156-0.65625-1.6406-0.9375-2.1641l-0.60938-1.2188-1.3672-0.066406c-0.72266-0.046875-1.4102-0.30859-1.9805-0.75l-1.7422-1.3125-1.4336 1.6602c-1.9492 1.8555-2.4141 4.7812-1.1445 7.1523 1.0586 2.0508 1.9961 4.1602 2.8125 6.3203z"/>
  <path d="m712.36 844.55c-0.13281-3.4766-0.054687-6.9648 0-10.453 0.054687-2.8867 0.11328-5.7734 0.066406-8.6641l-0.046875-2.4375-2.4375 0.14062c-6.0273 0.35547-11.109 0.65625-17.016 0.9375l-2.2227 0.11328v22.371h2.6641l0.58984 2.1016c0.80078-0.15625 1.6055-0.26562 2.418-0.33984l2.1367-0.27344v0.003907c3.8242-0.63672 7.6914-0.98047 11.57-1.0312l2.418-0.09375z"/>
  <path d="m653.11 751.66-0.085937-2.2578h-2.2578c-4.3867 0-8.7734 0-13.125 0.054687h-2.2422l-0.074219 2.2305c-0.23438 7.1055-0.41406 14.223-0.53516 21.273v2.3516h2.3633c4.7734 0.054688 9.543 0.17969 14.195 0.35547l2.5117 0.09375-0.34766-11.645c-0.14844-4.2656-0.26953-8.4922-0.40234-12.457z"/>
  <path d="m687.98 813.37v2.5039l8.2773-0.54297c4.1445-0.27344 8.2891-0.54297 12.461-0.87109l2.1836-0.16016v-2.1836c-0.066406-7.7344-0.62891-15.395-1.1992-22.586l-0.16797-2.1562h-2.1641c-5.625 0-11.25-0.12109-17.016-0.30078l-2.4375-0.074218v2.4375c0.0625 7.9766 0.0625 15.879 0.0625 23.934z"/>
  <path d="m696.16 894.8c4.7617 0 9.0664-0.1875 13.246-0.5625l1.9688-0.1875 0.14844-1.9688c0.9375-11.906 0.79687-23.598 0.60156-32.465l-0.054688-2.4375-2.4375 0.14844c-6.1211 0.38281-12.477 0.63672-19.406 0.76953h-2.3047v36.516l2.2773 0.066406c2.0781 0.09375 4.0586 0.12109 5.9609 0.12109z"/>
  <path d="m634.69 784.29-0.28125 24.871c-0.054688 1.9766-0.054688 3.9453-0.054688 5.9258v2.3438h2.3438c5.3906 0 10.68-0.12109 15.938-0.23438l2.3438-0.054687-0.82422-31.602-2.1562-0.11328c-6.5625-0.35547-11.727-0.71094-14.793-0.9375z"/>
  <path d="m586.21 478.59 7.0781-4.4453c8.8555-6.8359 16.094-15.547 21.188-25.508l-1.9688-1.2578 1.9883 1.2266c0.41406-0.66406 0.75-1.3398 1.3398-2.5391l1.5469-3.0742-6.0195-0.54297c-3.6641-0.32812-7.3672-0.64844-11.07-1.1719l-2.3711-0.33594-0.27344 2.3828v-0.003906c-1.0781 9.6094-3.6758 18.992-7.6992 27.785z"/>
  <path d="m582.13 397.7c-5.3203-1.3672-10.898-1.4141-16.238-0.12891-1.3203 0.1875-2.5391 0.36719-3.5352 0.46875-2.6719 0.26172-6.9297 0.40234-12.656 0.40234h-1.875l-0.42188 1.8203c-0.97266 4.6406-1.6602 9.3359-2.0547 14.062l-0.13281 1.2734 0.99219 0.79688c0.48828 0.40234 0.9375 0.82422 1.4531 1.2578h0.003907c1.1016 1.0273 2.2852 1.9688 3.5352 2.8125 3.8086 2.1797 7.8203 3.9844 11.98 5.3906 0.71094 0.27344 1.3477 0.69922 1.875 1.2461l0.86328 0.85156 1.1914-0.20703c6.3008-0.88672 12.711-0.6875 18.945 0.59375l2.7461 0.47656-0.054688-7.1055c0-6.0391 0-13.613-0.066406-21.562v-3.2266l-3.0664 1.0234c-1.1484 0.37891-2.3984 0.28906-3.4844-0.24609z"/>
  <path d="m597.76 342.14-2.1836 1.5391 1.3984 2.2227c0 10.117 0.48828 20.82 1.0039 32.164 0.75781 16.742 1.5469 34.07 0.77734 50.625l-0.10156 1.9883 1.9492 0.41406v-0.003906c4.3867 0.98828 8.8359 1.6719 13.32 2.043 1.7969 0.18359 3.5859 0.46875 5.3516 0.84375l1.5664 0.34766 2.0742-3.0742c1.2852-1.875 2.5234-3.75 3.6641-5.625l0.72266-1.2109-0.73047-1.1992c-0.29297-0.44531-0.50781-0.9375-0.64062-1.4531-3.9883-15.957-6.5547-32.242-7.668-48.656-0.9375-9.7773-1.9492-19.902-3.5156-29.465-0.36719-2.0078-0.77734-4.0117-1.2109-6.0664l-0.86328-4.2109-2.9062 1.9492 0.003906 0.003906c-3.8398 2.5508-7.8516 4.832-12.012 6.8242z"/>
  <path d="m631.88 612.85 1.668 0.20703 0.72266-1.5195c2.3398-3.8203 5.4375-7.1172 9.1016-9.6914 4.1523-3.0703 9.2109-4.6641 14.375-4.5273l1.9766-0.074218 0.25391-1.9688v-0.003906c0.070313-0.38672 0.17188-0.76953 0.30078-1.1406l0.16797-0.66406-0.21484-0.64844c-0.21094-0.60547-0.57031-1.1445-1.043-1.5781-0.32031-0.33203-0.66406-0.64453-1.0195-0.9375l-0.62891-0.46875h-0.10156l-0.53516-0.35547-2.2969-1.1992-1.1445 0.80469c-0.6875 0.52344-1.5391 0.79297-2.4023 0.76172-8.0312 0.74609-15.727 3.5938-22.312 8.2578-3.1094 2.4336-4.3477 6.5703-3.082 10.312 0.92188 2.6445 3.4141 4.4219 6.2148 4.4336z"/>
  <path d="m609.43 227.75-7.1328 4.9688c-2.7266 1.9141-5.582 3.6328-8.5508 5.1484l-3.5352 1.875 1.6953 2.1836c13.125 16.875 19.434 45 24.477 67.5l1.6602 7.3789 3-2.8672c4.9766-4.7812 10.145-10.031 16.227-16.539l1.0117-1.2734-0.64844-1.4258c-9.5547-20.793-19.434-42.281-27.188-64.133z"/>
  <path d="m575.81 532 0.9375 1.7344c0.44141 0.83594 0.82812 1.6992 1.1641 2.5859l0.30859 0.60156c1.6211 2.2305 3.3203 4.3398 4.7812 6.1797 0.79688 0.98438 1.5195 1.875 2.1367 2.6992 2.5117 3.207 4.8672 6.5625 7.2188 9.8438 2.2422 3.1484 4.4805 6.3086 6.8633 9.375 3.75 4.6875 7.668 9.375 11.605 13.93 3.3008 3.8633 6.5625 7.7148 9.7578 11.633l1.3984 1.7344 1.8008-1.3125c1.9219-1.3594 3.9922-2.5039 6.168-3.4023 2.25-1.0117 4.5664-2.0703 6.8828-3.1484l3.3008-1.5273-2.7578-2.3711c-1.6602-1.4336-3.3359-2.8125-4.9961-4.2461l-3.9648-3.3672h-0.003907c-2.4922-2.5078-4.6797-5.3047-6.5156-8.3281-1.2852-1.875-2.5586-3.8242-3.8438-5.4375-4.4609-5.625-8.7383-11.766-12.871-17.664-5.1016-7.2734-10.367-14.793-16.145-21.723l-0.84375-1.0117-1.3047 0.19531 0.003906 0.003907c-2.0742 0.34375-4.1914 0.34375-6.2617 0l-1.3398-0.25391-0.88281 1.0391v0.003906c-0.63281 0.77734-1.418 1.4141-2.3086 1.875h-1.9688v1.8008l-0.054687 0.09375c-0.11328 0.17969-0.23828 0.35156-0.375 0.51563l-0.79688 0.94531 0.77734 2.3438c0.57422 1.6133 1.2852 3.1719 2.1289 4.6602z"/>
  <path d="m528.87 480 3.8711-5.7109-6.5625 2.1641v0.003906c-8.3125 3.5625-15.312 9.6172-20.031 17.332-0.63672 0.97656-1.1914 2-1.6602 3.0664l-0.25391 0.58203 0.074219 0.62891c0.070312 0.61328-0.042969 1.2344-0.31641 1.7891l-0.28125 0.58984 0.066406 0.64844c0.39453 3.9453 4.0234 5.625 7.5 7.1797 1.1328 0.52344 2.3516 1.0703 3.6484 1.7812 0.72266 0.35547 1.3594 0.73047 2.1094 1.1719l2.6641 1.5391 0.78906-2.9727h-0.007812c0.28125-1.1836 0.72266-2.3242 1.3047-3.3945l0.73047-1.2852-0.84375-1.2109v0.003906c-0.67578-0.99609-0.91797-2.2227-0.67578-3.4023 1.2109-7.2969 3.8906-14.273 7.875-20.504z"/>
  <path d="m623.83 843.9-14.551-4.9688c-7.4453-2.5391-10.641 9.2266-3.2422 11.746l14.551 4.9766c7.4336 2.543 10.629-9.2227 3.2422-11.754z"/>
 </g>
</svg>
