<?xml version="1.0" encoding="UTF-8"?>
<svg width="1200pt" height="1200pt" version="1.1" viewBox="0 0 1200 1200" xmlns="http://www.w3.org/2000/svg">
 <g fill="#000">
  <path d="m548.88 214.41 226.45-30.898 192.04 60.168-184.18 73.824-128.06-27.539-196.68 12.898z"/>
  <path d="m442.6 715.16 243.17 14.258 63.828 287.06h-396.55z"/>
  <path d="m691.78 713.03-253.05-14.82-209.28-108.39 161.86-105.17 260.16 49.883 140.77 84.77 64.887 53.461z"/>
  <path d="m662.86 521.9v-213.19l113.03 24.301 12.133 264.25z"/>
  <path d="m442.87 320.62 203.29-13.32v209.21l-246.04-47.184z"/>
  <path d="m217.7 602.53 208.79 108.16-90.875 305.8h-256.09z"/>
  <path d="m766.7 1016.5-64.234-288.85 166.16-40.5 57.973 329.35z"/>
  <path d="m943.55 1016.5-60.012-341.02-8.2305 1.4375 5.3281-6.4414-75.387-62.102-12.707-276.61 193.23-77.461 134.71 762.19z"/>
 </g>
</svg>
