<?xml version="1.0" encoding="UTF-8"?>
<svg width="1200pt" height="1200pt" version="1.1" viewBox="0 0 1200 1200" xmlns="http://www.w3.org/2000/svg">
 <g fill="#fff">
  <path d="m670.65 726.33-1.1328 0.32031c-2.6641 0.75-5.832 1.6016-9.1211 2.2891l-0.82422 0.17969-0.32031 2.6055v-0.003906c-0.91406 5.9766-1.375 12.012-1.3789 18.055v1.1523l1.1914 0.003907c4.5273-0.054688 8.5391 0 12.188 0h1.1641v-1.1562c0.60547-7.4883 0.09375-15.027-1.5195-22.367z"/>
  <path d="m673.66 707.51h-1.9414c-0.10938-0.027344-0.22656-0.027344-0.33594 0-6.0078 0.56641-11.906 1.9453-17.543 4.0977-4.6836 1.6445-9.4805 2.957-14.352 3.9297l-7.5 1.2852 7.5664 1.0312v-0.003907c1.4531 0.19531 2.918 0.28906 4.3867 0.28125 7.5898-0.37109 15.098-1.7891 22.301-4.207 0.63672-0.15234 1.2891-0.24219 1.9414-0.27344h0.33594l0.27344-0.19531c0.60547-0.47656 1.3359-0.77344 2.1016-0.85547l0.84375-0.09375 0.17969-0.84375h-0.003907c0.17188-0.85156 0.46484-1.6797 0.86328-2.4531z"/>
  <path d="m685.5 690.84c-0.9375-1.6406-1.875-3.2812-2.8594-4.9219l-0.28125-0.48828-0.55469-0.085938v0.003906c-0.61719-0.097656-1.2188-0.27344-1.7891-0.52734-1.875-0.87109-4.8359-2.5586-8.2969-4.5195-15-8.4844-37.574-21.301-47.258-14.852l-1.4258 0.9375 1.4062 0.9375c4.9492 3.4414 9.8359 7.1719 14.57 10.789l-0.003907 0.003906c10.059 8.2148 20.918 15.391 32.422 21.414 0.33203 0.074219 0.67187 0.10938 1.0117 0.10156h2.457l-0.9375-1.7422c-3.0234-4.9648-6.7227-9.4805-11-13.418l-1.8008-1.707c-1.7734-1.6875-3.6016-3.4023-4.4336-4.4336 2.9023 0.72656 5.6719 1.9141 8.1953 3.5156 7.0547 4.0977 12.754 10.168 16.398 17.469l0.54297 1.1445 1.0977-0.61719v-0.003906c1.6055-0.875 3.2617-1.6602 4.957-2.3516l1.2188-0.51563-0.65625-1.1445c-0.99219-1.625-1.9883-3.2891-2.9805-4.9883z"/>
  <path d="m654.17 730.17-1.4805 0.1875c-3.1523 0.41797-6.3281 0.63672-9.5078 0.65625h-0.99219l-0.14844 0.99219c-1.125 5.9922-1.5781 12.09-1.3516 18.18l0.085938 1.1445h1.1445c2.0898-0.11328 4.1992-0.16797 6.3203-0.22656l4.4062-0.13281v-1.1523h-0.003906c0.042969-5.7148 0.46484-11.422 1.2656-17.078z"/>
  <path d="m636.96 730.6-1.1328-0.1875h-0.003907c-2.9766-0.45312-5.8789-1.3047-8.6328-2.5312l-1.6016-0.73047-0.35547 11.84c-0.12109 4.0391-0.25391 8.0703-0.36719 12.102v1.3047l1.3047-0.10156c2.7109-0.20703 5.4766-0.41406 8.1836-0.55469l1.1641-0.066407-0.054687-1.1641-0.003907 0.003906c-0.15625-6.2812 0.30469-12.559 1.3789-18.75z"/>
  <path d="m751.09 765-0.27344-1.1523-1.1445 0.28906h0.003906c-0.11719 0.011719-0.23047 0.011719-0.34766 0-11.926-0.32812-24.027-0.9375-35.738-1.5391v0.003906c-29.328-2.168-58.777-2.2695-88.125-0.3125l-1.0312 0.085938v1.0391c-0.34766 9.4688-0.71094 17.691-1.1328 25.133l0.074219 1.2578h1.2734c2.2695-0.054688 4.5859-0.10156 6.8633-0.20703h1.0703l0.054687-1.0703c0.085938-2.0391 0.16797-4.0742 0.24219-6.1133 0.074219-2.1758 0.16406-4.3633 0.26172-6.5625l0.003906 0.003907c0.15234-1.5664 1.5352-2.7188 3.1016-2.5859 0.62109 0.015625 1.2148 0.25391 1.6719 0.67578 0.45313 0.47266 0.67188 1.1289 0.58984 1.7812-0.14062 2.8125-0.23438 5.5586-0.32812 8.3438l-0.1875 5.3906h1.2578l11.184-0.33594c3.75-0.11328 7.5-0.23438 11.195-0.32812h1.1328v-1.1367c-0.023437-0.37109-0.023437-0.74609 0-1.1172 0.55469-3.7227 0.82813-7.4844 0.82422-11.25-0.011719-0.71094 0.27734-1.3984 0.79688-1.8867 0.51953-0.48828 1.2188-0.74219 1.9297-0.69141 0.68359-0.015625 1.3516 0.21875 1.875 0.65625 0.52344 0.48047 0.80078 1.168 0.76172 1.875-0.011718 4.0508-0.32422 8.0938-0.9375 12.094l-0.20703 1.3672h1.3867c8.8125-0.17969 17.336-0.14844 25.312 0h1.1992v-11.961c0-3.6758 7.9141-3.6953 7.9219 0v12.254l1.1055 0.054688c9.1484 0.48828 17.664 1.3203 26.016 2.5586l1.293 0.1875 0.054688-1.3047 0.003906 0.003906c0.11328-4.1289-0.22266-8.2617-1.0039-12.32-0.20312-0.98438 0.16016-2.0039 0.9375-2.6406 0.80469-0.69531 1.9023-0.94141 2.9258-0.65625 0.71484 0.28125 1.207 0.94531 1.2656 1.7148 1 4.9336 1.3906 9.9688 1.1641 15l-0.066406 1.0312 1.0234 0.19531c5.3242 1.0039 10.086 2.0703 14.551 3.2617l1.4922 0.39453v-1.5469h-0.003906c0.027344-10.07-1.0742-20.109-3.293-29.934z"/>
  <path d="m617.54 682.3-0.074218 0.35547c-1.2383 8.4648 1.1445 17.059 6.5625 23.68 3.1367 3.0117 7.3672 4.6172 11.711 4.4453 6.7227-0.50781 13.328-2.0586 19.574-4.5938l4.2188-1.4258-4.3672-0.82422c-4.7305-0.85938-9.3672-2.1758-13.84-3.9375-3.6055-1.3047-6.918-3.3047-9.75-5.8867 1.1172 0.12109 3 0.54297 4.6875 0.9375 1.6875 0.39453 3.8164 0.86328 6.0859 1.2852 2.9336 0.60156 6.7031 1.1797 11.539 1.7617l4.9141 0.58984-4.125-2.7266c-6.4023-4.2383-12.664-8.9531-18.75-13.52-3.3008-2.4844-6.5625-4.9688-9.9375-7.3984l-0.52344-0.39453-0.61719 0.26172h-0.003906c-3.3789 1.3047-6.0391 3.9961-7.3047 7.3906z"/>
  <path d="m716.4 706.74c-2.1875-9.2109-6.293-17.855-12.047-25.375l-0.32031-0.32031h0.003906c-2.5508-2.125-5.8633-3.1055-9.1602-2.7188-1.2305 0.41797-2.1992 1.375-2.6328 2.5977-0.089844 0.14844-0.16406 0.30469-0.22656 0.46875l-0.16797 0.50781 0.26172 0.46094c0.83594 1.4609 1.6875 2.9062 2.5508 4.3516 1.9883 3.3828 4.0391 6.8828 5.832 10.406v-0.003906c0.28906 0.625 0.48047 1.293 0.5625 1.9766l0.09375 0.60938 0.5625 0.27344c4.6094 1.9727 8.9062 4.6172 12.738 7.8555l2.7266 2.6172z"/>
  <path d="m721.68 753.07h1.0781l3.8047 0.17969 3.8359 0.1875h1.2188v-14.523l-0.36719-0.34766c-3.1602-2.8789-5.8711-6.2188-8.043-9.8984l-0.73047-1.2383-1.0703 0.9375c-0.50391 0.46875-1.043 0.89453-1.6133 1.2773l-0.68359 0.46875 0.20703 0.79687c1.4805 6.9258 2.2617 13.98 2.3242 21.062z"/>
  <path d="m677.76 751.13h1.1719c0.70312 0 1.4141 0 2.1289 0.054688 0.71094 0.054688 1.5273 0 2.2773 0.054688h1.1914v-1.1914l-0.003906 0.003907c0.46094-6.3516-0.0625-12.738-1.5469-18.938l-0.16016-0.5625-0.55469-0.20703c-1.2188-0.46094-2.3984-0.9375-3.5703-1.3789l-1.9219-0.75781 0.34766 2.043v0.003906c0.86719 6.543 1.0977 13.152 0.69531 19.742z"/>
  <path d="m778.45 675.21 1.0117-0.89062-1.0312-0.88281c-7.1445-6.1016-21.965-0.066406-30.824 3.5547-1.3984 0.57031-2.6641 1.0859-3.75 1.4805l-2.418 0.9375c-5.1602 2.0352-10.414 3.8086-15.75 5.3164l-1.2266 0.32812 0.42188 1.1992c0.51562 1.4141 0.9375 2.8867 1.4258 4.4062l0.35547 1.1797 1.1641-0.41406-0.003906 0.003906c12.551-3.9375 25.676-5.7188 38.82-5.2695 0.55859-0.007812 1.1016 0.1875 1.5195 0.55469l1.125 0.9375 0.66406-1.3047h0.003907c2.1055-4.2109 4.9883-7.9883 8.4922-11.137z"/>
  <path d="m754.41 802.78v-0.9375l-0.9375-0.1875c-0.21484-0.03125-0.42969-0.03125-0.64453 0-16.508-4.2266-33.418-6.6875-50.449-7.332h-0.26172l-0.25391 0.11328c-1.5586 0.625-3.3086 0.55078-4.8086-0.20703l-0.54297-0.14844c-17.055-0.54297-34.461 0-51.273 0.5625-7.1055 0.23438-14.195 0.46875-21.273 0.61719h-1.0781l-0.14062 2.1094c-0.42969 6.2617-0.88281 12.742-1.4609 19.051-0.36719 3.75-0.76953 7.5469-1.1641 11.305l-0.28906 2.7109 1.0703 0.1875c2.4648 0.44141 5.043 0.76953 7.8672 0.99219l1.1055 0.085937 0.41406-3.0195h-0.003907c0.46094-4.625 1.4727-9.1797 3.0117-13.566 0.30859-0.75 0.91016-1.3438 1.6602-1.6484 0.75391-0.30078 1.5977-0.28906 2.3438 0.039062 0.57422 0.15625 1.0469 0.56641 1.2891 1.1094 0.24219 0.54297 0.23047 1.168-0.035156 1.7031-1.6367 4.668-2.707 9.5117-3.1953 14.438l-0.17969 1.2852h1.293c6.0547 0.22656 12.637 0.13281 21.348-0.30078l1.0508-0.054688 0.066406-1.0508c0.27344-4.6875 0.41406-10.52 0.41406-17.934l-0.003907-0.003906c-0.042968-0.73828 0.21875-1.4609 0.72656-1.9961 0.50781-0.53906 1.2148-0.84375 1.9531-0.84375s1.4414 0.30469 1.9492 0.84375c0.50781 0.53516 0.76953 1.2578 0.72656 1.9961 0 6.9766-0.11328 12.824-0.35547 17.391l0.22656 1.293 1.3047-0.074218c7.5-0.46875 14.664-0.9375 21.562-0.9375 7.5 0 15-0.10156 22.5-0.10156h1.1719l-0.003907-12.449c0-3.4766 2.8125-3.4766 2.8125 0v12.449h1.1719c7.9492 0.066407 14.457 0.25391 20.465 0.61719l1.2461 0.074219v-13.125c0-3.6836 7.9297-3.6836 7.9297 0l0.003907 13.727 1.0703 0.09375c2.3906 0.20703 4.7344 0.46094 7.1445 0.76953l1.332 0.16797v-1.3516c-0.054687-3.582-0.10156-7.1641-0.054687-10.754 0-2.8008 0.042969-5.6367 0.13281-8.5117-0.035157-3.0625 0.019531-6.1094 0.046874-9.1953z"/>
  <path d="m689.89 751.54 2.3516 0.10156c3.2539 0.13281 6.5625 0.27344 9.8047 0.46094l1.293 0.066407-0.054688-1.293 0.003906-0.003906c-0.058594-5.3438-1.2188-10.617-3.4023-15.496l-0.27344-0.57031-0.62891-0.085938c-2.8086-0.35547-5.5859-0.91016-8.3164-1.6602l-1.7734-0.47656 0.30859 1.8008h0.003906c0.72266 5.3047 0.95703 10.664 0.70312 16.012z"/>
  <path d="m764.3 702.68c-3.3711-0.19141-6.75-0.10156-10.105 0.26172l-0.73047 0.085938-0.24219 0.69531h-0.003906c-0.035156 0.074219-0.054688 0.15625-0.054688 0.24219-1.7734 3.8281-4.0156 7.418-6.6758 10.688l-1.1797 1.4336 1.8008 0.44922c0.47656 0.12109 0.9375 0.22656 1.4336 0.32813 0.73047 0.16016 1.4531 0.32031 2.1484 0.53516 3.5547 1.0859 7.0859 2.3359 10.5 3.5352 2.0156 0.70312 4.0312 1.4141 6.0547 2.1016l2.5781 0.86328-1.1445-2.4648v-0.003906c-2.4922-5.4883-3.6172-11.5-3.2734-17.52v-1.1523z"/>
  <path d="m714.28 732.94-1.2656 0.46094c-1.918 0.67969-3.9102 1.125-5.9336 1.3203l-1.4805 0.14844 0.48828 1.4062h-0.003906c1.5742 4.875 2.4336 9.9492 2.5508 15.066l0.054687 1.0586 1.0508 0.066406c1.7617 0.09375 3.5156 0.19531 5.3164 0.25391h1.2656l-0.054688-1.2656c-0.12891-5.7773-0.70312-11.535-1.7148-17.223z"/>
  <path d="m682.23 713.34c-0.39453 1.2148-0.14062 2.543 0.66797 3.5312l0.1875 0.25391 0.28906 0.13281c5.7148 2.7773 11.922 4.4102 18.262 4.8008 4.4141 0.125 8.7031-1.4453 11.992-4.3906l0.53516-0.48828-0.1875-0.68359c-1.5547-5.8789-8.1758-9.2617-14.82-12.188l-0.44922-0.19531-0.46094 0.17969-0.39453 0.1875c-0.12109 0.058594-0.24219 0.11328-0.36719 0.15625l-0.60938 0.19531c-6.168 1.9336-13.434 4.6914-14.645 8.5078z"/>
  <path d="m744.47 747.35-0.1875-0.35547-0.36719-0.16797v-0.003907c-2.6836-1.1875-5.2539-2.6289-7.668-4.3008l-1.875-1.2656v12.383l1.9492 0.09375c3.168 0.13281 6.3359 0.28125 9.4609 0.36719l1.8281 0.054688-0.71094-1.6875c-0.64844-1.6211-1.4844-3.3359-2.4297-5.1172z"/>
  <path d="m627.8 444.58 1.5 8.0078v-0.003906c1.7422 8.7109 2.7148 17.559 2.9141 26.438v2.25l4.6875-3.3477c2.082-1.4609 4.0859-2.8867 5.9258-4.3047l0.375-0.28906 0.074219-0.46875v0.003907c0.21094-1.4492 0.54297-2.875 0.99609-4.2656l0.25391-0.79687-0.66406-0.50781h-0.003906c-5.2148-4.1602-9.4375-9.4258-12.363-15.422z"/>
  <path d="m583.41 483.38 5.8594 4.4922c4.1055 3.1211 8.3438 6.3555 12.336 9.7422l0.88281 0.75 0.75781-0.86328c3.4609-3.8984 7.0977-7.8203 11.148-11.973l0.84375-0.86328-0.89063-0.82422c-2.5117-2.2969-5.1758-4.5078-7.7422-6.6484-1.25-1.043-2.5-2.0859-3.75-3.1328l-0.58203-0.48828-0.67578 0.32031c-5.5508 2.5977-11.164 5.5039-16.66 8.6172z"/>
  <path d="m599.06 406.45c-0.25391 2.8672-0.50781 5.832-0.99219 8.7734-0.49219 2.9102-1.2578 5.7656-2.2891 8.5312-1.0742 2.5586-2.3555 5.0312-3.8242 7.3867l-0.46094 0.76953c-1.1523 1.875-2.2305 3.6953-3.0391 5.3633l-0.19531 0.42188c-0.35156 0.73438-0.66406 1.4883-0.9375 2.2578-0.15625 0.41797-0.27344 0.85156-0.34766 1.293l-0.19531 0.76953v0.30078c-0.007812 0.36719 0.046875 0.73047 0.16016 1.0781 0.03125 0.10547 0.085938 0.19922 0.16016 0.28125l0.25391 0.39453v1.875l4.2109-4.2109 1.6133-1.6484c0.74219-0.75781 1.4609-1.5 2.0625-2.0898 1.1328-0.9375 2.2773-2.0078 3.3359-2.9727l0.40234 1.0508c0.55469 1.3789 1.0586 2.7461 1.5547 4.0703l0.47656 1.5195c0.69531 2.1836 1.3516 4.2461 1.7812 6.2617v-0.003906c0.27344 2.6484 0.97266 5.2344 2.0742 7.6602 0.26172 0.32031 0.47656 0.62891 0.79687 1.0508l0.42188 0.53516 0.42187 0.46875c0.10547 0.074219 0.20703 0.15625 0.30859 0.24219 0.25 0.24219 0.53125 0.44922 0.83203 0.61719l1.4336 0.88281h0.003907c0.29687 0.22656 0.65625 0.35547 1.0312 0.375h0.84375l0.41406-1.2188h-0.003906c0.3125-0.78125 0.50781-1.6055 0.58203-2.4453 0.066406-0.48047 0.097656-0.96094 0.10156-1.4453-0.046876-0.62891-0.10156-1.2578-0.14844-1.8008-0.085938-0.9375-0.16016-1.8008-0.23438-2.5391-0.074219-0.74219-0.12109-1.4141-0.16797-2.0234v-0.003906c0.79297 1.3281 1.4375 2.7422 1.9219 4.2109l0.21484 0.62891c0.14844 0.41406 0.30078 0.85156 0.40234 1.1523 0.11328 0.61719 0.16797 1.3203 0.23438 2.0898l0.13281 1.5469c0.10938 0.875 0.17188 1.7539 0.1875 2.6367v0.30859c-0.10156 1.2578-0.19531 2.5508-0.23438 3.75-0.0625 0.47656-0.097656 0.96094-0.10547 1.4414v0.55469l1.5547 1.2734c2.457 2.0234 5.0078 4.1055 7.3984 6.2812l2.1367 1.9297-0.17969-2.8789 0.003906 0.003906c-1.2031-13.434-3.4453-26.758-6.7109-39.844-3.7812-14.703-6.0859-29.746-6.8906-44.906v-0.9375l-0.9375-0.19531c-1.6211-0.35547-3.2539-0.76953-4.8672-1.2188l-0.77734-0.22656-0.46875 0.64844c-2.4375 3.3789-3.9883 7.3125-4.5195 11.445-0.47656 2.7461-0.72266 5.5312-0.9375 8.4766zm-0.9375 27.363 0.42188-0.36719 0.39453-0.074218z"/>
  <path d="m634.69 389.77h-1.2578c-3.2539-0.054688-6.4766-0.20703-9.5703-0.46094l-1.3789-0.11328 0.11328 1.3789v0.003906c0.88672 7.5859 2.4297 15.078 4.6133 22.395l1.2188 4.2852 1.0508-4.332c0.30859-1.2578 0.60156-2.4648 0.9375-3.75l0.72266-2.6523c0.71094-2.625 1.4453-5.3242 2.1016-8.0547l-0.003906 0.003906c0.60938-2.4688 1.0469-4.9727 1.3047-7.5z"/>
  <path d="m659.2 480.48c0.87109-0.14453 1.7305-0.37891 2.5586-0.69141l0.72266-0.30078v-0.32031l0.67578-0.62891-0.5625-0.57031h-0.003906c-0.03125-1.7148-0.23047-3.4219-0.58984-5.0977l-0.21484-1.1055-1.1172 0.16797c-2.9297 0.46484-5.9297 0.28906-8.7812-0.52734l-1.125-0.32031-0.32031 1.125v0.003907c-0.94922 2.2148-0.87109 4.7383 0.21484 6.8906 1.2461 1.3594 3.0586 2.0547 4.8945 1.875 1.0664-0.007812 2.1328-0.12109 3.1797-0.32812zm2.3438-1.875-0.066406-0.09375z"/>
  <path d="m679.37 365.12c-1.0117-2.3984-2.0234-4.7891-3.1484-7.1445l-0.38281-0.82422-0.9375 0.1875c-8.6133 1.7734-17.395 2.5742-26.188 2.3828h-1.0586c-8.2695-0.19531-16.809-0.40234-25.555-0.79688h-0.39453l-0.30078 0.1875c-0.42578 0.26953-0.87891 0.49609-1.3477 0.67578-7.2305 2.3711-13.398 7.2031-17.438 13.648l-0.75781 1.2266 1.3672 0.48828c10.262 3.4688 21.043 5.1289 31.875 4.9141 15.758-0.39453 31.449-2.2305 46.875-5.4766l1.5078-0.28906-0.67578-1.3789c-1.2461-2.5508-2.3516-5.2227-3.4414-7.8008z"/>
  <path d="m655.59 496.29 0.49609-0.42188-0.085937-0.64844c-0.042969-0.21484-0.10156-0.42578-0.16797-0.63672l-0.09375-0.28906c-0.19531-1.875-0.46094-3.8164-0.71094-5.7266l-0.13281-0.9375-0.9375-0.09375c-0.47656-0.046875-0.9375-0.09375-1.4258-0.1875l-0.83594-0.16797-0.42188 0.74219c-1.3203 2.3516-2.9453 4.6875-4.5 6.9766l0.003907-0.007812c-2.707 3.6328-4.9922 7.5586-6.8086 11.711l-1.707 4.3516 3.5547-3.0273c4.5938-3.8945 9.207-7.793 13.773-11.637z"/>
  <path d="m631.45 514.82 0.074219-1.4531c1.0078-7.6641 4.0898-14.906 8.9141-20.945 1.668-2.5508 3.4023-5.1836 4.9023-7.9219l0.42187-0.76953-0.61719-0.61719c-0.12109-0.125-0.23047-0.26172-0.32812-0.40234v-2.0078l-2.2578 1.6602c-4.6289 3.1953-8.9609 6.7969-12.949 10.762-4.125 4.2188-6.1133 10.078-5.4102 15.938 0.78125 2.7617 3.0391 4.8594 5.8516 5.4375z"/>
  <path d="m612.32 681.84c0-1.0703 0.085938-2.1367 0.16797-3.207l0.14062-1.9609-0.70312-0.35547c-0.43359-0.20312-0.84766-0.45312-1.2305-0.74219l-0.50781-0.23437h0.003906c-0.66797-0.10156-1.3047-0.33984-1.875-0.70313l-3.918-2.5117-0.75-0.47656-0.66406 0.58203h-0.003906c-0.67969 0.65234-1.5391 1.0938-2.4648 1.2734-6.7812 0.65234-11.855 6.5156-11.523 13.32-0.035157 0.59375-0.12891 1.1797-0.26953 1.7539l-0.28906 1.1445 1.1445 0.28125h-0.003906c7.793 1.9531 15.172 5.2812 21.789 9.8359l2.5234 1.7539-0.72266-2.9922c-1.5703-5.3555-1.8633-11.004-0.85547-16.492z"/>
  <path d="m741.99 696.93c0.011718-0.66406 0.12891-1.3164 0.34766-1.9414l0.61719-1.875-1.9297 0.34766c-4.1719 0.72656-8.2734 1.8086-12.262 3.2344l-0.9375 0.32813 0.14844 0.9375c0.66797 4.1055 0.78906 8.2812 0.35938 12.422l-0.22656 2.043 1.875-0.84375c5.4844-3.2031 9.6797-8.2148 11.867-14.176z"/>
  <path d="m610.06 591.72v1.3789c0.097656 5.8594-1.875 11.562-5.5664 16.113-0.47266 0.54297-0.98438 1.0508-1.5312 1.5195l-0.47656 0.44141 0.10156 0.63672c0.10156 0.49219 0.13281 1 0.085937 1.5-0.23047 14.512 0.85547 29.016 3.2422 43.332l0.085938 0.54297 0.47656 0.28906c0.42188 0.23438 0.8125 0.52344 1.1641 0.85547 0.46875 0.48047 0.97656 0.92969 1.5078 1.3398l1.0781 0.81641 0.64844-1.1914c10.883-19.914 45.242-1.7266 65.766 9.1328l5.625 2.9531 0.79688 0.41406 0.60938-0.67578c8.2031-9.1484 21.789-5.5703 31.621 2.043l0.375 0.28906 0.46875-0.054687c8.2695-1.4609 16.332-3.9102 24.012-7.3047 8.8125-3.8984 18.098-6.6367 27.617-8.1484l0.9375-0.085937 0.14062-0.9375c0.71875-4.5391 1.4453-9.0742 2.1836-13.613 2.8125-17.523 5.7852-35.625 7.5742-53.645l0.17969-1.7344-1.668 0.48828c-1.3594 0.40234-2.8125 0.80469-4.1797 1.1172l-0.9375 0.19531v0.9375l-0.003906 0.003906c0.125 6.3516-0.32031 12.703-1.3203 18.977-1.5156 8.9688-4.3906 17.652-8.5312 25.75-1.4922 2.9531-3.4141 5.668-5.6992 8.0547 0.37891-3.2344 1.1211-6.418 2.2031-9.4883 1.6875-6.4492 4.0039-15.281 5.8125-25.426 0.9375-5.832 1.5938-11.25 2.1758-16.273l0.17969-1.5547-1.5469 0.27344-0.003906-0.003906c-18 2.6836-36.176 4.0117-54.375 3.9766-6.1797 0.14062-12.348 0.28125-18.496 0.52344-21.195 1.1641-42.449 0.79297-63.59-1.1133l-1.125-0.12109-0.5625 3.918c-0.34766 2.3438-0.70312 4.7812-1.0391 7.3047l-0.003907-0.003906c-1.0469 7.0703-1.0469 14.25 0 21.32 0.35156 1.9492 0.86328 3.8633 1.5312 5.7266 0.21875 0.61719 0.40625 1.2422 0.5625 1.875-2.582-1.4023-4.5977-3.6523-5.7031-6.375-3.0039-7.3867-3.9062-15.465-2.6055-23.332 0.4375-3.3281 1.0625-6.6289 1.875-9.8828l0.30859-1.2461-1.4141-0.11328c-3.0742-0.46875-6.1328-0.9375-9.207-1.4922z"/>
  <path d="m627.02 520.8-1.5273-0.78906c-2.6562-1.582-4.8359-3.8438-6.3203-6.5547-1.4844-2.7109-2.2148-5.7695-2.1172-8.8555l-0.066407-2.9531-1.9766 2.1953c-5.5586 6.207-11.023 12.637-16.312 18.852-4.5273 5.3359-9.207 10.836-13.922 16.164l-1.2578 1.4141 1.875 0.49609c3.1914 0.86328 6.3242 1.9414 9.375 3.2227 0.84375 0.38672 1.6133 0.91797 2.2773 1.5664 0.33984 0.23438 0.65625 0.50391 0.9375 0.80859l0.82422 0.83594 0.83594-0.82422c7.5-7.5 15.824-15.301 26.082-24.441z"/>
  <path d="m597.72 564.77-1.5078-1.1172-0.70312 0.9375c-9.375 12.91-27.289 18.18-43.125 22.828-2.3516 0.69531-4.6875 1.3594-6.8984 2.0625h-0.003906c-0.44922 0.17578-0.9375 0.22656-1.4141 0.15234l-1.0703-0.16797-0.25391 1.0508-0.074219 0.30859v-0.003907c-0.039063 0.21484-0.097656 0.42188-0.17969 0.62109l-0.1875 0.50781c0 0.33594-0.11328 0.64844-0.17969 0.9375l0.003906-0.003907c-0.074218 0.3125-0.12891 0.625-0.16797 0.9375l-0.32031 1.875 1.8203-0.55469v0.003906c3.8984-1.3945 8.1914-1.168 11.922 0.62891 3.293 1.7227 6.0508 4.3164 7.9688 7.5 0.14844 0.32031 0.38281 0.9375 0.67578 1.6953 2.1367 5.625 4.5 11.102 7.7539 11.102 2.6445 0 3.9922-3.6836 4.4336-4.8945 0.22266-2.4258-0.16016-4.8633-1.1055-7.1055-0.98438-3.6289-2.4766-9.1133-1.3672-10.875 0.12891-0.20312 0.3125-0.36719 0.53125-0.46875 0.30078 0.11328 1.4609 1.3125 2.8125 5.1172 0.074218 0.26172 0.24219 1.4453 0.375 2.3984 0.68359 4.9609 1.0391 6.4688 2.082 6.9297 1.125 0.64453 2.5195 0.58984 3.5898-0.14062 2.3711-1.7539 2.1016-6.8633 1.4453-12.121 0-0.40234-0.085937-0.72266-0.10156-0.9375l-0.22656-1.9414c-0.31641-1.9258-0.46484-3.8789-0.44922-5.832 0.63672-0.33594 0.9375-0.17969 1.0312-0.10156 1.875 0.9375 2.8789 7.6484 3.4023 11.25 0.52344 3.6016 0.66406 4.4258 1.6406 5.0625 0.32812 0.1875 0.64844 0.36719 0.9375 0.51562 1.2266 0.64844 2.707 0.58203 3.8711-0.16797 3.1133-2.082 3.6484-9.1133 3.5625-16.367v-0.003906c0.50391 0.20703 1.0352 0.33594 1.5742 0.375 4.2344 0.125 8.0781-2.457 9.5625-6.4219 1.0977-6.1602-7.207-12.281-11.66-15.57z"/>
  <path d="m739.39 874.55v-1.1992c0.085937-2.5586 0.21484-5.1172 0.34766-7.6797 0.19531-3.75 0.38281-7.6484 0.42188-11.504 0-0.70312 0.28906-1.3789 0.80469-1.8594 0.51953-0.48047 1.2109-0.72266 1.9141-0.67188 0.69141-0.050781 1.3711 0.19141 1.8672 0.67188 0.5 0.48047 0.76953 1.1523 0.73828 1.8438 0 3.6367-0.21484 7.3203-0.40234 10.895-0.14062 2.8984-0.28906 5.8047-0.36719 8.6992v1.1172l1.1172 0.074219c1.4727 0.12109 2.9609 0.21484 4.4609 0.30859l5.1289 0.35547-0.066407-1.3203c-0.46875-9.6758-1.0117-22.426-1.1797-35.371v-1.0312l-1.0117-0.12109v-0.003906c-13.152-1.4883-26.383-2.2266-39.621-2.2109h-0.34766l-0.28125 0.1875h0.003906c-0.28125 0.20313-0.66016 0.20313-0.9375 0l-0.28125-0.16797h-0.32031c-6.8711 0-13.648 0.046875-20.465 0.13281-4.3867 0-8.7578 0.10156-13.125 0.12109-5.9805 0.054688-12.188 0.375-18.195 0.69531l-0.003906-0.003906c-13.035 1.1484-26.152 0.95312-39.148-0.58203l-1.2188-0.1875-0.13281 1.2266c-0.66406 6.1953-1.4922 12.488-2.457 18.664-0.34766 2.0898-0.86328 4.5742-1.4453 7.2734-0.46875 2.2031-0.9375 4.5547-1.4258 6.9648l-0.22656 1.1914 1.1914 0.1875c3.5703 0.5625 6.8047 0.9375 9.8984 1.1914l1.3125 0.11328v-1.3203h0.007812c-0.25-5.1211 0.38281-10.25 1.875-15.156 0.21094-0.70703 0.70703-1.293 1.3711-1.6172 0.66016-0.32422 1.4297-0.35547 2.1172-0.089844 0.64844 0.14453 1.207 0.5625 1.5273 1.1484 0.32031 0.58594 0.375 1.2812 0.14844 1.9062-1.3984 4.6719-1.957 9.5547-1.6484 14.418v1.0781l1.0781 0.046876c9.5156 0.32812 19.191-0.074219 28.539-0.48828l5.625-0.25391-0.36719-1.3867v0.003907c-0.85938-4.1992-1.1719-8.4922-0.9375-12.77v-2.5898c-0.019531-0.71875 0.28516-1.4062 0.83203-1.875 0.53516-0.41797 1.1953-0.64453 1.875-0.63672 0.69141-0.054688 1.375 0.19141 1.8711 0.67578 0.49609 0.48047 0.76172 1.1562 0.72656 1.8477 0 1.0703 0 2.1562-0.066407 3.2422-0.41016 4.2656 0.0625 8.5703 1.3906 12.648l0.30078 0.75781h0.82422c5.3711-0.16797 10.133-0.1875 14.551 0 6.5625 0.25391 13.125 0.5625 19.855 0.87109h0.9375l0.22656-0.9375h-0.003906c1.0469-4.8477 1.5547-9.8008 1.5117-14.766-0.011718-0.71094 0.27734-1.3945 0.79688-1.8867 0.51953-0.48828 1.2188-0.73828 1.9297-0.69141 0.68359-0.015624 1.3516 0.21875 1.875 0.65625 0.52344 0.48047 0.80078 1.168 0.75781 1.875 0.011718 4.9062-0.46094 9.8008-1.4062 14.617l-0.28125 1.332 1.3672 0.066407c7.6016 0.35547 15.207 0.81641 22.93 1.2852z"/>
  <path d="m676.36 877.5c-3.0547 0.09375-6.0547 0.23438-9.0547 0.375l-1.6797 0.10156-0.16797 0.9375c-0.26172 1.5195-0.9375 6.6367 1.6016 9 0.8125 0.73828 1.875 1.1367 2.9727 1.1094 0.56641-0.003907 1.1328-0.082032 1.6797-0.23438 5.8125-1.3789 6.5625-2.9805 6.5625-4.0703 0.027343-1.9648-0.21094-3.9297-0.70313-5.832l-0.28906-1.3672z"/>
  <path d="m780.71 1007.7c-0.12109 0.007813-0.24219 0.007813-0.36328 0h-0.80469c-1.4336 0.10156-2.8125 0.19531-4.3047 0.28125-1.4922 0.085938-2.8789 0.17969-4.3398 0.28906-2.7734 0.19531-5.5312 0.58203-8.25 1.1523l-0.77734 0.19531-0.003906 0.003907c-1.0859 0.20312-2.1328 0.57422-3.1094 1.0938l-0.26172 0.16016h-0.003906c-0.19531 0.11719-0.38281 0.25781-0.55078 0.41406l-0.46094 0.48828 0.17969 0.63672c0.82422 2.9922 5.7578 3.8164 10.895 3.8164 4.2422-0.0625 8.4727-0.46094 12.656-1.1914l1.0234-0.21484-0.10156-1.0312h-0.003906c-0.16016-1.6289-0.19141-3.2656-0.09375-4.8945l0.09375-1.4141z"/>
  <path d="m784.32 1020.9-0.36719-1.0234-1.0391 0.28125c-8.6055 2.4297-17.762 2.0234-26.117-1.1602l-1.2266-0.70312-1.4141 4.0781h-0.003906c-4.4336 10.535-6.7812 21.832-6.9102 33.262 0.011718 0.14062 0.011718 0.28125 0 0.42188v0.60156l0.054687 0.34766 0.003906-0.003907c0.60938 1.9336 0.027344 4.0469-1.4922 5.3906l-0.88281 0.85156 0.9375 0.84375 0.003907 0.003906c4.2109 3.1289 9.207 5.0273 14.438 5.4844 1.5469 0.28125 3.0547 0.5625 4.4531 0.9375l1.0703 0.26172 0.32812-1.0508h-0.003906c0.63672-2.6523 2.2852-4.957 4.5938-6.4102 3.5156-1.6562 7.6992-0.82031 10.312 2.0508l0.77734 0.71094 0.79687-0.70312v0.003906c2.7305-2.6992 6.5898-3.9141 10.371-3.2734l2.1094 0.44922-0.75781-2.0156h-0.003907c-0.57812-1.3164-0.60547-2.8125-0.074218-4.1523l0.14062-0.67578c2.8672-9.0195 6.2461-17.871 10.117-26.512l-0.49609-0.21484v-0.074219l0.58203 0.1875h-0.003906c0.11719-0.17187 0.22266-0.34766 0.32031-0.52734l1.0117-2.082-2.2773 0.41406c-3.2227 0.11328-6.332-1.207-8.4844-3.6094l-0.60156-0.54297-0.72266 0.35547h0.003907c-1.5586 0.98047-3.4414 1.3008-5.2305 0.88672-1.793-0.41406-3.3477-1.5273-4.3164-3.0898z"/>
  <path d="m674.64 464.37-6.7305 6.6758 8.1484-4.8359h-0.003906c12.566-8.5781 21.602-21.414 25.43-36.137 3.832-14.723 2.1953-30.336-4.5977-43.945l-2.6328-4.9961 0.44141 5.7852-0.003907-0.003907c2.6211 16.914 1.0938 34.211-4.4531 50.402-3.3477 9.9648-8.6523 19.164-15.598 27.055z"/>
  <path d="m684.52 384.2-1.3047 0.23438c-13.129 2.5938-26.418 4.3203-39.777 5.168l-1.0586 0.054688-0.054688 1.0586c-0.25 3.2383-0.80469 6.4414-1.6602 9.5742-1.0508 4.1055-2.1641 7.7734-3.1211 10.902-1.0039 3.4141-1.875 6.4688-2.4375 9.1875-0.28125 1.2305-0.42578 2.4883-0.43359 3.75-0.007813 0.51562 0.058593 1.0312 0.19922 1.5273 0.16406 0.47266 0.52344 0.84766 0.98437 1.043 0.58203 0.17188 1.2109 0.09375 1.7344-0.21875 0.71094-0.38281 1.707-1.0312 2.7578-1.7266 0.77734-0.50781 1.5859-1.0391 2.3242-1.4922l-0.003907 0.003907c1.7305-1.0938 3.5859-1.9648 5.5312-2.5977 0.30078-0.085937 0.58203-0.13281 0.86328-0.1875l0.49609-0.09375c0.22656 0 0.41406-0.074218 0.5625-0.085937l0.17969 0.046875v0.003906c0.14844 0.039063 0.28906 0.089844 0.42969 0.14844l0.38281 0.1875 0.40234-0.10156c2.4297-0.58984 2.6797-3.1211 2.8125-4.6875v-0.50781h0.003906c0.26172 0.26172 0.49609 0.54688 0.70312 0.85547 0.23047 0.54297 0.42969 1.1016 0.60156 1.668 0.25391 0.58984 0.36328 1.2344 0.31641 1.875v0.36719-0.003906c0.046875 0.76562-0.027344 1.5352-0.21484 2.2812l-0.066406 0.33594c-0.089844 0.60156-0.22656 1.1992-0.40234 1.7812-2.832-0.88672-5.9219-0.20312-8.1094 1.8008-0.42969 0.33594-0.9375 0.70312-1.5469 1.1445-0.44922 0.35547-0.87109 0.71094-1.3125 1.0977v-0.003906c-1.3086 1.1367-2.6836 2.1914-4.1172 3.1719-1.3281 0.82422-2.8242 1.3477-4.375 1.5352l-1.5273 0.21484 0.61719 1.4141c5.0703 11.652 13.125 25.715 22.648 26.531h0.89062v0.003906c5.6992-0.68359 10.664-4.2148 13.172-9.375 14.371-21.93 14.418-41.445 12.91-66.617z"/>
  <path d="m639.3 878.52h-1.0781c-3.8984-0.066407-7.1172-0.17969-10.105-0.36719l-1.2461-0.074219v1.2461c0 2.4844 0 7.1172 3.207 8.0156h-0.003906c1.7227 0.44141 3.4922 0.64453 5.2695 0.60938 1.0781 0 2.1758 0 3.2734-0.11328l1.1328-0.054688v-1.1328c-0.054688-2.3359-0.19531-4.6875-0.35547-7.0312z"/>
  <path d="m755.83 882.42-0.14844-2.6055-1.0117-0.074218h-0.003906c-2.0078-0.14063-4.0195-0.14063-6.0273 0-1.8906 0.13672-3.7891 0.15234-5.6797 0.046874l-1.1523-0.085937-0.10156 1.1523h-0.003906c-0.65234 2.3203 0.38672 4.7812 2.5039 5.9336l0.51562 0.25391c1.6797 0.98047 3.5625 1.5703 5.5039 1.7266 2.4023-0.0625 4.5586-1.4883 5.5586-3.6758l-0.9375-0.5625 1.1172-0.33594c-0.058594-0.21875-0.085938-0.94922-0.13281-1.7734z"/>
  <path d="m797.91 1018.7 0.58984 0.60156 0.003906-0.003907c0.4375 0.46094 0.91797 0.88281 1.4336 1.2578 0.60156 0.44922 1.2617 0.82031 1.957 1.0977l1.0117 0.22656 0.76953-1.5859c0.25781-0.75781 0.45703-1.5312 0.60156-2.3164v-0.054688c0.13281-1.4336 0.16797-2.875 0.11328-4.3125-0.13672-2.4844-0.71875-4.9258-1.7148-7.2031l-2.9453-6.1797 0.73047 6.8047v0.003906c0.30078 3.7734-0.46094 7.5547-2.2031 10.914z"/>
  <path d="m618.25 583 1.6133 0.30078c1.4258 0.25391 2.8867 0.46094 4.293 0.61719l0.87109 0.10156 0.33594-0.81641v0.003907c1.0273-2.8711 2.5664-5.5273 4.5391-7.8477 0.13281 2.6797-0.058594 5.3672-0.5625 8.0039l-0.16797 1.1992 1.2109 0.12109-0.003907 0.003906c11.219 1.1016 22.48 1.6289 33.75 1.5742 9.6367 0 19.117-0.30859 28.266-0.69531 6.5625-0.30078 13.293-0.44922 19.801-0.60156v0.003906c18.418 0.10156 36.809-1.3867 54.965-4.4531l0.82422-0.16016 0.11328-0.83594c0.21094-2.1914 0.64063-4.3594 1.2852-6.4688 0.73047 1.7266 1.2305 3.5391 1.4805 5.3906l0.21484 1.2188 1.2109-0.28125c2.1641-0.52344 4.3398-1.0391 6.5156-1.6602l0.79688-0.23438 0.054687-0.81641c0.25-4.2188 0.45312-8.4414 0.60938-12.664v-0.51562l-0.36719-0.35547h0.003906c-0.15234-0.16406-0.28516-0.34375-0.40234-0.53516-0.30859-0.42187-0.58984-0.83594-0.89062-1.2734l-0.41406-0.60156-0.23438-0.26172c-0.078125-0.11719-0.16016-0.23047-0.25391-0.33594-0.71094-0.89062-1.3984-1.7422-2.1836-2.5859l-1.2656-1.5195-0.9375 0.80469c-3.9492 3.6445-9.1016 5.7148-14.473 5.8125h-1.2852c-26.445 0-36.301-32.691-36.301-53.297v-1.0586l-1.0508-0.10156v-0.003906c-3.7539-0.17969-7.3867-1.3906-10.5-3.4961l-2.0352-1.3672 0.21484 2.4375h0.003907c0.45312 4.418 0.082031 8.8867-1.0977 13.172-1.4141 5.2852-5.9492 9.1445-11.391 9.7031l-0.99219 0.17969v1.0039l-0.003907-0.003906c0.46875 5.3047-0.78516 10.617-3.5742 15.156-2.7852 4.5352-6.9609 8.0547-11.902 10.035-5.832 2.6797-25.762 10.379-37.82-2.6523l-0.78906-0.86328-0.86328 0.78906c-7.0391 6.4414-13.34 12.461-19.246 18.422l-0.48828 0.49609 0.19531 0.65625h0.003907c1.0742 3.2227 0.75391 6.7461-0.87891 9.7227z"/>
  <path d="m789.93 1018.2c0.10156 0.007812 0.20312 0.007812 0.30859 0 2.5703-0.50781 5.0352-9.2539 5.0352-9.957-0.52734-2.1523-1.7109-4.0938-3.3867-5.5469-0.67188-0.62891-1.5781-0.9375-2.4922-0.84375l-0.99219 0.32031-0.003906 0.90625c-1.3945 4.457-1.4688 9.2266-0.21484 13.727 0.21094 0.79688 0.91797 1.3633 1.7461 1.3945z"/>
  <path d="m766.07 1117.4 3.1211 2.6992 0.62891-0.19531v-0.003906c8.6094-3.4141 16.355-8.6953 22.688-15.457l3-2.7578-0.61719-1.4258c-0.52344-1.1523-1.0508-2.3438-1.4531-3.5156h-0.003906c-0.20312-0.69141-0.32422-1.4062-0.36328-2.125l-0.074218-0.30859-0.003906-0.003906c-0.33984-1.0156-0.4375-2.0977-0.28906-3.1562l0.24219-2.043-1.875 0.83594v-0.003906c-5.5586 2.5312-12.039 1.9727-17.078-1.4805l-0.34766-0.23438h-0.41406c-7.9961 0.60156-16.031-0.35547-23.66-2.8125l-1.3984-0.48828-0.14062 1.4805c-0.28125 2.9141-0.75 6.0391-1.4258 9.543l-0.085938 0.42969 0.22656 0.38281v0.003907c5.2773 7.8828 11.801 14.855 19.324 20.637z"/>
  <path d="m767.27 1083-0.78906-1.7539c-0.63281-1.4062-1.0195-2.9141-1.1445-4.4531l-0.51563-1.0781h-1.0703c-1.6328-0.42188-3.2734-0.78906-4.9141-1.1641l0.003906 0.003906c-5.7148-0.80078-11.168-2.9102-15.938-6.1602l-1.3594-1.1172-0.49609 1.6953v0.003907c-0.53516 1.7852-0.47266 3.6992 0.17969 5.4453l0.32031 0.46875h-0.003906c6.8594 5.1875 15.223 7.9961 23.824 8.0078z"/>
  <path d="m794.83 1069.1c-1.0547-1.1523-2.5352-1.832-4.0977-1.875h-0.085937c-2.1523 0.21875-4.1211 1.3086-5.4531 3.0117l-0.51562 0.54297 0.28125 0.68359c2.1914 4.2734 1.168 9.4922-2.4766 12.621l-1.9297 1.7539 2.5977 0.27344-0.003906-0.003906c0.50781 0.054688 1.0117 0.082031 1.5195 0.085938 3.9492 0.11328 7.668-1.8516 9.7969-5.1758 1.7461-2.793 3.7695-8.4023 0.36719-11.918z"/>
  <path d="m803.87 695.09-1.1914 0.64844h0.003907c-1.6094 0.87891-3.2891 1.6289-5.0156 2.2383l-0.75 0.26172v0.80078c-0.03125 4.9414 2.6797 9.5 7.0391 11.828l0.77734 0.46094 0.63672-0.63672c0.71484-0.75 1.5938-1.3203 2.5703-1.6602l1.1641-0.375-0.42187-1.1523c-0.71094-1.875-1.4609-3.8242-2.2109-5.7266s-1.4258-3.5898-2.1016-5.4102z"/>
  <path d="m774.47 1082.6 0.66406-0.42188c2.625-1.332 4.4766-3.8164 5.0078-6.7109-0.011719-2.5977-1.2578-5.0352-3.3555-6.5625-0.71094-0.80078-1.7461-1.2305-2.8125-1.1641-0.94922 0.27344-1.7188 0.96484-2.0898 1.875-2.4375 4.0938-1.6094 9.3438 1.9688 12.488z"/>
  <path d="m759.12 983.87-1.0859-2.1562-1.0312 2.1758c-1.5234 2.9688-2.0234 6.3555-1.4258 9.6367l0.054687 0.30859 0.19531 0.23438 0.003906 0.003906c4.207 4.7031 10.074 7.5938 16.367 8.0625l4.9414 0.58203-4.1641-2.7188v-0.003906c-5.9648-4.0508-10.746-9.6172-13.855-16.125z"/>
  <path d="m778.5 814.3h-0.09375c-0.89844-0.003907-1.7227-0.49219-2.1562-1.2773-0.99219-1.5742-2.043-3.1211-3.0938-4.6875-1.2383-1.8086-2.4766-3.6367-3.6094-5.5117l-2.1758-3.6016v4.2109 4.9688 4.8281c-0.11328 9.0547-0.09375 17.223 0.054687 24.984v1.9883l1.7266-1.0039c16.793-8.8555 34.551-15.738 52.922-20.512l3.3086-0.99219 0.09375-0.76953c0.066407-0.51563 0.46875-3.0742 2.5312-3.0742h6.7773l-0.78906-1.6797c-4.1055-8.6523-9.0078-17.129-13.246-24.273l-0.375-0.62891-0.73047 0.066406h-1.7617l-1.875 0.16797 0.9375 1.6016v0.003906c1.2188 2.043 2.332 4.1484 3.3281 6.3086 0.32812 0.73047 0.34375 1.5664 0.042968 2.3086-0.29688 0.74219-0.88281 1.3359-1.625 1.6367-0.51953 0.30469-1.1406 0.36328-1.707 0.16797-0.56641-0.19922-1.0195-0.63281-1.2383-1.1875-1.5312-3.3789-3.3359-6.625-5.3906-9.7148l-0.40234-0.60937-0.72266 0.09375c-4.4609 0.57422-8.8906 1.3867-13.266 2.4375l-1.6133 0.38281 0.9375 1.3867c0.41406 0.63672 0.80469 1.2734 1.2109 1.875v0.003906c1.5977 2.9648 3.707 5.6211 6.2266 7.8555 0.42969 0.375 0.67578 0.92188 0.67188 1.4922 0.050781 0.8125-0.23047 1.6133-0.77734 2.2227-0.52734 0.5-1.2305 0.76953-1.957 0.75-0.72656-0.019532-1.4141-0.32813-1.9141-0.85547-2.2734-2.0391-4.1797-4.4609-5.625-7.1523-1.0859-1.8164-2.2734-3.5703-3.5625-5.25l-0.44922-0.88281-0.9375 0.30078c-4.6836 1.4648-9.2539 3.2734-13.668 5.4102l-1.1523 0.55469 0.66406 1.1055c1.1797 1.9609 2.457 3.8438 3.75 5.7188 1.0703 1.5742 2.1367 3.1484 3.1406 4.7617 0.50391 0.69141 0.57422 1.6133 0.17578 2.3711-0.5 0.98438-1.4844 1.6289-2.5859 1.6992z"/>
  <path d="m792.85 684.13-1.7344-0.44922v-0.003906c-1.6094-0.42578-3.3242-0.11719-4.6875 0.84375-4.4219 4.582-7.1445 10.535-7.7227 16.875-1.3359 6.625 0.25391 13.504 4.3594 18.875 4.7383 5.168 11.477 8.0391 18.488 7.875h0.47656l0.35547-0.32813c1.3906-1.1992 2.2852-2.8711 2.5117-4.6875l0.10156-0.9375-0.9375-0.30078h0.003906c-7.793-2.5117-13.863-8.6719-16.258-16.5-2.0859-6.8516-0.63672-14.293 3.8711-19.855z"/>
  <path d="m838.41 822.52-0.28906-0.75h-8.0156c-2.3633 0.72266-4.6875 1.4453-7.1328 2.1562l-1.332 0.40234 0.62891 1.2578c1.5781 3.125 2.6289 6.4883 3.1094 9.957 0.37891 1.4414-0.41406 2.9297-1.8164 3.4219-0.79297 0.19141-1.6328 0.039062-2.3086-0.42188-0.48828-0.29688-0.82812-0.78906-0.9375-1.3516-0.53125-3.6484-1.7227-7.1719-3.5156-10.395l-0.46875-0.82422-0.89063 0.27344c-5.8672 1.7891-10.633 3.3477-15 4.8945l-1.3125 0.46094 0.67578 1.2188c1.0391 1.875 1.9609 3.8438 2.8125 5.7656 0.73047 1.5938 1.4609 3.1875 2.2695 4.6875v-0.003906c0.48828 0.82422 0.46484 1.8555-0.054687 2.6602-0.60938 0.875-1.5898 1.418-2.6562 1.4648-0.82031-0.042969-1.5469-0.55078-1.875-1.3047-0.75-1.4609-1.4258-2.9531-2.1016-4.4453h0.003906c-1.0938-2.5391-2.3477-5.0039-3.75-7.3867l-0.51562-0.83594-0.9375 0.35547c-5.793 2.2422-10.547 4.3125-14.945 6.5078l-0.9375 0.47656 0.36719 0.98438v0.003906c1.0312 3.6836 3.3633 6.8711 6.5625 8.9727 0.60156 0.33594 1.0391 0.91016 1.1992 1.582s0.03125 1.3789-0.35547 1.9492c-0.3125 0.63672-0.87891 1.1133-1.5586 1.3125-0.68359 0.20313-1.418 0.10547-2.0234-0.26172-3.9727-2.4609-6.9414-6.2578-8.3711-10.707l-0.50781-1.2383-1.1641 0.65625c-1.0977 0.62891-2.2031 1.2578-3.2422 1.9414l-0.55469 0.35547 0.066406 2.0898c0.1875 6.6562 0.38281 13.273 0.67578 19.941l0.074218 1.6797 1.5547-0.65625h0.003906c23.258-9.2148 47.098-16.895 71.363-22.988l3.4688-0.9375-0.16797-1.0391h-0.003907c-1.2695-7.4844-3.3125-14.816-6.0938-21.883z"/>
  <path d="m772.43 882.43c-0.75391 0.30469-1.5508 0.48437-2.3633 0.53516l-1.1719 0.066406 0.77734 13.914 1.6133-0.83594c26.617-12.684 55.109-20.961 84.375-24.516l1.6133-0.24219-0.75-1.4609c-1.875-3.5352-3.8711-7.2656-6.2344-11.43l-0.44141-0.79688-9.6562 2.6328c-23.109 5.6641-45.762 13.062-67.762 22.133z"/>
  <path d="m835.68 576.17c-0.32031-2.7266-0.62891-5.4648-0.88281-8.1953l-0.10156-1.1719-1.1719 0.11328c-7.7812 0.72266-15.844 1.125-23.973 1.1719h-4.1992l3.6016 2.1484h-0.003906c8.2031 4.7852 16.801 8.8633 25.699 12.188l1.7891 0.69531-0.20703-1.875c-0.16797-1.7188-0.36328-3.3945-0.55078-5.0742z"/>
  <path d="m819.62 705c5.832-2.1641 11.316-4.4727 16.762-7.0117l1.875-0.87109-1.7148-1.1641c-5.1875-3.5977-11.078-6.0547-17.285-7.2109l-0.36719-0.074219-0.34766 0.16797c-1.0586 0.51562-2.1367 0.99219-3.207 1.4727l-2.2773 1.0234 0.38281 1.0234c0.86328 2.3516 1.8008 4.6875 2.7266 7.0312 0.65625 1.6484 1.3047 3.2891 1.9492 4.9414l0.41406 1.0781z"/>
  <path d="m841.4 677.27-1.6211 0.85156c-3.6562 1.9297-7.3203 3.8633-11.035 5.6914l-2.3906 1.1914 2.4922 0.9375c4.0938 1.5938 7.9805 3.6836 11.57 6.2227l1.4141 0.99219 0.39453-1.6875v0.003906c1.0625-4.25 0.92578-8.7148-0.39453-12.891z"/>
  <path d="m693.47 520.82 0.28125 1.1797 1.1719-0.26172c3.9336-0.85938 6.4844-4.6719 5.7852-8.6367 0-2.4102-0.13281-4.8203-0.27344-7.1523-0.074219-1.1172-0.14062-2.2227-0.1875-3.3281l-0.10156-2.3711-1.875 1.5273c-1.3594 1.1523-2.7266 2.2891-4.0859 3.4297l-4.6875 3.9102 0.78906 0.9375h-0.003906c0.22266 0.26172 0.39062 0.56641 0.49609 0.89062 1.1055 3.2305 2.0039 6.5312 2.6914 9.875z"/>
  <path d="m860.18 439.36 0.66406-1.0039c0.60156-0.88281 1.2109-1.7891 1.7539-2.8125 0.71094-1.3398 1.4453-2.8125 2.1484-4.1992 1.9688-3.6484 3.9844-7.707 6.1133-12.008 1.2188-2.4648 2.4766-5.0156 3.8047-7.6328l0.9375-1.8086-0.21484-0.49609c-0.46094-1.1328-0.9375-2.2578-1.4062-3.375-0.46875-1.1172-0.9375-2.2227-1.4141-3.3555l-0.41406-1.0117-1.0312 0.34766c-2.4766 0.81641-4.9688 1.5859-7.5 2.3516v-0.003907c-12.188 2.8164-23.621 8.2305-33.516 15.875-0.27344 0.22656-0.54297 0.40234-0.83594 0.60156l-0.5625 0.36719v0.67578-0.003906c0.96094 15.547 4.293 30.859 9.8828 45.402 0.042968 0.19531 0.10156 0.39062 0.17578 0.58203l0.14844 0.25391 0.003906-0.003907c2.3945 3.0977 5.0039 6.0195 7.8086 8.75 3.4219 3.2695 7.1367 6.2266 11.09 8.8281 3.2422 2.0703 6.6719 3.8359 10.238 5.2812 2.082 0.83594 3.9648 1.4727 5.5391 2.0078 1.4062 0.47656 2.9609 1.0039 3.6953 1.293v-0.003907c-3.3359 0.94141-6.8477 1.0625-10.238 0.35938-4.1953-0.71484-8.2539-2.0781-12.027-4.043-4.6406-2.4492-8.9062-5.5469-12.676-9.1953-1.5156-1.4766-2.9453-3.043-4.2734-4.6875l-0.74219-0.9375-0.9375 0.75781c-1.1836 0.98047-2.7109 1.4414-4.2383 1.2773h-2.0547l0.35547 1.4531h0.003906c1.1953 5.0273 2.6641 9.9883 4.4062 14.859 1.7578 4.8008 3.957 9.4336 6.5625 13.836 2.1211 3.4961 4.6914 6.6992 7.6406 9.5352 1.8438 1.7773 3.8008 3.4297 5.8594 4.9492 0.75781 0.57031 1.5742 1.1992 2.1094 1.668h-0.1875c-3.6055-0.32812-7.0703-1.5625-10.07-3.5898-3.8945-2.4805-7.3008-5.6602-10.051-9.375-3.2656-4.5742-5.9023-9.5664-7.8438-14.84-1.9922-5.6641-3.3867-11.523-4.1641-17.477l-0.13281-1.0781-1.0859 0.054687c-18.402 0.9375-42.723 7.9688-55.566 21.562l-0.51562 0.54297 0.27344 0.69531c1.1992 3.0195 2.5859 6.1133 3.918 9.1133 4.9062 9.1719 7.8594 19.258 8.6797 29.625-0.011718 1.4219-0.125 2.8438-0.34375 4.2461l-0.09375 0.64844 0.50781 0.42188h-0.003906c3.3789 2.8359 6.4062 6.0586 9.0195 9.6094l0.35547 0.46875 0.64844 0.054688c5.2031 0.21484 11.09 0.38281 17.398 0.38281v0.003906c18.102 0.33984 36.168-1.7031 53.738-6.0742l8.6328-2.3984-8.9531 0.10156c-5.1172 0.054688-9.4492 0-13.734-0.26172v-0.003906c-9.9062-0.41016-19.711-2.1484-29.156-5.1719-7.8047-2.5469-15.062-6.5312-21.391-11.758-4.2031-3.4805-7.75-7.6836-10.473-12.414-0.64844-1.2383-1.0781-2.1758-1.3672-2.8672 0.5625 0.52344 1.3125 1.2852 2.2891 2.3711 0.48828 0.44141 0.99219 0.9375 1.5273 1.4453h-0.003906c3.1562 3.1367 6.6094 5.9648 10.312 8.4375 6.3945 4.168 13.391 7.332 20.746 9.375 9.1094 2.4453 18.461 3.8867 27.883 4.3008 2.0078 0.10156 3.9844 0.28125 5.9531 0.44922 2.9258 0.26172 5.9336 0.52344 8.8516 0.52344v0.003906c0.50781 0.027344 1.0078 0.11328 1.5 0.25391 0.73047 0.19531 1.4805 0.30078 2.2383 0.30859h1.0586l0.10156-1.0508 2.3242-0.39453c1.0117-0.13281 1.9961-0.26172 2.9805-0.35547h0.003906c0.71484-0.074219 1.4219-0.22656 2.1016-0.45703 0.32031-0.11328 0.64844-0.20703 0.98438-0.28125 7.2734-1.7695 14.074-5.1055 19.922-9.7812l0.9375-0.76953v0.003906c2.2852-2.6094 4.2773-5.4648 5.9336-8.5156 0.11328-0.1875 0.21484-0.34766 0.32812-0.50781l0.44141-0.64844v-0.36719 0.007812c-0.85547-21.258-4.5508-42.305-10.988-62.578l-2.2773 0.50781v-0.003906c0.81641 5.6953 1.3477 11.426 1.582 17.176 0.73437 9.207-0.45703 18.465-3.4961 27.188-1.3164 3.4492-3.4609 6.5195-6.2422 8.9453-2.1445 1.707-4.7148 2.7852-7.4336 3.1211-1.2109 0.097657-2.4258 0.074219-3.6289-0.066406 0.9375-0.21484 2.1016-0.53516 3.5352-1.0117 2.2305-0.83203 4.2383-2.1719 5.8672-3.9102 2.043-2.4336 3.5312-5.2852 4.3594-8.3516 1.9453-8.3984 2.4258-17.062 1.4258-25.625-0.96094-10.711-2.582-21.359-4.8477-31.875-1.5195-7.0586-2.9609-13.125-4.3789-18.582l-0.73047-2.8125-1.4258 2.5234c-1.8203 3.2148-3.9648 6.9648-6.1953 10.387-0.85156 1.4258-1.7266 2.8125-2.5781 4.1055-0.48828 0.72266-1.0391 1.3984-1.5859 2.0703-0.42188 0.51562-0.83594 1.0312-1.1719 1.4805l-1.9961 2.4453c-1.1445 1.3867-2.2109 2.6992-3.1406 3.8047v0.007813c-2.9961 2.9023-6.168 5.6172-9.4961 8.1289 1.9492-2.9453 5.832-7.8477 7.5-9.918 1.207-1.9805 2.6055-4.1094 4.0312-6.4609z"/>
  <path d="m649.24 543.5-0.80469 0.69531c-0.36719 0.30859-0.73047 0.63672-1.0977 0.9375-0.36719 0.30078-0.70313 0.62891-1.0586 0.9375l-0.9375 0.77734 0.78906 0.89062h-0.003906c3.4375 3.6914 8.332 5.6641 13.367 5.3906 6.2227-0.16016 12.305-1.8633 17.703-4.9609 14.062-8.2109 11.41-21.254 7.8086-32.812l-2.2695 0.55469c0.078125 0.45703 0.078125 0.92188 0 1.3789-0.42188 2.2773-0.66406 4.6875-0.9375 7.2734 0.34766 7.5117-2.2891 14.852-7.3398 20.418-3.4688 2.8789-7.8633 4.3945-12.367 4.2656-4.5039-0.13281-8.8047-1.8945-12.102-4.9688z"/>
  <path d="m665.83 541.88c3.6562-1.2109 6.4375-4.207 7.3789-7.9414 0.85937-3.2578 1.4375-6.5859 1.7227-9.9453l0.32031-2.9258-2.2422 1.875c-5.8516 4.9766-11.766 10.012-17.559 15l-1.0508 0.9375 1.0859 0.87109h0.003907c2 1.6445 4.5039 2.5508 7.0938 2.5586 1.0977 0.027343 2.1914-0.12109 3.2461-0.42969z"/>
  <path d="m781.41 455.79 0.35547-1.6953c0.60938-1.332 1.2734-2.7109 1.9609-4.1172 1.6055-3.4688 3.0273-7.0195 4.2578-10.641 1.6562-4.8164 2.332-9.918 1.9961-15l-0.21484-2.2695-1.7148 1.5c-13.012 11.25-26.137 22.855-38.82 34.051-9.8047 8.6484-19.625 17.281-29.457 25.895-1.7422 1.4922-3.4883 2.9922-5.2305 4.5l-5.2305 4.4805-0.81641 0.9375 0.85156 0.9375c2.1875 3.5781 5.9453 5.9102 10.125 6.2812l0.60156 0.10156 0.42969-0.42969c0.78125-0.72266 1.8242-1.0977 2.8867-1.0391 9.9648-0.44531 19.812-2.3242 29.238-5.5781l4.2734-1.2578 0.24219-0.30859 0.22656-0.34766 0.19531-0.26172h0.003907c8.2656-8.793 18.566-15.414 30-19.273l0.72266-0.27344v-0.76953c0.14844-3.3359 0.30859-6.5625 0.46875-9.543l0.28125-5.4922-2.5039 4.9023c-1.0977 2.1484-2.1836 4.2852-3.2422 6.4023-0.70312-0.64844-1.4141-1.2734-2.1289-1.875l-2.4375-2.1836-0.60938 1.2734c-1.3828 2.7539-3.3711 5.1562-5.8203 7.0234-2.0703 1.5781-4.2656 2.9883-6.5625 4.207l-4.3047 2.3438c-1.7344 0.9375-3.4297 1.875-5.1094 2.8125-0.27344-1.125-0.5625-2.2305-0.84375-3.3359l-0.9375-3.6172-1.4609 1.668c-2.2773 2.6328-4.8633 4.9844-7.6992 7.0039-3.5352 2.5391-7.3828 4.6172-11.445 6.1875-2.207 0.91016-4.5039 1.5781-6.8555 1.9961 1.1523-0.84375 3.0859-2.082 5.2031-3.4297l0.71094-0.44922 0.003906-0.003906c3.4805-2.2031 6.7852-4.6758 9.8789-7.3945 4.5547-3.9766 8.2227-8.8633 10.766-14.344l2.8125-6.1016 2.4297 8.2031-0.003906-0.003906c0.074219 0.27734 0.11719 0.55859 0.12109 0.84375l0.40234 1.4609 0.13281 0.28125c0.074219 0.14062 0.13281 0.28125 0.30078 0.61719l0.64844 1.3398 1.1445-0.9375c0.28906-0.23437 0.63672-0.47656 0.89062-0.66406l-0.003906 0.003906c1.957-1.1211 3.8164-2.4023 5.5625-3.8242 1.6094-1.293 2.918-2.9258 3.8242-4.7812 0.69141-1.832 0.71484-3.8477 0.066406-5.6914l-0.75781-2.3828 7.9297 0.44922zm-1.875-2.2109h0.14844l-0.46875 0.42969h0.003906c-0.089844-0.054688-0.16016-0.12891-0.21484-0.21484z"/>
  <path d="m755.08 530.8 0.25391 0.16016v0.49609h0.84375l0.46875 0.12109c0.26172 0.09375 0.53125 0.16406 0.80469 0.20703 0.22656 0.054688 0.9375 0.16797 1.0977 0.1875h1.1992c0.14844 0.007813 0.30078 0.007813 0.44922 0h0.78906l0.12109-0.12109v-0.003907c0.83594-0.16016 1.6562-0.38672 2.457-0.68359 0.19531-0.085938 0.51562-0.25391 0.9375-0.46875l1.3867-0.75781-0.44922-1.4531c-0.35547-1.1914-0.74219-2.4102-1.1797-3.6367l-0.46875-1.2734-1.1914 0.64844v-0.003906c-0.55859 0.30859-1.1836 0.47656-1.8203 0.47656-1.9062 0.035156-3.7891 0.39062-5.5781 1.0508l-0.75781 0.28906v0.17969l-0.23437 0.12109-0.30078 0.13281 0.14844 0.48828h-1.0586v1.5664l0.25391 0.50781v-0.003906c0.12109 0.18359 0.25391 0.35547 0.40234 0.51562 0.13672 0.16797 0.27734 0.32812 0.42969 0.47656v0.22656zm-1.5-3.6758c0.14062-0.089844 0.30078-0.14453 0.46875-0.16016l0.20703 0.71094z"/>
  <path d="m757.5 508.85c-1.0586-2.3164-2.0156-4.3789-2.7266-6.0547l-0.41406-0.9375-1.0039 0.28125v-0.003907c-6.3867 2.0117-12.906 3.5781-19.508 4.6875l-1.1641 0.16797 0.17969 1.1719c1.7422 11.41 6.3672 41.551 22.68 41.551h0.50781-0.003906c2.6602 0.24219 5.3086-0.58594 7.3594-2.3008s3.332-4.1758 3.5625-6.8398l0.21484-1.8086-1.7266 0.55469h0.003907c-3.3789 1.3984-7.1289 1.6016-10.637 0.58203-3.5078-1.0234-6.5625-3.2148-8.6602-6.207-2.4102-3.7422-2.1328-8.6172 0.69531-12.059 3.2188-3.3594 7.7031-5.2109 12.355-5.0977l1.6602-0.12109-0.67578-1.5195c-0.97266-2.2031-1.8828-4.2109-2.6992-6.0469z"/>
  <path d="m821.2 406.49h-1.3516l0.82422 1.6797v-0.003906c0.082031 0.16406 0.17578 0.32031 0.28125 0.46875l0.19531 0.26172 1.0781 1.0977 0.82422-0.65625h0.003906c4.1602-3.3125 8.6836-6.1406 13.48-8.4375l0.79688-0.38281-0.14062-0.86328c-0.90625-4.2383-2.1758-8.3906-3.7969-12.414-3.4961-9.4414-7.0859-19.211-1.4141-27.488v0.003906c6.2812-8.9961 15.219-15.793 25.562-19.445l2.0156-0.71094-2.043-1.5664c-0.14844-0.10156-0.28906-0.21094-0.42188-0.32812-2.9062-2.6875-6.543-4.4648-10.453-5.1016-3.9062-0.63672-7.918-0.11328-11.531 1.5117-13.488 6.543-22.852 19.355-24.984 34.199l-0.054688 0.64844 0.52344 0.39453c5.4297 4.0859 22.145 18.906 10.605 37.133z"/>
  <path d="m702.61 877.43 0.25391 1.4141c0.39453 3.9805 3.7734 6.9922 7.7695 6.9297 1.8477 0.19922 3.6992-0.375 5.1055-1.5898 1.4102-1.2109 2.25-2.957 2.3203-4.8125l0.11328-1.1992-1.1992-0.074219c-4.3203-0.25391-8.6445-0.46094-12.91-0.61719z"/>
  <path d="m448.12 1066.8-1.3516 0.375c-6.875 1.7227-13.957 2.4883-21.047 2.2695h-0.73047l-0.32031 0.65625h0.003907c-1.2539 2.418-3.0859 4.4883-5.3359 6.0273l-1.4609 1.0859 5.7266 3.207c5.082 2.8672 10.312 5.8398 15.684 8.5039l1.0586 0.76953 0.67578-0.58984c5.8086-5.293 8.5312-13.176 7.2305-20.926z"/>
  <path d="m399.38 1124.3h-2.2695c-13.609 1.1133-27.312 0.14453-40.629-2.8672l-1.0586-0.35547-0.40234 1.0312-0.003906-0.003906c-0.12109 0.36328-0.30469 0.69922-0.54297 0.99609-7.8711 6.4453-14.418 14.355-19.273 23.297l-0.75781 1.5 1.668 0.1875h-0.003907c3.4258 0.39844 6.8672 0.59766 10.312 0.58984 15.352-0.42188 30.562-3.0547 45.16-7.8203l0.73047-0.20703 0.085937-0.76953v0.003906c0.023437-0.27734 0.089844-0.55078 0.19531-0.80859 1.875-4.2578 3.8359-8.6719 5.9453-13.051z"/>
  <path d="m541.06 918.38 0.67578-0.35547c5.0234-2.6719 10.023-5.625 14.859-8.6719l1.1055-0.71094-0.83594-1.0234h0.003907c-12.93-14.676-27.457-27.859-43.312-39.309-18.848-13.172-35.492-29.238-49.324-47.605l-0.76953-1.1445-1.0117 0.9375c-1.7734 1.6797-3.5078 3.4219-5.2227 5.1562l-2.6719 2.6797 0.53516 0.80469v0.003906c7.4922 10.07 16.746 18.703 27.309 25.48 7.6211 5.1836 14.711 11.105 21.172 17.68 5.2227 5.9883 10.035 12.324 14.398 18.969 6.1719 9.918 13.75 18.891 22.5 26.633z"/>
  <path d="m405.86 1124.3h-0.72266l-0.32031 0.64844c-1.7617 3.5547-3.4766 7.3398-5.2695 11.559l-0.99219 2.3633 2.4375-0.78906c6.3477-2.0547 12.543-4.2188 18.555-6.3086 3.2812-1.1523 6.4961-2.2773 9.6367-3.3477l3.6758-1.2461-3.75-0.99219v-0.003906c-7.6445-1.5703-15.453-2.2031-23.25-1.8828z"/>
  <path d="m457.2 999.29-0.99219-0.085937-0.24219 0.9375-0.003906 0.003906c-3.8438 12.184-9.5352 23.703-16.875 34.16-5.6992 8.4727-10.586 17.461-14.594 26.852l-0.21484 0.54297 0.30859 0.49609c0.22656 0.39063 0.42969 0.78906 0.60937 1.2031l0.30859 0.69531h0.75781v-0.003906c6.1953 0.17188 12.387-0.40625 18.441-1.7227l0.81641-0.20703 0.066407-0.85156v-0.003906c0.054687-0.73828 0.21875-1.4648 0.48437-2.1562 1.875-4.7539 3.957-9.543 5.9531-14.164 6.4375-13.59 11.348-27.852 14.645-42.523 0.10156-0.41406 0.22266-0.82031 0.36719-1.2188l0.52344-1.5469h-1.6211c-2.6445 0.007813-5.5039-0.13281-8.7383-0.40625z"/>
  <path d="m511.55 903.15c-4.1016-6.0352-8.5352-11.836-13.281-17.379l-0.63672-0.71094-1.875 1.0391h-0.003907c-1.8242 0.85156-3.7578 1.4609-5.7461 1.8086-3.2695 0.72656-6.6602 0.70312-9.918-0.066406 1.293-0.62109 2.6172-1.1758 3.9648-1.6602 1.4062-0.54297 3.0469-1.1719 4.8203-1.9297 1.3555-0.55469 2.668-1.2188 3.918-1.9883l1.3125-0.80469-1.1172-1.0508c-0.35547-0.33594-0.68359-0.66406-1.0234-1.0039-0.46875-0.48828-0.9375-0.9375-1.5273-1.4727l-0.42969-0.34766c-0.54297-0.42969-1.0703-0.83594-1.5742-1.2734l-0.44141-0.23438c-1.1992-0.40234-2.418-0.73438-3.6562-0.99219-2.7617-0.44922-5.5469-0.74219-8.3438-0.87109-1.875-0.12109-3.8711-0.25391-5.8047-0.46875h0.003906c-4.2578-0.35156-8.3906-1.6133-12.113-3.7031-2.4609-1.4023-4.5391-3.3867-6.0586-5.7773-0.27344-0.51172-0.5-1.0508-0.68359-1.6016 0.54688 0.24219 1.0781 0.52344 1.5859 0.84375l0.53516 0.28906c1.9766 1.1484 4.0625 2.0898 6.2344 2.8125 3.5508 1.0469 7.2383 1.5547 10.938 1.5h7.3984l-2.8125-2.1094c-10.652-7.3047-20.238-16.055-28.48-25.996l-0.49609-0.66406-0.78906 0.25391c-8.2969 2.6797-11.633 10.312-9.6367 22.051l0.12109 0.72266 0.70312 0.20703c13.059 3.8516 24.289 23.832 31.727 37.059 1.2109 2.1484 2.3164 4.125 3.3281 5.8398v-0.003906c10.711 16.867 17.445 35.953 19.688 55.809l0.14063 1.1523 1.1523-0.13281c11.84-1.3125 18.516-13.754 23.391-22.848v0.003907c0.375-0.71484 0.88672-1.3516 1.5078-1.875l0.30859-0.39453c0.37109-0.85938 1.0039-1.582 1.8125-2.0625l1.9609-1.1797-2.1016-0.9375c-11.023-4.8516-21.207-11.414-30.18-19.445-3.2578-3.1211-6.1211-6.6289-8.5312-10.441 1.9961 1.0508 5.8867 3.8438 9.957 6.7695l1.2578 0.9375c1.875 1.2383 4.0781 2.5781 6.3281 3.957 0.67578 0.42969 1.3594 0.88281 2.0547 1.3398l1.4727 0.9375c1.2734 0.66406 2.6055 1.3867 3.9453 2.1016l0.46875 0.25391c2.5703 1.3594 5.2305 2.8125 8.0625 4.3047l3.918 1.7734c1.7812 0.80469 3.6172 1.6211 5.4766 2.4844l2.457 1.1172 2.2109 0.77734 0.32031-0.066407c0.39453-0.082031 0.80469-0.15625 1.2383-0.22656l1.0977-0.17969 2.3633-0.44922-1.8008-1.5859-0.007813-0.003906c-7.625-7.2539-14.371-15.379-20.109-24.207z"/>
  <path d="m451.39 976.08c-7.5-4.332-15.84-7.0078-24.457-7.8477h-0.11328c-3.0078 0-10.996 1.5391-11.973 5.1641-0.47656 1.7734 0.66406 3.4492 3.3828 4.9883 9.6875 4.8281 20.055 8.1445 30.742 9.8359 7.8281 1.4219 15.516 3.5078 22.988 6.2422l0.9375 0.085937 0.28125-0.16797c0.43359-0.26172 0.89453-0.47656 1.3789-0.63672 0.34375-0.085938 0.67969-0.20703 1-0.35938l1.875-0.73047-1.5547-1.2656c-7.5547-6.0117-15.773-11.148-24.488-15.309z"/>
  <path d="m481.07 978.12-0.34766-0.066406c-7.7383-2.2383-15.219-5.2852-22.324-9.082-14.062-6.7031-28.547-13.648-37.594-11.645l-0.83594 0.17969-0.074219 0.85156h0.003907c-0.10938 0.95703-0.41016 1.8828-0.89063 2.7188l-1.3203 2.4102 2.6523-0.70312c17.926-4.7734 46.555 14.062 60.656 25.895l0.9375 0.81641 0.73047-1.0312v-0.003906c2.375-3.1719 1.7656-7.668-1.3711-10.094z"/>
  <path d="m437.62 1100.5-0.77734-0.054687v-0.003906c-5.4922-0.23047-10.934 1.1094-15.691 3.8555-4.7617 2.7461-8.6406 6.793-11.188 11.66l-1.1719 1.7617h2.1289c9.1445-0.29297 18.211 1.7734 26.324 6l1.2266 0.75 0.47656-1.3672h0.003906c2.2148-7.207 1.832-14.965-1.0781-21.918z"/>
  <path d="m374.16 1091-0.32031 0.75781c-0.57422 1.2695-1.5664 2.3008-2.8125 2.9258-2.7383 1.4727-6.1602 3.1016-9.7891 4.8281-3.3086 1.5742-6.8906 3.2734-10.508 5.1172l-0.63672 0.32031v0.72266c-0.035156 0.77344 0.023437 1.5469 0.16797 2.3047 0.042969 0.30469 0.14844 0.59375 0.30078 0.85547 2.4766 8.2031 14.859 10.039 27.289 10.039 5.9531 0 11.906-0.42188 16.809-0.76953 3.168-0.22656 5.8984-0.41406 7.7344-0.42187h0.65625l0.33594-0.57031h0.003907c3.8945-7.4102 9.6602-13.672 16.727-18.16l2.8125-1.5859-3.1406-0.58984c-14.781-2.8555-29.73-4.7656-44.758-5.7188z"/>
  <path d="m439.73 1095.3-7.0391-3.75c-3.5547-1.875-7.0703-3.918-10.594-5.9336-12.598-8.375-26.738-14.152-41.598-16.988l-1.0703-0.13281-0.22656 1.0508 0.003907 0.003906c-0.32813 1.6016-0.55859 3.2227-0.69531 4.8555 0.34375 3.3672 0.023437 6.7734-0.9375 10.02l-0.42969 1.4141 1.4727 0.10156-0.003906 0.003906c17.93 1.4375 35.746 4.0352 53.336 7.7812z"/>
  <path d="m420.36 1066.1h-0.9375l0.9375-0.14063-0.20703-0.42969-0.09375-0.88281-0.24219-0.14062-0.12109-0.30078h-0.375v0.003906c-0.15234-0.11719-0.28906-0.25391-0.40234-0.40625l-0.50781-0.375c-0.52344-0.31641-1.0781-0.57422-1.6602-0.76562-2.3984-0.79688-5.0195-0.59375-7.2656 0.57031-2.3164 1.3633-3.9805 3.6094-4.6016 6.2266l-0.28906 0.9375 0.9375 0.42188c2.2891 1.0703 4.5273 2.1953 6.7891 3.3672l0.9375 0.51562 0.5625-0.9375-0.003906-0.003906c0.23047-0.38672 0.55078-0.70703 0.9375-0.9375 1.7734-1 3.332-2.3398 4.5859-3.9453 0.35156-0.46484 0.64062-0.97656 0.85937-1.5195l0.10156-0.34766-0.9375-0.47656v-0.19531z"/>
  <path d="m450.32 999.9 0.36719-1.293-1.332-0.1875c-11.25-1.5195-22.367-4.0312-30.555-5.8789l-1.2109-0.27344-0.20703 1.2188v0.003906c-0.10156 0.26172-0.25 0.50391-0.42969 0.72266-0.42188 0.46484-0.69922 1.0469-0.79688 1.668-1.4336 4.5-2.6445 9-3.8047 13.352v-0.003907c-2.3281 11.18-6.4961 21.891-12.34 31.699l-0.57031 0.85156 0.77734 0.67578c4.0859 3.6875 7.5977 7.9648 10.426 12.684 0.16016 0.32031 0.28125 0.66016 0.35547 1.0117l0.26172 0.9375 1.0039-0.11328v0.003906c2.2227-0.24219 4.4688 0.039063 6.5625 0.8125l1.0312 0.36719 0.44141-1.0039c3.7891-8.1523 8.1758-16.016 13.125-23.52 7.2148-10.379 12.906-21.738 16.895-33.734z"/>
  <path d="m348.5 1121.4 0.61719-0.57031-0.33594-0.76953c-0.62109-1.4922-1.1562-3.0234-1.5938-4.582l-0.16016-0.33594v-0.003906c-1.1367-1.6445-1.875-3.5312-2.1641-5.5117l-0.25391-1.6953-1.4805 0.86328c-18.75 10.875-26.523 22.211-23.926 34.688l0.13281 0.61719 0.58984 0.23438c2.7109 1.0391 5.5 1.8789 8.3359 2.5117l0.9375 0.19531 0.39453-0.84375h-0.003906c4.582-9.4453 11.012-17.879 18.91-24.797z"/>
  <path d="m385.81 1054.1-0.30078 0.42188c-1.6445 2.2695-3.0117 4.7266-4.0781 7.3203l-0.58203 1.3867 1.4805 0.21484 0.003906 0.003906c5.3086 0.82422 10.512 2.2148 15.523 4.1523l1.5664 0.58203v-1.668c0.12891-3.5703-1.3008-7.0156-3.918-9.4414-2.4922-2.2734-5.8359-3.375-9.1875-3.0273z"/>
  <path d="m403.2 1059.6 0.60938 1.4141 1.1992-0.9375c0.24219-0.1875 0.46875-0.375 0.74219-0.5625l3.1211-2.1367h-3.1953c-2.2852-3.9336-5.1289-7.5195-8.4375-10.641l-0.68359-0.61719-0.75781 0.52344h-0.003906c-0.875 0.60938-1.8711 1.0195-2.9258 1.1992l-4.5742 0.79688 4.4141 1.4727h0.003907c4.7031 1.4922 8.5312 4.9531 10.488 9.4883z"/>
  <path d="m766.07 1124.4-2.3906-2.1094c-6.2461-5.1719-12.027-10.883-17.281-17.062l-1.4727-1.875-1.6797 6.5625h0.003906c-1.9258 6.8633-3.4492 13.828-4.5664 20.867l-0.074219 0.5625 0.38281 0.40234v0.003907c1.8984 1.9844 4.0156 3.75 6.3125 5.2578l0.75781 0.50781 0.67578-0.61719v-0.003906c5.043-4.9922 10.969-9.0039 17.484-11.82z"/>
  <path d="m881.56 568.94c0.42188-4.0039 0.85156-8.1484 1.5273-12.188l0.36719-2.1562-1.9961 0.89062c-2.1016 0.9375-4.6133 2.0234-7.2656 3.0078l-0.84375 0.30078 0.085938 0.9375h-0.003906c0.94922 9.6758 0.78906 19.426-0.46875 29.062l-0.35547 2.6172 2.1836-1.4805v-0.003906c3.1914-2.4609 5.1836-6.1602 5.4844-10.18 0.54687-3.6094 0.92187-7.2656 1.2852-10.809z"/>
  <path d="m891.46 647.13-0.33594-1.875-1.5 1.0977c-0.86328 0.61719-1.707 1.2656-2.5508 1.875-1.0391 0.78906-2.082 1.5859-3.1484 2.3438l-1.6016 1.1328 1.7734 0.87109c2.8125 1.3789 6.1211 2.9727 9.5078 4.3867l3.7969 1.5938-2.3906-3.3555h-0.007813c-1.7578-2.3984-2.9688-5.1523-3.543-8.0703z"/>
  <path d="m881.74 657.52-2.0625-1.0117 0.38281 2.2578v0.003907c0.55859 3.5859 0.64062 7.2266 0.24609 10.836l-0.24219 2.5391 2.0898-1.4727c3.1406-2.2109 6.2344-4.4805 9.2617-6.7422l1.6211-1.2188-1.875-0.79688c-2.8047-1.207-5.7188-2.5664-9.4219-4.3945z"/>
  <path d="m874.37 657.35-1.4531 0.9375c-4.1523 2.8125-8.7266 5.7109-14.391 9.1602l-1.875 1.1719 2.0547 0.9375c4.5977 2.0508 9.0039 4.5 13.172 7.3203l0.57031 0.38281 0.60938-0.30078v0.003907c0.19141-0.089844 0.36719-0.20313 0.52734-0.33984l0.27344-0.25391 0.085937-0.35547h-0.003906c1.418-5.5352 1.6719-11.309 0.75-16.949z"/>
  <path d="m967.97 248.86c-0.22656-0.33594-0.44922-0.62891-0.73047-0.9375l-0.75781-0.9375-0.9375 0.76953h-0.003907c-14.395 12.906-29.809 24.629-46.094 35.051-13.887 8.875-26.91 19.027-38.906 30.32-3.75 3.3281-7.5469 6.6758-11.43 9.9844l-2.3711 2.0234h3.1133c3.7656 0.22656 7.1602 2.3438 9.0156 5.625l0.65625 0.9375 0.9375-0.66406c31.852-22.668 62.391-47.117 91.484-73.227l0.77734-0.68359-0.58203-0.85156v-0.003906c-1.5625-2.3672-2.957-4.8438-4.1719-7.4062z"/>
  <path d="m908.2 632.34-0.69531-0.46875-5.0352 4.2461v0.46875c-0.054688 0.375-0.13281 0.75-0.23438 1.1172-2.1562 4.3672-1.3359 9.6211 2.0547 13.125 0.27344 0.30859 0.48828 0.61719 0.71094 0.9375l0.76953 1.0859 0.9375-0.81641c1.293-1.0742 2.5938-2.1445 3.8984-3.207l3.6484-3 0.44922-0.38281v-0.58984c-0.070313-4.9648-2.4805-9.6055-6.5039-12.516z"/>
  <path d="m986.13 238.93c-1.1016-2.5352-3.0508-4.6055-5.5117-5.8594l2.0156-0.65625h-3.5273c-1.3477-0.54297-2.8594-0.54297-4.207 0-0.085938 0.019532-0.16797 0.050782-0.24609 0.085938-0.19531 0.078125-0.375 0.19141-0.53516 0.32812l-0.9375 0.52344 0.98437 0.79688v0.125c-0.082031 0.53906-0.082031 1.0898 0 1.6289 0.42578 2.5234 1.1406 4.9844 2.1289 7.3398l0.36719 0.71094h0.16797v0.003906c1.457 2.0547 2.75 4.2188 3.8633 6.4766l0.62891 1.2852 1.1328-0.87109c3.5703-2.832 5.0312-7.5664 3.6758-11.918z"/>
  <path d="m867.82 900.19-6.3828 1.0391h-0.003906c-17.766 2.0703-35.172 6.5312-51.75 13.258l-2.418 1.0859c-12.648 6.2969-25.961 11.176-39.684 14.543l-1.1523 0.24219 0.24219 1.1523c0.53125 5.7773 3.4414 11.07 8.0352 14.609 1.457 0.82812 3.1055 1.2539 4.7812 1.2344 1.4648-0.019531 2.918-0.27344 4.3047-0.75781 5.3516-1.7539 10.613-3.9922 15.711-6.168 6.4531-2.9375 13.102-5.4141 19.902-7.418 3.0859-0.83594 7.0859-1.5273 11.324-2.2695 12.027-2.1016 26.98-4.6875 33.375-12.441v0.003906c3.5781-4.8438 4.9766-10.961 3.8555-16.875z"/>
  <path d="m757.5 946.73-0.60156-1.6016v-0.003906c-2.5586-7.8555-4.207-15.98-4.9102-24.215l-0.16016-1.3047-1.2734 0.30078c-14.109 2.9414-28.535 4.0703-42.93 3.3555l-3.75-0.074218 3.0859 2.2031c13.789 9.8633 29.43 21.047 48.863 21.32z"/>
  <path d="m401.55 762.11c8.5977-7.8008 17.484-15.871 25.93-24.16l0.84375-0.82422-1.1914-1.125c-0.0625-0.12109-0.11328-0.24609-0.14844-0.375l-0.22656-0.46094c-3.4414-4.4609-6.7578-9.1133-9.9844-13.613l-2.8125-3.8984-0.9375 0.9375c-43.836 43.66-81.664 84.555-115.63 125.02-2.4492 2.918-4.9492 5.8828-7.5 8.8867-36.648 43.406-82.266 97.426-75.629 156.98l0.50781 4.5078 1.7422-4.1914 0.003906 0.003906c22.41-53.09 52.477-102.61 89.242-146.98 21.352-25.969 43.992-50.848 67.836-74.551 9.0195-8.9727 18.656-17.711 27.957-26.156z"/>
  <path d="m837.03 942.44c-5.1953 1.0234-10.117 1.9883-14.156 3.1484-5.1641 1.7539-10.203 3.8633-15.074 6.3203-9.0156 4.9453-18.816 8.2969-28.969 9.9102h-0.61719l-0.32031 0.54297c-0.74609 1.3047-1.5742 2.5547-2.4844 3.75l-0.67578 0.89062 0.85156 0.72266h0.003907c10.391 10.262 24.117 16.465 38.688 17.484 3.0117-0.007813 6.0156-0.32422 8.9648-0.9375l0.76953-0.24219 0.16016-0.73047-0.003907-0.003906c0.054688-0.17188 0.082032-0.35156 0.085938-0.53516l0.085938-0.30078c0-0.16016 0.085937-0.32031 0.12109-0.47656v-0.33594c-0.0625-1.3359 0.36328-2.6445 1.1992-3.6875 1.3516-1.875 2.8125-3.6836 4.2109-5.5508v0.003906c7.9336-8.2539 13.098-18.777 14.766-30.105l0.054688-1.4922-1.4727 0.30078c-2.0625 0.51562-4.1523 0.92969-6.1875 1.3242z"/>
  <path d="m756.23 904.74 0.80469-0.32031-0.054688-0.85156c-0.10156-1.5391-0.1875-3.0859-0.28125-4.6875-0.09375-1.6016-0.17969-3.1133-0.27344-4.6875l-0.09375-1.3203-1.3047 0.25391c-4.7734 1.457-9.9258 1.0312-14.398-1.1836-3.418-2.7227-5.0078-7.1406-4.1055-11.418l0.074219-1.1719-1.1719-0.085938c-3.543-0.25391-7.0859-0.50781-10.641-0.72266l-1.1641-0.066406-0.074219 1.1641v0.003907c-0.30469 6.4375-5.6094 11.5-12.055 11.5h-0.76172c-7.0703-0.15625-12.867-5.6562-13.395-12.711l-0.09375-1.0586h-1.0586c-3.9766-0.054687-7.9766-0.054687-11.953 0h-1.4336l0.30859 1.4062c1.0586 3.0234 0.94922 6.332-0.30078 9.2812-2.8945 3.7695-7.3086 6.0703-12.059 6.2812-2.7344 0.27344-5.4531-0.6875-7.4062-2.625-2.7344-3.4336-3.9219-7.8477-3.2812-12.188l0.11328-1.3125h-1.3203c-4.3516 0.16016-8.6523 0.26172-12.945 0.30859h-1.2461l0.074219 1.2383c0.23438 3.1133 0.46094 6.7891 0.46094 10.527h-0.003906c-0.023438 1.4609-1.1914 2.6445-2.6523 2.6914-1.0039 0-2.1016 0.085938-3.2422 0.16016h-0.003907c-4.3867 0.80469-8.918 0.19141-12.938-1.7461-3.6797-3.1836-5.4844-8.0234-4.7891-12.844v-1.0508l-1.0391-0.11328c-1.4531-0.16797-2.8672-0.38281-4.3125-0.60156l-3.4297-0.49609-0.12109 1.2109h-0.003906c-2.0156 8.2852 0.32422 17.027 6.2148 23.195 12.637 10.574 32.57 9.7969 48.555 9.1602 2.8125-0.10156 5.5312-0.20703 8.1172-0.25391 7.4531-0.12109 15 0.21484 22.434 0.53516 6.4492 0.28906 12.965 0.57031 19.473 0.57031 13.184 0.44141 26.336-1.582 38.777-5.9727z"/>
  <path d="m613.97 913.48c-6.8398-4.1836-11.52-11.137-12.816-19.051l-0.38281-1.9219-1.5078 1.2461c-7.8281 6.5078-14.297 11.617-20.371 16.078l-5.043 3.75 6.0391-1.6406-0.003907 0.003906c0.35547-0.09375 0.70703-0.21094 1.0469-0.34766 0.21094-0.082031 0.42969-0.15625 0.64844-0.22656 3.0742-1.1523 6.2852-1.8906 9.5547-2.1914h0.09375c-2.4141 2.207-5.0977 4.0977-7.9883 5.625-7.6445 4.6719-15.605 8.8086-23.824 12.383-3.5156 1.4375-7.1328 2.6211-10.816 3.543l-8.4375 2.1836 8.7383 0.12109c3.75 0.054688 7.2383 0.074219 10.453 0.054688v0.003906c4.3203-0.14453 8.6484 0.23438 12.879 1.125-2.6133 0.71094-5.2578 1.293-7.9297 1.7344l0.21484 2.3242c20.316 0.91797 40.164-6.2812 55.172-20.004l1.293-1.1797-1.5859-0.75 0.003907-0.003906c-1.8633-0.84766-3.6758-1.8008-5.4297-2.8594z"/>
  <path d="m774.88 1129.2c-8.5938-0.15625-16.832 3.4297-22.578 9.8242l-1.3594 1.2188 1.6602 0.73047c10.066 4.207 20.875 6.3477 31.781 6.3008 2.6172 0.003906 5.2344-0.12891 7.8398-0.40234l1.875-0.19531-1.0039-1.5938c-4.2852-6.75-10.23-14.664-18.215-15.883z"/>
  <path d="m769.96 969.99-0.23438-0.20703-0.32812-0.046875v0.003907c-0.76953-0.14453-1.4922-0.46484-2.1094-0.9375l-1.1719-0.85156-0.60156 1.3125v-0.003906c-1.0156 2.2266-2.1875 4.375-3.5156 6.4336l-0.30078 0.47656 0.1875 0.53516c3.0781 10.406 11.078 18.633 21.395 22.004l0.62891 0.16797 0.47656-0.44922c3.3828-2.4336 7.9688-2.3438 11.25 0.22266l0.53516 0.35547 0.58203-0.25391v0.003906c2.8359-1.5 6.332-0.84766 8.4375 1.5742 2.9062 3.8359 4.5117 8.5 4.582 13.312v5.1172l2.1484-3.1211c4.9453-7.3125 8.5273-15.461 10.574-24.047l0.42188-1.6797-1.707 0.23438c-20.66 2.832-36.797-8.0156-51.25-20.156z"/>
  <path d="m805.77 1118.3c-2.2109-3.0195-4.7891-6.6172-7.0703-10.473l-0.73047-1.2461-1.0586 0.9375c-5.8086 5.7539-12.336 10.73-19.418 14.812l-2.5703 1.332 2.7656 0.83594 0.003906-0.003907c9.3281 3.9961 16.938 11.168 21.477 20.242l0.42969 0.67578 0.78906-0.14844 0.76953-0.16797h0.046875c5.8594-1.707 11.504-3.8633 13.125-8.0547 0.85547-2.6484 0.39453-5.543-1.2383-7.793-2.3906-4.0508-5.043-7.8086-7.3203-10.949z"/>
  <path d="m572.81 340.93c21.75 5.8594 44.16 8.8906 66.684 9.0195 3.1484 0 6.2539-0.066407 9.2891-0.20703h0.003906c42.414-2.6523 82.137-21.695 110.77-53.098l0.46094-0.87109-0.47656-0.75781c-0.085937-0.14062-0.17969-0.28125-0.27344-0.46094l-0.52344-1.0508-3.75 1.875c-33.543 17.203-65.242 33.449-106.46 36.488h-0.003906c-13.254 1.0039-26.57 0.81641-39.789-0.5625h-0.39453c-1.2227 0.33203-2.5273 0.19922-3.6641-0.36719l-0.41406-0.13281c-24.309-3.2773-48.07-9.793-70.648-19.375l-4.7344-1.875 3.4219 3.75c10.492 12.984 24.578 22.594 40.5 27.625z"/>
  <path d="m609.29 799.37c0.51563-6.8047 0.9375-13.715 1.2383-20.512v-0.86328l-4.6875-1.707-0.48828 0.87109v0.003906c-0.16406 0.3125-0.37109 0.60156-0.61719 0.86328l-0.30078 0.28906v0.42188c-0.33594 2.8359-1.2148 5.582-2.5977 8.082-0.29688 0.58594-0.83203 1.0234-1.4648 1.2031-0.63672 0.17578-1.3203 0.082031-1.8789-0.26562-0.6875-0.30469-1.2148-0.88672-1.457-1.5977-0.23828-0.71484-0.17188-1.4922 0.19141-2.1523 1.3945-2.4336 2.0469-5.2266 1.875-8.0273-0.023437-0.31641 0.019532-0.63672 0.12891-0.9375l0.28125-1.0781-1.0586-0.34766c-3.9766-1.2852-7.6016-2.3828-11.09-3.3477l-1.4805-0.41406v1.5391c0 2.4922 0.085938 5.1953 0.25391 8.25l-0.003907 0.003906c0.09375 0.62109-0.09375 1.25-0.50781 1.7227-0.41797 0.47266-1.0195 0.73437-1.6484 0.72266-0.77344 0.10938-1.5547-0.10938-2.1641-0.60156-0.60547-0.49219-0.98047-1.2148-1.0312-1.9961-0.16797-2.9609-0.25391-6.0938-0.25391-10.152v-0.9375l-0.9375-0.20703c-4.332-1.0234-8.7852-1.875-13.266-2.6445l-1.3203-0.20703v1.3242c-0.21094 3.7188-0.62109 7.418-1.2305 11.09l-0.20703 1.3867 0.003906 0.003907c-0.089843 0.51172-0.39844 0.96484-0.84375 1.2344-0.70312 0.47266-1.5625 0.65234-2.3906 0.5-1.4453-0.49609-2.2617-2.0234-1.875-3.5l0.14844-1.0781c0.51953-3.5469 0.83203-7.1211 0.9375-10.703v-1.0508l-2.6523-0.33594c-1.5195-0.19531-3.0195-0.40234-4.5469-0.51562l-0.9375-0.066407-0.28906 0.85156h-0.003906c-0.96484 2.7656-1.7812 5.582-2.4453 8.4375-0.9375 3.8242-2.0078 7.2734-3.1016 10.539l-0.49609 1.4531 1.5273 0.09375c17.168 1.8047 34.039 5.793 50.203 11.867 3.6484 1.1914 7.3047 2.3906 10.969 3.5352l1.4062 0.44922z"/>
  <path d="m599.7 876.01 0.88281-0.11328 0.13281-0.89062c0.074218-0.54297 0.14062-1.0859 0.20703-1.6211 0.066406-0.53516 0.12109-1.1523 0.20703-1.707l0.12109-0.81641-0.72266-0.38281c-10.977-5.8867-22.051-12.047-32.758-18.008-12.336-6.8633-25.086-13.961-37.789-20.699l-1.3125-0.70312-0.36719 1.4531c-1.0312 4.0234-1.875 7.6602-2.4375 11.117l-0.11328 0.63672 0.47656 0.42969c8.6328 7.7891 37.566 31.707 66.977 31.707v0.003906c2.1719 0.003907 4.3438-0.12891 6.4961-0.40625z"/>
  <path d="m468.65 964.81c-0.19141 0.64062-0.63281 1.1758-1.2188 1.4922l-1.875 1.1445 2.0234 0.9375c3.2969 1.582 6.7344 2.8594 10.266 3.8125l1.4531 0.36719v-2.0703h-0.054687c-0.50391-7.1797-1.582-14.305-3.2266-21.312l-1.0312-4.4336-1.2461 4.3789c-1.2188 4.3125-2.6992 8.7266-4.1172 12.992z"/>
  <path d="m602.46 862.5c0.074218-0.42188 0.14062-0.85156 0.1875-1.2578 0.73047-4.6875 1.4531-9.7695 2.2227-15.637l0.09375-0.76953-0.66406-0.39453-3.8984-2.2422-4.0781-2.3359v1.9609l-0.003906 0.003906c-0.027344 1.8906-0.22656 3.7734-0.59766 5.625-0.074218 0.78125-0.59375 1.4453-1.332 1.707-1.0234 0.28125-2.1172 0.03125-2.918-0.66797-0.75-0.62891-1.0781-1.6328-0.85156-2.5859 0.45312-2.8242 0.51172-5.6992 0.16797-8.5391l-0.054688-0.60156-0.52344-0.30859c-5.3906-3.0742-11.25-6.3281-17.43-9.6562l-1.6602-0.9375-0.074219 1.875c-0.066406 2.5273-0.40234 5.043-0.99609 7.5-0.10938 0.75391-0.63281 1.3828-1.3594 1.6211-1.0547 0.25781-2.168-0.042969-2.9531-0.79688-0.75391-0.67188-1.0586-1.7188-0.78516-2.6914 0.53906-3.1758 0.82031-6.3867 0.84375-9.6094v-0.72266l-0.64844-0.33594c-5.7852-3.0938-11.117-5.8203-16.305-8.3438l-1.5-0.72266-0.17969 1.6602h0.003906c-0.39844 3.2578-1.207 6.4492-2.3984 9.5078-0.28516 0.75-0.86719 1.3516-1.6055 1.6641-0.74219 0.3125-1.5781 0.30469-2.3164-0.015625-0.58203-0.16797-1.0664-0.58203-1.3203-1.1367-0.25391-0.55078-0.25391-1.1875 0-1.7422 1.5273-3.7188 2.3672-7.6797 2.4766-11.699v-0.75l-3.6016-1.668-0.55469 0.86328c-0.39453 0.67578-1.0898 1.125-1.875 1.207l-0.72266 0.074218-0.27344 0.67578c-1.7617 4.6875-3.207 8.7656-4.4258 12.59l-0.30078 0.9375 0.86328 0.46094c12.938 6.8516 25.941 14.062 38.512 21.066 10.117 5.625 20.57 11.438 30.938 17.016l1.4922 0.80469z"/>
  <path d="m611.75 750.7-1.0234-0.16797h0.003906c-0.20703-0.011718-0.41016-0.070312-0.59375-0.16797-0.47656-0.26172-0.9375-0.49609-1.4531-0.73047-0.51563-0.23438-0.75781-0.35547-1.1328-0.5625l-1.5664-0.83594-0.16016 1.7617c-0.22266 2.8789-0.71094 5.7305-1.4531 8.5234-0.14063 0.67969-0.57422 1.2656-1.1797 1.6055-0.60547 0.34375-1.332 0.40625-1.9883 0.17578-0.70703-0.13672-1.3281-0.55859-1.7109-1.1719-0.38281-0.61328-0.48828-1.3594-0.29297-2.0547 0.91406-3.1523 1.4414-6.4062 1.5625-9.6836l0.30078-1.3203-0.9375-0.35547c-3.4492-1.293-6.2617-2.2422-8.8398-2.9609l-1.3516-0.375-0.13281 1.4062 0.003906-0.003906c-0.39844 3.5234-0.42969 7.082-0.09375 10.613 0.042969 0.57031-0.16406 1.1328-0.5625 1.5469-0.54297 0.61328-1.3047 0.98828-2.1211 1.0391-1.4922-0.09375-2.6641-1.3164-2.6875-2.8125-0.31641-3.9961-0.22656-8.0117 0.26172-11.992l0.09375-1.0508-1.0391-0.19531c-2.1641-0.41406-4.332-0.82422-6.4961-1.1797l-1.3125-0.22656-0.046875 1.3398h-0.003906c-0.066407 3.4727-0.49219 6.9297-1.2656 10.312-0.12109 0.83984-0.71094 1.5312-1.5195 1.7812-1.0352 0.26172-2.1367-0.015626-2.9219-0.73828-0.69531-0.62891-0.97266-1.5938-0.72266-2.4961 0.76172-3.2109 1.1367-6.5039 1.125-9.8047v-1.0586l-1.0586-0.12109c-0.63672-0.085938-1.2852-0.14844-1.9414-0.21484l-1.875-0.19531-0.63672-0.085937-0.41406 0.51562v-0.003907c-4.3398 5.5703-7.875 11.727-10.5 18.281l-0.61719 1.4609 1.5742 0.16016v0.003906c18.605 2.0938 36.867 6.5391 54.355 13.227l1.5078 0.5625z"/>
  <path d="m780.94 737.75 2.8125-0.58984-2.4453-1.5391c-2.0352-1.2539-3.9219-2.7344-5.625-4.4141l-0.22656-0.21484-0.30078-0.085937c-4.0781-1.0977-8.1172-2.5312-12.02-3.9102-4.4609-1.5859-9.0859-3.2266-13.867-4.4062h0.003906c-2.8516-0.70313-5.7344-1.2539-8.6445-1.6484l-0.46094-0.066406-0.375 0.26172c-1.1016 0.77734-2.2461 1.4922-3.4297 2.1406l-1.1641 0.62891 0.75781 1.0781 0.003906-0.003907c3.9727 5.4219 9.5469 9.457 15.938 11.543l0.32031 0.14062h-0.003906c5.1484 1.668 10.527 2.4961 15.938 2.457 4.3008-0.011719 8.5859-0.47266 12.789-1.3711z"/>
  <path d="m610.95 706.22c-6.6602-5.1914-14.32-8.9531-22.5-11.043l-0.49609-0.13281-0.44141 0.28906v0.003907c-0.17578 0.12109-0.33594 0.26953-0.46875 0.4375-1.9609 1.4883-3.1523 3.7812-3.2383 6.2422-0.085938 2.4609 0.9375 4.832 2.7891 6.4531l0.44141 0.44922 0.62891-0.11328c7.3945-1.293 14.941-1.457 22.387-0.49609l4.1719 0.50781z"/>
  <path d="m612.01 743.44c0.09375-3.1406 0.20703-6.2617 0.30078-9.375 0.13281-3.75 0.26172-7.5 0.375-11.25v-1.0117l-0.99219-0.16797c-14.207-3.168-29.078 0.49609-40.184 9.9062l-2.0352 1.7344 2.6523 0.32031h0.003906c13.273 1.3242 26.203 5.0117 38.184 10.883l1.6406 0.84375z"/>
  <path d="m513.25 635.5 1.125 1.0039c1.875 1.6328 3.6758 3.3086 5.457 5.043l0.75 0.74219 0.81641-0.67578c3.6641-3.0273 7.2656-6.1328 10.855-9.2266 7.0586-6.0742 14.363-12.348 21.992-17.934l0.9375-0.69531-0.70312-0.9375c-0.98438-1.4062-2.0898-2.7266-3.3008-3.9453-3.1953-3.1016-6.6562-0.26172-8.9727 1.6016-0.42188 0.34766-0.82422 0.67578-1.2188 0.9375-0.80469 0.58984-1.6016 1.1328-2.5977 1.7891-1.3203 1.293-2.625 2.5977-3.9297 3.8906l0.003906 0.003906c-6.0859 6.4805-12.77 12.371-19.969 17.586z"/>
  <path d="m516.35 582.07-0.14844 0.28125v0.30859h-0.003907c0.003907 0.56641-0.058593 1.1289-0.1875 1.6797-1.6562 6.5273 0.035157 13.457 4.5195 18.484l0.61719 0.49609 0.68359-0.38281c5.9531-3.3086 6.7305-7.7344 7.8203-13.855l0.26172-1.4805h0.003906c1.1133-6.4922 3.5898-12.676 7.2656-18.141 3.8984-5.4375 8.7891-10.082 14.418-13.699l6.6758-4.6875-7.7148 2.5781h-0.003906c-14.434 5.0742-26.57 15.156-34.207 28.418z"/>
  <path d="m546.56 579.91-1.5078 2.5781 6.8828-2.0625h-0.003906c6.5859-1.8281 13.074-3.9922 19.434-6.4883l0.38281-0.16016c5.6914-2.3242 16.273-6.6367 17.07-12.629h0.003907c0.11719-2.9023-1.3789-5.6328-3.8906-7.0938l-0.34766-0.17969c-1.9297-0.63672-3.6172-1.1328-5.1758-1.5195l-0.57031-0.13281-0.46094 0.375c-3.4297 2.8125-7.2188 5.457-10.895 7.9883h0.003906c-8.3047 4.8359-15.445 11.434-20.926 19.324z"/>
  <path d="m551.18 505.57-0.68359 0.57031c-3.918 3.2617-7.5938 6.4883-10.895 9.5898l-1.3594 1.2734 1.7422 0.67578 0.003907 0.003906c10.543 4.2617 20.305 10.25 28.883 17.719l0.85156 0.71094 0.75781-0.81641c3.0391-3.3008 6.0195-6.6484 8.9453-9.9844l0.88281-1.0117-1.125-0.74219c-3.8359-2.5312-7.7344-4.9609-11.633-7.3984-5.1758-3.2266-10.527-6.5625-15.637-10.086z"/>
  <path d="m767.32 795.85 1.668-0.87109c14.402-7.418 30.188-11.762 46.359-12.75l1.875-0.14844-2.1836-3.5625c-6.1953-10.125-12.602-20.625-17.812-31.086l-0.49609-0.99219-1.0117 0.44141c-1.4141 0.625-2.8711 1.1797-4.3789 1.6602l-1.293 0.42188 0.61719 1.2109v-0.007812c2.7422 5.3359 5.0352 10.895 6.8516 16.613 0.30078 0.78125 0.12891 1.668-0.44922 2.2773-0.76562 0.77344-1.875 1.0938-2.9336 0.85547-0.89453-0.19922-1.5977-0.88672-1.8203-1.7734-1.8086-5.8711-4.1914-11.547-7.1133-16.949l-0.42187-0.76953-0.85156 0.17969h-0.003906c-3.6367 0.77734-7.3359 1.25-11.051 1.4141l-2.043 0.074219 1.1055 1.7344c1.332 2.0625 2.4922 4.3047 3.6172 6.4688 1.125 2.1641 2.1562 4.1328 3.4023 6.1406 0.39844 0.56641 0.51953 1.2852 0.32812 1.9492-0.21875 0.62109-0.65234 1.1484-1.2188 1.4844-0.59766 0.39453-1.3203 0.55859-2.0352 0.45703-0.73828-0.12109-1.3828-0.57422-1.75-1.2266-1.1797-1.875-2.2227-3.918-3.2148-5.8789h-0.003906c-1.375-2.8984-2.9922-5.6719-4.8359-8.2969-0.35938-0.4375-0.51562-1.0078-0.42188-1.5664l0.25391-1.3125-5.4297-0.34766 0.55469 1.6602c4.0352 13.164 6.0781 26.855 6.0547 40.621z"/>
  <path d="m478.85 806.13-0.9375 0.77734c-3.168 2.625-6.2891 5.3906-9.3203 8.0625l-1.125 1.0039 0.5625 0.84375c13.863 18.785 30.738 35.148 49.941 48.422 16.035 11.449 30.656 24.758 43.555 39.656l0.67578 0.85156 0.9375-0.61719c6.2891-4.332 12.742-9.1484 19.688-14.738l2.082-1.668-2.6328-0.40234c-24.875-5.293-47.766-17.461-66.066-35.121-1.4648-1.1992-2.2148-3.0664-1.9883-4.9492v-0.44141l-0.24219-0.36719v0.003906c-1.0234-1.4492-1.4336-3.2422-1.1445-4.9883 0.20703-1.6016 0.5625-3.1875 0.9375-4.6875l0.13281-0.58984-0.42188-0.46094h-0.003907c-4.8203-4.9336-10.098-9.3984-15.758-13.34-6.7656-4.5625-12.875-10.027-18.16-16.246z"/>
  <path d="m501.56 788.44-0.68359 0.50781c-5.1641 3.8633-10.715 8.1758-16.969 13.172l-0.88281 0.70312 0.68359 0.9375 0.62891 0.89063c0.39844 0.55469 0.82812 1.0898 1.2852 1.6016l0.70312 0.81641 7.0977-5.1094c0.46875-0.33594 1.0625-0.44531 1.6211-0.30078 0.80469 0.16406 1.5039 0.64844 1.9414 1.3398 0.35938 0.64062 0.44922 1.3984 0.24609 2.1016s-0.67969 1.3008-1.3242 1.6484c-0.9375 0.71094-1.875 1.3867-2.8125 2.0547l-1.875 1.3203-1.1719 0.85156 1.0859 0.9375c2.6797 2.4102 5.4766 4.5859 7.6016 6.2148l1.5469 1.1797 0.32031-1.875v0.003906c0.16406-0.67969 0.625-1.2461 1.2578-1.5469 3.5898-1.8047 6.6133-4.5703 8.7266-7.9883 0.51562-0.83594 1.4688-1.3047 2.4492-1.1992 1.0586 0.074219 2.0117 0.67578 2.5312 1.6055 0.32031 0.72266 0.20703 1.5664-0.29297 2.1836-2.5078 4.1328-6.0664 7.5273-10.312 9.8438h-3.4023l2.8867 2.1172c3.5078 2.5703 6.5625 5.043 9.375 7.5l1.3984 1.2188 0.51562-1.7734v0.003907c2.4609-8.1367 5.3555-16.137 8.6719-23.965l0.36719-0.88281-0.78906-0.52344c-7.2734-4.9766-14.559-10.059-21.797-15.141z"/>
  <path d="m506.1 785.08 1.875 1.2852c1.3047 0.9375 2.6172 1.8203 3.8828 2.8125l1.3672 1.0312 0.46094-1.6602h-0.003906c0.11719-0.4375 0.33203-0.84375 0.62891-1.1836 1.1797-1.3398 2.4336-2.6172 3.75-3.8242l1.293-1.2461c0.50391-0.5 1.1914-0.77344 1.8984-0.75391 0.71094 0.023437 1.3828 0.33594 1.8516 0.86719 0.53125 0.45703 0.83984 1.1211 0.85156 1.8203 0.007813 0.69922-0.27734 1.3711-0.79297 1.8438l-1.3672 1.293h-0.003906c-1.3203 1.2148-2.5742 2.5-3.75 3.8555l-1.668 1.125 10.473 7.1992 0.54297-1.3789c2.7422-6.7109 5.0195-13.602 6.8164-20.625 1.0312-4.0977 2.043-8.1016 3.168-12.066l0.9375-3.1953-9.8164 6.918c-7.0391 4.9492-14.062 9.8906-21.027 14.926z"/>
  <path d="m605.84 837.3c1.1797-9.957 2.1641-20.062 2.9453-30l0.066406-0.9375-0.9375-0.27344c-1.0781-0.30859-2.1367-0.66406-3.1953-1.0117l-1.7812-0.58203-0.20703 1.3594c-0.32031 1.9883-0.70312 3.9648-1.0859 5.9531-0.30078 1.5273-0.60156 3.0547-0.86328 4.6211h-0.003906c-0.054688 0.73437-0.51172 1.375-1.1914 1.6602-1.0039 0.29297-2.0938 0.058594-2.8867-0.62891-0.80859-0.65234-1.1914-1.7031-0.99219-2.7266 0.22656-1.5469 0.55469-3.0859 0.88281-4.6211h-0.003906c0.48047-2.082 0.85156-4.1914 1.1172-6.3086l0.11328-0.9375-0.9375-0.30078c-3.2812-1.1055-6.5547-2.1914-9.8242-3.2539l-4.0234-1.3203v1.6484c0 2.8125 0.074219 6.0859-0.14062 9.4609-0.050781 0.76563-0.41406 1.4805-1.0078 1.9727-0.58984 0.49219-1.3594 0.72266-2.125 0.63281-0.63672 0.015625-1.2461-0.24609-1.6758-0.71875-0.42969-0.47266-0.62891-1.1055-0.55469-1.7383 0.25781-4.0117 0.27344-8.0352 0.046875-12.047l-0.046875-0.83594-0.79688-0.23438c-4.8281-1.4141-10.07-2.6797-15.555-3.75l-1.3984-0.27344v10.312c0 3.6953-7.9141 3.6758-7.9219 0l0.054687-11.586-1.0586-0.10156c-2.1836-0.20703-4.4062-0.32031-6.6289-0.41406h-0.85156l-0.30078 0.79688c-1.4453 3.8438-2.9258 7.6875-4.4062 11.484l-0.40234 1.0312 1.0039 0.46094c22.883 10.434 44.523 22.586 64.734 34.133l1.5391 0.88281z"/>
  <path d="m499.81 590.22c0.60938-0.23828 1.2383-0.42969 1.875-0.57422l0.9375-0.19531v-0.9375c-0.003906-2.3164 0.23047-4.6289 0.69531-6.8984v-0.43359c-0.21484-1.418 0.050782-2.8633 0.75-4.1133 5.2969-9.7305 12.656-18.188 21.562-24.781l2.0234-1.4922-2.4375-0.58984c-4.9492-1.1914-8.7188-2.0156-12.188-2.6797l-0.75781-0.14062-0.42969 0.63672h-0.003906c-8.9531 13.109-15.875 27.496-20.531 42.676l-0.51563 1.6953 1.7617-0.19531h0.003907c2.5078-0.26172 4.957-0.92969 7.2539-1.9766z"/>
  <path d="m576.39 488.51-0.64844-0.50781-0.70312 0.44141c-5.457 3.4688-10.754 7.1055-15.73 10.828l-1.3203 0.99219 1.3789 0.9375c4.4141 2.9531 9.0078 5.7734 13.461 8.5039 3.9922 2.4648 8.1367 4.9961 12.121 7.6211l0.86328 0.57031 0.67578-0.79688c2.2422-2.6719 4.5078-5.3164 6.7773-7.9766l3.75-4.4062-0.9375-0.75781c-4.2578-3.6094-8.7578-7.0234-13.125-10.312-2.1289-1.7227-4.3594-3.4219-6.5625-5.1367z"/>
  <path d="m537.76 544.69 0.40234 0.11328 0.38281-0.1875h0.003906c5.8008-2.6914 11.945-4.5625 18.262-5.5508l2.8125-0.42188-2.2773-1.6797c-7.5781-5.7148-16.055-10.125-25.086-13.047l-0.69531-0.22656-0.49609 0.53516c-4.7344 4.9961-8.7578 9.6094-12.289 14.062l-1.1719 1.4727 1.875 0.39453c6.1289 1.4023 12.309 3.0156 18.277 4.5352z"/>
  <path d="m461.83 694.48 0.9375 1.1445 0.9375-1.1641c1.0234-1.332 2.1992-2.5391 3.5039-3.5977 1.4609-1.1719 3.1016-2.3633 4.6875-3.5156 1.5859-1.1523 3.2422-2.3359 4.6328-3.4688h0.36719l0.32031-0.66406-0.003906-0.003906c3.582-8.4375 10.379-15.102 18.883-18.523l0.53516-0.16797 0.24219-0.51562c2.4688-5.6289 6.6445-10.344 11.934-13.473l1.1914-0.84375-1.1172-1.0312c-1.5078-1.3984-3.0547-2.7461-4.6133-4.0391l-0.9375-0.81641-0.73047 1.0391c-0.92187 1.4258-2.043 2.7109-3.3281 3.8242-3.0469 2.5938-6.6836 4.3984-10.594 5.25l-0.58984 0.14063-0.23438 0.55469c-3.0859 7.0078-9.5039 11.98-17.062 13.219l-0.66406 0.12109-0.21484 0.63672c-1.543 4.4375-4.4102 8.293-8.2148 11.047-2.0195 1.4219-4.1211 2.7188-6.3008 3.8906l-3.3086 1.875 1.3789 1.0703v-0.003906c3.0859 2.3438 5.8945 5.0312 8.3633 8.0156z"/>
  <path d="m765.38 923.82 0.16797 1.2656 1.2461-0.28125c11.449-2.9258 22.586-6.957 33.254-12.035 4.5469-1.9961 9.2617-4.0586 13.996-5.9336 14.492-5.2188 29.531-8.7695 44.824-10.586l6.6758-1.0508 1.293-0.21484-0.34766-1.2578c-1.6484-5.6953-3.7852-11.234-6.3828-16.562l-0.36719-0.77734-0.85156 0.11328c-3.0859 0.41406-6.2344 0.9375-9.375 1.4453l-1.5859 0.26172 0.73047 1.4258v-0.003906c0.85156 1.5742 1.4414 3.2773 1.7461 5.043 0.10937 0.80469-0.10547 1.6211-0.60156 2.2656s-1.2266 1.0664-2.0352 1.1641c-0.56641 0.15625-1.1758 0.050782-1.6602-0.28516-0.48047-0.33594-0.78906-0.87109-0.84375-1.457-0.26562-1.9961-0.95703-3.9141-2.0234-5.625-0.097656-0.21094-0.17188-0.42969-0.21484-0.65625l-0.32031-0.9375-1.0117 0.1875c-3.6484 0.67578-7.3594 1.3867-11.016 2.1641l-1.3047 0.27344 1.1641 3.2344c0.73438 1.9375 1.3594 3.9102 1.875 5.9141 0.1875 0.71094 0.066406 1.4648-0.33203 2.082-0.39844 0.61328-1.0352 1.0312-1.7578 1.1523-0.64453 0.22266-1.3555 0.15625-1.9453-0.18359s-1.0078-0.91797-1.1406-1.5859c-0.54688-2.1328-1.2227-4.2305-2.0234-6.2812-0.26172-0.72266-0.52344-1.4336-0.77734-2.1562l-0.34766-0.99219-0.95703 0.17578c-6.4219 1.5-12.602 3.1797-18.367 5.0078l-1.1914 0.375 0.46094 1.1719c1.043 2.8359 2.4531 5.5234 4.1914 7.9961 0.38281 0.47266 0.53906 1.0859 0.42969 1.6836-0.10547 0.59766-0.46875 1.1172-0.99219 1.4297-0.62891 0.49609-1.4336 0.71484-2.2266 0.60547-0.79297-0.10938-1.5078-0.53125-1.9844-1.1797-1.8594-2.7734-3.3633-5.7734-4.4688-8.9258l-0.41406-1.0703-1.0586 0.40625c-3.9844 1.4141-7.7617 2.8789-11.203 4.332l-0.9375 0.42188 0.32031 1.0117h-0.003906c0.90234 3.0664 2.1016 6.0391 3.582 8.8672 0.35938 0.66016 0.42969 1.4375 0.19141 2.1484-0.23828 0.71484-0.76172 1.293-1.4453 1.6016-0.5625 0.35938-1.25 0.46484-1.8945 0.28516-0.64062-0.17969-1.1758-0.62109-1.4727-1.2227-1.543-3.0039-2.8164-6.1406-3.8047-9.375l-0.41406-1.2578-1.1992 0.55469c-3.0391 1.4062-6 3.0391-8.5508 4.4531l-0.63672 0.35547 0.34766 6.5625v0.003907c0.32813 3.0352-1.8516 5.7656-4.8867 6.1211l-1.0977 0.1875 0.39453 3.207c0.14062 1.5625 0.33984 3.2031 0.58203 4.9375z"/>
  <path d="m426.66 718.3c1.875 2.7109 3.8438 5.4102 5.8398 8.0703l0.60156 0.80469 0.89062-0.47656c2.9336-1.5508 5.7227-3.3555 8.3359-5.3984l0.80469-0.83594-0.70312-0.9375c-4.0234-5.2773-8.1836-10.742-12.758-15.73l-0.82422-0.9375-0.87109 0.87109c-1.0117 1.0195-2.0352 2.0352-3.0664 3.0469l-3.0938 3.0547-0.70312 0.72266 0.58984 0.80469c1.6758 2.3359 3.3164 4.6445 4.957 6.9414z"/>
  <path d="m446.95 708.82c1.6406 2.2969 3.2812 4.6211 5.0547 6.9297l0.20703 0.28125 0.32812 0.11328 0.44922 0.12109 0.49609 0.16016 0.44922-0.26172v-0.003907c0.26953-0.12891 0.55078-0.22266 0.84375-0.28125l0.9375-0.25391-0.054688-0.9375v-0.86328 0.003906c0.007813-0.60938-0.039062-1.2188-0.13281-1.8203-0.27344-2.1367-0.75781-4.2461-1.4453-6.2891-0.32031-0.61719-0.44922-0.9375-0.55469-1.2188-0.32812-0.83594-0.46875-0.9375-1.7812-2.3164h0.003906c-3.625-4.0469-7.8789-7.4844-12.602-10.172l-0.26172-0.16016c0.085937 0.10547 0.12891 0.23828 0.12109 0.375h-2.2031l-0.13281 0.10156-0.13281 0.09375 0.003906 0.003907c-0.5625 0.30078-0.96484 0.83594-1.0977 1.4609l-0.066407 0.5625 0.39453 0.40234c4.1133 4.3359 7.8516 9.0078 11.176 13.969z"/>
  <path d="m435.49 877.29c-0.63281-0.50781-1.1445-1.1484-1.5117-1.875l-0.42187-0.9375-1.875 0.46875v0.9375c-0.046876 0.91797-0.23047 1.8242-0.54297 2.6914-1.1719 3.3555-2.1445 6.7773-2.9062 10.246-1.6172 7.7461-2.8438 15.57-3.6758 23.438-1.3789 13.219-2.3242 24.328-2.418 35.477-0.039063 0.69141-0.16406 1.3789-0.36328 2.043l-0.46094 1.5547 1.6211-0.054688h0.73047c11.754 1.5898 23.047 5.6055 33.16 11.793l4.7539 2.3906 0.46094-1.2266c2.5586-7.4766 4.5352-15.141 5.9141-22.922 0.72266-3.543 1.4453-7.1055 2.2891-10.633l0.085937-0.34766-0.13281-0.33594c-7.0859-20.141-19.004-38.238-34.707-52.707z"/>
  <path d="m863.95 591.72 0.19531-1.1719c1.5391-9.1836 1.9414-18.52 1.2031-27.797l-0.11328-1.4062-1.3672 0.36719-0.003906-0.003906c-6.5078 1.7227-13.113 3.0469-19.781 3.9766l-1.1055 0.16016 0.11328 1.1055c0.24219 2.6055 0.55469 5.1953 0.86328 7.7734 0.40234 3.2891 0.81641 6.6758 1.0117 10.246l-0.27344 1.0508 3.5547 1.2266 2.5781 0.89062 1.7734 0.57031c3.3281 1.168 6.7344 2.1094 10.188 2.8125z"/>
  <path d="m870.94 345.99-1.1641 0.14062c-11.523 1.2812-22.094 6.9961-29.473 15.938-2.6602 3.8086-3.3984 8.6406-1.9961 13.07 0.77734 2.4922 1.6133 4.9297 2.4453 7.3516 1.6055 4.3906 2.9727 8.8672 4.0977 13.406l0.30078 1.3047 1.2578-0.46875c4.2656-1.5938 8.7266-3.0547 13.039-4.4727 2.9453-0.9375 5.8984-1.9297 8.8516-2.9609l0.61719-0.20703 0.14063-0.63672v-0.003906c1.75-8.8516 2.5664-17.863 2.4375-26.887v-0.84375c0.15234-4.5156 0.011718-9.0352-0.42188-13.527z"/>
  <path d="m866.25 679.45c-4.7539-2.9609-9.8242-5.3789-15.121-7.1992l-0.50781-0.16797-1.6328 0.9375c-0.67578 0.38281-1.332 0.76953-2.0352 1.1523l-0.9375 0.49609 0.35547 0.9375h0.003906c1.7773 4.5742 2.3281 9.5352 1.5938 14.391l-0.34766 2.3438 2.082-1.1445c5.7852-3.1953 11.25-6.3945 16.574-9.7969l1.5742-0.99219z"/>
  <path d="m740.62 328.9-0.49609-1.5-1.2852 0.9375c-2.6719 1.875-5.3828 3.75-8.0898 5.5703l-0.89062 0.60156 0.50781 0.9375-0.003906-0.003907c2.4961 4.1016 5.5391 7.8477 9.0391 11.129l1.9883 2.0625c2.707 2.7148 5.0703 5.75 7.0391 9.0391 0.56641 0.95703 1.0312 1.9688 1.3867 3.0195l1.0781 2.6328 0.46094 2.0352c0.55469 2.2031 1.0391 4.4805 1.4531 6.5625-3.4219-0.13281-7.0117-0.33594-10.539-0.75781l-1.8281-0.21484 0.57031 1.7422c0.5625 1.7266 1.1445 3.3945 1.707 4.9961 0.70312 2.0156 1.3672 3.9375 1.9414 5.7852 1.5391 4.3086 2.5938 8.7773 3.1406 13.32 0.37109 2.4609 0.30078 4.9688-0.20313 7.4062-0.054687 0.30078-0.11328 0.54297-0.16016 0.74219-0.085937-0.19531-0.1875-0.44922-0.30078-0.75781-0.20703-0.60938-0.42188-1.332-0.68359-2.1953-0.375-1.2461-0.83594-2.8125-1.4609-4.6211-1.0508-3.1133-2.6523-7.0781-4.9219-12.113-0.44141-1.0039-0.9375-2.043-1.4258-3.1406-2.5273-5.1914-4.625-10.578-6.2734-16.109l-1.7891-6.4492 6.7109 2.9336c0.5625 0.28125 1.1641 0.53516 1.7344 0.77734l0.35547 0.14062v0.003906c0.32031 0.17969 0.66406 0.31641 1.0234 0.40234l0.24219 0.26172 0.67578-0.16016c0.24609-0.046875 0.48828-0.12891 0.71094-0.24219l0.9375-0.75781-0.58984-1.0586-0.44922-0.5625v-0.003906c-1.7266-2.6914-3.75-5.1797-6.0273-7.4258l-1.5859-1.5547c-2.2656-2.1641-4.4219-4.4414-6.457-6.8242-1.5312-1.8438-2.8984-3.8125-4.0898-5.8867l-0.58203-1.0312-1.0234 0.58984h0.003906c-11.121 6.5078-22.98 11.656-35.324 15.336l-1.2734 0.375 0.53516 1.2266c0.60156 1.3398 1.1719 2.6914 1.7539 4.0391 1.1914 2.8125 2.418 5.625 3.8242 8.4375l0.22656 0.44922 0.49609 0.14062-0.003906 0.003907c0.58203 0.16406 1.1016 0.48828 1.5078 0.9375 7.9102 8.1562 13.363 18.367 15.742 29.477 2.3789 11.105 1.5859 22.66-2.2891 33.336-2.5703 8.5312-6.4844 16.602-11.586 23.906l-0.36719 0.49609 0.40234 1.0703c0.066407 0.19531 0.11328 0.41406 0.16016 0.61719 0.050781 0.28125 0.12109 0.55469 0.20703 0.82813l0.51562 1.7422 1.3672-1.1992c2.9258-2.5586 5.8594-5.1484 8.7734-7.7266s5.8516-5.1562 8.7852-7.7266l0.003906 0.003907c2.6836-5.207 3.9414-11.027 3.6445-16.875 0.10156-1.332 0.1875-2.457 0.28125-3.2148 0.71094-5.3633 0.9375-10.781 1.1523-16.039l0.16016-3.75v-0.003906c1.7656 1.5742 3.8242 2.7812 6.0586 3.5547l1.3398 0.41406 0.16797-1.3984c0.65234-10.605-2.5312-21.094-8.9727-29.543-3.9258-5.7656-6.8398-12.156-8.625-18.898-0.0625-0.625-0.085938-1.25-0.074219-1.875 0.33984 0.47656 0.65625 0.97656 0.9375 1.4883 0.33594 0.46094 0.69531 0.9375 1.0977 1.5859 1.6367 2.4375 3.4023 4.7852 5.2969 7.0312 1.0117 1.2461 2.1641 2.5781 3.4297 4.0391 2.6797 3.1133 6.0078 6.9844 9.5625 11.953 3.082 4.1445 5.3125 8.8555 6.5625 13.867 0.23047 0.98047 0.375 1.9766 0.42188 2.9805 0 0.57031 0.09375 1.1523 0.16016 1.5938-0.035156 1.1523-0.14844 2.2969-0.33594 3.4336-0.074219 0.54297-0.16016 1.1055-0.16016 1.3789-0.16797 0.46875-0.32031 0.9375-0.47656 1.3672h-0.003907c-0.44922 1.5039-1.0781 2.9531-1.875 4.3125-1.0859 1.668-2.2227 3.3672-3.375 5.082l-0.75781 1.1445c-0.55469-0.375-1.1055-0.73047-1.668-1.0859l-2.8125-1.8086v2.2227-0.003907c0.082031 5.0547-0.20703 10.109-0.87109 15.121l-0.39453 3.0859 2.3359-2.0625c10.68-9.4453 21.391-18.836 32.129-28.172l0.51562-0.44922-0.14062-0.66406c-0.5625-2.8125-1.0781-5.25-1.5078-7.3398-0.76953-3.6758-1.332-6.3281-1.668-8.4375-0.58203-2.4648-0.47656-4.2461 0.32812-4.7734 0.47656-0.33594 1.875 0.22656 4.0781 2.8125l-0.003907-0.003906c1.4766 2.082 2.6758 4.3516 3.5625 6.75 0.40234 1.125 0.80469 2.4102 1.2188 3.75l0.68359 2.1836 1.3516-1.1445 3.8633-3.3281 3.5234-3.0391 0.57031-0.73047-0.32031-0.78906v0.003906c-0.066407-0.12891-0.11719-0.26172-0.14844-0.40234-3.5039-14.004-10.219-27-19.613-37.961-6.875-6.5469-12.215-14.535-15.637-23.391z"/>
  <path d="m586.55 132.4c2.8125 21.281 5.7852 43.285 7.6797 65.043 0.50781 5.832 0.99219 11.668 1.4609 17.512v0.003907c1.8438 32.711 6.1875 65.234 12.992 97.281l0.48828 2.043 1.4805-1.4805c26.934-26.992 80.793-39.488 114.99-14.316l0.57031 0.42188 0.63672-0.30859c6.9453-3.3672 13.969-6.9648 19.996-10.07l0.9375-0.49609-0.39453-0.98438 0.007812 0.003907c-0.38281-0.99219-0.5625-2.0469-0.53516-3.1055 0-10.648 0.58984-21.508 1.1445-32.008 0.25391-4.6328 0.50781-9.2617 0.70312-13.895 1.4258-32.605 2.6719-67.574 2.2578-102.41-0.1875-14.062-0.60156-30.609-2.2695-46.977v0.003906c-0.73047-7.2305-0.41406-14.527 0.9375-21.668 0.60156-3.8242 1.6016-13.07-2.0898-16.426v0.003906c-1.4219-1.2227-3.375-1.6094-5.1562-1.0234-5.1641 1.3516-6.5156 15.516-7.0117 37.93-0.054688 3.1133-0.11328 5.5703-0.22656 6.7227-1.7422 17.195-3.75 34.688-5.6992 51.562l-0.72266 6.3281c-4.875 38.078-7.7891 76.383-8.7266 114.76 0.0625 1.3711-0.53125 2.6914-1.6016 3.5508l-0.30859 0.36719h-0.003906c-0.79297 1.5742-2.332 2.6328-4.0859 2.8125-4.5547 0.54297-9.582 1.4141-14.898 2.3359-20.176 3.4961-45.289 7.8359-61.125-3.6094v-0.003906c-13.684-10.688-22.613-26.336-24.852-43.555-4.3516-22.312-7.9492-46.426-11.645-78.195-1.4922-12.891-3.9375-25.648-6.3008-37.988-1.6328-8.5586-3.3281-17.41-4.6875-26.25-0.33984-3.0664-0.46094-6.1523-0.35547-9.2344 0.054687-9.8242 0.13281-22.059-10.988-22.359h-1.1992v1.1992c0.007812 0.18359 0.023437 0.36328 0.058593 0.54297 1.7891 25.453 5.2188 51.121 8.5391 75.938z"/>
  <path d="m704.37 468.07c-10.426 9.0742-21.309 18.188-31.875 27-22.199 18.59-45.16 37.82-65.805 58.367l-0.82422 0.75781 1.0781 1.1523v0.003907c2.2734 1.9727 4.4336 4.0664 6.4805 6.2734l0.81641 0.9375 0.87109-0.86328c20.43-20.289 43.125-39.32 65.117-57.73 10.688-8.9453 21.742-18.207 32.316-27.43 10.574-9.2266 21-18.414 31.48-27.676 21.73-19.172 44.184-39.008 66.805-57.836l0.61719-0.50781-0.25391-0.75781h0.003907c-1.1953-3.1953-3.2617-5.9883-5.9609-8.0703l-0.75-0.63672-0.75781 0.62891c-23.438 19.453-46.754 40.012-69.254 59.898-10.016 8.832-20.047 17.664-30.105 26.488z"/>
  <path d="m616.82 320.36-1.7266 1.8203 2.5039 0.14844c4.5703 0.29297 9.0781 0.44141 13.527 0.44141 8.9258 0 17.844-0.59375 26.691-1.7812 19.375-2.7617 38.25-8.2891 56.051-16.418l2.1484-0.9375-2.0352-1.1523c-29.801-16.941-75.879-4.5469-97.16 17.879z"/>
 </g>
</svg>
