<?xml version="1.0" encoding="UTF-8"?>
<svg width="1200pt" height="1200pt" version="1.1" viewBox="0 0 1200 1200" xmlns="http://www.w3.org/2000/svg">
 <g fill="#fff">
  <path d="m612.19 532.98h-20.812c-1.3008 1.25-2.9727 2.043-4.7617 2.2617-11.848 1.5078-23.789 2.1797-35.73 2.0039 0.054688 0.5 0.078126 1 0.066407 1.5 17.926 3.3203 36.164 4.625 54.375 3.8906 3.1484-2.5117 5.5234-5.8555 6.8633-9.6562z"/>
  <path d="m539.3 597.48c-8.5859 33.535-12.477 69.516-0.75 103.12-0.14063-0.76562-0.12109-1.5547 0.058593-2.3125 1.7305-7.6094 2.8633-15.344 3.3945-23.129 0.9375-12.789 0.99219-25.695 2.5703-38.438 1.8203-15.477 6.8242-30.648 9.9648-45.938h-0.003907c-3.6094 3.0742-7.9102 5.2266-12.531 6.2695-0.89062 0.20312-1.793 0.34375-2.7031 0.42187z"/>
  <path d="m556.98 560.43c-4.6719-0.75781-9.2539-2.0156-13.656-3.75-4 2.375-8.8555 2.8359-13.23 1.2539-1.0352 3.9766-1.2656 8.1211-0.68359 12.188 0.20703 1.6328 0.097656 3.293-0.32031 4.8867 1.6484 1.9688 2.3555 4.5547 1.9414 7.0859 3.0469 3.1484 7.9805 3.4727 11.41 0.75 8.0117-4.6367 13.391-12.754 14.539-21.938z"/>
  <path d="m553.27 522.19c2.3711 0 4.7422 0 7.0977-0.054688l11.906-0.21484-10.105-6.293c-3.4219-2.1289-6.8438-4.1992-10.266-6.2734l-8.1484-4.9297-1.875 2.9062c-1.6602 2.6055-3.3203 5.3984-5.0234 8.2578l-3.8984 6.5625h13.199z"/>
  <path d="m588.75 242.39c-13.008 15.379-22.352 33.508-27.328 53.023 0.69531-1.125 1.3789-2.3164 2.0703-3.5078v0.003906c15.461-25.406 34.73-48.289 57.133-67.848 13.66-11.531 32.812-28.961 51.711-31.715l-1.6953-6.7695c-28.848 16.566-60 31.051-81.891 56.812z"/>
  <path d="m587.76 708.05c0.81641 4.3867 13.922 40.18 16.305 25.508h-0.003906c1.5117-11.504 1.6172-23.152 0.30859-34.688-2.3828-27.188-6.7031-53.973-11.344-80.793-3.1953-18.684-8.5234-37.172-5.9531-55.855-5.7109 0.066406-11.41 0-16.875-0.30859 0.35547 5.9922 0.042969 12.004-0.9375 17.926 7.5312 42.59 10.859 85.648 18.5 128.21z"/>
  <path d="m739.13 641.48c0.14063-2.1328 0.80859-4.1992 1.9414-6.0117 5.1719-13.207 8.6055-27.027 10.219-41.117 0.30859-4.0117 0.62891-7.9023 1.0039-11.852-9.6367 11.859-17.262 25.223-22.566 39.555-2.3047 9.3047-5.9805 18.219-10.902 26.445-4.3945 6.5664-10.562 11.75-17.785 14.949-7.2266 3.1992-15.211 4.2773-23.023 3.1172-2.25-0.24609-4.4727-0.69141-6.6484-1.3203 6.207 7.1523 12.664 14.164 19.555 20.691 16.117 15.168 34.164 18.863 54.723 21.242-1.5664-18.18-14.664-35.625-9.9648-53.961 1.0039-4.0234 2.1953-7.8477 3.4492-11.738z"/>
  <path d="m649.75 462.09c3.2539-2.5703 6.3945-5.2031 9.375-7.7734 6.0078-5.2695 11.465-10.527 16.547-15.477 4.6875-5.2695 9.4609-9.9648 13.285-14.605l10.312-12.664c2.8789-3.9453 5.3906-7.332 7.5-10.086 4.1445-5.5234 6.7695-8.4375 7.3984-7.9609 0.62891 0.47656-0.81641 3.9453-3.9453 10.152-1.5664 3.0664-3.4492 6.8359-5.8867 11.023-2.8125 4.1445-5.9609 8.9062-9.375 14.062-3.4141 5.1562-8.1562 10.312-12.789 15.984-4.9492 5.3906-10.406 11.156-16.426 16.801l-0.003906-0.003907c-11.238 10.078-23.02 19.535-35.285 28.332-3.8242 4.9492-7.9023 9.7109-12.102 14.41h-0.003906c20.156 4.8867 40.816 7.3672 61.559 7.3984 10.125 0.027343 20.234 0.71875 30.27 2.0703 15.938-0.066406 31.969-0.25391 47.887-0.375-20.492-43.246-24.32-102.54-24.945-149-0.30859-20.867 1.8203-43.18 0.32031-64.688-12.664 33.102-34.352 63.562-48.891 95.625-10.113 23-21.738 45.305-34.801 66.77z"/>
  <path d="m707.42 641.86c8.2109-15.113 11.156-32.344 20.305-47.016 3.4492-5.625 7.2734-10.969 11.156-16.238h0.003906c-38.219 11.238-78.895 10.977-116.96-0.75 5.4023 15.98 12.887 31.176 22.258 45.199 10.715 16.039 44.691 53.023 63.242 18.805z"/>
  <path d="m501.01 463.12c10.902 5.7109 21.75 11.664 32.465 17.738 6.0859-9.4609 11.973-18.555 17.551-27.262 1.6328-2.5703 3.2617-5.082 4.8281-7.5 1.4453-2.5781 2.8867-5.1484 4.2656-7.6484 2.8125-5.0156 5.5781-9.9648 8.2695-14.727 11.156-18.938 19.555-37.051 27.836-52.902 7.8945-16.172 15-30.523 21.188-43.258v-0.003906c5.6406-11.242 12.039-22.086 19.152-32.457 12.027-17.738 19.93-30 24.254-38.242 4.3203-8.2422 6.0859-11.973 6.7695-11.719 0.68359 0.25391-0.12109 4.2656-3.4492 13.227l-0.003907 0.003906c-6.1406 14.043-13.48 27.531-21.938 40.312-6.543 10.383-12.457 21.152-17.707 32.25-6.0195 12.852-12.602 27.395-20.43 43.633-8.1562 16.105-16.426 34.352-27.582 53.586-2.6992 4.8945-5.457 9.8438-8.2773 15-1.4453 2.5117-2.8125 5.082-4.3203 7.7148-1.5078 2.6328-3.1953 5.0703-4.8281 7.6406-5.5781 8.6523-11.344 17.68-17.363 26.953 14.352 8.3438 28.52 17.117 42.441 26.203 2.1953-1.9414 4.3867-3.9453 6.5625-5.9531l-0.25391-0.066406 1.1914-0.81641c34.914-33.402 56.727-74.711 76.66-118.9 8.3828-20.66 18.25-40.688 29.52-59.922 13.797-18.73 22.809-40.547 26.25-63.555 0.09375-0.85938 0.30469-1.707 0.62109-2.5117-10.902-28.398-33.59-62.68-64.117-41.992-86.598 58.539-115.05 156.01-159.55 245.18z"/>
  <path d="m622.05 542.5c9.8359-0.12109 19.742-0.375 29.062-0.68359 5.832-1.2812 11.078-4.457 14.914-9.0312l-40.613 0.1875c-0.58594 3.3398-1.7266 6.5586-3.3633 9.5273z"/>
  <path d="m754.93 558.55h-110.51c-6.2617 0-17.043 1.125-29.578 2.1289 40.988 18.805 95.625 15.676 138.27-0.62891 0.52734-0.58984 1.1406-1.0977 1.8164-1.5z"/>
  <path d="m558.23 79.734c13.602 6.3281 9.2812 22.125 19.809 29.645 1.1211 0.84375 2.293 1.6172 3.5078 2.3164 1.3594 0.68359 2.6641 1.4844 3.8906 2.3906l2.2578 1.5 2.1289 2.2578 1.0703 1.1914 0.24219 0.30859 0.13281 0.13281c0.16016 0.21484 0.30078 0.44531 0.42969 0.68359l0.32031 0.50781v-0.003907c0.49609 1.0625 0.875 2.1758 1.125 3.3203 0.375 1.7383 0.64844 3.4961 0.8125 5.2695 0.050781 0.57031 0.16016 1.1367 0.32031 1.6875 0.76172 0.71094 1.5742 1.3594 2.4375 1.9414l1.1914 0.75781c0.066406 0 0.13281 0.054687 0.25391 0.054687 0.12109 0 0.066407-0.12109 0.13281-0.1875h-0.003906c0.67578-0.76172 1.2227-1.6289 1.6211-2.5664 1.5078-2.9453 2.8125-6.6484 4.7734-10.312 2.0156-4.3086 5.3203-7.8789 9.4609-10.219 0.60156-0.34375 1.2266-0.63672 1.875-0.88281l1.2461-0.375c0.95703-0.41797 1.9727-0.69141 3.0078-0.81641 2.4922-0.5 5.0703-0.37109 7.5 0.375 4.4062 1.3984 8.0781 4.4883 10.211 8.5898 1.7695 2.7852 2.7852 5.9844 2.9531 9.2812 1.3828 4.9375 2.5117 9.9453 3.3828 15 2.0625 0.25391 4.5742 0.57031 6.8359 1.0703v-0.003906c4.1523 0.89844 8.1172 2.5078 11.719 4.7656 2.4336 1.5312 4.7812 3.207 7.0195 5.0156 3.3203-47.766-11.25-99.375-69.582-96.281h0.003906c-20.113 0.5-39.254 8.7422-53.438 23.004 3.7188-1.2617 7.7812-1.0547 11.352 0.58203z"/>
  <path d="m504.58 1054.1c-12.648 14.438-28.086 26.168-45.387 34.48-3.9453 2.3164-8.0156 4.5078-11.785 7.1992l0.003906 0.003906c0.65625-0.003906 1.3125 0.078126 1.9492 0.25 10.781 3.0859 21.848 5.0625 33.027 5.8984 22.5 1.5 110.7 5.5117 98.289-32.531-26.156 0.23828-52.07-4.9727-76.098-15.301z"/>
  <path d="m541.69 133.32c2.3477 3.7695 1.8867 8.6445-1.125 11.906-3.8242 4.8281-5.625 12.414 1.0586 14.062 2.2734 0.48828 4.25 1.8789 5.4688 3.8555 1.2188 1.9805 1.5781 4.3711 0.99219 6.6172 0.070313 0.92188-0.082031 1.8438-0.44141 2.6914-2.7969 5.7031-1.1641 12.582 3.8906 16.426 2.1133 1.9414 3.1055 4.8164 2.6328 7.6484 0.070313 0.17969 0.10938 0.37109 0.125 0.5625-0.42187 4.7617 0.30859 9.5586 2.125 13.98 1.2852 1.9453 3.5039 3.0664 5.832 2.9414 9.3242-1.6016 18.07-5.5977 25.387-11.598 5.832-3.9648 10.852-9.0039 14.797-14.848 2.1719-3.2148 4.1367-6.5664 5.8867-10.031 1.3203-2.1367 2.2578-3.0078 2.8867-2.8867 0.62891 0.12109 0.87109 1.3203 0.62891 3.9453-0.37109 4.3008-1.6094 8.4805-3.6367 12.289-3.5703 7.3398-8.8633 13.703-15.422 18.555-6.207 4.6992-13.098 8.418-20.43 11.035 1.3125 2.6211 2.7969 5.1562 4.4453 7.582 26.25-27.582 59.43-43.5 91.875-63.121v-0.32031c-3.7031-2.6914-7.5-5.7656-11.25-8.1484v0.003906c-5.5781-3.1094-11.703-5.1133-18.039-5.9062l-1.875-0.32031c-1.2227 1.6797-2.5859 3.2461-4.0781 4.6875-3.6992 3.6328-8.3828 6.0977-13.473 7.0898-4.2891 0.73047-8.6328-0.92969-11.344-4.332-0.85547-1.1211-1.4922-2.3945-1.875-3.75-0.34766-0.92188-0.5625-1.8945-0.62891-2.8789-0.12109-1.5742 0-2.3828 0.375-2.5117 0.88281-0.30859 1.8203 3.1328 5.2031 6.3281 1.9883 1.6641 4.6914 2.1836 7.1562 1.3789 3.6133-1.3359 6.8086-3.6016 9.2695-6.5625 1.4336-1.6445 2.6367-3.4766 3.5742-5.4492 1.0273-2.1406 1.625-4.4609 1.75-6.832 0.42578-5.2344-0.73047-10.477-3.3164-15.047-1.0586-1.8594-2.7852-3.2461-4.8281-3.8828-0.87891-0.23828-1.8008-0.26172-2.6914-0.066407-1.3125 0.23047-2.582 0.67188-3.75 1.3125-2.168 1.4062-3.8516 3.4414-4.8281 5.832-1.5664 2.8867-2.7578 6.3281-4.6875 10.219-0.86719 1.8867-2.0273 3.6211-3.4414 5.1367-0.50781 0.44141-0.9375 0.9375-1.4453 1.3203l0.003906 0.003906c-0.66016 0.45312-1.3516 0.85156-2.0742 1.1914-1.5156 0.67187-3.1719 0.97266-4.8281 0.87109-1.3242-0.22266-2.625-0.57812-3.8789-1.0586-1.0039-0.50781-1.875-1.0703-2.7578-1.5742v-0.003907c-1.4805-1.0664-2.8828-2.2383-4.1992-3.5039-0.75-0.74609-1.3633-1.6172-1.8203-2.5703-0.25391-0.69531-0.50781-1.4453-0.69531-2.1367-0.1875-0.99219-0.375-2.1289-0.44141-2.9453-0.1875-1.6875-0.375-3.1953-0.49609-4.1992h0.003906c-0.015624-0.38281-0.14453-0.75391-0.375-1.0586-0.050781-0.09375-0.11719-0.17578-0.1875-0.25391l-0.50781-0.5625-0.9375-1.1328-1.5-1.125c-0.88281-0.68359-2.3242-1.5664-3.7031-2.4453v-0.003907c-1.3008-0.80078-2.5508-1.6758-3.75-2.625l-0.88281-0.69531v0.003906c-0.39062-0.31641-0.76562-0.64844-1.125-1.0039l-1.6328-1.5664h0.003906c-1.1562-1.0625-2.2266-2.2148-3.1992-3.4492l-0.81641-0.9375h0.003907c-0.34375-0.47266-0.63672-0.97656-0.875-1.5078l-0.81641-1.5664c-0.13281-0.75-0.25391-1.5664-0.32031-2.3164h0.003906c-0.039063-0.57031 0.003906-1.1406 0.13281-1.6953l0.24219-1.125c0.0625-0.35547 0.10938-0.71094 0.13281-1.0703-0.066407-0.30859 0.054687-0.49609 0-0.9375l-0.44141-1.8203-0.25391-0.9375-0.12109-0.44141-0.5625-1.5v0.003906c-1.2422-3.4961-3.5352-6.5156-6.5625-8.6562-4.6602-2.0508-10.066-1.4023-14.109 1.6875-7.5742 14.18-7.4102 31.238 0.44141 45.266 0.058594 0.15625 0.10938 0.32031 0.14844 0.48437z"/>
  <path d="m410.87 447.23c-4.1992 8.1367-9.1953 15.84-14.914 22.996 6.6094 0.17969 12.953 2.6641 17.926 7.0234 3.1875 3.3633 5.9453 7.1094 8.2109 11.156 2.3203-3.1641 5.4023-5.6875 8.9648-7.332 2.3789-1.1445 4.8555-2.0859 7.3945-2.8125-6.707-12.309-16.141-22.926-27.582-31.031z"/>
  <path d="m471.93 548.96c28.125 14.793 44.879-29.773 56.719-49.266-11.973-6.8984-24.133-13.539-36.348-19.93-0.66406 0.69141-1.4258 1.2812-2.2617 1.7539-9.5117 5.8555-20.066 9.8125-31.086 11.652-4.9609 0.38672-9.875 1.25-14.672 2.5781-1.6172 0.53906-3.1758 1.2539-4.6406 2.1289 1.1445 0.67578 2.1289 1.5938 2.8867 2.6914 1.8828 1.7188 2.8359 4.2305 2.5703 6.7656-0.23828 5.418-1.6289 10.719-4.0781 15.555-2.0078 4.0039-5.2578 8.1484-2.4375 12.656 5.4453 8.6523 18.676 9.0273 27.824 10.312 2.1953 0.21094 4.1992 1.3398 5.5234 3.1016z"/>
  <path d="m839.55 1054.2c28.023 43.809-21.496 57.414-42 88.379 31.219 4.1328 76.031-5.6992 89.887-33.977 14.352-29.457-4.8945-60.543-14.164-90.133-11.41 11.723-21.875 24.508-33.723 35.73z"/>
  <path d="m793.48 531.56c-37.68 0.375-75.414 0.81641-113.08 1.0703-0.6875 2.9688-1.9883 5.7656-3.8242 8.2031 14.926-0.5625 25.52-1.125 27.395-1.125h233.67c0.69531-0.32813 1.4336-0.55859 2.1953-0.6875 8.3203-1.2891 16.723-1.957 25.141-2.0039-29.145-16.199-155.08-5.6055-171.5-5.457z"/>
  <path d="m728.79 757.31c3.75 10.969 9.375 28.211 17.418 53.277 8.043 25.07 18.496 57.984 29.652 100.98 5.5781 21.441 11.09 45.508 15.609 72.523l0.003906 0.003906c4.2695 24.57 6.4648 49.461 6.5625 74.398 0.39453-0.042969 0.79297-0.0625 1.1875-0.054688 0.75391-0.058594 1.5117-0.015625 2.25 0.12109 23.438-11.664 39.496-32.156 57.102-50.961h0.003906c-1.125-20.344-4.7461-40.469-10.781-59.926-5.2695-17.234-11.441-34.18-18.488-50.766-12.535-30-23.008-53.344-29.832-71.711-5.1406-12.918-9.3945-26.176-12.73-39.672-1.8203-8.4375-2.25-12.102-1.6328-12.289 1.6328-0.42969 5.2031 13.922 20.504 49.52 7.5859 17.812 18.617 40.68 31.648 70.773l0.003907-0.003906c7.4297 16.805 13.895 34.02 19.367 51.562 5.4766 17.379 9.0898 35.293 10.781 53.438 7.043-7.0898 14.863-13.359 23.316-18.688-12.492-73.609-29.613-146.36-51.273-217.81-11.25-36.918-23.129-73.648-35.98-110.07-2.8789-8.0898-5.9531-16.172-9.0859-24.262v1.6953c0 5.832-0.066407 11.973-0.12109 18.367v4.7422c0 1.0703 0.1875 3.0742 0.1875 4.5742 0.1875 3.3281 0.375 6.6484 0.5625 10.031 2.1289 53.277 18.18 94.773 14.352 95.906-1.3203 0.49609-5.8984-9.5352-12.094-26.391-2.4453-8.6523-5.832-18.75-8.1562-30.523-1.0039-5.9609-2.0625-12.188-3.1328-18.617-0.25391-1.6328-0.49609-3.2617-0.75-4.9492-0.066406-1.5664-0.1875-3.1953-0.25391-4.8945-0.1875-3.2539-0.375-6.6484-0.5625-9.9648-0.1875-3.3203-0.32031-6.7695-0.44141-10.031-0.066406-1.7539-0.1875-3.0078-0.1875-5.2031 0.066407-1.6211 0.12109-3.2539 0.12109-4.8828 0.13281-6.4609 0.50781-12.602 0.75781-18.43 0.49609-9.5898 0.68359-18.234 0.42969-25.82l0.007813-0.003907c-4.5977-12.359-8.4492-24.98-11.531-37.801-2.1953 1.0703-4.4453 2.0703-6.7031 3.0742-1.3789 12.402-1.0703 25.82-3.6367 37.922-2.8867 13.977-8.8398 26.578-12.348 40.312-5.2031 20.43 5.0703 36.477 7.6484 54.91h0.003906c3.2148 11.016 4.1523 22.574 2.7539 33.965l-0.81641 5.457-5.5781-1.1914c-5.7656-1.2578-11.664-2.5703-17.68-3.8828v0.003906c-15.5-2.8594-30.77-6.8438-45.691-11.918-12.465-4.2617-24.09-10.668-34.352-18.926-6.8164-5.6641-12.789-12.27-17.738-19.625-3.1328-5.2031-4.5742-8.3359-4.0117-8.7109s3.1953 1.8203 7.3398 6.2734c5.8164 5.9258 12.152 11.316 18.93 16.109 10.172 6.8242 21.305 12.105 33.027 15.664 14.688 4.4102 29.609 8.0078 44.691 10.781 4.1445 0.88281 8.0898 1.8203 12.188 2.8125 0.12891-2.5 0.12891-5 0-7.5-46.508-4.9492-70.762-22.754-99.844-58.414-20.062-24.508-50.84-58.668-48.75-92.898-1.1914-0.62891-2.3242-1.2461-3.5156-1.9414-3.5078 31.781 11.477 75 15.168 104.62 2.6328 21.242 10.66 55.098-2.0078 74.652-11.156 17.109-29.578-4.4531-32.961-15.863-11.164-36.918-14.062-76.66-18.684-115.64-0.1875 1.1914-0.49609 2.3828-0.68359 3.5703-3.957 22.379-2.9531 45-6.3945 67.379-0.9375 5.9531-4.2656 41.117-19.688 32.035-11.906-6.957-12.602-32.719-14.062-44.258-3.3047-26.531-1.2188-53.457 6.1406-79.164-0.30859-0.1875-0.62891-0.44141-0.88281-0.62891-8.9258 18.434-16.062 37.684-21.309 57.48-1.3711 14.27-1.9766 28.602-1.8203 42.938-0.054687 9.0938 0.32031 18.555 0.69531 28.461 0.25391 4.9492 0.375 10.152 0.75 15.102 0.5625 4.9492 1.0703 10.031 1.6328 15.168v0.003906c2.8555 19.395 7.0859 38.559 12.656 57.355 4.9609 17.484 9.6562 33.402 13.039 46.875 6.7695 27.383 7.5859 44.438 6.4609 44.758-1.6953 0.375-5.2031-16.68-13.668-42.695-4.2578-13.125-9.6484-28.574-15.168-46.191h-0.003906c-6.2969-19.117-10.91-38.746-13.789-58.668-0.5625-5.3906-1.125-10.66-1.6211-15.938-0.49609-5.2773-0.44141-10.152-0.69531-15.168-0.066406-4.1914-0.12109-8.1484-0.1875-12.281-4.9219 35.859-6.7969 72.91-9.6094 109.51-5.3906 72.898 10.848 141.56 18.488 213.37 16.734 6.1406 57.797 27.02 75.215 17.242 17.418-9.7773 3.8906-51.711 3.207-70.398-0.9375-24-1.8203-45.695-2.5781-65.25-0.62891-39.113-0.81641-69.57-0.49609-92.812 0.75-46.508 1.875-64.18 3.1953-64.18s2.5039 17.672 3.4492 64.125c0.61719 23.195 1.4336 53.586 2.5039 92.645 0.9375 19.426 1.9414 41.055 3.1328 64.93 1.5664 21.121 3.6367 44.129 5.7656 68.953 32.812-2.5703 66.195 2.1953 98.598-5.1367l-0.003907-0.003907c0.70703-0.14453 1.4219-0.22656 2.1406-0.25-4.1328-24.105-6.6406-48.461-7.5-72.902-1.1914-22.434-1.875-39.93-2.8789-53.211-0.50781-6.6484-0.9375-12.188-1.2578-16.922-0.50781-4.6406-0.81641-8.4375-1.0039-11.352-0.375-5.8867-0.1875-8.5234 0.44141-8.6445 0.62891-0.12109 1.6328 2.25 3.1328 8.0156 0.75 2.8867 1.6328 6.5625 2.6328 11.25 1.0039 4.6875 1.6875 10.312 2.6328 16.922 1.875 13.352 3.3203 30.938 4.9492 53.438h0.003906c1.3164 24.098 4.0156 48.098 8.082 71.887 28.332 3.6367 55.473 14.605 83.934 15.609-0.11328-24.43-2.2109-48.812-6.2734-72.902-4.3203-26.633-9.5898-50.512-15-71.887-10.527-42.816-20.492-75.844-27.516-101.18-7.2109-25.312-11.973-42.871-14.605-54.148-1.8594-5.3008-2.8086-10.875-2.8125-16.492 0.69531-0.19531 2.6445 4.4453 6.4023 15.414z"/>
  <path d="m241.76 514.73c-1.1328 0.25391-17.117 4.3867-11.664 7.0234h0.003906c8.3086 3.7383 17.281 5.7852 26.391 6.0156-0.015626-4.9531-0.6875-9.8828-2.0078-14.66-4.2773 0.1875-8.5352 0.72656-12.723 1.6211z"/>
  <path d="m454.06 467.81c3.75-2.0078 7.5859-3.8906 11.531-5.5234l1.5664-3.75c5.4414-14.66 7.3672-30.395 5.625-45.938-1.0039-11.598-2.3164-18.805-1.0586-19.051 0.9375-0.1875 4.2578 6.0195 7.0781 18.18 3.5039 15.098 3.1367 30.836-1.0703 45.75 0.65625 0.16797 1.332 0.25391 2.0078 0.25391 0.62891-0.12109 1.2578-0.30859 1.8203-0.44141h-0.003906c0.63281-0.24219 1.2227-0.58203 1.7539-1.0039 3.75-7.332 7.3398-14.793 10.848-22.312 2.7227-10.875 4.793-21.902 6.207-33.027 1.6953-12.414 2.8867-23.699 4.0117-33.16 2.0703-18.992 4.3203-30.938 6.0195-30.656 1.9141 10.258 2.4141 20.727 1.4805 31.117-0.13281 8.5312-0.50781 18.555-1.4453 29.652 8.6445-19.621 17.363-39.242 26.82-58.426h0.003906c-0.34766-1.1094-0.49219-2.2773-0.43359-3.4375 0.42578-24.711 5.6172-49.102 15.293-71.844-26.324 20.316-49.398 58.801-64.809 83.68-19.434 31.285-49.332 51.562-73.648 78.168l-0.003906 0.003906c16.426 10.723 30.23 24.996 40.406 41.766z"/>
  <path d="m419.2 516.77c-3.7812 0.48828-7.3828 1.9102-10.48 4.1328l-7.6953 6.2422h9.9102c2.9336 0 5.8672 0.13281 8.8047 0.32031l2.625 0.16016 0.9375-2.4648h-0.003907c0.50391-1.3086 1.082-2.5898 1.7227-3.8359l4.9766-9.168-9.1484 4.2461z"/>
  <path d="m410.18 503.27c-1.6953-2.4453-3.3828-4.9492-5.2031-7.5859-6.5625-9.5898-16.988-6.8359-27.188-9.0273-0.50781-0.12109-1.0039-0.30859-1.4453-0.44141h0.003906c-10.105 1.7617-19.633 5.9453-27.77 12.188-10.902 8.2109-6.3945 17.617-3.9453 28.266 0.375-0.054688 0.88281-0.1875 1.125-0.24219 0-0.066406 0.32031-0.25391 1.0703-0.57031l-0.003906-0.003907c1.3086-0.78906 2.793-1.2422 4.3203-1.3125 0.99609-0.30469 2.0352-0.45312 3.0781-0.4375-0.8125-2.4414-1.4023-4.9531-1.7539-7.5-1.0703-7.7734 0.68359-12.664 2.0625-12.535 1.3789 0.13281 2.5117 4.3867 5.2031 10.648 1.4336 3.5938 3.1992 7.0469 5.2695 10.312 0.90625 1.4727 1.9805 2.8398 3.1953 4.0703 0-2.1289 0-4.3203 0.066406-6.4609-0.039062-4.668 0.87891-9.293 2.6914-13.594 1.3398-2.9648 3.5195-5.4688 6.2695-7.207 1.875-1.1914 3.1328-1.4453 3.5703-0.9375 0.44141 0.50781 0.1875 1.875-0.5625 3.6367h0.003907c-1.0742 2.1836-1.8359 4.5039-2.2617 6.8984-0.47266 3.6406-0.49219 7.3242-0.066407 10.969 0.62109 5.0312 0.74609 10.113 0.375 15.168 4.5742 2.0078 8.5312 2.5039 10.031-0.50781v0.003906c1.0078-3.5273 1.5156-7.1719 1.5117-10.84 0.66016-4.6172 2.0977-9.0898 4.2539-13.227 1.0742-2.3086 3.1484-3.9961 5.625-4.5742 2.9336-2.3867 6.3242-4.1367 9.9688-5.1484 0.16406-0.039063 0.33594-0.042969 0.50391-0.007813z"/>
  <path d="m270.78 512.67h-2.6523c1.1172 4.9961 1.6406 10.105 1.5664 15.227 18.676-0.75 38.176-4.3867 54.59-5.2031-0.98438-3.5273-1.6328-7.1367-1.9414-10.781-17.023-0.43359-34.641 0.57031-51.562 0.75781z"/>
 </g>
</svg>
