<?xml version="1.0" encoding="UTF-8"?>
<svg width="1200pt" height="1200pt" version="1.1" viewBox="0 0 1200 1200" xmlns="http://www.w3.org/2000/svg">
 <g>
  <path d="m689.06 582.57 4.3203 0.75-1.7812-4.0117c-1.4609-3.0859-3.1641-6.0508-5.0977-8.8672-1.0703-1.6602-2.1484-3.3086-3.1016-5.0078l-1.2188-2.1484-2.082 1.3398v0.003906c-2.5508 1.6172-5.2422 3-8.0469 4.125l-2.0703 0.84375 0.75781 2.1172c0.87891 2.4492 1.5938 4.957 2.1406 7.5l0.35547 1.6602 5.5703 0.54297c2.4297 0.22656 4.8555 0.46094 7.2266 0.74219 1.0312 0.11328 2.0898 0.23438 3.0273 0.41016z"/>
  <path d="m720.48 637.26-0.11328 1.0234c-0.48828 4.9219-0.98438 9.7773-1.6602 14.633l-1.2109 8.7188 5.3828-6.9648c5.1758-6.6758 10.539-13.18 17.016-20.887l4.4453-5.3047-6.75 1.5078v-0.003906c-5.8438 1.0234-11.402 3.293-16.293 6.6562z"/>
  <path d="m658.76 552.4c3.0352 2.7617 5.6055 5.9922 7.6211 9.5625l0.99219 1.6953 1.875-0.67578 0.003906 0.003906c5.8242-1.75 10.941-5.3086 14.605-10.164l2.3164-3.4297-7.9766-0.44922c-5.8398-0.33594-11.852-0.73047-17.867-0.64844l-6.1211 0.054687z"/>
  <path d="m745.12 555.15c-2.7383 7.5781-6.6445 14.68-11.578 21.047l-2.1758 3.1602 0.75 1.2852c0.37109 0.64453 0.6875 1.3242 0.9375 2.0234l0.63672 1.7734 1.875-0.24219c2.5312-0.33594 5.0352-0.82812 7.5-1.4727l1.0703-0.28125 0.46875-1.0039c2.4375-5.3945 4.2344-11.059 5.3516-16.875 0.066406-2.8867 0.13281-5.832 0.066406-8.7109l0.42969-2.2227-4.8203-0.13281z"/>
  <path d="m715.07 567.03 1.875 1.2656c1.293 0.87109 2.6055 1.707 3.9102 2.5312 1.3047 0.82422 2.6992 1.707 3.9844 2.5977l2.0703 1.0703 1.332-1.875c3.9961-5.25 7.3359-10.973 9.9375-17.035l1.0977-2.8672-3.0547-0.30859c-4.4531-0.42969-8.9258-0.86328-13.387-1.2266l-2.5391-0.21484v2.5508l0.09375 0.65625-0.007813-0.007813c-0.58594 3.9102-1.9961 7.6484-4.1328 10.969z"/>
  <path d="m750.36 621.13 3.1406-3.9648-1.6953-1.4531v-0.003906c-3.2852-3.2109-4.9805-7.7148-4.6211-12.297l-0.28125-3.4141-1.6953-0.36719h-0.003906c-6.1914-0.95312-12.523-0.38672-18.449 1.6523l-1.3594 0.39453-0.28906 1.3789c-1.293 6.207-2.3438 12.992-3.3086 21.355l-0.46875 4.0391 3.75-1.6211h-0.003907c2.293-1.0156 4.6836-1.7891 7.1367-2.3164 0.46094-0.085937 1.2578-0.1875 2.2695-0.32031 5.1211-0.57812 10.195-1.5156 15.188-2.8125z"/>
  <path d="m721.03 585.29h2.2109l5.1953-0.10156-3.5234-3.8242c-1.5547-1.5859-3.3086-2.9609-5.2148-4.0977-2.3359-1.4141-4.6133-2.8125-6.8828-4.293l-1.6953-1.0977-1.3398 1.4453c-2.25 2.4375-4.6211 4.7539-7.0039 6.9922l-3.75 3.5234 5.1094 0.51562c6.5625 0.64844 11.992 0.9375 16.895 0.9375z"/>
  <path d="m725.13 695.32c2.3242 1.2812 5.1367 1.3203 7.5 0.11328 13.312-6.4883 22.238-51.039 24.648-64.539l1.8086-10.051-6.0078 8.2578-0.003906 0.003906c-5.5703 7.9648-11.605 15.594-18.074 22.844-1.0039 1.0781-2.1562 2.25-3.375 3.5078-7.5547 7.7148-17.898 18.301-16.34 28.18 1.1797 5.2656 4.8516 9.6289 9.8438 11.684z"/>
  <path d="m747.96 421.98c-3.4961 3.8516-7.0977 7.8281-10.734 12.188-15.609 18.648-16.293 41.523-17.004 63.648l-0.20703 6.8164 4.3594-5.25c6.1406-7.2148 12.828-13.945 19.996-20.137l0.63672-0.9375c5.5312-11.926 10.387-22.387 14.598-31.238 6.3359-12.113 11.664-21.273 16.211-29.062 2.9922-5.043 5.2578-8.6719 6.9766-11.25-1.1641 2.9062-2.8125 6.8516-5.3164 12.188-2.2578 5.0352-5.1562 10.961-8.6172 18.047-1.7617 3.5898-3.6641 7.5-5.7383 11.773l-10.039 22.855 8.1289-7.3789c4.3672-3.9648 8.0898-7.6133 11.398-11.156v0.003907c14.27-15.504 26.238-32.98 35.531-51.891 1.1992-4.168 2.1367-8.4023 2.8125-12.688 1.1211-7.5234 1.7305-15.117 1.8164-22.723 0.28125-12.055-0.26172-21.75-0.69531-29.539l-0.20312-3.0586c-0.30078-4.6875-0.60156-9.4688-0.77734-13.32 0.78906 3.0391 1.6953 7.2656 2.6914 13.125 1.7656 10.852 2.7266 21.816 2.8672 32.812l-0.066406 17.906 4.5859-14.605v-0.003907c6.9531-22.133 10.309-45.238 9.9375-68.438v-0.72266l-0.42188-0.58984c-0.49219-0.67578-0.85156-1.4453-1.0586-2.2578-2.8125-10.82-6.9844-27.188-18.852-34.961l-3.1797-2.082-0.42969 3.75-0.003906 0.003907c-5.6953 42.891-17.473 84.75-34.977 124.32-6.0938 12.578-14.285 24.027-24.227 33.852z"/>
  <path d="m697.24 576.61 2.1953-2.0625h-0.003906c7.0078-5.4102 12.109-12.914 14.562-21.422l0.51562-2.5977-2.6328-0.19531c-5.625-0.40234-11.398-0.67578-17.812-0.80469h-1.5938l-0.60938 1.4727-0.003906-0.003906c-0.94922 2.3477-2.2109 4.5547-3.75 6.5625l-0.89062 1.1445 0.61719 1.3125c1.5195 3.207 3.2891 6.1484 4.9961 8.9922 0.99219 1.6602 1.9883 3.3086 2.9141 4.9883z"/>
  <path d="m744.32 407.16 2.1836-2.6797-1.332-1.5195c-4.082-4.8164-7.3281-10.281-9.6094-16.172l-0.65625-1.5742-1.707 0.14062c-7.6797 0.64453-15.383-0.94531-22.18-4.5742-2.5391-1.3281-4.9414-2.8984-7.1719-4.6875l-3.1875-2.4844-0.5625 4.0039c-3.7109 22.945-0.36719 46.477 9.5898 67.48l2.1641 4.2578 2.0352-4.3203v-0.003906c5.4453-10.367 12.574-19.762 21.094-27.797 3.1133-3.2344 6.2461-6.5234 9.3398-10.07z"/>
  <path d="m690.09 359.62 0.79688-1.1055-6.5156-14.242-2.3633 3.1016c-21.121 27.75-33.871 74.43-11.953 111.33 3.75 6.3672 7.7422 12.703 11.719 19.059 6.7969 10.914 13.828 22.191 20.016 33.609l3.8906 7.1797 0.50781-8.1562c0.36719-5.7852 0.42969-11.785 0.48828-17.598 0.085937-8.0547 0.16797-16.387 1.0508-24.375l0.11328-0.9375-0.5625-0.75-0.003906 0.003907c-21.281-30.488-27.973-68.832-18.27-104.73 0.20703-0.85938 0.57813-1.668 1.0859-2.3906z"/>
  <path d="m945.94 600.68-1.5273-1.293-1.5195 1.3125c-10.688 8.8867-23.18 15.348-36.609 18.926-1.207 0.35547-2.4883 0.35547-3.6953 0l-0.58984-0.09375c-2.2305-0.050782-4.3086-1.1406-5.625-2.9414-4.8242-6.3125-12.137-10.234-20.062-10.766l-5.2422-0.68359 4.1445 5.9453c2.2734 2.6211 3.8477 5.7695 4.5859 9.1602 0.3125 3.25-0.24609 6.5234-1.6133 9.4883-1.3711 2.9648-3.5 5.5156-6.1758 7.3867-6.0312 3.9688-12.855 6.5703-20 7.6211-3.3203 0.61719-6.5625 1.5391-9.7305 2.418-3.4102 1.0273-6.8711 1.875-10.367 2.5508-0.42578-0.011719-0.85156 0.03125-1.2656 0.12891l-2.5586 0.66406 0.9375 2.457v0.003907c2.3203 6.25 7.25 11.184 13.5 13.516 4.4453 1.6406 9.1562 2.4297 13.891 2.3359 15.168-0.97656 29.984-4.9727 43.586-11.746 7.4062-3.6094 15.523-6.8047 24.133-10.191 15.559-5.332 30.367-12.645 44.062-21.758l2.0898-1.5664-1.7812-1.875c-7.1094-7.4297-14.645-14.441-22.566-21z"/>
  <path d="m805.16 430.57c-10.629 17.898-23.848 34.129-39.227 48.16-2.5312 2.3242-5.3828 4.7891-8.3711 7.3672-12.809 9.6094-23.609 21.633-31.801 35.391l-2.8125 5.9336 5.9727-2.8125c16.84-9.8516 32.211-22.027 45.656-36.168 2.9609-2.8125 5.625-5.3359 7.8203-7.3516h-0.003906c20.168-18.867 37.371-40.676 51.02-64.688 5.9336-10.91 10.727-22.406 14.309-34.301 7.7617-22.867 15.102-44.465 35.973-54.945l-0.003907-0.003906c1.0508-0.50781 2.2031-0.76172 3.3672-0.75l0.65625-0.09375c1.2812-0.35547 2.6406-0.32031 3.8984 0.10547 5.5039 1.6875 12.348 3.75 19.312 6.3359l4.1445 1.5195-1.0703-4.2852h0.003906c-5.3945-18.422-19.082-33.27-37.004-40.145-10.359-4.2578-22.191-2.7773-31.184 3.9023l-0.98437 0.75 0.054687 1.2188c2.3359 53.98-13.469 91.613-39.727 134.86z"/>
  <path d="m958.95 646.15 4.6875 2.8125c2.3984 1.4258 4.7812 2.8125 7.2383 4.0977l1.2383 0.66406c3.6328 2.3828 7.7461 3.9414 12.047 4.5664 0.95312 0.03125 1.8945-0.19922 2.7266-0.66406l1.1445-0.75v-4.1797l-0.74219 0.14062v-0.003906c-0.058593-0.35938-0.15234-0.71484-0.28125-1.0586-0.98047-2.5664-2.3281-4.9766-3.9922-7.1602-1.7188-2.4805-3.6875-4.7734-5.8672-6.8555l-1.3594-1.2852-1.5391 1.0234c-3.6953 2.4688-7.5391 4.7148-11.504 6.7227z"/>
  <path d="m888.96 340.18-0.9375 0.5625c-14.418 8.9727-19.406 25.668-24.227 41.82l0.003907 0.003906c-2.2344 8.5977-5.3555 16.941-9.3125 24.898-11.621 21.031-24.828 41.148-39.496 60.18-12.406 14.773-26.668 27.879-42.441 38.988-5.8672 4.5195-11.926 9.1953-17.691 14.008l-16.742 13.977 19.379-10.094c1.3633-0.74609 2.7852-1.375 4.2578-1.875 3.5859-0.71094 7.3008-0.37109 10.699 0.97266 3.4023 1.3398 6.3438 3.6328 8.4805 6.6016l1.9609 1.5273 3.75-2.5703c2.1602-1.375 4.1914-2.9453 6.0742-4.6875 1.7344-1.5742 3.4883-3.0391 5.1953-4.4805h-0.003907c2.9609-2.375 5.7812-4.9219 8.4375-7.6289 1.7891-1.875 3.5703-3.6758 5.3164-5.4375 2.1641-2.1953 4.2656-4.3203 6.3281-6.5625l9.6289-11.289c2.0312-2.2578 3.9336-4.6289 5.6914-7.1055 0.9375-1.2266 1.7891-2.4453 2.7578-3.6562 0.96484-1.2109 1.875-2.3984 2.8125-3.5547 1.6406-2.0898 3.2266-4.1055 4.5469-6.1484 1.7422-2.6719 3.4766-5.1484 5.1172-7.5 2.1836-3.1211 4.2461-6.0664 5.9453-8.9062 2.8789-4.8008 5.4766-8.793 7.7539-12.289l0.78906-1.3789c1.5742-2.8125 2.8125-5.043 4.0977-6.8633h-0.003907c0.72266-1.1406 1.5117-2.2305 2.3711-3.2734-0.11719 1.3125-0.3125 2.6211-0.58203 3.9102-0.60938 3.2344-1.418 6.4297-2.4297 9.5625-1.4727 3.8633-3.375 8.4375-5.7578 13.922-1.668 3.75-3.8984 7.668-6.4883 12.188-1.0508 1.875-2.1367 3.75-3.2734 5.8203h0.003906c-1.25 2.2656-2.6289 4.457-4.1328 6.5625-0.85156 1.2578-1.7266 2.5312-2.5234 3.75-0.79687 1.2188-1.7539 2.5508-2.6328 3.8711v0.003906c-1.6641 2.6289-3.4766 5.1562-5.4375 7.5742-2.1367 2.6328-4.3398 5.3984-6.6172 8.25l-3.2148 4.0312c-2.8125 3.2422-5.9336 6.4883-9.1484 9.8711l-2.8867 3.0391h-0.003906c-2.9062 3.0625-5.9961 5.9531-9.2461 8.6523-1.6602 1.4453-3.3477 2.9062-5.0625 4.4805-2.0781 1.9062-4.3047 3.6367-6.6641 5.1836l-1.4609 1.0312c-0.9375 0.61719-1.875 1.2852-2.8125 1.9609l-3.5547 2.5234 0.28125 1.5078c0.11719 0.55859 0.21094 1.1211 0.27344 1.6875l0.19531 2.1016h2.1172c22.211 0.20703 41.914 0.84375 60.234 1.9766l17.746 0.98438-14.465-4.7617 1.3594-2.2578v-0.003906c1.9219-3.1094 4.0391-6.0898 6.3477-8.9258 3.5508-4.1797 6.5156-8.8281 8.8125-13.809 2.4492-6.7695 3.9492-13.848 4.4531-21.027 0.42188-3.75 0.83594-7.1992 1.5-10.602 1.5-8.0078 3.4961-15.914 5.9727-23.672 1.5234-4.5859 3.4648-9.0195 5.8047-13.25l-0.13281 0.49609c-0.9375 3.6094-2.0625 8.1094-3.0742 13.426-1.1328 6.2148-2.3047 13.82-3.6641 23.879l-0.23438 1.5469h-0.003907c-1.1797 9.4688-3.1211 18.828-5.8008 27.984l-0.61719 2.0234-2.4844 5.8047h-0.003907c-0.79297 1.6914-1.7656 3.293-2.9062 4.7734-0.47656 0.68359-0.9375 1.3594-1.3594 1.9688-1.1055 1.6133-2.0898 2.9062-3.0859 4.1992l-1.2266 1.6328c-0.3125 0.37891-0.58984 0.78906-0.83203 1.2188l-1.4062 2.3516 2.5508 1.0234c3.8359 1.5469 7.5547 2.9727 11.055 4.3047 3.0938 1.1797 6 2.2969 8.6719 3.3672l0.62891 0.16016c8.8047 0.9375 17.699 2.043 26.43 3.3281l0.65625 0.10156 0.60938-0.27344c2.7188-1.1719 5.418-2.2695 8.1289-3.3828l5.9531-2.4297-6.1328-1.9688-0.003907-0.003906c-9.7383-3.4023-17.113-11.469-19.641-21.469-14.418-43.867 18.75-138.54 36.777-163.54l1.125-1.5547-1.3047-1.4062c-4.8906-4.5117-10.551-8.1211-16.703-10.656l-1.875-0.88281c-8.5117-3.9688-17.281-7.3555-26.25-10.133z"/>
  <path d="m773.16 694.47c-0.39453 3.1797 0.96875 6.3242 3.5547 8.2109 0.94922 0.53906 2.0234 0.80859 3.1133 0.78906 3.9375-0.54297 7.6992-1.9922 10.988-4.2305 4.3086-2.0742 7.5234-5.8984 8.8281-10.5 2.0625-8.6523-4.3672-18.234-10.031-26.68l-1.875-2.8125c-2.9336-4.4336-5.6992-9.375-8.5039-14.484l-0.48828-0.61719h0.003906c-1.6406-1.4336-3.1602-3.0039-4.5391-4.6875l-5.2422-6.6172 1.0781 8.3711c1.2188 9.4609 2.1641 19.52 3.0195 31.641 0.28125 4.2188 0.20703 8.2578 0.14063 12.543-0.074219 2.9688-0.12109 6-0.046876 9.0742z"/>
  <path d="m1135.7 439c-0.14844-0.27344-0.30078-0.53516-0.46094-0.78906l-2.5039-2.8125c-0.66406-0.67578-1.3789-1.3047-2.1367-1.875-0.28125-0.16016-0.98438-0.68359-1.0039-0.68359l-2.0156-1.1445-1.1055 0.67578c-8.3047 5.0352-16.969 9.8633-25.312 14.531-17.422 9.1758-34.152 19.609-50.062 31.219l-1.9297 1.4805 1.5547 1.875c3.2344 3.8828 6.6758 8.0625 9.8828 12.336l1.3984 1.875 1.875-1.3867c9.4609-7.0039 19.285-13.883 28.789-20.531 14.203-9.9375 28.902-20.211 42.75-31.211l1.4805-1.7344z"/>
  <path d="m922.33 571.5 0.72266-4.1914-3.9375 1.6406c-13.418 5.3672-26.312 11.961-38.523 19.688l-4.7422 3.0938 5.5508 1.1641h-0.003906c8.4492 1.5625 16.234 5.6211 22.352 11.652l1.0117 1.0117 1.3594-0.42969c5.832-1.8359 11.457-4.2852 16.773-7.3047l1.4531-0.83594-0.76953-4.0312v0.003907c-1.7695-7.0117-2.1953-14.293-1.2461-21.461z"/>
  <path d="m815.23 624.28-3.75 0.53516c-3.1602 0.40625-6.2891 1.0078-9.375 1.8008l-3.1328 0.9375h0.003906c-4.2422 1.4766-8.6523 2.4023-13.125 2.7539-1.4258 0.050781-2.8477-0.027344-4.2578-0.22266l-4.4609-0.57031 4.1641 7.8555 0.39453 0.53516-0.003906-0.003906c4.0742 4.1758 9.1055 7.2969 14.652 9.0938 1.8281 0.55078 3.7188 0.83984 5.625 0.86328 3.7617 0.070313 7.3828-1.4062 10.023-4.0859l0.72266-0.72266v-1.0234-4.293-0.74219c-0.19141-3.082 0.23828-6.1758 1.2539-9.0938z"/>
  <path d="m759.95 600.51 1.4336 15.328 3.1875-15.055 0.003906-0.003906c0.085938-0.48828 0.31641-0.94141 0.65625-1.3008l0.88281-0.87109v-0.60938l-0.003906-0.003906c2.1055-6.2227 3.5469-12.652 4.3047-19.18 1.0156-6.3633 1.625-12.785 1.8164-19.227v-1.7734c0.054688-2.6328 0.11328-5.3047 0-7.9883l-0.16797-0.75781c-1.3906-4.4609-5.3125-7.6602-9.9648-8.1289l-1.6328-0.066406-0.70313 1.4453c-0.24219 0.48828-0.41016 1.0078-0.50391 1.5469-0.55469 5.9258-1.3867 13.727-2.9727 21.871-0.11328 5.1836-0.48828 10.5-1.0859 15.797l-0.11328 0.9375 0.55469 0.74219h-0.003907c0.3125 0.41016 0.58984 0.85156 0.82813 1.3125 2.1289 4.1992 3.3008 8.8203 3.4219 13.527-0.054687 0.81641-0.03125 1.6406 0.0625 2.457z"/>
  <path d="m834.6 634.88c1.0117-0.28906 2.0156-0.60937 3.0195-0.9375h-0.003906c2.043-0.70703 4.125-1.2852 6.2344-1.7344 0.38281-0.085938 0.9375-0.17969 1.7617-0.30859 10.312-1.6953 21.188-4.0117 20.512-10.012h0.003906c-0.89062-3.2422-2.6445-6.1797-5.0742-8.5039-1.0312-1.1172-1.9727-2.3164-2.8125-3.5898l-0.375-1.9883-2.7266 0.84375-2.0156 0.066406v0.75781c-10.918 3.2422-20.027 10.828-25.191 20.984-0.3125 0.59375-0.55078 1.2227-0.71094 1.875l-1.5273 4.293 3.9102-0.60156h-0.003907c1.6875-0.27734 3.3594-0.66016 5-1.1445z"/>
  <path d="m843.98 597.84 0.79688 0.23438 1.875-0.77734c0.85156-0.35547 1.7266-0.71094 2.6055-1.1055l0.71094-0.49609 0.003906-0.003907c9.0156-9.0156 19.188-16.793 30.25-23.125l6.1484-3.6172-7.1055-0.73047c-27.188-2.8125-56.176-4.1797-91.125-4.3984h-2.1562l-0.19531 2.1484c-0.36719 4.0391-0.84375 7.9609-1.4062 11.867-0.42969 3.6094-0.9375 7.6406-1.6602 11.738l-0.48828 2.6719 2.7266 0.085938c20.117 0.64844 40.125 3.0078 57.402 5.1836l0.003906-0.003906c0.54688 0.058594 1.0859 0.17188 1.6133 0.32812z"/>
  <path d="m820.2 616.78 0.51562-0.73047c0.82812-1.1328 1.7227-2.2188 2.6719-3.2539l3.0117-3.4219-4.5-0.49609c-15.742-1.7422-29.539-2.6992-42.188-2.9258h-1.5l-0.65625 1.3594c-1.4375 3.0586-3.375 5.8516-5.7383 8.2695l-1.875 1.875 2.1172 1.6328v-0.003906c3.625 2.8711 8.1289 4.3945 12.75 4.3125 4.0938-0.125 8.1484-0.79297 12.066-1.9844 4.043-1.0625 8.1445-1.8945 12.281-2.4961 3.4141-0.5625 6.8164-1.125 10.191-1.9297z"/>
  <path d="m679.49 145.31 0.72266 0.32031c0.42969 0.19531 0.85156 0.39453 1.2461 0.58984 2.2852 1.0859 3.5977 3.5391 3.2227 6.0469l-0.11328 0.87109 0.49609 0.73047c1.4062 2.0547 2.7188 4.1055 4.0312 6.375h0.003906c1.8867 2.8203 3.9844 5.4961 6.2812 7.9961l1.1172 1.1992 2.3906-0.99219c1.1641-0.49609 2.3711-1.0039 3.6172-1.4336l3.0078-1.0391-1.875-2.5703c-1.0117-1.3594-1.9609-2.7188-2.7109-3.9648l-0.36719-0.67578h0.003906c-2.2461-3.1719-3.1055-7.1211-2.3906-10.941 0.49609-1.8281 1.8477-3.3047 3.6289-3.957l0.60156-0.17969-0.003906 0.003906c0.6875-0.32031 1.4414-0.46484 2.1953-0.42188l0.79688 0.40234 1.0039-0.27344c0.87109-0.27734 1.5781-0.92969 1.9219-1.7812l0.28906-0.71094c0.53516-2.2773 0.86328-4.0859 1.1172-5.5117l0.085938-0.46094h-0.003906c0.53125 1.9648 0.77734 3.9961 0.73047 6.0273 0 0.85156-0.11328 1.7539-0.1875 2.7266l-0.11328 1.5078h-1.875l-2.3047 0.62891v0.003906c-0.51172 0.13672-0.98047 0.39062-1.3789 0.74219-0.73047 0.10156-1.293 0.20703-1.4531 0.42969l-1.707 1.2109 0.24219 1.5469h0.003906c0.39453 2.6211 1.3789 5.1211 2.8789 7.3125 1.4648 2.2969 3.168 4.4297 5.0898 6.3633l0.9375 0.9375 1.2734-0.32031v0.003907c3.9062-1.0312 7.8633-1.8633 11.852-2.4961 10.258-1.8711 20.836-0.79297 30.508 3.1133l2.6719 1.1523 0.55469-2.8125h-0.003906c0.13672-0.67578 0.21094-1.3633 0.22656-2.0508-0.30469-3.0195-1.707-5.8203-3.9375-7.875l-1.5742-1.5938c-3.4219-2.7617-5.9844-6.4414-7.3906-10.605-0.35547-1.6562-0.19531-3.3867 0.46094-4.9492 0.14062-0.40234 0.3125-0.78906 0.51562-1.1641-0.027344 0.43359-0.027344 0.86328 0 1.2969-0.039063 1.4805 0.28516 2.9531 0.9375 4.2812 1.9258 3.2344 4.5352 6 7.6484 8.1094l2.1836 1.875h0.003906c3.1289 2.5469 5.1328 6.2188 5.5781 10.23 0.054687 1.918-0.26563 3.8281-0.9375 5.625l-0.53516 1.6328 5.2891 3.8359 0.9375-3.1133-0.003906-0.003906c1.4648-5.3477 2.4062-10.82 2.8125-16.348 0.375-4.5273 1.0625-9.0234 2.0547-13.453 0.32031-1.2656 0.65625-2.4648 0.9375-3.6094 1.3594-4.9023 2.5312-9.1406 0.14062-12.102-1.8086-2.25-5.1562-3.1211-10.875-2.8125-1.1719 0-2.8125-1.0781-2.9141-2.0625-0.16797-1.1719-0.66406-4.6875-3.4883-5.7188-3.1602-1.1445-6.4023 1.875-9.7695 5.1289v-0.003906c-1.1133 1.1055-2.2891 2.1445-3.5234 3.1133-0.58203 0.39062-1.3125 0.49609-1.9805 0.28125-0.89453-0.17578-1.6758-0.71484-2.1562-1.4922-2.25-4.2109-4.4062-6.3828-6.9844-7.0586-3.2383-0.38281-6.4844 0.64062-8.9141 2.8125-1.6016 1.0703-3.2852 2.0117-5.0352 2.8125-2.8242 1.1016-5.8477 1.6016-8.8789 1.4727-2.1836 0.17969-4.7617-1.4062-8.043-4.2852-1.2188-1.3789-3.1641-1.8438-4.875-1.1719-2.8125 1.2383-3.918 5.625-3.9102 15v0.60938c0.019531 0.89453-0.32422 1.7617-0.95703 2.3945-0.62891 0.63672-1.4922 0.98828-2.3906 0.97266-5.7188 0.30078-8.8789 1.5195-10.238 3.957l0.003906-0.003907c-1.0117 2.5312-0.65625 5.4023 0.9375 7.6133zm25.473 1.2109h-0.22656c0.085938-0.011719 0.17578-0.003907 0.26172 0.027343z"/>
  <path d="m850.54 1029.5c10.961-14.41 10.762-28.32 10.555-44.418 0-2.5977-0.074219-5.25-0.066406-8.0078 0.066406-11.879 0.11328-22.574 0.11328-32.336-0.16016-8.6523-0.24219-16.461-0.30859-23.438-0.085937-8.6055-0.16016-16.031-0.36719-22.379-0.40234-11.512-0.39453-18.684-0.22656-23.148 0.87109 4.4141 1.9961 11.531 3.4141 23.016 1.4141 11.484 2.1641 27 3.0742 45.938 0.1875 9.7695 0.36719 20.523 0.55469 32.477-0.050781 7.5938-0.125 15.68-0.22656 24.262l-0.12109 11.793 3.75-2.5859c26.992-18.75 55.941-15.805 89.477-12.414 4.2109 0.42969 8.4922 0.85156 12.957 1.2656l0.47656 0.066407 1.0508-0.16016v0.003907c2.25-1.1016 4.9414-0.75391 6.832 0.89062l0.86328 0.9375 1.2578-0.21484c0.23438-0.023438 0.46875-0.023438 0.70312 0h2.625l-0.30078-2.6055c-3.6094-33.086-17.492-63.309-31.023-92.738-12.969-22.449-23.934-45.996-32.766-70.367-2.8125-8.6719-4.3047-14.062-5.0625-17.418 1.6953 2.9727 4.2734 7.9414 8.0352 16.227 1.5742 3.1602 3.3086 6.7422 5.25 10.742 4.5078 9.375 10.125 20.992 17.539 34.941l2.3359 4.3984 1.875-4.5938c12.43-30 7.332-57.414 1.9297-86.445-1.9297-10.379-3.9297-21.102-5.1016-32.07l0.003906-0.003906c-0.75391-13.582 0.85547-27.188 4.7539-40.219 5.125-15.859 6.2383-32.742 3.2344-49.137l-0.24219-0.9375-0.85156-0.49609h-0.003906c-2.5938-1.4883-4.9922-3.2852-7.1523-5.3516l-2.0898-2.0234-7.1445 11.398c-3.75 6-7.3867 11.719-10.715 17.336l-16.988 30.457c-2.8125 5.4453-5.3242 10.648-7.6602 15.508-1.6328 3.4023-3.1875 6.6484-4.7422 9.7305-1.2188 2.5586-2.4375 4.9766-3.6016 7.293-2.1289 4.0078-4.0352 8.1328-5.7188 12.348-4.8672 11.586-8.1367 18.684-10.312 23.023 1.2109-4.7422 3.4141-12.32 7.3789-24.375 1.6367-5.0391 3.5742-9.9805 5.793-14.793l2.3359-5.3711c1.0703-2.3984 2.1484-4.9219 3.2734-7.5 2.3984-5.5586 5.1094-11.867 8.2695-18.289 2.832-5.3516 5.8516-11.039 9.0547-17.062l7.5-14.203c4.6875-8.0078 9.9375-16.453 15.535-25.387l7.1172-11.418-9.1484 3.75c-7.0312 2.8125-14.289 5.793-21.188 9.1484-2.5391 1.2383-5.1289 2.5391-7.7539 3.8711h-0.003907c-13.121 7.8867-27.746 12.934-42.938 14.812-6.2617 0.24219-12.531-0.30078-18.656-1.6133l-2.082-0.44922-2.3047 7.1797c-1.7812 5.5586-3.4766 10.828-5.2031 16.078l-5.5703 25.086c-0.81641 4.6875-1.3516 9.168-1.875 13.32-0.28906 2.4844-0.57031 4.875-0.89062 7.1523l-1.1797 8.5234c-0.20703 1.6484-0.28125 3.2734-0.35547 4.8359 0 0.9375-0.085937 1.8203-0.14844 2.7188-0.61719 9.5234-1.2578 15.273-1.8203 18.75-0.47656-3.5078-1.0117-9.3086-1.4258-18.918l-0.10156-2.3633c-0.066406-1.6406-0.16016-3.3477-0.085937-5.082l0.19531-3.2539c0.10156-1.7539 0.21484-3.582 0.35547-5.5039s0.27344-3.9375 0.40234-6.0391c0.28906-4.7734 0.60156-9.7031 1.293-14.945 1.6016-7.8555 3.3359-16.52 5.1953-25.93l7.4336-23.645-1.9297-0.84375v0.007813c-10.801-4.4141-19.008-13.496-22.312-24.684l-0.77734-2.6172-2.4766 1.1719c-4.7539 2.0977-10.078 2.543-15.113 1.2578l-5.5117-1.2461 3.0195 4.7812c4.0586 6.25 7.6406 12.801 10.715 19.594 3.1523 4.9531 3.8281 11.09 1.8203 16.609-2.0039 5.5234-6.4609 9.7969-12.059 11.57-6.8906 3.2734-16.668 7.2734-22.246 4.2656-3.0703-2.0977-4.9297-5.5625-4.9766-9.2812-0.69531-6.2422-0.91797-12.527-0.66797-18.805 0.066406-4.9883 0.14062-10.133-0.24219-15.133-0.375-4.6875-0.80469-9.3086-1.3047-13.914l-1.4805-13.695-3.0859 13.379c-3.9297 16.773-14.68 55.461-32.035 52.211l-1.5-0.28125-0.86328 1.2461h0.003906c-10.523 15.141-19.359 31.387-26.355 48.449-4.9375 12.172-9.1172 24.641-12.516 37.332l-3.1875 12.32c-0.57031 2.8125-1.0977 5.2109-1.6211 7.1641 0-2.0625 0-4.5391 0.13281-7.5 0.22656-3.168 0.75-6.9375 1.3398-11.25l0.19531-1.3672v-0.003907c2.2695-13.219 5.7695-26.195 10.453-38.758 6.4453-17.316 15.016-33.762 25.512-48.965l1.2461-1.8086-1.7266-1.3594c-2.8281-2.1406-5.3672-4.6367-7.5547-7.4258l-2.2969-3.0391-1.6797 3.4219c-1.2852 2.6523-2.6172 5.0703-4.0312 7.4062-2.4922 4.0508-5.2305 8.1562-8.0156 12.336v0.003906c-9.1406 12.16-16.238 25.73-21.008 40.18-5.2031 21.344-8.8555 43.039-10.922 64.914-0.83594 7.5-1.7539 15-2.6719 22.5-5.4336 34.113-7.1523 68.719-5.1289 103.21 1.1172 11.41 1.4805 23.352 1.875 36 0.9375 29.062 1.875 59.164 12.188 84.227 0.61719 1.3398 0.6875 2.8672 0.1875 4.2539l-0.79688 6.1875c-1.0234 9.0195-2.082 18.348-3.9648 27.301l-0.28125 1.3398 1.0312 0.9375c8.4141 7.3086 17.965 13.188 28.273 17.41l3.1875 1.332 0.066406-3.4609c0.26953-34.121-1.2969-68.23-4.6875-102.19l-0.58984-6.8359c-2.5703-30.168-4.7812-56.25-5.4922-75.816l-0.20703-6.1016c-0.23438-6.957-0.44922-12.965-0.40234-18.207 0.10156-5.5586 0.23437-10.191 0.42969-14.008 0.35547 3.7969 0.72266 8.3828 1.1328 13.93l2.2227 24.113c1.1055 12.188 2.6797 26.691 4.5547 43.969 1.0391 9.6484 2.1602 20.172 3.3672 31.566l0.30078 2.9609v0.007812c4.2656 36.715 6.2031 73.664 5.8047 110.62v1.7422l1.668 0.53516c8.7852 2.7695 17.781 4.8242 26.895 6.1406l2.9922 0.44922-0.30859-3c-5.6133-48.355-7.7773-97.051-6.4805-145.71 0.16797-7.2578 0.16797-14.062 0.16797-20.625v-9.8516-8.6328c0-6.4492 0.085938-12.535-0.34766-18.422-0.80469-16.949-1.4805-31.727-2.0352-44.457l-0.39453-8.7266c-0.42188-9.1484-0.77734-17.043-0.77734-23.914 0.10156-7.6602 0.25391-14.062 0.41406-19.211 0.35547 5.1484 0.73047 11.438 1.1445 19.012 0.30859 4.9414 0.81641 10.406 1.3672 16.414 0.46875 4.9961 0.9375 10.367 1.4141 16.145l0.62891 8.1484c0.83594 10.867 1.7539 22.969 2.8125 36.477 0.55469 5.8516 0.62891 12.055 0.71094 18.629 0 2.8125 0.074219 5.625 0.14062 8.5039 0 3.3672 0.074219 6.8242 0.13281 10.359 0.09375 6.5625 0.19531 13.414 0.12109 20.289l0.003907-0.007813c-0.69141 49.242 1.8516 98.473 7.6133 147.38l0.21484 1.875 1.875 0.16797c6.1797 0.52344 12.441 0.79688 18.75 0.79688v0.003906c19.105 0.050782 38.133-2.4062 56.598-7.3047l1.7539-0.47656-0.24219-21.039c-0.085938-8.0352-0.16797-15.883-0.28125-23.652l-0.74219-9.6641c-0.84375-11.008-1.668-21.562-2.4766-31.715-0.14062-2.5977-0.44922-4.8008-0.75-6.957l-0.38281-2.6641-0.55469-1.9414c-0.55469-2.2305-1.2617-4.4258-2.1094-6.5625-1.2461-3.2422-2.6992-6.3477-4.2578-9.6289-1.0977-2.3359-2.2227-4.6875-3.2734-7.1797h0.003906c-2.4297-5.4766-4.1875-11.223-5.2422-17.121-0.066406-1.0859-0.1875-2.1953-0.30859-3.2891-0.28125-1.918-0.36719-3.8594-0.25391-5.793 0.09375-0.88281 0.16016-1.7891 0.21484-2.6914h0.003906c0.074219-2.0078 0.34375-4.0039 0.79688-5.9609 1.1992-6.4492 2.8789-12.262 4.5-17.887 1.1914-4.1172 2.3047-7.9961 3.1875-11.961l1.1055-6.5625v-0.003906c0.20703-1.3828 0.32031-2.7734 0.33594-4.1719 0-0.77734 0.046875-1.5469 0.13281-2.457 0.011719-2.707-0.13672-5.418-0.44141-8.1094-0.14844-1.6016-0.30078-3.1953-0.375-4.875-1.6914-14.465-4.1953-28.82-7.5-43.004l-0.16016-0.73047c-2.6719-12.281-4.9883-23.176-6.2891-32.211-0.97266-5.5664-1.6328-11.18-1.9688-16.82 0-0.70312-0.09375-1.3984-0.14844-2.0547 0.25781 1.3633 0.50781 2.8047 0.75781 4.332 0.71094 4.1992 1.5273 8.9531 2.8867 14.289 1.5547 7.3516 3.75 15.824 6.2891 25.621l1.5859 6.1406c3.9609 14.406 7 29.055 9.0938 43.848 0.11328 1.6406 0.30078 3.2617 0.49609 4.9141 0.38281 2.7969 0.58203 5.6133 0.60156 8.4375 0 0.89063-0.054687 1.8086-0.066406 2.7266 0.007813 1.5117-0.0625 3.0234-0.21484 4.5273-0.36719 2.457-0.74219 4.9141-1.1523 7.3594-0.89063 4.4336-2.1172 8.9453-3.3086 13.312-1.4336 5.2891-2.9258 10.742-3.8516 16.105h-0.003906c-0.35938 1.6523-0.55469 3.3359-0.58203 5.0273-0.046875 0.88281-0.09375 1.7617-0.21484 2.7109v-0.003906c-0.10938 1.7188-0.015625 3.4453 0.28125 5.1406 0.11328 0.85156 0.23438 1.6953 0.30859 2.8672 0.96484 5.5391 2.6562 10.926 5.0352 16.023 0.9375 2.2695 2.0625 4.5859 3.207 6.9648 1.4805 3.1211 3.0391 6.3945 4.4805 10.023v-0.003907c1.0703 2.5781 1.9453 5.2266 2.625 7.9336l0.41406 1.4258c0.52344 3.3281 1.0977 7.1445 1.2734 10.312l0.39453 4.7422c0.9375 11.148 1.875 22.801 2.8789 34.82v0.13281l4.6875-0.375v-0.13281c-1.1562-15.414 10.641-36.984 18.891-47.758z"/>
  <path d="m979.27 1033.5-0.76953-1.4336c-3.0312-5.543-5.4766-11.383-7.3008-17.43l-0.44141-1.5195-1.5742-0.16797c-3.4023-0.34766-6.8516-0.73047-10.312-1.1172v0.003906c-13.863-1.9141-27.852-2.7617-41.844-2.543l-2.8984 0.13281 0.73047 2.8125c1.3594 5.2305 3.2539 10.434 5.0625 15.461l0.003906-0.003906c3.5039 8.2461 5.7188 16.977 6.5625 25.895l0.10156 2.6914 2.6445-0.46094c18.75-3.2734 36.562-7.3398 48.91-21.094z"/>
  <path d="m644.36 381.3c-5.1758-5.4883-9.4375-11.77-12.621-18.609-3.3047-6.8594-5.8672-14.055-7.6406-21.461-2.6406-10.273-4.1094-20.812-4.375-31.414-0.64062-6.4883 0.14453-13.039 2.3047-19.191 2.1406 5.9961 3.7734 12.16 4.875 18.43l0.77734 3.4688c1.5469 6.918 3.4688 15.535 6.7031 25.707 2.0703 6.625 4.6875 13.066 7.8203 19.258 2.2734 4.4414 5.0273 8.6211 8.2031 12.469l2.5391 3.0469 1.4453-3.7031c1.7773-4.6953 3.8438-9.2773 6.1875-13.715l0.51562-0.9375-0.41406-1.0234c-5.7773-13.574-10.543-27.555-14.258-41.832-0.89062-3.3359-1.6133-6.8633-2.3828-11.504-0.73438-3.5859-1.2383-7.2188-1.5078-10.875-0.40234-3.3086-0.78906-6.8242-0.85156-10.172l-0.074219-2.1094 0.27344-1.7266-2.0234-1.5195-2.2109 0.51562h-1.7422l-0.007812 0.003906c-1.0547-0.20312-2.0508-0.63281-2.9258-1.2578-1.3828-1.1211-2.4102-2.6172-2.9648-4.3125-0.52734-1.3672-0.87109-2.8047-1.0195-4.2656-0.61328-5.0977-0.58984-10.254 0.074219-15.344 0.77734-7.2188 2.0742-14.371 3.8828-21.406 0.11328-0.42969 0.22656-0.85156 0.34766-1.2578l-0.17969 1.2578c-0.84375 6.1797-1.6875 12.945-2.0625 21.562-0.3125 4.8672-0.09375 9.7539 0.65625 14.57 0 0.22656 0.84375 5.0898 3.0547 6.6367l0.71094 1.3789 1.7734-0.88281c0.53125-0.10156 1.043-0.28125 1.5195-0.53125 1.3281-0.47656 2.5898-1.125 3.75-1.9336l1.332-0.81641 0.9375-0.57031 0.085938 1.6328 0.21484 3.8984c0.10156 2.0234 0.21484 4.0977 0.375 6.0742 0.10547 2.8906 0.37891 5.7734 0.8125 8.6367l0.17969 1.4062c0.375 3.4688 0.9375 7.0781 1.6953 10.695 0.66406 3.793 1.5195 7.5469 2.5703 11.25 3.1094 11.766 7.0039 23.309 11.652 34.555l1.6953 4.2266 2.457-3.8242v0.003906c2.7031-4.2109 5.6406-8.2656 8.8047-12.141l1.3672-1.8086-0.44141-1.1172h0.003906c-0.18359-0.53906-0.30078-1.0938-0.34766-1.6602-2.0156-6.4688-4.8086-12.672-8.3164-18.469-3.043-5.0391-5.5547-10.383-7.5-15.938-2.2656-7.8633-2.9688-16.094-2.0625-24.227l0.066406-0.78906-0.42188-0.66406c-0.26172-0.38672-0.48828-0.79297-0.68359-1.2188-12.789-30-8.1484-59.289 12.73-80.223l4.2734-4.293-6.0469 0.28906v0.003906c-12.512 0.61328-24.484 5.293-34.098 13.332-10.258 8.7969-18.652 19.559-24.691 31.648-8.7852 17.32-15.391 35.664-19.66 54.609-2.1836 9.6172-3.6758 17.258-4.7539 23.184 0.39453-5.9062 1.2461-13.648 2.9062-23.523v0.003906c3.2773-19.488 9.3477-38.398 18.027-56.148 6.1094-12.699 14.719-24.035 25.312-33.328 6.3359-5.3555 13.664-9.4141 21.562-11.945 8.2773-2.4961 16.984-3.2422 25.566-2.1836l0.9375 0.10156 0.74219-0.55469c0.33594-0.25391 0.68359-0.46094 1.0117-0.66406l2.8984-1.9688-1.4453-1.9414c-1.875-2.4766-3.5078-5.0547-5.1641-7.6406v0.003906c-2.1758-3.5-4.5391-6.8789-7.0781-10.125l-0.39453-0.48828-0.58203-0.22656c-9.6445-3.2461-19.859-4.4609-30-3.5625l-0.9375 0.25391c-2.1758 1.1055-4.4258 2.2227-6.7109 3.3477-19.742 9.75-42.121 20.793-48.898 43.125h-0.003906c-0.27734 1.0273-0.80859 1.9688-1.5469 2.7383l-0.36719 0.51562c-0.09375 0.1875-0.17969 0.375-0.32031 0.68359-24.398 40.969-30.035 87.758-35.48 133.02-2.082 17.336-4.2461 35.27-7.4336 52.586l-0.49609 2.7461 9.1016 0.074219c6.2734 0.046874 12.582 0.09375 18.918 0.09375 26.23 0.57812 52.453-1.457 78.281-6.0781l4.1992-0.85156z"/>
  <path d="m752.46 389.9 2.2109 2.8125 1.6875-3.1602c1.5859-2.9727 3.0469-6.0273 4.3594-9.0859l2.5586-5.9727-5.7852 2.9609c-2.3438 1.1992-4.6328 2.3438-7.0391 3.3086l-1.9766 1.3984 1.5195 3.4336c0.51562 0.9375 1.0312 1.9961 1.5938 2.9609 0.25781 0.46875 0.55078 0.91797 0.87109 1.3438z"/>
  <path d="m875.25 1109.7 0.57031-0.57031c9.6797-10.293 18.734-21.152 27.113-32.523l4.1641-5.3984 0.054688-0.68359c0.085937-1.1914 0.5-2.3398 1.1914-3.3125 8.5859-12.309 2.7109-27.039-2.4922-40.023v0.003906c-1.8633-4.4062-3.4805-8.9141-4.8398-13.5l-0.60156-2.25-2.25 0.58984h0.003906c-16.625 4.0547-30.785 14.902-39.031 29.898-11.793 22.754-17.465 48.188-16.461 73.797v1.9297l1.875 0.40234c0.67578 0.14844 1.3594 0.22656 2.0625 0.30859l1.1445 0.14063 0.34766-0.054688v0.003906c5.1094-1.0547 10.094-2.668 14.859-4.8008 3.4805-1.4883 7.0469-2.7656 10.688-3.8164z"/>
  <path d="m1124.4 620.75c-6.2617-1.875-12.488-3.9922-18.75-6.0938-16.211-6.1211-33.031-10.469-50.176-12.973l-1.6016-0.16797-0.74219 1.4258c-2.5781 4.9961-5.1953 9.7578-7.6953 14.352l-1.6797 3.0273c-0.67578 1.1992-1.3594 2.4102-2.0352 3.6641l-1.5078 2.8125 3.1016 0.62891c6.2148 1.2578 12.516 2.8125 18.609 4.3047 6.4688 1.5859 13.125 3.2344 19.801 4.5391l2.418 0.48828v-0.003906c7.2422 1.6992 14.629 2.6953 22.059 2.9727 5.4102 0.40625 10.793-1.1055 15.199-4.2656 3.4766-3.1953 5.1953-7.8672 4.6211-12.555l-0.085938-1.6484z"/>
  <path d="m1044.4 587.81c12.516-26.41 25.461-53.711 5.6992-80.625-31.742-44.766-66.535-87.285-104.14-127.26l-2.2969-2.3438-1.4727 2.9336c-14.934 29.73-46.105 120.54-27.805 148.89 1.7695 2.8828 4.3164 5.2109 7.3438 6.7227 3.0273 1.5078 6.4141 2.1445 9.7852 1.8281 3.1133 0.007813 5.8008 2.1875 6.457 5.2305l0.9375 2.9805 2.6055-1.7422c2.7461-1.875 5.3906-3.4688 7.875-4.9766v-0.003907c4.3008-2.3828 8.3438-5.2109 12.059-8.4375 6.4141-6.0742 10.754-14.016 12.402-22.695 2.2344-13.086 0.65625-26.535-4.5469-38.746-2.3984-6.2148-4.6875-11.09-6.4961-15-0.9375-2.0352-1.7539-3.75-2.3906-5.2969-0.49609-1.1289-0.92578-2.2812-1.2852-3.4609 0.99219 0.70312 1.9297 1.4727 2.8125 2.3086 5.5117 5.3984 10.18 11.598 13.836 18.391 3.1211 5.6914 5.5664 11.727 7.2852 17.984 2.2812 8.4102 2.75 17.211 1.3789 25.816-0.875 5.0703-2.3906 10.008-4.5195 14.691-0.52344 0.9375-1.0039 1.875-1.4727 2.8125-0.77734 1.6953-1.7461 3.2969-2.875 4.7812l-2.8867 3.75c-0.64844 0.69531-1.3672 1.3867-2.1016 2.1094l-1.1719 1.1641c-2.1641 1.9492-4.4453 3.7656-6.8242 5.4453l-5.9141 4.2461 19.754 0.36719 4.5469 0.32031 1.875-4.3594-0.003906-0.003907c0.38281-0.92969 0.85156-1.8242 1.3984-2.6719 2.0547-3.418 5.0391-6.1797 8.6055-7.9688 5.2695-2.2969 11.027-3.2617 16.762-2.8125l5.1367 0.27344c6.0039 0.96484 12.137 0.77344 18.066-0.5625 3.6641-1.5391 6.5586-4.4844 8.0352-8.1758 0-0.12109 0.11328-0.23438 0.16797-0.34766v0.27344c0.085938 1.7891-0.17188 3.5781-0.75781 5.2695-0.92969 2.7188-2.7695 5.0352-5.2031 6.5625-6.3359 3.082-13.344 4.5312-20.383 4.207l-3.8164 0.19531v0.003906c-4.793 0.011719-9.5234 1.1094-13.836 3.207-1.7656 1.0586-3.1953 2.5898-4.125 4.4219-0.48438 0.62109-0.84766 1.3281-1.0703 2.082l-0.47656 1.4453c-0.074219 0.39453-0.19531 1.0781-0.36719 1.6797-0.51562 2.2891-0.9375 4.9492-1.4336 7.7422l-19.152-0.054687 7.5469 4.3789v-0.003906c7.7422 4.4023 14.664 10.109 20.457 16.875 1.6445 2.0586 3.1094 4.2539 4.375 6.5625-2.1641-1.4531-4.9766-3.6484-6.4961-4.8359-7.5977-5.7422-15.645-10.867-24.066-15.32-5.8281-2.8008-11.891-5.082-18.121-6.8164l-0.58984-0.12109-0.49609 0.066406c-2.1484 0.32031-4.2852 0.63672-6.3359 1.1523h-0.003906c-2.9648 0.69531-5.7578 1.9961-8.1914 3.8242-2.293 1.6953-3.8438 4.2109-4.3242 7.0234-0.60547 3.75-0.53125 7.582 0.21875 11.305l0.65625 4.4727 3.2812-3.1211c0.24219-0.22266 0.46484-0.46875 0.66406-0.73047 1.0508-1.2656 2.5781-2.0391 4.2227-2.1367 1.6406-0.09375 3.25 0.49609 4.4414 1.6289l0.50781 0.30859h-0.003906c0.67969 0.3125 1.3125 0.72266 1.875 1.2109 16.949 14.336 45.309 38.324 51.562 64.977l1.0039 4.2578 2.9922-3.1953c14.68-16.98 26.605-36.156 35.344-56.832 1.1328-2.4766 2.3125-4.9805 3.4766-7.5195z"/>
  <path d="m642.19 550.5-3.0195 1.3398c-4.5781 2.0156-8.3359 5.5234-10.668 9.9492-2.332 4.4258-3.0938 9.5117-2.1641 14.426l0.16016 2.1172h2.1367c2.8789 0.066407 5.7734 0.12109 8.7188 0.25391l1.875 0.074218 0.47656-1.8086c2.2656-7.4883 3.1914-15.316 2.7383-23.125z"/>
  <path d="m986.39 1046.4-1.9961-3.6484-2.0898 3.6016c-1.6016 2.8125-3.4414 5.4766-5.2695 8.1641-4.9961 6.3477-8.6016 13.676-10.574 21.508-1.7617 12.59-0.27344 25.418 4.3281 37.266l1.0039 3.1484 2.6328-1.9883 0.003907 0.003906c11.723-7.875 20.125-19.805 23.586-33.5v-0.77734l-0.14062-0.52344c-1.3242-11.797-5.2461-23.156-11.484-33.254z"/>
  <path d="m966.18 1058.4 3.9102-6.375-6.8516 3.0078h-0.003906c-11.879 4.6094-24.25 7.8125-36.871 9.5547l-1.332 0.22656-0.46875 1.2852v-0.003907c-0.88281 2.3555-2.0273 4.6055-3.4141 6.7031l-0.35547 0.98437c-0.097657 0.80078-0.30078 1.582-0.59766 2.3281l-0.79687 2.0078 1.9414 0.9375c3.0078 1.4805 6.1328 2.9336 9.2891 4.4141 7.9336 3.4688 15.617 7.4844 22.996 12.016l4.1523 2.6992-0.55469-4.9219 0.003906 0.003907c-0.64453-4.8086-0.54297-9.6875 0.29688-14.469 1.5586-7.2891 4.4961-14.215 8.6562-20.398z"/>
  <path d="m925.14 1089.7c-3.2266-1.4141-6.3672-2.8125-9.3008-4.1992l-1.7812-0.85547-3.8984 5.418c-5.0156 7.4297-10.598 14.461-16.699 21.027-1.875 1.9688-3.9453 3.9297-6.0273 5.9062-5.2109 4.6172-9.8828 9.8086-13.922 15.48-2.0234 3.1406-4.4922 7.6953-2.4648 11.035 1.5 2.4844 4.6211 3.1953 8.7852 3.1953 2.5234 0 5.4453-0.26172 8.6172-0.55469h-0.003906c8.1367-0.57031 16.203-1.9023 24.094-3.9727 17.551-4.668 34.469-11.453 50.383-20.203l1.4805-1.4453-0.83594-2.4297c-6.5898-14.387-23.512-21.832-38.426-28.402z"/>
  <path d="m666.56 580.31-0.87109-3.168c-1.8555-8.3125-6.4844-15.746-13.125-21.074l-3.5703-2.3164v4.2656h-0.003906c-0.12109 6.1836-0.97266 12.332-2.5312 18.316l-0.67578 2.7578 2.8125 0.14062c4.6875 0.23438 9.2617 0.52344 13.855 0.81641z"/>
  <path d="m621.56 73.801 0.72266 2.1562 2.8672-0.86328c1.0586-0.30859 2.1367-0.63672 3.1875-1.0039 2.9805-0.71094 5.2578-3.125 5.793-6.1406 0.78906-6.375-7.8672-12.676-9.6094-13.875l-0.80469-0.55469-0.9375 0.17969c-1.9609 0.375-3.8438 0.75781-5.6797 1.1914l-2.7578 0.66406 1.1719 2.5859v0.003906c2.2852 5.1094 4.3047 10.336 6.0469 15.656z"/>
  <path d="m605.23 81.168 5.5781-1.7812-4.2852-2.7188c-3.168-2.0078-6.3281-4.0117-9.375-6.1484l-3.6016-2.5234-0.085937 4.3984h0.003906c-0.027344 3.1016-0.26562 6.1992-0.71094 9.2695l-0.61719 3.918 3.75-1.3594c3.082-1.1211 6.2305-2.0977 9.3438-3.0547z"/>
  <path d="m609.23 70.789 5.8672 3.5898-2.4453-6.4219c-1.3125-3.4414-2.4922-6.2148-3.75-8.7266l-0.9375-1.875-1.9492 0.63672c-2.0547 0.69531-4.1172 1.4336-6.1797 2.1836l-4.1523 1.5078 3.582 2.5977c3.3086 2.4023 6.7383 4.5312 9.9648 6.5078z"/>
  <path d="m757.17 179.3 4.6875 12.629c0.92578 2.4219 1.5859 4.9336 1.9688 7.5l0.14844 1.4336c0.20703 1.3281 0.30078 2.668 0.28125 4.0117-0.074218 0.65625-0.16016 1.2656-0.25391 1.8203-0.10156-0.44141-0.19531-0.9375-0.32812-1.4922h0.003907c-0.24609-0.95703-0.55859-1.8984-0.9375-2.8125-0.26172-0.73047-0.55469-1.5078-0.81641-2.3984-1.8398-5.3594-4.5078-10.398-7.9023-14.934-1.5898-2.0508-3.3242-3.9805-5.1953-5.7773l-5.2422-5.043 1.3047 7.1523c0.21484 1.2266 0.33594 2.3984 0.47656 3.6562 0.37109 4.9531 0.28516 9.9297-0.25 14.871-0.22656 2.0156-0.57031 4.0195-1.0234 6-0.41797-1.9805-0.73438-3.9805-0.9375-5.9922-0.13281-1.1719-0.26172-2.4453-0.41406-3.8242-0.30859-3.0195-0.66406-6.5625-1.2656-10.621-0.47266-3.0195-1.1641-5.9961-2.0625-8.918l-0.48828-1.5859-2.9258-0.13281 0.003906 0.003906c-1.2734-0.089844-2.5508-0.089844-3.8242 0h-1.3203l-0.67578 1.1172h-0.003906c-2.5156 4.1367-4.6484 8.5-6.3633 13.031-2.0625 5.0352-3.4062 10.336-3.9961 15.75-0.19922 2.207-0.22266 4.4258-0.0625 6.6367-1.0352-2.0469-1.6523-4.2773-1.8203-6.5625-0.45312-5.7773 0.29297-11.59 2.1953-17.062 0.76953-2.5234 1.6836-5 2.7344-7.418l2.9453-6.6641-6.2734 3.75c-5.7148 3.4453-10.727 7.9492-14.766 13.266-3.0586 3.9219-5.668 8.168-7.7891 12.664-0.49609 1.2188-1.0039 2.2695-1.4453 3.1953l-0.53516 1.1719c-0.13672 0.44531-0.27734 0.85547-0.42188 1.2383 0-0.42969-0.10156-0.86328-0.16016-1.2578 0.1875-1.3984 0.42188-3.1016 0.76953-5.0547l0.003906 0.003907c1.2695-5.0742 3.4297-9.8867 6.375-14.211 0.53516-0.76953 1.0703-1.5391 1.7148-2.3633l5.9141-7.5547-8.7266 3.9766c-27.602 12.57-41.391 37.117-36.02 64.059l1.2578 6.2891 3.0938-5.625c1.5352-3.2461 4.1992-5.8203 7.5-7.2383 4.5586-1.1758 9.4023-0.42969 13.395 2.0625 5.3711 2.3047 11.465 4.9219 16.773-0.42969 10.332-8.7695 23.676-13.18 37.199-12.293 9.207 0.38281 14.57 6.8906 20.23 13.781 2.4883 3.1914 5.2227 6.1797 8.1758 8.9453l1.8008 1.5742 1.5469-1.8008c2.5156-3.1914 5.8906-5.5977 9.7305-6.9375l2.1016-0.58984-0.42969-2.1484-0.003906 0.003907c-2.8789-18.887-10.078-36.852-21.035-52.5z"/>
  <path d="m777.7 259.74c-0.46484 0.75391-1.2109 1.2891-2.0742 1.4844-0.77344 0.21094-1.6016 0.09375-2.2852-0.32031-3.9961-2.8242-7.6602-6.0859-10.934-9.7227-8.5508-8.6914-18.215-18.535-30.301-14.887-6.8047 2.1523-13.102 5.6602-18.516 10.312-3.0039 2.3945-6.1641 4.5859-9.457 6.5625-2.4648 1.2891-5.3516 1.5156-7.9883 0.61719-2.0508-0.73437-3.9336-1.875-5.5312-3.3555-0.75-0.65625-1.707-1.4805-3.1953-2.6523l-0.82422-0.64844-1.0234 0.1875c-5.5156 0.34766-10.469 3.4922-13.125 8.3359l-0.41406 0.9375 0.39453 0.9375c0.5625 1.3086 0.74219 2.7461 0.51562 4.1523-3.1602 13.355-1.1875 27.406 5.5234 39.375 4.6211 7.6055 8.2461 15.773 10.789 24.301l0.375 0.78906c3 4.7852 5.4258 9.9062 7.2266 15.262 2.3945 10.031 8.2734 18.887 16.586 24.992 6.2031 3.4336 13.141 5.3281 20.23 5.5234 4.1641 0.015625 8.2891-0.82812 12.113-2.4766 21.805-9.375 31.621-43.613 36.891-61.996l0.13281-0.44922 0.007812-0.44141c-0.64453-6.1406-0.74219-12.328-0.28906-18.488 0.039062-1.5742 1.0977-2.9375 2.6133-3.3633 5.6914-2.3164 6.5156-15.535 6.3555-20.43l-0.24219-0.9375c-0.25-0.52344-0.43359-1.0742-0.54297-1.6406-0.375-1.875-0.73047-3.7969-1.0977-5.8789l-0.44141-1.0117c-0.875-1.2812-2.3516-2.0156-3.8984-1.9492-2.5312 0.074219-4.8477 2.2227-7.5742 6.8789zm-71.758 60.188c0.55078-2.9727 1.3906-5.8867 2.5117-8.6992l0.38281-1.0508h0.003907c2.2227-4.6484 3.3516-9.75 3.2969-14.906-0.35156-3.0938-1.6445-6.0039-3.7031-8.3438l-0.085938-0.12109h0.003906c3.0703 1.5781 5.375 4.3242 6.4023 7.6211 1.2305 5.7305 0.8125 11.688-1.2109 17.188-0.23437 0.83594-0.54297 1.7539-0.86328 2.7188-1.4805 4.4062-3.1406 9.375-0.80469 12.984 1.4609 2.0039 3.7812 3.1992 6.2617 3.2227 5.207 0.89062 10.531-0.67188 14.43-4.2383 2.0156-2.5547 2.5898-5.9609 1.5195-9.0352-0.99609-3.0469-1.668-6.1875-1.9961-9.375 0.58984 1.2656 1.3984 2.7383 2.3906 4.5469 0.66406 1.2109 1.4258 2.5859 2.1758 3.9922l0.32031 0.73047h-0.003906c1.2383 2.332 1.8125 4.9609 1.668 7.5938-0.074219 0.89063-0.30859 1.7578-0.69141 2.5625l-0.10156 0.22656-0.003906-0.003906c-0.23047 0.66406-0.54688 1.293-0.9375 1.875-0.70312 0.99609-1.6289 1.8125-2.707 2.3828-0.76562 0.46094-1.5703 0.84375-2.4102 1.1445-3.332 1.2031-6.8438 1.8359-10.387 1.875-1.8633 0.082032-3.7266-0.003906-5.5703-0.26562-1.1406-0.20313-2.2734-0.46875-3.3828-0.79688-1.0664-0.33984-2.0703-0.83594-2.9922-1.4688-3.3008-3.1914-4.6445-7.9062-3.5156-12.359z"/>
  <path d="m445.31 150-1.2578-1.9609-1.9688 1.2461c-6.6641 4.2266-13.82 7.875-20.738 11.391l0.003906 0.003907c-8.8789 4.2734-17.445 9.1641-25.641 14.633-4.8945 3.4492-9.7734 6.9219-14.633 10.414-12.535 8.9727-25.52 18.262-38.773 26.691-12.008 7.6602-24.609 14.867-36.797 21.844h-0.003906c-21.316 11.586-41.828 24.594-61.387 38.945-31.555 24.281-68.926 52.789-106.88 80.23-5.9258 4.293-12.441 8.4375-19.332 12.816-21.141 13.434-45.113 28.668-54.16 51.629l-2.6523 6.7695 6.1016-3.9453c41.25-26.57 81.441-55.977 120.36-84.375 22.164-16.199 45.066-32.945 67.895-48.965 37.969-26.645 72.289-49.949 104.93-71.25 15.289-9.9453 31.445-19.258 47.055-28.266 14.109-8.1289 28.68-16.539 42.59-25.398l1.8477-1.2031-0.9375-1.875c-1.875-3.6094-3.9922-6.9297-5.625-9.375z"/>
  <path d="m543.7 144.96 0.25391 0.32031h-0.003907c9.9258 11.133 20.961 21.227 32.938 30.121l1.7891 1.3672 1.4336-1.7344c10.648-11.566 23.43-20.965 37.641-27.684l3.2734-1.7344-2.9727-2.2227c-13.648-9.6562-27.887-18.453-42.629-26.344-3.5156-1.9883-6.9648-3.9297-10.312-5.832v0.003906c-10.801-6.8984-22.574-12.133-34.93-15.535l-0.44141-0.09375-0.44141 0.074219c-1.5117 0.27344-3.0742 0.03125-4.4336-0.68359l-0.9375-0.27344c-8.9727-0.90625-17.965 1.5352-25.246 6.8555l-0.49609 0.375-0.27344 0.5625c-0.99609 2.3828-3.3828 3.8828-5.9609 3.75-1.543-0.12891-3.082 0.26953-4.3711 1.125-1.2383 0.76563-2.3516 1.7148-3.3086 2.8125-1.1836 1.3359-2.2891 2.7422-3.3086 4.207l-0.83594 1.1445 0.61719 1.2734c1.5938 3.2266 3.3359 6.3203 5.0547 9.375 4.0977 6.5234 7.2305 13.602 9.3008 21.02l0.41406 1.875h1.875c13.277-0.31641 26.441-2.5234 39.094-6.5625 2.6797-0.96875 5.6719 0.042968 7.2188 2.4375z"/>
  <path d="m468.84 142.76c-2.2773-5.2109-4.9805-10.23-8.082-15l-0.33594-0.49609c-1.8789-3.2227-4.3867-6.0312-7.3789-8.2578-1.5195-1.6484-3.7773-2.4023-5.9805-2.0078-2.3359 0.57031-4.1523 2.6914-5.5234 6.4609l-0.14844 2.1367 0.82422 0.70312c9.75 9.3008 17.648 20.363 23.277 32.605 2.0078 3.6953 4.0117 7.4141 6.1602 11.07l2.3711 4.0703 1.8086-4.3516c2.8867-6.957-1.875-16.648-5.4375-23.738-0.5625-1.1328-1.0781-2.1914-1.5547-3.1953z"/>
  <path d="m580.37 85.145 3.9648 2.7266 1.0117-2.9141h0.003906c1.4805-5.0195 2.0469-10.262 1.668-15.48l-0.09375-3.6172-3.2617 1.5547c-4.293 2.0625-8.5312 4.3047-12.777 6.6094l-3.0391 1.6484 2.6523 2.2109c3.1133 2.6094 6.5547 4.9727 9.8711 7.2617z"/>
  <path d="m560.2 92.625 2.2305 1.1992c1.9492 1.0508 3.918 2.1094 5.8984 3.1406l1.875 0.52344 1.2188-1.2461c1.4453-1.0234 2.8672-1.9688 4.3594-2.8672l3.0742-1.875-4.1719-2.9805c-3.8945-2.6445-7.6055-5.543-11.121-8.6719l-1.2656-1.1914-1.5078 0.86328c-1.8086 1.0508-3.6367 2.0625-5.4844 3.0859l-7.3984 4.1445 4.2656 1.875c2.6914 1.2734 5.3711 2.6133 8.0273 4z"/>
 </g>
</svg>
